<svg width="22" height="23" viewBox="0 0 22 23" fill="none" xmlns="http://www.w3.org/2000/svg">
<path d="M11 0C13.2773 0 15.125 1.84766 15.125 4.125V4.29688C15.125 4.98438 14.5664 5.5 13.8789 5.5H8.07812C7.39062 5.5 6.875 4.98438 6.875 4.29688V4.125C6.875 1.84766 8.72266 0 11 0ZM1.67578 4.42578C2.0625 4.03906 2.70703 4.03906 3.09375 4.42578L6.23047 7.5625C6.91797 7.13281 7.73438 6.875 8.59375 6.875H13.4062C14.2656 6.875 15.0391 7.13281 15.7266 7.5625L18.8633 4.42578C19.25 4.03906 19.8945 4.03906 20.2812 4.42578C20.7109 4.85547 20.7109 5.5 20.2812 5.88672L17.1875 9.02344C17.6172 9.71094 17.875 10.4844 17.875 11.3438H20.9688C21.5273 11.3438 22 11.8164 22 12.375C22 12.9766 21.5273 13.4062 20.9688 13.4062H17.875V13.75C17.875 14.9531 17.5742 16.0273 17.0586 17.0156L20.3242 20.2383C20.7109 20.668 20.7109 21.3125 20.3242 21.6992C19.8945 22.1289 19.25 22.1289 18.8633 21.6992L15.8125 18.6484C14.5664 19.8945 12.8477 20.625 11 20.625C9.10938 20.625 7.39062 19.8945 6.14453 18.6914L3.13672 21.6992C2.70703 22.1289 2.0625 22.1289 1.67578 21.6992C1.24609 21.3125 1.24609 20.668 1.67578 20.2812L4.89844 17.0156C4.38281 16.0273 4.125 14.9531 4.125 13.75V13.4062H1.03125C0.429688 13.4062 0 12.9766 0 12.375C0 11.8164 0.429688 11.3438 1.03125 11.3438H4.125C4.125 10.4844 4.33984 9.71094 4.76953 9.02344L1.67578 5.88672C1.24609 5.5 1.24609 4.85547 1.67578 4.46875V4.42578ZM6.1875 11.3438V13.75C6.1875 16.0703 7.77734 18.0039 9.96875 18.4766V12.0312C9.96875 11.4727 10.3984 11 11 11C11.5586 11 12.0312 11.4727 12.0312 12.0312V18.4766C14.1797 18.0039 15.8125 16.0703 15.8125 13.75V11.3438C15.8125 10.0547 14.6953 8.9375 13.4062 8.9375H8.59375C7.26172 8.9375 6.1875 10.0547 6.1875 11.3438Z" fill="#D6BFAF"/>
</svg>
