<svg width="207" height="37" viewBox="0 0 207 37" fill="none" xmlns="http://www.w3.org/2000/svg">
<rect width="195" height="25" transform="translate(6 6)" fill="#D14646"/>
<path d="M25.8848 19.063C25.8848 19.6681 25.8078 20.2196 25.6538 20.7173C25.4998 21.2114 25.2707 21.6375 24.9663 21.9956C24.6655 22.3501 24.2913 22.624 23.8438 22.8174C23.3962 23.0107 22.877 23.1074 22.2861 23.1074C21.6774 23.1074 21.1457 23.0107 20.6909 22.8174C20.2397 22.624 19.8638 22.3483 19.563 21.9902C19.2658 21.6322 19.042 21.2043 18.8916 20.7065C18.7448 20.2088 18.6714 19.6574 18.6714 19.0522C18.6714 18.2502 18.8039 17.5465 19.0688 16.9414C19.3338 16.3363 19.7349 15.8654 20.272 15.5288C20.8127 15.1922 21.4894 15.0239 22.3022 15.0239C23.0793 15.0239 23.7327 15.1904 24.2627 15.5234C24.7962 15.8564 25.1991 16.3255 25.4712 16.9307C25.7469 17.5322 25.8848 18.243 25.8848 19.063ZM19.6328 19.063C19.6328 19.729 19.7277 20.3055 19.9175 20.7925C20.1073 21.2795 20.3973 21.6554 20.7876 21.9204C21.1815 22.1854 21.681 22.3179 22.2861 22.3179C22.8949 22.3179 23.3926 22.1854 23.7793 21.9204C24.1696 21.6554 24.4578 21.2795 24.644 20.7925C24.8302 20.3055 24.9233 19.729 24.9233 19.063C24.9233 18.0496 24.7103 17.2583 24.2842 16.689C23.8617 16.116 23.201 15.8296 22.3022 15.8296C21.6935 15.8296 21.1922 15.9603 20.7983 16.2217C20.4045 16.4831 20.1108 16.8555 19.9175 17.3389C19.7277 17.8187 19.6328 18.3934 19.6328 19.063ZM30.2891 17.0059C30.9873 17.0059 31.5155 17.1777 31.8735 17.5215C32.2316 17.8617 32.4106 18.4095 32.4106 19.165V23H31.5298V19.2241C31.5298 18.7336 31.417 18.3665 31.1914 18.123C30.9694 17.8796 30.6274 17.7578 30.1655 17.7578C29.5138 17.7578 29.0555 17.9422 28.7905 18.311C28.5256 18.6799 28.3931 19.2152 28.3931 19.917V23H27.5015V17.1133H28.2212L28.3555 17.9619H28.4038C28.5291 17.7542 28.6885 17.5806 28.8818 17.4409C29.0752 17.2977 29.2918 17.1903 29.5317 17.1187C29.7716 17.0435 30.0241 17.0059 30.2891 17.0059ZM35.1445 23H34.2476V14.6426H35.1445V23ZM36.1006 17.1133H37.0566L38.3564 20.5293C38.4316 20.7298 38.5015 20.9232 38.5659 21.1094C38.6304 21.292 38.6877 21.4674 38.7378 21.6357C38.7879 21.804 38.8273 21.967 38.856 22.1245H38.8936C38.9437 21.9455 39.0153 21.7109 39.1084 21.4209C39.2015 21.1273 39.3018 20.8283 39.4092 20.5239L40.6392 17.1133H41.6006L39.0386 23.8647C38.9025 24.2264 38.7432 24.5415 38.5605 24.8101C38.3815 25.0786 38.1631 25.2845 37.9053 25.4277C37.6475 25.5745 37.3359 25.6479 36.9707 25.6479C36.8024 25.6479 36.6538 25.6372 36.5249 25.6157C36.396 25.5978 36.285 25.5763 36.1919 25.5513V24.8369C36.2707 24.8548 36.3656 24.8709 36.4766 24.8853C36.5911 24.8996 36.7093 24.9067 36.8311 24.9067C37.0531 24.9067 37.2446 24.8638 37.4058 24.7778C37.5705 24.6955 37.7119 24.5737 37.8301 24.4126C37.9482 24.2515 38.0503 24.0599 38.1362 23.8379L38.4585 23.0107L36.1006 17.1133ZM48.3198 23H47.4497V17.4355C47.4497 17.2243 47.4497 17.0435 47.4497 16.8931C47.4533 16.7391 47.4569 16.5994 47.4604 16.4741C47.4676 16.3452 47.4766 16.2145 47.4873 16.082C47.3763 16.1966 47.2725 16.2951 47.1758 16.3774C47.0791 16.4562 46.9591 16.5547 46.8159 16.6729L45.9189 17.3926L45.4517 16.7856L47.5786 15.1475H48.3198V23ZM54.6846 23V15.1475H55.5977V23H54.6846ZM60.4102 17.0059C61.1084 17.0059 61.6366 17.1777 61.9946 17.5215C62.3527 17.8617 62.5317 18.4095 62.5317 19.165V23H61.6509V19.2241C61.6509 18.7336 61.5381 18.3665 61.3125 18.123C61.0905 17.8796 60.7485 17.7578 60.2866 17.7578C59.6349 17.7578 59.1766 17.9422 58.9116 18.311C58.6466 18.6799 58.5142 19.2152 58.5142 19.917V23H57.6226V17.1133H58.3423L58.4766 17.9619H58.5249C58.6502 17.7542 58.8096 17.5806 59.0029 17.4409C59.1963 17.2977 59.4129 17.1903 59.6528 17.1187C59.8927 17.0435 60.1452 17.0059 60.4102 17.0059ZM71.7915 20.9106C71.7915 21.3761 71.6751 21.7736 71.4424 22.103C71.2132 22.4289 70.891 22.6777 70.4756 22.8496C70.0602 23.0215 69.5715 23.1074 69.0093 23.1074C68.7121 23.1074 68.431 23.0931 68.166 23.0645C67.901 23.0358 67.6576 22.9946 67.4355 22.9409C67.2135 22.8872 67.0184 22.821 66.8501 22.7422V21.8667C67.1187 21.9777 67.4463 22.0815 67.833 22.1782C68.2197 22.2713 68.6243 22.3179 69.0469 22.3179C69.4408 22.3179 69.7738 22.266 70.0459 22.1621C70.318 22.0547 70.5239 21.9025 70.6636 21.7056C70.8068 21.505 70.8784 21.2651 70.8784 20.9858C70.8784 20.7173 70.8193 20.4935 70.7012 20.3145C70.583 20.1318 70.3861 19.9671 70.1104 19.8203C69.8382 19.6699 69.4658 19.5106 68.9932 19.3423C68.6602 19.2241 68.3665 19.0952 68.1123 18.9556C67.8581 18.8123 67.645 18.6512 67.4731 18.4722C67.3013 18.2931 67.1706 18.0854 67.0811 17.8491C66.9951 17.6128 66.9521 17.3424 66.9521 17.0381C66.9521 16.6191 67.0578 16.2611 67.269 15.9639C67.4839 15.6631 67.7793 15.4339 68.1553 15.2764C68.5348 15.1152 68.9699 15.0347 69.4604 15.0347C69.8794 15.0347 70.2661 15.0741 70.6206 15.1528C70.9787 15.2316 71.3063 15.3372 71.6035 15.4697L71.3188 16.2539C71.036 16.1357 70.7352 16.0373 70.4165 15.9585C70.1014 15.8797 69.7756 15.8403 69.439 15.8403C69.1024 15.8403 68.8177 15.8905 68.585 15.9907C68.3558 16.0874 68.1803 16.2253 68.0586 16.4043C67.9368 16.5833 67.876 16.7964 67.876 17.0435C67.876 17.3192 67.9333 17.5483 68.0479 17.731C68.166 17.9136 68.3522 18.0765 68.6064 18.2197C68.8643 18.3594 69.2044 18.5062 69.627 18.6602C70.0889 18.8285 70.481 19.0075 70.8032 19.1973C71.1255 19.3835 71.3708 19.6126 71.5391 19.8848C71.7074 20.1533 71.7915 20.4953 71.7915 20.9106ZM75.1646 22.377C75.3114 22.377 75.4618 22.3644 75.6157 22.3394C75.7697 22.3143 75.895 22.2839 75.9917 22.248V22.9409C75.8879 22.9875 75.7428 23.0269 75.5566 23.0591C75.374 23.0913 75.195 23.1074 75.0195 23.1074C74.708 23.1074 74.4251 23.0537 74.1709 22.9463C73.9167 22.8353 73.7126 22.6491 73.5586 22.3877C73.4082 22.1263 73.333 21.7646 73.333 21.3027V17.8115H72.4951V17.3765L73.3384 17.0273L73.6929 15.749H74.23V17.1133H75.9541V17.8115H74.23V21.2759C74.23 21.6447 74.3141 21.9204 74.4824 22.103C74.6543 22.2856 74.8817 22.377 75.1646 22.377ZM82.2598 20.0459C82.2598 20.5293 82.1971 20.9608 82.0718 21.3403C81.9465 21.7199 81.7656 22.0404 81.5293 22.3018C81.293 22.5632 81.0065 22.7637 80.6699 22.9033C80.3369 23.0394 79.9591 23.1074 79.5366 23.1074C79.1427 23.1074 78.7811 23.0394 78.4517 22.9033C78.1258 22.7637 77.8429 22.5632 77.603 22.3018C77.3667 22.0404 77.1823 21.7199 77.0498 21.3403C76.9209 20.9608 76.8564 20.5293 76.8564 20.0459C76.8564 19.4014 76.9657 18.8535 77.1841 18.4023C77.4025 17.9476 77.714 17.6021 78.1187 17.3657C78.5269 17.1258 79.012 17.0059 79.5742 17.0059C80.1113 17.0059 80.5804 17.1258 80.9814 17.3657C81.3861 17.6056 81.6994 17.953 81.9214 18.4077C82.147 18.8589 82.2598 19.4049 82.2598 20.0459ZM77.7803 20.0459C77.7803 20.5186 77.8429 20.9285 77.9683 21.2759C78.0936 21.6232 78.2869 21.8918 78.5483 22.0815C78.8097 22.2713 79.1463 22.3662 79.5581 22.3662C79.9663 22.3662 80.3011 22.2713 80.5625 22.0815C80.8275 21.8918 81.0226 21.6232 81.1479 21.2759C81.2733 20.9285 81.3359 20.5186 81.3359 20.0459C81.3359 19.5768 81.2733 19.1722 81.1479 18.832C81.0226 18.4883 80.8293 18.2233 80.5679 18.0371C80.3065 17.8509 79.9681 17.7578 79.5527 17.7578C78.9404 17.7578 78.491 17.9601 78.2046 18.3647C77.9217 18.7694 77.7803 19.3298 77.7803 20.0459ZM86.1592 23.1074C85.6292 23.1074 85.1619 22.9982 84.7573 22.7798C84.3527 22.5614 84.0376 22.2284 83.812 21.7808C83.5864 21.3332 83.4736 20.7692 83.4736 20.0889C83.4736 19.3763 83.5918 18.7944 83.8281 18.3433C84.068 17.8885 84.3975 17.5519 84.8164 17.3335C85.2354 17.1151 85.7116 17.0059 86.2451 17.0059C86.5387 17.0059 86.8216 17.0363 87.0938 17.0972C87.3695 17.1545 87.5951 17.2279 87.7705 17.3174L87.502 18.064C87.3229 17.9924 87.1152 17.9279 86.8789 17.8706C86.6462 17.8133 86.4277 17.7847 86.2236 17.7847C85.8154 17.7847 85.4753 17.8724 85.2031 18.0479C84.9346 18.2233 84.7323 18.4811 84.5962 18.8213C84.4637 19.1615 84.3975 19.5804 84.3975 20.0781C84.3975 20.5544 84.4619 20.9608 84.5908 21.2974C84.7233 21.634 84.9185 21.8918 85.1763 22.0708C85.4377 22.2463 85.7635 22.334 86.1538 22.334C86.4653 22.334 86.7464 22.3018 86.9971 22.2373C87.2477 22.1693 87.4751 22.0905 87.6792 22.001V22.7959C87.4823 22.8962 87.262 22.9731 87.0186 23.0269C86.7786 23.0806 86.4922 23.1074 86.1592 23.1074ZM89.9619 14.6426V18.9824C89.9619 19.1257 89.9565 19.3011 89.9458 19.5088C89.9351 19.7129 89.9261 19.8937 89.9189 20.0513H89.9565C90.0317 19.9582 90.141 19.8203 90.2842 19.6377C90.431 19.4551 90.5545 19.3083 90.6548 19.1973L92.6099 17.1133H93.6572L91.2886 19.627L93.8291 23H92.7549L90.6763 20.2124L89.9619 20.8677V23H89.0757V14.6426H89.9619ZM94.7207 22.4414C94.7207 22.1908 94.7816 22.0135 94.9033 21.9097C95.0251 21.8022 95.1737 21.7485 95.3491 21.7485C95.5317 21.7485 95.6857 21.8022 95.811 21.9097C95.9364 22.0135 95.999 22.1908 95.999 22.4414C95.999 22.6885 95.9364 22.8693 95.811 22.9839C95.6857 23.0949 95.5317 23.1504 95.3491 23.1504C95.1737 23.1504 95.0251 23.0949 94.9033 22.9839C94.7816 22.8693 94.7207 22.6885 94.7207 22.4414ZM102.74 19.0845L104.829 15.1475H105.812L103.196 19.9546V23H102.283V19.9976L99.6621 15.1475H100.661L102.74 19.0845ZM111.833 20.0459C111.833 20.5293 111.77 20.9608 111.645 21.3403C111.52 21.7199 111.339 22.0404 111.103 22.3018C110.866 22.5632 110.58 22.7637 110.243 22.9033C109.91 23.0394 109.532 23.1074 109.11 23.1074C108.716 23.1074 108.354 23.0394 108.025 22.9033C107.699 22.7637 107.416 22.5632 107.176 22.3018C106.94 22.0404 106.756 21.7199 106.623 21.3403C106.494 20.9608 106.43 20.5293 106.43 20.0459C106.43 19.4014 106.539 18.8535 106.757 18.4023C106.976 17.9476 107.287 17.6021 107.692 17.3657C108.1 17.1258 108.585 17.0059 109.147 17.0059C109.685 17.0059 110.154 17.1258 110.555 17.3657C110.959 17.6056 111.273 17.953 111.495 18.4077C111.72 18.8589 111.833 19.4049 111.833 20.0459ZM107.354 20.0459C107.354 20.5186 107.416 20.9285 107.542 21.2759C107.667 21.6232 107.86 21.8918 108.122 22.0815C108.383 22.2713 108.72 22.3662 109.131 22.3662C109.54 22.3662 109.874 22.2713 110.136 22.0815C110.401 21.8918 110.596 21.6232 110.721 21.2759C110.847 20.9285 110.909 20.5186 110.909 20.0459C110.909 19.5768 110.847 19.1722 110.721 18.832C110.596 18.4883 110.403 18.2233 110.141 18.0371C109.88 17.8509 109.541 17.7578 109.126 17.7578C108.514 17.7578 108.064 17.9601 107.778 18.3647C107.495 18.7694 107.354 19.3298 107.354 20.0459ZM118.235 17.1133V23H117.505L117.376 22.1729H117.328C117.206 22.377 117.048 22.5488 116.855 22.6885C116.662 22.8281 116.443 22.932 116.2 23C115.96 23.0716 115.704 23.1074 115.432 23.1074C114.966 23.1074 114.576 23.0322 114.261 22.8818C113.946 22.7314 113.708 22.4987 113.546 22.1836C113.389 21.8685 113.31 21.4639 113.31 20.9697V17.1133H114.212V20.9053C114.212 21.3958 114.323 21.7629 114.545 22.0063C114.767 22.2463 115.106 22.3662 115.561 22.3662C115.997 22.3662 116.345 22.2839 116.603 22.1191C116.864 21.9544 117.052 21.7127 117.167 21.394C117.281 21.0718 117.338 20.6779 117.338 20.2124V17.1133H118.235ZM125.234 15.1475C125.878 15.1475 126.41 15.228 126.829 15.3892C127.252 15.5467 127.567 15.7884 127.774 16.1143C127.982 16.4401 128.086 16.8555 128.086 17.3604C128.086 17.7757 128.011 18.123 127.86 18.4023C127.71 18.6781 127.513 18.9019 127.27 19.0737C127.026 19.2456 126.766 19.3781 126.491 19.4712L128.645 23H127.581L125.658 19.7236H124.025V23H123.112V15.1475H125.234ZM125.18 15.937H124.025V18.9502H125.271C125.912 18.9502 126.383 18.8195 126.684 18.5581C126.988 18.2967 127.141 17.9118 127.141 17.4033C127.141 16.8698 126.979 16.492 126.657 16.27C126.339 16.048 125.846 15.937 125.18 15.937ZM132.034 17.0059C132.535 17.0059 132.965 17.1169 133.323 17.3389C133.681 17.5609 133.955 17.8724 134.145 18.2734C134.334 18.6709 134.429 19.1364 134.429 19.6699V20.2231H130.363C130.374 20.9142 130.546 21.4406 130.879 21.8022C131.212 22.1639 131.681 22.3447 132.286 22.3447C132.659 22.3447 132.988 22.3107 133.274 22.2427C133.561 22.1746 133.858 22.0744 134.166 21.9419V22.7261C133.869 22.8586 133.573 22.9552 133.28 23.0161C132.99 23.077 132.646 23.1074 132.249 23.1074C131.683 23.1074 131.189 22.9928 130.766 22.7637C130.347 22.5309 130.021 22.1908 129.789 21.7432C129.556 21.2956 129.439 20.7477 129.439 20.0996C129.439 19.4658 129.545 18.918 129.756 18.4561C129.971 17.9906 130.272 17.6325 130.659 17.3818C131.049 17.1312 131.507 17.0059 132.034 17.0059ZM132.023 17.7363C131.547 17.7363 131.167 17.8921 130.884 18.2036C130.601 18.5151 130.433 18.9502 130.379 19.5088H133.495C133.491 19.1579 133.436 18.8499 133.328 18.585C133.224 18.3164 133.065 18.1087 132.85 17.9619C132.635 17.8115 132.36 17.7363 132.023 17.7363ZM139.892 25.6318V23.1074C139.892 22.9678 139.895 22.8066 139.902 22.624C139.91 22.4414 139.922 22.2839 139.94 22.1514H139.881C139.716 22.4235 139.482 22.6509 139.177 22.8335C138.873 23.0161 138.481 23.1074 138.001 23.1074C137.281 23.1074 136.703 22.8532 136.266 22.3447C135.829 21.8363 135.611 21.0771 135.611 20.0674C135.611 19.4049 135.711 18.8464 135.912 18.3916C136.112 17.9368 136.395 17.5931 136.76 17.3604C137.129 17.124 137.559 17.0059 138.049 17.0059C138.518 17.0059 138.902 17.099 139.199 17.2852C139.496 17.4678 139.729 17.6916 139.897 17.9565H139.94L140.074 17.1133H140.783V25.6318H139.892ZM138.167 22.3662C138.583 22.3662 138.916 22.2892 139.167 22.1353C139.417 21.9777 139.6 21.7414 139.714 21.4263C139.833 21.1112 139.895 20.7191 139.902 20.25V20.062C139.902 19.3029 139.773 18.7282 139.516 18.3379C139.258 17.944 138.808 17.7471 138.167 17.7471C137.616 17.7471 137.206 17.9583 136.938 18.3809C136.669 18.7998 136.535 19.3691 136.535 20.0889C136.535 20.8086 136.669 21.369 136.938 21.77C137.206 22.1675 137.616 22.3662 138.167 22.3662ZM147.54 17.1133V23H146.81L146.681 22.1729H146.632C146.511 22.377 146.353 22.5488 146.16 22.6885C145.966 22.8281 145.748 22.932 145.504 23C145.264 23.0716 145.008 23.1074 144.736 23.1074C144.271 23.1074 143.881 23.0322 143.565 22.8818C143.25 22.7314 143.012 22.4987 142.851 22.1836C142.694 21.8685 142.615 21.4639 142.615 20.9697V17.1133H143.517V20.9053C143.517 21.3958 143.628 21.7629 143.85 22.0063C144.072 22.2463 144.41 22.3662 144.865 22.3662C145.302 22.3662 145.649 22.2839 145.907 22.1191C146.169 21.9544 146.357 21.7127 146.471 21.394C146.586 21.0718 146.643 20.6779 146.643 20.2124V17.1133H147.54ZM151.692 17.0059C152.193 17.0059 152.623 17.1169 152.981 17.3389C153.339 17.5609 153.613 17.8724 153.803 18.2734C153.993 18.6709 154.087 19.1364 154.087 19.6699V20.2231H150.021C150.032 20.9142 150.204 21.4406 150.537 21.8022C150.87 22.1639 151.339 22.3447 151.944 22.3447C152.317 22.3447 152.646 22.3107 152.933 22.2427C153.219 22.1746 153.516 22.0744 153.824 21.9419V22.7261C153.527 22.8586 153.232 22.9552 152.938 23.0161C152.648 23.077 152.304 23.1074 151.907 23.1074C151.341 23.1074 150.847 22.9928 150.424 22.7637C150.005 22.5309 149.68 22.1908 149.447 21.7432C149.214 21.2956 149.098 20.7477 149.098 20.0996C149.098 19.4658 149.203 18.918 149.415 18.4561C149.629 17.9906 149.93 17.6325 150.317 17.3818C150.707 17.1312 151.166 17.0059 151.692 17.0059ZM151.681 17.7363C151.205 17.7363 150.825 17.8921 150.542 18.2036C150.26 18.5151 150.091 18.9502 150.038 19.5088H153.153C153.149 19.1579 153.094 18.8499 152.986 18.585C152.882 18.3164 152.723 18.1087 152.508 17.9619C152.293 17.8115 152.018 17.7363 151.681 17.7363ZM159.41 21.3887C159.41 21.7646 159.315 22.0815 159.125 22.3394C158.939 22.5936 158.671 22.7852 158.32 22.9141C157.972 23.043 157.557 23.1074 157.074 23.1074C156.662 23.1074 156.306 23.0752 156.005 23.0107C155.704 22.9463 155.441 22.855 155.215 22.7368V21.915C155.455 22.0332 155.742 22.1406 156.075 22.2373C156.408 22.334 156.748 22.3823 157.095 22.3823C157.604 22.3823 157.972 22.3 158.202 22.1353C158.431 21.9705 158.545 21.7467 158.545 21.4639C158.545 21.3027 158.499 21.1613 158.406 21.0396C158.316 20.9142 158.164 20.7943 157.949 20.6797C157.734 20.5615 157.437 20.4326 157.058 20.293C156.682 20.1497 156.356 20.0083 156.08 19.8687C155.808 19.7254 155.597 19.5518 155.446 19.3477C155.299 19.1436 155.226 18.8786 155.226 18.5527C155.226 18.055 155.427 17.6737 155.828 17.4087C156.232 17.1401 156.762 17.0059 157.417 17.0059C157.772 17.0059 158.103 17.0417 158.411 17.1133C158.723 17.1813 159.013 17.2744 159.281 17.3926L158.98 18.1069C158.737 18.0031 158.477 17.9154 158.202 17.8438C157.926 17.7721 157.645 17.7363 157.358 17.7363C156.947 17.7363 156.63 17.8044 156.408 17.9404C156.189 18.0765 156.08 18.2627 156.08 18.499C156.08 18.6816 156.13 18.832 156.23 18.9502C156.334 19.0684 156.499 19.1794 156.725 19.2832C156.95 19.387 157.247 19.5088 157.616 19.6484C157.985 19.7845 158.304 19.9259 158.572 20.0728C158.841 20.216 159.047 20.3914 159.19 20.5991C159.337 20.8032 159.41 21.0664 159.41 21.3887ZM162.746 22.377C162.892 22.377 163.043 22.3644 163.197 22.3394C163.351 22.3143 163.476 22.2839 163.573 22.248V22.9409C163.469 22.9875 163.324 23.0269 163.138 23.0591C162.955 23.0913 162.776 23.1074 162.601 23.1074C162.289 23.1074 162.006 23.0537 161.752 22.9463C161.498 22.8353 161.294 22.6491 161.14 22.3877C160.989 22.1263 160.914 21.7646 160.914 21.3027V17.8115H160.076V17.3765L160.919 17.0273L161.274 15.749H161.811V17.1133H163.535V17.8115H161.811V21.2759C161.811 21.6447 161.895 21.9204 162.063 22.103C162.235 22.2856 162.463 22.377 162.746 22.377ZM167.032 17.0059C167.533 17.0059 167.963 17.1169 168.321 17.3389C168.679 17.5609 168.953 17.8724 169.143 18.2734C169.332 18.6709 169.427 19.1364 169.427 19.6699V20.2231H165.361C165.372 20.9142 165.544 21.4406 165.877 21.8022C166.21 22.1639 166.679 22.3447 167.284 22.3447C167.657 22.3447 167.986 22.3107 168.272 22.2427C168.559 22.1746 168.856 22.0744 169.164 21.9419V22.7261C168.867 22.8586 168.571 22.9552 168.278 23.0161C167.988 23.077 167.644 23.1074 167.247 23.1074C166.681 23.1074 166.187 22.9928 165.764 22.7637C165.345 22.5309 165.019 22.1908 164.787 21.7432C164.554 21.2956 164.438 20.7477 164.438 20.0996C164.438 19.4658 164.543 18.918 164.754 18.4561C164.969 17.9906 165.27 17.6325 165.657 17.3818C166.047 17.1312 166.505 17.0059 167.032 17.0059ZM167.021 17.7363C166.545 17.7363 166.165 17.8921 165.882 18.2036C165.599 18.5151 165.431 18.9502 165.377 19.5088H168.493C168.489 19.1579 168.434 18.8499 168.326 18.585C168.222 18.3164 168.063 18.1087 167.848 17.9619C167.633 17.8115 167.358 17.7363 167.021 17.7363ZM173.037 23.1074C172.292 23.1074 171.701 22.8532 171.264 22.3447C170.831 21.8363 170.614 21.0807 170.614 20.0781C170.614 19.0648 170.836 18.3003 171.28 17.7847C171.724 17.2655 172.315 17.0059 173.053 17.0059C173.364 17.0059 173.636 17.047 173.869 17.1294C174.102 17.2118 174.302 17.3228 174.471 17.4624C174.639 17.5985 174.78 17.7542 174.895 17.9297H174.959C174.945 17.8187 174.931 17.6665 174.917 17.4731C174.902 17.2798 174.895 17.1222 174.895 17.0005V14.6426H175.787V23H175.067L174.933 22.1621H174.895C174.784 22.3376 174.643 22.4969 174.471 22.6401C174.302 22.7834 174.1 22.8979 173.864 22.9839C173.631 23.0662 173.355 23.1074 173.037 23.1074ZM173.176 22.3662C173.806 22.3662 174.252 22.1872 174.514 21.8291C174.775 21.471 174.906 20.9393 174.906 20.2339V20.0728C174.906 19.3244 174.78 18.7497 174.53 18.3486C174.283 17.9476 173.832 17.7471 173.176 17.7471C172.628 17.7471 172.218 17.9583 171.946 18.3809C171.674 18.7998 171.538 19.3727 171.538 20.0996C171.538 20.8229 171.672 21.3815 171.941 21.7754C172.213 22.1693 172.625 22.3662 173.176 22.3662ZM185.283 23H180.137V22.2534L182.237 20.1211C182.628 19.7272 182.955 19.3763 183.22 19.0684C183.489 18.7604 183.693 18.4578 183.833 18.1606C183.972 17.8599 184.042 17.5304 184.042 17.1724C184.042 16.7284 183.91 16.39 183.645 16.1572C183.383 15.9209 183.038 15.8027 182.608 15.8027C182.232 15.8027 181.899 15.8672 181.609 15.9961C181.319 16.125 181.022 16.3076 180.717 16.5439L180.239 15.9424C180.447 15.7669 180.673 15.6112 180.916 15.4751C181.163 15.339 181.426 15.2316 181.706 15.1528C181.988 15.0741 182.289 15.0347 182.608 15.0347C183.091 15.0347 183.508 15.1188 183.859 15.2871C184.21 15.4554 184.481 15.6953 184.67 16.0068C184.864 16.3184 184.96 16.689 184.96 17.1187C184.96 17.534 184.878 17.9207 184.713 18.2788C184.549 18.6333 184.318 18.986 184.021 19.3369C183.723 19.6842 183.376 20.0531 182.979 20.4434L181.271 22.146V22.1836H185.283V23ZM186.695 22.4414C186.695 22.1908 186.756 22.0135 186.878 21.9097C187 21.8022 187.148 21.7485 187.324 21.7485C187.506 21.7485 187.66 21.8022 187.786 21.9097C187.911 22.0135 187.974 22.1908 187.974 22.4414C187.974 22.6885 187.911 22.8693 187.786 22.9839C187.66 23.0949 187.506 23.1504 187.324 23.1504C187.148 23.1504 187 23.0949 186.878 22.9839C186.756 22.8693 186.695 22.6885 186.695 22.4414Z" fill="#F5F5F5"/>
</svg>
