<svg width="292" height="37" viewBox="0 0 292 37" fill="none" xmlns="http://www.w3.org/2000/svg">
<rect width="280" height="25" transform="translate(6 6)" fill="#D3E8E0"/>
<path d="M21.0776 19.0845L23.167 15.1475H24.1499L21.5342 19.9546V23H20.6211V19.9976L18 15.1475H18.999L21.0776 19.0845ZM30.1709 20.0459C30.1709 20.5293 30.1082 20.9608 29.9829 21.3403C29.8576 21.7199 29.6768 22.0404 29.4404 22.3018C29.2041 22.5632 28.9176 22.7637 28.5811 22.9033C28.248 23.0394 27.8703 23.1074 27.4478 23.1074C27.0539 23.1074 26.6922 23.0394 26.3628 22.9033C26.0369 22.7637 25.7541 22.5632 25.5142 22.3018C25.2778 22.0404 25.0934 21.7199 24.9609 21.3403C24.832 20.9608 24.7676 20.5293 24.7676 20.0459C24.7676 19.4014 24.8768 18.8535 25.0952 18.4023C25.3136 17.9476 25.6252 17.6021 26.0298 17.3657C26.438 17.1258 26.9232 17.0059 27.4854 17.0059C28.0225 17.0059 28.4915 17.1258 28.8926 17.3657C29.2972 17.6056 29.6105 17.953 29.8325 18.4077C30.0581 18.8589 30.1709 19.4049 30.1709 20.0459ZM25.6914 20.0459C25.6914 20.5186 25.7541 20.9285 25.8794 21.2759C26.0047 21.6232 26.1981 21.8918 26.4595 22.0815C26.7209 22.2713 27.0575 22.3662 27.4692 22.3662C27.8774 22.3662 28.2122 22.2713 28.4736 22.0815C28.7386 21.8918 28.9338 21.6232 29.0591 21.2759C29.1844 20.9285 29.2471 20.5186 29.2471 20.0459C29.2471 19.5768 29.1844 19.1722 29.0591 18.832C28.9338 18.4883 28.7404 18.2233 28.479 18.0371C28.2176 17.8509 27.8792 17.7578 27.4639 17.7578C26.8516 17.7578 26.4022 17.9601 26.1157 18.3647C25.8328 18.7694 25.6914 19.3298 25.6914 20.0459ZM36.5732 17.1133V23H35.8428L35.7139 22.1729H35.6655C35.5438 22.377 35.3862 22.5488 35.1929 22.6885C34.9995 22.8281 34.7811 22.932 34.5376 23C34.2977 23.0716 34.0417 23.1074 33.7695 23.1074C33.304 23.1074 32.9137 23.0322 32.5986 22.8818C32.2835 22.7314 32.0454 22.4987 31.8843 22.1836C31.7267 21.8685 31.6479 21.4639 31.6479 20.9697V17.1133H32.5503V20.9053C32.5503 21.3958 32.6613 21.7629 32.8833 22.0063C33.1053 22.2463 33.4437 22.3662 33.8984 22.3662C34.3353 22.3662 34.6826 22.2839 34.9404 22.1191C35.2018 21.9544 35.3898 21.7127 35.5044 21.394C35.619 21.0718 35.6763 20.6779 35.6763 20.2124V17.1133H36.5732ZM45.8813 20.9106C45.8813 21.3761 45.765 21.7736 45.5322 22.103C45.3031 22.4289 44.9808 22.6777 44.5654 22.8496C44.1501 23.0215 43.6613 23.1074 43.0991 23.1074C42.8019 23.1074 42.5208 23.0931 42.2559 23.0645C41.9909 23.0358 41.7474 22.9946 41.5254 22.9409C41.3034 22.8872 41.1082 22.821 40.9399 22.7422V21.8667C41.2085 21.9777 41.5361 22.0815 41.9229 22.1782C42.3096 22.2713 42.7142 22.3179 43.1367 22.3179C43.5306 22.3179 43.8636 22.266 44.1357 22.1621C44.4079 22.0547 44.6138 21.9025 44.7534 21.7056C44.8966 21.505 44.9683 21.2651 44.9683 20.9858C44.9683 20.7173 44.9092 20.4935 44.791 20.3145C44.6729 20.1318 44.4759 19.9671 44.2002 19.8203C43.9281 19.6699 43.5557 19.5106 43.083 19.3423C42.75 19.2241 42.4564 19.0952 42.2021 18.9556C41.9479 18.8123 41.7349 18.6512 41.563 18.4722C41.3911 18.2931 41.2604 18.0854 41.1709 17.8491C41.085 17.6128 41.042 17.3424 41.042 17.0381C41.042 16.6191 41.1476 16.2611 41.3589 15.9639C41.5737 15.6631 41.8691 15.4339 42.2451 15.2764C42.6247 15.1152 43.0597 15.0347 43.5503 15.0347C43.9692 15.0347 44.356 15.0741 44.7104 15.1528C45.0685 15.2316 45.3962 15.3372 45.6934 15.4697L45.4087 16.2539C45.1258 16.1357 44.825 16.0373 44.5063 15.9585C44.1912 15.8797 43.8654 15.8403 43.5288 15.8403C43.1922 15.8403 42.9076 15.8905 42.6748 15.9907C42.4456 16.0874 42.2702 16.2253 42.1484 16.4043C42.0267 16.5833 41.9658 16.7964 41.9658 17.0435C41.9658 17.3192 42.0231 17.5483 42.1377 17.731C42.2559 17.9136 42.4421 18.0765 42.6963 18.2197C42.9541 18.3594 43.2943 18.5062 43.7168 18.6602C44.1787 18.8285 44.5708 19.0075 44.8931 19.1973C45.2153 19.3835 45.4606 19.6126 45.6289 19.8848C45.7972 20.1533 45.8813 20.4953 45.8813 20.9106ZM52.4126 23L51.4458 20.5078H48.2983L47.3369 23H46.4131L49.4854 15.1152H50.3071L53.3579 23H52.4126ZM51.1719 19.6968L50.2534 17.2207C50.2319 17.1562 50.1961 17.0506 50.146 16.9038C50.0994 16.757 50.0511 16.6048 50.001 16.4473C49.9508 16.2897 49.9097 16.1626 49.8774 16.0659C49.8416 16.2127 49.8022 16.3595 49.7593 16.5063C49.7199 16.6496 49.6805 16.7839 49.6411 16.9092C49.6017 17.0309 49.5677 17.1348 49.5391 17.2207L48.6045 19.6968H51.1719ZM59.9321 15.1475L57.1123 23H56.1938L53.374 15.1475H54.3301L56.167 20.3198C56.2422 20.5275 56.3084 20.7262 56.3657 20.916C56.4266 21.1058 56.4803 21.2884 56.5269 21.4639C56.5734 21.6393 56.6146 21.8094 56.6504 21.9741C56.6862 21.8094 56.7274 21.6393 56.7739 21.4639C56.8205 21.2848 56.8742 21.1004 56.9351 20.9106C56.9959 20.7173 57.064 20.515 57.1392 20.3037L58.9653 15.1475H59.9321ZM65.3838 23H61.0117V15.1475H65.3838V15.9531H61.9248V18.4937H65.1851V19.2886H61.9248V22.1943H65.3838V23ZM73.3599 18.9985C73.3599 19.883 73.1987 20.6224 72.8765 21.2168C72.5542 21.8076 72.0869 22.2534 71.4746 22.5542C70.8659 22.8514 70.1265 23 69.2563 23H67.124V15.1475H69.4927C70.2912 15.1475 70.9787 15.2943 71.5552 15.5879C72.1317 15.8779 72.5757 16.3094 72.8872 16.8823C73.2023 17.4517 73.3599 18.1571 73.3599 18.9985ZM72.3984 19.0308C72.3984 18.3254 72.2803 17.7435 72.0439 17.2852C71.8112 16.8268 71.4674 16.4867 71.0127 16.2646C70.5615 16.0391 70.0083 15.9263 69.353 15.9263H68.0371V22.2158H69.1489C70.2303 22.2158 71.0413 21.9491 71.582 21.4155C72.1263 20.882 72.3984 20.0871 72.3984 19.0308ZM84.7734 19.063C84.7734 19.6681 84.6965 20.2196 84.5425 20.7173C84.3885 21.2114 84.1593 21.6375 83.855 21.9956C83.5542 22.3501 83.18 22.624 82.7324 22.8174C82.2848 23.0107 81.7656 23.1074 81.1748 23.1074C80.5661 23.1074 80.0343 23.0107 79.5796 22.8174C79.1284 22.624 78.7524 22.3483 78.4517 21.9902C78.1545 21.6322 77.9307 21.2043 77.7803 20.7065C77.6335 20.2088 77.5601 19.6574 77.5601 19.0522C77.5601 18.2502 77.6925 17.5465 77.9575 16.9414C78.2225 16.3363 78.6235 15.8654 79.1606 15.5288C79.7013 15.1922 80.3781 15.0239 81.1909 15.0239C81.9679 15.0239 82.6214 15.1904 83.1514 15.5234C83.6849 15.8564 84.0877 16.3255 84.3599 16.9307C84.6356 17.5322 84.7734 18.243 84.7734 19.063ZM78.5215 19.063C78.5215 19.729 78.6164 20.3055 78.8062 20.7925C78.9959 21.2795 79.286 21.6554 79.6763 21.9204C80.0701 22.1854 80.5697 22.3179 81.1748 22.3179C81.7835 22.3179 82.2812 22.1854 82.668 21.9204C83.0583 21.6554 83.3465 21.2795 83.5327 20.7925C83.7189 20.3055 83.812 19.729 83.812 19.063C83.812 18.0496 83.599 17.2583 83.1729 16.689C82.7503 16.116 82.0897 15.8296 81.1909 15.8296C80.5822 15.8296 80.0809 15.9603 79.687 16.2217C79.2931 16.4831 78.9995 16.8555 78.8062 17.3389C78.6164 17.8187 78.5215 18.3934 78.5215 19.063ZM89.1777 17.0059C89.876 17.0059 90.4041 17.1777 90.7622 17.5215C91.1203 17.8617 91.2993 18.4095 91.2993 19.165V23H90.4185V19.2241C90.4185 18.7336 90.3057 18.3665 90.0801 18.123C89.8581 17.8796 89.5161 17.7578 89.0542 17.7578C88.4025 17.7578 87.9442 17.9422 87.6792 18.311C87.4142 18.6799 87.2817 19.2152 87.2817 19.917V23H86.3901V17.1133H87.1099L87.2441 17.9619H87.2925C87.4178 17.7542 87.5771 17.5806 87.7705 17.4409C87.9639 17.2977 88.1805 17.1903 88.4204 17.1187C88.6603 17.0435 88.9128 17.0059 89.1777 17.0059ZM98.5396 23H97.6211V15.9531H95.1504V15.1475H101V15.9531H98.5396V23ZM102.944 14.6426V17.1401C102.944 17.2834 102.94 17.4284 102.933 17.5752C102.926 17.7184 102.913 17.8509 102.896 17.9727H102.955C103.076 17.765 103.23 17.5913 103.417 17.4517C103.606 17.3084 103.821 17.201 104.061 17.1294C104.301 17.0542 104.555 17.0166 104.824 17.0166C105.296 17.0166 105.69 17.0918 106.005 17.2422C106.324 17.3926 106.562 17.6253 106.72 17.9404C106.881 18.2555 106.961 18.6637 106.961 19.165V23H106.081V19.2241C106.081 18.7336 105.968 18.3665 105.742 18.123C105.52 17.8796 105.178 17.7578 104.716 17.7578C104.279 17.7578 103.93 17.842 103.669 18.0103C103.411 18.175 103.225 18.4185 103.11 18.7407C102.999 19.063 102.944 19.4569 102.944 19.9224V23H102.052V14.6426H102.944ZM111 17.0166C111.702 17.0166 112.223 17.1742 112.563 17.4893C112.904 17.8044 113.074 18.3075 113.074 18.9985V23H112.424L112.252 22.1299H112.209C112.044 22.3447 111.872 22.5256 111.693 22.6724C111.514 22.8156 111.307 22.9248 111.07 23C110.838 23.0716 110.551 23.1074 110.211 23.1074C109.853 23.1074 109.534 23.0448 109.255 22.9194C108.979 22.7941 108.761 22.6043 108.6 22.3501C108.442 22.0959 108.363 21.7736 108.363 21.3833C108.363 20.7961 108.596 20.3449 109.062 20.0298C109.527 19.7147 110.236 19.5428 111.188 19.5142L112.204 19.4712V19.1113C112.204 18.6029 112.094 18.2466 111.876 18.0425C111.658 17.8384 111.35 17.7363 110.952 17.7363C110.644 17.7363 110.351 17.7811 110.071 17.8706C109.792 17.9601 109.527 18.0658 109.276 18.1875L109.002 17.5107C109.267 17.3747 109.572 17.2583 109.916 17.1616C110.259 17.0649 110.621 17.0166 111 17.0166ZM112.193 20.0996L111.296 20.1372C110.562 20.1659 110.044 20.2858 109.744 20.4971C109.443 20.7083 109.292 21.0073 109.292 21.394C109.292 21.7306 109.395 21.9795 109.599 22.1406C109.803 22.3018 110.073 22.3823 110.41 22.3823C110.932 22.3823 111.36 22.2373 111.693 21.9473C112.026 21.6572 112.193 21.2222 112.193 20.6421V20.0996ZM117.698 17.0059C118.396 17.0059 118.925 17.1777 119.283 17.5215C119.641 17.8617 119.82 18.4095 119.82 19.165V23H118.939V19.2241C118.939 18.7336 118.826 18.3665 118.601 18.123C118.379 17.8796 118.037 17.7578 117.575 17.7578C116.923 17.7578 116.465 17.9422 116.2 18.311C115.935 18.6799 115.802 19.2152 115.802 19.917V23H114.911V17.1133H115.63L115.765 17.9619H115.813C115.938 17.7542 116.098 17.5806 116.291 17.4409C116.484 17.2977 116.701 17.1903 116.941 17.1187C117.181 17.0435 117.433 17.0059 117.698 17.0059ZM122.543 14.6426V18.9824C122.543 19.1257 122.538 19.3011 122.527 19.5088C122.516 19.7129 122.507 19.8937 122.5 20.0513H122.538C122.613 19.9582 122.722 19.8203 122.865 19.6377C123.012 19.4551 123.136 19.3083 123.236 19.1973L125.191 17.1133H126.238L123.87 19.627L126.41 23H125.336L123.257 20.2124L122.543 20.8677V23H121.657V14.6426H122.543ZM131.244 21.3887C131.244 21.7646 131.149 22.0815 130.959 22.3394C130.773 22.5936 130.505 22.7852 130.154 22.9141C129.806 23.043 129.391 23.1074 128.908 23.1074C128.496 23.1074 128.14 23.0752 127.839 23.0107C127.538 22.9463 127.275 22.855 127.049 22.7368V21.915C127.289 22.0332 127.576 22.1406 127.909 22.2373C128.242 22.334 128.582 22.3823 128.929 22.3823C129.438 22.3823 129.806 22.3 130.036 22.1353C130.265 21.9705 130.379 21.7467 130.379 21.4639C130.379 21.3027 130.333 21.1613 130.24 21.0396C130.15 20.9142 129.998 20.7943 129.783 20.6797C129.568 20.5615 129.271 20.4326 128.892 20.293C128.516 20.1497 128.19 20.0083 127.914 19.8687C127.642 19.7254 127.431 19.5518 127.28 19.3477C127.133 19.1436 127.06 18.8786 127.06 18.5527C127.06 18.055 127.261 17.6737 127.662 17.4087C128.066 17.1401 128.596 17.0059 129.251 17.0059C129.606 17.0059 129.937 17.0417 130.245 17.1133C130.557 17.1813 130.847 17.2744 131.115 17.3926L130.814 18.1069C130.571 18.0031 130.311 17.9154 130.036 17.8438C129.76 17.7721 129.479 17.7363 129.192 17.7363C128.781 17.7363 128.464 17.8044 128.242 17.9404C128.023 18.0765 127.914 18.2627 127.914 18.499C127.914 18.6816 127.964 18.832 128.064 18.9502C128.168 19.0684 128.333 19.1794 128.559 19.2832C128.784 19.387 129.081 19.5088 129.45 19.6484C129.819 19.7845 130.138 19.9259 130.406 20.0728C130.675 20.216 130.881 20.3914 131.024 20.5991C131.171 20.8032 131.244 21.0664 131.244 21.3887ZM134.322 25.6426C133.548 25.6426 132.952 25.4976 132.533 25.2075C132.114 24.9211 131.905 24.5182 131.905 23.999C131.905 23.6302 132.021 23.3151 132.254 23.0537C132.49 22.7923 132.816 22.6187 133.231 22.5327C133.077 22.4611 132.945 22.3537 132.834 22.2104C132.727 22.0672 132.673 21.9025 132.673 21.7163C132.673 21.5015 132.732 21.3135 132.85 21.1523C132.972 20.9876 133.156 20.8301 133.403 20.6797C133.095 20.5544 132.845 20.3431 132.651 20.0459C132.462 19.7451 132.367 19.396 132.367 18.9985C132.367 18.576 132.454 18.2161 132.63 17.9189C132.805 17.6182 133.06 17.389 133.393 17.2314C133.726 17.0739 134.128 16.9951 134.601 16.9951C134.705 16.9951 134.809 17.0005 134.913 17.0112C135.02 17.0184 135.122 17.0309 135.219 17.0488C135.315 17.0632 135.4 17.0811 135.471 17.1025H137.491V17.6772L136.406 17.8115C136.513 17.9512 136.603 18.1195 136.674 18.3164C136.746 18.5133 136.782 18.7318 136.782 18.9717C136.782 19.5589 136.583 20.0262 136.186 20.3735C135.788 20.7173 135.242 20.8892 134.547 20.8892C134.383 20.8892 134.214 20.8748 134.042 20.8462C133.867 20.9429 133.733 21.0503 133.64 21.1685C133.55 21.2866 133.505 21.4227 133.505 21.5767C133.505 21.6912 133.539 21.7826 133.607 21.8506C133.679 21.9186 133.781 21.9688 133.914 22.001C134.046 22.0296 134.205 22.0439 134.392 22.0439H135.428C136.069 22.0439 136.56 22.1782 136.9 22.4468C137.244 22.7153 137.416 23.1074 137.416 23.623C137.416 24.2747 137.151 24.7743 136.621 25.1216C136.091 25.4689 135.324 25.6426 134.322 25.6426ZM134.349 24.9443C134.836 24.9443 135.238 24.8942 135.557 24.7939C135.879 24.6973 136.119 24.5558 136.277 24.3696C136.438 24.187 136.519 23.9686 136.519 23.7144C136.519 23.478 136.465 23.299 136.357 23.1772C136.25 23.0591 136.092 22.9803 135.885 22.9409C135.677 22.8979 135.423 22.8765 135.122 22.8765H134.102C133.837 22.8765 133.606 22.9176 133.409 23C133.212 23.0824 133.06 23.2041 132.952 23.3652C132.848 23.5264 132.796 23.7269 132.796 23.9668C132.796 24.2855 132.931 24.5272 133.199 24.6919C133.468 24.8602 133.851 24.9443 134.349 24.9443ZM134.58 20.2393C135.006 20.2393 135.326 20.1318 135.541 19.917C135.756 19.7021 135.863 19.3888 135.863 18.9771C135.863 18.5366 135.754 18.2072 135.536 17.9888C135.317 17.7668 134.995 17.6558 134.569 17.6558C134.161 17.6558 133.846 17.7703 133.624 17.9995C133.405 18.2251 133.296 18.5563 133.296 18.9932C133.296 19.3942 133.407 19.7021 133.629 19.917C133.851 20.1318 134.168 20.2393 134.58 20.2393ZM139.542 17.1133V23H138.651V17.1133H139.542ZM139.107 14.9111C139.254 14.9111 139.38 14.9595 139.483 15.0562C139.591 15.1493 139.645 15.2961 139.645 15.4966C139.645 15.6935 139.591 15.8403 139.483 15.937C139.38 16.0337 139.254 16.082 139.107 16.082C138.953 16.082 138.825 16.0337 138.721 15.937C138.62 15.8403 138.57 15.6935 138.57 15.4966C138.57 15.2961 138.62 15.1493 138.721 15.0562C138.825 14.9595 138.953 14.9111 139.107 14.9111ZM142.728 23L140.493 17.1133H141.449L142.744 20.6743C142.833 20.9178 142.924 21.1864 143.018 21.48C143.111 21.7736 143.175 22.0099 143.211 22.189H143.249C143.292 22.0099 143.363 21.7736 143.463 21.48C143.564 21.1828 143.655 20.9142 143.737 20.6743L145.032 17.1133H145.988L143.748 23H142.728ZM147.825 17.1133V23H146.933V17.1133H147.825ZM147.39 14.9111C147.536 14.9111 147.662 14.9595 147.766 15.0562C147.873 15.1493 147.927 15.2961 147.927 15.4966C147.927 15.6935 147.873 15.8403 147.766 15.937C147.662 16.0337 147.536 16.082 147.39 16.082C147.236 16.082 147.107 16.0337 147.003 15.937C146.903 15.8403 146.853 15.6935 146.853 15.4966C146.853 15.2961 146.903 15.1493 147.003 15.0562C147.107 14.9595 147.236 14.9111 147.39 14.9111ZM152.503 17.0059C153.201 17.0059 153.729 17.1777 154.087 17.5215C154.445 17.8617 154.625 18.4095 154.625 19.165V23H153.744V19.2241C153.744 18.7336 153.631 18.3665 153.405 18.123C153.183 17.8796 152.841 17.7578 152.379 17.7578C151.728 17.7578 151.269 17.9422 151.004 18.311C150.739 18.6799 150.607 19.2152 150.607 19.917V23H149.715V17.1133H150.435L150.569 17.9619H150.618C150.743 17.7542 150.902 17.5806 151.096 17.4409C151.289 17.2977 151.506 17.1903 151.746 17.1187C151.986 17.0435 152.238 17.0059 152.503 17.0059ZM158.105 25.6426C157.332 25.6426 156.735 25.4976 156.316 25.2075C155.897 24.9211 155.688 24.5182 155.688 23.999C155.688 23.6302 155.804 23.3151 156.037 23.0537C156.273 22.7923 156.599 22.6187 157.015 22.5327C156.861 22.4611 156.728 22.3537 156.617 22.2104C156.51 22.0672 156.456 21.9025 156.456 21.7163C156.456 21.5015 156.515 21.3135 156.633 21.1523C156.755 20.9876 156.939 20.8301 157.187 20.6797C156.879 20.5544 156.628 20.3431 156.435 20.0459C156.245 19.7451 156.15 19.396 156.15 18.9985C156.15 18.576 156.238 18.2161 156.413 17.9189C156.589 17.6182 156.843 17.389 157.176 17.2314C157.509 17.0739 157.912 16.9951 158.384 16.9951C158.488 16.9951 158.592 17.0005 158.696 17.0112C158.803 17.0184 158.905 17.0309 159.002 17.0488C159.099 17.0632 159.183 17.0811 159.254 17.1025H161.274V17.6772L160.189 17.8115C160.296 17.9512 160.386 18.1195 160.458 18.3164C160.529 18.5133 160.565 18.7318 160.565 18.9717C160.565 19.5589 160.366 20.0262 159.969 20.3735C159.571 20.7173 159.025 20.8892 158.331 20.8892C158.166 20.8892 157.998 20.8748 157.826 20.8462C157.65 20.9429 157.516 21.0503 157.423 21.1685C157.333 21.2866 157.289 21.4227 157.289 21.5767C157.289 21.6912 157.323 21.7826 157.391 21.8506C157.462 21.9186 157.564 21.9688 157.697 22.001C157.829 22.0296 157.989 22.0439 158.175 22.0439H159.211C159.852 22.0439 160.343 22.1782 160.683 22.4468C161.027 22.7153 161.199 23.1074 161.199 23.623C161.199 24.2747 160.934 24.7743 160.404 25.1216C159.874 25.4689 159.108 25.6426 158.105 25.6426ZM158.132 24.9443C158.619 24.9443 159.022 24.8942 159.34 24.7939C159.663 24.6973 159.903 24.5558 160.06 24.3696C160.221 24.187 160.302 23.9686 160.302 23.7144C160.302 23.478 160.248 23.299 160.141 23.1772C160.033 23.0591 159.876 22.9803 159.668 22.9409C159.46 22.8979 159.206 22.8765 158.905 22.8765H157.885C157.62 22.8765 157.389 22.9176 157.192 23C156.995 23.0824 156.843 23.2041 156.735 23.3652C156.632 23.5264 156.58 23.7269 156.58 23.9668C156.58 24.2855 156.714 24.5272 156.982 24.6919C157.251 24.8602 157.634 24.9443 158.132 24.9443ZM158.363 20.2393C158.789 20.2393 159.109 20.1318 159.324 19.917C159.539 19.7021 159.646 19.3888 159.646 18.9771C159.646 18.5366 159.537 18.2072 159.319 17.9888C159.1 17.7668 158.778 17.6558 158.352 17.6558C157.944 17.6558 157.629 17.7703 157.407 17.9995C157.188 18.2251 157.079 18.5563 157.079 18.9932C157.079 19.3942 157.19 19.7021 157.412 19.917C157.634 20.1318 157.951 20.2393 158.363 20.2393ZM163.455 21.7217L163.524 21.8452C163.46 22.1066 163.378 22.3859 163.277 22.6831C163.181 22.9803 163.073 23.2775 162.955 23.5747C162.84 23.8755 162.724 24.1566 162.606 24.418H161.94C162.015 24.1315 162.089 23.8289 162.16 23.5103C162.232 23.1951 162.296 22.8836 162.354 22.5757C162.414 22.2642 162.463 21.9795 162.499 21.7217H163.455ZM169.186 23H168.272V15.1475H172.645V15.9531H169.186V18.832H172.435V19.6323H169.186V23ZM176.023 17.0166C176.725 17.0166 177.246 17.1742 177.586 17.4893C177.926 17.8044 178.096 18.3075 178.096 18.9985V23H177.446L177.274 22.1299H177.231C177.067 22.3447 176.895 22.5256 176.716 22.6724C176.537 22.8156 176.329 22.9248 176.093 23C175.86 23.0716 175.574 23.1074 175.233 23.1074C174.875 23.1074 174.557 23.0448 174.277 22.9194C174.002 22.7941 173.783 22.6043 173.622 22.3501C173.465 22.0959 173.386 21.7736 173.386 21.3833C173.386 20.7961 173.618 20.3449 174.084 20.0298C174.549 19.7147 175.258 19.5428 176.211 19.5142L177.226 19.4712V19.1113C177.226 18.6029 177.117 18.2466 176.898 18.0425C176.68 17.8384 176.372 17.7363 175.975 17.7363C175.667 17.7363 175.373 17.7811 175.094 17.8706C174.814 17.9601 174.549 18.0658 174.299 18.1875L174.025 17.5107C174.29 17.3747 174.594 17.2583 174.938 17.1616C175.282 17.0649 175.643 17.0166 176.023 17.0166ZM177.215 20.0996L176.318 20.1372C175.584 20.1659 175.067 20.2858 174.766 20.4971C174.465 20.7083 174.315 21.0073 174.315 21.394C174.315 21.7306 174.417 21.9795 174.621 22.1406C174.825 22.3018 175.096 22.3823 175.432 22.3823C175.955 22.3823 176.383 22.2373 176.716 21.9473C177.049 21.6572 177.215 21.2222 177.215 20.6421V20.0996ZM180.83 23H179.933V14.6426H180.83V23ZM183.612 23H182.715V14.6426H183.612V23ZM190.761 15.0239C191.148 15.0239 191.481 15.092 191.76 15.228C192.043 15.3605 192.26 15.5521 192.41 15.8027C192.564 16.0534 192.641 16.356 192.641 16.7104C192.641 17.1759 192.489 17.5698 192.185 17.8921C191.884 18.2144 191.501 18.508 191.035 18.7729L193.216 20.8892C193.413 20.66 193.574 20.395 193.699 20.0942C193.825 19.7899 193.93 19.4604 194.016 19.106H194.918C194.804 19.5786 194.655 20.0137 194.473 20.4111C194.294 20.8086 194.068 21.1577 193.796 21.4585L195.37 23H194.161L193.189 22.0493C192.96 22.2606 192.713 22.4468 192.448 22.6079C192.186 22.7655 191.895 22.889 191.572 22.9785C191.254 23.0645 190.888 23.1074 190.477 23.1074C189.975 23.1074 189.54 23.0251 189.171 22.8604C188.803 22.6956 188.516 22.4539 188.312 22.1353C188.111 21.8166 188.011 21.4263 188.011 20.9644C188.011 20.5848 188.081 20.259 188.221 19.9868C188.36 19.7147 188.559 19.473 188.817 19.2617C189.075 19.0505 189.383 18.8446 189.741 18.644C189.572 18.4578 189.413 18.2699 189.263 18.0801C189.112 17.8867 188.991 17.6808 188.897 17.4624C188.804 17.2404 188.758 16.9969 188.758 16.7319C188.758 16.3739 188.838 16.0677 189 15.8135C189.164 15.5592 189.395 15.3641 189.692 15.228C189.993 15.092 190.349 15.0239 190.761 15.0239ZM190.278 19.208C189.999 19.3691 189.759 19.5285 189.558 19.686C189.361 19.8436 189.209 20.0208 189.102 20.2178C188.998 20.4147 188.946 20.6528 188.946 20.9321C188.946 21.3511 189.087 21.6877 189.37 21.9419C189.653 22.1925 190.031 22.3179 190.503 22.3179C190.99 22.3179 191.404 22.2373 191.744 22.0762C192.088 21.915 192.38 21.7199 192.62 21.4907L190.278 19.208ZM190.729 15.7598C190.403 15.7598 190.138 15.8457 189.934 16.0176C189.734 16.1859 189.633 16.4222 189.633 16.7266C189.633 16.9987 189.707 17.2493 189.854 17.4785C190 17.7077 190.21 17.9619 190.482 18.2412C190.93 17.9941 191.254 17.756 191.454 17.5269C191.658 17.2941 191.76 17.022 191.76 16.7104C191.76 16.4276 191.665 16.1984 191.476 16.0229C191.289 15.8475 191.041 15.7598 190.729 15.7598ZM200.273 23H199.36V15.1475H203.732V15.9531H200.273V18.832H203.523V19.6323H200.273V23ZM205.806 23H204.909V14.6426H205.806V23ZM212.767 20.0459C212.767 20.5293 212.704 20.9608 212.579 21.3403C212.453 21.7199 212.272 22.0404 212.036 22.3018C211.8 22.5632 211.513 22.7637 211.177 22.9033C210.844 23.0394 210.466 23.1074 210.043 23.1074C209.65 23.1074 209.288 23.0394 208.958 22.9033C208.633 22.7637 208.35 22.5632 208.11 22.3018C207.874 22.0404 207.689 21.7199 207.557 21.3403C207.428 20.9608 207.363 20.5293 207.363 20.0459C207.363 19.4014 207.472 18.8535 207.691 18.4023C207.909 17.9476 208.221 17.6021 208.625 17.3657C209.034 17.1258 209.519 17.0059 210.081 17.0059C210.618 17.0059 211.087 17.1258 211.488 17.3657C211.893 17.6056 212.206 17.953 212.428 18.4077C212.654 18.8589 212.767 19.4049 212.767 20.0459ZM208.287 20.0459C208.287 20.5186 208.35 20.9285 208.475 21.2759C208.6 21.6232 208.794 21.8918 209.055 22.0815C209.317 22.2713 209.653 22.3662 210.065 22.3662C210.473 22.3662 210.808 22.2713 211.069 22.0815C211.334 21.8918 211.529 21.6232 211.655 21.2759C211.78 20.9285 211.843 20.5186 211.843 20.0459C211.843 19.5768 211.78 19.1722 211.655 18.832C211.529 18.4883 211.336 18.2233 211.075 18.0371C210.813 17.8509 210.475 17.7578 210.06 17.7578C209.447 17.7578 208.998 17.9601 208.711 18.3647C208.429 18.7694 208.287 19.3298 208.287 20.0459ZM216.983 17.0059C217.101 17.0059 217.225 17.013 217.354 17.0273C217.482 17.0381 217.597 17.0542 217.697 17.0757L217.584 17.9028C217.488 17.8778 217.38 17.8581 217.262 17.8438C217.144 17.8294 217.033 17.8223 216.929 17.8223C216.693 17.8223 216.469 17.8706 216.258 17.9673C216.05 18.0604 215.868 18.1965 215.71 18.3755C215.552 18.5509 215.429 18.764 215.339 19.0146C215.25 19.2617 215.205 19.5374 215.205 19.8418V23H214.308V17.1133H215.049L215.146 18.1982H215.184C215.305 17.9798 215.452 17.7811 215.624 17.6021C215.796 17.4194 215.995 17.2744 216.22 17.167C216.449 17.0596 216.704 17.0059 216.983 17.0059ZM221.011 17.0166C221.713 17.0166 222.234 17.1742 222.574 17.4893C222.914 17.8044 223.084 18.3075 223.084 18.9985V23H222.435L222.263 22.1299H222.22C222.055 22.3447 221.883 22.5256 221.704 22.6724C221.525 22.8156 221.317 22.9248 221.081 23C220.848 23.0716 220.562 23.1074 220.222 23.1074C219.864 23.1074 219.545 23.0448 219.266 22.9194C218.99 22.7941 218.771 22.6043 218.61 22.3501C218.453 22.0959 218.374 21.7736 218.374 21.3833C218.374 20.7961 218.607 20.3449 219.072 20.0298C219.538 19.7147 220.247 19.5428 221.199 19.5142L222.214 19.4712V19.1113C222.214 18.6029 222.105 18.2466 221.887 18.0425C221.668 17.8384 221.36 17.7363 220.963 17.7363C220.655 17.7363 220.361 17.7811 220.082 17.8706C219.803 17.9601 219.538 18.0658 219.287 18.1875L219.013 17.5107C219.278 17.3747 219.583 17.2583 219.926 17.1616C220.27 17.0649 220.632 17.0166 221.011 17.0166ZM222.204 20.0996L221.307 20.1372C220.573 20.1659 220.055 20.2858 219.754 20.4971C219.454 20.7083 219.303 21.0073 219.303 21.394C219.303 21.7306 219.405 21.9795 219.609 22.1406C219.813 22.3018 220.084 22.3823 220.42 22.3823C220.943 22.3823 221.371 22.2373 221.704 21.9473C222.037 21.6572 222.204 21.2222 222.204 20.6421V20.0996ZM225.818 23H224.921V14.6426H225.818V23ZM233.107 23H232.188V15.9531H229.718V15.1475H235.567V15.9531H233.107V23ZM237.511 14.6426V17.1401C237.511 17.2834 237.508 17.4284 237.5 17.5752C237.493 17.7184 237.481 17.8509 237.463 17.9727H237.522C237.644 17.765 237.798 17.5913 237.984 17.4517C238.174 17.3084 238.389 17.201 238.628 17.1294C238.868 17.0542 239.123 17.0166 239.391 17.0166C239.864 17.0166 240.258 17.0918 240.573 17.2422C240.891 17.3926 241.13 17.6253 241.287 17.9404C241.448 18.2555 241.529 18.6637 241.529 19.165V23H240.648V19.2241C240.648 18.7336 240.535 18.3665 240.31 18.123C240.088 17.8796 239.746 17.7578 239.284 17.7578C238.847 17.7578 238.498 17.842 238.236 18.0103C237.979 18.175 237.792 18.4185 237.678 18.7407C237.567 19.063 237.511 19.4569 237.511 19.9224V23H236.62V14.6426H237.511ZM245.632 17.0059C246.134 17.0059 246.563 17.1169 246.921 17.3389C247.279 17.5609 247.553 17.8724 247.743 18.2734C247.933 18.6709 248.028 19.1364 248.028 19.6699V20.2231H243.962C243.973 20.9142 244.145 21.4406 244.478 21.8022C244.811 22.1639 245.28 22.3447 245.885 22.3447C246.257 22.3447 246.587 22.3107 246.873 22.2427C247.16 22.1746 247.457 22.0744 247.765 21.9419V22.7261C247.467 22.8586 247.172 22.9552 246.878 23.0161C246.588 23.077 246.245 23.1074 245.847 23.1074C245.281 23.1074 244.787 22.9928 244.365 22.7637C243.946 22.5309 243.62 22.1908 243.387 21.7432C243.154 21.2956 243.038 20.7477 243.038 20.0996C243.038 19.4658 243.144 18.918 243.355 18.4561C243.57 17.9906 243.871 17.6325 244.257 17.3818C244.648 17.1312 245.106 17.0059 245.632 17.0059ZM245.622 17.7363C245.145 17.7363 244.766 17.8921 244.483 18.2036C244.2 18.5151 244.032 18.9502 243.978 19.5088H247.093C247.09 19.1579 247.034 18.8499 246.927 18.585C246.823 18.3164 246.664 18.1087 246.449 17.9619C246.234 17.8115 245.958 17.7363 245.622 17.7363ZM255.934 17.0059C256.582 17.0059 257.071 17.1759 257.4 17.5161C257.73 17.8527 257.895 18.3952 257.895 19.1436V23H257.014V19.1865C257.014 18.7103 256.91 18.354 256.702 18.1177C256.498 17.8778 256.194 17.7578 255.789 17.7578C255.22 17.7578 254.806 17.9225 254.548 18.252C254.291 18.5814 254.162 19.0666 254.162 19.7075V23H253.275V19.1865C253.275 18.8678 253.229 18.6029 253.136 18.3916C253.046 18.1803 252.91 18.0228 252.728 17.9189C252.549 17.8115 252.321 17.7578 252.045 17.7578C251.655 17.7578 251.342 17.8384 251.105 17.9995C250.869 18.1606 250.697 18.4006 250.59 18.7192C250.486 19.0343 250.434 19.4229 250.434 19.8848V23H249.542V17.1133H250.262L250.396 17.9458H250.445C250.563 17.7417 250.712 17.5698 250.891 17.4302C251.07 17.2905 251.27 17.1849 251.492 17.1133C251.714 17.0417 251.951 17.0059 252.201 17.0059C252.649 17.0059 253.023 17.09 253.324 17.2583C253.628 17.423 253.848 17.6755 253.984 18.0156H254.033C254.226 17.6755 254.491 17.423 254.828 17.2583C255.164 17.09 255.533 17.0059 255.934 17.0059ZM261.993 17.0059C262.494 17.0059 262.924 17.1169 263.282 17.3389C263.64 17.5609 263.914 17.8724 264.104 18.2734C264.293 18.6709 264.388 19.1364 264.388 19.6699V20.2231H260.322C260.333 20.9142 260.505 21.4406 260.838 21.8022C261.171 22.1639 261.64 22.3447 262.245 22.3447C262.618 22.3447 262.947 22.3107 263.233 22.2427C263.52 22.1746 263.817 22.0744 264.125 21.9419V22.7261C263.828 22.8586 263.532 22.9552 263.239 23.0161C262.949 23.077 262.605 23.1074 262.208 23.1074C261.642 23.1074 261.148 22.9928 260.725 22.7637C260.306 22.5309 259.98 22.1908 259.748 21.7432C259.515 21.2956 259.398 20.7477 259.398 20.0996C259.398 19.4658 259.504 18.918 259.715 18.4561C259.93 17.9906 260.231 17.6325 260.618 17.3818C261.008 17.1312 261.466 17.0059 261.993 17.0059ZM261.982 17.7363C261.506 17.7363 261.126 17.8921 260.843 18.2036C260.56 18.5151 260.392 18.9502 260.338 19.5088H263.454C263.45 19.1579 263.395 18.8499 263.287 18.585C263.183 18.3164 263.024 18.1087 262.809 17.9619C262.594 17.8115 262.319 17.7363 261.982 17.7363ZM269.711 21.3887C269.711 21.7646 269.616 22.0815 269.426 22.3394C269.24 22.5936 268.972 22.7852 268.621 22.9141C268.273 23.043 267.858 23.1074 267.375 23.1074C266.963 23.1074 266.606 23.0752 266.306 23.0107C266.005 22.9463 265.742 22.855 265.516 22.7368V21.915C265.756 22.0332 266.042 22.1406 266.375 22.2373C266.708 22.334 267.049 22.3823 267.396 22.3823C267.904 22.3823 268.273 22.3 268.502 22.1353C268.732 21.9705 268.846 21.7467 268.846 21.4639C268.846 21.3027 268.8 21.1613 268.707 21.0396C268.617 20.9142 268.465 20.7943 268.25 20.6797C268.035 20.5615 267.738 20.4326 267.358 20.293C266.982 20.1497 266.657 20.0083 266.381 19.8687C266.109 19.7254 265.897 19.5518 265.747 19.3477C265.6 19.1436 265.527 18.8786 265.527 18.5527C265.527 18.055 265.727 17.6737 266.128 17.4087C266.533 17.1401 267.063 17.0059 267.718 17.0059C268.073 17.0059 268.404 17.0417 268.712 17.1133C269.023 17.1813 269.313 17.2744 269.582 17.3926L269.281 18.1069C269.038 18.0031 268.778 17.9154 268.502 17.8438C268.227 17.7721 267.946 17.7363 267.659 17.7363C267.247 17.7363 266.931 17.8044 266.708 17.9404C266.49 18.0765 266.381 18.2627 266.381 18.499C266.381 18.6816 266.431 18.832 266.531 18.9502C266.635 19.0684 266.8 19.1794 267.025 19.2832C267.251 19.387 267.548 19.5088 267.917 19.6484C268.286 19.7845 268.604 19.9259 268.873 20.0728C269.142 20.216 269.347 20.3914 269.491 20.5991C269.638 20.8032 269.711 21.0664 269.711 21.3887ZM271.951 20.8193H271.365L271.118 15.1475H272.198L271.951 20.8193ZM271.011 22.4414C271.011 22.1908 271.072 22.0135 271.193 21.9097C271.315 21.8022 271.467 21.7485 271.65 21.7485C271.829 21.7485 271.979 21.8022 272.101 21.9097C272.226 22.0135 272.289 22.1908 272.289 22.4414C272.289 22.6885 272.226 22.8693 272.101 22.9839C271.979 23.0949 271.829 23.1504 271.65 23.1504C271.467 23.1504 271.315 23.0949 271.193 22.9839C271.072 22.8693 271.011 22.6885 271.011 22.4414Z" fill="#7F7F7F" fill-opacity="0.7" style="mix-blend-mode:luminosity"/>
<path d="M21.0776 19.0845L23.167 15.1475H24.1499L21.5342 19.9546V23H20.6211V19.9976L18 15.1475H18.999L21.0776 19.0845ZM30.1709 20.0459C30.1709 20.5293 30.1082 20.9608 29.9829 21.3403C29.8576 21.7199 29.6768 22.0404 29.4404 22.3018C29.2041 22.5632 28.9176 22.7637 28.5811 22.9033C28.248 23.0394 27.8703 23.1074 27.4478 23.1074C27.0539 23.1074 26.6922 23.0394 26.3628 22.9033C26.0369 22.7637 25.7541 22.5632 25.5142 22.3018C25.2778 22.0404 25.0934 21.7199 24.9609 21.3403C24.832 20.9608 24.7676 20.5293 24.7676 20.0459C24.7676 19.4014 24.8768 18.8535 25.0952 18.4023C25.3136 17.9476 25.6252 17.6021 26.0298 17.3657C26.438 17.1258 26.9232 17.0059 27.4854 17.0059C28.0225 17.0059 28.4915 17.1258 28.8926 17.3657C29.2972 17.6056 29.6105 17.953 29.8325 18.4077C30.0581 18.8589 30.1709 19.4049 30.1709 20.0459ZM25.6914 20.0459C25.6914 20.5186 25.7541 20.9285 25.8794 21.2759C26.0047 21.6232 26.1981 21.8918 26.4595 22.0815C26.7209 22.2713 27.0575 22.3662 27.4692 22.3662C27.8774 22.3662 28.2122 22.2713 28.4736 22.0815C28.7386 21.8918 28.9338 21.6232 29.0591 21.2759C29.1844 20.9285 29.2471 20.5186 29.2471 20.0459C29.2471 19.5768 29.1844 19.1722 29.0591 18.832C28.9338 18.4883 28.7404 18.2233 28.479 18.0371C28.2176 17.8509 27.8792 17.7578 27.4639 17.7578C26.8516 17.7578 26.4022 17.9601 26.1157 18.3647C25.8328 18.7694 25.6914 19.3298 25.6914 20.0459ZM36.5732 17.1133V23H35.8428L35.7139 22.1729H35.6655C35.5438 22.377 35.3862 22.5488 35.1929 22.6885C34.9995 22.8281 34.7811 22.932 34.5376 23C34.2977 23.0716 34.0417 23.1074 33.7695 23.1074C33.304 23.1074 32.9137 23.0322 32.5986 22.8818C32.2835 22.7314 32.0454 22.4987 31.8843 22.1836C31.7267 21.8685 31.6479 21.4639 31.6479 20.9697V17.1133H32.5503V20.9053C32.5503 21.3958 32.6613 21.7629 32.8833 22.0063C33.1053 22.2463 33.4437 22.3662 33.8984 22.3662C34.3353 22.3662 34.6826 22.2839 34.9404 22.1191C35.2018 21.9544 35.3898 21.7127 35.5044 21.394C35.619 21.0718 35.6763 20.6779 35.6763 20.2124V17.1133H36.5732ZM45.8813 20.9106C45.8813 21.3761 45.765 21.7736 45.5322 22.103C45.3031 22.4289 44.9808 22.6777 44.5654 22.8496C44.1501 23.0215 43.6613 23.1074 43.0991 23.1074C42.8019 23.1074 42.5208 23.0931 42.2559 23.0645C41.9909 23.0358 41.7474 22.9946 41.5254 22.9409C41.3034 22.8872 41.1082 22.821 40.9399 22.7422V21.8667C41.2085 21.9777 41.5361 22.0815 41.9229 22.1782C42.3096 22.2713 42.7142 22.3179 43.1367 22.3179C43.5306 22.3179 43.8636 22.266 44.1357 22.1621C44.4079 22.0547 44.6138 21.9025 44.7534 21.7056C44.8966 21.505 44.9683 21.2651 44.9683 20.9858C44.9683 20.7173 44.9092 20.4935 44.791 20.3145C44.6729 20.1318 44.4759 19.9671 44.2002 19.8203C43.9281 19.6699 43.5557 19.5106 43.083 19.3423C42.75 19.2241 42.4564 19.0952 42.2021 18.9556C41.9479 18.8123 41.7349 18.6512 41.563 18.4722C41.3911 18.2931 41.2604 18.0854 41.1709 17.8491C41.085 17.6128 41.042 17.3424 41.042 17.0381C41.042 16.6191 41.1476 16.2611 41.3589 15.9639C41.5737 15.6631 41.8691 15.4339 42.2451 15.2764C42.6247 15.1152 43.0597 15.0347 43.5503 15.0347C43.9692 15.0347 44.356 15.0741 44.7104 15.1528C45.0685 15.2316 45.3962 15.3372 45.6934 15.4697L45.4087 16.2539C45.1258 16.1357 44.825 16.0373 44.5063 15.9585C44.1912 15.8797 43.8654 15.8403 43.5288 15.8403C43.1922 15.8403 42.9076 15.8905 42.6748 15.9907C42.4456 16.0874 42.2702 16.2253 42.1484 16.4043C42.0267 16.5833 41.9658 16.7964 41.9658 17.0435C41.9658 17.3192 42.0231 17.5483 42.1377 17.731C42.2559 17.9136 42.4421 18.0765 42.6963 18.2197C42.9541 18.3594 43.2943 18.5062 43.7168 18.6602C44.1787 18.8285 44.5708 19.0075 44.8931 19.1973C45.2153 19.3835 45.4606 19.6126 45.6289 19.8848C45.7972 20.1533 45.8813 20.4953 45.8813 20.9106ZM52.4126 23L51.4458 20.5078H48.2983L47.3369 23H46.4131L49.4854 15.1152H50.3071L53.3579 23H52.4126ZM51.1719 19.6968L50.2534 17.2207C50.2319 17.1562 50.1961 17.0506 50.146 16.9038C50.0994 16.757 50.0511 16.6048 50.001 16.4473C49.9508 16.2897 49.9097 16.1626 49.8774 16.0659C49.8416 16.2127 49.8022 16.3595 49.7593 16.5063C49.7199 16.6496 49.6805 16.7839 49.6411 16.9092C49.6017 17.0309 49.5677 17.1348 49.5391 17.2207L48.6045 19.6968H51.1719ZM59.9321 15.1475L57.1123 23H56.1938L53.374 15.1475H54.3301L56.167 20.3198C56.2422 20.5275 56.3084 20.7262 56.3657 20.916C56.4266 21.1058 56.4803 21.2884 56.5269 21.4639C56.5734 21.6393 56.6146 21.8094 56.6504 21.9741C56.6862 21.8094 56.7274 21.6393 56.7739 21.4639C56.8205 21.2848 56.8742 21.1004 56.9351 20.9106C56.9959 20.7173 57.064 20.515 57.1392 20.3037L58.9653 15.1475H59.9321ZM65.3838 23H61.0117V15.1475H65.3838V15.9531H61.9248V18.4937H65.1851V19.2886H61.9248V22.1943H65.3838V23ZM73.3599 18.9985C73.3599 19.883 73.1987 20.6224 72.8765 21.2168C72.5542 21.8076 72.0869 22.2534 71.4746 22.5542C70.8659 22.8514 70.1265 23 69.2563 23H67.124V15.1475H69.4927C70.2912 15.1475 70.9787 15.2943 71.5552 15.5879C72.1317 15.8779 72.5757 16.3094 72.8872 16.8823C73.2023 17.4517 73.3599 18.1571 73.3599 18.9985ZM72.3984 19.0308C72.3984 18.3254 72.2803 17.7435 72.0439 17.2852C71.8112 16.8268 71.4674 16.4867 71.0127 16.2646C70.5615 16.0391 70.0083 15.9263 69.353 15.9263H68.0371V22.2158H69.1489C70.2303 22.2158 71.0413 21.9491 71.582 21.4155C72.1263 20.882 72.3984 20.0871 72.3984 19.0308ZM84.7734 19.063C84.7734 19.6681 84.6965 20.2196 84.5425 20.7173C84.3885 21.2114 84.1593 21.6375 83.855 21.9956C83.5542 22.3501 83.18 22.624 82.7324 22.8174C82.2848 23.0107 81.7656 23.1074 81.1748 23.1074C80.5661 23.1074 80.0343 23.0107 79.5796 22.8174C79.1284 22.624 78.7524 22.3483 78.4517 21.9902C78.1545 21.6322 77.9307 21.2043 77.7803 20.7065C77.6335 20.2088 77.5601 19.6574 77.5601 19.0522C77.5601 18.2502 77.6925 17.5465 77.9575 16.9414C78.2225 16.3363 78.6235 15.8654 79.1606 15.5288C79.7013 15.1922 80.3781 15.0239 81.1909 15.0239C81.9679 15.0239 82.6214 15.1904 83.1514 15.5234C83.6849 15.8564 84.0877 16.3255 84.3599 16.9307C84.6356 17.5322 84.7734 18.243 84.7734 19.063ZM78.5215 19.063C78.5215 19.729 78.6164 20.3055 78.8062 20.7925C78.9959 21.2795 79.286 21.6554 79.6763 21.9204C80.0701 22.1854 80.5697 22.3179 81.1748 22.3179C81.7835 22.3179 82.2812 22.1854 82.668 21.9204C83.0583 21.6554 83.3465 21.2795 83.5327 20.7925C83.7189 20.3055 83.812 19.729 83.812 19.063C83.812 18.0496 83.599 17.2583 83.1729 16.689C82.7503 16.116 82.0897 15.8296 81.1909 15.8296C80.5822 15.8296 80.0809 15.9603 79.687 16.2217C79.2931 16.4831 78.9995 16.8555 78.8062 17.3389C78.6164 17.8187 78.5215 18.3934 78.5215 19.063ZM89.1777 17.0059C89.876 17.0059 90.4041 17.1777 90.7622 17.5215C91.1203 17.8617 91.2993 18.4095 91.2993 19.165V23H90.4185V19.2241C90.4185 18.7336 90.3057 18.3665 90.0801 18.123C89.8581 17.8796 89.5161 17.7578 89.0542 17.7578C88.4025 17.7578 87.9442 17.9422 87.6792 18.311C87.4142 18.6799 87.2817 19.2152 87.2817 19.917V23H86.3901V17.1133H87.1099L87.2441 17.9619H87.2925C87.4178 17.7542 87.5771 17.5806 87.7705 17.4409C87.9639 17.2977 88.1805 17.1903 88.4204 17.1187C88.6603 17.0435 88.9128 17.0059 89.1777 17.0059ZM98.5396 23H97.6211V15.9531H95.1504V15.1475H101V15.9531H98.5396V23ZM102.944 14.6426V17.1401C102.944 17.2834 102.94 17.4284 102.933 17.5752C102.926 17.7184 102.913 17.8509 102.896 17.9727H102.955C103.076 17.765 103.23 17.5913 103.417 17.4517C103.606 17.3084 103.821 17.201 104.061 17.1294C104.301 17.0542 104.555 17.0166 104.824 17.0166C105.296 17.0166 105.69 17.0918 106.005 17.2422C106.324 17.3926 106.562 17.6253 106.72 17.9404C106.881 18.2555 106.961 18.6637 106.961 19.165V23H106.081V19.2241C106.081 18.7336 105.968 18.3665 105.742 18.123C105.52 17.8796 105.178 17.7578 104.716 17.7578C104.279 17.7578 103.93 17.842 103.669 18.0103C103.411 18.175 103.225 18.4185 103.11 18.7407C102.999 19.063 102.944 19.4569 102.944 19.9224V23H102.052V14.6426H102.944ZM111 17.0166C111.702 17.0166 112.223 17.1742 112.563 17.4893C112.904 17.8044 113.074 18.3075 113.074 18.9985V23H112.424L112.252 22.1299H112.209C112.044 22.3447 111.872 22.5256 111.693 22.6724C111.514 22.8156 111.307 22.9248 111.07 23C110.838 23.0716 110.551 23.1074 110.211 23.1074C109.853 23.1074 109.534 23.0448 109.255 22.9194C108.979 22.7941 108.761 22.6043 108.6 22.3501C108.442 22.0959 108.363 21.7736 108.363 21.3833C108.363 20.7961 108.596 20.3449 109.062 20.0298C109.527 19.7147 110.236 19.5428 111.188 19.5142L112.204 19.4712V19.1113C112.204 18.6029 112.094 18.2466 111.876 18.0425C111.658 17.8384 111.35 17.7363 110.952 17.7363C110.644 17.7363 110.351 17.7811 110.071 17.8706C109.792 17.9601 109.527 18.0658 109.276 18.1875L109.002 17.5107C109.267 17.3747 109.572 17.2583 109.916 17.1616C110.259 17.0649 110.621 17.0166 111 17.0166ZM112.193 20.0996L111.296 20.1372C110.562 20.1659 110.044 20.2858 109.744 20.4971C109.443 20.7083 109.292 21.0073 109.292 21.394C109.292 21.7306 109.395 21.9795 109.599 22.1406C109.803 22.3018 110.073 22.3823 110.41 22.3823C110.932 22.3823 111.36 22.2373 111.693 21.9473C112.026 21.6572 112.193 21.2222 112.193 20.6421V20.0996ZM117.698 17.0059C118.396 17.0059 118.925 17.1777 119.283 17.5215C119.641 17.8617 119.82 18.4095 119.82 19.165V23H118.939V19.2241C118.939 18.7336 118.826 18.3665 118.601 18.123C118.379 17.8796 118.037 17.7578 117.575 17.7578C116.923 17.7578 116.465 17.9422 116.2 18.311C115.935 18.6799 115.802 19.2152 115.802 19.917V23H114.911V17.1133H115.63L115.765 17.9619H115.813C115.938 17.7542 116.098 17.5806 116.291 17.4409C116.484 17.2977 116.701 17.1903 116.941 17.1187C117.181 17.0435 117.433 17.0059 117.698 17.0059ZM122.543 14.6426V18.9824C122.543 19.1257 122.538 19.3011 122.527 19.5088C122.516 19.7129 122.507 19.8937 122.5 20.0513H122.538C122.613 19.9582 122.722 19.8203 122.865 19.6377C123.012 19.4551 123.136 19.3083 123.236 19.1973L125.191 17.1133H126.238L123.87 19.627L126.41 23H125.336L123.257 20.2124L122.543 20.8677V23H121.657V14.6426H122.543ZM131.244 21.3887C131.244 21.7646 131.149 22.0815 130.959 22.3394C130.773 22.5936 130.505 22.7852 130.154 22.9141C129.806 23.043 129.391 23.1074 128.908 23.1074C128.496 23.1074 128.14 23.0752 127.839 23.0107C127.538 22.9463 127.275 22.855 127.049 22.7368V21.915C127.289 22.0332 127.576 22.1406 127.909 22.2373C128.242 22.334 128.582 22.3823 128.929 22.3823C129.438 22.3823 129.806 22.3 130.036 22.1353C130.265 21.9705 130.379 21.7467 130.379 21.4639C130.379 21.3027 130.333 21.1613 130.24 21.0396C130.15 20.9142 129.998 20.7943 129.783 20.6797C129.568 20.5615 129.271 20.4326 128.892 20.293C128.516 20.1497 128.19 20.0083 127.914 19.8687C127.642 19.7254 127.431 19.5518 127.28 19.3477C127.133 19.1436 127.06 18.8786 127.06 18.5527C127.06 18.055 127.261 17.6737 127.662 17.4087C128.066 17.1401 128.596 17.0059 129.251 17.0059C129.606 17.0059 129.937 17.0417 130.245 17.1133C130.557 17.1813 130.847 17.2744 131.115 17.3926L130.814 18.1069C130.571 18.0031 130.311 17.9154 130.036 17.8438C129.76 17.7721 129.479 17.7363 129.192 17.7363C128.781 17.7363 128.464 17.8044 128.242 17.9404C128.023 18.0765 127.914 18.2627 127.914 18.499C127.914 18.6816 127.964 18.832 128.064 18.9502C128.168 19.0684 128.333 19.1794 128.559 19.2832C128.784 19.387 129.081 19.5088 129.45 19.6484C129.819 19.7845 130.138 19.9259 130.406 20.0728C130.675 20.216 130.881 20.3914 131.024 20.5991C131.171 20.8032 131.244 21.0664 131.244 21.3887ZM134.322 25.6426C133.548 25.6426 132.952 25.4976 132.533 25.2075C132.114 24.9211 131.905 24.5182 131.905 23.999C131.905 23.6302 132.021 23.3151 132.254 23.0537C132.49 22.7923 132.816 22.6187 133.231 22.5327C133.077 22.4611 132.945 22.3537 132.834 22.2104C132.727 22.0672 132.673 21.9025 132.673 21.7163C132.673 21.5015 132.732 21.3135 132.85 21.1523C132.972 20.9876 133.156 20.8301 133.403 20.6797C133.095 20.5544 132.845 20.3431 132.651 20.0459C132.462 19.7451 132.367 19.396 132.367 18.9985C132.367 18.576 132.454 18.2161 132.63 17.9189C132.805 17.6182 133.06 17.389 133.393 17.2314C133.726 17.0739 134.128 16.9951 134.601 16.9951C134.705 16.9951 134.809 17.0005 134.913 17.0112C135.02 17.0184 135.122 17.0309 135.219 17.0488C135.315 17.0632 135.4 17.0811 135.471 17.1025H137.491V17.6772L136.406 17.8115C136.513 17.9512 136.603 18.1195 136.674 18.3164C136.746 18.5133 136.782 18.7318 136.782 18.9717C136.782 19.5589 136.583 20.0262 136.186 20.3735C135.788 20.7173 135.242 20.8892 134.547 20.8892C134.383 20.8892 134.214 20.8748 134.042 20.8462C133.867 20.9429 133.733 21.0503 133.64 21.1685C133.55 21.2866 133.505 21.4227 133.505 21.5767C133.505 21.6912 133.539 21.7826 133.607 21.8506C133.679 21.9186 133.781 21.9688 133.914 22.001C134.046 22.0296 134.205 22.0439 134.392 22.0439H135.428C136.069 22.0439 136.56 22.1782 136.9 22.4468C137.244 22.7153 137.416 23.1074 137.416 23.623C137.416 24.2747 137.151 24.7743 136.621 25.1216C136.091 25.4689 135.324 25.6426 134.322 25.6426ZM134.349 24.9443C134.836 24.9443 135.238 24.8942 135.557 24.7939C135.879 24.6973 136.119 24.5558 136.277 24.3696C136.438 24.187 136.519 23.9686 136.519 23.7144C136.519 23.478 136.465 23.299 136.357 23.1772C136.25 23.0591 136.092 22.9803 135.885 22.9409C135.677 22.8979 135.423 22.8765 135.122 22.8765H134.102C133.837 22.8765 133.606 22.9176 133.409 23C133.212 23.0824 133.06 23.2041 132.952 23.3652C132.848 23.5264 132.796 23.7269 132.796 23.9668C132.796 24.2855 132.931 24.5272 133.199 24.6919C133.468 24.8602 133.851 24.9443 134.349 24.9443ZM134.58 20.2393C135.006 20.2393 135.326 20.1318 135.541 19.917C135.756 19.7021 135.863 19.3888 135.863 18.9771C135.863 18.5366 135.754 18.2072 135.536 17.9888C135.317 17.7668 134.995 17.6558 134.569 17.6558C134.161 17.6558 133.846 17.7703 133.624 17.9995C133.405 18.2251 133.296 18.5563 133.296 18.9932C133.296 19.3942 133.407 19.7021 133.629 19.917C133.851 20.1318 134.168 20.2393 134.58 20.2393ZM139.542 17.1133V23H138.651V17.1133H139.542ZM139.107 14.9111C139.254 14.9111 139.38 14.9595 139.483 15.0562C139.591 15.1493 139.645 15.2961 139.645 15.4966C139.645 15.6935 139.591 15.8403 139.483 15.937C139.38 16.0337 139.254 16.082 139.107 16.082C138.953 16.082 138.825 16.0337 138.721 15.937C138.62 15.8403 138.57 15.6935 138.57 15.4966C138.57 15.2961 138.62 15.1493 138.721 15.0562C138.825 14.9595 138.953 14.9111 139.107 14.9111ZM142.728 23L140.493 17.1133H141.449L142.744 20.6743C142.833 20.9178 142.924 21.1864 143.018 21.48C143.111 21.7736 143.175 22.0099 143.211 22.189H143.249C143.292 22.0099 143.363 21.7736 143.463 21.48C143.564 21.1828 143.655 20.9142 143.737 20.6743L145.032 17.1133H145.988L143.748 23H142.728ZM147.825 17.1133V23H146.933V17.1133H147.825ZM147.39 14.9111C147.536 14.9111 147.662 14.9595 147.766 15.0562C147.873 15.1493 147.927 15.2961 147.927 15.4966C147.927 15.6935 147.873 15.8403 147.766 15.937C147.662 16.0337 147.536 16.082 147.39 16.082C147.236 16.082 147.107 16.0337 147.003 15.937C146.903 15.8403 146.853 15.6935 146.853 15.4966C146.853 15.2961 146.903 15.1493 147.003 15.0562C147.107 14.9595 147.236 14.9111 147.39 14.9111ZM152.503 17.0059C153.201 17.0059 153.729 17.1777 154.087 17.5215C154.445 17.8617 154.625 18.4095 154.625 19.165V23H153.744V19.2241C153.744 18.7336 153.631 18.3665 153.405 18.123C153.183 17.8796 152.841 17.7578 152.379 17.7578C151.728 17.7578 151.269 17.9422 151.004 18.311C150.739 18.6799 150.607 19.2152 150.607 19.917V23H149.715V17.1133H150.435L150.569 17.9619H150.618C150.743 17.7542 150.902 17.5806 151.096 17.4409C151.289 17.2977 151.506 17.1903 151.746 17.1187C151.986 17.0435 152.238 17.0059 152.503 17.0059ZM158.105 25.6426C157.332 25.6426 156.735 25.4976 156.316 25.2075C155.897 24.9211 155.688 24.5182 155.688 23.999C155.688 23.6302 155.804 23.3151 156.037 23.0537C156.273 22.7923 156.599 22.6187 157.015 22.5327C156.861 22.4611 156.728 22.3537 156.617 22.2104C156.51 22.0672 156.456 21.9025 156.456 21.7163C156.456 21.5015 156.515 21.3135 156.633 21.1523C156.755 20.9876 156.939 20.8301 157.187 20.6797C156.879 20.5544 156.628 20.3431 156.435 20.0459C156.245 19.7451 156.15 19.396 156.15 18.9985C156.15 18.576 156.238 18.2161 156.413 17.9189C156.589 17.6182 156.843 17.389 157.176 17.2314C157.509 17.0739 157.912 16.9951 158.384 16.9951C158.488 16.9951 158.592 17.0005 158.696 17.0112C158.803 17.0184 158.905 17.0309 159.002 17.0488C159.099 17.0632 159.183 17.0811 159.254 17.1025H161.274V17.6772L160.189 17.8115C160.296 17.9512 160.386 18.1195 160.458 18.3164C160.529 18.5133 160.565 18.7318 160.565 18.9717C160.565 19.5589 160.366 20.0262 159.969 20.3735C159.571 20.7173 159.025 20.8892 158.331 20.8892C158.166 20.8892 157.998 20.8748 157.826 20.8462C157.65 20.9429 157.516 21.0503 157.423 21.1685C157.333 21.2866 157.289 21.4227 157.289 21.5767C157.289 21.6912 157.323 21.7826 157.391 21.8506C157.462 21.9186 157.564 21.9688 157.697 22.001C157.829 22.0296 157.989 22.0439 158.175 22.0439H159.211C159.852 22.0439 160.343 22.1782 160.683 22.4468C161.027 22.7153 161.199 23.1074 161.199 23.623C161.199 24.2747 160.934 24.7743 160.404 25.1216C159.874 25.4689 159.108 25.6426 158.105 25.6426ZM158.132 24.9443C158.619 24.9443 159.022 24.8942 159.34 24.7939C159.663 24.6973 159.903 24.5558 160.06 24.3696C160.221 24.187 160.302 23.9686 160.302 23.7144C160.302 23.478 160.248 23.299 160.141 23.1772C160.033 23.0591 159.876 22.9803 159.668 22.9409C159.46 22.8979 159.206 22.8765 158.905 22.8765H157.885C157.62 22.8765 157.389 22.9176 157.192 23C156.995 23.0824 156.843 23.2041 156.735 23.3652C156.632 23.5264 156.58 23.7269 156.58 23.9668C156.58 24.2855 156.714 24.5272 156.982 24.6919C157.251 24.8602 157.634 24.9443 158.132 24.9443ZM158.363 20.2393C158.789 20.2393 159.109 20.1318 159.324 19.917C159.539 19.7021 159.646 19.3888 159.646 18.9771C159.646 18.5366 159.537 18.2072 159.319 17.9888C159.1 17.7668 158.778 17.6558 158.352 17.6558C157.944 17.6558 157.629 17.7703 157.407 17.9995C157.188 18.2251 157.079 18.5563 157.079 18.9932C157.079 19.3942 157.19 19.7021 157.412 19.917C157.634 20.1318 157.951 20.2393 158.363 20.2393ZM163.455 21.7217L163.524 21.8452C163.46 22.1066 163.378 22.3859 163.277 22.6831C163.181 22.9803 163.073 23.2775 162.955 23.5747C162.84 23.8755 162.724 24.1566 162.606 24.418H161.94C162.015 24.1315 162.089 23.8289 162.16 23.5103C162.232 23.1951 162.296 22.8836 162.354 22.5757C162.414 22.2642 162.463 21.9795 162.499 21.7217H163.455ZM169.186 23H168.272V15.1475H172.645V15.9531H169.186V18.832H172.435V19.6323H169.186V23ZM176.023 17.0166C176.725 17.0166 177.246 17.1742 177.586 17.4893C177.926 17.8044 178.096 18.3075 178.096 18.9985V23H177.446L177.274 22.1299H177.231C177.067 22.3447 176.895 22.5256 176.716 22.6724C176.537 22.8156 176.329 22.9248 176.093 23C175.86 23.0716 175.574 23.1074 175.233 23.1074C174.875 23.1074 174.557 23.0448 174.277 22.9194C174.002 22.7941 173.783 22.6043 173.622 22.3501C173.465 22.0959 173.386 21.7736 173.386 21.3833C173.386 20.7961 173.618 20.3449 174.084 20.0298C174.549 19.7147 175.258 19.5428 176.211 19.5142L177.226 19.4712V19.1113C177.226 18.6029 177.117 18.2466 176.898 18.0425C176.68 17.8384 176.372 17.7363 175.975 17.7363C175.667 17.7363 175.373 17.7811 175.094 17.8706C174.814 17.9601 174.549 18.0658 174.299 18.1875L174.025 17.5107C174.29 17.3747 174.594 17.2583 174.938 17.1616C175.282 17.0649 175.643 17.0166 176.023 17.0166ZM177.215 20.0996L176.318 20.1372C175.584 20.1659 175.067 20.2858 174.766 20.4971C174.465 20.7083 174.315 21.0073 174.315 21.394C174.315 21.7306 174.417 21.9795 174.621 22.1406C174.825 22.3018 175.096 22.3823 175.432 22.3823C175.955 22.3823 176.383 22.2373 176.716 21.9473C177.049 21.6572 177.215 21.2222 177.215 20.6421V20.0996ZM180.83 23H179.933V14.6426H180.83V23ZM183.612 23H182.715V14.6426H183.612V23ZM190.761 15.0239C191.148 15.0239 191.481 15.092 191.76 15.228C192.043 15.3605 192.26 15.5521 192.41 15.8027C192.564 16.0534 192.641 16.356 192.641 16.7104C192.641 17.1759 192.489 17.5698 192.185 17.8921C191.884 18.2144 191.501 18.508 191.035 18.7729L193.216 20.8892C193.413 20.66 193.574 20.395 193.699 20.0942C193.825 19.7899 193.93 19.4604 194.016 19.106H194.918C194.804 19.5786 194.655 20.0137 194.473 20.4111C194.294 20.8086 194.068 21.1577 193.796 21.4585L195.37 23H194.161L193.189 22.0493C192.96 22.2606 192.713 22.4468 192.448 22.6079C192.186 22.7655 191.895 22.889 191.572 22.9785C191.254 23.0645 190.888 23.1074 190.477 23.1074C189.975 23.1074 189.54 23.0251 189.171 22.8604C188.803 22.6956 188.516 22.4539 188.312 22.1353C188.111 21.8166 188.011 21.4263 188.011 20.9644C188.011 20.5848 188.081 20.259 188.221 19.9868C188.36 19.7147 188.559 19.473 188.817 19.2617C189.075 19.0505 189.383 18.8446 189.741 18.644C189.572 18.4578 189.413 18.2699 189.263 18.0801C189.112 17.8867 188.991 17.6808 188.897 17.4624C188.804 17.2404 188.758 16.9969 188.758 16.7319C188.758 16.3739 188.838 16.0677 189 15.8135C189.164 15.5592 189.395 15.3641 189.692 15.228C189.993 15.092 190.349 15.0239 190.761 15.0239ZM190.278 19.208C189.999 19.3691 189.759 19.5285 189.558 19.686C189.361 19.8436 189.209 20.0208 189.102 20.2178C188.998 20.4147 188.946 20.6528 188.946 20.9321C188.946 21.3511 189.087 21.6877 189.37 21.9419C189.653 22.1925 190.031 22.3179 190.503 22.3179C190.99 22.3179 191.404 22.2373 191.744 22.0762C192.088 21.915 192.38 21.7199 192.62 21.4907L190.278 19.208ZM190.729 15.7598C190.403 15.7598 190.138 15.8457 189.934 16.0176C189.734 16.1859 189.633 16.4222 189.633 16.7266C189.633 16.9987 189.707 17.2493 189.854 17.4785C190 17.7077 190.21 17.9619 190.482 18.2412C190.93 17.9941 191.254 17.756 191.454 17.5269C191.658 17.2941 191.76 17.022 191.76 16.7104C191.76 16.4276 191.665 16.1984 191.476 16.0229C191.289 15.8475 191.041 15.7598 190.729 15.7598ZM200.273 23H199.36V15.1475H203.732V15.9531H200.273V18.832H203.523V19.6323H200.273V23ZM205.806 23H204.909V14.6426H205.806V23ZM212.767 20.0459C212.767 20.5293 212.704 20.9608 212.579 21.3403C212.453 21.7199 212.272 22.0404 212.036 22.3018C211.8 22.5632 211.513 22.7637 211.177 22.9033C210.844 23.0394 210.466 23.1074 210.043 23.1074C209.65 23.1074 209.288 23.0394 208.958 22.9033C208.633 22.7637 208.35 22.5632 208.11 22.3018C207.874 22.0404 207.689 21.7199 207.557 21.3403C207.428 20.9608 207.363 20.5293 207.363 20.0459C207.363 19.4014 207.472 18.8535 207.691 18.4023C207.909 17.9476 208.221 17.6021 208.625 17.3657C209.034 17.1258 209.519 17.0059 210.081 17.0059C210.618 17.0059 211.087 17.1258 211.488 17.3657C211.893 17.6056 212.206 17.953 212.428 18.4077C212.654 18.8589 212.767 19.4049 212.767 20.0459ZM208.287 20.0459C208.287 20.5186 208.35 20.9285 208.475 21.2759C208.6 21.6232 208.794 21.8918 209.055 22.0815C209.317 22.2713 209.653 22.3662 210.065 22.3662C210.473 22.3662 210.808 22.2713 211.069 22.0815C211.334 21.8918 211.529 21.6232 211.655 21.2759C211.78 20.9285 211.843 20.5186 211.843 20.0459C211.843 19.5768 211.78 19.1722 211.655 18.832C211.529 18.4883 211.336 18.2233 211.075 18.0371C210.813 17.8509 210.475 17.7578 210.06 17.7578C209.447 17.7578 208.998 17.9601 208.711 18.3647C208.429 18.7694 208.287 19.3298 208.287 20.0459ZM216.983 17.0059C217.101 17.0059 217.225 17.013 217.354 17.0273C217.482 17.0381 217.597 17.0542 217.697 17.0757L217.584 17.9028C217.488 17.8778 217.38 17.8581 217.262 17.8438C217.144 17.8294 217.033 17.8223 216.929 17.8223C216.693 17.8223 216.469 17.8706 216.258 17.9673C216.05 18.0604 215.868 18.1965 215.71 18.3755C215.552 18.5509 215.429 18.764 215.339 19.0146C215.25 19.2617 215.205 19.5374 215.205 19.8418V23H214.308V17.1133H215.049L215.146 18.1982H215.184C215.305 17.9798 215.452 17.7811 215.624 17.6021C215.796 17.4194 215.995 17.2744 216.22 17.167C216.449 17.0596 216.704 17.0059 216.983 17.0059ZM221.011 17.0166C221.713 17.0166 222.234 17.1742 222.574 17.4893C222.914 17.8044 223.084 18.3075 223.084 18.9985V23H222.435L222.263 22.1299H222.22C222.055 22.3447 221.883 22.5256 221.704 22.6724C221.525 22.8156 221.317 22.9248 221.081 23C220.848 23.0716 220.562 23.1074 220.222 23.1074C219.864 23.1074 219.545 23.0448 219.266 22.9194C218.99 22.7941 218.771 22.6043 218.61 22.3501C218.453 22.0959 218.374 21.7736 218.374 21.3833C218.374 20.7961 218.607 20.3449 219.072 20.0298C219.538 19.7147 220.247 19.5428 221.199 19.5142L222.214 19.4712V19.1113C222.214 18.6029 222.105 18.2466 221.887 18.0425C221.668 17.8384 221.36 17.7363 220.963 17.7363C220.655 17.7363 220.361 17.7811 220.082 17.8706C219.803 17.9601 219.538 18.0658 219.287 18.1875L219.013 17.5107C219.278 17.3747 219.583 17.2583 219.926 17.1616C220.27 17.0649 220.632 17.0166 221.011 17.0166ZM222.204 20.0996L221.307 20.1372C220.573 20.1659 220.055 20.2858 219.754 20.4971C219.454 20.7083 219.303 21.0073 219.303 21.394C219.303 21.7306 219.405 21.9795 219.609 22.1406C219.813 22.3018 220.084 22.3823 220.42 22.3823C220.943 22.3823 221.371 22.2373 221.704 21.9473C222.037 21.6572 222.204 21.2222 222.204 20.6421V20.0996ZM225.818 23H224.921V14.6426H225.818V23ZM233.107 23H232.188V15.9531H229.718V15.1475H235.567V15.9531H233.107V23ZM237.511 14.6426V17.1401C237.511 17.2834 237.508 17.4284 237.5 17.5752C237.493 17.7184 237.481 17.8509 237.463 17.9727H237.522C237.644 17.765 237.798 17.5913 237.984 17.4517C238.174 17.3084 238.389 17.201 238.628 17.1294C238.868 17.0542 239.123 17.0166 239.391 17.0166C239.864 17.0166 240.258 17.0918 240.573 17.2422C240.891 17.3926 241.13 17.6253 241.287 17.9404C241.448 18.2555 241.529 18.6637 241.529 19.165V23H240.648V19.2241C240.648 18.7336 240.535 18.3665 240.31 18.123C240.088 17.8796 239.746 17.7578 239.284 17.7578C238.847 17.7578 238.498 17.842 238.236 18.0103C237.979 18.175 237.792 18.4185 237.678 18.7407C237.567 19.063 237.511 19.4569 237.511 19.9224V23H236.62V14.6426H237.511ZM245.632 17.0059C246.134 17.0059 246.563 17.1169 246.921 17.3389C247.279 17.5609 247.553 17.8724 247.743 18.2734C247.933 18.6709 248.028 19.1364 248.028 19.6699V20.2231H243.962C243.973 20.9142 244.145 21.4406 244.478 21.8022C244.811 22.1639 245.28 22.3447 245.885 22.3447C246.257 22.3447 246.587 22.3107 246.873 22.2427C247.16 22.1746 247.457 22.0744 247.765 21.9419V22.7261C247.467 22.8586 247.172 22.9552 246.878 23.0161C246.588 23.077 246.245 23.1074 245.847 23.1074C245.281 23.1074 244.787 22.9928 244.365 22.7637C243.946 22.5309 243.62 22.1908 243.387 21.7432C243.154 21.2956 243.038 20.7477 243.038 20.0996C243.038 19.4658 243.144 18.918 243.355 18.4561C243.57 17.9906 243.871 17.6325 244.257 17.3818C244.648 17.1312 245.106 17.0059 245.632 17.0059ZM245.622 17.7363C245.145 17.7363 244.766 17.8921 244.483 18.2036C244.2 18.5151 244.032 18.9502 243.978 19.5088H247.093C247.09 19.1579 247.034 18.8499 246.927 18.585C246.823 18.3164 246.664 18.1087 246.449 17.9619C246.234 17.8115 245.958 17.7363 245.622 17.7363ZM255.934 17.0059C256.582 17.0059 257.071 17.1759 257.4 17.5161C257.73 17.8527 257.895 18.3952 257.895 19.1436V23H257.014V19.1865C257.014 18.7103 256.91 18.354 256.702 18.1177C256.498 17.8778 256.194 17.7578 255.789 17.7578C255.22 17.7578 254.806 17.9225 254.548 18.252C254.291 18.5814 254.162 19.0666 254.162 19.7075V23H253.275V19.1865C253.275 18.8678 253.229 18.6029 253.136 18.3916C253.046 18.1803 252.91 18.0228 252.728 17.9189C252.549 17.8115 252.321 17.7578 252.045 17.7578C251.655 17.7578 251.342 17.8384 251.105 17.9995C250.869 18.1606 250.697 18.4006 250.59 18.7192C250.486 19.0343 250.434 19.4229 250.434 19.8848V23H249.542V17.1133H250.262L250.396 17.9458H250.445C250.563 17.7417 250.712 17.5698 250.891 17.4302C251.07 17.2905 251.27 17.1849 251.492 17.1133C251.714 17.0417 251.951 17.0059 252.201 17.0059C252.649 17.0059 253.023 17.09 253.324 17.2583C253.628 17.423 253.848 17.6755 253.984 18.0156H254.033C254.226 17.6755 254.491 17.423 254.828 17.2583C255.164 17.09 255.533 17.0059 255.934 17.0059ZM261.993 17.0059C262.494 17.0059 262.924 17.1169 263.282 17.3389C263.64 17.5609 263.914 17.8724 264.104 18.2734C264.293 18.6709 264.388 19.1364 264.388 19.6699V20.2231H260.322C260.333 20.9142 260.505 21.4406 260.838 21.8022C261.171 22.1639 261.64 22.3447 262.245 22.3447C262.618 22.3447 262.947 22.3107 263.233 22.2427C263.52 22.1746 263.817 22.0744 264.125 21.9419V22.7261C263.828 22.8586 263.532 22.9552 263.239 23.0161C262.949 23.077 262.605 23.1074 262.208 23.1074C261.642 23.1074 261.148 22.9928 260.725 22.7637C260.306 22.5309 259.98 22.1908 259.748 21.7432C259.515 21.2956 259.398 20.7477 259.398 20.0996C259.398 19.4658 259.504 18.918 259.715 18.4561C259.93 17.9906 260.231 17.6325 260.618 17.3818C261.008 17.1312 261.466 17.0059 261.993 17.0059ZM261.982 17.7363C261.506 17.7363 261.126 17.8921 260.843 18.2036C260.56 18.5151 260.392 18.9502 260.338 19.5088H263.454C263.45 19.1579 263.395 18.8499 263.287 18.585C263.183 18.3164 263.024 18.1087 262.809 17.9619C262.594 17.8115 262.319 17.7363 261.982 17.7363ZM269.711 21.3887C269.711 21.7646 269.616 22.0815 269.426 22.3394C269.24 22.5936 268.972 22.7852 268.621 22.9141C268.273 23.043 267.858 23.1074 267.375 23.1074C266.963 23.1074 266.606 23.0752 266.306 23.0107C266.005 22.9463 265.742 22.855 265.516 22.7368V21.915C265.756 22.0332 266.042 22.1406 266.375 22.2373C266.708 22.334 267.049 22.3823 267.396 22.3823C267.904 22.3823 268.273 22.3 268.502 22.1353C268.732 21.9705 268.846 21.7467 268.846 21.4639C268.846 21.3027 268.8 21.1613 268.707 21.0396C268.617 20.9142 268.465 20.7943 268.25 20.6797C268.035 20.5615 267.738 20.4326 267.358 20.293C266.982 20.1497 266.657 20.0083 266.381 19.8687C266.109 19.7254 265.897 19.5518 265.747 19.3477C265.6 19.1436 265.527 18.8786 265.527 18.5527C265.527 18.055 265.727 17.6737 266.128 17.4087C266.533 17.1401 267.063 17.0059 267.718 17.0059C268.073 17.0059 268.404 17.0417 268.712 17.1133C269.023 17.1813 269.313 17.2744 269.582 17.3926L269.281 18.1069C269.038 18.0031 268.778 17.9154 268.502 17.8438C268.227 17.7721 267.946 17.7363 267.659 17.7363C267.247 17.7363 266.931 17.8044 266.708 17.9404C266.49 18.0765 266.381 18.2627 266.381 18.499C266.381 18.6816 266.431 18.832 266.531 18.9502C266.635 19.0684 266.8 19.1794 267.025 19.2832C267.251 19.387 267.548 19.5088 267.917 19.6484C268.286 19.7845 268.604 19.9259 268.873 20.0728C269.142 20.216 269.347 20.3914 269.491 20.5991C269.638 20.8032 269.711 21.0664 269.711 21.3887ZM271.951 20.8193H271.365L271.118 15.1475H272.198L271.951 20.8193ZM271.011 22.4414C271.011 22.1908 271.072 22.0135 271.193 21.9097C271.315 21.8022 271.467 21.7485 271.65 21.7485C271.829 21.7485 271.979 21.8022 272.101 21.9097C272.226 22.0135 272.289 22.1908 272.289 22.4414C272.289 22.6885 272.226 22.8693 272.101 22.9839C271.979 23.0949 271.829 23.1504 271.65 23.1504C271.467 23.1504 271.315 23.0949 271.193 22.9839C271.072 22.8693 271.011 22.6885 271.011 22.4414Z" fill="#292929" style="mix-blend-mode:overlay"/>
</svg>
