<svg width="448" height="60" viewBox="0 0 448 60" fill="none" xmlns="http://www.w3.org/2000/svg">
<path d="M18.2583 21.771C18.2583 22.4904 18.0785 23.1047 17.7188 23.6138C17.3646 24.1174 16.8665 24.502 16.2246 24.7676C15.5827 25.0332 14.8273 25.166 13.9585 25.166C13.4992 25.166 13.0648 25.1439 12.6553 25.0996C12.2458 25.0553 11.8695 24.9917 11.5264 24.9087C11.1833 24.8257 10.8817 24.7233 10.6216 24.6016V23.2485C11.0366 23.4201 11.543 23.5806 12.1406 23.73C12.7383 23.8739 13.3636 23.9458 14.0166 23.9458C14.6253 23.9458 15.14 23.8656 15.5605 23.7051C15.9811 23.5391 16.2993 23.3039 16.5151 22.9995C16.7365 22.6896 16.8472 22.3188 16.8472 21.8872C16.8472 21.4722 16.7559 21.1263 16.5732 20.8496C16.3906 20.5674 16.0863 20.3128 15.6602 20.0859C15.2396 19.8535 14.6641 19.6073 13.9336 19.3472C13.4189 19.1646 12.9652 18.9653 12.5723 18.7495C12.1794 18.5282 11.8501 18.2791 11.5845 18.0024C11.3188 17.7257 11.1169 17.4048 10.9785 17.0396C10.8457 16.6743 10.7793 16.2565 10.7793 15.7861C10.7793 15.1387 10.9425 14.5853 11.269 14.126C11.6011 13.6611 12.0576 13.307 12.6387 13.0635C13.2253 12.8145 13.8976 12.6899 14.6558 12.6899C15.3032 12.6899 15.9009 12.7508 16.4487 12.8726C17.0021 12.9943 17.5085 13.1576 17.9678 13.3623L17.5278 14.5742C17.0907 14.3916 16.6258 14.2394 16.1333 14.1177C15.6463 13.9959 15.1427 13.9351 14.6226 13.9351C14.1024 13.9351 13.6624 14.0125 13.3027 14.1675C12.9486 14.3169 12.6774 14.5299 12.4893 14.8066C12.3011 15.0833 12.207 15.4126 12.207 15.7944C12.207 16.2205 12.2956 16.5747 12.4727 16.8569C12.6553 17.1392 12.943 17.391 13.3359 17.6123C13.7344 17.8281 14.2601 18.055 14.9131 18.293C15.627 18.5531 16.2329 18.8298 16.731 19.123C17.229 19.4108 17.6081 19.765 17.8682 20.1855C18.1283 20.6006 18.2583 21.1291 18.2583 21.771ZM24.1768 25.166C23.3577 25.166 22.6356 24.9972 22.0103 24.6597C21.3849 24.3221 20.8979 23.8075 20.5493 23.1157C20.2007 22.424 20.0264 21.5524 20.0264 20.501C20.0264 19.3997 20.209 18.5005 20.5742 17.8032C20.945 17.1004 21.4541 16.5802 22.1016 16.2427C22.749 15.9051 23.485 15.7363 24.3096 15.7363C24.7633 15.7363 25.2005 15.7834 25.6211 15.8774C26.0472 15.966 26.3958 16.0794 26.667 16.2178L26.252 17.3716C25.9753 17.2609 25.6543 17.1613 25.2891 17.0728C24.9294 16.9842 24.5918 16.9399 24.2764 16.9399C23.6455 16.9399 23.1198 17.0755 22.6992 17.3467C22.2842 17.6178 21.9715 18.0163 21.7612 18.542C21.5565 19.0677 21.4541 19.7152 21.4541 20.4844C21.4541 21.2204 21.5537 21.8485 21.7529 22.3687C21.9577 22.8888 22.2593 23.2873 22.6577 23.564C23.0617 23.8351 23.5653 23.9707 24.1685 23.9707C24.6499 23.9707 25.0843 23.9209 25.4717 23.8213C25.859 23.7161 26.2104 23.5944 26.5259 23.4561V24.6846C26.2215 24.8395 25.8812 24.9585 25.5049 25.0415C25.1341 25.1245 24.6914 25.166 24.1768 25.166ZM32.8179 15.7363C33.0005 15.7363 33.1914 15.7474 33.3906 15.7695C33.5898 15.7861 33.7669 15.811 33.9219 15.8442L33.7476 17.1226C33.5981 17.0838 33.4321 17.0534 33.2495 17.0312C33.0669 17.0091 32.8953 16.998 32.7349 16.998C32.3696 16.998 32.0238 17.0728 31.6973 17.2222C31.3763 17.366 31.0941 17.5763 30.8506 17.853C30.6071 18.1242 30.4162 18.4535 30.2778 18.8408C30.1395 19.2227 30.0703 19.6488 30.0703 20.1191V25H28.6841V15.9023H29.8296L29.979 17.5791H30.0371C30.2253 17.2415 30.4521 16.9344 30.7178 16.6577C30.9834 16.3755 31.2905 16.1514 31.6392 15.9854C31.9933 15.8193 32.3862 15.7363 32.8179 15.7363ZM39.0435 15.7529C40.1281 15.7529 40.9333 15.9964 41.459 16.4834C41.9847 16.9704 42.2476 17.7479 42.2476 18.8159V25H41.2432L40.9775 23.6553H40.9111C40.6566 23.9873 40.391 24.2668 40.1143 24.4937C39.8376 24.715 39.5166 24.8838 39.1514 25C38.7917 25.1107 38.349 25.166 37.8232 25.166C37.2699 25.166 36.7773 25.0692 36.3457 24.8755C35.9196 24.6818 35.582 24.3885 35.333 23.9956C35.0895 23.6027 34.9678 23.1047 34.9678 22.5015C34.9678 21.5939 35.3275 20.8966 36.0469 20.4097C36.7663 19.9227 37.862 19.6571 39.334 19.6128L40.9028 19.5464V18.9902C40.9028 18.2044 40.734 17.6538 40.3965 17.3384C40.0589 17.0229 39.583 16.8652 38.9688 16.8652C38.4928 16.8652 38.0391 16.9344 37.6074 17.0728C37.1758 17.2111 36.7663 17.3743 36.3789 17.5625L35.9556 16.5166C36.3651 16.3063 36.8354 16.1265 37.3667 15.9771C37.8979 15.8276 38.4569 15.7529 39.0435 15.7529ZM40.8862 20.5176L39.5 20.5757C38.3656 20.62 37.5659 20.8053 37.1011 21.1318C36.6362 21.4583 36.4038 21.9204 36.4038 22.5181C36.4038 23.0382 36.5615 23.4229 36.877 23.6719C37.1924 23.9209 37.6102 24.0454 38.1304 24.0454C38.9383 24.0454 39.5996 23.8213 40.1143 23.373C40.6289 22.9248 40.8862 22.2524 40.8862 21.356V20.5176ZM49.3613 15.7363C50.4958 15.7363 51.4006 16.1265 52.0757 16.9067C52.7508 17.687 53.0884 18.8602 53.0884 20.4263C53.0884 21.4611 52.9334 22.3299 52.6235 23.0327C52.3136 23.7355 51.8765 24.2668 51.312 24.6265C50.7531 24.9862 50.0918 25.166 49.3281 25.166C48.8467 25.166 48.4233 25.1024 48.0581 24.9751C47.6929 24.8478 47.3802 24.6763 47.1201 24.4604C46.86 24.2446 46.6442 24.0094 46.4727 23.7549H46.373C46.3896 23.9707 46.409 24.2308 46.4312 24.5352C46.4588 24.8395 46.4727 25.1051 46.4727 25.332V29.0674H45.0864V15.9023H46.2236L46.4062 17.2471H46.4727C46.6497 16.9704 46.8656 16.7186 47.1201 16.4917C47.3747 16.2593 47.6846 16.0767 48.0498 15.9438C48.4206 15.8055 48.8577 15.7363 49.3613 15.7363ZM49.1206 16.8984C48.4897 16.8984 47.9806 17.0202 47.5933 17.2637C47.2114 17.5072 46.932 17.8724 46.7549 18.3594C46.5778 18.8408 46.4837 19.4468 46.4727 20.1772V20.4429C46.4727 21.2121 46.5557 21.8623 46.7217 22.3936C46.8932 22.9248 47.1727 23.3288 47.5601 23.6055C47.953 23.8822 48.4787 24.0205 49.1372 24.0205C49.7017 24.0205 50.172 23.8683 50.5483 23.564C50.9246 23.2596 51.2041 22.8363 51.3867 22.2939C51.5749 21.7461 51.6689 21.118 51.6689 20.4097C51.6689 19.3361 51.4587 18.4839 51.0381 17.853C50.623 17.2166 49.9839 16.8984 49.1206 16.8984ZM56.8735 12.084V15.313C56.8735 15.6838 56.8625 16.0435 56.8403 16.3921C56.8237 16.7407 56.8099 17.0119 56.7988 17.2056H56.8735C57.1226 16.7961 57.4823 16.4502 57.9526 16.168C58.423 15.8857 59.0234 15.7446 59.7539 15.7446C60.8939 15.7446 61.8014 16.1403 62.4766 16.9316C63.1572 17.7174 63.4976 18.8879 63.4976 20.4429C63.4976 21.4666 63.3426 22.3299 63.0327 23.0327C62.7228 23.7355 62.2856 24.2668 61.7212 24.6265C61.1567 24.9862 60.4899 25.166 59.7207 25.166C59.0013 25.166 58.4092 25.0332 57.9443 24.7676C57.485 24.4964 57.1309 24.1672 56.8818 23.7798H56.7739L56.4917 25H55.4956V12.084H56.8735ZM59.5298 16.8984C58.8713 16.8984 58.3483 17.0285 57.9609 17.2886C57.5736 17.5431 57.2941 17.9305 57.1226 18.4507C56.9565 18.9653 56.8735 19.6183 56.8735 20.4097V20.4844C56.8735 21.6299 57.0645 22.507 57.4463 23.1157C57.8281 23.7189 58.5226 24.0205 59.5298 24.0205C60.3765 24.0205 61.0101 23.7106 61.4307 23.0908C61.8568 22.471 62.0698 21.5856 62.0698 20.4346C62.0698 19.2614 61.8595 18.3787 61.439 17.7866C61.0239 17.1945 60.3875 16.8984 59.5298 16.8984ZM73.749 20.4346C73.749 21.1816 73.6522 21.8485 73.4585 22.4351C73.2648 23.0216 72.9854 23.5169 72.6201 23.9209C72.2549 24.3249 71.8122 24.6348 71.292 24.8506C70.7773 25.0609 70.1935 25.166 69.5405 25.166C68.9318 25.166 68.3729 25.0609 67.8638 24.8506C67.3602 24.6348 66.923 24.3249 66.5522 23.9209C66.187 23.5169 65.902 23.0216 65.6973 22.4351C65.498 21.8485 65.3984 21.1816 65.3984 20.4346C65.3984 19.4385 65.5672 18.5918 65.9048 17.8945C66.2424 17.1917 66.7238 16.6577 67.3491 16.2925C67.98 15.9217 68.7298 15.7363 69.5986 15.7363C70.4287 15.7363 71.1536 15.9217 71.7734 16.2925C72.3988 16.6632 72.883 17.2 73.2261 17.9028C73.5747 18.6001 73.749 19.444 73.749 20.4346ZM66.8262 20.4346C66.8262 21.165 66.923 21.7987 67.1167 22.3354C67.3104 22.8722 67.6092 23.2873 68.0132 23.5806C68.4172 23.8739 68.9373 24.0205 69.5737 24.0205C70.2046 24.0205 70.722 23.8739 71.126 23.5806C71.5355 23.2873 71.8371 22.8722 72.0308 22.3354C72.2244 21.7987 72.3213 21.165 72.3213 20.4346C72.3213 19.7096 72.2244 19.0843 72.0308 18.5586C71.8371 18.0273 71.5382 17.6178 71.1343 17.3301C70.7303 17.0423 70.2074 16.8984 69.5654 16.8984C68.6191 16.8984 67.9246 17.2111 67.4819 17.8364C67.0448 18.4618 66.8262 19.3278 66.8262 20.4346ZM83.9756 20.4346C83.9756 21.1816 83.8787 21.8485 83.6851 22.4351C83.4914 23.0216 83.2119 23.5169 82.8467 23.9209C82.4814 24.3249 82.0387 24.6348 81.5186 24.8506C81.0039 25.0609 80.4201 25.166 79.7671 25.166C79.1584 25.166 78.5994 25.0609 78.0903 24.8506C77.5868 24.6348 77.1496 24.3249 76.7788 23.9209C76.4136 23.5169 76.1286 23.0216 75.9238 22.4351C75.7246 21.8485 75.625 21.1816 75.625 20.4346C75.625 19.4385 75.7938 18.5918 76.1313 17.8945C76.4689 17.1917 76.9504 16.6577 77.5757 16.2925C78.2065 15.9217 78.9564 15.7363 79.8252 15.7363C80.6553 15.7363 81.3802 15.9217 82 16.2925C82.6253 16.6632 83.1095 17.2 83.4526 17.9028C83.8013 18.6001 83.9756 19.444 83.9756 20.4346ZM77.0527 20.4346C77.0527 21.165 77.1496 21.7987 77.3433 22.3354C77.5369 22.8722 77.8358 23.2873 78.2397 23.5806C78.6437 23.8739 79.1639 24.0205 79.8003 24.0205C80.4312 24.0205 80.9486 23.8739 81.3525 23.5806C81.762 23.2873 82.0636 22.8722 82.2573 22.3354C82.451 21.7987 82.5479 21.165 82.5479 20.4346C82.5479 19.7096 82.451 19.0843 82.2573 18.5586C82.0636 18.0273 81.7648 17.6178 81.3608 17.3301C80.9569 17.0423 80.4339 16.8984 79.792 16.8984C78.8457 16.8984 78.1512 17.2111 77.7085 17.8364C77.2713 18.4618 77.0527 19.3278 77.0527 20.4346ZM87.7275 12.084V18.791C87.7275 19.0124 87.7192 19.2835 87.7026 19.6045C87.686 19.9199 87.6722 20.1994 87.6611 20.4429H87.7192C87.8354 20.299 88.0042 20.0859 88.2256 19.8037C88.4525 19.5215 88.6434 19.2946 88.7983 19.123L91.8198 15.9023H93.4385L89.7778 19.7871L93.7041 25H92.0439L88.8315 20.6919L87.7275 21.7046V25H86.3579V12.084H87.7275ZM95.082 24.1367C95.082 23.7493 95.1761 23.4754 95.3643 23.3149C95.5524 23.1489 95.7821 23.0659 96.0532 23.0659C96.3354 23.0659 96.5734 23.1489 96.7671 23.3149C96.9608 23.4754 97.0576 23.7493 97.0576 24.1367C97.0576 24.5186 96.9608 24.798 96.7671 24.9751C96.5734 25.1466 96.3354 25.2324 96.0532 25.2324C95.7821 25.2324 95.5524 25.1466 95.3643 24.9751C95.1761 24.798 95.082 24.5186 95.082 24.1367ZM105.151 13.9351C104.481 13.9351 103.878 14.0513 103.341 14.2837C102.81 14.5106 102.356 14.8426 101.98 15.2798C101.609 15.7114 101.324 16.2344 101.125 16.8486C100.926 17.4629 100.826 18.1546 100.826 18.9238C100.826 19.9421 100.984 20.8275 101.299 21.5801C101.62 22.3271 102.096 22.9054 102.727 23.3149C103.363 23.7244 104.158 23.9292 105.109 23.9292C105.652 23.9292 106.161 23.8849 106.637 23.7964C107.118 23.7023 107.586 23.5861 108.04 23.4478V24.6763C107.597 24.8423 107.132 24.964 106.645 25.0415C106.158 25.1245 105.58 25.166 104.91 25.166C103.676 25.166 102.644 24.9115 101.814 24.4023C100.989 23.8877 100.37 23.1628 99.9546 22.2275C99.5451 21.2923 99.3403 20.1883 99.3403 18.9155C99.3403 17.9969 99.4676 17.1585 99.7222 16.4004C99.9823 15.6367 100.359 14.9782 100.851 14.4248C101.349 13.8714 101.958 13.4453 102.677 13.1465C103.402 12.8421 104.232 12.6899 105.167 12.6899C105.782 12.6899 106.374 12.7508 106.944 12.8726C107.514 12.9943 108.028 13.1686 108.488 13.3955L107.923 14.5908C107.536 14.4137 107.11 14.2616 106.645 14.1343C106.186 14.0015 105.688 13.9351 105.151 13.9351ZM118.308 20.4346C118.308 21.1816 118.211 21.8485 118.017 22.4351C117.823 23.0216 117.544 23.5169 117.179 23.9209C116.813 24.3249 116.371 24.6348 115.851 24.8506C115.336 25.0609 114.752 25.166 114.099 25.166C113.49 25.166 112.931 25.0609 112.422 24.8506C111.919 24.6348 111.482 24.3249 111.111 23.9209C110.746 23.5169 110.461 23.0216 110.256 22.4351C110.057 21.8485 109.957 21.1816 109.957 20.4346C109.957 19.4385 110.126 18.5918 110.463 17.8945C110.801 17.1917 111.282 16.6577 111.908 16.2925C112.539 15.9217 113.288 15.7363 114.157 15.7363C114.987 15.7363 115.712 15.9217 116.332 16.2925C116.957 16.6632 117.442 17.2 117.785 17.9028C118.133 18.6001 118.308 19.444 118.308 20.4346ZM111.385 20.4346C111.385 21.165 111.482 21.7987 111.675 22.3354C111.869 22.8722 112.168 23.2873 112.572 23.5806C112.976 23.8739 113.496 24.0205 114.132 24.0205C114.763 24.0205 115.281 23.8739 115.685 23.5806C116.094 23.2873 116.396 22.8722 116.589 22.3354C116.783 21.7987 116.88 21.165 116.88 20.4346C116.88 19.7096 116.783 19.0843 116.589 18.5586C116.396 18.0273 116.097 17.6178 115.693 17.3301C115.289 17.0423 114.766 16.8984 114.124 16.8984C113.178 16.8984 112.483 17.2111 112.041 17.8364C111.603 18.4618 111.385 19.3278 111.385 20.4346ZM130.568 15.7363C131.569 15.7363 132.325 15.9992 132.834 16.5249C133.343 17.0451 133.598 17.8835 133.598 19.04V25H132.236V19.1064C132.236 18.3704 132.076 17.8198 131.755 17.4546C131.439 17.0838 130.969 16.8984 130.344 16.8984C129.464 16.8984 128.825 17.153 128.426 17.6621C128.028 18.1712 127.829 18.9211 127.829 19.9116V25H126.459V19.1064C126.459 18.6139 126.387 18.2044 126.243 17.8779C126.105 17.5514 125.895 17.3079 125.612 17.1475C125.336 16.9814 124.984 16.8984 124.558 16.8984C123.955 16.8984 123.471 17.0229 123.105 17.272C122.74 17.521 122.475 17.8918 122.309 18.3843C122.148 18.8713 122.068 19.4717 122.068 20.1855V25H120.69V15.9023H121.802L122.01 17.189H122.084C122.267 16.8735 122.497 16.6079 122.773 16.3921C123.05 16.1763 123.36 16.013 123.703 15.9023C124.046 15.7917 124.411 15.7363 124.799 15.7363C125.491 15.7363 126.069 15.8664 126.534 16.1265C127.004 16.381 127.344 16.7712 127.555 17.2969H127.629C127.928 16.7712 128.338 16.381 128.858 16.1265C129.378 15.8664 129.948 15.7363 130.568 15.7363ZM140.072 21.0488V19.8203H144.189V21.0488H140.072ZM160.144 25H158.732V19.2808H152.357V25H150.946V12.8643H152.357V18.0356H158.732V12.8643H160.144V25ZM171.117 20.4346C171.117 21.1816 171.02 21.8485 170.827 22.4351C170.633 23.0216 170.354 23.5169 169.988 23.9209C169.623 24.3249 169.18 24.6348 168.66 24.8506C168.146 25.0609 167.562 25.166 166.909 25.166C166.3 25.166 165.741 25.0609 165.232 24.8506C164.728 24.6348 164.291 24.3249 163.92 23.9209C163.555 23.5169 163.27 23.0216 163.065 22.4351C162.866 21.8485 162.767 21.1816 162.767 20.4346C162.767 19.4385 162.935 18.5918 163.273 17.8945C163.611 17.1917 164.092 16.6577 164.717 16.2925C165.348 15.9217 166.098 15.7363 166.967 15.7363C167.797 15.7363 168.522 15.9217 169.142 16.2925C169.767 16.6632 170.251 17.2 170.594 17.9028C170.943 18.6001 171.117 19.444 171.117 20.4346ZM164.194 20.4346C164.194 21.165 164.291 21.7987 164.485 22.3354C164.679 22.8722 164.977 23.2873 165.381 23.5806C165.785 23.8739 166.306 24.0205 166.942 24.0205C167.573 24.0205 168.09 23.8739 168.494 23.5806C168.904 23.2873 169.205 22.8722 169.399 22.3354C169.593 21.7987 169.689 21.165 169.689 20.4346C169.689 19.7096 169.593 19.0843 169.399 18.5586C169.205 18.0273 168.906 17.6178 168.502 17.3301C168.098 17.0423 167.576 16.8984 166.934 16.8984C165.987 16.8984 165.293 17.2111 164.85 17.8364C164.413 18.4618 164.194 19.3278 164.194 20.4346ZM174.886 25H173.5V12.084H174.886V25ZM185.644 20.4346C185.644 21.1816 185.547 21.8485 185.353 22.4351C185.159 23.0216 184.88 23.5169 184.515 23.9209C184.149 24.3249 183.707 24.6348 183.187 24.8506C182.672 25.0609 182.088 25.166 181.435 25.166C180.826 25.166 180.267 25.0609 179.758 24.8506C179.255 24.6348 178.818 24.3249 178.447 23.9209C178.082 23.5169 177.797 23.0216 177.592 22.4351C177.393 21.8485 177.293 21.1816 177.293 20.4346C177.293 19.4385 177.462 18.5918 177.799 17.8945C178.137 17.1917 178.618 16.6577 179.244 16.2925C179.875 15.9217 180.624 15.7363 181.493 15.7363C182.323 15.7363 183.048 15.9217 183.668 16.2925C184.293 16.6632 184.778 17.2 185.121 17.9028C185.469 18.6001 185.644 19.444 185.644 20.4346ZM178.721 20.4346C178.721 21.165 178.818 21.7987 179.011 22.3354C179.205 22.8722 179.504 23.2873 179.908 23.5806C180.312 23.8739 180.832 24.0205 181.468 24.0205C182.099 24.0205 182.617 23.8739 183.021 23.5806C183.43 23.2873 183.732 22.8722 183.925 22.3354C184.119 21.7987 184.216 21.165 184.216 20.4346C184.216 19.7096 184.119 19.0843 183.925 18.5586C183.732 18.0273 183.433 17.6178 183.029 17.3301C182.625 17.0423 182.102 16.8984 181.46 16.8984C180.514 16.8984 179.819 17.2111 179.376 17.8364C178.939 18.4618 178.721 19.3278 178.721 20.4346ZM190.566 29.084C189.371 29.084 188.449 28.8599 187.802 28.4116C187.154 27.9689 186.831 27.3464 186.831 26.5439C186.831 25.974 187.01 25.487 187.37 25.083C187.735 24.679 188.239 24.4106 188.881 24.2778C188.643 24.1672 188.438 24.0011 188.267 23.7798C188.101 23.5584 188.018 23.3039 188.018 23.0161C188.018 22.6841 188.109 22.3936 188.292 22.1445C188.48 21.89 188.765 21.6465 189.146 21.4141C188.671 21.2204 188.283 20.8939 187.984 20.4346C187.691 19.9697 187.544 19.4302 187.544 18.8159C187.544 18.1629 187.68 17.6068 187.951 17.1475C188.222 16.6826 188.615 16.3285 189.13 16.085C189.645 15.8415 190.267 15.7197 190.998 15.7197C191.158 15.7197 191.319 15.728 191.479 15.7446C191.645 15.7557 191.803 15.7751 191.952 15.8027C192.102 15.8249 192.232 15.8525 192.342 15.8857H195.463V16.7739L193.787 16.9814C193.953 17.1973 194.091 17.4574 194.202 17.7617C194.312 18.0661 194.368 18.4036 194.368 18.7744C194.368 19.682 194.061 20.4041 193.446 20.9409C192.832 21.4722 191.988 21.7378 190.915 21.7378C190.66 21.7378 190.4 21.7157 190.134 21.6714C189.863 21.8208 189.656 21.9868 189.512 22.1694C189.373 22.3521 189.304 22.5623 189.304 22.8003C189.304 22.9774 189.357 23.1185 189.462 23.2236C189.573 23.3288 189.73 23.4062 189.935 23.4561C190.14 23.5003 190.386 23.5225 190.674 23.5225H192.276C193.266 23.5225 194.025 23.73 194.55 24.145C195.082 24.5601 195.347 25.166 195.347 25.9629C195.347 26.9701 194.938 27.742 194.119 28.2788C193.3 28.8156 192.115 29.084 190.566 29.084ZM190.607 28.0049C191.36 28.0049 191.983 27.9274 192.475 27.7725C192.973 27.623 193.344 27.4045 193.587 27.1167C193.836 26.8345 193.961 26.4969 193.961 26.104C193.961 25.7388 193.878 25.4621 193.712 25.2739C193.546 25.0913 193.302 24.9696 192.981 24.9087C192.66 24.8423 192.268 24.8091 191.803 24.8091H190.226C189.816 24.8091 189.459 24.8727 189.155 25C188.85 25.1273 188.615 25.3154 188.449 25.5645C188.289 25.8135 188.208 26.1234 188.208 26.4941C188.208 26.9867 188.416 27.3602 188.831 27.6147C189.246 27.8748 189.838 28.0049 190.607 28.0049ZM190.964 20.7334C191.623 20.7334 192.118 20.5674 192.45 20.2354C192.782 19.9033 192.948 19.4191 192.948 18.7827C192.948 18.1021 192.779 17.5929 192.442 17.2554C192.104 16.9123 191.606 16.7407 190.948 16.7407C190.317 16.7407 189.83 16.9178 189.487 17.272C189.149 17.6206 188.98 18.1325 188.98 18.8076C188.98 19.4274 189.152 19.9033 189.495 20.2354C189.838 20.5674 190.328 20.7334 190.964 20.7334ZM201.39 15.7363C201.573 15.7363 201.764 15.7474 201.963 15.7695C202.162 15.7861 202.339 15.811 202.494 15.8442L202.32 17.1226C202.17 17.0838 202.004 17.0534 201.822 17.0312C201.639 17.0091 201.468 16.998 201.307 16.998C200.942 16.998 200.596 17.0728 200.27 17.2222C199.949 17.366 199.666 17.5763 199.423 17.853C199.179 18.1242 198.988 18.4535 198.85 18.8408C198.712 19.2227 198.643 19.6488 198.643 20.1191V25H197.256V15.9023H198.402L198.551 17.5791H198.609C198.798 17.2415 199.024 16.9344 199.29 16.6577C199.556 16.3755 199.863 16.1514 200.211 15.9854C200.566 15.8193 200.958 15.7363 201.39 15.7363ZM207.616 15.7529C208.7 15.7529 209.506 15.9964 210.031 16.4834C210.557 16.9704 210.82 17.7479 210.82 18.8159V25H209.815L209.55 23.6553H209.483C209.229 23.9873 208.963 24.2668 208.687 24.4937C208.41 24.715 208.089 24.8838 207.724 25C207.364 25.1107 206.921 25.166 206.396 25.166C205.842 25.166 205.35 25.0692 204.918 24.8755C204.492 24.6818 204.154 24.3885 203.905 23.9956C203.662 23.6027 203.54 23.1047 203.54 22.5015C203.54 21.5939 203.9 20.8966 204.619 20.4097C205.339 19.9227 206.434 19.6571 207.906 19.6128L209.475 19.5464V18.9902C209.475 18.2044 209.306 17.6538 208.969 17.3384C208.631 17.0229 208.155 16.8652 207.541 16.8652C207.065 16.8652 206.611 16.9344 206.18 17.0728C205.748 17.2111 205.339 17.3743 204.951 17.5625L204.528 16.5166C204.937 16.3063 205.408 16.1265 205.939 15.9771C206.47 15.8276 207.029 15.7529 207.616 15.7529ZM209.458 20.5176L208.072 20.5757C206.938 20.62 206.138 20.8053 205.673 21.1318C205.208 21.4583 204.976 21.9204 204.976 22.5181C204.976 23.0382 205.134 23.4229 205.449 23.6719C205.765 23.9209 206.182 24.0454 206.703 24.0454C207.511 24.0454 208.172 23.8213 208.687 23.373C209.201 22.9248 209.458 22.2524 209.458 21.356V20.5176ZM217.934 15.7363C219.068 15.7363 219.973 16.1265 220.648 16.9067C221.323 17.687 221.661 18.8602 221.661 20.4263C221.661 21.4611 221.506 22.3299 221.196 23.0327C220.886 23.7355 220.449 24.2668 219.884 24.6265C219.325 24.9862 218.664 25.166 217.9 25.166C217.419 25.166 216.996 25.1024 216.63 24.9751C216.265 24.8478 215.952 24.6763 215.692 24.4604C215.432 24.2446 215.216 24.0094 215.045 23.7549H214.945C214.962 23.9707 214.981 24.2308 215.003 24.5352C215.031 24.8395 215.045 25.1051 215.045 25.332V29.0674H213.659V15.9023H214.796L214.979 17.2471H215.045C215.222 16.9704 215.438 16.7186 215.692 16.4917C215.947 16.2593 216.257 16.0767 216.622 15.9438C216.993 15.8055 217.43 15.7363 217.934 15.7363ZM217.693 16.8984C217.062 16.8984 216.553 17.0202 216.166 17.2637C215.784 17.5072 215.504 17.8724 215.327 18.3594C215.15 18.8408 215.056 19.4468 215.045 20.1772V20.4429C215.045 21.2121 215.128 21.8623 215.294 22.3936C215.465 22.9248 215.745 23.3288 216.132 23.6055C216.525 23.8822 217.051 24.0205 217.709 24.0205C218.274 24.0205 218.744 23.8683 219.121 23.564C219.497 23.2596 219.776 22.8363 219.959 22.2939C220.147 21.7461 220.241 21.118 220.241 20.4097C220.241 19.3361 220.031 18.4839 219.61 17.853C219.195 17.2166 218.556 16.8984 217.693 16.8984ZM225.446 12.084V15.9438C225.446 16.1652 225.44 16.3893 225.429 16.6162C225.418 16.8376 225.399 17.0423 225.371 17.2305H225.462C225.651 16.9095 225.889 16.6411 226.176 16.4253C226.47 16.2039 226.802 16.0379 227.172 15.9272C227.543 15.811 227.936 15.7529 228.351 15.7529C229.082 15.7529 229.69 15.8691 230.177 16.1016C230.67 16.334 231.038 16.6937 231.281 17.1807C231.53 17.6676 231.655 18.2985 231.655 19.0732V25H230.293V19.1646C230.293 18.4064 230.119 17.8392 229.771 17.4629C229.427 17.0866 228.899 16.8984 228.185 16.8984C227.51 16.8984 226.97 17.0285 226.566 17.2886C226.168 17.5431 225.88 17.9194 225.703 18.4175C225.532 18.9155 225.446 19.5243 225.446 20.2437V25H224.068V12.084H225.446ZM235.872 15.9023V25H234.494V15.9023H235.872ZM235.199 12.499C235.426 12.499 235.62 12.5737 235.78 12.7231C235.946 12.867 236.029 13.0939 236.029 13.4038C236.029 13.7082 235.946 13.9351 235.78 14.0845C235.62 14.2339 235.426 14.3086 235.199 14.3086C234.961 14.3086 234.762 14.2339 234.602 14.0845C234.447 13.9351 234.369 13.7082 234.369 13.4038C234.369 13.0939 234.447 12.867 234.602 12.7231C234.762 12.5737 234.961 12.499 235.199 12.499ZM242.438 25.166C241.618 25.166 240.896 24.9972 240.271 24.6597C239.646 24.3221 239.159 23.8075 238.81 23.1157C238.461 22.424 238.287 21.5524 238.287 20.501C238.287 19.3997 238.47 18.5005 238.835 17.8032C239.206 17.1004 239.715 16.5802 240.362 16.2427C241.01 15.9051 241.746 15.7363 242.57 15.7363C243.024 15.7363 243.461 15.7834 243.882 15.8774C244.308 15.966 244.657 16.0794 244.928 16.2178L244.513 17.3716C244.236 17.2609 243.915 17.1613 243.55 17.0728C243.19 16.9842 242.853 16.9399 242.537 16.9399C241.906 16.9399 241.381 17.0755 240.96 17.3467C240.545 17.6178 240.232 18.0163 240.022 18.542C239.817 19.0677 239.715 19.7152 239.715 20.4844C239.715 21.2204 239.814 21.8485 240.014 22.3687C240.218 22.8888 240.52 23.2873 240.918 23.564C241.322 23.8351 241.826 23.9707 242.429 23.9707C242.911 23.9707 243.345 23.9209 243.732 23.8213C244.12 23.7161 244.471 23.5944 244.787 23.4561V24.6846C244.482 24.8395 244.142 24.9585 243.766 25.0415C243.395 25.1245 242.952 25.166 242.438 25.166ZM256.906 25L252.83 14.2588H252.764C252.786 14.4857 252.805 14.7624 252.822 15.0889C252.838 15.4154 252.852 15.7723 252.863 16.1597C252.874 16.5415 252.88 16.9316 252.88 17.3301V25H251.568V12.8643H253.66L257.503 22.958H257.562L261.463 12.8643H263.538V25H262.144V17.2305C262.144 16.8708 262.149 16.5111 262.16 16.1514C262.171 15.7861 262.185 15.443 262.202 15.1221C262.218 14.7956 262.235 14.5133 262.251 14.2754H262.185L258.06 25H256.906ZM268.029 15.9023V25H266.651V15.9023H268.029ZM267.356 12.499C267.583 12.499 267.777 12.5737 267.938 12.7231C268.104 12.867 268.187 13.0939 268.187 13.4038C268.187 13.7082 268.104 13.9351 267.938 14.0845C267.777 14.2339 267.583 14.3086 267.356 14.3086C267.118 14.3086 266.919 14.2339 266.759 14.0845C266.604 13.9351 266.526 13.7082 266.526 13.4038C266.526 13.0939 266.604 12.867 266.759 12.7231C266.919 12.5737 267.118 12.499 267.356 12.499ZM275.084 15.7363C275.267 15.7363 275.458 15.7474 275.657 15.7695C275.856 15.7861 276.034 15.811 276.188 15.8442L276.014 17.1226C275.865 17.0838 275.699 17.0534 275.516 17.0312C275.333 17.0091 275.162 16.998 275.001 16.998C274.636 16.998 274.29 17.0728 273.964 17.2222C273.643 17.366 273.361 17.5763 273.117 17.853C272.874 18.1242 272.683 18.4535 272.544 18.8408C272.406 19.2227 272.337 19.6488 272.337 20.1191V25H270.951V15.9023H272.096L272.246 17.5791H272.304C272.492 17.2415 272.719 16.9344 272.984 16.6577C273.25 16.3755 273.557 16.1514 273.906 15.9854C274.26 15.8193 274.653 15.7363 275.084 15.7363ZM282.041 15.7363C282.223 15.7363 282.414 15.7474 282.613 15.7695C282.812 15.7861 282.99 15.811 283.145 15.8442L282.97 17.1226C282.821 17.0838 282.655 17.0534 282.472 17.0312C282.29 17.0091 282.118 16.998 281.958 16.998C281.592 16.998 281.246 17.0728 280.92 17.2222C280.599 17.366 280.317 17.5763 280.073 17.853C279.83 18.1242 279.639 18.4535 279.5 18.8408C279.362 19.2227 279.293 19.6488 279.293 20.1191V25H277.907V15.9023H279.052L279.202 17.5791H279.26C279.448 17.2415 279.675 16.9344 279.94 16.6577C280.206 16.3755 280.513 16.1514 280.862 15.9854C281.216 15.8193 281.609 15.7363 282.041 15.7363ZM292.707 20.4346C292.707 21.1816 292.61 21.8485 292.417 22.4351C292.223 23.0216 291.943 23.5169 291.578 23.9209C291.213 24.3249 290.77 24.6348 290.25 24.8506C289.735 25.0609 289.152 25.166 288.499 25.166C287.89 25.166 287.331 25.0609 286.822 24.8506C286.318 24.6348 285.881 24.3249 285.51 23.9209C285.145 23.5169 284.86 23.0216 284.655 22.4351C284.456 21.8485 284.356 21.1816 284.356 20.4346C284.356 19.4385 284.525 18.5918 284.863 17.8945C285.2 17.1917 285.682 16.6577 286.307 16.2925C286.938 15.9217 287.688 15.7363 288.557 15.7363C289.387 15.7363 290.112 15.9217 290.731 16.2925C291.357 16.6632 291.841 17.2 292.184 17.9028C292.533 18.6001 292.707 19.444 292.707 20.4346ZM285.784 20.4346C285.784 21.165 285.881 21.7987 286.075 22.3354C286.268 22.8722 286.567 23.2873 286.971 23.5806C287.375 23.8739 287.895 24.0205 288.532 24.0205C289.163 24.0205 289.68 23.8739 290.084 23.5806C290.493 23.2873 290.795 22.8722 290.989 22.3354C291.182 21.7987 291.279 21.165 291.279 20.4346C291.279 19.7096 291.182 19.0843 290.989 18.5586C290.795 18.0273 290.496 17.6178 290.092 17.3301C289.688 17.0423 289.165 16.8984 288.523 16.8984C287.577 16.8984 286.883 17.2111 286.44 17.8364C286.003 18.4618 285.784 19.3278 285.784 20.4346ZM299.223 15.7363C299.406 15.7363 299.597 15.7474 299.796 15.7695C299.995 15.7861 300.172 15.811 300.327 15.8442L300.153 17.1226C300.003 17.0838 299.837 17.0534 299.655 17.0312C299.472 17.0091 299.301 16.998 299.14 16.998C298.775 16.998 298.429 17.0728 298.103 17.2222C297.782 17.366 297.499 17.5763 297.256 17.853C297.012 18.1242 296.821 18.4535 296.683 18.8408C296.545 19.2227 296.476 19.6488 296.476 20.1191V25H295.089V15.9023H296.235L296.384 17.5791H296.442C296.631 17.2415 296.857 16.9344 297.123 16.6577C297.389 16.3755 297.696 16.1514 298.044 15.9854C298.399 15.8193 298.792 15.7363 299.223 15.7363ZM309.84 12.8643C311.406 12.8643 312.549 13.1714 313.268 13.7856C313.993 14.3944 314.355 15.2687 314.355 16.4087C314.355 16.9233 314.27 17.4131 314.098 17.8779C313.932 18.3372 313.661 18.744 313.285 19.0981C312.908 19.4468 312.413 19.7235 311.799 19.9282C311.19 20.1274 310.443 20.2271 309.558 20.2271H308.08V25H306.669V12.8643H309.84ZM309.707 14.0679H308.08V19.0151H309.4C310.175 19.0151 310.819 18.9321 311.334 18.7661C311.854 18.6001 312.244 18.3317 312.504 17.9609C312.764 17.5846 312.895 17.0866 312.895 16.4668C312.895 15.6589 312.637 15.0584 312.123 14.6655C311.608 14.2671 310.803 14.0679 309.707 14.0679ZM320.091 15.7529C321.176 15.7529 321.981 15.9964 322.507 16.4834C323.033 16.9704 323.295 17.7479 323.295 18.8159V25H322.291L322.025 23.6553H321.959C321.704 23.9873 321.439 24.2668 321.162 24.4937C320.885 24.715 320.564 24.8838 320.199 25C319.84 25.1107 319.397 25.166 318.871 25.166C318.318 25.166 317.825 25.0692 317.394 24.8755C316.967 24.6818 316.63 24.3885 316.381 23.9956C316.137 23.6027 316.016 23.1047 316.016 22.5015C316.016 21.5939 316.375 20.8966 317.095 20.4097C317.814 19.9227 318.91 19.6571 320.382 19.6128L321.951 19.5464V18.9902C321.951 18.2044 321.782 17.6538 321.444 17.3384C321.107 17.0229 320.631 16.8652 320.017 16.8652C319.541 16.8652 319.087 16.9344 318.655 17.0728C318.224 17.2111 317.814 17.3743 317.427 17.5625L317.003 16.5166C317.413 16.3063 317.883 16.1265 318.415 15.9771C318.946 15.8276 319.505 15.7529 320.091 15.7529ZM321.934 20.5176L320.548 20.5757C319.413 20.62 318.614 20.8053 318.149 21.1318C317.684 21.4583 317.452 21.9204 317.452 22.5181C317.452 23.0382 317.609 23.4229 317.925 23.6719C318.24 23.9209 318.658 24.0454 319.178 24.0454C319.986 24.0454 320.647 23.8213 321.162 23.373C321.677 22.9248 321.934 22.2524 321.934 21.356V20.5176ZM330.409 15.7363C331.544 15.7363 332.448 16.1265 333.124 16.9067C333.799 17.687 334.136 18.8602 334.136 20.4263C334.136 21.4611 333.981 22.3299 333.671 23.0327C333.361 23.7355 332.924 24.2668 332.36 24.6265C331.801 24.9862 331.14 25.166 330.376 25.166C329.895 25.166 329.471 25.1024 329.106 24.9751C328.741 24.8478 328.428 24.6763 328.168 24.4604C327.908 24.2446 327.692 24.0094 327.521 23.7549H327.421C327.438 23.9707 327.457 24.2308 327.479 24.5352C327.507 24.8395 327.521 25.1051 327.521 25.332V29.0674H326.134V15.9023H327.271L327.454 17.2471H327.521C327.698 16.9704 327.913 16.7186 328.168 16.4917C328.423 16.2593 328.732 16.0767 329.098 15.9438C329.468 15.8055 329.906 15.7363 330.409 15.7363ZM330.168 16.8984C329.538 16.8984 329.028 17.0202 328.641 17.2637C328.259 17.5072 327.98 17.8724 327.803 18.3594C327.626 18.8408 327.532 19.4468 327.521 20.1772V20.4429C327.521 21.2121 327.604 21.8623 327.77 22.3936C327.941 22.9248 328.221 23.3288 328.608 23.6055C329.001 23.8822 329.527 24.0205 330.185 24.0205C330.75 24.0205 331.22 23.8683 331.596 23.564C331.972 23.2596 332.252 22.8363 332.435 22.2939C332.623 21.7461 332.717 21.118 332.717 20.4097C332.717 19.3361 332.507 18.4839 332.086 17.853C331.671 17.2166 331.032 16.8984 330.168 16.8984ZM340.046 15.7363C340.821 15.7363 341.485 15.9079 342.039 16.251C342.592 16.5941 343.015 17.0755 343.309 17.6953C343.602 18.3096 343.749 19.029 343.749 19.8535V20.7085H337.465C337.481 21.7765 337.747 22.59 338.262 23.1489C338.776 23.7078 339.501 23.9873 340.437 23.9873C341.012 23.9873 341.521 23.9347 341.964 23.8296C342.407 23.7244 342.866 23.5695 343.342 23.3647V24.5767C342.882 24.7814 342.426 24.9308 341.972 25.0249C341.524 25.119 340.993 25.166 340.378 25.166C339.504 25.166 338.74 24.9889 338.087 24.6348C337.44 24.2751 336.936 23.7493 336.577 23.0576C336.217 22.3659 336.037 21.5192 336.037 20.5176C336.037 19.5381 336.2 18.6914 336.527 17.9775C336.859 17.2581 337.324 16.7048 337.921 16.3174C338.525 15.93 339.233 15.7363 340.046 15.7363ZM340.03 16.8652C339.294 16.8652 338.707 17.106 338.27 17.5874C337.833 18.0688 337.573 18.7412 337.49 19.6045H342.304C342.299 19.0622 342.213 18.5863 342.047 18.1768C341.886 17.7617 341.64 17.4408 341.308 17.2139C340.976 16.9814 340.55 16.8652 340.03 16.8652ZM350.223 15.7363C350.406 15.7363 350.597 15.7474 350.796 15.7695C350.995 15.7861 351.172 15.811 351.327 15.8442L351.153 17.1226C351.003 17.0838 350.837 17.0534 350.655 17.0312C350.472 17.0091 350.301 16.998 350.14 16.998C349.775 16.998 349.429 17.0728 349.103 17.2222C348.782 17.366 348.499 17.5763 348.256 17.853C348.012 18.1242 347.821 18.4535 347.683 18.8408C347.545 19.2227 347.476 19.6488 347.476 20.1191V25H346.089V15.9023H347.235L347.384 17.5791H347.442C347.631 17.2415 347.857 16.9344 348.123 16.6577C348.389 16.3755 348.696 16.1514 349.044 15.9854C349.399 15.8193 349.792 15.7363 350.223 15.7363ZM356.689 21.0488V19.8203H360.807V21.0488H356.689ZM372.901 25L368.825 14.2588H368.759C368.781 14.4857 368.8 14.7624 368.817 15.0889C368.833 15.4154 368.847 15.7723 368.858 16.1597C368.869 16.5415 368.875 16.9316 368.875 17.3301V25H367.563V12.8643H369.655L373.499 22.958H373.557L377.458 12.8643H379.533V25H378.139V17.2305C378.139 16.8708 378.144 16.5111 378.155 16.1514C378.166 15.7861 378.18 15.443 378.197 15.1221C378.213 14.7956 378.23 14.5133 378.247 14.2754H378.18L374.055 25H372.901ZM386.149 15.7363C386.924 15.7363 387.588 15.9079 388.141 16.251C388.694 16.5941 389.118 17.0755 389.411 17.6953C389.704 18.3096 389.851 19.029 389.851 19.8535V20.7085H383.567C383.584 21.7765 383.85 22.59 384.364 23.1489C384.879 23.7078 385.604 23.9873 386.539 23.9873C387.115 23.9873 387.624 23.9347 388.066 23.8296C388.509 23.7244 388.968 23.5695 389.444 23.3647V24.5767C388.985 24.7814 388.528 24.9308 388.075 25.0249C387.626 25.119 387.095 25.166 386.481 25.166C385.607 25.166 384.843 24.9889 384.19 24.6348C383.542 24.2751 383.039 23.7493 382.679 23.0576C382.319 22.3659 382.14 21.5192 382.14 20.5176C382.14 19.5381 382.303 18.6914 382.629 17.9775C382.961 17.2581 383.426 16.7048 384.024 16.3174C384.627 15.93 385.335 15.7363 386.149 15.7363ZM386.132 16.8652C385.396 16.8652 384.81 17.106 384.373 17.5874C383.935 18.0688 383.675 18.7412 383.592 19.6045H388.407C388.401 19.0622 388.315 18.5863 388.149 18.1768C387.989 17.7617 387.743 17.4408 387.411 17.2139C387.079 16.9814 386.653 16.8652 386.132 16.8652ZM395.13 24.0371C395.357 24.0371 395.59 24.0177 395.828 23.979C396.066 23.9403 396.259 23.8932 396.409 23.8379V24.9087C396.248 24.9806 396.024 25.0415 395.736 25.0913C395.454 25.1411 395.177 25.166 394.906 25.166C394.425 25.166 393.988 25.083 393.595 24.917C393.202 24.7454 392.886 24.4577 392.648 24.0537C392.416 23.6497 392.3 23.0908 392.3 22.377V16.9814H391.005V16.3091L392.308 15.7695L392.856 13.7939H393.686V15.9023H396.351V16.9814H393.686V22.3354C393.686 22.9054 393.816 23.3315 394.076 23.6138C394.342 23.896 394.693 24.0371 395.13 24.0371ZM401.655 15.7529C402.739 15.7529 403.545 15.9964 404.07 16.4834C404.596 16.9704 404.859 17.7479 404.859 18.8159V25H403.854L403.589 23.6553H403.522C403.268 23.9873 403.002 24.2668 402.726 24.4937C402.449 24.715 402.128 24.8838 401.763 25C401.403 25.1107 400.96 25.166 400.435 25.166C399.881 25.166 399.389 25.0692 398.957 24.8755C398.531 24.6818 398.193 24.3885 397.944 23.9956C397.701 23.6027 397.579 23.1047 397.579 22.5015C397.579 21.5939 397.939 20.8966 398.658 20.4097C399.378 19.9227 400.473 19.6571 401.945 19.6128L403.514 19.5464V18.9902C403.514 18.2044 403.345 17.6538 403.008 17.3384C402.67 17.0229 402.194 16.8652 401.58 16.8652C401.104 16.8652 400.65 16.9344 400.219 17.0728C399.787 17.2111 399.378 17.3743 398.99 17.5625L398.567 16.5166C398.976 16.3063 399.447 16.1265 399.978 15.9771C400.509 15.8276 401.068 15.7529 401.655 15.7529ZM403.498 20.5176L402.111 20.5757C400.977 20.62 400.177 20.8053 399.712 21.1318C399.248 21.4583 399.015 21.9204 399.015 22.5181C399.015 23.0382 399.173 23.4229 399.488 23.6719C399.804 23.9209 400.222 24.0454 400.742 24.0454C401.55 24.0454 402.211 23.8213 402.726 23.373C403.24 22.9248 403.498 22.2524 403.498 21.356V20.5176ZM409.084 25H407.698V12.084H409.084V25ZM413.384 25H411.998V12.084H413.384V25ZM417.675 15.9023V25H416.297V15.9023H417.675ZM417.003 12.499C417.23 12.499 417.424 12.5737 417.584 12.7231C417.75 12.867 417.833 13.0939 417.833 13.4038C417.833 13.7082 417.75 13.9351 417.584 14.0845C417.424 14.2339 417.23 14.3086 417.003 14.3086C416.765 14.3086 416.566 14.2339 416.405 14.0845C416.25 13.9351 416.173 13.7082 416.173 13.4038C416.173 13.0939 416.25 12.867 416.405 12.7231C416.566 12.5737 416.765 12.499 417.003 12.499ZM424.241 25.166C423.422 25.166 422.7 24.9972 422.075 24.6597C421.449 24.3221 420.962 23.8075 420.614 23.1157C420.265 22.424 420.091 21.5524 420.091 20.501C420.091 19.3997 420.273 18.5005 420.639 17.8032C421.009 17.1004 421.519 16.5802 422.166 16.2427C422.813 15.9051 423.549 15.7363 424.374 15.7363C424.828 15.7363 425.265 15.7834 425.686 15.8774C426.112 15.966 426.46 16.0794 426.731 16.2178L426.316 17.3716C426.04 17.2609 425.719 17.1613 425.354 17.0728C424.994 16.9842 424.656 16.9399 424.341 16.9399C423.71 16.9399 423.184 17.0755 422.764 17.3467C422.349 17.6178 422.036 18.0163 421.826 18.542C421.621 19.0677 421.519 19.7152 421.519 20.4844C421.519 21.2204 421.618 21.8485 421.817 22.3687C422.022 22.8888 422.324 23.2873 422.722 23.564C423.126 23.8351 423.63 23.9707 424.233 23.9707C424.714 23.9707 425.149 23.9209 425.536 23.8213C425.924 23.7161 426.275 23.5944 426.59 23.4561V24.6846C426.286 24.8395 425.946 24.9585 425.569 25.0415C425.199 25.1245 424.756 25.166 424.241 25.166ZM14.5811 36.8643C16.1471 36.8643 17.2899 37.1714 18.0093 37.7856C18.7342 38.3944 19.0967 39.2687 19.0967 40.4087C19.0967 40.9233 19.0109 41.4131 18.8394 41.8779C18.6733 42.3372 18.4022 42.744 18.0259 43.0981C17.6496 43.4468 17.1543 43.7235 16.54 43.9282C15.9313 44.1274 15.1842 44.2271 14.2988 44.2271H12.8213V49H11.4102V36.8643H14.5811ZM14.4482 38.0679H12.8213V43.0151H14.1411C14.9159 43.0151 15.5605 42.9321 16.0752 42.7661C16.5954 42.6001 16.9855 42.3317 17.2456 41.9609C17.5057 41.5846 17.6357 41.0866 17.6357 40.4668C17.6357 39.6589 17.3784 39.0584 16.8638 38.6655C16.3491 38.2671 15.5439 38.0679 14.4482 38.0679ZM24.8325 39.7529C25.9172 39.7529 26.7223 39.9964 27.248 40.4834C27.7738 40.9704 28.0366 41.7479 28.0366 42.8159V49H27.0322L26.7666 47.6553H26.7002C26.4456 47.9873 26.18 48.2668 25.9033 48.4937C25.6266 48.715 25.3057 48.8838 24.9404 49C24.5807 49.1107 24.138 49.166 23.6123 49.166C23.0589 49.166 22.5664 49.0692 22.1348 48.8755C21.7087 48.6818 21.3711 48.3885 21.1221 47.9956C20.8786 47.6027 20.7568 47.1047 20.7568 46.5015C20.7568 45.5939 21.1165 44.8966 21.8359 44.4097C22.5553 43.9227 23.651 43.6571 25.123 43.6128L26.6919 43.5464V42.9902C26.6919 42.2044 26.5231 41.6538 26.1855 41.3384C25.848 41.0229 25.3721 40.8652 24.7578 40.8652C24.2819 40.8652 23.8281 40.9344 23.3965 41.0728C22.9648 41.2111 22.5553 41.3743 22.168 41.5625L21.7446 40.5166C22.1541 40.3063 22.6245 40.1265 23.1558 39.9771C23.687 39.8276 24.2459 39.7529 24.8325 39.7529ZM26.6753 44.5176L25.2891 44.5757C24.1546 44.62 23.355 44.8053 22.8901 45.1318C22.4253 45.4583 22.1929 45.9204 22.1929 46.5181C22.1929 47.0382 22.3506 47.4229 22.666 47.6719C22.9814 47.9209 23.3993 48.0454 23.9194 48.0454C24.7274 48.0454 25.3887 47.8213 25.9033 47.373C26.418 46.9248 26.6753 46.2524 26.6753 45.356V44.5176ZM35.1504 39.7363C36.2848 39.7363 37.1896 40.1265 37.8647 40.9067C38.5399 41.687 38.8774 42.8602 38.8774 44.4263C38.8774 45.4611 38.7225 46.3299 38.4126 47.0327C38.1027 47.7355 37.6655 48.2668 37.1011 48.6265C36.5422 48.9862 35.8809 49.166 35.1172 49.166C34.6357 49.166 34.2124 49.1024 33.8472 48.9751C33.4819 48.8478 33.1693 48.6763 32.9092 48.4604C32.6491 48.2446 32.4333 48.0094 32.2617 47.7549H32.1621C32.1787 47.9707 32.1981 48.2308 32.2202 48.5352C32.2479 48.8395 32.2617 49.1051 32.2617 49.332V53.0674H30.8755V39.9023H32.0127L32.1953 41.2471H32.2617C32.4388 40.9704 32.6546 40.7186 32.9092 40.4917C33.1637 40.2593 33.4736 40.0767 33.8389 39.9438C34.2096 39.8055 34.6468 39.7363 35.1504 39.7363ZM34.9097 40.8984C34.2788 40.8984 33.7697 41.0202 33.3823 41.2637C33.0005 41.5072 32.721 41.8724 32.5439 42.3594C32.3669 42.8408 32.2728 43.4468 32.2617 44.1772V44.4429C32.2617 45.2121 32.3447 45.8623 32.5107 46.3936C32.6823 46.9248 32.9618 47.3288 33.3491 47.6055C33.742 47.8822 34.2677 48.0205 34.9263 48.0205C35.4907 48.0205 35.9611 47.8683 36.3374 47.564C36.7137 47.2596 36.9932 46.8363 37.1758 46.2939C37.3639 45.7461 37.458 45.118 37.458 44.4097C37.458 43.3361 37.2477 42.4839 36.8271 41.853C36.4121 41.2166 35.7729 40.8984 34.9097 40.8984ZM44.7876 39.7363C45.5623 39.7363 46.2264 39.9079 46.7798 40.251C47.3332 40.5941 47.7565 41.0755 48.0498 41.6953C48.3431 42.3096 48.4897 43.029 48.4897 43.8535V44.7085H42.2061C42.2227 45.7765 42.4883 46.59 43.0029 47.1489C43.5176 47.7078 44.2425 47.9873 45.1777 47.9873C45.7533 47.9873 46.2624 47.9347 46.7051 47.8296C47.1478 47.7244 47.6071 47.5695 48.083 47.3647V48.5767C47.6237 48.7814 47.1672 48.9308 46.7134 49.0249C46.2651 49.119 45.7339 49.166 45.1196 49.166C44.2453 49.166 43.4816 48.9889 42.8286 48.6348C42.1812 48.2751 41.6776 47.7493 41.3179 47.0576C40.9582 46.3659 40.7783 45.5192 40.7783 44.5176C40.7783 43.5381 40.9416 42.6914 41.2681 41.9775C41.6001 41.2581 42.0649 40.7048 42.6626 40.3174C43.2658 39.93 43.9741 39.7363 44.7876 39.7363ZM44.771 40.8652C44.035 40.8652 43.4484 41.106 43.0112 41.5874C42.5741 42.0688 42.314 42.7412 42.231 43.6045H47.0454C47.0399 43.0622 46.9541 42.5863 46.7881 42.1768C46.6276 41.7617 46.3813 41.4408 46.0493 41.2139C45.7173 40.9814 45.2912 40.8652 44.771 40.8652ZM54.9644 39.7363C55.147 39.7363 55.3379 39.7474 55.5371 39.7695C55.7363 39.7861 55.9134 39.811 56.0684 39.8442L55.894 41.1226C55.7446 41.0838 55.5786 41.0534 55.396 41.0312C55.2134 41.0091 55.0418 40.998 54.8813 40.998C54.5161 40.998 54.1702 41.0728 53.8438 41.2222C53.5228 41.366 53.2406 41.5763 52.9971 41.853C52.7536 42.1242 52.5627 42.4535 52.4243 42.8408C52.286 43.2227 52.2168 43.6488 52.2168 44.1191V49H50.8306V39.9023H51.9761L52.1255 41.5791H52.1836C52.3717 41.2415 52.5986 40.9344 52.8643 40.6577C53.1299 40.3755 53.437 40.1514 53.7856 39.9854C54.1398 39.8193 54.5327 39.7363 54.9644 39.7363ZM65.5811 36.8643C67.1471 36.8643 68.2899 37.1714 69.0093 37.7856C69.7342 38.3944 70.0967 39.2687 70.0967 40.4087C70.0967 40.9233 70.0109 41.4131 69.8394 41.8779C69.6733 42.3372 69.4022 42.744 69.0259 43.0981C68.6496 43.4468 68.1543 43.7235 67.54 43.9282C66.9313 44.1274 66.1842 44.2271 65.2988 44.2271H63.8213V49H62.4102V36.8643H65.5811ZM65.4482 38.0679H63.8213V43.0151H65.1411C65.9159 43.0151 66.5605 42.9321 67.0752 42.7661C67.5954 42.6001 67.9855 42.3317 68.2456 41.9609C68.5057 41.5846 68.6357 41.0866 68.6357 40.4668C68.6357 39.6589 68.3784 39.0584 67.8638 38.6655C67.3491 38.2671 66.5439 38.0679 65.4482 38.0679ZM75.8325 39.7529C76.9172 39.7529 77.7223 39.9964 78.248 40.4834C78.7738 40.9704 79.0366 41.7479 79.0366 42.8159V49H78.0322L77.7666 47.6553H77.7002C77.4456 47.9873 77.18 48.2668 76.9033 48.4937C76.6266 48.715 76.3057 48.8838 75.9404 49C75.5807 49.1107 75.138 49.166 74.6123 49.166C74.0589 49.166 73.5664 49.0692 73.1348 48.8755C72.7087 48.6818 72.3711 48.3885 72.1221 47.9956C71.8786 47.6027 71.7568 47.1047 71.7568 46.5015C71.7568 45.5939 72.1165 44.8966 72.8359 44.4097C73.5553 43.9227 74.651 43.6571 76.123 43.6128L77.6919 43.5464V42.9902C77.6919 42.2044 77.5231 41.6538 77.1855 41.3384C76.848 41.0229 76.3721 40.8652 75.7578 40.8652C75.2819 40.8652 74.8281 40.9344 74.3965 41.0728C73.9648 41.2111 73.5553 41.3743 73.168 41.5625L72.7446 40.5166C73.1541 40.3063 73.6245 40.1265 74.1558 39.9771C74.687 39.8276 75.2459 39.7529 75.8325 39.7529ZM77.6753 44.5176L76.2891 44.5757C75.1546 44.62 74.355 44.8053 73.8901 45.1318C73.4253 45.4583 73.1929 45.9204 73.1929 46.5181C73.1929 47.0382 73.3506 47.4229 73.666 47.6719C73.9814 47.9209 74.3993 48.0454 74.9194 48.0454C75.7274 48.0454 76.3887 47.8213 76.9033 47.373C77.418 46.9248 77.6753 46.2524 77.6753 45.356V44.5176ZM85.1128 49.166C83.9618 49.166 83.0487 48.7731 82.3735 47.9873C81.7039 47.2015 81.3691 46.0339 81.3691 44.4844C81.3691 42.9183 81.7122 41.7368 82.3984 40.9399C83.0846 40.1375 83.9977 39.7363 85.1377 39.7363C85.6191 39.7363 86.0397 39.8 86.3994 39.9272C86.7591 40.0545 87.069 40.2261 87.3291 40.4419C87.5892 40.6522 87.8078 40.8929 87.9849 41.1641H88.0845C88.0623 40.9925 88.0402 40.7573 88.0181 40.4585C87.9959 40.1597 87.9849 39.9162 87.9849 39.728V36.084H89.3628V49H88.2505L88.043 47.7051H87.9849C87.8133 47.9762 87.5947 48.2225 87.3291 48.4438C87.069 48.6652 86.7563 48.8423 86.3911 48.9751C86.0314 49.1024 85.6053 49.166 85.1128 49.166ZM85.3286 48.0205C86.3026 48.0205 86.9915 47.7438 87.3955 47.1904C87.7995 46.637 88.0015 45.8153 88.0015 44.7251V44.4761C88.0015 43.3195 87.8078 42.4313 87.4204 41.8115C87.0386 41.1917 86.3413 40.8818 85.3286 40.8818C84.4819 40.8818 83.8483 41.2083 83.4277 41.8613C83.0072 42.5088 82.7969 43.3942 82.7969 44.5176C82.7969 45.6354 83.0044 46.4987 83.4194 47.1074C83.84 47.7161 84.4764 48.0205 85.3286 48.0205ZM95.9287 45.0488V43.8203H100.046V45.0488H95.9287ZM114.415 49L112.92 45.1484H108.056L106.57 49H105.143L109.891 36.8145H111.161L115.875 49H114.415ZM112.497 43.895L111.078 40.0684C111.044 39.9688 110.989 39.8055 110.912 39.5786C110.84 39.3517 110.765 39.1165 110.688 38.873C110.61 38.6296 110.546 38.4331 110.497 38.2837C110.441 38.5106 110.38 38.7375 110.314 38.9644C110.253 39.1857 110.192 39.3932 110.131 39.5869C110.07 39.7751 110.018 39.9355 109.974 40.0684L108.529 43.895H112.497ZM124.691 49H116.739V47.8462L119.984 44.5508C120.588 43.9421 121.094 43.3997 121.503 42.9238C121.918 42.4479 122.234 41.9803 122.45 41.521C122.666 41.0562 122.773 40.547 122.773 39.9937C122.773 39.3075 122.569 38.7845 122.159 38.4248C121.755 38.0596 121.221 37.877 120.557 37.877C119.976 37.877 119.461 37.9766 119.013 38.1758C118.565 38.375 118.106 38.6572 117.635 39.0225L116.896 38.0928C117.217 37.8216 117.566 37.5809 117.942 37.3706C118.324 37.1603 118.731 36.9943 119.163 36.8726C119.6 36.7508 120.065 36.6899 120.557 36.6899C121.304 36.6899 121.949 36.82 122.491 37.0801C123.034 37.3402 123.451 37.7109 123.745 38.1924C124.043 38.6738 124.193 39.2466 124.193 39.9106C124.193 40.5526 124.066 41.1502 123.811 41.7036C123.556 42.2515 123.2 42.7965 122.74 43.3389C122.281 43.8757 121.744 44.4456 121.13 45.0488L118.49 47.6802V47.7383H124.691V49ZM130.726 45.0488V43.8203H134.843V45.0488H130.726ZM149.336 46.186H147.518V49H146.173V46.186H140.305V45.0239L146.082 36.7979H147.518V44.9409H149.336V46.186ZM146.173 44.9409V40.9731C146.173 40.6688 146.176 40.3949 146.182 40.1514C146.187 39.9023 146.195 39.6727 146.207 39.4624C146.218 39.2466 146.226 39.0418 146.231 38.8481C146.243 38.6545 146.251 38.4635 146.256 38.2754H146.19C146.085 38.4967 145.963 38.7319 145.825 38.981C145.692 39.2244 145.556 39.443 145.418 39.6367L141.674 44.9409H146.173ZM150.913 48.1367C150.913 47.7493 151.007 47.4754 151.195 47.3149C151.383 47.1489 151.613 47.0659 151.884 47.0659C152.167 47.0659 152.404 47.1489 152.598 47.3149C152.792 47.4754 152.889 47.7493 152.889 48.1367C152.889 48.5186 152.792 48.798 152.598 48.9751C152.404 49.1466 152.167 49.2324 151.884 49.2324C151.613 49.2324 151.383 49.1466 151.195 48.9751C151.007 48.798 150.913 48.5186 150.913 48.1367ZM162.924 49H154.972V47.8462L158.218 44.5508C158.821 43.9421 159.327 43.3997 159.737 42.9238C160.152 42.4479 160.467 41.9803 160.683 41.521C160.899 41.0562 161.007 40.547 161.007 39.9937C161.007 39.3075 160.802 38.7845 160.393 38.4248C159.989 38.0596 159.455 37.877 158.791 37.877C158.209 37.877 157.695 37.9766 157.247 38.1758C156.798 38.375 156.339 38.6572 155.869 39.0225L155.13 38.0928C155.451 37.8216 155.799 37.5809 156.176 37.3706C156.558 37.1603 156.964 36.9943 157.396 36.8726C157.833 36.7508 158.298 36.6899 158.791 36.6899C159.538 36.6899 160.182 36.82 160.725 37.0801C161.267 37.3402 161.685 37.7109 161.978 38.1924C162.277 38.6738 162.426 39.2466 162.426 39.9106C162.426 40.5526 162.299 41.1502 162.044 41.7036C161.79 42.2515 161.433 42.7965 160.974 43.3389C160.514 43.8757 159.978 44.4456 159.363 45.0488L156.724 47.6802V47.7383H162.924V49ZM168.536 41.5791C169.36 41.5791 170.077 41.7202 170.686 42.0024C171.294 42.2791 171.765 42.6831 172.097 43.2144C172.434 43.7456 172.603 44.3903 172.603 45.1484C172.603 45.9785 172.423 46.6951 172.063 47.2983C171.704 47.896 171.186 48.3581 170.511 48.6846C169.836 49.0055 169.028 49.166 168.087 49.166C167.457 49.166 166.87 49.1107 166.328 49C165.785 48.8893 165.329 48.7233 164.958 48.502V47.1904C165.362 47.4339 165.852 47.6276 166.427 47.7715C167.003 47.9154 167.562 47.9873 168.104 47.9873C168.718 47.9873 169.255 47.8905 169.714 47.6968C170.179 47.4976 170.539 47.1987 170.793 46.8003C171.054 46.3963 171.184 45.89 171.184 45.2812C171.184 44.4733 170.935 43.8507 170.437 43.4136C169.944 42.9709 169.164 42.7495 168.096 42.7495C167.753 42.7495 167.376 42.7772 166.967 42.8325C166.557 42.8879 166.22 42.9487 165.954 43.0151L165.257 42.5586L165.722 36.8643H171.756V38.126H166.9L166.593 41.7866C166.804 41.7424 167.075 41.6981 167.407 41.6538C167.739 41.604 168.115 41.5791 168.536 41.5791ZM187.769 49H186.167L182.888 43.6543L179.559 49H178.057L182.099 42.6748L178.339 36.8643H179.908L182.938 41.7036L185.984 36.8643H187.478L183.726 42.6499L187.769 49ZM196.924 41.5791C197.749 41.5791 198.465 41.7202 199.074 42.0024C199.683 42.2791 200.153 42.6831 200.485 43.2144C200.823 43.7456 200.992 44.3903 200.992 45.1484C200.992 45.9785 200.812 46.6951 200.452 47.2983C200.092 47.896 199.575 48.3581 198.9 48.6846C198.225 49.0055 197.417 49.166 196.476 49.166C195.845 49.166 195.259 49.1107 194.716 49C194.174 48.8893 193.717 48.7233 193.347 48.502V47.1904C193.751 47.4339 194.24 47.6276 194.816 47.7715C195.391 47.9154 195.95 47.9873 196.493 47.9873C197.107 47.9873 197.644 47.8905 198.103 47.6968C198.568 47.4976 198.928 47.1987 199.182 46.8003C199.442 46.3963 199.572 45.89 199.572 45.2812C199.572 44.4733 199.323 43.8507 198.825 43.4136C198.333 42.9709 197.552 42.7495 196.484 42.7495C196.141 42.7495 195.765 42.7772 195.355 42.8325C194.946 42.8879 194.608 42.9487 194.343 43.0151L193.646 42.5586L194.11 36.8643H200.145V38.126H195.289L194.982 41.7866C195.192 41.7424 195.463 41.6981 195.795 41.6538C196.127 41.604 196.504 41.5791 196.924 41.5791ZM203.225 48.1367C203.225 47.7493 203.319 47.4754 203.507 47.3149C203.695 47.1489 203.925 47.0659 204.196 47.0659C204.478 47.0659 204.716 47.1489 204.91 47.3149C205.103 47.4754 205.2 47.7493 205.2 48.1367C205.2 48.5186 205.103 48.798 204.91 48.9751C204.716 49.1466 204.478 49.2324 204.196 49.2324C203.925 49.2324 203.695 49.1466 203.507 48.9751C203.319 48.798 203.225 48.5186 203.225 48.1367ZM211.119 41.5791C211.943 41.5791 212.66 41.7202 213.269 42.0024C213.877 42.2791 214.348 42.6831 214.68 43.2144C215.017 43.7456 215.186 44.3903 215.186 45.1484C215.186 45.9785 215.006 46.6951 214.646 47.2983C214.287 47.896 213.769 48.3581 213.094 48.6846C212.419 49.0055 211.611 49.166 210.67 49.166C210.04 49.166 209.453 49.1107 208.911 49C208.368 48.8893 207.912 48.7233 207.541 48.502V47.1904C207.945 47.4339 208.435 47.6276 209.01 47.7715C209.586 47.9154 210.145 47.9873 210.687 47.9873C211.301 47.9873 211.838 47.8905 212.297 47.6968C212.762 47.4976 213.122 47.1987 213.376 46.8003C213.637 46.3963 213.767 45.89 213.767 45.2812C213.767 44.4733 213.518 43.8507 213.02 43.4136C212.527 42.9709 211.747 42.7495 210.679 42.7495C210.336 42.7495 209.959 42.7772 209.55 42.8325C209.14 42.8879 208.803 42.9487 208.537 43.0151L207.84 42.5586L208.305 36.8643H214.339V38.126H209.483L209.176 41.7866C209.387 41.7424 209.658 41.6981 209.99 41.6538C210.322 41.604 210.698 41.5791 211.119 41.5791ZM221.271 45.0488V43.8203H225.388V45.0488H221.271ZM239.881 46.186H238.063V49H236.718V46.186H230.85V45.0239L236.627 36.7979H238.063V44.9409H239.881V46.186ZM236.718 44.9409V40.9731C236.718 40.6688 236.721 40.3949 236.727 40.1514C236.732 39.9023 236.74 39.6727 236.751 39.4624C236.763 39.2466 236.771 39.0418 236.776 38.8481C236.787 38.6545 236.796 38.4635 236.801 38.2754H236.735C236.63 38.4967 236.508 38.7319 236.37 38.981C236.237 39.2244 236.101 39.443 235.963 39.6367L232.219 44.9409H236.718ZM249.07 42.9155C249.07 43.9006 248.995 44.7804 248.846 45.5552C248.696 46.3299 248.461 46.9857 248.14 47.5225C247.819 48.0592 247.404 48.4688 246.895 48.751C246.386 49.0277 245.774 49.166 245.061 49.166C244.159 49.166 243.411 48.9198 242.819 48.4272C242.233 47.9347 241.793 47.2236 241.5 46.2939C241.212 45.3587 241.068 44.2326 241.068 42.9155C241.068 41.6206 241.198 40.5083 241.458 39.5786C241.724 38.6434 242.15 37.9268 242.736 37.4287C243.323 36.9251 244.098 36.6733 245.061 36.6733C245.974 36.6733 246.726 36.9224 247.318 37.4204C247.91 37.9129 248.35 38.6268 248.638 39.562C248.926 40.4917 249.07 41.6095 249.07 42.9155ZM242.454 42.9155C242.454 44.0444 242.54 44.9852 242.711 45.7378C242.883 46.4904 243.16 47.0549 243.542 47.4312C243.929 47.8019 244.435 47.9873 245.061 47.9873C245.686 47.9873 246.189 47.8019 246.571 47.4312C246.959 47.0604 247.238 46.4987 247.41 45.7461C247.587 44.9935 247.675 44.05 247.675 42.9155C247.675 41.8032 247.59 40.8735 247.418 40.1265C247.246 39.3739 246.97 38.8094 246.588 38.4331C246.206 38.0513 245.697 37.8604 245.061 37.8604C244.424 37.8604 243.915 38.0513 243.533 38.4331C243.151 38.8094 242.875 39.3739 242.703 40.1265C242.537 40.8735 242.454 41.8032 242.454 42.9155ZM262.866 45.771C262.866 46.4904 262.686 47.1047 262.326 47.6138C261.972 48.1174 261.474 48.502 260.832 48.7676C260.19 49.0332 259.435 49.166 258.566 49.166C258.107 49.166 257.672 49.1439 257.263 49.0996C256.853 49.0553 256.477 48.9917 256.134 48.9087C255.791 48.8257 255.489 48.7233 255.229 48.6016V47.2485C255.644 47.4201 256.15 47.5806 256.748 47.73C257.346 47.8739 257.971 47.9458 258.624 47.9458C259.233 47.9458 259.747 47.8656 260.168 47.7051C260.589 47.5391 260.907 47.3039 261.123 46.9995C261.344 46.6896 261.455 46.3188 261.455 45.8872C261.455 45.4722 261.363 45.1263 261.181 44.8496C260.998 44.5674 260.694 44.3128 260.268 44.0859C259.847 43.8535 259.271 43.6073 258.541 43.3472C258.026 43.1646 257.573 42.9653 257.18 42.7495C256.787 42.5282 256.458 42.2791 256.192 42.0024C255.926 41.7257 255.724 41.4048 255.586 41.0396C255.453 40.6743 255.387 40.2565 255.387 39.7861C255.387 39.1387 255.55 38.5853 255.876 38.126C256.208 37.6611 256.665 37.307 257.246 37.0635C257.833 36.8145 258.505 36.6899 259.263 36.6899C259.911 36.6899 260.508 36.7508 261.056 36.8726C261.61 36.9943 262.116 37.1576 262.575 37.3623L262.135 38.5742C261.698 38.3916 261.233 38.2394 260.741 38.1177C260.254 37.9959 259.75 37.9351 259.23 37.9351C258.71 37.9351 258.27 38.0125 257.91 38.1675C257.556 38.3169 257.285 38.5299 257.097 38.8066C256.909 39.0833 256.814 39.4126 256.814 39.7944C256.814 40.2205 256.903 40.5747 257.08 40.8569C257.263 41.1392 257.55 41.391 257.943 41.6123C258.342 41.8281 258.868 42.055 259.521 42.293C260.234 42.5531 260.84 42.8298 261.338 43.123C261.836 43.4108 262.215 43.765 262.476 44.1855C262.736 44.6006 262.866 45.1291 262.866 45.771ZM266.518 36.084V39.9438C266.518 40.1652 266.513 40.3893 266.501 40.6162C266.49 40.8376 266.471 41.0423 266.443 41.2305H266.535C266.723 40.9095 266.961 40.6411 267.249 40.4253C267.542 40.2039 267.874 40.0379 268.245 39.9272C268.615 39.811 269.008 39.7529 269.423 39.7529C270.154 39.7529 270.763 39.8691 271.25 40.1016C271.742 40.334 272.11 40.6937 272.354 41.1807C272.603 41.6676 272.727 42.2985 272.727 43.0732V49H271.366V43.1646C271.366 42.4064 271.191 41.8392 270.843 41.4629C270.5 41.0866 269.971 40.8984 269.257 40.8984C268.582 40.8984 268.043 41.0285 267.639 41.2886C267.24 41.5431 266.952 41.9194 266.775 42.4175C266.604 42.9155 266.518 43.5243 266.518 44.2437V49H265.14V36.084H266.518ZM279.069 39.7363C279.844 39.7363 280.508 39.9079 281.061 40.251C281.614 40.5941 282.038 41.0755 282.331 41.6953C282.624 42.3096 282.771 43.029 282.771 43.8535V44.7085H276.487C276.504 45.7765 276.77 46.59 277.284 47.1489C277.799 47.7078 278.524 47.9873 279.459 47.9873C280.035 47.9873 280.544 47.9347 280.986 47.8296C281.429 47.7244 281.888 47.5695 282.364 47.3647V48.5767C281.905 48.7814 281.448 48.9308 280.995 49.0249C280.546 49.119 280.015 49.166 279.401 49.166C278.527 49.166 277.763 48.9889 277.11 48.6348C276.462 48.2751 275.959 47.7493 275.599 47.0576C275.239 46.3659 275.06 45.5192 275.06 44.5176C275.06 43.5381 275.223 42.6914 275.549 41.9775C275.881 41.2581 276.346 40.7048 276.944 40.3174C277.547 39.93 278.255 39.7363 279.069 39.7363ZM279.052 40.8652C278.316 40.8652 277.73 41.106 277.292 41.5874C276.855 42.0688 276.595 42.7412 276.512 43.6045H281.327C281.321 43.0622 281.235 42.5863 281.069 42.1768C280.909 41.7617 280.663 41.4408 280.331 41.2139C279.999 40.9814 279.572 40.8652 279.052 40.8652ZM288.615 39.7363C289.389 39.7363 290.054 39.9079 290.607 40.251C291.16 40.5941 291.584 41.0755 291.877 41.6953C292.17 42.3096 292.317 43.029 292.317 43.8535V44.7085H286.033C286.05 45.7765 286.315 46.59 286.83 47.1489C287.345 47.7078 288.07 47.9873 289.005 47.9873C289.58 47.9873 290.09 47.9347 290.532 47.8296C290.975 47.7244 291.434 47.5695 291.91 47.3647V48.5767C291.451 48.7814 290.994 48.9308 290.541 49.0249C290.092 49.119 289.561 49.166 288.947 49.166C288.072 49.166 287.309 48.9889 286.656 48.6348C286.008 48.2751 285.505 47.7493 285.145 47.0576C284.785 46.3659 284.605 45.5192 284.605 44.5176C284.605 43.5381 284.769 42.6914 285.095 41.9775C285.427 41.2581 285.892 40.7048 286.49 40.3174C287.093 39.93 287.801 39.7363 288.615 39.7363ZM288.598 40.8652C287.862 40.8652 287.276 41.106 286.838 41.5874C286.401 42.0688 286.141 42.7412 286.058 43.6045H290.873C290.867 43.0622 290.781 42.5863 290.615 42.1768C290.455 41.7617 290.208 41.4408 289.876 41.2139C289.544 40.9814 289.118 40.8652 288.598 40.8652ZM297.596 48.0371C297.823 48.0371 298.056 48.0177 298.293 47.979C298.531 47.9403 298.725 47.8932 298.875 47.8379V48.9087C298.714 48.9806 298.49 49.0415 298.202 49.0913C297.92 49.1411 297.643 49.166 297.372 49.166C296.891 49.166 296.453 49.083 296.061 48.917C295.668 48.7454 295.352 48.4577 295.114 48.0537C294.882 47.6497 294.766 47.0908 294.766 46.377V40.9814H293.471V40.3091L294.774 39.7695L295.322 37.7939H296.152V39.9023H298.816V40.9814H296.152V46.3354C296.152 46.9054 296.282 47.3315 296.542 47.6138C296.808 47.896 297.159 48.0371 297.596 48.0371ZM306.603 46.5098C306.603 47.0908 306.456 47.5806 306.163 47.979C305.875 48.3719 305.46 48.668 304.917 48.8672C304.381 49.0664 303.739 49.166 302.992 49.166C302.355 49.166 301.805 49.1162 301.34 49.0166C300.875 48.917 300.468 48.7759 300.12 48.5933V47.3232C300.49 47.5059 300.933 47.6719 301.448 47.8213C301.962 47.9707 302.488 48.0454 303.025 48.0454C303.811 48.0454 304.381 47.9181 304.735 47.6636C305.089 47.409 305.266 47.0632 305.266 46.626C305.266 46.377 305.194 46.1584 305.05 45.9702C304.912 45.7765 304.677 45.5911 304.345 45.4141C304.013 45.2314 303.553 45.0322 302.967 44.8164C302.386 44.5951 301.882 44.3765 301.456 44.1606C301.035 43.9393 300.709 43.6709 300.477 43.3555C300.25 43.04 300.136 42.6305 300.136 42.127C300.136 41.3577 300.446 40.7684 301.066 40.3589C301.691 39.9438 302.51 39.7363 303.523 39.7363C304.071 39.7363 304.583 39.7917 305.059 39.9023C305.54 40.0075 305.988 40.1514 306.403 40.334L305.938 41.438C305.562 41.2775 305.161 41.1419 304.735 41.0312C304.309 40.9206 303.874 40.8652 303.432 40.8652C302.795 40.8652 302.306 40.9704 301.962 41.1807C301.625 41.391 301.456 41.6787 301.456 42.0439C301.456 42.3262 301.534 42.5586 301.688 42.7412C301.849 42.9238 302.104 43.0954 302.452 43.2559C302.801 43.4163 303.26 43.6045 303.83 43.8203C304.4 44.0306 304.893 44.2492 305.308 44.4761C305.723 44.6974 306.041 44.9686 306.262 45.2896C306.489 45.605 306.603 46.0117 306.603 46.5098Z" fill="#909090"/>
</svg>
