<svg width="111" height="37" viewBox="0 0 111 37" fill="none" xmlns="http://www.w3.org/2000/svg">
<rect width="99" height="25" transform="translate(6 6)" fill="#FFF1C0"/>
<path d="M25.8848 19.063C25.8848 19.6681 25.8078 20.2196 25.6538 20.7173C25.4998 21.2114 25.2707 21.6375 24.9663 21.9956C24.6655 22.3501 24.2913 22.624 23.8438 22.8174C23.3962 23.0107 22.877 23.1074 22.2861 23.1074C21.6774 23.1074 21.1457 23.0107 20.6909 22.8174C20.2397 22.624 19.8638 22.3483 19.563 21.9902C19.2658 21.6322 19.042 21.2043 18.8916 20.7065C18.7448 20.2088 18.6714 19.6574 18.6714 19.0522C18.6714 18.2502 18.8039 17.5465 19.0688 16.9414C19.3338 16.3363 19.7349 15.8654 20.272 15.5288C20.8127 15.1922 21.4894 15.0239 22.3022 15.0239C23.0793 15.0239 23.7327 15.1904 24.2627 15.5234C24.7962 15.8564 25.1991 16.3255 25.4712 16.9307C25.7469 17.5322 25.8848 18.243 25.8848 19.063ZM19.6328 19.063C19.6328 19.729 19.7277 20.3055 19.9175 20.7925C20.1073 21.2795 20.3973 21.6554 20.7876 21.9204C21.1815 22.1854 21.681 22.3179 22.2861 22.3179C22.8949 22.3179 23.3926 22.1854 23.7793 21.9204C24.1696 21.6554 24.4578 21.2795 24.644 20.7925C24.8302 20.3055 24.9233 19.729 24.9233 19.063C24.9233 18.0496 24.7103 17.2583 24.2842 16.689C23.8617 16.116 23.201 15.8296 22.3022 15.8296C21.6935 15.8296 21.1922 15.9603 20.7983 16.2217C20.4045 16.4831 20.1108 16.8555 19.9175 17.3389C19.7277 17.8187 19.6328 18.3934 19.6328 19.063ZM30.2891 17.0059C30.9873 17.0059 31.5155 17.1777 31.8735 17.5215C32.2316 17.8617 32.4106 18.4095 32.4106 19.165V23H31.5298V19.2241C31.5298 18.7336 31.417 18.3665 31.1914 18.123C30.9694 17.8796 30.6274 17.7578 30.1655 17.7578C29.5138 17.7578 29.0555 17.9422 28.7905 18.311C28.5256 18.6799 28.3931 19.2152 28.3931 19.917V23H27.5015V17.1133H28.2212L28.3555 17.9619H28.4038C28.5291 17.7542 28.6885 17.5806 28.8818 17.4409C29.0752 17.2977 29.2918 17.1903 29.5317 17.1187C29.7716 17.0435 30.0241 17.0059 30.2891 17.0059ZM35.1445 23H34.2476V14.6426H35.1445V23ZM36.1006 17.1133H37.0566L38.3564 20.5293C38.4316 20.7298 38.5015 20.9232 38.5659 21.1094C38.6304 21.292 38.6877 21.4674 38.7378 21.6357C38.7879 21.804 38.8273 21.967 38.856 22.1245H38.8936C38.9437 21.9455 39.0153 21.7109 39.1084 21.4209C39.2015 21.1273 39.3018 20.8283 39.4092 20.5239L40.6392 17.1133H41.6006L39.0386 23.8647C38.9025 24.2264 38.7432 24.5415 38.5605 24.8101C38.3815 25.0786 38.1631 25.2845 37.9053 25.4277C37.6475 25.5745 37.3359 25.6479 36.9707 25.6479C36.8024 25.6479 36.6538 25.6372 36.5249 25.6157C36.396 25.5978 36.285 25.5763 36.1919 25.5513V24.8369C36.2707 24.8548 36.3656 24.8709 36.4766 24.8853C36.5911 24.8996 36.7093 24.9067 36.8311 24.9067C37.0531 24.9067 37.2446 24.8638 37.4058 24.7778C37.5705 24.6955 37.7119 24.5737 37.8301 24.4126C37.9482 24.2515 38.0503 24.0599 38.1362 23.8379L38.4585 23.0107L36.1006 17.1133ZM48.3198 23H47.4497V17.4355C47.4497 17.2243 47.4497 17.0435 47.4497 16.8931C47.4533 16.7391 47.4569 16.5994 47.4604 16.4741C47.4676 16.3452 47.4766 16.2145 47.4873 16.082C47.3763 16.1966 47.2725 16.2951 47.1758 16.3774C47.0791 16.4562 46.9591 16.5547 46.8159 16.6729L45.9189 17.3926L45.4517 16.7856L47.5786 15.1475H48.3198V23ZM56.8062 15.1475C57.4507 15.1475 57.9824 15.228 58.4014 15.3892C58.8239 15.5467 59.139 15.7884 59.3467 16.1143C59.5544 16.4401 59.6582 16.8555 59.6582 17.3604C59.6582 17.7757 59.583 18.123 59.4326 18.4023C59.2822 18.6781 59.0853 18.9019 58.8418 19.0737C58.5983 19.2456 58.3387 19.3781 58.063 19.4712L60.2168 23H59.1533L57.2305 19.7236H55.5977V23H54.6846V15.1475H56.8062ZM56.7524 15.937H55.5977V18.9502H56.8438C57.4847 18.9502 57.9556 18.8195 58.2563 18.5581C58.5607 18.2967 58.7129 17.9118 58.7129 17.4033C58.7129 16.8698 58.5518 16.492 58.2295 16.27C57.9108 16.048 57.4185 15.937 56.7524 15.937ZM63.606 17.0059C64.1073 17.0059 64.5369 17.1169 64.895 17.3389C65.2531 17.5609 65.527 17.8724 65.7168 18.2734C65.9066 18.6709 66.0015 19.1364 66.0015 19.6699V20.2231H61.9355C61.9463 20.9142 62.1182 21.4406 62.4512 21.8022C62.7842 22.1639 63.2533 22.3447 63.8584 22.3447C64.2308 22.3447 64.5602 22.3107 64.8467 22.2427C65.1331 22.1746 65.4303 22.0744 65.7383 21.9419V22.7261C65.4411 22.8586 65.1457 22.9552 64.8521 23.0161C64.562 23.077 64.2183 23.1074 63.8208 23.1074C63.255 23.1074 62.7609 22.9928 62.3384 22.7637C61.9194 22.5309 61.5936 22.1908 61.3608 21.7432C61.1281 21.2956 61.0117 20.7477 61.0117 20.0996C61.0117 19.4658 61.1174 18.918 61.3286 18.4561C61.5435 17.9906 61.8442 17.6325 62.231 17.3818C62.6213 17.1312 63.0796 17.0059 63.606 17.0059ZM63.5952 17.7363C63.119 17.7363 62.7394 17.8921 62.4565 18.2036C62.1737 18.5151 62.0054 18.9502 61.9517 19.5088H65.0669C65.0633 19.1579 65.0078 18.8499 64.9004 18.585C64.7965 18.3164 64.6372 18.1087 64.4224 17.9619C64.2075 17.8115 63.9318 17.7363 63.5952 17.7363ZM73.9077 17.0059C74.5558 17.0059 75.0446 17.1759 75.374 17.5161C75.7035 17.8527 75.8682 18.3952 75.8682 19.1436V23H74.9873V19.1865C74.9873 18.7103 74.8835 18.354 74.6758 18.1177C74.4717 17.8778 74.1673 17.7578 73.7627 17.7578C73.1934 17.7578 72.7798 17.9225 72.522 18.252C72.2642 18.5814 72.1353 19.0666 72.1353 19.7075V23H71.249V19.1865C71.249 18.8678 71.2025 18.6029 71.1094 18.3916C71.0199 18.1803 70.8838 18.0228 70.7012 17.9189C70.5221 17.8115 70.2948 17.7578 70.019 17.7578C69.6287 17.7578 69.3154 17.8384 69.0791 17.9995C68.8428 18.1606 68.6709 18.4006 68.5635 18.7192C68.4596 19.0343 68.4077 19.4229 68.4077 19.8848V23H67.5161V17.1133H68.2358L68.3701 17.9458H68.4185C68.5366 17.7417 68.6852 17.5698 68.8643 17.4302C69.0433 17.2905 69.2438 17.1849 69.4658 17.1133C69.6878 17.0417 69.9242 17.0059 70.1748 17.0059C70.6224 17.0059 70.9966 17.09 71.2974 17.2583C71.6017 17.423 71.8219 17.6755 71.958 18.0156H72.0063C72.1997 17.6755 72.4647 17.423 72.8013 17.2583C73.1379 17.09 73.5067 17.0059 73.9077 17.0059ZM79.9019 17.0166C80.6037 17.0166 81.1247 17.1742 81.4648 17.4893C81.805 17.8044 81.9751 18.3075 81.9751 18.9985V23H81.3252L81.1533 22.1299H81.1104C80.9456 22.3447 80.7738 22.5256 80.5947 22.6724C80.4157 22.8156 80.208 22.9248 79.9717 23C79.7389 23.0716 79.4525 23.1074 79.1123 23.1074C78.7542 23.1074 78.4355 23.0448 78.1562 22.9194C77.8805 22.7941 77.6621 22.6043 77.501 22.3501C77.3434 22.0959 77.2646 21.7736 77.2646 21.3833C77.2646 20.7961 77.4974 20.3449 77.9629 20.0298C78.4284 19.7147 79.1374 19.5428 80.0898 19.5142L81.105 19.4712V19.1113C81.105 18.6029 80.9958 18.2466 80.7773 18.0425C80.5589 17.8384 80.251 17.7363 79.8535 17.7363C79.5456 17.7363 79.252 17.7811 78.9727 17.8706C78.6934 17.9601 78.4284 18.0658 78.1777 18.1875L77.9038 17.5107C78.1688 17.3747 78.4731 17.2583 78.8169 17.1616C79.1606 17.0649 79.5223 17.0166 79.9019 17.0166ZM81.0942 20.0996L80.1973 20.1372C79.4632 20.1659 78.9458 20.2858 78.645 20.4971C78.3442 20.7083 78.1938 21.0073 78.1938 21.394C78.1938 21.7306 78.2959 21.9795 78.5 22.1406C78.7041 22.3018 78.9744 22.3823 79.311 22.3823C79.8338 22.3823 80.2617 22.2373 80.5947 21.9473C80.9277 21.6572 81.0942 21.2222 81.0942 20.6421V20.0996ZM84.7036 17.1133V23H83.812V17.1133H84.7036ZM84.2686 14.9111C84.4154 14.9111 84.5407 14.9595 84.6445 15.0562C84.752 15.1493 84.8057 15.2961 84.8057 15.4966C84.8057 15.6935 84.752 15.8403 84.6445 15.937C84.5407 16.0337 84.4154 16.082 84.2686 16.082C84.1146 16.082 83.9857 16.0337 83.8818 15.937C83.7816 15.8403 83.7314 15.6935 83.7314 15.4966C83.7314 15.2961 83.7816 15.1493 83.8818 15.0562C83.9857 14.9595 84.1146 14.9111 84.2686 14.9111ZM89.3818 17.0059C90.0801 17.0059 90.6082 17.1777 90.9663 17.5215C91.3244 17.8617 91.5034 18.4095 91.5034 19.165V23H90.6226V19.2241C90.6226 18.7336 90.5098 18.3665 90.2842 18.123C90.0622 17.8796 89.7202 17.7578 89.2583 17.7578C88.6066 17.7578 88.1483 17.9422 87.8833 18.311C87.6183 18.6799 87.4858 19.2152 87.4858 19.917V23H86.5942V17.1133H87.314L87.4482 17.9619H87.4966C87.6219 17.7542 87.7812 17.5806 87.9746 17.4409C88.168 17.2977 88.3846 17.1903 88.6245 17.1187C88.8644 17.0435 89.1169 17.0059 89.3818 17.0059Z" fill="#AB7221"/>
</svg>
