<svg width="183" height="29" viewBox="0 0 183 29" fill="none" xmlns="http://www.w3.org/2000/svg">
<path d="M12.0703 16.668C12.0703 17.1758 11.9453 17.6133 11.6953 17.9805C11.4492 18.3477 11.0938 18.6289 10.6289 18.8242C10.168 19.0195 9.61719 19.1172 8.97656 19.1172C8.66406 19.1172 8.36523 19.0996 8.08008 19.0645C7.79492 19.0293 7.52539 18.9785 7.27148 18.9121C7.02148 18.8418 6.79297 18.7578 6.58594 18.6602V17.3359C6.93359 17.4883 7.32227 17.627 7.75195 17.752C8.18164 17.873 8.61914 17.9336 9.06445 17.9336C9.42773 17.9336 9.72852 17.8867 9.9668 17.793C10.209 17.6953 10.3887 17.5586 10.5059 17.3828C10.623 17.2031 10.6816 16.9941 10.6816 16.7559C10.6816 16.502 10.6133 16.2871 10.4766 16.1113C10.3398 15.9355 10.1328 15.7754 9.85547 15.6309C9.58203 15.4824 9.23828 15.3242 8.82422 15.1562C8.54297 15.043 8.27344 14.9141 8.01562 14.7695C7.76172 14.625 7.53516 14.4551 7.33594 14.2598C7.13672 14.0645 6.97852 13.834 6.86133 13.5684C6.74805 13.2988 6.69141 12.9824 6.69141 12.6191C6.69141 12.1348 6.80664 11.7207 7.03711 11.377C7.27148 11.0332 7.59961 10.7695 8.02148 10.5859C8.44727 10.4023 8.94336 10.3105 9.50977 10.3105C9.95898 10.3105 10.3809 10.3574 10.7754 10.4512C11.1738 10.5449 11.5645 10.6777 11.9473 10.8496L11.502 11.9805C11.1504 11.8359 10.8086 11.7207 10.4766 11.6348C10.1484 11.5488 9.8125 11.5059 9.46875 11.5059C9.17188 11.5059 8.91992 11.5508 8.71289 11.6406C8.50586 11.7305 8.34766 11.8574 8.23828 12.0215C8.13281 12.1816 8.08008 12.373 8.08008 12.5957C8.08008 12.8457 8.14062 13.0566 8.26172 13.2285C8.38672 13.3965 8.57812 13.5508 8.83594 13.6914C9.09766 13.832 9.43359 13.9883 9.84375 14.1602C10.3164 14.3555 10.7168 14.5605 11.0449 14.7754C11.377 14.9902 11.6309 15.248 11.8066 15.5488C11.9824 15.8457 12.0703 16.2188 12.0703 16.668ZM16.125 12.3906C16.9453 12.3906 17.5645 12.5723 17.9824 12.9355C18.4043 13.2988 18.6152 13.8652 18.6152 14.6348V19H17.6367L17.373 18.0801H17.3262C17.1426 18.3145 16.9531 18.5078 16.7578 18.6602C16.5625 18.8125 16.3359 18.9258 16.0781 19C15.8242 19.0781 15.5137 19.1172 15.1465 19.1172C14.7598 19.1172 14.4141 19.0469 14.1094 18.9062C13.8047 18.7617 13.5645 18.543 13.3887 18.25C13.2129 17.957 13.125 17.5859 13.125 17.1367C13.125 16.4688 13.373 15.9668 13.8691 15.6309C14.3691 15.2949 15.123 15.1094 16.1309 15.0742L17.2559 15.0332V14.6934C17.2559 14.2441 17.1504 13.9238 16.9395 13.7324C16.7324 13.541 16.4395 13.4453 16.0605 13.4453C15.7363 13.4453 15.4219 13.4922 15.1172 13.5859C14.8125 13.6797 14.5156 13.7949 14.2266 13.9316L13.7812 12.959C14.0977 12.791 14.457 12.6543 14.8594 12.5488C15.2656 12.4434 15.6875 12.3906 16.125 12.3906ZM17.25 15.9004L16.4121 15.9297C15.7246 15.9531 15.2422 16.0703 14.9648 16.2812C14.6875 16.4922 14.5488 16.7812 14.5488 17.1484C14.5488 17.4688 14.6445 17.7031 14.8359 17.8516C15.0273 17.9961 15.2793 18.0684 15.5918 18.0684C16.0684 18.0684 16.4629 17.9336 16.7754 17.6641C17.0918 17.3906 17.25 16.9902 17.25 16.4629V15.9004ZM22.0254 19L19.5586 12.5137H21.0176L22.3535 16.3223C22.4395 16.5645 22.5176 16.8262 22.5879 17.1074C22.6582 17.3887 22.707 17.625 22.7344 17.8164H22.7812C22.8086 17.6172 22.8613 17.3789 22.9395 17.1016C23.0176 16.8203 23.0977 16.5605 23.1797 16.3223L24.5156 12.5137H25.9688L23.502 19H22.0254ZM29.5371 12.3906C30.1152 12.3906 30.6113 12.5098 31.0254 12.748C31.4395 12.9863 31.7578 13.3242 31.9805 13.7617C32.2031 14.1992 32.3145 14.7227 32.3145 15.332V16.0703H27.9844C28 16.6992 28.168 17.1836 28.4883 17.5234C28.8125 17.8633 29.2656 18.0332 29.8477 18.0332C30.2617 18.0332 30.6328 17.9941 30.9609 17.916C31.293 17.834 31.6348 17.7148 31.9863 17.5586V18.6777C31.6621 18.8301 31.332 18.9414 30.9961 19.0117C30.6602 19.082 30.2578 19.1172 29.7891 19.1172C29.1523 19.1172 28.5918 18.9941 28.1074 18.748C27.627 18.498 27.25 18.127 26.9766 17.6348C26.707 17.1426 26.5723 16.5312 26.5723 15.8008C26.5723 15.0742 26.6953 14.457 26.9414 13.9492C27.1875 13.4414 27.5332 13.0547 27.9785 12.7891C28.4238 12.5234 28.9434 12.3906 29.5371 12.3906ZM29.5371 13.4277C29.1035 13.4277 28.752 13.5684 28.4824 13.8496C28.2168 14.1309 28.0605 14.543 28.0137 15.0859H30.9668C30.9629 14.7617 30.9082 14.4746 30.8027 14.2246C30.7012 13.9746 30.5449 13.7793 30.334 13.6387C30.127 13.498 29.8613 13.4277 29.5371 13.4277ZM38.5195 19H37.125V10.4336H41.9648V11.6172H38.5195V14.2891H41.7422V15.4668H38.5195V19ZM49.125 15.7422C49.125 16.2812 49.0547 16.7598 48.9141 17.1777C48.7734 17.5957 48.5684 17.9492 48.2988 18.2383C48.0293 18.5234 47.7051 18.7422 47.3262 18.8945C46.9473 19.043 46.5195 19.1172 46.043 19.1172C45.5977 19.1172 45.1895 19.043 44.8184 18.8945C44.4473 18.7422 44.125 18.5234 43.8516 18.2383C43.582 17.9492 43.373 17.5957 43.2246 17.1777C43.0762 16.7598 43.002 16.2812 43.002 15.7422C43.002 15.0273 43.125 14.4219 43.3711 13.9258C43.6211 13.4258 43.9766 13.0449 44.4375 12.7832C44.8984 12.5215 45.4473 12.3906 46.084 12.3906C46.6816 12.3906 47.209 12.5215 47.666 12.7832C48.123 13.0449 48.4805 13.4258 48.7383 13.9258C48.9961 14.4258 49.125 15.0312 49.125 15.7422ZM44.4199 15.7422C44.4199 16.2148 44.4766 16.6191 44.5898 16.9551C44.707 17.291 44.8867 17.5488 45.1289 17.7285C45.3711 17.9043 45.6836 17.9922 46.0664 17.9922C46.4492 17.9922 46.7617 17.9043 47.0039 17.7285C47.2461 17.5488 47.4238 17.291 47.5371 16.9551C47.6504 16.6191 47.707 16.2148 47.707 15.7422C47.707 15.2695 47.6504 14.8691 47.5371 14.541C47.4238 14.209 47.2461 13.957 47.0039 13.7852C46.7617 13.6094 46.4473 13.5215 46.0605 13.5215C45.4902 13.5215 45.0742 13.7129 44.8125 14.0957C44.5508 14.4785 44.4199 15.0273 44.4199 15.7422ZM53.9941 12.3906C54.1035 12.3906 54.2227 12.3965 54.3516 12.4082C54.4805 12.4199 54.5918 12.4355 54.6855 12.4551L54.5566 13.7441C54.4746 13.7207 54.373 13.7031 54.252 13.6914C54.1348 13.6797 54.0293 13.6738 53.9355 13.6738C53.6895 13.6738 53.4551 13.7148 53.2324 13.7969C53.0098 13.875 52.8125 13.9961 52.6406 14.1602C52.4688 14.3203 52.334 14.5215 52.2363 14.7637C52.1387 15.0059 52.0898 15.2871 52.0898 15.6074V19H50.707V12.5137H51.7852L51.9727 13.6562H52.0371C52.166 13.4258 52.3262 13.2148 52.5176 13.0234C52.709 12.832 52.9277 12.6797 53.1738 12.5664C53.4238 12.4492 53.6973 12.3906 53.9941 12.3906ZM59.1445 19V10.4336H60.5508V17.8047H64.1895V19H59.1445ZM68.0742 12.3906C68.8945 12.3906 69.5137 12.5723 69.9316 12.9355C70.3535 13.2988 70.5645 13.8652 70.5645 14.6348V19H69.5859L69.3223 18.0801H69.2754C69.0918 18.3145 68.9023 18.5078 68.707 18.6602C68.5117 18.8125 68.2852 18.9258 68.0273 19C67.7734 19.0781 67.4629 19.1172 67.0957 19.1172C66.709 19.1172 66.3633 19.0469 66.0586 18.9062C65.7539 18.7617 65.5137 18.543 65.3379 18.25C65.1621 17.957 65.0742 17.5859 65.0742 17.1367C65.0742 16.4688 65.3223 15.9668 65.8184 15.6309C66.3184 15.2949 67.0723 15.1094 68.0801 15.0742L69.2051 15.0332V14.6934C69.2051 14.2441 69.0996 13.9238 68.8887 13.7324C68.6816 13.541 68.3887 13.4453 68.0098 13.4453C67.6855 13.4453 67.3711 13.4922 67.0664 13.5859C66.7617 13.6797 66.4648 13.7949 66.1758 13.9316L65.7305 12.959C66.0469 12.791 66.4062 12.6543 66.8086 12.5488C67.2148 12.4434 67.6367 12.3906 68.0742 12.3906ZM69.1992 15.9004L68.3613 15.9297C67.6738 15.9531 67.1914 16.0703 66.9141 16.2812C66.6367 16.4922 66.498 16.7812 66.498 17.1484C66.498 17.4688 66.5938 17.7031 66.7852 17.8516C66.9766 17.9961 67.2285 18.0684 67.541 18.0684C68.0176 18.0684 68.4121 17.9336 68.7246 17.6641C69.041 17.3906 69.1992 16.9902 69.1992 16.4629V15.9004ZM74.9062 18.0039C75.0859 18.0039 75.2637 17.9883 75.4395 17.957C75.6152 17.9219 75.7754 17.8809 75.9199 17.834V18.877C75.7676 18.9434 75.5703 19 75.3281 19.0469C75.0859 19.0938 74.834 19.1172 74.5723 19.1172C74.2051 19.1172 73.875 19.0566 73.582 18.9355C73.2891 18.8105 73.0566 18.5977 72.8848 18.2969C72.7129 17.9961 72.627 17.5801 72.627 17.0488V13.5625H71.7422V12.9473L72.6914 12.4609L73.1426 11.0723H74.0098V12.5137H75.8672V13.5625H74.0098V17.0312C74.0098 17.3594 74.0918 17.6035 74.2559 17.7637C74.4199 17.9238 74.6367 18.0039 74.9062 18.0039ZM79.8223 12.3906C80.4004 12.3906 80.8965 12.5098 81.3105 12.748C81.7246 12.9863 82.043 13.3242 82.2656 13.7617C82.4883 14.1992 82.5996 14.7227 82.5996 15.332V16.0703H78.2695C78.2852 16.6992 78.4531 17.1836 78.7734 17.5234C79.0977 17.8633 79.5508 18.0332 80.1328 18.0332C80.5469 18.0332 80.918 17.9941 81.2461 17.916C81.5781 17.834 81.9199 17.7148 82.2715 17.5586V18.6777C81.9473 18.8301 81.6172 18.9414 81.2812 19.0117C80.9453 19.082 80.543 19.1172 80.0742 19.1172C79.4375 19.1172 78.877 18.9941 78.3926 18.748C77.9121 18.498 77.5352 18.127 77.2617 17.6348C76.9922 17.1426 76.8574 16.5312 76.8574 15.8008C76.8574 15.0742 76.9805 14.457 77.2266 13.9492C77.4727 13.4414 77.8184 13.0547 78.2637 12.7891C78.709 12.5234 79.2285 12.3906 79.8223 12.3906ZM79.8223 13.4277C79.3887 13.4277 79.0371 13.5684 78.7676 13.8496C78.502 14.1309 78.3457 14.543 78.2988 15.0859H81.252C81.248 14.7617 81.1934 14.4746 81.0879 14.2246C80.9863 13.9746 80.8301 13.7793 80.6191 13.6387C80.4121 13.498 80.1465 13.4277 79.8223 13.4277ZM87.4395 12.3906C87.5488 12.3906 87.668 12.3965 87.7969 12.4082C87.9258 12.4199 88.0371 12.4355 88.1309 12.4551L88.002 13.7441C87.9199 13.7207 87.8184 13.7031 87.6973 13.6914C87.5801 13.6797 87.4746 13.6738 87.3809 13.6738C87.1348 13.6738 86.9004 13.7148 86.6777 13.7969C86.4551 13.875 86.2578 13.9961 86.0859 14.1602C85.9141 14.3203 85.7793 14.5215 85.6816 14.7637C85.584 15.0059 85.5352 15.2871 85.5352 15.6074V19H84.1523V12.5137H85.2305L85.418 13.6562H85.4824C85.6113 13.4258 85.7715 13.2148 85.9629 13.0234C86.1543 12.832 86.373 12.6797 86.6191 12.5664C86.8691 12.4492 87.1426 12.3906 87.4395 12.3906Z" fill="#5D9BAE"/>
<path d="M6 19.7324H88.3477V20.0254H6V19.7324Z" fill="#5D9BAE"/>
<path d="M98 9.75C100.754 9.75 103 11.9961 103 14.75C103 17.5234 100.754 19.75 98 19.75C95.2266 19.75 93 17.5234 93 14.75C93 11.9961 95.2266 9.75 98 9.75ZM98 17.5625C98.332 17.5625 98.625 17.2891 98.625 16.9375C98.625 16.5859 98.332 16.3125 98 16.3125C97.6289 16.3125 97.375 16.5859 97.375 16.9375C97.375 17.2891 97.6484 17.5625 98 17.5625ZM99.3477 14.7891C99.7773 14.5352 100.031 14.0859 100.031 13.6172C100.031 12.8555 99.4258 12.25 98.625 12.25H97.6289C96.8867 12.25 96.2812 12.8555 96.2812 13.6172C96.2812 13.8711 96.4961 14.0859 96.75 14.0859C97.0039 14.0859 97.2188 13.8711 97.2188 13.6172C97.2188 13.3828 97.3945 13.1875 97.6484 13.1875H98.6445C98.8789 13.1875 99.0938 13.3828 99.0938 13.6172C99.0938 13.7734 99.0156 13.9102 98.8789 13.9883L97.7656 14.6523C97.6094 14.75 97.5312 14.9062 97.5312 15.0625V15.375C97.5312 15.6289 97.7461 15.8438 98 15.8438C98.2539 15.8438 98.4688 15.6289 98.4688 15.375V15.3359L99.3477 14.7891Z" fill="#D8D8D8"/>
<path d="M115.666 9.91797H116.949V21.7246H115.666V9.91797Z" fill="#999999"/>
<path d="M113 19.7324H119.609V20.0254H113V19.7324Z" fill="#999999"/>
<path d="M133.533 10.4336C134.271 10.4336 134.881 10.5234 135.361 10.7031C135.846 10.8828 136.205 11.1562 136.439 11.5234C136.678 11.8906 136.797 12.3574 136.797 12.9238C136.797 13.3457 136.719 13.7051 136.562 14.002C136.406 14.2988 136.201 14.5449 135.947 14.7402C135.693 14.9355 135.422 15.0918 135.133 15.209L137.564 19H135.977L133.908 15.5664H132.531V19H131.125V10.4336H133.533ZM133.439 11.6055H132.531V14.4062H133.504C134.156 14.4062 134.629 14.2852 134.922 14.043C135.219 13.8008 135.367 13.4434 135.367 12.9707C135.367 12.4746 135.209 12.123 134.893 11.916C134.58 11.709 134.096 11.6055 133.439 11.6055ZM141.232 12.3906C141.811 12.3906 142.307 12.5098 142.721 12.748C143.135 12.9863 143.453 13.3242 143.676 13.7617C143.898 14.1992 144.01 14.7227 144.01 15.332V16.0703H139.68C139.695 16.6992 139.863 17.1836 140.184 17.5234C140.508 17.8633 140.961 18.0332 141.543 18.0332C141.957 18.0332 142.328 17.9941 142.656 17.916C142.988 17.834 143.33 17.7148 143.682 17.5586V18.6777C143.357 18.8301 143.027 18.9414 142.691 19.0117C142.355 19.082 141.953 19.1172 141.484 19.1172C140.848 19.1172 140.287 18.9941 139.803 18.748C139.322 18.498 138.945 18.127 138.672 17.6348C138.402 17.1426 138.268 16.5312 138.268 15.8008C138.268 15.0742 138.391 14.457 138.637 13.9492C138.883 13.4414 139.229 13.0547 139.674 12.7891C140.119 12.5234 140.639 12.3906 141.232 12.3906ZM141.232 13.4277C140.799 13.4277 140.447 13.5684 140.178 13.8496C139.912 14.1309 139.756 14.543 139.709 15.0859H142.662C142.658 14.7617 142.604 14.4746 142.498 14.2246C142.396 13.9746 142.24 13.7793 142.029 13.6387C141.822 13.498 141.557 13.4277 141.232 13.4277ZM152.893 12.3906C153.619 12.3906 154.166 12.5781 154.533 12.9531C154.904 13.3281 155.09 13.9297 155.09 14.7578V19H153.713V15.0039C153.713 14.5117 153.617 14.1406 153.426 13.8906C153.234 13.6406 152.943 13.5156 152.553 13.5156C152.006 13.5156 151.611 13.6914 151.369 14.043C151.131 14.3906 151.012 14.8965 151.012 15.5605V19H149.635V15.0039C149.635 14.6758 149.592 14.4023 149.506 14.1836C149.424 13.9609 149.297 13.7949 149.125 13.6855C148.953 13.5723 148.736 13.5156 148.475 13.5156C148.096 13.5156 147.793 13.6016 147.566 13.7734C147.344 13.9453 147.184 14.1992 147.086 14.5352C146.988 14.8672 146.939 15.2754 146.939 15.7598V19H145.562V12.5137H146.635L146.828 13.3867H146.904C147.037 13.1602 147.201 12.9746 147.396 12.8301C147.596 12.6816 147.816 12.5723 148.059 12.502C148.301 12.4277 148.553 12.3906 148.814 12.3906C149.299 12.3906 149.707 12.4766 150.039 12.6484C150.371 12.8164 150.619 13.0742 150.783 13.4219H150.889C151.092 13.0703 151.375 12.8105 151.738 12.6426C152.102 12.4746 152.486 12.3906 152.893 12.3906ZM162.754 15.7422C162.754 16.2812 162.684 16.7598 162.543 17.1777C162.402 17.5957 162.197 17.9492 161.928 18.2383C161.658 18.5234 161.334 18.7422 160.955 18.8945C160.576 19.043 160.148 19.1172 159.672 19.1172C159.227 19.1172 158.818 19.043 158.447 18.8945C158.076 18.7422 157.754 18.5234 157.48 18.2383C157.211 17.9492 157.002 17.5957 156.854 17.1777C156.705 16.7598 156.631 16.2812 156.631 15.7422C156.631 15.0273 156.754 14.4219 157 13.9258C157.25 13.4258 157.605 13.0449 158.066 12.7832C158.527 12.5215 159.076 12.3906 159.713 12.3906C160.311 12.3906 160.838 12.5215 161.295 12.7832C161.752 13.0449 162.109 13.4258 162.367 13.9258C162.625 14.4258 162.754 15.0312 162.754 15.7422ZM158.049 15.7422C158.049 16.2148 158.105 16.6191 158.219 16.9551C158.336 17.291 158.516 17.5488 158.758 17.7285C159 17.9043 159.312 17.9922 159.695 17.9922C160.078 17.9922 160.391 17.9043 160.633 17.7285C160.875 17.5488 161.053 17.291 161.166 16.9551C161.279 16.6191 161.336 16.2148 161.336 15.7422C161.336 15.2695 161.279 14.8691 161.166 14.541C161.053 14.209 160.875 13.957 160.633 13.7852C160.391 13.6094 160.076 13.5215 159.689 13.5215C159.119 13.5215 158.703 13.7129 158.441 14.0957C158.18 14.4785 158.049 15.0273 158.049 15.7422ZM165.818 19L163.352 12.5137H164.811L166.146 16.3223C166.232 16.5645 166.311 16.8262 166.381 17.1074C166.451 17.3887 166.5 17.625 166.527 17.8164H166.574C166.602 17.6172 166.654 17.3789 166.732 17.1016C166.811 16.8203 166.891 16.5605 166.973 16.3223L168.309 12.5137H169.762L167.295 19H165.818ZM173.33 12.3906C173.908 12.3906 174.404 12.5098 174.818 12.748C175.232 12.9863 175.551 13.3242 175.773 13.7617C175.996 14.1992 176.107 14.7227 176.107 15.332V16.0703H171.777C171.793 16.6992 171.961 17.1836 172.281 17.5234C172.605 17.8633 173.059 18.0332 173.641 18.0332C174.055 18.0332 174.426 17.9941 174.754 17.916C175.086 17.834 175.428 17.7148 175.779 17.5586V18.6777C175.455 18.8301 175.125 18.9414 174.789 19.0117C174.453 19.082 174.051 19.1172 173.582 19.1172C172.945 19.1172 172.385 18.9941 171.9 18.748C171.42 18.498 171.043 18.127 170.77 17.6348C170.5 17.1426 170.365 16.5312 170.365 15.8008C170.365 15.0742 170.488 14.457 170.734 13.9492C170.98 13.4414 171.326 13.0547 171.771 12.7891C172.217 12.5234 172.736 12.3906 173.33 12.3906ZM173.33 13.4277C172.896 13.4277 172.545 13.5684 172.275 13.8496C172.01 14.1309 171.854 14.543 171.807 15.0859H174.76C174.756 14.7617 174.701 14.4746 174.596 14.2246C174.494 13.9746 174.338 13.7793 174.127 13.6387C173.92 13.498 173.654 13.4277 173.33 13.4277Z" fill="#5D9BAE"/>
<path d="M130 19.7324H176.676V20.0254H130V19.7324Z" fill="#5D9BAE"/>
</svg>
