<svg width="271" height="91" viewBox="0 0 271 91" fill="none" xmlns="http://www.w3.org/2000/svg">
<g clip-path="url(#clip0_316_104779)">
<rect width="195" height="25" fill="#D14646"/>
<path d="M19.8848 13.063C19.8848 13.6681 19.8078 14.2196 19.6538 14.7173C19.4998 15.2114 19.2707 15.6375 18.9663 15.9956C18.6655 16.3501 18.2913 16.624 17.8438 16.8174C17.3962 17.0107 16.877 17.1074 16.2861 17.1074C15.6774 17.1074 15.1457 17.0107 14.6909 16.8174C14.2397 16.624 13.8638 16.3483 13.563 15.9902C13.2658 15.6322 13.042 15.2043 12.8916 14.7065C12.7448 14.2088 12.6714 13.6574 12.6714 13.0522C12.6714 12.2502 12.8039 11.5465 13.0688 10.9414C13.3338 10.3363 13.7349 9.8654 14.272 9.52881C14.8127 9.19222 15.4894 9.02393 16.3022 9.02393C17.0793 9.02393 17.7327 9.19043 18.2627 9.52344C18.7962 9.85645 19.1991 10.3255 19.4712 10.9307C19.7469 11.5322 19.8848 12.243 19.8848 13.063ZM13.6328 13.063C13.6328 13.729 13.7277 14.3055 13.9175 14.7925C14.1073 15.2795 14.3973 15.6554 14.7876 15.9204C15.1815 16.1854 15.681 16.3179 16.2861 16.3179C16.8949 16.3179 17.3926 16.1854 17.7793 15.9204C18.1696 15.6554 18.4578 15.2795 18.644 14.7925C18.8302 14.3055 18.9233 13.729 18.9233 13.063C18.9233 12.0496 18.7103 11.2583 18.2842 10.689C17.8617 10.116 17.201 9.82959 16.3022 9.82959C15.6935 9.82959 15.1922 9.96029 14.7983 10.2217C14.4045 10.4831 14.1108 10.8555 13.9175 11.3389C13.7277 11.8187 13.6328 12.3934 13.6328 13.063ZM24.2891 11.0059C24.9873 11.0059 25.5155 11.1777 25.8735 11.5215C26.2316 11.8617 26.4106 12.4095 26.4106 13.165V17H25.5298V13.2241C25.5298 12.7336 25.417 12.3665 25.1914 12.123C24.9694 11.8796 24.6274 11.7578 24.1655 11.7578C23.5138 11.7578 23.0555 11.9422 22.7905 12.311C22.5256 12.6799 22.3931 13.2152 22.3931 13.917V17H21.5015V11.1133H22.2212L22.3555 11.9619H22.4038C22.5291 11.7542 22.6885 11.5806 22.8818 11.4409C23.0752 11.2977 23.2918 11.1903 23.5317 11.1187C23.7716 11.0435 24.0241 11.0059 24.2891 11.0059ZM29.1445 17H28.2476V8.64258H29.1445V17ZM30.1006 11.1133H31.0566L32.3564 14.5293C32.4316 14.7298 32.5015 14.9232 32.5659 15.1094C32.6304 15.292 32.6877 15.4674 32.7378 15.6357C32.7879 15.804 32.8273 15.967 32.856 16.1245H32.8936C32.9437 15.9455 33.0153 15.7109 33.1084 15.4209C33.2015 15.1273 33.3018 14.8283 33.4092 14.5239L34.6392 11.1133H35.6006L33.0386 17.8647C32.9025 18.2264 32.7432 18.5415 32.5605 18.8101C32.3815 19.0786 32.1631 19.2845 31.9053 19.4277C31.6475 19.5745 31.3359 19.6479 30.9707 19.6479C30.8024 19.6479 30.6538 19.6372 30.5249 19.6157C30.396 19.5978 30.285 19.5763 30.1919 19.5513V18.8369C30.2707 18.8548 30.3656 18.8709 30.4766 18.8853C30.5911 18.8996 30.7093 18.9067 30.8311 18.9067C31.0531 18.9067 31.2446 18.8638 31.4058 18.7778C31.5705 18.6955 31.7119 18.5737 31.8301 18.4126C31.9482 18.2515 32.0503 18.0599 32.1362 17.8379L32.4585 17.0107L30.1006 11.1133ZM42.3198 17H41.4497V11.4355C41.4497 11.2243 41.4497 11.0435 41.4497 10.8931C41.4533 10.7391 41.4569 10.5994 41.4604 10.4741C41.4676 10.3452 41.4766 10.2145 41.4873 10.082C41.3763 10.1966 41.2725 10.2951 41.1758 10.3774C41.0791 10.4562 40.9591 10.5547 40.8159 10.6729L39.9189 11.3926L39.4517 10.7856L41.5786 9.14746H42.3198V17ZM48.6846 17V9.14746H49.5977V17H48.6846ZM54.4102 11.0059C55.1084 11.0059 55.6366 11.1777 55.9946 11.5215C56.3527 11.8617 56.5317 12.4095 56.5317 13.165V17H55.6509V13.2241C55.6509 12.7336 55.5381 12.3665 55.3125 12.123C55.0905 11.8796 54.7485 11.7578 54.2866 11.7578C53.6349 11.7578 53.1766 11.9422 52.9116 12.311C52.6466 12.6799 52.5142 13.2152 52.5142 13.917V17H51.6226V11.1133H52.3423L52.4766 11.9619H52.5249C52.6502 11.7542 52.8096 11.5806 53.0029 11.4409C53.1963 11.2977 53.4129 11.1903 53.6528 11.1187C53.8927 11.0435 54.1452 11.0059 54.4102 11.0059ZM65.7915 14.9106C65.7915 15.3761 65.6751 15.7736 65.4424 16.103C65.2132 16.4289 64.891 16.6777 64.4756 16.8496C64.0602 17.0215 63.5715 17.1074 63.0093 17.1074C62.7121 17.1074 62.431 17.0931 62.166 17.0645C61.901 17.0358 61.6576 16.9946 61.4355 16.9409C61.2135 16.8872 61.0184 16.821 60.8501 16.7422V15.8667C61.1187 15.9777 61.4463 16.0815 61.833 16.1782C62.2197 16.2713 62.6243 16.3179 63.0469 16.3179C63.4408 16.3179 63.7738 16.266 64.0459 16.1621C64.318 16.0547 64.5239 15.9025 64.6636 15.7056C64.8068 15.505 64.8784 15.2651 64.8784 14.9858C64.8784 14.7173 64.8193 14.4935 64.7012 14.3145C64.583 14.1318 64.3861 13.9671 64.1104 13.8203C63.8382 13.6699 63.4658 13.5106 62.9932 13.3423C62.6602 13.2241 62.3665 13.0952 62.1123 12.9556C61.8581 12.8123 61.645 12.6512 61.4731 12.4722C61.3013 12.2931 61.1706 12.0854 61.0811 11.8491C60.9951 11.6128 60.9521 11.3424 60.9521 11.0381C60.9521 10.6191 61.0578 10.2611 61.269 9.96387C61.4839 9.66309 61.7793 9.43392 62.1553 9.27637C62.5348 9.11523 62.9699 9.03467 63.4604 9.03467C63.8794 9.03467 64.2661 9.07406 64.6206 9.15283C64.9787 9.23161 65.3063 9.33724 65.6035 9.46973L65.3188 10.2539C65.036 10.1357 64.7352 10.0373 64.4165 9.9585C64.1014 9.87972 63.7756 9.84033 63.439 9.84033C63.1024 9.84033 62.8177 9.89046 62.585 9.99072C62.3558 10.0874 62.1803 10.2253 62.0586 10.4043C61.9368 10.5833 61.876 10.7964 61.876 11.0435C61.876 11.3192 61.9333 11.5483 62.0479 11.731C62.166 11.9136 62.3522 12.0765 62.6064 12.2197C62.8643 12.3594 63.2044 12.5062 63.627 12.6602C64.0889 12.8285 64.481 13.0075 64.8032 13.1973C65.1255 13.3835 65.3708 13.6126 65.5391 13.8848C65.7074 14.1533 65.7915 14.4953 65.7915 14.9106ZM69.1646 16.377C69.3114 16.377 69.4618 16.3644 69.6157 16.3394C69.7697 16.3143 69.895 16.2839 69.9917 16.248V16.9409C69.8879 16.9875 69.7428 17.0269 69.5566 17.0591C69.374 17.0913 69.195 17.1074 69.0195 17.1074C68.708 17.1074 68.4251 17.0537 68.1709 16.9463C67.9167 16.8353 67.7126 16.6491 67.5586 16.3877C67.4082 16.1263 67.333 15.7646 67.333 15.3027V11.8115H66.4951V11.3765L67.3384 11.0273L67.6929 9.74902H68.23V11.1133H69.9541V11.8115H68.23V15.2759C68.23 15.6447 68.3141 15.9204 68.4824 16.103C68.6543 16.2856 68.8817 16.377 69.1646 16.377ZM76.2598 14.0459C76.2598 14.5293 76.1971 14.9608 76.0718 15.3403C75.9465 15.7199 75.7656 16.0404 75.5293 16.3018C75.293 16.5632 75.0065 16.7637 74.6699 16.9033C74.3369 17.0394 73.9591 17.1074 73.5366 17.1074C73.1427 17.1074 72.7811 17.0394 72.4517 16.9033C72.1258 16.7637 71.8429 16.5632 71.603 16.3018C71.3667 16.0404 71.1823 15.7199 71.0498 15.3403C70.9209 14.9608 70.8564 14.5293 70.8564 14.0459C70.8564 13.4014 70.9657 12.8535 71.1841 12.4023C71.4025 11.9476 71.714 11.6021 72.1187 11.3657C72.5269 11.1258 73.012 11.0059 73.5742 11.0059C74.1113 11.0059 74.5804 11.1258 74.9814 11.3657C75.3861 11.6056 75.6994 11.953 75.9214 12.4077C76.147 12.8589 76.2598 13.4049 76.2598 14.0459ZM71.7803 14.0459C71.7803 14.5186 71.8429 14.9285 71.9683 15.2759C72.0936 15.6232 72.2869 15.8918 72.5483 16.0815C72.8097 16.2713 73.1463 16.3662 73.5581 16.3662C73.9663 16.3662 74.3011 16.2713 74.5625 16.0815C74.8275 15.8918 75.0226 15.6232 75.1479 15.2759C75.2733 14.9285 75.3359 14.5186 75.3359 14.0459C75.3359 13.5768 75.2733 13.1722 75.1479 12.832C75.0226 12.4883 74.8293 12.2233 74.5679 12.0371C74.3065 11.8509 73.9681 11.7578 73.5527 11.7578C72.9404 11.7578 72.491 11.9601 72.2046 12.3647C71.9217 12.7694 71.7803 13.3298 71.7803 14.0459ZM80.1592 17.1074C79.6292 17.1074 79.1619 16.9982 78.7573 16.7798C78.3527 16.5614 78.0376 16.2284 77.812 15.7808C77.5864 15.3332 77.4736 14.7692 77.4736 14.0889C77.4736 13.3763 77.5918 12.7944 77.8281 12.3433C78.068 11.8885 78.3975 11.5519 78.8164 11.3335C79.2354 11.1151 79.7116 11.0059 80.2451 11.0059C80.5387 11.0059 80.8216 11.0363 81.0938 11.0972C81.3695 11.1545 81.5951 11.2279 81.7705 11.3174L81.502 12.064C81.3229 11.9924 81.1152 11.9279 80.8789 11.8706C80.6462 11.8133 80.4277 11.7847 80.2236 11.7847C79.8154 11.7847 79.4753 11.8724 79.2031 12.0479C78.9346 12.2233 78.7323 12.4811 78.5962 12.8213C78.4637 13.1615 78.3975 13.5804 78.3975 14.0781C78.3975 14.5544 78.4619 14.9608 78.5908 15.2974C78.7233 15.634 78.9185 15.8918 79.1763 16.0708C79.4377 16.2463 79.7635 16.334 80.1538 16.334C80.4653 16.334 80.7464 16.3018 80.9971 16.2373C81.2477 16.1693 81.4751 16.0905 81.6792 16.001V16.7959C81.4823 16.8962 81.262 16.9731 81.0186 17.0269C80.7786 17.0806 80.4922 17.1074 80.1592 17.1074ZM83.9619 8.64258V12.9824C83.9619 13.1257 83.9565 13.3011 83.9458 13.5088C83.9351 13.7129 83.9261 13.8937 83.9189 14.0513H83.9565C84.0317 13.9582 84.141 13.8203 84.2842 13.6377C84.431 13.4551 84.5545 13.3083 84.6548 13.1973L86.6099 11.1133H87.6572L85.2886 13.627L87.8291 17H86.7549L84.6763 14.2124L83.9619 14.8677V17H83.0757V8.64258H83.9619ZM88.7207 16.4414C88.7207 16.1908 88.7816 16.0135 88.9033 15.9097C89.0251 15.8022 89.1737 15.7485 89.3491 15.7485C89.5317 15.7485 89.6857 15.8022 89.811 15.9097C89.9364 16.0135 89.999 16.1908 89.999 16.4414C89.999 16.6885 89.9364 16.8693 89.811 16.9839C89.6857 17.0949 89.5317 17.1504 89.3491 17.1504C89.1737 17.1504 89.0251 17.0949 88.9033 16.9839C88.7816 16.8693 88.7207 16.6885 88.7207 16.4414ZM96.7397 13.0845L98.8291 9.14746H99.812L97.1963 13.9546V17H96.2832V13.9976L93.6621 9.14746H94.6611L96.7397 13.0845ZM105.833 14.0459C105.833 14.5293 105.77 14.9608 105.645 15.3403C105.52 15.7199 105.339 16.0404 105.103 16.3018C104.866 16.5632 104.58 16.7637 104.243 16.9033C103.91 17.0394 103.532 17.1074 103.11 17.1074C102.716 17.1074 102.354 17.0394 102.025 16.9033C101.699 16.7637 101.416 16.5632 101.176 16.3018C100.94 16.0404 100.756 15.7199 100.623 15.3403C100.494 14.9608 100.43 14.5293 100.43 14.0459C100.43 13.4014 100.539 12.8535 100.757 12.4023C100.976 11.9476 101.287 11.6021 101.692 11.3657C102.1 11.1258 102.585 11.0059 103.147 11.0059C103.685 11.0059 104.154 11.1258 104.555 11.3657C104.959 11.6056 105.273 11.953 105.495 12.4077C105.72 12.8589 105.833 13.4049 105.833 14.0459ZM101.354 14.0459C101.354 14.5186 101.416 14.9285 101.542 15.2759C101.667 15.6232 101.86 15.8918 102.122 16.0815C102.383 16.2713 102.72 16.3662 103.131 16.3662C103.54 16.3662 103.874 16.2713 104.136 16.0815C104.401 15.8918 104.596 15.6232 104.721 15.2759C104.847 14.9285 104.909 14.5186 104.909 14.0459C104.909 13.5768 104.847 13.1722 104.721 12.832C104.596 12.4883 104.403 12.2233 104.141 12.0371C103.88 11.8509 103.541 11.7578 103.126 11.7578C102.514 11.7578 102.064 11.9601 101.778 12.3647C101.495 12.7694 101.354 13.3298 101.354 14.0459ZM112.235 11.1133V17H111.505L111.376 16.1729H111.328C111.206 16.377 111.048 16.5488 110.855 16.6885C110.662 16.8281 110.443 16.932 110.2 17C109.96 17.0716 109.704 17.1074 109.432 17.1074C108.966 17.1074 108.576 17.0322 108.261 16.8818C107.946 16.7314 107.708 16.4987 107.546 16.1836C107.389 15.8685 107.31 15.4639 107.31 14.9697V11.1133H108.212V14.9053C108.212 15.3958 108.323 15.7629 108.545 16.0063C108.767 16.2463 109.106 16.3662 109.561 16.3662C109.997 16.3662 110.345 16.2839 110.603 16.1191C110.864 15.9544 111.052 15.7127 111.167 15.394C111.281 15.0718 111.338 14.6779 111.338 14.2124V11.1133H112.235ZM119.234 9.14746C119.878 9.14746 120.41 9.22803 120.829 9.38916C121.252 9.54671 121.567 9.78841 121.774 10.1143C121.982 10.4401 122.086 10.8555 122.086 11.3604C122.086 11.7757 122.011 12.123 121.86 12.4023C121.71 12.6781 121.513 12.9019 121.27 13.0737C121.026 13.2456 120.766 13.3781 120.491 13.4712L122.645 17H121.581L119.658 13.7236H118.025V17H117.112V9.14746H119.234ZM119.18 9.93701H118.025V12.9502H119.271C119.912 12.9502 120.383 12.8195 120.684 12.5581C120.988 12.2967 121.141 11.9118 121.141 11.4033C121.141 10.8698 120.979 10.492 120.657 10.27C120.339 10.048 119.846 9.93701 119.18 9.93701ZM126.034 11.0059C126.535 11.0059 126.965 11.1169 127.323 11.3389C127.681 11.5609 127.955 11.8724 128.145 12.2734C128.334 12.6709 128.429 13.1364 128.429 13.6699V14.2231H124.363C124.374 14.9142 124.546 15.4406 124.879 15.8022C125.212 16.1639 125.681 16.3447 126.286 16.3447C126.659 16.3447 126.988 16.3107 127.274 16.2427C127.561 16.1746 127.858 16.0744 128.166 15.9419V16.7261C127.869 16.8586 127.573 16.9552 127.28 17.0161C126.99 17.077 126.646 17.1074 126.249 17.1074C125.683 17.1074 125.189 16.9928 124.766 16.7637C124.347 16.5309 124.021 16.1908 123.789 15.7432C123.556 15.2956 123.439 14.7477 123.439 14.0996C123.439 13.4658 123.545 12.918 123.756 12.4561C123.971 11.9906 124.272 11.6325 124.659 11.3818C125.049 11.1312 125.507 11.0059 126.034 11.0059ZM126.023 11.7363C125.547 11.7363 125.167 11.8921 124.884 12.2036C124.601 12.5151 124.433 12.9502 124.379 13.5088H127.495C127.491 13.1579 127.436 12.8499 127.328 12.585C127.224 12.3164 127.065 12.1087 126.85 11.9619C126.635 11.8115 126.36 11.7363 126.023 11.7363ZM133.892 19.6318V17.1074C133.892 16.9678 133.895 16.8066 133.902 16.624C133.91 16.4414 133.922 16.2839 133.94 16.1514H133.881C133.716 16.4235 133.482 16.6509 133.177 16.8335C132.873 17.0161 132.481 17.1074 132.001 17.1074C131.281 17.1074 130.703 16.8532 130.266 16.3447C129.829 15.8363 129.611 15.0771 129.611 14.0674C129.611 13.4049 129.711 12.8464 129.912 12.3916C130.112 11.9368 130.395 11.5931 130.76 11.3604C131.129 11.124 131.559 11.0059 132.049 11.0059C132.518 11.0059 132.902 11.099 133.199 11.2852C133.496 11.4678 133.729 11.6916 133.897 11.9565H133.94L134.074 11.1133H134.783V19.6318H133.892ZM132.167 16.3662C132.583 16.3662 132.916 16.2892 133.167 16.1353C133.417 15.9777 133.6 15.7414 133.714 15.4263C133.833 15.1112 133.895 14.7191 133.902 14.25V14.062C133.902 13.3029 133.773 12.7282 133.516 12.3379C133.258 11.944 132.808 11.7471 132.167 11.7471C131.616 11.7471 131.206 11.9583 130.938 12.3809C130.669 12.7998 130.535 13.3691 130.535 14.0889C130.535 14.8086 130.669 15.369 130.938 15.77C131.206 16.1675 131.616 16.3662 132.167 16.3662ZM141.54 11.1133V17H140.81L140.681 16.1729H140.632C140.511 16.377 140.353 16.5488 140.16 16.6885C139.966 16.8281 139.748 16.932 139.504 17C139.264 17.0716 139.008 17.1074 138.736 17.1074C138.271 17.1074 137.881 17.0322 137.565 16.8818C137.25 16.7314 137.012 16.4987 136.851 16.1836C136.694 15.8685 136.615 15.4639 136.615 14.9697V11.1133H137.517V14.9053C137.517 15.3958 137.628 15.7629 137.85 16.0063C138.072 16.2463 138.41 16.3662 138.865 16.3662C139.302 16.3662 139.649 16.2839 139.907 16.1191C140.169 15.9544 140.357 15.7127 140.471 15.394C140.586 15.0718 140.643 14.6779 140.643 14.2124V11.1133H141.54ZM145.692 11.0059C146.193 11.0059 146.623 11.1169 146.981 11.3389C147.339 11.5609 147.613 11.8724 147.803 12.2734C147.993 12.6709 148.087 13.1364 148.087 13.6699V14.2231H144.021C144.032 14.9142 144.204 15.4406 144.537 15.8022C144.87 16.1639 145.339 16.3447 145.944 16.3447C146.317 16.3447 146.646 16.3107 146.933 16.2427C147.219 16.1746 147.516 16.0744 147.824 15.9419V16.7261C147.527 16.8586 147.232 16.9552 146.938 17.0161C146.648 17.077 146.304 17.1074 145.907 17.1074C145.341 17.1074 144.847 16.9928 144.424 16.7637C144.005 16.5309 143.68 16.1908 143.447 15.7432C143.214 15.2956 143.098 14.7477 143.098 14.0996C143.098 13.4658 143.203 12.918 143.415 12.4561C143.629 11.9906 143.93 11.6325 144.317 11.3818C144.707 11.1312 145.166 11.0059 145.692 11.0059ZM145.681 11.7363C145.205 11.7363 144.825 11.8921 144.542 12.2036C144.26 12.5151 144.091 12.9502 144.038 13.5088H147.153C147.149 13.1579 147.094 12.8499 146.986 12.585C146.882 12.3164 146.723 12.1087 146.508 11.9619C146.293 11.8115 146.018 11.7363 145.681 11.7363ZM153.41 15.3887C153.41 15.7646 153.315 16.0815 153.125 16.3394C152.939 16.5936 152.671 16.7852 152.32 16.9141C151.972 17.043 151.557 17.1074 151.074 17.1074C150.662 17.1074 150.306 17.0752 150.005 17.0107C149.704 16.9463 149.441 16.855 149.215 16.7368V15.915C149.455 16.0332 149.742 16.1406 150.075 16.2373C150.408 16.334 150.748 16.3823 151.095 16.3823C151.604 16.3823 151.972 16.3 152.202 16.1353C152.431 15.9705 152.545 15.7467 152.545 15.4639C152.545 15.3027 152.499 15.1613 152.406 15.0396C152.316 14.9142 152.164 14.7943 151.949 14.6797C151.734 14.5615 151.437 14.4326 151.058 14.293C150.682 14.1497 150.356 14.0083 150.08 13.8687C149.808 13.7254 149.597 13.5518 149.446 13.3477C149.299 13.1436 149.226 12.8786 149.226 12.5527C149.226 12.055 149.427 11.6737 149.828 11.4087C150.232 11.1401 150.762 11.0059 151.417 11.0059C151.772 11.0059 152.103 11.0417 152.411 11.1133C152.723 11.1813 153.013 11.2744 153.281 11.3926L152.98 12.1069C152.737 12.0031 152.477 11.9154 152.202 11.8438C151.926 11.7721 151.645 11.7363 151.358 11.7363C150.947 11.7363 150.63 11.8044 150.408 11.9404C150.189 12.0765 150.08 12.2627 150.08 12.499C150.08 12.6816 150.13 12.832 150.23 12.9502C150.334 13.0684 150.499 13.1794 150.725 13.2832C150.95 13.387 151.247 13.5088 151.616 13.6484C151.985 13.7845 152.304 13.9259 152.572 14.0728C152.841 14.216 153.047 14.3914 153.19 14.5991C153.337 14.8032 153.41 15.0664 153.41 15.3887ZM156.746 16.377C156.892 16.377 157.043 16.3644 157.197 16.3394C157.351 16.3143 157.476 16.2839 157.573 16.248V16.9409C157.469 16.9875 157.324 17.0269 157.138 17.0591C156.955 17.0913 156.776 17.1074 156.601 17.1074C156.289 17.1074 156.006 17.0537 155.752 16.9463C155.498 16.8353 155.294 16.6491 155.14 16.3877C154.989 16.1263 154.914 15.7646 154.914 15.3027V11.8115H154.076V11.3765L154.919 11.0273L155.274 9.74902H155.811V11.1133H157.535V11.8115H155.811V15.2759C155.811 15.6447 155.895 15.9204 156.063 16.103C156.235 16.2856 156.463 16.377 156.746 16.377ZM161.032 11.0059C161.533 11.0059 161.963 11.1169 162.321 11.3389C162.679 11.5609 162.953 11.8724 163.143 12.2734C163.332 12.6709 163.427 13.1364 163.427 13.6699V14.2231H159.361C159.372 14.9142 159.544 15.4406 159.877 15.8022C160.21 16.1639 160.679 16.3447 161.284 16.3447C161.657 16.3447 161.986 16.3107 162.272 16.2427C162.559 16.1746 162.856 16.0744 163.164 15.9419V16.7261C162.867 16.8586 162.571 16.9552 162.278 17.0161C161.988 17.077 161.644 17.1074 161.247 17.1074C160.681 17.1074 160.187 16.9928 159.764 16.7637C159.345 16.5309 159.019 16.1908 158.787 15.7432C158.554 15.2956 158.438 14.7477 158.438 14.0996C158.438 13.4658 158.543 12.918 158.754 12.4561C158.969 11.9906 159.27 11.6325 159.657 11.3818C160.047 11.1312 160.505 11.0059 161.032 11.0059ZM161.021 11.7363C160.545 11.7363 160.165 11.8921 159.882 12.2036C159.599 12.5151 159.431 12.9502 159.377 13.5088H162.493C162.489 13.1579 162.434 12.8499 162.326 12.585C162.222 12.3164 162.063 12.1087 161.848 11.9619C161.633 11.8115 161.358 11.7363 161.021 11.7363ZM167.037 17.1074C166.292 17.1074 165.701 16.8532 165.264 16.3447C164.831 15.8363 164.614 15.0807 164.614 14.0781C164.614 13.0648 164.836 12.3003 165.28 11.7847C165.724 11.2655 166.315 11.0059 167.053 11.0059C167.364 11.0059 167.636 11.047 167.869 11.1294C168.102 11.2118 168.302 11.3228 168.471 11.4624C168.639 11.5985 168.78 11.7542 168.895 11.9297H168.959C168.945 11.8187 168.931 11.6665 168.917 11.4731C168.902 11.2798 168.895 11.1222 168.895 11.0005V8.64258H169.787V17H169.067L168.933 16.1621H168.895C168.784 16.3376 168.643 16.4969 168.471 16.6401C168.302 16.7834 168.1 16.8979 167.864 16.9839C167.631 17.0662 167.355 17.1074 167.037 17.1074ZM167.176 16.3662C167.806 16.3662 168.252 16.1872 168.514 15.8291C168.775 15.471 168.906 14.9393 168.906 14.2339V14.0728C168.906 13.3244 168.78 12.7497 168.53 12.3486C168.283 11.9476 167.832 11.7471 167.176 11.7471C166.628 11.7471 166.218 11.9583 165.946 12.3809C165.674 12.7998 165.538 13.3727 165.538 14.0996C165.538 14.8229 165.672 15.3815 165.941 15.7754C166.213 16.1693 166.625 16.3662 167.176 16.3662ZM179.283 17H174.137V16.2534L176.237 14.1211C176.628 13.7272 176.955 13.3763 177.22 13.0684C177.489 12.7604 177.693 12.4578 177.833 12.1606C177.972 11.8599 178.042 11.5304 178.042 11.1724C178.042 10.7284 177.91 10.39 177.645 10.1572C177.383 9.9209 177.038 9.80273 176.608 9.80273C176.232 9.80273 175.899 9.86719 175.609 9.99609C175.319 10.125 175.022 10.3076 174.717 10.5439L174.239 9.94238C174.447 9.76693 174.673 9.61117 174.916 9.4751C175.163 9.33903 175.426 9.23161 175.706 9.15283C175.988 9.07406 176.289 9.03467 176.608 9.03467C177.091 9.03467 177.508 9.11882 177.859 9.28711C178.21 9.4554 178.481 9.69531 178.67 10.0068C178.864 10.3184 178.96 10.689 178.96 11.1187C178.96 11.534 178.878 11.9207 178.713 12.2788C178.549 12.6333 178.318 12.986 178.021 13.3369C177.723 13.6842 177.376 14.0531 176.979 14.4434L175.271 16.146V16.1836H179.283V17ZM180.695 16.4414C180.695 16.1908 180.756 16.0135 180.878 15.9097C181 15.8022 181.148 15.7485 181.324 15.7485C181.506 15.7485 181.66 15.8022 181.786 15.9097C181.911 16.0135 181.974 16.1908 181.974 16.4414C181.974 16.6885 181.911 16.8693 181.786 16.9839C181.66 17.0949 181.506 17.1504 181.324 17.1504C181.148 17.1504 181 17.0949 180.878 16.9839C180.756 16.8693 180.695 16.6885 180.695 16.4414Z" fill="#F5F5F5"/>
<rect width="99" height="25" transform="translate(0 33)" fill="#FFF1C0"/>
<path d="M19.8848 46.063C19.8848 46.6681 19.8078 47.2196 19.6538 47.7173C19.4998 48.2114 19.2707 48.6375 18.9663 48.9956C18.6655 49.3501 18.2913 49.624 17.8438 49.8174C17.3962 50.0107 16.877 50.1074 16.2861 50.1074C15.6774 50.1074 15.1457 50.0107 14.6909 49.8174C14.2397 49.624 13.8638 49.3483 13.563 48.9902C13.2658 48.6322 13.042 48.2043 12.8916 47.7065C12.7448 47.2088 12.6714 46.6574 12.6714 46.0522C12.6714 45.2502 12.8039 44.5465 13.0688 43.9414C13.3338 43.3363 13.7349 42.8654 14.272 42.5288C14.8127 42.1922 15.4894 42.0239 16.3022 42.0239C17.0793 42.0239 17.7327 42.1904 18.2627 42.5234C18.7962 42.8564 19.1991 43.3255 19.4712 43.9307C19.7469 44.5322 19.8848 45.243 19.8848 46.063ZM13.6328 46.063C13.6328 46.729 13.7277 47.3055 13.9175 47.7925C14.1073 48.2795 14.3973 48.6554 14.7876 48.9204C15.1815 49.1854 15.681 49.3179 16.2861 49.3179C16.8949 49.3179 17.3926 49.1854 17.7793 48.9204C18.1696 48.6554 18.4578 48.2795 18.644 47.7925C18.8302 47.3055 18.9233 46.729 18.9233 46.063C18.9233 45.0496 18.7103 44.2583 18.2842 43.689C17.8617 43.116 17.201 42.8296 16.3022 42.8296C15.6935 42.8296 15.1922 42.9603 14.7983 43.2217C14.4045 43.4831 14.1108 43.8555 13.9175 44.3389C13.7277 44.8187 13.6328 45.3934 13.6328 46.063ZM24.2891 44.0059C24.9873 44.0059 25.5155 44.1777 25.8735 44.5215C26.2316 44.8617 26.4106 45.4095 26.4106 46.165V50H25.5298V46.2241C25.5298 45.7336 25.417 45.3665 25.1914 45.123C24.9694 44.8796 24.6274 44.7578 24.1655 44.7578C23.5138 44.7578 23.0555 44.9422 22.7905 45.311C22.5256 45.6799 22.3931 46.2152 22.3931 46.917V50H21.5015V44.1133H22.2212L22.3555 44.9619H22.4038C22.5291 44.7542 22.6885 44.5806 22.8818 44.4409C23.0752 44.2977 23.2918 44.1903 23.5317 44.1187C23.7716 44.0435 24.0241 44.0059 24.2891 44.0059ZM29.1445 50H28.2476V41.6426H29.1445V50ZM30.1006 44.1133H31.0566L32.3564 47.5293C32.4316 47.7298 32.5015 47.9232 32.5659 48.1094C32.6304 48.292 32.6877 48.4674 32.7378 48.6357C32.7879 48.804 32.8273 48.967 32.856 49.1245H32.8936C32.9437 48.9455 33.0153 48.7109 33.1084 48.4209C33.2015 48.1273 33.3018 47.8283 33.4092 47.5239L34.6392 44.1133H35.6006L33.0386 50.8647C32.9025 51.2264 32.7432 51.5415 32.5605 51.8101C32.3815 52.0786 32.1631 52.2845 31.9053 52.4277C31.6475 52.5745 31.3359 52.6479 30.9707 52.6479C30.8024 52.6479 30.6538 52.6372 30.5249 52.6157C30.396 52.5978 30.285 52.5763 30.1919 52.5513V51.8369C30.2707 51.8548 30.3656 51.8709 30.4766 51.8853C30.5911 51.8996 30.7093 51.9067 30.8311 51.9067C31.0531 51.9067 31.2446 51.8638 31.4058 51.7778C31.5705 51.6955 31.7119 51.5737 31.8301 51.4126C31.9482 51.2515 32.0503 51.0599 32.1362 50.8379L32.4585 50.0107L30.1006 44.1133ZM42.3198 50H41.4497V44.4355C41.4497 44.2243 41.4497 44.0435 41.4497 43.8931C41.4533 43.7391 41.4569 43.5994 41.4604 43.4741C41.4676 43.3452 41.4766 43.2145 41.4873 43.082C41.3763 43.1966 41.2725 43.2951 41.1758 43.3774C41.0791 43.4562 40.9591 43.5547 40.8159 43.6729L39.9189 44.3926L39.4517 43.7856L41.5786 42.1475H42.3198V50ZM50.8062 42.1475C51.4507 42.1475 51.9824 42.228 52.4014 42.3892C52.8239 42.5467 53.139 42.7884 53.3467 43.1143C53.5544 43.4401 53.6582 43.8555 53.6582 44.3604C53.6582 44.7757 53.583 45.123 53.4326 45.4023C53.2822 45.6781 53.0853 45.9019 52.8418 46.0737C52.5983 46.2456 52.3387 46.3781 52.063 46.4712L54.2168 50H53.1533L51.2305 46.7236H49.5977V50H48.6846V42.1475H50.8062ZM50.7524 42.937H49.5977V45.9502H50.8438C51.4847 45.9502 51.9556 45.8195 52.2563 45.5581C52.5607 45.2967 52.7129 44.9118 52.7129 44.4033C52.7129 43.8698 52.5518 43.492 52.2295 43.27C51.9108 43.048 51.4185 42.937 50.7524 42.937ZM57.606 44.0059C58.1073 44.0059 58.5369 44.1169 58.895 44.3389C59.2531 44.5609 59.527 44.8724 59.7168 45.2734C59.9066 45.6709 60.0015 46.1364 60.0015 46.6699V47.2231H55.9355C55.9463 47.9142 56.1182 48.4406 56.4512 48.8022C56.7842 49.1639 57.2533 49.3447 57.8584 49.3447C58.2308 49.3447 58.5602 49.3107 58.8467 49.2427C59.1331 49.1746 59.4303 49.0744 59.7383 48.9419V49.7261C59.4411 49.8586 59.1457 49.9552 58.8521 50.0161C58.562 50.077 58.2183 50.1074 57.8208 50.1074C57.255 50.1074 56.7609 49.9928 56.3384 49.7637C55.9194 49.5309 55.5936 49.1908 55.3608 48.7432C55.1281 48.2956 55.0117 47.7477 55.0117 47.0996C55.0117 46.4658 55.1174 45.918 55.3286 45.4561C55.5435 44.9906 55.8442 44.6325 56.231 44.3818C56.6213 44.1312 57.0796 44.0059 57.606 44.0059ZM57.5952 44.7363C57.119 44.7363 56.7394 44.8921 56.4565 45.2036C56.1737 45.5151 56.0054 45.9502 55.9517 46.5088H59.0669C59.0633 46.1579 59.0078 45.8499 58.9004 45.585C58.7965 45.3164 58.6372 45.1087 58.4224 44.9619C58.2075 44.8115 57.9318 44.7363 57.5952 44.7363ZM67.9077 44.0059C68.5558 44.0059 69.0446 44.1759 69.374 44.5161C69.7035 44.8527 69.8682 45.3952 69.8682 46.1436V50H68.9873V46.1865C68.9873 45.7103 68.8835 45.354 68.6758 45.1177C68.4717 44.8778 68.1673 44.7578 67.7627 44.7578C67.1934 44.7578 66.7798 44.9225 66.522 45.252C66.2642 45.5814 66.1353 46.0666 66.1353 46.7075V50H65.249V46.1865C65.249 45.8678 65.2025 45.6029 65.1094 45.3916C65.0199 45.1803 64.8838 45.0228 64.7012 44.9189C64.5221 44.8115 64.2948 44.7578 64.019 44.7578C63.6287 44.7578 63.3154 44.8384 63.0791 44.9995C62.8428 45.1606 62.6709 45.4006 62.5635 45.7192C62.4596 46.0343 62.4077 46.4229 62.4077 46.8848V50H61.5161V44.1133H62.2358L62.3701 44.9458H62.4185C62.5366 44.7417 62.6852 44.5698 62.8643 44.4302C63.0433 44.2905 63.2438 44.1849 63.4658 44.1133C63.6878 44.0417 63.9242 44.0059 64.1748 44.0059C64.6224 44.0059 64.9966 44.09 65.2974 44.2583C65.6017 44.423 65.8219 44.6755 65.958 45.0156H66.0063C66.1997 44.6755 66.4647 44.423 66.8013 44.2583C67.1379 44.09 67.5067 44.0059 67.9077 44.0059ZM73.9019 44.0166C74.6037 44.0166 75.1247 44.1742 75.4648 44.4893C75.805 44.8044 75.9751 45.3075 75.9751 45.9985V50H75.3252L75.1533 49.1299H75.1104C74.9456 49.3447 74.7738 49.5256 74.5947 49.6724C74.4157 49.8156 74.208 49.9248 73.9717 50C73.7389 50.0716 73.4525 50.1074 73.1123 50.1074C72.7542 50.1074 72.4355 50.0448 72.1562 49.9194C71.8805 49.7941 71.6621 49.6043 71.501 49.3501C71.3434 49.0959 71.2646 48.7736 71.2646 48.3833C71.2646 47.7961 71.4974 47.3449 71.9629 47.0298C72.4284 46.7147 73.1374 46.5428 74.0898 46.5142L75.105 46.4712V46.1113C75.105 45.6029 74.9958 45.2466 74.7773 45.0425C74.5589 44.8384 74.251 44.7363 73.8535 44.7363C73.5456 44.7363 73.252 44.7811 72.9727 44.8706C72.6934 44.9601 72.4284 45.0658 72.1777 45.1875L71.9038 44.5107C72.1688 44.3747 72.4731 44.2583 72.8169 44.1616C73.1606 44.0649 73.5223 44.0166 73.9019 44.0166ZM75.0942 47.0996L74.1973 47.1372C73.4632 47.1659 72.9458 47.2858 72.645 47.4971C72.3442 47.7083 72.1938 48.0073 72.1938 48.394C72.1938 48.7306 72.2959 48.9795 72.5 49.1406C72.7041 49.3018 72.9744 49.3823 73.311 49.3823C73.8338 49.3823 74.2617 49.2373 74.5947 48.9473C74.9277 48.6572 75.0942 48.2222 75.0942 47.6421V47.0996ZM78.7036 44.1133V50H77.812V44.1133H78.7036ZM78.2686 41.9111C78.4154 41.9111 78.5407 41.9595 78.6445 42.0562C78.752 42.1493 78.8057 42.2961 78.8057 42.4966C78.8057 42.6935 78.752 42.8403 78.6445 42.937C78.5407 43.0337 78.4154 43.082 78.2686 43.082C78.1146 43.082 77.9857 43.0337 77.8818 42.937C77.7816 42.8403 77.7314 42.6935 77.7314 42.4966C77.7314 42.2961 77.7816 42.1493 77.8818 42.0562C77.9857 41.9595 78.1146 41.9111 78.2686 41.9111ZM83.3818 44.0059C84.0801 44.0059 84.6082 44.1777 84.9663 44.5215C85.3244 44.8617 85.5034 45.4095 85.5034 46.165V50H84.6226V46.2241C84.6226 45.7336 84.5098 45.3665 84.2842 45.123C84.0622 44.8796 83.7202 44.7578 83.2583 44.7578C82.6066 44.7578 82.1483 44.9422 81.8833 45.311C81.6183 45.6799 81.4858 46.2152 81.4858 46.917V50H80.5942V44.1133H81.314L81.4482 44.9619H81.4966C81.6219 44.7542 81.7812 44.5806 81.9746 44.4409C82.168 44.2977 82.3846 44.1903 82.6245 44.1187C82.8644 44.0435 83.1169 44.0059 83.3818 44.0059Z" fill="#AB7221"/>
<rect width="238" height="25" transform="translate(0 66)" fill="#D3E8E0"/>
<path d="M15.0776 79.0845L17.167 75.1475H18.1499L15.5342 79.9546V83H14.6211V79.9976L12 75.1475H12.999L15.0776 79.0845ZM24.1709 80.0459C24.1709 80.5293 24.1082 80.9608 23.9829 81.3403C23.8576 81.7199 23.6768 82.0404 23.4404 82.3018C23.2041 82.5632 22.9176 82.7637 22.5811 82.9033C22.248 83.0394 21.8703 83.1074 21.4478 83.1074C21.0539 83.1074 20.6922 83.0394 20.3628 82.9033C20.0369 82.7637 19.7541 82.5632 19.5142 82.3018C19.2778 82.0404 19.0934 81.7199 18.9609 81.3403C18.832 80.9608 18.7676 80.5293 18.7676 80.0459C18.7676 79.4014 18.8768 78.8535 19.0952 78.4023C19.3136 77.9476 19.6252 77.6021 20.0298 77.3657C20.438 77.1258 20.9232 77.0059 21.4854 77.0059C22.0225 77.0059 22.4915 77.1258 22.8926 77.3657C23.2972 77.6056 23.6105 77.953 23.8325 78.4077C24.0581 78.8589 24.1709 79.4049 24.1709 80.0459ZM19.6914 80.0459C19.6914 80.5186 19.7541 80.9285 19.8794 81.2759C20.0047 81.6232 20.1981 81.8918 20.4595 82.0815C20.7209 82.2713 21.0575 82.3662 21.4692 82.3662C21.8774 82.3662 22.2122 82.2713 22.4736 82.0815C22.7386 81.8918 22.9338 81.6232 23.0591 81.2759C23.1844 80.9285 23.2471 80.5186 23.2471 80.0459C23.2471 79.5768 23.1844 79.1722 23.0591 78.832C22.9338 78.4883 22.7404 78.2233 22.479 78.0371C22.2176 77.8509 21.8792 77.7578 21.4639 77.7578C20.8516 77.7578 20.4022 77.9601 20.1157 78.3647C19.8328 78.7694 19.6914 79.3298 19.6914 80.0459ZM30.5732 77.1133V83H29.8428L29.7139 82.1729H29.6655C29.5438 82.377 29.3862 82.5488 29.1929 82.6885C28.9995 82.8281 28.7811 82.932 28.5376 83C28.2977 83.0716 28.0417 83.1074 27.7695 83.1074C27.304 83.1074 26.9137 83.0322 26.5986 82.8818C26.2835 82.7314 26.0454 82.4987 25.8843 82.1836C25.7267 81.8685 25.6479 81.4639 25.6479 80.9697V77.1133H26.5503V80.9053C26.5503 81.3958 26.6613 81.7629 26.8833 82.0063C27.1053 82.2463 27.4437 82.3662 27.8984 82.3662C28.3353 82.3662 28.6826 82.2839 28.9404 82.1191C29.2018 81.9544 29.3898 81.7127 29.5044 81.394C29.619 81.0718 29.6763 80.6779 29.6763 80.2124V77.1133H30.5732ZM39.8813 80.9106C39.8813 81.3761 39.765 81.7736 39.5322 82.103C39.3031 82.4289 38.9808 82.6777 38.5654 82.8496C38.1501 83.0215 37.6613 83.1074 37.0991 83.1074C36.8019 83.1074 36.5208 83.0931 36.2559 83.0645C35.9909 83.0358 35.7474 82.9946 35.5254 82.9409C35.3034 82.8872 35.1082 82.821 34.9399 82.7422V81.8667C35.2085 81.9777 35.5361 82.0815 35.9229 82.1782C36.3096 82.2713 36.7142 82.3179 37.1367 82.3179C37.5306 82.3179 37.8636 82.266 38.1357 82.1621C38.4079 82.0547 38.6138 81.9025 38.7534 81.7056C38.8966 81.505 38.9683 81.2651 38.9683 80.9858C38.9683 80.7173 38.9092 80.4935 38.791 80.3145C38.6729 80.1318 38.4759 79.9671 38.2002 79.8203C37.9281 79.6699 37.5557 79.5106 37.083 79.3423C36.75 79.2241 36.4564 79.0952 36.2021 78.9556C35.9479 78.8123 35.7349 78.6512 35.563 78.4722C35.3911 78.2931 35.2604 78.0854 35.1709 77.8491C35.085 77.6128 35.042 77.3424 35.042 77.0381C35.042 76.6191 35.1476 76.2611 35.3589 75.9639C35.5737 75.6631 35.8691 75.4339 36.2451 75.2764C36.6247 75.1152 37.0597 75.0347 37.5503 75.0347C37.9692 75.0347 38.356 75.0741 38.7104 75.1528C39.0685 75.2316 39.3962 75.3372 39.6934 75.4697L39.4087 76.2539C39.1258 76.1357 38.825 76.0373 38.5063 75.9585C38.1912 75.8797 37.8654 75.8403 37.5288 75.8403C37.1922 75.8403 36.9076 75.8905 36.6748 75.9907C36.4456 76.0874 36.2702 76.2253 36.1484 76.4043C36.0267 76.5833 35.9658 76.7964 35.9658 77.0435C35.9658 77.3192 36.0231 77.5483 36.1377 77.731C36.2559 77.9136 36.4421 78.0765 36.6963 78.2197C36.9541 78.3594 37.2943 78.5062 37.7168 78.6602C38.1787 78.8285 38.5708 79.0075 38.8931 79.1973C39.2153 79.3835 39.4606 79.6126 39.6289 79.8848C39.7972 80.1533 39.8813 80.4953 39.8813 80.9106ZM43.5552 77.0166C44.257 77.0166 44.778 77.1742 45.1182 77.4893C45.4583 77.8044 45.6284 78.3075 45.6284 78.9985V83H44.9785L44.8066 82.1299H44.7637C44.599 82.3447 44.4271 82.5256 44.248 82.6724C44.069 82.8156 43.8613 82.9248 43.625 83C43.3923 83.0716 43.1058 83.1074 42.7656 83.1074C42.4076 83.1074 42.0889 83.0448 41.8096 82.9194C41.5339 82.7941 41.3154 82.6043 41.1543 82.3501C40.9967 82.0959 40.918 81.7736 40.918 81.3833C40.918 80.7961 41.1507 80.3449 41.6162 80.0298C42.0817 79.7147 42.7907 79.5428 43.7432 79.5142L44.7583 79.4712V79.1113C44.7583 78.6029 44.6491 78.2466 44.4307 78.0425C44.2122 77.8384 43.9043 77.7363 43.5068 77.7363C43.1989 77.7363 42.9053 77.7811 42.626 77.8706C42.3467 77.9601 42.0817 78.0658 41.8311 78.1875L41.5571 77.5107C41.8221 77.3747 42.1265 77.2583 42.4702 77.1616C42.814 77.0649 43.1756 77.0166 43.5552 77.0166ZM44.7476 80.0996L43.8506 80.1372C43.1165 80.1659 42.5991 80.2858 42.2983 80.4971C41.9976 80.7083 41.8472 81.0073 41.8472 81.394C41.8472 81.7306 41.9492 81.9795 42.1533 82.1406C42.3574 82.3018 42.6278 82.3823 42.9644 82.3823C43.4871 82.3823 43.915 82.2373 44.248 81.9473C44.5811 81.6572 44.7476 81.2222 44.7476 80.6421V80.0996ZM48.7598 83L46.5254 77.1133H47.4814L48.7759 80.6743C48.8654 80.9178 48.9567 81.1864 49.0498 81.48C49.1429 81.7736 49.2074 82.0099 49.2432 82.189H49.2808C49.3237 82.0099 49.3953 81.7736 49.4956 81.48C49.5959 81.1828 49.6872 80.9142 49.7695 80.6743L51.064 77.1133H52.02L49.7803 83H48.7598ZM55.2319 77.0059C55.7332 77.0059 56.1629 77.1169 56.521 77.3389C56.8791 77.5609 57.153 77.8724 57.3428 78.2734C57.5326 78.6709 57.6274 79.1364 57.6274 79.6699V80.2231H53.5615C53.5723 80.9142 53.7441 81.4406 54.0771 81.8022C54.4102 82.1639 54.8792 82.3447 55.4844 82.3447C55.8568 82.3447 56.1862 82.3107 56.4727 82.2427C56.7591 82.1746 57.0563 82.0744 57.3643 81.9419V82.7261C57.0671 82.8586 56.7716 82.9552 56.478 83.0161C56.188 83.077 55.8442 83.1074 55.4468 83.1074C54.881 83.1074 54.3869 82.9928 53.9644 82.7637C53.5454 82.5309 53.2196 82.1908 52.9868 81.7432C52.7541 81.2956 52.6377 80.7477 52.6377 80.0996C52.6377 79.4658 52.7433 78.918 52.9546 78.4561C53.1694 77.9906 53.4702 77.6325 53.8569 77.3818C54.2472 77.1312 54.7056 77.0059 55.2319 77.0059ZM55.2212 77.7363C54.745 77.7363 54.3654 77.8921 54.0825 78.2036C53.7996 78.5151 53.6313 78.9502 53.5776 79.5088H56.6929C56.6893 79.1579 56.6338 78.8499 56.5264 78.585C56.4225 78.3164 56.2632 78.1087 56.0483 77.9619C55.8335 77.8115 55.5578 77.7363 55.2212 77.7363ZM61.2368 83.1074C60.492 83.1074 59.9012 82.8532 59.4644 82.3447C59.0311 81.8363 58.8145 81.0807 58.8145 80.0781C58.8145 79.0648 59.0365 78.3003 59.4805 77.7847C59.9245 77.2655 60.5153 77.0059 61.2529 77.0059C61.5645 77.0059 61.8366 77.047 62.0693 77.1294C62.3021 77.2118 62.5026 77.3228 62.6709 77.4624C62.8392 77.5985 62.9806 77.7542 63.0952 77.9297H63.1597C63.1453 77.8187 63.131 77.6665 63.1167 77.4731C63.1024 77.2798 63.0952 77.1222 63.0952 77.0005V74.6426H63.9868V83H63.2671L63.1328 82.1621H63.0952C62.9842 82.3376 62.8428 82.4969 62.6709 82.6401C62.5026 82.7834 62.3003 82.8979 62.064 82.9839C61.8312 83.0662 61.5555 83.1074 61.2368 83.1074ZM61.3765 82.3662C62.0067 82.3662 62.4525 82.1872 62.7139 81.8291C62.9753 81.471 63.106 80.9393 63.106 80.2339V80.0728C63.106 79.3244 62.9806 78.7497 62.73 78.3486C62.4829 77.9476 62.0317 77.7471 61.3765 77.7471C60.8286 77.7471 60.4186 77.9583 60.1465 78.3809C59.8743 78.7998 59.7383 79.3727 59.7383 80.0996C59.7383 80.8229 59.8726 81.3815 60.1411 81.7754C60.4132 82.1693 60.825 82.3662 61.3765 82.3662ZM75.6797 79.063C75.6797 79.6681 75.6027 80.2196 75.4487 80.7173C75.2948 81.2114 75.0656 81.6375 74.7612 81.9956C74.4604 82.3501 74.0863 82.624 73.6387 82.8174C73.1911 83.0107 72.6719 83.1074 72.0811 83.1074C71.4723 83.1074 70.9406 83.0107 70.4858 82.8174C70.0347 82.624 69.6587 82.3483 69.3579 81.9902C69.0607 81.6322 68.8369 81.2043 68.6865 80.7065C68.5397 80.2088 68.4663 79.6574 68.4663 79.0522C68.4663 78.2502 68.5988 77.5465 68.8638 76.9414C69.1287 76.3363 69.5298 75.8654 70.0669 75.5288C70.6076 75.1922 71.2843 75.0239 72.0972 75.0239C72.8742 75.0239 73.5277 75.1904 74.0576 75.5234C74.5911 75.8564 74.994 76.3255 75.2661 76.9307C75.5418 77.5322 75.6797 78.243 75.6797 79.063ZM69.4277 79.063C69.4277 79.729 69.5226 80.3055 69.7124 80.7925C69.9022 81.2795 70.1922 81.6554 70.5825 81.9204C70.9764 82.1854 71.4759 82.3179 72.0811 82.3179C72.6898 82.3179 73.1875 82.1854 73.5742 81.9204C73.9645 81.6554 74.2528 81.2795 74.439 80.7925C74.6252 80.3055 74.7183 79.729 74.7183 79.063C74.7183 78.0496 74.5052 77.2583 74.0791 76.689C73.6566 76.116 72.9959 75.8296 72.0972 75.8296C71.4884 75.8296 70.9871 75.9603 70.5933 76.2217C70.1994 76.4831 69.9058 76.8555 69.7124 77.3389C69.5226 77.8187 69.4277 78.3934 69.4277 79.063ZM80.084 77.0059C80.7822 77.0059 81.3104 77.1777 81.6685 77.5215C82.0265 77.8617 82.2056 78.4095 82.2056 79.165V83H81.3247V79.2241C81.3247 78.7336 81.2119 78.3665 80.9863 78.123C80.7643 77.8796 80.4224 77.7578 79.9604 77.7578C79.3088 77.7578 78.8504 77.9422 78.5854 78.311C78.3205 78.6799 78.188 79.2152 78.188 79.917V83H77.2964V77.1133H78.0161L78.1504 77.9619H78.1987C78.3241 77.7542 78.4834 77.5806 78.6768 77.4409C78.8701 77.2977 79.0868 77.1903 79.3267 77.1187C79.5666 77.0435 79.819 77.0059 80.084 77.0059ZM93.27 78.9985C93.27 79.883 93.1089 80.6224 92.7866 81.2168C92.4644 81.8076 91.9971 82.2534 91.3848 82.5542C90.776 82.8514 90.0366 83 89.1665 83H87.0342V75.1475H89.4028C90.2013 75.1475 90.8888 75.2943 91.4653 75.5879C92.0418 75.8779 92.4858 76.3094 92.7974 76.8823C93.1125 77.4517 93.27 78.1571 93.27 78.9985ZM92.3086 79.0308C92.3086 78.3254 92.1904 77.7435 91.9541 77.2852C91.7214 76.8268 91.3776 76.4867 90.9229 76.2646C90.4717 76.0391 89.9185 75.9263 89.2632 75.9263H87.9473V82.2158H89.0591C90.1405 82.2158 90.9515 81.9491 91.4922 81.4155C92.0365 80.882 92.3086 80.0871 92.3086 79.0308ZM95.7729 77.1133V83H94.8813V77.1133H95.7729ZM95.3379 74.9111C95.4847 74.9111 95.61 74.9595 95.7139 75.0562C95.8213 75.1493 95.875 75.2961 95.875 75.4966C95.875 75.6935 95.8213 75.8403 95.7139 75.937C95.61 76.0337 95.4847 76.082 95.3379 76.082C95.1839 76.082 95.055 76.0337 94.9512 75.937C94.8509 75.8403 94.8008 75.6935 94.8008 75.4966C94.8008 75.2961 94.8509 75.1493 94.9512 75.0562C95.055 74.9595 95.1839 74.9111 95.3379 74.9111ZM99.9302 77.0059C100.431 77.0059 100.861 77.1169 101.219 77.3389C101.577 77.5609 101.851 77.8724 102.041 78.2734C102.231 78.6709 102.326 79.1364 102.326 79.6699V80.2231H98.2598C98.2705 80.9142 98.4424 81.4406 98.7754 81.8022C99.1084 82.1639 99.5775 82.3447 100.183 82.3447C100.555 82.3447 100.884 82.3107 101.171 82.2427C101.457 82.1746 101.755 82.0744 102.062 81.9419V82.7261C101.765 82.8586 101.47 82.9552 101.176 83.0161C100.886 83.077 100.542 83.1074 100.145 83.1074C99.5793 83.1074 99.0851 82.9928 98.6626 82.7637C98.2437 82.5309 97.9178 82.1908 97.6851 81.7432C97.4523 81.2956 97.3359 80.7477 97.3359 80.0996C97.3359 79.4658 97.4416 78.918 97.6528 78.4561C97.8677 77.9906 98.1685 77.6325 98.5552 77.3818C98.9455 77.1312 99.4038 77.0059 99.9302 77.0059ZM99.9194 77.7363C99.4432 77.7363 99.0636 77.8921 98.7808 78.2036C98.4979 78.5151 98.3296 78.9502 98.2759 79.5088H101.391C101.388 79.1579 101.332 78.8499 101.225 78.585C101.121 78.3164 100.961 78.1087 100.747 77.9619C100.532 77.8115 100.256 77.7363 99.9194 77.7363ZM110.189 75.8403C109.756 75.8403 109.365 75.9155 109.018 76.0659C108.674 76.2127 108.381 76.4276 108.137 76.7104C107.897 76.9897 107.713 77.3281 107.584 77.7256C107.455 78.123 107.391 78.5706 107.391 79.0684C107.391 79.7272 107.493 80.3001 107.697 80.7871C107.904 81.2705 108.212 81.6447 108.621 81.9097C109.032 82.1746 109.546 82.3071 110.162 82.3071C110.513 82.3071 110.842 82.2785 111.15 82.2212C111.462 82.1603 111.764 82.0851 112.058 81.9956V82.7905C111.772 82.8979 111.471 82.9767 111.156 83.0269C110.841 83.0806 110.466 83.1074 110.033 83.1074C109.235 83.1074 108.567 82.9427 108.03 82.6133C107.496 82.2803 107.095 81.8112 106.827 81.2061C106.562 80.6009 106.429 79.8866 106.429 79.063C106.429 78.4686 106.512 77.9261 106.676 77.4355C106.845 76.9414 107.088 76.5153 107.407 76.1572C107.729 75.7992 108.123 75.5234 108.588 75.3301C109.057 75.1331 109.595 75.0347 110.2 75.0347C110.597 75.0347 110.98 75.0741 111.349 75.1528C111.718 75.2316 112.051 75.3444 112.348 75.4912L111.983 76.2646C111.732 76.1501 111.457 76.0516 111.156 75.9692C110.859 75.8833 110.536 75.8403 110.189 75.8403ZM118.487 77.1133V83H117.757L117.628 82.1729H117.58C117.458 82.377 117.3 82.5488 117.107 82.6885C116.914 82.8281 116.695 82.932 116.452 83C116.212 83.0716 115.956 83.1074 115.684 83.1074C115.218 83.1074 114.828 83.0322 114.513 82.8818C114.198 82.7314 113.959 82.4987 113.798 82.1836C113.641 81.8685 113.562 81.4639 113.562 80.9697V77.1133H114.464V80.9053C114.464 81.3958 114.575 81.7629 114.797 82.0063C115.019 82.2463 115.358 82.3662 115.812 82.3662C116.249 82.3662 116.597 82.2839 116.854 82.1191C117.116 81.9544 117.304 81.7127 117.418 81.394C117.533 81.0718 117.59 80.6779 117.59 80.2124V77.1133H118.487ZM122.274 82.377C122.421 82.377 122.571 82.3644 122.725 82.3394C122.879 82.3143 123.004 82.2839 123.101 82.248V82.9409C122.997 82.9875 122.852 83.0269 122.666 83.0591C122.483 83.0913 122.304 83.1074 122.129 83.1074C121.817 83.1074 121.535 83.0537 121.28 82.9463C121.026 82.8353 120.822 82.6491 120.668 82.3877C120.518 82.1263 120.442 81.7646 120.442 81.3027V77.8115H119.604V77.3765L120.448 77.0273L120.802 75.749H121.339V77.1133H123.063V77.8115H121.339V81.2759C121.339 81.6447 121.424 81.9204 121.592 82.103C121.764 82.2856 121.991 82.377 122.274 82.377ZM126.195 82.377C126.342 82.377 126.492 82.3644 126.646 82.3394C126.8 82.3143 126.925 82.2839 127.022 82.248V82.9409C126.918 82.9875 126.773 83.0269 126.587 83.0591C126.404 83.0913 126.225 83.1074 126.05 83.1074C125.738 83.1074 125.455 83.0537 125.201 82.9463C124.947 82.8353 124.743 82.6491 124.589 82.3877C124.438 82.1263 124.363 81.7646 124.363 81.3027V77.8115H123.525V77.3765L124.369 77.0273L124.723 75.749H125.26V77.1133H126.984V77.8115H125.26V81.2759C125.26 81.6447 125.344 81.9204 125.513 82.103C125.685 82.2856 125.912 82.377 126.195 82.377ZM129.106 77.1133V83H128.214V77.1133H129.106ZM128.671 74.9111C128.818 74.9111 128.943 74.9595 129.047 75.0562C129.154 75.1493 129.208 75.2961 129.208 75.4966C129.208 75.6935 129.154 75.8403 129.047 75.937C128.943 76.0337 128.818 76.082 128.671 76.082C128.517 76.082 128.388 76.0337 128.284 75.937C128.184 75.8403 128.134 75.6935 128.134 75.4966C128.134 75.2961 128.184 75.1493 128.284 75.0562C128.388 74.9595 128.517 74.9111 128.671 74.9111ZM133.784 77.0059C134.482 77.0059 135.011 77.1777 135.369 77.5215C135.727 77.8617 135.906 78.4095 135.906 79.165V83H135.025V79.2241C135.025 78.7336 134.912 78.3665 134.687 78.123C134.465 77.8796 134.123 77.7578 133.661 77.7578C133.009 77.7578 132.551 77.9422 132.286 78.311C132.021 78.6799 131.888 79.2152 131.888 79.917V83H130.997V77.1133H131.716L131.851 77.9619H131.899C132.024 77.7542 132.184 77.5806 132.377 77.4409C132.57 77.2977 132.787 77.1903 133.027 77.1187C133.267 77.0435 133.519 77.0059 133.784 77.0059ZM139.386 85.6426C138.613 85.6426 138.017 85.4976 137.598 85.2075C137.179 84.9211 136.969 84.5182 136.969 83.999C136.969 83.6302 137.086 83.3151 137.318 83.0537C137.555 82.7923 137.881 82.6187 138.296 82.5327C138.142 82.4611 138.009 82.3537 137.898 82.2104C137.791 82.0672 137.737 81.9025 137.737 81.7163C137.737 81.5015 137.796 81.3135 137.915 81.1523C138.036 80.9876 138.221 80.8301 138.468 80.6797C138.16 80.5544 137.909 80.3431 137.716 80.0459C137.526 79.7451 137.431 79.396 137.431 78.9985C137.431 78.576 137.519 78.2161 137.694 77.9189C137.87 77.6182 138.124 77.389 138.457 77.2314C138.79 77.0739 139.193 76.9951 139.666 76.9951C139.769 76.9951 139.873 77.0005 139.977 77.0112C140.084 77.0184 140.187 77.0309 140.283 77.0488C140.38 77.0632 140.464 77.0811 140.536 77.1025H142.555V77.6772L141.47 77.8115C141.578 77.9512 141.667 78.1195 141.739 78.3164C141.81 78.5133 141.846 78.7318 141.846 78.9717C141.846 79.5589 141.647 80.0262 141.25 80.3735C140.853 80.7173 140.306 80.8892 139.612 80.8892C139.447 80.8892 139.279 80.8748 139.107 80.8462C138.931 80.9429 138.797 81.0503 138.704 81.1685C138.615 81.2866 138.57 81.4227 138.57 81.5767C138.57 81.6912 138.604 81.7826 138.672 81.8506C138.743 81.9186 138.846 81.9688 138.978 82.001C139.111 82.0296 139.27 82.0439 139.456 82.0439H140.493C141.134 82.0439 141.624 82.1782 141.964 82.4468C142.308 82.7153 142.48 83.1074 142.48 83.623C142.48 84.2747 142.215 84.7743 141.685 85.1216C141.155 85.4689 140.389 85.6426 139.386 85.6426ZM139.413 84.9443C139.9 84.9443 140.303 84.8942 140.622 84.7939C140.944 84.6973 141.184 84.5558 141.341 84.3696C141.502 84.187 141.583 83.9686 141.583 83.7144C141.583 83.478 141.529 83.299 141.422 83.1772C141.314 83.0591 141.157 82.9803 140.949 82.9409C140.742 82.8979 140.487 82.8765 140.187 82.8765H139.166C138.901 82.8765 138.67 82.9176 138.473 83C138.276 83.0824 138.124 83.2041 138.017 83.3652C137.913 83.5264 137.861 83.7269 137.861 83.9668C137.861 84.2855 137.995 84.5272 138.264 84.6919C138.532 84.8602 138.915 84.9443 139.413 84.9443ZM139.644 80.2393C140.07 80.2393 140.391 80.1318 140.605 79.917C140.82 79.7021 140.928 79.3888 140.928 78.9771C140.928 78.5366 140.819 78.2072 140.6 77.9888C140.382 77.7668 140.059 77.6558 139.633 77.6558C139.225 77.6558 138.91 77.7703 138.688 77.9995C138.47 78.2251 138.36 78.5563 138.36 78.9932C138.36 79.3942 138.471 79.7021 138.693 79.917C138.915 80.1318 139.232 80.2393 139.644 80.2393ZM151.138 80.9106C151.138 81.3761 151.022 81.7736 150.789 82.103C150.56 82.4289 150.238 82.6777 149.822 82.8496C149.407 83.0215 148.918 83.1074 148.356 83.1074C148.059 83.1074 147.778 83.0931 147.513 83.0645C147.248 83.0358 147.004 82.9946 146.782 82.9409C146.56 82.8872 146.365 82.821 146.197 82.7422V81.8667C146.465 81.9777 146.793 82.0815 147.18 82.1782C147.566 82.2713 147.971 82.3179 148.394 82.3179C148.787 82.3179 149.12 82.266 149.393 82.1621C149.665 82.0547 149.871 81.9025 150.01 81.7056C150.153 81.505 150.225 81.2651 150.225 80.9858C150.225 80.7173 150.166 80.4935 150.048 80.3145C149.93 80.1318 149.733 79.9671 149.457 79.8203C149.185 79.6699 148.812 79.5106 148.34 79.3423C148.007 79.2241 147.713 79.0952 147.459 78.9556C147.205 78.8123 146.992 78.6512 146.82 78.4722C146.648 78.2931 146.517 78.0854 146.428 77.8491C146.342 77.6128 146.299 77.3424 146.299 77.0381C146.299 76.6191 146.404 76.2611 146.616 75.9639C146.831 75.6631 147.126 75.4339 147.502 75.2764C147.882 75.1152 148.317 75.0347 148.807 75.0347C149.226 75.0347 149.613 75.0741 149.967 75.1528C150.325 75.2316 150.653 75.3372 150.95 75.4697L150.666 76.2539C150.383 76.1357 150.082 76.0373 149.763 75.9585C149.448 75.8797 149.122 75.8403 148.786 75.8403C148.449 75.8403 148.164 75.8905 147.932 75.9907C147.702 76.0874 147.527 76.2253 147.405 76.4043C147.284 76.5833 147.223 76.7964 147.223 77.0435C147.223 77.3192 147.28 77.5483 147.395 77.731C147.513 77.9136 147.699 78.0765 147.953 78.2197C148.211 78.3594 148.551 78.5062 148.974 78.6602C149.436 78.8285 149.828 79.0075 150.15 79.1973C150.472 79.3835 150.717 79.6126 150.886 79.8848C151.054 80.1533 151.138 80.4953 151.138 80.9106ZM157.471 77.1133V83H156.74L156.611 82.1729H156.563C156.441 82.377 156.284 82.5488 156.09 82.6885C155.897 82.8281 155.679 82.932 155.435 83C155.195 83.0716 154.939 83.1074 154.667 83.1074C154.201 83.1074 153.811 83.0322 153.496 82.8818C153.181 82.7314 152.943 82.4987 152.782 82.1836C152.624 81.8685 152.545 81.4639 152.545 80.9697V77.1133H153.448V80.9053C153.448 81.3958 153.559 81.7629 153.781 82.0063C154.003 82.2463 154.341 82.3662 154.796 82.3662C155.233 82.3662 155.58 82.2839 155.838 82.1191C156.099 81.9544 156.287 81.7127 156.402 81.394C156.516 81.0718 156.574 80.6779 156.574 80.2124V77.1133H157.471ZM162.122 77.0059C162.856 77.0059 163.442 77.2583 163.878 77.7632C164.315 78.2681 164.534 79.0272 164.534 80.0405C164.534 80.7101 164.433 81.2723 164.233 81.7271C164.032 82.1818 163.75 82.5256 163.384 82.7583C163.023 82.991 162.595 83.1074 162.101 83.1074C161.789 83.1074 161.515 83.0662 161.279 82.9839C161.042 82.9015 160.84 82.7905 160.672 82.6509C160.504 82.5112 160.364 82.359 160.253 82.1943H160.188C160.199 82.334 160.212 82.5023 160.226 82.6992C160.244 82.8962 160.253 83.068 160.253 83.2148V85.6318H159.356V77.1133H160.092L160.21 77.9834H160.253C160.368 77.8044 160.507 77.6414 160.672 77.4946C160.837 77.3442 161.037 77.2261 161.273 77.1401C161.513 77.0506 161.796 77.0059 162.122 77.0059ZM161.966 77.7578C161.558 77.7578 161.229 77.8366 160.978 77.9941C160.731 78.1517 160.55 78.388 160.436 78.7031C160.321 79.0146 160.26 79.4067 160.253 79.8794V80.0513C160.253 80.549 160.307 80.9697 160.414 81.3135C160.525 81.6572 160.706 81.9186 160.957 82.0977C161.211 82.2767 161.551 82.3662 161.977 82.3662C162.342 82.3662 162.647 82.2677 162.89 82.0708C163.134 81.8739 163.314 81.5999 163.433 81.249C163.554 80.8945 163.615 80.4881 163.615 80.0298C163.615 79.3351 163.479 78.7837 163.207 78.3755C162.938 77.9637 162.525 77.7578 161.966 77.7578ZM168.857 77.0059C169.591 77.0059 170.177 77.2583 170.614 77.7632C171.051 78.2681 171.269 79.0272 171.269 80.0405C171.269 80.7101 171.169 81.2723 170.968 81.7271C170.768 82.1818 170.485 82.5256 170.12 82.7583C169.758 82.991 169.33 83.1074 168.836 83.1074C168.524 83.1074 168.25 83.0662 168.014 82.9839C167.778 82.9015 167.576 82.7905 167.407 82.6509C167.239 82.5112 167.099 82.359 166.988 82.1943H166.924C166.935 82.334 166.947 82.5023 166.961 82.6992C166.979 82.8962 166.988 83.068 166.988 83.2148V85.6318H166.091V77.1133H166.827L166.945 77.9834H166.988C167.103 77.8044 167.243 77.6414 167.407 77.4946C167.572 77.3442 167.772 77.2261 168.009 77.1401C168.249 77.0506 168.532 77.0059 168.857 77.0059ZM168.702 77.7578C168.293 77.7578 167.964 77.8366 167.713 77.9941C167.466 78.1517 167.285 78.388 167.171 78.7031C167.056 79.0146 166.995 79.4067 166.988 79.8794V80.0513C166.988 80.549 167.042 80.9697 167.149 81.3135C167.26 81.6572 167.441 81.9186 167.692 82.0977C167.946 82.2767 168.286 82.3662 168.712 82.3662C169.078 82.3662 169.382 82.2677 169.625 82.0708C169.869 81.8739 170.05 81.5999 170.168 81.249C170.29 80.8945 170.351 80.4881 170.351 80.0298C170.351 79.3351 170.215 78.7837 169.942 78.3755C169.674 77.9637 169.26 77.7578 168.702 77.7578ZM173.724 83H172.827V74.6426H173.724V83ZM176.5 77.1133V83H175.609V77.1133H176.5ZM176.065 74.9111C176.212 74.9111 176.338 74.9595 176.441 75.0562C176.549 75.1493 176.603 75.2961 176.603 75.4966C176.603 75.6935 176.549 75.8403 176.441 75.937C176.338 76.0337 176.212 76.082 176.065 76.082C175.911 76.082 175.783 76.0337 175.679 75.937C175.578 75.8403 175.528 75.6935 175.528 75.4966C175.528 75.2961 175.578 75.1493 175.679 75.0562C175.783 74.9595 175.911 74.9111 176.065 74.9111ZM180.658 77.0059C181.159 77.0059 181.589 77.1169 181.947 77.3389C182.305 77.5609 182.579 77.8724 182.769 78.2734C182.958 78.6709 183.053 79.1364 183.053 79.6699V80.2231H178.987C178.998 80.9142 179.17 81.4406 179.503 81.8022C179.836 82.1639 180.305 82.3447 180.91 82.3447C181.283 82.3447 181.612 82.3107 181.898 82.2427C182.185 82.1746 182.482 82.0744 182.79 81.9419V82.7261C182.493 82.8586 182.197 82.9552 181.904 83.0161C181.614 83.077 181.27 83.1074 180.873 83.1074C180.307 83.1074 179.813 82.9928 179.39 82.7637C178.971 82.5309 178.645 82.1908 178.413 81.7432C178.18 81.2956 178.063 80.7477 178.063 80.0996C178.063 79.4658 178.169 78.918 178.38 78.4561C178.595 77.9906 178.896 77.6325 179.283 77.3818C179.673 77.1312 180.131 77.0059 180.658 77.0059ZM180.647 77.7363C180.171 77.7363 179.791 77.8921 179.508 78.2036C179.225 78.5151 179.057 78.9502 179.003 79.5088H182.119C182.115 79.1579 182.06 78.8499 181.952 78.585C181.848 78.3164 181.689 78.1087 181.474 77.9619C181.259 77.8115 180.984 77.7363 180.647 77.7363ZM188.376 81.3887C188.376 81.7646 188.281 82.0815 188.091 82.3394C187.905 82.5936 187.637 82.7852 187.286 82.9141C186.938 83.043 186.523 83.1074 186.04 83.1074C185.628 83.1074 185.271 83.0752 184.971 83.0107C184.67 82.9463 184.407 82.855 184.181 82.7368V81.915C184.421 82.0332 184.708 82.1406 185.041 82.2373C185.374 82.334 185.714 82.3823 186.061 82.3823C186.569 82.3823 186.938 82.3 187.167 82.1353C187.397 81.9705 187.511 81.7467 187.511 81.4639C187.511 81.3027 187.465 81.1613 187.372 81.0396C187.282 80.9142 187.13 80.7943 186.915 80.6797C186.7 80.5615 186.403 80.4326 186.023 80.293C185.647 80.1497 185.322 80.0083 185.046 79.8687C184.774 79.7254 184.562 79.5518 184.412 79.3477C184.265 79.1436 184.192 78.8786 184.192 78.5527C184.192 78.055 184.392 77.6737 184.793 77.4087C185.198 77.1401 185.728 77.0059 186.383 77.0059C186.738 77.0059 187.069 77.0417 187.377 77.1133C187.688 77.1813 187.979 77.2744 188.247 77.3926L187.946 78.1069C187.703 78.0031 187.443 77.9154 187.167 77.8438C186.892 77.7721 186.611 77.7363 186.324 77.7363C185.912 77.7363 185.596 77.8044 185.374 77.9404C185.155 78.0765 185.046 78.2627 185.046 78.499C185.046 78.6816 185.096 78.832 185.196 78.9502C185.3 79.0684 185.465 79.1794 185.69 79.2832C185.916 79.387 186.213 79.5088 186.582 79.6484C186.951 79.7845 187.27 79.9259 187.538 80.0728C187.807 80.216 188.013 80.3914 188.156 80.5991C188.303 80.8032 188.376 81.0664 188.376 81.3887ZM195.213 83H194.295V75.9531H191.824V75.1475H197.673V75.9531H195.213V83ZM203.802 80.0459C203.802 80.5293 203.739 80.9608 203.614 81.3403C203.488 81.7199 203.308 82.0404 203.071 82.3018C202.835 82.5632 202.549 82.7637 202.212 82.9033C201.879 83.0394 201.501 83.1074 201.079 83.1074C200.685 83.1074 200.323 83.0394 199.994 82.9033C199.668 82.7637 199.385 82.5632 199.145 82.3018C198.909 82.0404 198.724 81.7199 198.592 81.3403C198.463 80.9608 198.398 80.5293 198.398 80.0459C198.398 79.4014 198.508 78.8535 198.726 78.4023C198.944 77.9476 199.256 77.6021 199.661 77.3657C200.069 77.1258 200.554 77.0059 201.116 77.0059C201.653 77.0059 202.122 77.1258 202.523 77.3657C202.928 77.6056 203.241 77.953 203.463 78.4077C203.689 78.8589 203.802 79.4049 203.802 80.0459ZM199.322 80.0459C199.322 80.5186 199.385 80.9285 199.51 81.2759C199.636 81.6232 199.829 81.8918 200.09 82.0815C200.352 82.2713 200.688 82.3662 201.1 82.3662C201.508 82.3662 201.843 82.2713 202.104 82.0815C202.369 81.8918 202.565 81.6232 202.69 81.2759C202.815 80.9285 202.878 80.5186 202.878 80.0459C202.878 79.5768 202.815 79.1722 202.69 78.832C202.565 78.4883 202.371 78.2233 202.11 78.0371C201.848 77.8509 201.51 77.7578 201.095 77.7578C200.482 77.7578 200.033 77.9601 199.747 78.3647C199.464 78.7694 199.322 79.3298 199.322 80.0459ZM207.438 83.1074C206.693 83.1074 206.102 82.8532 205.666 82.3447C205.232 81.8363 205.016 81.0807 205.016 80.0781C205.016 79.0648 205.238 78.3003 205.682 77.7847C206.126 77.2655 206.716 77.0059 207.454 77.0059C207.766 77.0059 208.038 77.047 208.271 77.1294C208.503 77.2118 208.704 77.3228 208.872 77.4624C209.04 77.5985 209.182 77.7542 209.296 77.9297H209.361C209.347 77.8187 209.332 77.6665 209.318 77.4731C209.304 77.2798 209.296 77.1222 209.296 77.0005V74.6426H210.188V83H209.468L209.334 82.1621H209.296C209.185 82.3376 209.044 82.4969 208.872 82.6401C208.704 82.7834 208.501 82.8979 208.265 82.9839C208.032 83.0662 207.757 83.1074 207.438 83.1074ZM207.578 82.3662C208.208 82.3662 208.654 82.1872 208.915 81.8291C209.176 81.471 209.307 80.9393 209.307 80.2339V80.0728C209.307 79.3244 209.182 78.7497 208.931 78.3486C208.684 77.9476 208.233 77.7471 207.578 77.7471C207.03 77.7471 206.62 77.9583 206.348 78.3809C206.076 78.7998 205.939 79.3727 205.939 80.0996C205.939 80.8229 206.074 81.3815 206.342 81.7754C206.614 82.1693 207.026 82.3662 207.578 82.3662ZM214.281 77.0166C214.983 77.0166 215.504 77.1742 215.844 77.4893C216.184 77.8044 216.354 78.3075 216.354 78.9985V83H215.704L215.532 82.1299H215.489C215.325 82.3447 215.153 82.5256 214.974 82.6724C214.795 82.8156 214.587 82.9248 214.351 83C214.118 83.0716 213.831 83.1074 213.491 83.1074C213.133 83.1074 212.814 83.0448 212.535 82.9194C212.259 82.7941 212.041 82.6043 211.88 82.3501C211.722 82.0959 211.644 81.7736 211.644 81.3833C211.644 80.7961 211.876 80.3449 212.342 80.0298C212.807 79.7147 213.516 79.5428 214.469 79.5142L215.484 79.4712V79.1113C215.484 78.6029 215.375 78.2466 215.156 78.0425C214.938 77.8384 214.63 77.7363 214.232 77.7363C213.924 77.7363 213.631 77.7811 213.352 77.8706C213.072 77.9601 212.807 78.0658 212.557 78.1875L212.283 77.5107C212.548 77.3747 212.852 77.2583 213.196 77.1616C213.54 77.0649 213.901 77.0166 214.281 77.0166ZM215.473 80.0996L214.576 80.1372C213.842 80.1659 213.325 80.2858 213.024 80.4971C212.723 80.7083 212.573 81.0073 212.573 81.394C212.573 81.7306 212.675 81.9795 212.879 82.1406C213.083 82.3018 213.353 82.3823 213.69 82.3823C214.213 82.3823 214.641 82.2373 214.974 81.9473C215.307 81.6572 215.473 81.2222 215.473 80.6421V80.0996ZM217.262 77.1133H218.218L219.518 80.5293C219.593 80.7298 219.663 80.9232 219.727 81.1094C219.792 81.292 219.849 81.4674 219.899 81.6357C219.949 81.804 219.988 81.967 220.017 82.1245H220.055C220.105 81.9455 220.176 81.7109 220.27 81.4209C220.363 81.1273 220.463 80.8283 220.57 80.5239L221.8 77.1133H222.762L220.2 83.8647C220.064 84.2264 219.904 84.5415 219.722 84.8101C219.543 85.0786 219.324 85.2845 219.066 85.4277C218.809 85.5745 218.497 85.6479 218.132 85.6479C217.964 85.6479 217.815 85.6372 217.686 85.6157C217.557 85.5978 217.446 85.5763 217.353 85.5513V84.8369C217.432 84.8548 217.527 84.8709 217.638 84.8853C217.752 84.8996 217.87 84.9067 217.992 84.9067C218.214 84.9067 218.406 84.8638 218.567 84.7778C218.732 84.6955 218.873 84.5737 218.991 84.4126C219.109 84.2515 219.211 84.0599 219.297 83.8379L219.62 83.0107L217.262 77.1133ZM224.507 80.8193H223.922L223.675 75.1475H224.754L224.507 80.8193ZM223.567 82.4414C223.567 82.1908 223.628 82.0135 223.75 81.9097C223.872 81.8022 224.024 81.7485 224.207 81.7485C224.386 81.7485 224.536 81.8022 224.658 81.9097C224.783 82.0135 224.846 82.1908 224.846 82.4414C224.846 82.6885 224.783 82.8693 224.658 82.9839C224.536 83.0949 224.386 83.1504 224.207 83.1504C224.024 83.1504 223.872 83.0949 223.75 82.9839C223.628 82.8693 223.567 82.6885 223.567 82.4414Z" fill="#7F7F7F" fill-opacity="0.7" style="mix-blend-mode:luminosity"/>
<path d="M15.0776 79.0845L17.167 75.1475H18.1499L15.5342 79.9546V83H14.6211V79.9976L12 75.1475H12.999L15.0776 79.0845ZM24.1709 80.0459C24.1709 80.5293 24.1082 80.9608 23.9829 81.3403C23.8576 81.7199 23.6768 82.0404 23.4404 82.3018C23.2041 82.5632 22.9176 82.7637 22.5811 82.9033C22.248 83.0394 21.8703 83.1074 21.4478 83.1074C21.0539 83.1074 20.6922 83.0394 20.3628 82.9033C20.0369 82.7637 19.7541 82.5632 19.5142 82.3018C19.2778 82.0404 19.0934 81.7199 18.9609 81.3403C18.832 80.9608 18.7676 80.5293 18.7676 80.0459C18.7676 79.4014 18.8768 78.8535 19.0952 78.4023C19.3136 77.9476 19.6252 77.6021 20.0298 77.3657C20.438 77.1258 20.9232 77.0059 21.4854 77.0059C22.0225 77.0059 22.4915 77.1258 22.8926 77.3657C23.2972 77.6056 23.6105 77.953 23.8325 78.4077C24.0581 78.8589 24.1709 79.4049 24.1709 80.0459ZM19.6914 80.0459C19.6914 80.5186 19.7541 80.9285 19.8794 81.2759C20.0047 81.6232 20.1981 81.8918 20.4595 82.0815C20.7209 82.2713 21.0575 82.3662 21.4692 82.3662C21.8774 82.3662 22.2122 82.2713 22.4736 82.0815C22.7386 81.8918 22.9338 81.6232 23.0591 81.2759C23.1844 80.9285 23.2471 80.5186 23.2471 80.0459C23.2471 79.5768 23.1844 79.1722 23.0591 78.832C22.9338 78.4883 22.7404 78.2233 22.479 78.0371C22.2176 77.8509 21.8792 77.7578 21.4639 77.7578C20.8516 77.7578 20.4022 77.9601 20.1157 78.3647C19.8328 78.7694 19.6914 79.3298 19.6914 80.0459ZM30.5732 77.1133V83H29.8428L29.7139 82.1729H29.6655C29.5438 82.377 29.3862 82.5488 29.1929 82.6885C28.9995 82.8281 28.7811 82.932 28.5376 83C28.2977 83.0716 28.0417 83.1074 27.7695 83.1074C27.304 83.1074 26.9137 83.0322 26.5986 82.8818C26.2835 82.7314 26.0454 82.4987 25.8843 82.1836C25.7267 81.8685 25.6479 81.4639 25.6479 80.9697V77.1133H26.5503V80.9053C26.5503 81.3958 26.6613 81.7629 26.8833 82.0063C27.1053 82.2463 27.4437 82.3662 27.8984 82.3662C28.3353 82.3662 28.6826 82.2839 28.9404 82.1191C29.2018 81.9544 29.3898 81.7127 29.5044 81.394C29.619 81.0718 29.6763 80.6779 29.6763 80.2124V77.1133H30.5732ZM39.8813 80.9106C39.8813 81.3761 39.765 81.7736 39.5322 82.103C39.3031 82.4289 38.9808 82.6777 38.5654 82.8496C38.1501 83.0215 37.6613 83.1074 37.0991 83.1074C36.8019 83.1074 36.5208 83.0931 36.2559 83.0645C35.9909 83.0358 35.7474 82.9946 35.5254 82.9409C35.3034 82.8872 35.1082 82.821 34.9399 82.7422V81.8667C35.2085 81.9777 35.5361 82.0815 35.9229 82.1782C36.3096 82.2713 36.7142 82.3179 37.1367 82.3179C37.5306 82.3179 37.8636 82.266 38.1357 82.1621C38.4079 82.0547 38.6138 81.9025 38.7534 81.7056C38.8966 81.505 38.9683 81.2651 38.9683 80.9858C38.9683 80.7173 38.9092 80.4935 38.791 80.3145C38.6729 80.1318 38.4759 79.9671 38.2002 79.8203C37.9281 79.6699 37.5557 79.5106 37.083 79.3423C36.75 79.2241 36.4564 79.0952 36.2021 78.9556C35.9479 78.8123 35.7349 78.6512 35.563 78.4722C35.3911 78.2931 35.2604 78.0854 35.1709 77.8491C35.085 77.6128 35.042 77.3424 35.042 77.0381C35.042 76.6191 35.1476 76.2611 35.3589 75.9639C35.5737 75.6631 35.8691 75.4339 36.2451 75.2764C36.6247 75.1152 37.0597 75.0347 37.5503 75.0347C37.9692 75.0347 38.356 75.0741 38.7104 75.1528C39.0685 75.2316 39.3962 75.3372 39.6934 75.4697L39.4087 76.2539C39.1258 76.1357 38.825 76.0373 38.5063 75.9585C38.1912 75.8797 37.8654 75.8403 37.5288 75.8403C37.1922 75.8403 36.9076 75.8905 36.6748 75.9907C36.4456 76.0874 36.2702 76.2253 36.1484 76.4043C36.0267 76.5833 35.9658 76.7964 35.9658 77.0435C35.9658 77.3192 36.0231 77.5483 36.1377 77.731C36.2559 77.9136 36.4421 78.0765 36.6963 78.2197C36.9541 78.3594 37.2943 78.5062 37.7168 78.6602C38.1787 78.8285 38.5708 79.0075 38.8931 79.1973C39.2153 79.3835 39.4606 79.6126 39.6289 79.8848C39.7972 80.1533 39.8813 80.4953 39.8813 80.9106ZM43.5552 77.0166C44.257 77.0166 44.778 77.1742 45.1182 77.4893C45.4583 77.8044 45.6284 78.3075 45.6284 78.9985V83H44.9785L44.8066 82.1299H44.7637C44.599 82.3447 44.4271 82.5256 44.248 82.6724C44.069 82.8156 43.8613 82.9248 43.625 83C43.3923 83.0716 43.1058 83.1074 42.7656 83.1074C42.4076 83.1074 42.0889 83.0448 41.8096 82.9194C41.5339 82.7941 41.3154 82.6043 41.1543 82.3501C40.9967 82.0959 40.918 81.7736 40.918 81.3833C40.918 80.7961 41.1507 80.3449 41.6162 80.0298C42.0817 79.7147 42.7907 79.5428 43.7432 79.5142L44.7583 79.4712V79.1113C44.7583 78.6029 44.6491 78.2466 44.4307 78.0425C44.2122 77.8384 43.9043 77.7363 43.5068 77.7363C43.1989 77.7363 42.9053 77.7811 42.626 77.8706C42.3467 77.9601 42.0817 78.0658 41.8311 78.1875L41.5571 77.5107C41.8221 77.3747 42.1265 77.2583 42.4702 77.1616C42.814 77.0649 43.1756 77.0166 43.5552 77.0166ZM44.7476 80.0996L43.8506 80.1372C43.1165 80.1659 42.5991 80.2858 42.2983 80.4971C41.9976 80.7083 41.8472 81.0073 41.8472 81.394C41.8472 81.7306 41.9492 81.9795 42.1533 82.1406C42.3574 82.3018 42.6278 82.3823 42.9644 82.3823C43.4871 82.3823 43.915 82.2373 44.248 81.9473C44.5811 81.6572 44.7476 81.2222 44.7476 80.6421V80.0996ZM48.7598 83L46.5254 77.1133H47.4814L48.7759 80.6743C48.8654 80.9178 48.9567 81.1864 49.0498 81.48C49.1429 81.7736 49.2074 82.0099 49.2432 82.189H49.2808C49.3237 82.0099 49.3953 81.7736 49.4956 81.48C49.5959 81.1828 49.6872 80.9142 49.7695 80.6743L51.064 77.1133H52.02L49.7803 83H48.7598ZM55.2319 77.0059C55.7332 77.0059 56.1629 77.1169 56.521 77.3389C56.8791 77.5609 57.153 77.8724 57.3428 78.2734C57.5326 78.6709 57.6274 79.1364 57.6274 79.6699V80.2231H53.5615C53.5723 80.9142 53.7441 81.4406 54.0771 81.8022C54.4102 82.1639 54.8792 82.3447 55.4844 82.3447C55.8568 82.3447 56.1862 82.3107 56.4727 82.2427C56.7591 82.1746 57.0563 82.0744 57.3643 81.9419V82.7261C57.0671 82.8586 56.7716 82.9552 56.478 83.0161C56.188 83.077 55.8442 83.1074 55.4468 83.1074C54.881 83.1074 54.3869 82.9928 53.9644 82.7637C53.5454 82.5309 53.2196 82.1908 52.9868 81.7432C52.7541 81.2956 52.6377 80.7477 52.6377 80.0996C52.6377 79.4658 52.7433 78.918 52.9546 78.4561C53.1694 77.9906 53.4702 77.6325 53.8569 77.3818C54.2472 77.1312 54.7056 77.0059 55.2319 77.0059ZM55.2212 77.7363C54.745 77.7363 54.3654 77.8921 54.0825 78.2036C53.7996 78.5151 53.6313 78.9502 53.5776 79.5088H56.6929C56.6893 79.1579 56.6338 78.8499 56.5264 78.585C56.4225 78.3164 56.2632 78.1087 56.0483 77.9619C55.8335 77.8115 55.5578 77.7363 55.2212 77.7363ZM61.2368 83.1074C60.492 83.1074 59.9012 82.8532 59.4644 82.3447C59.0311 81.8363 58.8145 81.0807 58.8145 80.0781C58.8145 79.0648 59.0365 78.3003 59.4805 77.7847C59.9245 77.2655 60.5153 77.0059 61.2529 77.0059C61.5645 77.0059 61.8366 77.047 62.0693 77.1294C62.3021 77.2118 62.5026 77.3228 62.6709 77.4624C62.8392 77.5985 62.9806 77.7542 63.0952 77.9297H63.1597C63.1453 77.8187 63.131 77.6665 63.1167 77.4731C63.1024 77.2798 63.0952 77.1222 63.0952 77.0005V74.6426H63.9868V83H63.2671L63.1328 82.1621H63.0952C62.9842 82.3376 62.8428 82.4969 62.6709 82.6401C62.5026 82.7834 62.3003 82.8979 62.064 82.9839C61.8312 83.0662 61.5555 83.1074 61.2368 83.1074ZM61.3765 82.3662C62.0067 82.3662 62.4525 82.1872 62.7139 81.8291C62.9753 81.471 63.106 80.9393 63.106 80.2339V80.0728C63.106 79.3244 62.9806 78.7497 62.73 78.3486C62.4829 77.9476 62.0317 77.7471 61.3765 77.7471C60.8286 77.7471 60.4186 77.9583 60.1465 78.3809C59.8743 78.7998 59.7383 79.3727 59.7383 80.0996C59.7383 80.8229 59.8726 81.3815 60.1411 81.7754C60.4132 82.1693 60.825 82.3662 61.3765 82.3662ZM75.6797 79.063C75.6797 79.6681 75.6027 80.2196 75.4487 80.7173C75.2948 81.2114 75.0656 81.6375 74.7612 81.9956C74.4604 82.3501 74.0863 82.624 73.6387 82.8174C73.1911 83.0107 72.6719 83.1074 72.0811 83.1074C71.4723 83.1074 70.9406 83.0107 70.4858 82.8174C70.0347 82.624 69.6587 82.3483 69.3579 81.9902C69.0607 81.6322 68.8369 81.2043 68.6865 80.7065C68.5397 80.2088 68.4663 79.6574 68.4663 79.0522C68.4663 78.2502 68.5988 77.5465 68.8638 76.9414C69.1287 76.3363 69.5298 75.8654 70.0669 75.5288C70.6076 75.1922 71.2843 75.0239 72.0972 75.0239C72.8742 75.0239 73.5277 75.1904 74.0576 75.5234C74.5911 75.8564 74.994 76.3255 75.2661 76.9307C75.5418 77.5322 75.6797 78.243 75.6797 79.063ZM69.4277 79.063C69.4277 79.729 69.5226 80.3055 69.7124 80.7925C69.9022 81.2795 70.1922 81.6554 70.5825 81.9204C70.9764 82.1854 71.4759 82.3179 72.0811 82.3179C72.6898 82.3179 73.1875 82.1854 73.5742 81.9204C73.9645 81.6554 74.2528 81.2795 74.439 80.7925C74.6252 80.3055 74.7183 79.729 74.7183 79.063C74.7183 78.0496 74.5052 77.2583 74.0791 76.689C73.6566 76.116 72.9959 75.8296 72.0972 75.8296C71.4884 75.8296 70.9871 75.9603 70.5933 76.2217C70.1994 76.4831 69.9058 76.8555 69.7124 77.3389C69.5226 77.8187 69.4277 78.3934 69.4277 79.063ZM80.084 77.0059C80.7822 77.0059 81.3104 77.1777 81.6685 77.5215C82.0265 77.8617 82.2056 78.4095 82.2056 79.165V83H81.3247V79.2241C81.3247 78.7336 81.2119 78.3665 80.9863 78.123C80.7643 77.8796 80.4224 77.7578 79.9604 77.7578C79.3088 77.7578 78.8504 77.9422 78.5854 78.311C78.3205 78.6799 78.188 79.2152 78.188 79.917V83H77.2964V77.1133H78.0161L78.1504 77.9619H78.1987C78.3241 77.7542 78.4834 77.5806 78.6768 77.4409C78.8701 77.2977 79.0868 77.1903 79.3267 77.1187C79.5666 77.0435 79.819 77.0059 80.084 77.0059ZM93.27 78.9985C93.27 79.883 93.1089 80.6224 92.7866 81.2168C92.4644 81.8076 91.9971 82.2534 91.3848 82.5542C90.776 82.8514 90.0366 83 89.1665 83H87.0342V75.1475H89.4028C90.2013 75.1475 90.8888 75.2943 91.4653 75.5879C92.0418 75.8779 92.4858 76.3094 92.7974 76.8823C93.1125 77.4517 93.27 78.1571 93.27 78.9985ZM92.3086 79.0308C92.3086 78.3254 92.1904 77.7435 91.9541 77.2852C91.7214 76.8268 91.3776 76.4867 90.9229 76.2646C90.4717 76.0391 89.9185 75.9263 89.2632 75.9263H87.9473V82.2158H89.0591C90.1405 82.2158 90.9515 81.9491 91.4922 81.4155C92.0365 80.882 92.3086 80.0871 92.3086 79.0308ZM95.7729 77.1133V83H94.8813V77.1133H95.7729ZM95.3379 74.9111C95.4847 74.9111 95.61 74.9595 95.7139 75.0562C95.8213 75.1493 95.875 75.2961 95.875 75.4966C95.875 75.6935 95.8213 75.8403 95.7139 75.937C95.61 76.0337 95.4847 76.082 95.3379 76.082C95.1839 76.082 95.055 76.0337 94.9512 75.937C94.8509 75.8403 94.8008 75.6935 94.8008 75.4966C94.8008 75.2961 94.8509 75.1493 94.9512 75.0562C95.055 74.9595 95.1839 74.9111 95.3379 74.9111ZM99.9302 77.0059C100.431 77.0059 100.861 77.1169 101.219 77.3389C101.577 77.5609 101.851 77.8724 102.041 78.2734C102.231 78.6709 102.326 79.1364 102.326 79.6699V80.2231H98.2598C98.2705 80.9142 98.4424 81.4406 98.7754 81.8022C99.1084 82.1639 99.5775 82.3447 100.183 82.3447C100.555 82.3447 100.884 82.3107 101.171 82.2427C101.457 82.1746 101.755 82.0744 102.062 81.9419V82.7261C101.765 82.8586 101.47 82.9552 101.176 83.0161C100.886 83.077 100.542 83.1074 100.145 83.1074C99.5793 83.1074 99.0851 82.9928 98.6626 82.7637C98.2437 82.5309 97.9178 82.1908 97.6851 81.7432C97.4523 81.2956 97.3359 80.7477 97.3359 80.0996C97.3359 79.4658 97.4416 78.918 97.6528 78.4561C97.8677 77.9906 98.1685 77.6325 98.5552 77.3818C98.9455 77.1312 99.4038 77.0059 99.9302 77.0059ZM99.9194 77.7363C99.4432 77.7363 99.0636 77.8921 98.7808 78.2036C98.4979 78.5151 98.3296 78.9502 98.2759 79.5088H101.391C101.388 79.1579 101.332 78.8499 101.225 78.585C101.121 78.3164 100.961 78.1087 100.747 77.9619C100.532 77.8115 100.256 77.7363 99.9194 77.7363ZM110.189 75.8403C109.756 75.8403 109.365 75.9155 109.018 76.0659C108.674 76.2127 108.381 76.4276 108.137 76.7104C107.897 76.9897 107.713 77.3281 107.584 77.7256C107.455 78.123 107.391 78.5706 107.391 79.0684C107.391 79.7272 107.493 80.3001 107.697 80.7871C107.904 81.2705 108.212 81.6447 108.621 81.9097C109.032 82.1746 109.546 82.3071 110.162 82.3071C110.513 82.3071 110.842 82.2785 111.15 82.2212C111.462 82.1603 111.764 82.0851 112.058 81.9956V82.7905C111.772 82.8979 111.471 82.9767 111.156 83.0269C110.841 83.0806 110.466 83.1074 110.033 83.1074C109.235 83.1074 108.567 82.9427 108.03 82.6133C107.496 82.2803 107.095 81.8112 106.827 81.2061C106.562 80.6009 106.429 79.8866 106.429 79.063C106.429 78.4686 106.512 77.9261 106.676 77.4355C106.845 76.9414 107.088 76.5153 107.407 76.1572C107.729 75.7992 108.123 75.5234 108.588 75.3301C109.057 75.1331 109.595 75.0347 110.2 75.0347C110.597 75.0347 110.98 75.0741 111.349 75.1528C111.718 75.2316 112.051 75.3444 112.348 75.4912L111.983 76.2646C111.732 76.1501 111.457 76.0516 111.156 75.9692C110.859 75.8833 110.536 75.8403 110.189 75.8403ZM118.487 77.1133V83H117.757L117.628 82.1729H117.58C117.458 82.377 117.3 82.5488 117.107 82.6885C116.914 82.8281 116.695 82.932 116.452 83C116.212 83.0716 115.956 83.1074 115.684 83.1074C115.218 83.1074 114.828 83.0322 114.513 82.8818C114.198 82.7314 113.959 82.4987 113.798 82.1836C113.641 81.8685 113.562 81.4639 113.562 80.9697V77.1133H114.464V80.9053C114.464 81.3958 114.575 81.7629 114.797 82.0063C115.019 82.2463 115.358 82.3662 115.812 82.3662C116.249 82.3662 116.597 82.2839 116.854 82.1191C117.116 81.9544 117.304 81.7127 117.418 81.394C117.533 81.0718 117.59 80.6779 117.59 80.2124V77.1133H118.487ZM122.274 82.377C122.421 82.377 122.571 82.3644 122.725 82.3394C122.879 82.3143 123.004 82.2839 123.101 82.248V82.9409C122.997 82.9875 122.852 83.0269 122.666 83.0591C122.483 83.0913 122.304 83.1074 122.129 83.1074C121.817 83.1074 121.535 83.0537 121.28 82.9463C121.026 82.8353 120.822 82.6491 120.668 82.3877C120.518 82.1263 120.442 81.7646 120.442 81.3027V77.8115H119.604V77.3765L120.448 77.0273L120.802 75.749H121.339V77.1133H123.063V77.8115H121.339V81.2759C121.339 81.6447 121.424 81.9204 121.592 82.103C121.764 82.2856 121.991 82.377 122.274 82.377ZM126.195 82.377C126.342 82.377 126.492 82.3644 126.646 82.3394C126.8 82.3143 126.925 82.2839 127.022 82.248V82.9409C126.918 82.9875 126.773 83.0269 126.587 83.0591C126.404 83.0913 126.225 83.1074 126.05 83.1074C125.738 83.1074 125.455 83.0537 125.201 82.9463C124.947 82.8353 124.743 82.6491 124.589 82.3877C124.438 82.1263 124.363 81.7646 124.363 81.3027V77.8115H123.525V77.3765L124.369 77.0273L124.723 75.749H125.26V77.1133H126.984V77.8115H125.26V81.2759C125.26 81.6447 125.344 81.9204 125.513 82.103C125.685 82.2856 125.912 82.377 126.195 82.377ZM129.106 77.1133V83H128.214V77.1133H129.106ZM128.671 74.9111C128.818 74.9111 128.943 74.9595 129.047 75.0562C129.154 75.1493 129.208 75.2961 129.208 75.4966C129.208 75.6935 129.154 75.8403 129.047 75.937C128.943 76.0337 128.818 76.082 128.671 76.082C128.517 76.082 128.388 76.0337 128.284 75.937C128.184 75.8403 128.134 75.6935 128.134 75.4966C128.134 75.2961 128.184 75.1493 128.284 75.0562C128.388 74.9595 128.517 74.9111 128.671 74.9111ZM133.784 77.0059C134.482 77.0059 135.011 77.1777 135.369 77.5215C135.727 77.8617 135.906 78.4095 135.906 79.165V83H135.025V79.2241C135.025 78.7336 134.912 78.3665 134.687 78.123C134.465 77.8796 134.123 77.7578 133.661 77.7578C133.009 77.7578 132.551 77.9422 132.286 78.311C132.021 78.6799 131.888 79.2152 131.888 79.917V83H130.997V77.1133H131.716L131.851 77.9619H131.899C132.024 77.7542 132.184 77.5806 132.377 77.4409C132.57 77.2977 132.787 77.1903 133.027 77.1187C133.267 77.0435 133.519 77.0059 133.784 77.0059ZM139.386 85.6426C138.613 85.6426 138.017 85.4976 137.598 85.2075C137.179 84.9211 136.969 84.5182 136.969 83.999C136.969 83.6302 137.086 83.3151 137.318 83.0537C137.555 82.7923 137.881 82.6187 138.296 82.5327C138.142 82.4611 138.009 82.3537 137.898 82.2104C137.791 82.0672 137.737 81.9025 137.737 81.7163C137.737 81.5015 137.796 81.3135 137.915 81.1523C138.036 80.9876 138.221 80.8301 138.468 80.6797C138.16 80.5544 137.909 80.3431 137.716 80.0459C137.526 79.7451 137.431 79.396 137.431 78.9985C137.431 78.576 137.519 78.2161 137.694 77.9189C137.87 77.6182 138.124 77.389 138.457 77.2314C138.79 77.0739 139.193 76.9951 139.666 76.9951C139.769 76.9951 139.873 77.0005 139.977 77.0112C140.084 77.0184 140.187 77.0309 140.283 77.0488C140.38 77.0632 140.464 77.0811 140.536 77.1025H142.555V77.6772L141.47 77.8115C141.578 77.9512 141.667 78.1195 141.739 78.3164C141.81 78.5133 141.846 78.7318 141.846 78.9717C141.846 79.5589 141.647 80.0262 141.25 80.3735C140.853 80.7173 140.306 80.8892 139.612 80.8892C139.447 80.8892 139.279 80.8748 139.107 80.8462C138.931 80.9429 138.797 81.0503 138.704 81.1685C138.615 81.2866 138.57 81.4227 138.57 81.5767C138.57 81.6912 138.604 81.7826 138.672 81.8506C138.743 81.9186 138.846 81.9688 138.978 82.001C139.111 82.0296 139.27 82.0439 139.456 82.0439H140.493C141.134 82.0439 141.624 82.1782 141.964 82.4468C142.308 82.7153 142.48 83.1074 142.48 83.623C142.48 84.2747 142.215 84.7743 141.685 85.1216C141.155 85.4689 140.389 85.6426 139.386 85.6426ZM139.413 84.9443C139.9 84.9443 140.303 84.8942 140.622 84.7939C140.944 84.6973 141.184 84.5558 141.341 84.3696C141.502 84.187 141.583 83.9686 141.583 83.7144C141.583 83.478 141.529 83.299 141.422 83.1772C141.314 83.0591 141.157 82.9803 140.949 82.9409C140.742 82.8979 140.487 82.8765 140.187 82.8765H139.166C138.901 82.8765 138.67 82.9176 138.473 83C138.276 83.0824 138.124 83.2041 138.017 83.3652C137.913 83.5264 137.861 83.7269 137.861 83.9668C137.861 84.2855 137.995 84.5272 138.264 84.6919C138.532 84.8602 138.915 84.9443 139.413 84.9443ZM139.644 80.2393C140.07 80.2393 140.391 80.1318 140.605 79.917C140.82 79.7021 140.928 79.3888 140.928 78.9771C140.928 78.5366 140.819 78.2072 140.6 77.9888C140.382 77.7668 140.059 77.6558 139.633 77.6558C139.225 77.6558 138.91 77.7703 138.688 77.9995C138.47 78.2251 138.36 78.5563 138.36 78.9932C138.36 79.3942 138.471 79.7021 138.693 79.917C138.915 80.1318 139.232 80.2393 139.644 80.2393ZM151.138 80.9106C151.138 81.3761 151.022 81.7736 150.789 82.103C150.56 82.4289 150.238 82.6777 149.822 82.8496C149.407 83.0215 148.918 83.1074 148.356 83.1074C148.059 83.1074 147.778 83.0931 147.513 83.0645C147.248 83.0358 147.004 82.9946 146.782 82.9409C146.56 82.8872 146.365 82.821 146.197 82.7422V81.8667C146.465 81.9777 146.793 82.0815 147.18 82.1782C147.566 82.2713 147.971 82.3179 148.394 82.3179C148.787 82.3179 149.12 82.266 149.393 82.1621C149.665 82.0547 149.871 81.9025 150.01 81.7056C150.153 81.505 150.225 81.2651 150.225 80.9858C150.225 80.7173 150.166 80.4935 150.048 80.3145C149.93 80.1318 149.733 79.9671 149.457 79.8203C149.185 79.6699 148.812 79.5106 148.34 79.3423C148.007 79.2241 147.713 79.0952 147.459 78.9556C147.205 78.8123 146.992 78.6512 146.82 78.4722C146.648 78.2931 146.517 78.0854 146.428 77.8491C146.342 77.6128 146.299 77.3424 146.299 77.0381C146.299 76.6191 146.404 76.2611 146.616 75.9639C146.831 75.6631 147.126 75.4339 147.502 75.2764C147.882 75.1152 148.317 75.0347 148.807 75.0347C149.226 75.0347 149.613 75.0741 149.967 75.1528C150.325 75.2316 150.653 75.3372 150.95 75.4697L150.666 76.2539C150.383 76.1357 150.082 76.0373 149.763 75.9585C149.448 75.8797 149.122 75.8403 148.786 75.8403C148.449 75.8403 148.164 75.8905 147.932 75.9907C147.702 76.0874 147.527 76.2253 147.405 76.4043C147.284 76.5833 147.223 76.7964 147.223 77.0435C147.223 77.3192 147.28 77.5483 147.395 77.731C147.513 77.9136 147.699 78.0765 147.953 78.2197C148.211 78.3594 148.551 78.5062 148.974 78.6602C149.436 78.8285 149.828 79.0075 150.15 79.1973C150.472 79.3835 150.717 79.6126 150.886 79.8848C151.054 80.1533 151.138 80.4953 151.138 80.9106ZM157.471 77.1133V83H156.74L156.611 82.1729H156.563C156.441 82.377 156.284 82.5488 156.09 82.6885C155.897 82.8281 155.679 82.932 155.435 83C155.195 83.0716 154.939 83.1074 154.667 83.1074C154.201 83.1074 153.811 83.0322 153.496 82.8818C153.181 82.7314 152.943 82.4987 152.782 82.1836C152.624 81.8685 152.545 81.4639 152.545 80.9697V77.1133H153.448V80.9053C153.448 81.3958 153.559 81.7629 153.781 82.0063C154.003 82.2463 154.341 82.3662 154.796 82.3662C155.233 82.3662 155.58 82.2839 155.838 82.1191C156.099 81.9544 156.287 81.7127 156.402 81.394C156.516 81.0718 156.574 80.6779 156.574 80.2124V77.1133H157.471ZM162.122 77.0059C162.856 77.0059 163.442 77.2583 163.878 77.7632C164.315 78.2681 164.534 79.0272 164.534 80.0405C164.534 80.7101 164.433 81.2723 164.233 81.7271C164.032 82.1818 163.75 82.5256 163.384 82.7583C163.023 82.991 162.595 83.1074 162.101 83.1074C161.789 83.1074 161.515 83.0662 161.279 82.9839C161.042 82.9015 160.84 82.7905 160.672 82.6509C160.504 82.5112 160.364 82.359 160.253 82.1943H160.188C160.199 82.334 160.212 82.5023 160.226 82.6992C160.244 82.8962 160.253 83.068 160.253 83.2148V85.6318H159.356V77.1133H160.092L160.21 77.9834H160.253C160.368 77.8044 160.507 77.6414 160.672 77.4946C160.837 77.3442 161.037 77.2261 161.273 77.1401C161.513 77.0506 161.796 77.0059 162.122 77.0059ZM161.966 77.7578C161.558 77.7578 161.229 77.8366 160.978 77.9941C160.731 78.1517 160.55 78.388 160.436 78.7031C160.321 79.0146 160.26 79.4067 160.253 79.8794V80.0513C160.253 80.549 160.307 80.9697 160.414 81.3135C160.525 81.6572 160.706 81.9186 160.957 82.0977C161.211 82.2767 161.551 82.3662 161.977 82.3662C162.342 82.3662 162.647 82.2677 162.89 82.0708C163.134 81.8739 163.314 81.5999 163.433 81.249C163.554 80.8945 163.615 80.4881 163.615 80.0298C163.615 79.3351 163.479 78.7837 163.207 78.3755C162.938 77.9637 162.525 77.7578 161.966 77.7578ZM168.857 77.0059C169.591 77.0059 170.177 77.2583 170.614 77.7632C171.051 78.2681 171.269 79.0272 171.269 80.0405C171.269 80.7101 171.169 81.2723 170.968 81.7271C170.768 82.1818 170.485 82.5256 170.12 82.7583C169.758 82.991 169.33 83.1074 168.836 83.1074C168.524 83.1074 168.25 83.0662 168.014 82.9839C167.778 82.9015 167.576 82.7905 167.407 82.6509C167.239 82.5112 167.099 82.359 166.988 82.1943H166.924C166.935 82.334 166.947 82.5023 166.961 82.6992C166.979 82.8962 166.988 83.068 166.988 83.2148V85.6318H166.091V77.1133H166.827L166.945 77.9834H166.988C167.103 77.8044 167.243 77.6414 167.407 77.4946C167.572 77.3442 167.772 77.2261 168.009 77.1401C168.249 77.0506 168.532 77.0059 168.857 77.0059ZM168.702 77.7578C168.293 77.7578 167.964 77.8366 167.713 77.9941C167.466 78.1517 167.285 78.388 167.171 78.7031C167.056 79.0146 166.995 79.4067 166.988 79.8794V80.0513C166.988 80.549 167.042 80.9697 167.149 81.3135C167.26 81.6572 167.441 81.9186 167.692 82.0977C167.946 82.2767 168.286 82.3662 168.712 82.3662C169.078 82.3662 169.382 82.2677 169.625 82.0708C169.869 81.8739 170.05 81.5999 170.168 81.249C170.29 80.8945 170.351 80.4881 170.351 80.0298C170.351 79.3351 170.215 78.7837 169.942 78.3755C169.674 77.9637 169.26 77.7578 168.702 77.7578ZM173.724 83H172.827V74.6426H173.724V83ZM176.5 77.1133V83H175.609V77.1133H176.5ZM176.065 74.9111C176.212 74.9111 176.338 74.9595 176.441 75.0562C176.549 75.1493 176.603 75.2961 176.603 75.4966C176.603 75.6935 176.549 75.8403 176.441 75.937C176.338 76.0337 176.212 76.082 176.065 76.082C175.911 76.082 175.783 76.0337 175.679 75.937C175.578 75.8403 175.528 75.6935 175.528 75.4966C175.528 75.2961 175.578 75.1493 175.679 75.0562C175.783 74.9595 175.911 74.9111 176.065 74.9111ZM180.658 77.0059C181.159 77.0059 181.589 77.1169 181.947 77.3389C182.305 77.5609 182.579 77.8724 182.769 78.2734C182.958 78.6709 183.053 79.1364 183.053 79.6699V80.2231H178.987C178.998 80.9142 179.17 81.4406 179.503 81.8022C179.836 82.1639 180.305 82.3447 180.91 82.3447C181.283 82.3447 181.612 82.3107 181.898 82.2427C182.185 82.1746 182.482 82.0744 182.79 81.9419V82.7261C182.493 82.8586 182.197 82.9552 181.904 83.0161C181.614 83.077 181.27 83.1074 180.873 83.1074C180.307 83.1074 179.813 82.9928 179.39 82.7637C178.971 82.5309 178.645 82.1908 178.413 81.7432C178.18 81.2956 178.063 80.7477 178.063 80.0996C178.063 79.4658 178.169 78.918 178.38 78.4561C178.595 77.9906 178.896 77.6325 179.283 77.3818C179.673 77.1312 180.131 77.0059 180.658 77.0059ZM180.647 77.7363C180.171 77.7363 179.791 77.8921 179.508 78.2036C179.225 78.5151 179.057 78.9502 179.003 79.5088H182.119C182.115 79.1579 182.06 78.8499 181.952 78.585C181.848 78.3164 181.689 78.1087 181.474 77.9619C181.259 77.8115 180.984 77.7363 180.647 77.7363ZM188.376 81.3887C188.376 81.7646 188.281 82.0815 188.091 82.3394C187.905 82.5936 187.637 82.7852 187.286 82.9141C186.938 83.043 186.523 83.1074 186.04 83.1074C185.628 83.1074 185.271 83.0752 184.971 83.0107C184.67 82.9463 184.407 82.855 184.181 82.7368V81.915C184.421 82.0332 184.708 82.1406 185.041 82.2373C185.374 82.334 185.714 82.3823 186.061 82.3823C186.569 82.3823 186.938 82.3 187.167 82.1353C187.397 81.9705 187.511 81.7467 187.511 81.4639C187.511 81.3027 187.465 81.1613 187.372 81.0396C187.282 80.9142 187.13 80.7943 186.915 80.6797C186.7 80.5615 186.403 80.4326 186.023 80.293C185.647 80.1497 185.322 80.0083 185.046 79.8687C184.774 79.7254 184.562 79.5518 184.412 79.3477C184.265 79.1436 184.192 78.8786 184.192 78.5527C184.192 78.055 184.392 77.6737 184.793 77.4087C185.198 77.1401 185.728 77.0059 186.383 77.0059C186.738 77.0059 187.069 77.0417 187.377 77.1133C187.688 77.1813 187.979 77.2744 188.247 77.3926L187.946 78.1069C187.703 78.0031 187.443 77.9154 187.167 77.8438C186.892 77.7721 186.611 77.7363 186.324 77.7363C185.912 77.7363 185.596 77.8044 185.374 77.9404C185.155 78.0765 185.046 78.2627 185.046 78.499C185.046 78.6816 185.096 78.832 185.196 78.9502C185.3 79.0684 185.465 79.1794 185.69 79.2832C185.916 79.387 186.213 79.5088 186.582 79.6484C186.951 79.7845 187.27 79.9259 187.538 80.0728C187.807 80.216 188.013 80.3914 188.156 80.5991C188.303 80.8032 188.376 81.0664 188.376 81.3887ZM195.213 83H194.295V75.9531H191.824V75.1475H197.673V75.9531H195.213V83ZM203.802 80.0459C203.802 80.5293 203.739 80.9608 203.614 81.3403C203.488 81.7199 203.308 82.0404 203.071 82.3018C202.835 82.5632 202.549 82.7637 202.212 82.9033C201.879 83.0394 201.501 83.1074 201.079 83.1074C200.685 83.1074 200.323 83.0394 199.994 82.9033C199.668 82.7637 199.385 82.5632 199.145 82.3018C198.909 82.0404 198.724 81.7199 198.592 81.3403C198.463 80.9608 198.398 80.5293 198.398 80.0459C198.398 79.4014 198.508 78.8535 198.726 78.4023C198.944 77.9476 199.256 77.6021 199.661 77.3657C200.069 77.1258 200.554 77.0059 201.116 77.0059C201.653 77.0059 202.122 77.1258 202.523 77.3657C202.928 77.6056 203.241 77.953 203.463 78.4077C203.689 78.8589 203.802 79.4049 203.802 80.0459ZM199.322 80.0459C199.322 80.5186 199.385 80.9285 199.51 81.2759C199.636 81.6232 199.829 81.8918 200.09 82.0815C200.352 82.2713 200.688 82.3662 201.1 82.3662C201.508 82.3662 201.843 82.2713 202.104 82.0815C202.369 81.8918 202.565 81.6232 202.69 81.2759C202.815 80.9285 202.878 80.5186 202.878 80.0459C202.878 79.5768 202.815 79.1722 202.69 78.832C202.565 78.4883 202.371 78.2233 202.11 78.0371C201.848 77.8509 201.51 77.7578 201.095 77.7578C200.482 77.7578 200.033 77.9601 199.747 78.3647C199.464 78.7694 199.322 79.3298 199.322 80.0459ZM207.438 83.1074C206.693 83.1074 206.102 82.8532 205.666 82.3447C205.232 81.8363 205.016 81.0807 205.016 80.0781C205.016 79.0648 205.238 78.3003 205.682 77.7847C206.126 77.2655 206.716 77.0059 207.454 77.0059C207.766 77.0059 208.038 77.047 208.271 77.1294C208.503 77.2118 208.704 77.3228 208.872 77.4624C209.04 77.5985 209.182 77.7542 209.296 77.9297H209.361C209.347 77.8187 209.332 77.6665 209.318 77.4731C209.304 77.2798 209.296 77.1222 209.296 77.0005V74.6426H210.188V83H209.468L209.334 82.1621H209.296C209.185 82.3376 209.044 82.4969 208.872 82.6401C208.704 82.7834 208.501 82.8979 208.265 82.9839C208.032 83.0662 207.757 83.1074 207.438 83.1074ZM207.578 82.3662C208.208 82.3662 208.654 82.1872 208.915 81.8291C209.176 81.471 209.307 80.9393 209.307 80.2339V80.0728C209.307 79.3244 209.182 78.7497 208.931 78.3486C208.684 77.9476 208.233 77.7471 207.578 77.7471C207.03 77.7471 206.62 77.9583 206.348 78.3809C206.076 78.7998 205.939 79.3727 205.939 80.0996C205.939 80.8229 206.074 81.3815 206.342 81.7754C206.614 82.1693 207.026 82.3662 207.578 82.3662ZM214.281 77.0166C214.983 77.0166 215.504 77.1742 215.844 77.4893C216.184 77.8044 216.354 78.3075 216.354 78.9985V83H215.704L215.532 82.1299H215.489C215.325 82.3447 215.153 82.5256 214.974 82.6724C214.795 82.8156 214.587 82.9248 214.351 83C214.118 83.0716 213.831 83.1074 213.491 83.1074C213.133 83.1074 212.814 83.0448 212.535 82.9194C212.259 82.7941 212.041 82.6043 211.88 82.3501C211.722 82.0959 211.644 81.7736 211.644 81.3833C211.644 80.7961 211.876 80.3449 212.342 80.0298C212.807 79.7147 213.516 79.5428 214.469 79.5142L215.484 79.4712V79.1113C215.484 78.6029 215.375 78.2466 215.156 78.0425C214.938 77.8384 214.63 77.7363 214.232 77.7363C213.924 77.7363 213.631 77.7811 213.352 77.8706C213.072 77.9601 212.807 78.0658 212.557 78.1875L212.283 77.5107C212.548 77.3747 212.852 77.2583 213.196 77.1616C213.54 77.0649 213.901 77.0166 214.281 77.0166ZM215.473 80.0996L214.576 80.1372C213.842 80.1659 213.325 80.2858 213.024 80.4971C212.723 80.7083 212.573 81.0073 212.573 81.394C212.573 81.7306 212.675 81.9795 212.879 82.1406C213.083 82.3018 213.353 82.3823 213.69 82.3823C214.213 82.3823 214.641 82.2373 214.974 81.9473C215.307 81.6572 215.473 81.2222 215.473 80.6421V80.0996ZM217.262 77.1133H218.218L219.518 80.5293C219.593 80.7298 219.663 80.9232 219.727 81.1094C219.792 81.292 219.849 81.4674 219.899 81.6357C219.949 81.804 219.988 81.967 220.017 82.1245H220.055C220.105 81.9455 220.176 81.7109 220.27 81.4209C220.363 81.1273 220.463 80.8283 220.57 80.5239L221.8 77.1133H222.762L220.2 83.8647C220.064 84.2264 219.904 84.5415 219.722 84.8101C219.543 85.0786 219.324 85.2845 219.066 85.4277C218.809 85.5745 218.497 85.6479 218.132 85.6479C217.964 85.6479 217.815 85.6372 217.686 85.6157C217.557 85.5978 217.446 85.5763 217.353 85.5513V84.8369C217.432 84.8548 217.527 84.8709 217.638 84.8853C217.752 84.8996 217.87 84.9067 217.992 84.9067C218.214 84.9067 218.406 84.8638 218.567 84.7778C218.732 84.6955 218.873 84.5737 218.991 84.4126C219.109 84.2515 219.211 84.0599 219.297 83.8379L219.62 83.0107L217.262 77.1133ZM224.507 80.8193H223.922L223.675 75.1475H224.754L224.507 80.8193ZM223.567 82.4414C223.567 82.1908 223.628 82.0135 223.75 81.9097C223.872 81.8022 224.024 81.7485 224.207 81.7485C224.386 81.7485 224.536 81.8022 224.658 81.9097C224.783 82.0135 224.846 82.1908 224.846 82.4414C224.846 82.6885 224.783 82.8693 224.658 82.9839C224.536 83.0949 224.386 83.1504 224.207 83.1504C224.024 83.1504 223.872 83.0949 223.75 82.9839C223.628 82.8693 223.567 82.6885 223.567 82.4414Z" fill="#292929" style="mix-blend-mode:overlay"/>
</g>
<defs>
<clipPath id="clip0_316_104779">
<rect width="271" height="91" fill="white"/>
</clipPath>
</defs>
</svg>
