<svg width="62" height="56" viewBox="0 0 62 56" fill="none" xmlns="http://www.w3.org/2000/svg">
<path d="M10.0469 23.9297V22.2891C9.44792 22.2786 8.875 22.2266 8.32812 22.1328C7.78646 22.0391 7.34375 21.9167 7 21.7656V20.5C7.35938 20.6667 7.82031 20.8125 8.38281 20.9375C8.94531 21.0625 9.5 21.1302 10.0469 21.1406V17.7031C9.35938 17.5104 8.78906 17.2917 8.33594 17.0469C7.88802 16.7969 7.55208 16.4922 7.32812 16.1328C7.10417 15.7734 6.99219 15.3385 6.99219 14.8281C6.99219 14.2969 7.11719 13.8438 7.36719 13.4688C7.6224 13.0885 7.97917 12.7917 8.4375 12.5781C8.89583 12.3646 9.43229 12.2422 10.0469 12.2109V10.8594H11V12.1953C11.5573 12.2109 12.0651 12.2734 12.5234 12.3828C12.9818 12.487 13.4062 12.6224 13.7969 12.7891L13.3906 13.875C13.0365 13.7344 12.6536 13.6146 12.2422 13.5156C11.8307 13.4167 11.4167 13.349 11 13.3125V16.7266C11.6979 16.9297 12.2812 17.1458 12.75 17.375C13.224 17.6042 13.5807 17.888 13.8203 18.2266C14.0599 18.5651 14.1797 19.0026 14.1797 19.5391C14.1797 20.2995 13.901 20.9141 13.3438 21.3828C12.7865 21.8464 12.0052 22.1276 11 22.2266V23.9297H10.0469ZM11 21.0703C11.6406 21.0078 12.1172 20.8542 12.4297 20.6094C12.7474 20.3594 12.9062 20.0312 12.9062 19.625C12.9062 19.3333 12.8438 19.0938 12.7188 18.9062C12.599 18.7188 12.401 18.5573 12.125 18.4219C11.849 18.2812 11.474 18.1484 11 18.0234V21.0703ZM10.0469 16.3984V13.3438C9.65625 13.3698 9.32812 13.4427 9.0625 13.5625C8.79688 13.6823 8.59635 13.8385 8.46094 14.0312C8.33073 14.224 8.26562 14.4531 8.26562 14.7188C8.26562 15.026 8.32292 15.2839 8.4375 15.4922C8.55729 15.6953 8.7474 15.8698 9.00781 16.0156C9.27344 16.1562 9.61979 16.2839 10.0469 16.3984ZM20.7734 23H19.5078V14.9062C19.5078 14.599 19.5078 14.3359 19.5078 14.1172C19.513 13.8932 19.5182 13.6901 19.5234 13.5078C19.5339 13.3203 19.5469 13.1302 19.5625 12.9375C19.401 13.1042 19.25 13.2474 19.1094 13.3672C18.9688 13.4818 18.7943 13.625 18.5859 13.7969L17.2812 14.8438L16.6016 13.9609L19.6953 11.5781H20.7734V23ZM32.5859 23H25.1016V21.9141L28.1562 18.8125C28.724 18.2396 29.2005 17.7292 29.5859 17.2812C29.9766 16.8333 30.2734 16.3932 30.4766 15.9609C30.6797 15.5234 30.7812 15.0443 30.7812 14.5234C30.7812 13.8776 30.5885 13.3854 30.2031 13.0469C29.8229 12.7031 29.3203 12.5312 28.6953 12.5312C28.1484 12.5312 27.6641 12.625 27.2422 12.8125C26.8203 13 26.388 13.2656 25.9453 13.6094L25.25 12.7344C25.5521 12.4792 25.8802 12.2526 26.2344 12.0547C26.5938 11.8568 26.9766 11.7005 27.3828 11.5859C27.7943 11.4714 28.2318 11.4141 28.6953 11.4141C29.3984 11.4141 30.0052 11.5365 30.5156 11.7812C31.026 12.026 31.4193 12.375 31.6953 12.8281C31.9766 13.2812 32.1172 13.8203 32.1172 14.4453C32.1172 15.0495 31.9974 15.612 31.7578 16.1328C31.5182 16.6484 31.1823 17.1615 30.75 17.6719C30.3177 18.1771 29.8125 18.7135 29.2344 19.2812L26.75 21.7578V21.8125H32.5859V23ZM34.6406 22.1875C34.6406 21.8229 34.7292 21.5651 34.9062 21.4141C35.0833 21.2578 35.2995 21.1797 35.5547 21.1797C35.8203 21.1797 36.0443 21.2578 36.2266 21.4141C36.4089 21.5651 36.5 21.8229 36.5 22.1875C36.5 22.5469 36.4089 22.8099 36.2266 22.9766C36.0443 23.138 35.8203 23.2188 35.5547 23.2188C35.2995 23.2188 35.0833 23.138 34.9062 22.9766C34.7292 22.8099 34.6406 22.5469 34.6406 22.1875ZM39.9375 23L44.625 12.7656H38.3984V11.5781H46.0156V12.5781L41.3594 23H39.9375ZM55.1172 16.4453C55.1172 17.138 55.0677 17.8125 54.9688 18.4688C54.875 19.125 54.7109 19.737 54.4766 20.3047C54.2474 20.8724 53.9349 21.3698 53.5391 21.7969C53.1432 22.224 52.6458 22.5599 52.0469 22.8047C51.4531 23.0443 50.7422 23.1641 49.9141 23.1641C49.6901 23.1641 49.4349 23.1484 49.1484 23.1172C48.862 23.0911 48.6276 23.0521 48.4453 23V21.875C48.638 21.9427 48.8646 21.9974 49.125 22.0391C49.3854 22.0755 49.6406 22.0938 49.8906 22.0938C50.8646 22.0938 51.6302 21.8854 52.1875 21.4688C52.7448 21.0469 53.1458 20.4766 53.3906 19.7578C53.6354 19.0339 53.7734 18.2214 53.8047 17.3203H53.7109C53.5547 17.5703 53.349 17.8021 53.0938 18.0156C52.8438 18.224 52.5391 18.3932 52.1797 18.5234C51.8203 18.6484 51.401 18.7109 50.9219 18.7109C50.2604 18.7109 49.6823 18.5755 49.1875 18.3047C48.6979 18.0339 48.3151 17.6406 48.0391 17.125C47.7682 16.6094 47.6328 15.987 47.6328 15.2578C47.6328 14.4714 47.7812 13.7917 48.0781 13.2188C48.3802 12.6406 48.8021 12.1953 49.3438 11.8828C49.8854 11.5703 50.5234 11.4141 51.2578 11.4141C51.8203 11.4141 52.3359 11.5208 52.8047 11.7344C53.2734 11.9479 53.6797 12.2682 54.0234 12.6953C54.3724 13.1172 54.6406 13.6406 54.8281 14.2656C55.0208 14.8906 55.1172 15.6172 55.1172 16.4453ZM51.2578 12.5156C50.5651 12.5156 50.0026 12.7422 49.5703 13.1953C49.1432 13.6484 48.9297 14.3307 48.9297 15.2422C48.9297 15.9974 49.1146 16.5938 49.4844 17.0312C49.8542 17.4688 50.4245 17.6875 51.1953 17.6875C51.7266 17.6875 52.1849 17.5807 52.5703 17.3672C52.9609 17.1536 53.2604 16.8828 53.4688 16.5547C53.6823 16.2266 53.7891 15.8906 53.7891 15.5469C53.7891 15.2031 53.737 14.8542 53.6328 14.5C53.5339 14.1458 53.3802 13.8203 53.1719 13.5234C52.9635 13.2214 52.7005 12.9792 52.3828 12.7969C52.0651 12.6094 51.6901 12.5156 51.2578 12.5156Z" fill="#7E7E7E"/>
<path d="M15.541 46.8135V45.3779C15.0169 45.3688 14.5156 45.3232 14.0371 45.2412C13.5632 45.1592 13.1758 45.0521 12.875 44.9199V43.8125C13.1895 43.9583 13.5928 44.0859 14.085 44.1953C14.5771 44.3047 15.0625 44.3639 15.541 44.373V41.3652C14.9395 41.1966 14.4404 41.0052 14.0439 40.791C13.652 40.5723 13.3581 40.3057 13.1621 39.9912C12.9661 39.6768 12.8682 39.2962 12.8682 38.8496C12.8682 38.3848 12.9775 37.9883 13.1963 37.6602C13.4196 37.3275 13.7318 37.0677 14.1328 36.8809C14.5339 36.694 15.0033 36.5869 15.541 36.5596V35.377H16.375V36.5459C16.8626 36.5596 17.307 36.6143 17.708 36.71C18.109 36.8011 18.4805 36.9196 18.8223 37.0654L18.4668 38.0156C18.1569 37.8926 17.8219 37.7878 17.4619 37.7012C17.1019 37.6146 16.7396 37.5553 16.375 37.5234V40.5107C16.9857 40.6885 17.4961 40.8776 17.9062 41.0781C18.321 41.2786 18.6331 41.527 18.8428 41.8232C19.0524 42.1195 19.1572 42.5023 19.1572 42.9717C19.1572 43.637 18.9134 44.1748 18.4258 44.585C17.9382 44.9906 17.2546 45.2367 16.375 45.3232V46.8135H15.541ZM16.375 44.3115C16.9355 44.2568 17.3525 44.1224 17.626 43.9082C17.904 43.6895 18.043 43.4023 18.043 43.0469C18.043 42.7917 17.9883 42.582 17.8789 42.418C17.7741 42.2539 17.6009 42.1126 17.3594 41.9941C17.1178 41.8711 16.7897 41.7549 16.375 41.6455V44.3115ZM15.541 40.2236V37.5508C15.1992 37.5736 14.9121 37.6374 14.6797 37.7422C14.4473 37.847 14.2718 37.9837 14.1533 38.1523C14.0394 38.321 13.9824 38.5215 13.9824 38.7539C13.9824 39.0228 14.0326 39.2484 14.1328 39.4307C14.2376 39.6084 14.404 39.7611 14.6318 39.8887C14.8643 40.0117 15.1673 40.1234 15.541 40.2236ZM24.9268 46H23.8193V38.918C23.8193 38.6491 23.8193 38.4189 23.8193 38.2275C23.8239 38.0316 23.8285 37.8538 23.833 37.6943C23.8421 37.5303 23.8535 37.3639 23.8672 37.1953C23.7259 37.3411 23.5938 37.4665 23.4707 37.5713C23.3477 37.6715 23.195 37.7969 23.0127 37.9473L21.8711 38.8633L21.2764 38.0908L23.9834 36.0059H24.9268V46ZM31.8721 39.8887C32.5511 39.8887 33.1413 40.0049 33.6426 40.2373C34.1439 40.4652 34.5312 40.7979 34.8047 41.2354C35.0827 41.6729 35.2217 42.2038 35.2217 42.8281C35.2217 43.5117 35.0736 44.1019 34.7773 44.5986C34.4811 45.0908 34.055 45.4714 33.499 45.7402C32.943 46.0046 32.2777 46.1367 31.5029 46.1367C30.9834 46.1367 30.5003 46.0911 30.0537 46C29.6071 45.9089 29.2311 45.7721 28.9258 45.5898V44.5098C29.2585 44.7103 29.6618 44.8698 30.1357 44.9883C30.6097 45.1068 31.07 45.166 31.5166 45.166C32.0225 45.166 32.4645 45.0863 32.8428 44.9268C33.2256 44.7627 33.5218 44.5166 33.7314 44.1885C33.9456 43.8558 34.0527 43.4388 34.0527 42.9375C34.0527 42.2721 33.8477 41.7594 33.4375 41.3994C33.0319 41.0348 32.3893 40.8525 31.5098 40.8525C31.2272 40.8525 30.9173 40.8753 30.5801 40.9209C30.2428 40.9665 29.9648 41.0166 29.7461 41.0713L29.1719 40.6953L29.5547 36.0059H34.5244V37.0449H30.5254L30.2725 40.0596C30.4456 40.0231 30.6689 39.9867 30.9424 39.9502C31.2158 39.9092 31.5257 39.8887 31.8721 39.8887ZM37.0605 45.2891C37.0605 44.9701 37.138 44.7445 37.293 44.6123C37.4479 44.4756 37.637 44.4072 37.8604 44.4072C38.0928 44.4072 38.2887 44.4756 38.4482 44.6123C38.6077 44.7445 38.6875 44.9701 38.6875 45.2891C38.6875 45.6035 38.6077 45.8337 38.4482 45.9795C38.2887 46.1208 38.0928 46.1914 37.8604 46.1914C37.637 46.1914 37.4479 46.1208 37.293 45.9795C37.138 45.8337 37.0605 45.6035 37.0605 45.2891ZM46.9658 40.2646C46.9658 40.8708 46.9225 41.4609 46.8359 42.0352C46.7539 42.6094 46.6104 43.1449 46.4053 43.6416C46.2048 44.1383 45.9313 44.5736 45.585 44.9473C45.2386 45.321 44.8034 45.6149 44.2793 45.8291C43.7598 46.0387 43.1377 46.1436 42.4131 46.1436C42.2171 46.1436 41.9938 46.1299 41.7432 46.1025C41.4925 46.0798 41.2874 46.0456 41.1279 46V45.0156C41.2965 45.0749 41.4948 45.1227 41.7227 45.1592C41.9505 45.1911 42.1738 45.207 42.3926 45.207C43.2448 45.207 43.9147 45.0247 44.4023 44.6602C44.89 44.291 45.2409 43.792 45.4551 43.1631C45.6693 42.5296 45.79 41.8187 45.8174 41.0303H45.7354C45.5986 41.249 45.4186 41.4518 45.1953 41.6387C44.9766 41.821 44.71 41.9691 44.3955 42.083C44.0811 42.1924 43.7142 42.2471 43.2949 42.2471C42.7161 42.2471 42.2103 42.1286 41.7773 41.8916C41.349 41.6546 41.014 41.3105 40.7725 40.8594C40.5355 40.4082 40.417 39.8636 40.417 39.2256C40.417 38.5374 40.5469 37.9427 40.8066 37.4414C41.071 36.9355 41.4401 36.5459 41.9141 36.2725C42.388 35.999 42.9463 35.8623 43.5889 35.8623C44.0811 35.8623 44.5322 35.9557 44.9424 36.1426C45.3525 36.3294 45.708 36.6097 46.0088 36.9834C46.3141 37.3525 46.5488 37.8105 46.7129 38.3574C46.8815 38.9043 46.9658 39.54 46.9658 40.2646ZM43.5889 36.8262C42.9827 36.8262 42.4906 37.0244 42.1123 37.4209C41.7386 37.8174 41.5518 38.4144 41.5518 39.2119C41.5518 39.8727 41.7135 40.3945 42.0371 40.7773C42.3607 41.1602 42.8597 41.3516 43.5342 41.3516C43.999 41.3516 44.4001 41.2581 44.7373 41.0713C45.0791 40.8844 45.3411 40.6475 45.5234 40.3604C45.7103 40.0732 45.8037 39.7793 45.8037 39.4785C45.8037 39.1777 45.7581 38.8724 45.667 38.5625C45.5804 38.2526 45.446 37.9678 45.2637 37.708C45.0814 37.4437 44.8512 37.2318 44.5732 37.0723C44.2952 36.9082 43.9671 36.8262 43.5889 36.8262ZM54.9775 40.2646C54.9775 40.8708 54.9342 41.4609 54.8477 42.0352C54.7656 42.6094 54.6221 43.1449 54.417 43.6416C54.2165 44.1383 53.943 44.5736 53.5967 44.9473C53.2503 45.321 52.8151 45.6149 52.291 45.8291C51.7715 46.0387 51.1494 46.1436 50.4248 46.1436C50.2288 46.1436 50.0055 46.1299 49.7549 46.1025C49.5042 46.0798 49.2992 46.0456 49.1396 46V45.0156C49.3083 45.0749 49.5065 45.1227 49.7344 45.1592C49.9622 45.1911 50.1855 45.207 50.4043 45.207C51.2565 45.207 51.9264 45.0247 52.4141 44.6602C52.9017 44.291 53.2526 43.792 53.4668 43.1631C53.681 42.5296 53.8018 41.8187 53.8291 41.0303H53.7471C53.6104 41.249 53.4303 41.4518 53.207 41.6387C52.9883 41.821 52.7217 41.9691 52.4072 42.083C52.0928 42.1924 51.7259 42.2471 51.3066 42.2471C50.7279 42.2471 50.222 42.1286 49.7891 41.8916C49.3607 41.6546 49.0257 41.3105 48.7842 40.8594C48.5472 40.4082 48.4287 39.8636 48.4287 39.2256C48.4287 38.5374 48.5586 37.9427 48.8184 37.4414C49.0827 36.9355 49.4518 36.5459 49.9258 36.2725C50.3997 35.999 50.958 35.8623 51.6006 35.8623C52.0928 35.8623 52.5439 35.9557 52.9541 36.1426C53.3643 36.3294 53.7197 36.6097 54.0205 36.9834C54.3258 37.3525 54.5605 37.8105 54.7246 38.3574C54.8932 38.9043 54.9775 39.54 54.9775 40.2646ZM51.6006 36.8262C50.9945 36.8262 50.5023 37.0244 50.124 37.4209C49.7503 37.8174 49.5635 38.4144 49.5635 39.2119C49.5635 39.8727 49.7253 40.3945 50.0488 40.7773C50.3724 41.1602 50.8714 41.3516 51.5459 41.3516C52.0107 41.3516 52.4118 41.2581 52.749 41.0713C53.0908 40.8844 53.3529 40.6475 53.5352 40.3604C53.722 40.0732 53.8154 39.7793 53.8154 39.4785C53.8154 39.1777 53.7699 38.8724 53.6787 38.5625C53.5921 38.2526 53.4577 37.9678 53.2754 37.708C53.0931 37.4437 52.863 37.2318 52.585 37.0723C52.307 36.9082 51.9788 36.8262 51.6006 36.8262Z" fill="#B5B5B5"/>
<path d="M12 41.502H55.7295V41.8438H12V41.502Z" fill="#B5B5B5"/>
</svg>
