<svg width="66" height="40" viewBox="0 0 66 40" fill="none" xmlns="http://www.w3.org/2000/svg">
<rect x="6" y="6" width="54" height="28" rx="2" fill="#75B2C5"/>
<path d="M27.168 25H26.1719V16.4336H30.9414V17.3125H27.168V20.4531H30.7129V21.3262H27.168V25ZM33.1973 18.5781V25H32.2246V18.5781H33.1973ZM32.7227 16.1758C32.8828 16.1758 33.0195 16.2285 33.1328 16.334C33.25 16.4355 33.3086 16.5957 33.3086 16.8145C33.3086 17.0293 33.25 17.1895 33.1328 17.2949C33.0195 17.4004 32.8828 17.4531 32.7227 17.4531C32.5547 17.4531 32.4141 17.4004 32.3008 17.2949C32.1914 17.1895 32.1367 17.0293 32.1367 16.8145C32.1367 16.5957 32.1914 16.4355 32.3008 16.334C32.4141 16.2285 32.5547 16.1758 32.7227 16.1758ZM36.7891 21.7129L34.5684 18.5781H35.6816L37.375 21.0508L39.0625 18.5781H40.1641L37.9434 21.7129L40.2871 25H39.1738L37.375 22.3809L35.5645 25H34.4629L36.7891 21.7129Z" fill="white"/>
</svg>
