<svg width="389" height="112" viewBox="0 0 389 112" fill="none" xmlns="http://www.w3.org/2000/svg">
<g clip-path="url(#clip0_316_104779)">
<path d="M8.5083 19.771C8.5083 20.4904 8.32845 21.1047 7.96875 21.6138C7.61458 22.1174 7.11654 22.502 6.47461 22.7676C5.83268 23.0332 5.07731 23.166 4.2085 23.166C3.74919 23.166 3.31478 23.1439 2.90527 23.0996C2.49577 23.0553 2.11947 22.9917 1.77637 22.9087C1.43327 22.8257 1.13167 22.7233 0.871582 22.6016V21.2485C1.28662 21.4201 1.79297 21.5806 2.39062 21.73C2.98828 21.8739 3.61361 21.9458 4.2666 21.9458C4.87533 21.9458 5.38997 21.8656 5.81055 21.7051C6.23112 21.5391 6.54932 21.3039 6.76514 20.9995C6.98649 20.6896 7.09717 20.3188 7.09717 19.8872C7.09717 19.4722 7.00586 19.1263 6.82324 18.8496C6.64062 18.5674 6.33626 18.3128 5.91016 18.0859C5.48958 17.8535 4.91406 17.6073 4.18359 17.3472C3.66895 17.1646 3.21517 16.9653 2.82227 16.7495C2.42936 16.5282 2.1001 16.2791 1.83447 16.0024C1.56885 15.7257 1.36686 15.4048 1.22852 15.0396C1.0957 14.6743 1.0293 14.2565 1.0293 13.7861C1.0293 13.1387 1.19255 12.5853 1.51904 12.126C1.85107 11.6611 2.30762 11.307 2.88867 11.0635C3.47526 10.8145 4.14762 10.6899 4.90576 10.6899C5.55322 10.6899 6.15088 10.7508 6.69873 10.8726C7.25212 10.9943 7.75846 11.1576 8.21777 11.3623L7.77783 12.5742C7.34066 12.3916 6.87581 12.2394 6.3833 12.1177C5.89632 11.9959 5.39274 11.9351 4.87256 11.9351C4.35238 11.9351 3.91243 12.0125 3.55273 12.1675C3.19857 12.3169 2.92741 12.5299 2.73926 12.8066C2.55111 13.0833 2.45703 13.4126 2.45703 13.7944C2.45703 14.2205 2.54557 14.5747 2.72266 14.8569C2.90527 15.1392 3.19303 15.391 3.58594 15.6123C3.98438 15.8281 4.51009 16.055 5.16309 16.293C5.87695 16.5531 6.48291 16.8298 6.98096 17.123C7.479 17.4108 7.85807 17.765 8.11816 18.1855C8.37826 18.6006 8.5083 19.1291 8.5083 19.771ZM14.4268 23.166C13.6077 23.166 12.8856 22.9972 12.2603 22.6597C11.6349 22.3221 11.1479 21.8075 10.7993 21.1157C10.4507 20.424 10.2764 19.5524 10.2764 18.501C10.2764 17.3997 10.459 16.5005 10.8242 15.8032C11.195 15.1004 11.7041 14.5802 12.3516 14.2427C12.999 13.9051 13.735 13.7363 14.5596 13.7363C15.0133 13.7363 15.4505 13.7834 15.8711 13.8774C16.2972 13.966 16.6458 14.0794 16.917 14.2178L16.502 15.3716C16.2253 15.2609 15.9043 15.1613 15.5391 15.0728C15.1794 14.9842 14.8418 14.9399 14.5264 14.9399C13.8955 14.9399 13.3698 15.0755 12.9492 15.3467C12.5342 15.6178 12.2215 16.0163 12.0112 16.542C11.8065 17.0677 11.7041 17.7152 11.7041 18.4844C11.7041 19.2204 11.8037 19.8485 12.0029 20.3687C12.2077 20.8888 12.5093 21.2873 12.9077 21.564C13.3117 21.8351 13.8153 21.9707 14.4185 21.9707C14.8999 21.9707 15.3343 21.9209 15.7217 21.8213C16.109 21.7161 16.4604 21.5944 16.7759 21.4561V22.6846C16.4715 22.8395 16.1312 22.9585 15.7549 23.0415C15.3841 23.1245 14.9414 23.166 14.4268 23.166ZM23.0679 13.7363C23.2505 13.7363 23.4414 13.7474 23.6406 13.7695C23.8398 13.7861 24.0169 13.811 24.1719 13.8442L23.9976 15.1226C23.8481 15.0838 23.6821 15.0534 23.4995 15.0312C23.3169 15.0091 23.1453 14.998 22.9849 14.998C22.6196 14.998 22.2738 15.0728 21.9473 15.2222C21.6263 15.366 21.3441 15.5763 21.1006 15.853C20.8571 16.1242 20.6662 16.4535 20.5278 16.8408C20.3895 17.2227 20.3203 17.6488 20.3203 18.1191V23H18.9341V13.9023H20.0796L20.229 15.5791H20.2871C20.4753 15.2415 20.7021 14.9344 20.9678 14.6577C21.2334 14.3755 21.5405 14.1514 21.8892 13.9854C22.2433 13.8193 22.6362 13.7363 23.0679 13.7363ZM29.2935 13.7529C30.3781 13.7529 31.1833 13.9964 31.709 14.4834C32.2347 14.9704 32.4976 15.7479 32.4976 16.8159V23H31.4932L31.2275 21.6553H31.1611C30.9066 21.9873 30.641 22.2668 30.3643 22.4937C30.0876 22.715 29.7666 22.8838 29.4014 23C29.0417 23.1107 28.599 23.166 28.0732 23.166C27.5199 23.166 27.0273 23.0692 26.5957 22.8755C26.1696 22.6818 25.832 22.3885 25.583 21.9956C25.3395 21.6027 25.2178 21.1047 25.2178 20.5015C25.2178 19.5939 25.5775 18.8966 26.2969 18.4097C27.0163 17.9227 28.112 17.6571 29.584 17.6128L31.1528 17.5464V16.9902C31.1528 16.2044 30.984 15.6538 30.6465 15.3384C30.3089 15.0229 29.833 14.8652 29.2188 14.8652C28.7428 14.8652 28.2891 14.9344 27.8574 15.0728C27.4258 15.2111 27.0163 15.3743 26.6289 15.5625L26.2056 14.5166C26.6151 14.3063 27.0854 14.1265 27.6167 13.9771C28.1479 13.8276 28.7069 13.7529 29.2935 13.7529ZM31.1362 18.5176L29.75 18.5757C28.6156 18.62 27.8159 18.8053 27.3511 19.1318C26.8862 19.4583 26.6538 19.9204 26.6538 20.5181C26.6538 21.0382 26.8115 21.4229 27.127 21.6719C27.4424 21.9209 27.8602 22.0454 28.3804 22.0454C29.1883 22.0454 29.8496 21.8213 30.3643 21.373C30.8789 20.9248 31.1362 20.2524 31.1362 19.356V18.5176ZM39.6113 13.7363C40.7458 13.7363 41.6506 14.1265 42.3257 14.9067C43.0008 15.687 43.3384 16.8602 43.3384 18.4263C43.3384 19.4611 43.1834 20.3299 42.8735 21.0327C42.5636 21.7355 42.1265 22.2668 41.562 22.6265C41.0031 22.9862 40.3418 23.166 39.5781 23.166C39.0967 23.166 38.6733 23.1024 38.3081 22.9751C37.9429 22.8478 37.6302 22.6763 37.3701 22.4604C37.11 22.2446 36.8942 22.0094 36.7227 21.7549H36.623C36.6396 21.9707 36.659 22.2308 36.6812 22.5352C36.7088 22.8395 36.7227 23.1051 36.7227 23.332V27.0674H35.3364V13.9023H36.4736L36.6562 15.2471H36.7227C36.8997 14.9704 37.1156 14.7186 37.3701 14.4917C37.6247 14.2593 37.9346 14.0767 38.2998 13.9438C38.6706 13.8055 39.1077 13.7363 39.6113 13.7363ZM39.3706 14.8984C38.7397 14.8984 38.2306 15.0202 37.8433 15.2637C37.4614 15.5072 37.182 15.8724 37.0049 16.3594C36.8278 16.8408 36.7337 17.4468 36.7227 18.1772V18.4429C36.7227 19.2121 36.8057 19.8623 36.9717 20.3936C37.1432 20.9248 37.4227 21.3288 37.8101 21.6055C38.203 21.8822 38.7287 22.0205 39.3872 22.0205C39.9517 22.0205 40.422 21.8683 40.7983 21.564C41.1746 21.2596 41.4541 20.8363 41.6367 20.2939C41.8249 19.7461 41.9189 19.118 41.9189 18.4097C41.9189 17.3361 41.7087 16.4839 41.2881 15.853C40.873 15.2166 40.2339 14.8984 39.3706 14.8984ZM47.1235 10.084V13.313C47.1235 13.6838 47.1125 14.0435 47.0903 14.3921C47.0737 14.7407 47.0599 15.0119 47.0488 15.2056H47.1235C47.3726 14.7961 47.7323 14.4502 48.2026 14.168C48.673 13.8857 49.2734 13.7446 50.0039 13.7446C51.1439 13.7446 52.0514 14.1403 52.7266 14.9316C53.4072 15.7174 53.7476 16.8879 53.7476 18.4429C53.7476 19.4666 53.5926 20.3299 53.2827 21.0327C52.9728 21.7355 52.5356 22.2668 51.9712 22.6265C51.4067 22.9862 50.7399 23.166 49.9707 23.166C49.2513 23.166 48.6592 23.0332 48.1943 22.7676C47.735 22.4964 47.3809 22.1672 47.1318 21.7798H47.0239L46.7417 23H45.7456V10.084H47.1235ZM49.7798 14.8984C49.1213 14.8984 48.5983 15.0285 48.2109 15.2886C47.8236 15.5431 47.5441 15.9305 47.3726 16.4507C47.2065 16.9653 47.1235 17.6183 47.1235 18.4097V18.4844C47.1235 19.6299 47.3145 20.507 47.6963 21.1157C48.0781 21.7189 48.7726 22.0205 49.7798 22.0205C50.6265 22.0205 51.2601 21.7106 51.6807 21.0908C52.1068 20.471 52.3198 19.5856 52.3198 18.4346C52.3198 17.2614 52.1095 16.3787 51.689 15.7866C51.2739 15.1945 50.6375 14.8984 49.7798 14.8984ZM63.999 18.4346C63.999 19.1816 63.9022 19.8485 63.7085 20.4351C63.5148 21.0216 63.2354 21.5169 62.8701 21.9209C62.5049 22.3249 62.0622 22.6348 61.542 22.8506C61.0273 23.0609 60.4435 23.166 59.7905 23.166C59.1818 23.166 58.6229 23.0609 58.1138 22.8506C57.6102 22.6348 57.173 22.3249 56.8022 21.9209C56.437 21.5169 56.152 21.0216 55.9473 20.4351C55.748 19.8485 55.6484 19.1816 55.6484 18.4346C55.6484 17.4385 55.8172 16.5918 56.1548 15.8945C56.4924 15.1917 56.9738 14.6577 57.5991 14.2925C58.23 13.9217 58.9798 13.7363 59.8486 13.7363C60.6787 13.7363 61.4036 13.9217 62.0234 14.2925C62.6488 14.6632 63.133 15.2 63.4761 15.9028C63.8247 16.6001 63.999 17.444 63.999 18.4346ZM57.0762 18.4346C57.0762 19.165 57.173 19.7987 57.3667 20.3354C57.5604 20.8722 57.8592 21.2873 58.2632 21.5806C58.6672 21.8739 59.1873 22.0205 59.8237 22.0205C60.4546 22.0205 60.972 21.8739 61.376 21.5806C61.7855 21.2873 62.0871 20.8722 62.2808 20.3354C62.4744 19.7987 62.5713 19.165 62.5713 18.4346C62.5713 17.7096 62.4744 17.0843 62.2808 16.5586C62.0871 16.0273 61.7882 15.6178 61.3843 15.3301C60.9803 15.0423 60.4574 14.8984 59.8154 14.8984C58.8691 14.8984 58.1746 15.2111 57.7319 15.8364C57.2948 16.4618 57.0762 17.3278 57.0762 18.4346ZM74.2256 18.4346C74.2256 19.1816 74.1287 19.8485 73.9351 20.4351C73.7414 21.0216 73.4619 21.5169 73.0967 21.9209C72.7314 22.3249 72.2887 22.6348 71.7686 22.8506C71.2539 23.0609 70.6701 23.166 70.0171 23.166C69.4084 23.166 68.8494 23.0609 68.3403 22.8506C67.8368 22.6348 67.3996 22.3249 67.0288 21.9209C66.6636 21.5169 66.3786 21.0216 66.1738 20.4351C65.9746 19.8485 65.875 19.1816 65.875 18.4346C65.875 17.4385 66.0438 16.5918 66.3813 15.8945C66.7189 15.1917 67.2004 14.6577 67.8257 14.2925C68.4565 13.9217 69.2064 13.7363 70.0752 13.7363C70.9053 13.7363 71.6302 13.9217 72.25 14.2925C72.8753 14.6632 73.3595 15.2 73.7026 15.9028C74.0513 16.6001 74.2256 17.444 74.2256 18.4346ZM67.3027 18.4346C67.3027 19.165 67.3996 19.7987 67.5933 20.3354C67.7869 20.8722 68.0858 21.2873 68.4897 21.5806C68.8937 21.8739 69.4139 22.0205 70.0503 22.0205C70.6812 22.0205 71.1986 21.8739 71.6025 21.5806C72.012 21.2873 72.3136 20.8722 72.5073 20.3354C72.701 19.7987 72.7979 19.165 72.7979 18.4346C72.7979 17.7096 72.701 17.0843 72.5073 16.5586C72.3136 16.0273 72.0148 15.6178 71.6108 15.3301C71.2069 15.0423 70.6839 14.8984 70.042 14.8984C69.0957 14.8984 68.4012 15.2111 67.9585 15.8364C67.5213 16.4618 67.3027 17.3278 67.3027 18.4346ZM77.9775 10.084V16.791C77.9775 17.0124 77.9692 17.2835 77.9526 17.6045C77.936 17.9199 77.9222 18.1994 77.9111 18.4429H77.9692C78.0854 18.299 78.2542 18.0859 78.4756 17.8037C78.7025 17.5215 78.8934 17.2946 79.0483 17.123L82.0698 13.9023H83.6885L80.0278 17.7871L83.9541 23H82.2939L79.0815 18.6919L77.9775 19.7046V23H76.6079V10.084H77.9775ZM85.332 22.1367C85.332 21.7493 85.4261 21.4754 85.6143 21.3149C85.8024 21.1489 86.0321 21.0659 86.3032 21.0659C86.5854 21.0659 86.8234 21.1489 87.0171 21.3149C87.2108 21.4754 87.3076 21.7493 87.3076 22.1367C87.3076 22.5186 87.2108 22.798 87.0171 22.9751C86.8234 23.1466 86.5854 23.2324 86.3032 23.2324C86.0321 23.2324 85.8024 23.1466 85.6143 22.9751C85.4261 22.798 85.332 22.5186 85.332 22.1367ZM95.4009 11.9351C94.7313 11.9351 94.1281 12.0513 93.5913 12.2837C93.0601 12.5106 92.6063 12.8426 92.23 13.2798C91.8592 13.7114 91.5742 14.2344 91.375 14.8486C91.1758 15.4629 91.0762 16.1546 91.0762 16.9238C91.0762 17.9421 91.2339 18.8275 91.5493 19.5801C91.8703 20.3271 92.3462 20.9054 92.9771 21.3149C93.6134 21.7244 94.4076 21.9292 95.3594 21.9292C95.9017 21.9292 96.4108 21.8849 96.8867 21.7964C97.3682 21.7023 97.8358 21.5861 98.2896 21.4478V22.6763C97.8468 22.8423 97.382 22.964 96.895 23.0415C96.408 23.1245 95.8298 23.166 95.1602 23.166C93.9261 23.166 92.894 22.9115 92.064 22.4023C91.2394 21.8877 90.6196 21.1628 90.2046 20.2275C89.7951 19.2923 89.5903 18.1883 89.5903 16.9155C89.5903 15.9969 89.7176 15.1585 89.9722 14.4004C90.2323 13.6367 90.6086 12.9782 91.1011 12.4248C91.5991 11.8714 92.2078 11.4453 92.9272 11.1465C93.6522 10.8421 94.4823 10.6899 95.4175 10.6899C96.0317 10.6899 96.6239 10.7508 97.1938 10.8726C97.7638 10.9943 98.2785 11.1686 98.7378 11.3955L98.1733 12.5908C97.786 12.4137 97.3599 12.2616 96.895 12.1343C96.4357 12.0015 95.9377 11.9351 95.4009 11.9351ZM108.558 18.4346C108.558 19.1816 108.461 19.8485 108.267 20.4351C108.073 21.0216 107.794 21.5169 107.429 21.9209C107.063 22.3249 106.621 22.6348 106.101 22.8506C105.586 23.0609 105.002 23.166 104.349 23.166C103.74 23.166 103.181 23.0609 102.672 22.8506C102.169 22.6348 101.732 22.3249 101.361 21.9209C100.996 21.5169 100.711 21.0216 100.506 20.4351C100.307 19.8485 100.207 19.1816 100.207 18.4346C100.207 17.4385 100.376 16.5918 100.713 15.8945C101.051 15.1917 101.532 14.6577 102.158 14.2925C102.789 13.9217 103.538 13.7363 104.407 13.7363C105.237 13.7363 105.962 13.9217 106.582 14.2925C107.207 14.6632 107.692 15.2 108.035 15.9028C108.383 16.6001 108.558 17.444 108.558 18.4346ZM101.635 18.4346C101.635 19.165 101.732 19.7987 101.925 20.3354C102.119 20.8722 102.418 21.2873 102.822 21.5806C103.226 21.8739 103.746 22.0205 104.382 22.0205C105.013 22.0205 105.531 21.8739 105.935 21.5806C106.344 21.2873 106.646 20.8722 106.839 20.3354C107.033 19.7987 107.13 19.165 107.13 18.4346C107.13 17.7096 107.033 17.0843 106.839 16.5586C106.646 16.0273 106.347 15.6178 105.943 15.3301C105.539 15.0423 105.016 14.8984 104.374 14.8984C103.428 14.8984 102.733 15.2111 102.291 15.8364C101.853 16.4618 101.635 17.3278 101.635 18.4346ZM120.818 13.7363C121.819 13.7363 122.575 13.9992 123.084 14.5249C123.593 15.0451 123.848 15.8835 123.848 17.04V23H122.486V17.1064C122.486 16.3704 122.326 15.8198 122.005 15.4546C121.689 15.0838 121.219 14.8984 120.594 14.8984C119.714 14.8984 119.075 15.153 118.676 15.6621C118.278 16.1712 118.079 16.9211 118.079 17.9116V23H116.709V17.1064C116.709 16.6139 116.637 16.2044 116.493 15.8779C116.355 15.5514 116.145 15.3079 115.862 15.1475C115.586 14.9814 115.234 14.8984 114.808 14.8984C114.205 14.8984 113.721 15.0229 113.355 15.272C112.99 15.521 112.725 15.8918 112.559 16.3843C112.398 16.8713 112.318 17.4717 112.318 18.1855V23H110.94V13.9023H112.052L112.26 15.189H112.334C112.517 14.8735 112.747 14.6079 113.023 14.3921C113.3 14.1763 113.61 14.013 113.953 13.9023C114.296 13.7917 114.661 13.7363 115.049 13.7363C115.741 13.7363 116.319 13.8664 116.784 14.1265C117.254 14.381 117.594 14.7712 117.805 15.2969H117.879C118.178 14.7712 118.588 14.381 119.108 14.1265C119.628 13.8664 120.198 13.7363 120.818 13.7363ZM130.322 19.0488V17.8203H134.439V19.0488H130.322ZM10.8574 47H9.44629V41.2808H3.07129V47H1.66016V34.8643H3.07129V40.0356H9.44629V34.8643H10.8574V47ZM21.8311 42.4346C21.8311 43.1816 21.7342 43.8485 21.5405 44.4351C21.3468 45.0216 21.0674 45.5169 20.7021 45.9209C20.3369 46.3249 19.8942 46.6348 19.374 46.8506C18.8594 47.0609 18.2756 47.166 17.6226 47.166C17.0138 47.166 16.4549 47.0609 15.9458 46.8506C15.4422 46.6348 15.005 46.3249 14.6343 45.9209C14.269 45.5169 13.984 45.0216 13.7793 44.4351C13.5801 43.8485 13.4805 43.1816 13.4805 42.4346C13.4805 41.4385 13.6493 40.5918 13.9868 39.8945C14.3244 39.1917 14.8058 38.6577 15.4312 38.2925C16.062 37.9217 16.8118 37.7363 17.6807 37.7363C18.5107 37.7363 19.2357 37.9217 19.8555 38.2925C20.4808 38.6632 20.965 39.2 21.3081 39.9028C21.6567 40.6001 21.8311 41.444 21.8311 42.4346ZM14.9082 42.4346C14.9082 43.165 15.005 43.7987 15.1987 44.3354C15.3924 44.8722 15.6912 45.2873 16.0952 45.5806C16.4992 45.8739 17.0194 46.0205 17.6558 46.0205C18.2866 46.0205 18.804 45.8739 19.208 45.5806C19.6175 45.2873 19.9191 44.8722 20.1128 44.3354C20.3065 43.7987 20.4033 43.165 20.4033 42.4346C20.4033 41.7096 20.3065 41.0843 20.1128 40.5586C19.9191 40.0273 19.6203 39.6178 19.2163 39.3301C18.8123 39.0423 18.2894 38.8984 17.6475 38.8984C16.7012 38.8984 16.0067 39.2111 15.564 39.8364C15.1268 40.4618 14.9082 41.3278 14.9082 42.4346ZM25.5996 47H24.2134V34.084H25.5996V47ZM36.3574 42.4346C36.3574 43.1816 36.2606 43.8485 36.0669 44.4351C35.8732 45.0216 35.5938 45.5169 35.2285 45.9209C34.8633 46.3249 34.4206 46.6348 33.9004 46.8506C33.3857 47.0609 32.8019 47.166 32.1489 47.166C31.5402 47.166 30.9813 47.0609 30.4722 46.8506C29.9686 46.6348 29.5314 46.3249 29.1606 45.9209C28.7954 45.5169 28.5104 45.0216 28.3057 44.4351C28.1064 43.8485 28.0068 43.1816 28.0068 42.4346C28.0068 41.4385 28.1756 40.5918 28.5132 39.8945C28.8507 39.1917 29.3322 38.6577 29.9575 38.2925C30.5884 37.9217 31.3382 37.7363 32.207 37.7363C33.0371 37.7363 33.762 37.9217 34.3818 38.2925C35.0072 38.6632 35.4914 39.2 35.8345 39.9028C36.1831 40.6001 36.3574 41.444 36.3574 42.4346ZM29.4346 42.4346C29.4346 43.165 29.5314 43.7987 29.7251 44.3354C29.9188 44.8722 30.2176 45.2873 30.6216 45.5806C31.0256 45.8739 31.5457 46.0205 32.1821 46.0205C32.813 46.0205 33.3304 45.8739 33.7344 45.5806C34.1439 45.2873 34.4455 44.8722 34.6392 44.3354C34.8328 43.7987 34.9297 43.165 34.9297 42.4346C34.9297 41.7096 34.8328 41.0843 34.6392 40.5586C34.4455 40.0273 34.1466 39.6178 33.7427 39.3301C33.3387 39.0423 32.8158 38.8984 32.1738 38.8984C31.2275 38.8984 30.533 39.2111 30.0903 39.8364C29.6532 40.4618 29.4346 41.3278 29.4346 42.4346ZM41.2798 51.084C40.0845 51.084 39.1631 50.8599 38.5156 50.4116C37.8682 49.9689 37.5444 49.3464 37.5444 48.5439C37.5444 47.974 37.7243 47.487 38.084 47.083C38.4492 46.679 38.9528 46.4106 39.5947 46.2778C39.3568 46.1672 39.152 46.0011 38.9805 45.7798C38.8145 45.5584 38.7314 45.3039 38.7314 45.0161C38.7314 44.6841 38.8228 44.3936 39.0054 44.1445C39.1935 43.89 39.4785 43.6465 39.8604 43.4141C39.3844 43.2204 38.9971 42.8939 38.6982 42.4346C38.4049 41.9697 38.2583 41.4302 38.2583 40.8159C38.2583 40.1629 38.3939 39.6068 38.665 39.1475C38.9362 38.6826 39.3291 38.3285 39.8438 38.085C40.3584 37.8415 40.981 37.7197 41.7114 37.7197C41.8719 37.7197 42.0324 37.728 42.1929 37.7446C42.3589 37.7557 42.5166 37.7751 42.666 37.8027C42.8154 37.8249 42.9455 37.8525 43.0562 37.8857H46.1772V38.7739L44.5005 38.9814C44.6665 39.1973 44.8049 39.4574 44.9155 39.7617C45.0262 40.0661 45.0815 40.4036 45.0815 40.7744C45.0815 41.682 44.7744 42.4041 44.1602 42.9409C43.5459 43.4722 42.702 43.7378 41.6284 43.7378C41.3739 43.7378 41.1138 43.7157 40.8481 43.6714C40.577 43.8208 40.3695 43.9868 40.2256 44.1694C40.0872 44.3521 40.0181 44.5623 40.0181 44.8003C40.0181 44.9774 40.0706 45.1185 40.1758 45.2236C40.2865 45.3288 40.4442 45.4062 40.6489 45.4561C40.8537 45.5003 41.0999 45.5225 41.3877 45.5225H42.9897C43.9803 45.5225 44.7384 45.73 45.2642 46.145C45.7954 46.5601 46.061 47.166 46.061 47.9629C46.061 48.9701 45.6515 49.742 44.8325 50.2788C44.0135 50.8156 42.8293 51.084 41.2798 51.084ZM41.3213 50.0049C42.0739 50.0049 42.6965 49.9274 43.189 49.7725C43.687 49.623 44.0578 49.4045 44.3013 49.1167C44.5503 48.8345 44.6748 48.4969 44.6748 48.104C44.6748 47.7388 44.5918 47.4621 44.4258 47.2739C44.2598 47.0913 44.0163 46.9696 43.6953 46.9087C43.3743 46.8423 42.9814 46.8091 42.5166 46.8091H40.9395C40.5299 46.8091 40.173 46.8727 39.8687 47C39.5643 47.1273 39.3291 47.3154 39.1631 47.5645C39.0026 47.8135 38.9224 48.1234 38.9224 48.4941C38.9224 48.9867 39.1299 49.3602 39.5449 49.6147C39.96 49.8748 40.5521 50.0049 41.3213 50.0049ZM41.6782 42.7334C42.3368 42.7334 42.832 42.5674 43.1641 42.2354C43.4961 41.9033 43.6621 41.4191 43.6621 40.7827C43.6621 40.1021 43.4933 39.5929 43.1558 39.2554C42.8182 38.9123 42.3201 38.7407 41.6616 38.7407C41.0308 38.7407 40.5438 38.9178 40.2007 39.272C39.8631 39.6206 39.6943 40.1325 39.6943 40.8076C39.6943 41.4274 39.8659 41.9033 40.209 42.2354C40.5521 42.5674 41.0418 42.7334 41.6782 42.7334ZM52.104 37.7363C52.2866 37.7363 52.4775 37.7474 52.6768 37.7695C52.876 37.7861 53.0531 37.811 53.208 37.8442L53.0337 39.1226C52.8843 39.0838 52.7183 39.0534 52.5356 39.0312C52.353 39.0091 52.1815 38.998 52.021 38.998C51.6558 38.998 51.3099 39.0728 50.9834 39.2222C50.6624 39.366 50.3802 39.5763 50.1367 39.853C49.8932 40.1242 49.7023 40.4535 49.564 40.8408C49.4256 41.2227 49.3564 41.6488 49.3564 42.1191V47H47.9702V37.9023H49.1157L49.2651 39.5791H49.3232C49.5114 39.2415 49.7383 38.9344 50.0039 38.6577C50.2695 38.3755 50.5767 38.1514 50.9253 37.9854C51.2795 37.8193 51.6724 37.7363 52.104 37.7363ZM58.3296 37.7529C59.4142 37.7529 60.2194 37.9964 60.7451 38.4834C61.2708 38.9704 61.5337 39.7479 61.5337 40.8159V47H60.5293L60.2637 45.6553H60.1973C59.9427 45.9873 59.6771 46.2668 59.4004 46.4937C59.1237 46.715 58.8027 46.8838 58.4375 47C58.0778 47.1107 57.6351 47.166 57.1094 47.166C56.556 47.166 56.0635 47.0692 55.6318 46.8755C55.2057 46.6818 54.8682 46.3885 54.6191 45.9956C54.3757 45.6027 54.2539 45.1047 54.2539 44.5015C54.2539 43.5939 54.6136 42.8966 55.333 42.4097C56.0524 41.9227 57.1481 41.6571 58.6201 41.6128L60.189 41.5464V40.9902C60.189 40.2044 60.0202 39.6538 59.6826 39.3384C59.3451 39.0229 58.8691 38.8652 58.2549 38.8652C57.779 38.8652 57.3252 38.9344 56.8936 39.0728C56.4619 39.2111 56.0524 39.3743 55.665 39.5625L55.2417 38.5166C55.6512 38.3063 56.1216 38.1265 56.6528 37.9771C57.1841 37.8276 57.743 37.7529 58.3296 37.7529ZM60.1724 42.5176L58.7861 42.5757C57.6517 42.62 56.8521 42.8053 56.3872 43.1318C55.9224 43.4583 55.6899 43.9204 55.6899 44.5181C55.6899 45.0382 55.8477 45.4229 56.1631 45.6719C56.4785 45.9209 56.8963 46.0454 57.4165 46.0454C58.2244 46.0454 58.8857 45.8213 59.4004 45.373C59.915 44.9248 60.1724 44.2524 60.1724 43.356V42.5176ZM68.6475 37.7363C69.7819 37.7363 70.6867 38.1265 71.3618 38.9067C72.0369 39.687 72.3745 40.8602 72.3745 42.4263C72.3745 43.4611 72.2196 44.3299 71.9097 45.0327C71.5998 45.7355 71.1626 46.2668 70.5981 46.6265C70.0392 46.9862 69.3779 47.166 68.6143 47.166C68.1328 47.166 67.7095 47.1024 67.3442 46.9751C66.979 46.8478 66.6663 46.6763 66.4062 46.4604C66.1462 46.2446 65.9303 46.0094 65.7588 45.7549H65.6592C65.6758 45.9707 65.6951 46.2308 65.7173 46.5352C65.745 46.8395 65.7588 47.1051 65.7588 47.332V51.0674H64.3726V37.9023H65.5098L65.6924 39.2471H65.7588C65.9359 38.9704 66.1517 38.7186 66.4062 38.4917C66.6608 38.2593 66.9707 38.0767 67.3359 37.9438C67.7067 37.8055 68.1439 37.7363 68.6475 37.7363ZM68.4067 38.8984C67.7759 38.8984 67.2668 39.0202 66.8794 39.2637C66.4976 39.5072 66.2181 39.8724 66.041 40.3594C65.8639 40.8408 65.7699 41.4468 65.7588 42.1772V42.4429C65.7588 43.2121 65.8418 43.8623 66.0078 44.3936C66.1794 44.9248 66.4588 45.3288 66.8462 45.6055C67.2391 45.8822 67.7648 46.0205 68.4233 46.0205C68.9878 46.0205 69.4582 45.8683 69.8345 45.564C70.2108 45.2596 70.4902 44.8363 70.6729 44.2939C70.861 43.7461 70.9551 43.118 70.9551 42.4097C70.9551 41.3361 70.7448 40.4839 70.3242 39.853C69.9092 39.2166 69.27 38.8984 68.4067 38.8984ZM76.1597 34.084V37.9438C76.1597 38.1652 76.1541 38.3893 76.1431 38.6162C76.132 38.8376 76.1126 39.0423 76.085 39.2305H76.1763C76.3644 38.9095 76.6024 38.6411 76.8901 38.4253C77.1834 38.2039 77.5155 38.0379 77.8862 37.9272C78.257 37.811 78.6499 37.7529 79.0649 37.7529C79.7954 37.7529 80.4041 37.8691 80.8911 38.1016C81.3836 38.334 81.7516 38.6937 81.9951 39.1807C82.2441 39.6676 82.3687 40.2985 82.3687 41.0732V47H81.0073V41.1646C81.0073 40.4064 80.833 39.8392 80.4844 39.4629C80.1413 39.0866 79.6128 38.8984 78.8989 38.8984C78.2238 38.8984 77.6842 39.0285 77.2803 39.2886C76.8818 39.5431 76.5941 39.9194 76.417 40.4175C76.2454 40.9155 76.1597 41.5243 76.1597 42.2437V47H74.7817V34.084H76.1597ZM86.5854 37.9023V47H85.2075V37.9023H86.5854ZM85.9131 34.499C86.14 34.499 86.3337 34.5737 86.4941 34.7231C86.6602 34.867 86.7432 35.0939 86.7432 35.4038C86.7432 35.7082 86.6602 35.9351 86.4941 36.0845C86.3337 36.2339 86.14 36.3086 85.9131 36.3086C85.6751 36.3086 85.4759 36.2339 85.3154 36.0845C85.1605 35.9351 85.083 35.7082 85.083 35.4038C85.083 35.0939 85.1605 34.867 85.3154 34.7231C85.4759 34.5737 85.6751 34.499 85.9131 34.499ZM93.1514 47.166C92.3324 47.166 91.6102 46.9972 90.9849 46.6597C90.3595 46.3221 89.8726 45.8075 89.5239 45.1157C89.1753 44.424 89.001 43.5524 89.001 42.501C89.001 41.3997 89.1836 40.5005 89.5488 39.8032C89.9196 39.1004 90.4287 38.5802 91.0762 38.2427C91.7236 37.9051 92.4596 37.7363 93.2842 37.7363C93.738 37.7363 94.1751 37.7834 94.5957 37.8774C95.0218 37.966 95.3704 38.0794 95.6416 38.2178L95.2266 39.3716C94.9499 39.2609 94.6289 39.1613 94.2637 39.0728C93.904 38.9842 93.5664 38.9399 93.251 38.9399C92.6201 38.9399 92.0944 39.0755 91.6738 39.3467C91.2588 39.6178 90.9461 40.0163 90.7358 40.542C90.5311 41.0677 90.4287 41.7152 90.4287 42.4844C90.4287 43.2204 90.5283 43.8485 90.7275 44.3687C90.9323 44.8888 91.2339 45.2873 91.6323 45.564C92.0363 45.8351 92.5399 45.9707 93.1431 45.9707C93.6245 45.9707 94.0589 45.9209 94.4463 45.8213C94.8337 45.7161 95.1851 45.5944 95.5005 45.4561V46.6846C95.1961 46.8395 94.8558 46.9585 94.4795 47.0415C94.1087 47.1245 93.666 47.166 93.1514 47.166ZM107.62 47L103.544 36.2588H103.478C103.5 36.4857 103.519 36.7624 103.536 37.0889C103.552 37.4154 103.566 37.7723 103.577 38.1597C103.588 38.5415 103.594 38.9316 103.594 39.3301V47H102.282V34.8643H104.374L108.217 44.958H108.275L112.177 34.8643H114.252V47H112.857V39.2305C112.857 38.8708 112.863 38.5111 112.874 38.1514C112.885 37.7861 112.899 37.443 112.916 37.1221C112.932 36.7956 112.949 36.5133 112.965 36.2754H112.899L108.773 47H107.62ZM118.743 37.9023V47H117.365V37.9023H118.743ZM118.07 34.499C118.297 34.499 118.491 34.5737 118.651 34.7231C118.817 34.867 118.9 35.0939 118.9 35.4038C118.9 35.7082 118.817 35.9351 118.651 36.0845C118.491 36.2339 118.297 36.3086 118.07 36.3086C117.832 36.3086 117.633 36.2339 117.473 36.0845C117.318 35.9351 117.24 35.7082 117.24 35.4038C117.24 35.0939 117.318 34.867 117.473 34.7231C117.633 34.5737 117.832 34.499 118.07 34.499ZM125.798 37.7363C125.981 37.7363 126.172 37.7474 126.371 37.7695C126.57 37.7861 126.747 37.811 126.902 37.8442L126.728 39.1226C126.579 39.0838 126.413 39.0534 126.23 39.0312C126.047 39.0091 125.876 38.998 125.715 38.998C125.35 38.998 125.004 39.0728 124.678 39.2222C124.357 39.366 124.075 39.5763 123.831 39.853C123.588 40.1242 123.397 40.4535 123.258 40.8408C123.12 41.2227 123.051 41.6488 123.051 42.1191V47H121.665V37.9023H122.81L122.959 39.5791H123.018C123.206 39.2415 123.433 38.9344 123.698 38.6577C123.964 38.3755 124.271 38.1514 124.62 37.9854C124.974 37.8193 125.367 37.7363 125.798 37.7363ZM132.754 37.7363C132.937 37.7363 133.128 37.7474 133.327 37.7695C133.526 37.7861 133.703 37.811 133.858 37.8442L133.684 39.1226C133.535 39.0838 133.369 39.0534 133.186 39.0312C133.003 39.0091 132.832 38.998 132.671 38.998C132.306 38.998 131.96 39.0728 131.634 39.2222C131.313 39.366 131.031 39.5763 130.787 39.853C130.544 40.1242 130.353 40.4535 130.214 40.8408C130.076 41.2227 130.007 41.6488 130.007 42.1191V47H128.621V37.9023H129.766L129.916 39.5791H129.974C130.162 39.2415 130.389 38.9344 130.654 38.6577C130.92 38.3755 131.227 38.1514 131.576 37.9854C131.93 37.8193 132.323 37.7363 132.754 37.7363ZM143.421 42.4346C143.421 43.1816 143.324 43.8485 143.13 44.4351C142.937 45.0216 142.657 45.5169 142.292 45.9209C141.927 46.3249 141.484 46.6348 140.964 46.8506C140.449 47.0609 139.865 47.166 139.212 47.166C138.604 47.166 138.045 47.0609 137.536 46.8506C137.032 46.6348 136.595 46.3249 136.224 45.9209C135.859 45.5169 135.574 45.0216 135.369 44.4351C135.17 43.8485 135.07 43.1816 135.07 42.4346C135.07 41.4385 135.239 40.5918 135.577 39.8945C135.914 39.1917 136.396 38.6577 137.021 38.2925C137.652 37.9217 138.402 37.7363 139.271 37.7363C140.101 37.7363 140.826 37.9217 141.445 38.2925C142.071 38.6632 142.555 39.2 142.898 39.9028C143.247 40.6001 143.421 41.444 143.421 42.4346ZM136.498 42.4346C136.498 43.165 136.595 43.7987 136.789 44.3354C136.982 44.8722 137.281 45.2873 137.685 45.5806C138.089 45.8739 138.609 46.0205 139.246 46.0205C139.876 46.0205 140.394 45.8739 140.798 45.5806C141.207 45.2873 141.509 44.8722 141.703 44.3354C141.896 43.7987 141.993 43.165 141.993 42.4346C141.993 41.7096 141.896 41.0843 141.703 40.5586C141.509 40.0273 141.21 39.6178 140.806 39.3301C140.402 39.0423 139.879 38.8984 139.237 38.8984C138.291 38.8984 137.597 39.2111 137.154 39.8364C136.717 40.4618 136.498 41.3278 136.498 42.4346ZM149.937 37.7363C150.12 37.7363 150.311 37.7474 150.51 37.7695C150.709 37.7861 150.886 37.811 151.041 37.8442L150.867 39.1226C150.717 39.0838 150.551 39.0534 150.369 39.0312C150.186 39.0091 150.014 38.998 149.854 38.998C149.489 38.998 149.143 39.0728 148.816 39.2222C148.495 39.366 148.213 39.5763 147.97 39.853C147.726 40.1242 147.535 40.4535 147.397 40.8408C147.259 41.2227 147.189 41.6488 147.189 42.1191V47H145.803V37.9023H146.949L147.098 39.5791H147.156C147.344 39.2415 147.571 38.9344 147.837 38.6577C148.103 38.3755 148.41 38.1514 148.758 37.9854C149.112 37.8193 149.505 37.7363 149.937 37.7363ZM160.554 34.8643C162.12 34.8643 163.263 35.1714 163.982 35.7856C164.707 36.3944 165.069 37.2687 165.069 38.4087C165.069 38.9233 164.984 39.4131 164.812 39.8779C164.646 40.3372 164.375 40.744 163.999 41.0981C163.622 41.4468 163.127 41.7235 162.513 41.9282C161.904 42.1274 161.157 42.2271 160.271 42.2271H158.794V47H157.383V34.8643H160.554ZM160.421 36.0679H158.794V41.0151H160.114C160.889 41.0151 161.533 40.9321 162.048 40.7661C162.568 40.6001 162.958 40.3317 163.218 39.9609C163.478 39.5846 163.608 39.0866 163.608 38.4668C163.608 37.6589 163.351 37.0584 162.836 36.6655C162.322 36.2671 161.517 36.0679 160.421 36.0679ZM170.805 37.7529C171.89 37.7529 172.695 37.9964 173.221 38.4834C173.746 38.9704 174.009 39.7479 174.009 40.8159V47H173.005L172.739 45.6553H172.673C172.418 45.9873 172.153 46.2668 171.876 46.4937C171.599 46.715 171.278 46.8838 170.913 47C170.553 47.1107 170.111 47.166 169.585 47.166C169.032 47.166 168.539 47.0692 168.107 46.8755C167.681 46.6818 167.344 46.3885 167.095 45.9956C166.851 45.6027 166.729 45.1047 166.729 44.5015C166.729 43.5939 167.089 42.8966 167.809 42.4097C168.528 41.9227 169.624 41.6571 171.096 41.6128L172.665 41.5464V40.9902C172.665 40.2044 172.496 39.6538 172.158 39.3384C171.821 39.0229 171.345 38.8652 170.73 38.8652C170.255 38.8652 169.801 38.9344 169.369 39.0728C168.938 39.2111 168.528 39.3743 168.141 39.5625L167.717 38.5166C168.127 38.3063 168.597 38.1265 169.128 37.9771C169.66 37.8276 170.219 37.7529 170.805 37.7529ZM172.648 42.5176L171.262 42.5757C170.127 42.62 169.328 42.8053 168.863 43.1318C168.398 43.4583 168.166 43.9204 168.166 44.5181C168.166 45.0382 168.323 45.4229 168.639 45.6719C168.954 45.9209 169.372 46.0454 169.892 46.0454C170.7 46.0454 171.361 45.8213 171.876 45.373C172.391 44.9248 172.648 44.2524 172.648 43.356V42.5176ZM181.123 37.7363C182.257 37.7363 183.162 38.1265 183.837 38.9067C184.513 39.687 184.85 40.8602 184.85 42.4263C184.85 43.4611 184.695 44.3299 184.385 45.0327C184.075 45.7355 183.638 46.2668 183.074 46.6265C182.515 46.9862 181.854 47.166 181.09 47.166C180.608 47.166 180.185 47.1024 179.82 46.9751C179.455 46.8478 179.142 46.6763 178.882 46.4604C178.622 46.2446 178.406 46.0094 178.234 45.7549H178.135C178.151 45.9707 178.171 46.2308 178.193 46.5352C178.221 46.8395 178.234 47.1051 178.234 47.332V51.0674H176.848V37.9023H177.985L178.168 39.2471H178.234C178.411 38.9704 178.627 38.7186 178.882 38.4917C179.136 38.2593 179.446 38.0767 179.812 37.9438C180.182 37.8055 180.619 37.7363 181.123 37.7363ZM180.882 38.8984C180.251 38.8984 179.742 39.0202 179.355 39.2637C178.973 39.5072 178.694 39.8724 178.517 40.3594C178.34 40.8408 178.245 41.4468 178.234 42.1772V42.4429C178.234 43.2121 178.317 43.8623 178.483 44.3936C178.655 44.9248 178.934 45.3288 179.322 45.6055C179.715 45.8822 180.24 46.0205 180.899 46.0205C181.463 46.0205 181.934 45.8683 182.31 45.564C182.686 45.2596 182.966 44.8363 183.148 44.2939C183.337 43.7461 183.431 43.118 183.431 42.4097C183.431 41.3361 183.22 40.4839 182.8 39.853C182.385 39.2166 181.746 38.8984 180.882 38.8984ZM190.76 37.7363C191.535 37.7363 192.199 37.9079 192.752 38.251C193.306 38.5941 193.729 39.0755 194.022 39.6953C194.316 40.3096 194.462 41.029 194.462 41.8535V42.7085H188.179C188.195 43.7765 188.461 44.59 188.976 45.1489C189.49 45.7078 190.215 45.9873 191.15 45.9873C191.726 45.9873 192.235 45.9347 192.678 45.8296C193.12 45.7244 193.58 45.5695 194.056 45.3647V46.5767C193.596 46.7814 193.14 46.9308 192.686 47.0249C192.238 47.119 191.707 47.166 191.092 47.166C190.218 47.166 189.454 46.9889 188.801 46.6348C188.154 46.2751 187.65 45.7493 187.291 45.0576C186.931 44.3659 186.751 43.5192 186.751 42.5176C186.751 41.5381 186.914 40.6914 187.241 39.9775C187.573 39.2581 188.038 38.7048 188.635 38.3174C189.238 37.93 189.947 37.7363 190.76 37.7363ZM190.744 38.8652C190.008 38.8652 189.421 39.106 188.984 39.5874C188.547 40.0688 188.287 40.7412 188.204 41.6045H193.018C193.013 41.0622 192.927 40.5863 192.761 40.1768C192.6 39.7617 192.354 39.4408 192.022 39.2139C191.69 38.9814 191.264 38.8652 190.744 38.8652ZM200.937 37.7363C201.12 37.7363 201.311 37.7474 201.51 37.7695C201.709 37.7861 201.886 37.811 202.041 37.8442L201.867 39.1226C201.717 39.0838 201.551 39.0534 201.369 39.0312C201.186 39.0091 201.014 38.998 200.854 38.998C200.489 38.998 200.143 39.0728 199.816 39.2222C199.495 39.366 199.213 39.5763 198.97 39.853C198.726 40.1242 198.535 40.4535 198.397 40.8408C198.259 41.2227 198.189 41.6488 198.189 42.1191V47H196.803V37.9023H197.949L198.098 39.5791H198.156C198.344 39.2415 198.571 38.9344 198.837 38.6577C199.103 38.3755 199.41 38.1514 199.758 37.9854C200.112 37.8193 200.505 37.7363 200.937 37.7363Z" fill="#909090"/>
<path d="M337.047 23.9297V22.2891C336.448 22.2786 335.875 22.2266 335.328 22.1328C334.786 22.0391 334.344 21.9167 334 21.7656V20.5C334.359 20.6667 334.82 20.8125 335.383 20.9375C335.945 21.0625 336.5 21.1302 337.047 21.1406V17.7031C336.359 17.5104 335.789 17.2917 335.336 17.0469C334.888 16.7969 334.552 16.4922 334.328 16.1328C334.104 15.7734 333.992 15.3385 333.992 14.8281C333.992 14.2969 334.117 13.8438 334.367 13.4688C334.622 13.0885 334.979 12.7917 335.438 12.5781C335.896 12.3646 336.432 12.2422 337.047 12.2109V10.8594H338V12.1953C338.557 12.2109 339.065 12.2734 339.523 12.3828C339.982 12.487 340.406 12.6224 340.797 12.7891L340.391 13.875C340.036 13.7344 339.654 13.6146 339.242 13.5156C338.831 13.4167 338.417 13.349 338 13.3125V16.7266C338.698 16.9297 339.281 17.1458 339.75 17.375C340.224 17.6042 340.581 17.888 340.82 18.2266C341.06 18.5651 341.18 19.0026 341.18 19.5391C341.18 20.2995 340.901 20.9141 340.344 21.3828C339.786 21.8464 339.005 22.1276 338 22.2266V23.9297H337.047ZM338 21.0703C338.641 21.0078 339.117 20.8542 339.43 20.6094C339.747 20.3594 339.906 20.0312 339.906 19.625C339.906 19.3333 339.844 19.0938 339.719 18.9062C339.599 18.7188 339.401 18.5573 339.125 18.4219C338.849 18.2812 338.474 18.1484 338 18.0234V21.0703ZM337.047 16.3984V13.3438C336.656 13.3698 336.328 13.4427 336.062 13.5625C335.797 13.6823 335.596 13.8385 335.461 14.0312C335.331 14.224 335.266 14.4531 335.266 14.7188C335.266 15.026 335.323 15.2839 335.438 15.4922C335.557 15.6953 335.747 15.8698 336.008 16.0156C336.273 16.1562 336.62 16.2839 337.047 16.3984ZM347.773 23H346.508V14.9062C346.508 14.599 346.508 14.3359 346.508 14.1172C346.513 13.8932 346.518 13.6901 346.523 13.5078C346.534 13.3203 346.547 13.1302 346.562 12.9375C346.401 13.1042 346.25 13.2474 346.109 13.3672C345.969 13.4818 345.794 13.625 345.586 13.7969L344.281 14.8438L343.602 13.9609L346.695 11.5781H347.773V23ZM352.219 18.1172C352.219 17.4297 352.266 16.7578 352.359 16.1016C352.458 15.4453 352.622 14.8359 352.852 14.2734C353.081 13.7057 353.393 13.2083 353.789 12.7812C354.185 12.3542 354.677 12.0208 355.266 11.7812C355.859 11.5365 356.57 11.4141 357.398 11.4141C357.633 11.4141 357.885 11.4271 358.156 11.4531C358.427 11.474 358.651 11.5104 358.828 11.5625V12.6797C358.635 12.612 358.414 12.5625 358.164 12.5312C357.919 12.5 357.672 12.4844 357.422 12.4844C356.453 12.4844 355.69 12.6953 355.133 13.1172C354.581 13.5391 354.182 14.112 353.938 14.8359C353.693 15.5547 353.552 16.3646 353.516 17.2656H353.602C353.763 17.0052 353.969 16.7708 354.219 16.5625C354.469 16.349 354.771 16.1797 355.125 16.0547C355.484 15.9297 355.901 15.8672 356.375 15.8672C357.042 15.8672 357.622 16.0026 358.117 16.2734C358.617 16.5443 359.003 16.9375 359.273 17.4531C359.549 17.9688 359.688 18.5938 359.688 19.3281C359.688 20.1146 359.542 20.7943 359.25 21.3672C358.958 21.9401 358.542 22.3828 358 22.6953C357.464 23.0026 356.823 23.1562 356.078 23.1562C355.521 23.1562 355.008 23.0495 354.539 22.8359C354.07 22.6224 353.661 22.3047 353.312 21.8828C352.969 21.4609 352.701 20.9375 352.508 20.3125C352.315 19.6823 352.219 18.9505 352.219 18.1172ZM356.062 22.0625C356.771 22.0625 357.339 21.8359 357.766 21.3828C358.193 20.9297 358.406 20.2448 358.406 19.3281C358.406 18.5781 358.216 17.9844 357.836 17.5469C357.456 17.1094 356.883 16.8906 356.117 16.8906C355.596 16.8906 355.143 17 354.758 17.2188C354.372 17.4323 354.073 17.7031 353.859 18.0312C353.646 18.3594 353.539 18.6927 353.539 19.0312C353.539 19.375 353.589 19.724 353.688 20.0781C353.792 20.4323 353.948 20.7604 354.156 21.0625C354.365 21.3646 354.628 21.6068 354.945 21.7891C355.263 21.9714 355.635 22.0625 356.062 22.0625ZM361.641 22.1875C361.641 21.8229 361.729 21.5651 361.906 21.4141C362.083 21.2578 362.299 21.1797 362.555 21.1797C362.82 21.1797 363.044 21.2578 363.227 21.4141C363.409 21.5651 363.5 21.8229 363.5 22.1875C363.5 22.5469 363.409 22.8099 363.227 22.9766C363.044 23.138 362.82 23.2188 362.555 23.2188C362.299 23.2188 362.083 23.138 361.906 22.9766C361.729 22.8099 361.641 22.5469 361.641 22.1875ZM372.961 16.4453C372.961 17.138 372.911 17.8125 372.812 18.4688C372.719 19.125 372.555 19.737 372.32 20.3047C372.091 20.8724 371.779 21.3698 371.383 21.7969C370.987 22.224 370.49 22.5599 369.891 22.8047C369.297 23.0443 368.586 23.1641 367.758 23.1641C367.534 23.1641 367.279 23.1484 366.992 23.1172C366.706 23.0911 366.471 23.0521 366.289 23V21.875C366.482 21.9427 366.708 21.9974 366.969 22.0391C367.229 22.0755 367.484 22.0938 367.734 22.0938C368.708 22.0938 369.474 21.8854 370.031 21.4688C370.589 21.0469 370.99 20.4766 371.234 19.7578C371.479 19.0339 371.617 18.2214 371.648 17.3203H371.555C371.398 17.5703 371.193 17.8021 370.938 18.0156C370.688 18.224 370.383 18.3932 370.023 18.5234C369.664 18.6484 369.245 18.7109 368.766 18.7109C368.104 18.7109 367.526 18.5755 367.031 18.3047C366.542 18.0339 366.159 17.6406 365.883 17.125C365.612 16.6094 365.477 15.987 365.477 15.2578C365.477 14.4714 365.625 13.7917 365.922 13.2188C366.224 12.6406 366.646 12.1953 367.188 11.8828C367.729 11.5703 368.367 11.4141 369.102 11.4141C369.664 11.4141 370.18 11.5208 370.648 11.7344C371.117 11.9479 371.523 12.2682 371.867 12.6953C372.216 13.1172 372.484 13.6406 372.672 14.2656C372.865 14.8906 372.961 15.6172 372.961 16.4453ZM369.102 12.5156C368.409 12.5156 367.846 12.7422 367.414 13.1953C366.987 13.6484 366.773 14.3307 366.773 15.2422C366.773 15.9974 366.958 16.5938 367.328 17.0312C367.698 17.4688 368.268 17.6875 369.039 17.6875C369.57 17.6875 370.029 17.5807 370.414 17.3672C370.805 17.1536 371.104 16.8828 371.312 16.5547C371.526 16.2266 371.633 15.8906 371.633 15.5469C371.633 15.2031 371.581 14.8542 371.477 14.5C371.378 14.1458 371.224 13.8203 371.016 13.5234C370.807 13.2214 370.544 12.9792 370.227 12.7969C369.909 12.6094 369.534 12.5156 369.102 12.5156ZM382.117 16.4453C382.117 17.138 382.068 17.8125 381.969 18.4688C381.875 19.125 381.711 19.737 381.477 20.3047C381.247 20.8724 380.935 21.3698 380.539 21.7969C380.143 22.224 379.646 22.5599 379.047 22.8047C378.453 23.0443 377.742 23.1641 376.914 23.1641C376.69 23.1641 376.435 23.1484 376.148 23.1172C375.862 23.0911 375.628 23.0521 375.445 23V21.875C375.638 21.9427 375.865 21.9974 376.125 22.0391C376.385 22.0755 376.641 22.0938 376.891 22.0938C377.865 22.0938 378.63 21.8854 379.188 21.4688C379.745 21.0469 380.146 20.4766 380.391 19.7578C380.635 19.0339 380.773 18.2214 380.805 17.3203H380.711C380.555 17.5703 380.349 17.8021 380.094 18.0156C379.844 18.224 379.539 18.3932 379.18 18.5234C378.82 18.6484 378.401 18.7109 377.922 18.7109C377.26 18.7109 376.682 18.5755 376.188 18.3047C375.698 18.0339 375.315 17.6406 375.039 17.125C374.768 16.6094 374.633 15.987 374.633 15.2578C374.633 14.4714 374.781 13.7917 375.078 13.2188C375.38 12.6406 375.802 12.1953 376.344 11.8828C376.885 11.5703 377.523 11.4141 378.258 11.4141C378.82 11.4141 379.336 11.5208 379.805 11.7344C380.273 11.9479 380.68 12.2682 381.023 12.6953C381.372 13.1172 381.641 13.6406 381.828 14.2656C382.021 14.8906 382.117 15.6172 382.117 16.4453ZM378.258 12.5156C377.565 12.5156 377.003 12.7422 376.57 13.1953C376.143 13.6484 375.93 14.3307 375.93 15.2422C375.93 15.9974 376.115 16.5938 376.484 17.0312C376.854 17.4688 377.424 17.6875 378.195 17.6875C378.727 17.6875 379.185 17.5807 379.57 17.3672C379.961 17.1536 380.26 16.8828 380.469 16.5547C380.682 16.2266 380.789 15.8906 380.789 15.5469C380.789 15.2031 380.737 14.8542 380.633 14.5C380.534 14.1458 380.38 13.8203 380.172 13.5234C379.964 13.2214 379.701 12.9792 379.383 12.7969C379.065 12.6094 378.69 12.5156 378.258 12.5156Z" fill="#7E7E7E"/>
<path d="M342.541 46.8135V45.3779C342.017 45.3688 341.516 45.3232 341.037 45.2412C340.563 45.1592 340.176 45.0521 339.875 44.9199V43.8125C340.189 43.9583 340.593 44.0859 341.085 44.1953C341.577 44.3047 342.062 44.3639 342.541 44.373V41.3652C341.939 41.1966 341.44 41.0052 341.044 40.791C340.652 40.5723 340.358 40.3057 340.162 39.9912C339.966 39.6768 339.868 39.2962 339.868 38.8496C339.868 38.3848 339.978 37.9883 340.196 37.6602C340.42 37.3275 340.732 37.0677 341.133 36.8809C341.534 36.694 342.003 36.5869 342.541 36.5596V35.377H343.375V36.5459C343.863 36.5596 344.307 36.6143 344.708 36.71C345.109 36.8011 345.48 36.9196 345.822 37.0654L345.467 38.0156C345.157 37.8926 344.822 37.7878 344.462 37.7012C344.102 37.6146 343.74 37.5553 343.375 37.5234V40.5107C343.986 40.6885 344.496 40.8776 344.906 41.0781C345.321 41.2786 345.633 41.527 345.843 41.8232C346.052 42.1195 346.157 42.5023 346.157 42.9717C346.157 43.637 345.913 44.1748 345.426 44.585C344.938 44.9906 344.255 45.2367 343.375 45.3232V46.8135H342.541ZM343.375 44.3115C343.936 44.2568 344.353 44.1224 344.626 43.9082C344.904 43.6895 345.043 43.4023 345.043 43.0469C345.043 42.7917 344.988 42.582 344.879 42.418C344.774 42.2539 344.601 42.1126 344.359 41.9941C344.118 41.8711 343.79 41.7549 343.375 41.6455V44.3115ZM342.541 40.2236V37.5508C342.199 37.5736 341.912 37.6374 341.68 37.7422C341.447 37.847 341.272 37.9837 341.153 38.1523C341.039 38.321 340.982 38.5215 340.982 38.7539C340.982 39.0228 341.033 39.2484 341.133 39.4307C341.238 39.6084 341.404 39.7611 341.632 39.8887C341.864 40.0117 342.167 40.1234 342.541 40.2236ZM354.251 46H347.702V45.0498L350.375 42.3359C350.872 41.8346 351.289 41.388 351.626 40.9961C351.968 40.6042 352.228 40.2191 352.405 39.8408C352.583 39.458 352.672 39.0387 352.672 38.583C352.672 38.0179 352.503 37.5872 352.166 37.291C351.833 36.9902 351.394 36.8398 350.847 36.8398C350.368 36.8398 349.944 36.9219 349.575 37.0859C349.206 37.25 348.828 37.4824 348.44 37.7832L347.832 37.0176C348.096 36.7943 348.383 36.596 348.693 36.4229C349.008 36.2497 349.343 36.113 349.698 36.0127C350.058 35.9124 350.441 35.8623 350.847 35.8623C351.462 35.8623 351.993 35.9694 352.439 36.1836C352.886 36.3978 353.23 36.7031 353.472 37.0996C353.718 37.4961 353.841 37.9678 353.841 38.5146C353.841 39.0433 353.736 39.5355 353.526 39.9912C353.317 40.4424 353.023 40.8913 352.645 41.3379C352.266 41.7799 351.824 42.2493 351.318 42.7461L349.145 44.9131V44.9609H354.251V46ZM362.762 43.6826H361.265V46H360.157V43.6826H355.324V42.7256L360.082 35.9512H361.265V42.6572H362.762V43.6826ZM360.157 42.6572V39.3896C360.157 39.139 360.16 38.9134 360.164 38.7129C360.169 38.5078 360.175 38.3187 360.185 38.1455C360.194 37.9678 360.201 37.7992 360.205 37.6396C360.214 37.4801 360.221 37.3229 360.226 37.168H360.171C360.084 37.3503 359.984 37.5439 359.87 37.749C359.761 37.9495 359.649 38.1296 359.535 38.2891L356.452 42.6572H360.157ZM364.061 45.2891C364.061 44.9701 364.138 44.7445 364.293 44.6123C364.448 44.4756 364.637 44.4072 364.86 44.4072C365.093 44.4072 365.289 44.4756 365.448 44.6123C365.608 44.7445 365.688 44.9701 365.688 45.2891C365.688 45.6035 365.608 45.8337 365.448 45.9795C365.289 46.1208 365.093 46.1914 364.86 46.1914C364.637 46.1914 364.448 46.1208 364.293 45.9795C364.138 45.8337 364.061 45.6035 364.061 45.2891ZM373.966 40.2646C373.966 40.8708 373.923 41.4609 373.836 42.0352C373.754 42.6094 373.61 43.1449 373.405 43.6416C373.205 44.1383 372.931 44.5736 372.585 44.9473C372.239 45.321 371.803 45.6149 371.279 45.8291C370.76 46.0387 370.138 46.1436 369.413 46.1436C369.217 46.1436 368.994 46.1299 368.743 46.1025C368.493 46.0798 368.287 46.0456 368.128 46V45.0156C368.297 45.0749 368.495 45.1227 368.723 45.1592C368.951 45.1911 369.174 45.207 369.393 45.207C370.245 45.207 370.915 45.0247 371.402 44.6602C371.89 44.291 372.241 43.792 372.455 43.1631C372.669 42.5296 372.79 41.8187 372.817 41.0303H372.735C372.599 41.249 372.419 41.4518 372.195 41.6387C371.977 41.821 371.71 41.9691 371.396 42.083C371.081 42.1924 370.714 42.2471 370.295 42.2471C369.716 42.2471 369.21 42.1286 368.777 41.8916C368.349 41.6546 368.014 41.3105 367.772 40.8594C367.535 40.4082 367.417 39.8636 367.417 39.2256C367.417 38.5374 367.547 37.9427 367.807 37.4414C368.071 36.9355 368.44 36.5459 368.914 36.2725C369.388 35.999 369.946 35.8623 370.589 35.8623C371.081 35.8623 371.532 35.9557 371.942 36.1426C372.353 36.3294 372.708 36.6097 373.009 36.9834C373.314 37.3525 373.549 37.8105 373.713 38.3574C373.882 38.9043 373.966 39.54 373.966 40.2646ZM370.589 36.8262C369.983 36.8262 369.491 37.0244 369.112 37.4209C368.739 37.8174 368.552 38.4144 368.552 39.2119C368.552 39.8727 368.714 40.3945 369.037 40.7773C369.361 41.1602 369.86 41.3516 370.534 41.3516C370.999 41.3516 371.4 41.2581 371.737 41.0713C372.079 40.8844 372.341 40.6475 372.523 40.3604C372.71 40.0732 372.804 39.7793 372.804 39.4785C372.804 39.1777 372.758 38.8724 372.667 38.5625C372.58 38.2526 372.446 37.9678 372.264 37.708C372.081 37.4437 371.851 37.2318 371.573 37.0723C371.295 36.9082 370.967 36.8262 370.589 36.8262ZM381.978 40.2646C381.978 40.8708 381.934 41.4609 381.848 42.0352C381.766 42.6094 381.622 43.1449 381.417 43.6416C381.216 44.1383 380.943 44.5736 380.597 44.9473C380.25 45.321 379.815 45.6149 379.291 45.8291C378.771 46.0387 378.149 46.1436 377.425 46.1436C377.229 46.1436 377.006 46.1299 376.755 46.1025C376.504 46.0798 376.299 46.0456 376.14 46V45.0156C376.308 45.0749 376.507 45.1227 376.734 45.1592C376.962 45.1911 377.186 45.207 377.404 45.207C378.257 45.207 378.926 45.0247 379.414 44.6602C379.902 44.291 380.253 43.792 380.467 43.1631C380.681 42.5296 380.802 41.8187 380.829 41.0303H380.747C380.61 41.249 380.43 41.4518 380.207 41.6387C379.988 41.821 379.722 41.9691 379.407 42.083C379.093 42.1924 378.726 42.2471 378.307 42.2471C377.728 42.2471 377.222 42.1286 376.789 41.8916C376.361 41.6546 376.026 41.3105 375.784 40.8594C375.547 40.4082 375.429 39.8636 375.429 39.2256C375.429 38.5374 375.559 37.9427 375.818 37.4414C376.083 36.9355 376.452 36.5459 376.926 36.2725C377.4 35.999 377.958 35.8623 378.601 35.8623C379.093 35.8623 379.544 35.9557 379.954 36.1426C380.364 36.3294 380.72 36.6097 381.021 36.9834C381.326 37.3525 381.561 37.8105 381.725 38.3574C381.893 38.9043 381.978 39.54 381.978 40.2646ZM378.601 36.8262C377.994 36.8262 377.502 37.0244 377.124 37.4209C376.75 37.8174 376.563 38.4144 376.563 39.2119C376.563 39.8727 376.725 40.3945 377.049 40.7773C377.372 41.1602 377.871 41.3516 378.546 41.3516C379.011 41.3516 379.412 41.2581 379.749 41.0713C380.091 40.8844 380.353 40.6475 380.535 40.3604C380.722 40.0732 380.815 39.7793 380.815 39.4785C380.815 39.1777 380.77 38.8724 380.679 38.5625C380.592 38.2526 380.458 37.9678 380.275 37.708C380.093 37.4437 379.863 37.2318 379.585 37.0723C379.307 36.9082 378.979 36.8262 378.601 36.8262Z" fill="#B5B5B5"/>
<path d="M339 41.502H382.729V41.8438H339V41.502Z" fill="#B5B5B5"/>
<path d="M2.2017 88L0.213068 80.7273H1.10795L2.62784 86.6506H2.69886L4.24716 80.7273H5.24148L6.78977 86.6506H6.8608L8.38068 80.7273H9.27557L7.28693 88H6.37784L4.77273 82.2045H4.71591L3.1108 88H2.2017ZM16.8833 83H16.0027C15.9506 82.7467 15.8594 82.5241 15.7292 82.3324C15.6014 82.1406 15.4451 81.9796 15.2605 81.8494C15.0782 81.7169 14.8758 81.6174 14.6532 81.5511C14.4307 81.4848 14.1987 81.4517 13.9572 81.4517C13.5169 81.4517 13.118 81.563 12.7605 81.7855C12.4054 82.008 12.1225 82.3359 11.9118 82.7692C11.7034 83.2024 11.5993 83.7339 11.5993 84.3636C11.5993 84.9934 11.7034 85.5249 11.9118 85.9581C12.1225 86.3913 12.4054 86.7192 12.7605 86.9418C13.118 87.1643 13.5169 87.2756 13.9572 87.2756C14.1987 87.2756 14.4307 87.2424 14.6532 87.1761C14.8758 87.1098 15.0782 87.0116 15.2605 86.8814C15.4451 86.7488 15.6014 86.5866 15.7292 86.3949C15.8594 86.2008 15.9506 85.9782 16.0027 85.7273H16.8833C16.8171 86.099 16.6963 86.4316 16.5211 86.7251C16.3459 87.0187 16.1281 87.2685 15.8677 87.4744C15.6073 87.678 15.3149 87.8331 14.9906 87.9396C14.6686 88.0462 14.3242 88.0994 13.9572 88.0994C13.3369 88.0994 12.7853 87.9479 12.3024 87.6449C11.8194 87.3419 11.4395 86.911 11.1625 86.3523C10.8855 85.7936 10.747 85.1307 10.747 84.3636C10.747 83.5966 10.8855 82.9337 11.1625 82.375C11.4395 81.8163 11.8194 81.3854 12.3024 81.0824C12.7853 80.7794 13.3369 80.6278 13.9572 80.6278C14.3242 80.6278 14.6686 80.6811 14.9906 80.7876C15.3149 80.8942 15.6073 81.0504 15.8677 81.2564C16.1281 81.46 16.3459 81.7086 16.5211 82.0021C16.6963 82.2933 16.8171 82.6259 16.8833 83ZM19.6048 88H18.6815L21.3519 80.7273H22.261L24.9315 88H24.0082L21.8349 81.8778H21.7781L19.6048 88ZM19.9457 85.1591H23.6673V85.9403H19.9457V85.1591ZM31.6941 83C31.6159 82.7609 31.513 82.5466 31.3851 82.3572C31.2596 82.1655 31.1093 82.0021 30.9341 81.8672C30.7613 81.7322 30.5648 81.6293 30.3446 81.5582C30.1245 81.4872 29.883 81.4517 29.6202 81.4517C29.1893 81.4517 28.7975 81.563 28.4448 81.7855C28.092 82.008 27.8115 82.3359 27.6032 82.7692C27.3948 83.2024 27.2907 83.7339 27.2907 84.3636C27.2907 84.9934 27.396 85.5249 27.6067 85.9581C27.8174 86.3913 28.1027 86.7192 28.4625 86.9418C28.8224 87.1643 29.2272 87.2756 29.677 87.2756C30.0937 87.2756 30.4606 87.1868 30.7779 87.0092C31.0975 86.8293 31.3461 86.576 31.5236 86.2493C31.7035 85.9202 31.7935 85.5331 31.7935 85.0881L32.0634 85.1449H29.8759V84.3636H32.6458V85.1449C32.6458 85.7438 32.5179 86.2647 32.2623 86.7074C32.0089 87.1501 31.6586 87.4934 31.2111 87.7372C30.766 87.9787 30.2547 88.0994 29.677 88.0994C29.0331 88.0994 28.4673 87.9479 27.9796 87.6449C27.4943 87.3419 27.1155 86.911 26.8432 86.3523C26.5733 85.7936 26.4384 85.1307 26.4384 84.3636C26.4384 83.7884 26.5153 83.2711 26.6692 82.8118C26.8255 82.3501 27.0456 81.9571 27.3297 81.6328C27.6138 81.3085 27.95 81.0599 28.3382 80.8871C28.7265 80.7143 29.1538 80.6278 29.6202 80.6278C30.0037 80.6278 30.3612 80.6858 30.6926 80.8018C31.0265 80.9155 31.3236 81.0777 31.584 81.2884C31.8468 81.4967 32.0658 81.7464 32.2409 82.0376C32.4161 82.3265 32.5369 82.6473 32.6032 83H31.6941ZM39.2649 88H38.3416L41.0121 80.7273H41.9212L44.5916 88H43.6683L41.495 81.8778H41.4382L39.2649 88ZM39.6058 85.1591H43.3274V85.9403H39.6058V85.1591ZM47.0227 88H46.0994L48.7699 80.7273H49.679L52.3494 88H51.4261L49.2528 81.8778H49.196L47.0227 88ZM47.3636 85.1591H51.0852V85.9403H47.3636V85.1591Z" fill="#5E5E5E"/>
<path d="M12.3789 99.0664L8.16016 103.285L12.3438 107.469C12.6953 107.785 12.6953 108.312 12.3438 108.629C12.0273 108.98 11.5 108.98 11.1836 108.629L6.96484 104.445L2.78125 108.629C2.46484 108.98 1.9375 108.98 1.62109 108.629C1.26953 108.312 1.26953 107.785 1.62109 107.434L5.80469 103.25L1.62109 99.0664C1.26953 98.75 1.26953 98.2227 1.62109 97.8711C1.9375 97.5547 2.46484 97.5547 2.81641 97.8711L7 102.09L11.1836 97.9062C11.5 97.5547 12.0273 97.5547 12.3789 97.9062C12.6953 98.2227 12.6953 98.75 12.3789 99.0664Z" fill="#FF3B30"/>
<path d="M27.9716 97.0909V108H26.6932L20.7486 99.4347H20.642V108H19.321V97.0909H20.5994L26.5653 105.678H26.6719V97.0909H27.9716ZM33.7684 108.17C33.0297 108.17 32.3817 107.995 31.8241 107.643C31.2702 107.292 30.8369 106.8 30.5244 106.168C30.2155 105.536 30.061 104.797 30.061 103.952C30.061 103.099 30.2155 102.355 30.5244 101.72C30.8369 101.084 31.2702 100.591 31.8241 100.239C32.3817 99.8874 33.0297 99.7116 33.7684 99.7116C34.507 99.7116 35.1533 99.8874 35.7073 100.239C36.2648 100.591 36.6981 101.084 37.007 101.72C37.3195 102.355 37.4758 103.099 37.4758 103.952C37.4758 104.797 37.3195 105.536 37.007 106.168C36.6981 106.8 36.2648 107.292 35.7073 107.643C35.1533 107.995 34.507 108.17 33.7684 108.17ZM33.7684 107.041C34.3295 107.041 34.7911 106.897 35.1533 106.61C35.5155 106.322 35.7836 105.944 35.9577 105.475C36.1317 105.006 36.2187 104.499 36.2187 103.952C36.2187 103.405 36.1317 102.895 35.9577 102.423C35.7836 101.951 35.5155 101.569 35.1533 101.278C34.7911 100.987 34.3295 100.841 33.7684 100.841C33.2073 100.841 32.7456 100.987 32.3834 101.278C32.0212 101.569 31.7531 101.951 31.5791 102.423C31.4051 102.895 31.3181 103.405 31.3181 103.952C31.3181 104.499 31.4051 105.006 31.5791 105.475C31.7531 105.944 32.0212 106.322 32.3834 106.61C32.7456 106.897 33.2073 107.041 33.7684 107.041ZM40.6518 103.078V108H39.3947V99.8182H40.6092V101.097H40.7157C40.9075 100.681 41.1987 100.347 41.5893 100.095C41.9799 99.8395 42.4842 99.7116 43.1021 99.7116C43.6561 99.7116 44.1408 99.8253 44.5563 100.053C44.9718 100.276 45.2949 100.617 45.5257 101.075C45.7566 101.53 45.872 102.105 45.872 102.801V108H44.6149V102.886C44.6149 102.244 44.448 101.743 44.1142 101.384C43.7804 101.022 43.3223 100.841 42.7399 100.841C42.3386 100.841 41.9799 100.928 41.6639 101.102C41.3514 101.276 41.1046 101.53 40.9235 101.864C40.7424 102.197 40.6518 102.602 40.6518 103.078ZM52.8566 102.737V103.909H48.0839V102.737H52.8566ZM58.3924 108.17C57.6254 108.17 56.9648 107.989 56.4109 107.627C55.8569 107.265 55.4308 106.766 55.1325 106.13C54.8342 105.495 54.685 104.768 54.685 103.952C54.685 103.121 54.8377 102.387 55.1431 101.752C55.4521 101.113 55.8817 100.614 56.4322 100.255C56.9862 99.8928 57.6325 99.7116 58.3711 99.7116C58.9464 99.7116 59.4648 99.8182 59.9265 100.031C60.3881 100.244 60.7663 100.543 61.0611 100.926C61.3558 101.31 61.5387 101.757 61.6097 102.268H60.3526C60.2567 101.896 60.0437 101.565 59.7134 101.278C59.3867 100.987 58.9464 100.841 58.3924 100.841C57.9023 100.841 57.4727 100.969 57.1033 101.224C56.7376 101.477 56.4517 101.833 56.2457 102.295C56.0433 102.753 55.9421 103.291 55.9421 103.909C55.9421 104.541 56.0415 105.092 56.2404 105.56C56.4428 106.029 56.7269 106.393 57.0927 106.652C57.462 106.912 57.8952 107.041 58.3924 107.041C58.7191 107.041 59.0156 106.984 59.282 106.871C59.5483 106.757 59.7738 106.594 59.9585 106.381C60.1431 106.168 60.2745 105.912 60.3526 105.614H61.6097C61.5387 106.097 61.3629 106.532 61.0824 106.919C60.8054 107.302 60.4379 107.608 59.9798 107.835C59.5252 108.059 58.9961 108.17 58.3924 108.17ZM66.7713 108.17C66.0327 108.17 65.3846 107.995 64.8271 107.643C64.2731 107.292 63.8398 106.8 63.5273 106.168C63.2184 105.536 63.0639 104.797 63.0639 103.952C63.0639 103.099 63.2184 102.355 63.5273 101.72C63.8398 101.084 64.2731 100.591 64.8271 100.239C65.3846 99.8874 66.0327 99.7116 66.7713 99.7116C67.5099 99.7116 68.1563 99.8874 68.7102 100.239C69.2678 100.591 69.701 101.084 70.0099 101.72C70.3224 102.355 70.4787 103.099 70.4787 103.952C70.4787 104.797 70.3224 105.536 70.0099 106.168C69.701 106.8 69.2678 107.292 68.7102 107.643C68.1563 107.995 67.5099 108.17 66.7713 108.17ZM66.7713 107.041C67.3324 107.041 67.794 106.897 68.1562 106.61C68.5185 106.322 68.7866 105.944 68.9606 105.475C69.1346 105.006 69.2216 104.499 69.2216 103.952C69.2216 103.405 69.1346 102.895 68.9606 102.423C68.7866 101.951 68.5185 101.569 68.1562 101.278C67.794 100.987 67.3324 100.841 66.7713 100.841C66.2102 100.841 65.7486 100.987 65.3864 101.278C65.0241 101.569 64.756 101.951 64.582 102.423C64.408 102.895 64.321 103.405 64.321 103.952C64.321 104.499 64.408 105.006 64.582 105.475C64.756 105.944 65.0241 106.322 65.3864 106.61C65.7486 106.897 66.2102 107.041 66.7713 107.041ZM72.3976 108V99.8182H73.6121V101.097H73.7187C73.8891 100.66 74.1643 100.321 74.5443 100.079C74.9243 99.8342 75.3806 99.7116 75.9133 99.7116C76.453 99.7116 76.9023 99.8342 77.2609 100.079C77.6231 100.321 77.9055 100.66 78.1079 101.097H78.1931C78.4026 100.674 78.7169 100.338 79.1359 100.09C79.555 99.8377 80.0574 99.7116 80.6434 99.7116C81.3749 99.7116 81.9733 99.9407 82.4385 100.399C82.9037 100.853 83.1363 101.562 83.1363 102.524V108H81.8792V102.524C81.8792 101.92 81.714 101.489 81.3838 101.23C81.0535 100.971 80.6647 100.841 80.2172 100.841C79.642 100.841 79.1963 101.015 78.8802 101.363C78.5642 101.707 78.4062 102.144 78.4062 102.673V108H77.1278V102.396C77.1278 101.931 76.9768 101.556 76.675 101.272C76.3731 100.985 75.9843 100.841 75.5084 100.841C75.1817 100.841 74.8763 100.928 74.5922 101.102C74.3117 101.276 74.0844 101.517 73.9104 101.826C73.74 102.132 73.6547 102.485 73.6547 102.886V108H72.3976ZM85.4347 111.068V99.8182H86.6492V101.118H86.7984C86.8907 100.976 87.0186 100.795 87.1819 100.575C87.3488 100.351 87.5867 100.152 87.8957 99.978C88.2082 99.8004 88.6308 99.7116 89.1634 99.7116C89.8524 99.7116 90.4596 99.8839 90.9852 100.228C91.5107 100.573 91.9209 101.061 92.2156 101.693C92.5104 102.325 92.6578 103.071 92.6578 103.93C92.6578 104.797 92.5104 105.548 92.2156 106.184C91.9209 106.816 91.5125 107.306 90.9905 107.654C90.4685 107.998 89.8666 108.17 89.1847 108.17C88.6592 108.17 88.2384 108.083 87.9223 107.909C87.6063 107.732 87.363 107.531 87.1926 107.308C87.0221 107.08 86.8907 106.892 86.7984 106.743H86.6919V111.068H85.4347ZM86.6705 103.909C86.6705 104.527 86.7611 105.072 86.9422 105.544C87.1233 106.013 87.3879 106.381 87.7359 106.647C88.0839 106.91 88.51 107.041 89.0143 107.041C89.5399 107.041 89.9784 106.903 90.33 106.626C90.6851 106.345 90.9514 105.969 91.129 105.496C91.3101 105.021 91.4007 104.491 91.4007 103.909C91.4007 103.334 91.3119 102.815 91.1343 102.354C90.9603 101.888 90.6958 101.521 90.3406 101.251C89.9891 100.978 89.547 100.841 89.0143 100.841C88.5029 100.841 88.0732 100.971 87.7252 101.23C87.3772 101.485 87.1144 101.844 86.9369 102.306C86.7593 102.764 86.6705 103.298 86.6705 103.909ZM95.8325 97.0909V108H94.5754V97.0909H95.8325ZM98.1349 108V99.8182H99.392V108H98.1349ZM98.7741 98.4545C98.5291 98.4545 98.3178 98.3711 98.1403 98.2042C97.9663 98.0373 97.8793 97.8366 97.8793 97.6023C97.8793 97.3679 97.9663 97.1673 98.1403 97.0004C98.3178 96.8335 98.5291 96.75 98.7741 96.75C99.0192 96.75 99.2287 96.8335 99.4027 97.0004C99.5803 97.1673 99.669 97.3679 99.669 97.6023C99.669 97.8366 99.5803 98.0373 99.4027 98.2042C99.2287 98.3711 99.0192 98.4545 98.7741 98.4545ZM104.102 108.192C103.584 108.192 103.113 108.094 102.691 107.899C102.268 107.7 101.932 107.414 101.684 107.041C101.435 106.665 101.311 106.21 101.311 105.678C101.311 105.209 101.403 104.829 101.588 104.538C101.773 104.243 102.019 104.012 102.328 103.845C102.637 103.678 102.978 103.554 103.351 103.472C103.728 103.387 104.106 103.32 104.486 103.27C104.983 103.206 105.386 103.158 105.695 103.126C106.007 103.091 106.235 103.032 106.377 102.95C106.522 102.869 106.595 102.727 106.595 102.524V102.482C106.595 101.956 106.451 101.548 106.164 101.256C105.88 100.965 105.448 100.82 104.869 100.82C104.269 100.82 103.799 100.951 103.458 101.214C103.117 101.477 102.877 101.757 102.739 102.055L101.545 101.629C101.758 101.132 102.043 100.745 102.398 100.468C102.756 100.187 103.147 99.9922 103.57 99.8821C103.996 99.7685 104.415 99.7116 104.827 99.7116C105.089 99.7116 105.391 99.7436 105.732 99.8075C106.077 99.8679 106.409 99.994 106.728 100.186C107.051 100.377 107.32 100.667 107.533 101.054C107.746 101.441 107.852 101.96 107.852 102.609V108H106.595V106.892H106.531C106.446 107.07 106.304 107.26 106.105 107.462C105.906 107.664 105.642 107.837 105.311 107.979C104.981 108.121 104.578 108.192 104.102 108.192ZM104.294 107.062C104.791 107.062 105.21 106.965 105.551 106.77C105.896 106.574 106.155 106.322 106.329 106.013C106.506 105.704 106.595 105.379 106.595 105.038V103.888C106.542 103.952 106.425 104.01 106.244 104.064C106.066 104.113 105.86 104.158 105.626 104.197C105.395 104.232 105.169 104.264 104.949 104.293C104.733 104.317 104.557 104.339 104.422 104.357C104.095 104.399 103.79 104.468 103.506 104.564C103.225 104.657 102.998 104.797 102.824 104.985C102.653 105.17 102.568 105.422 102.568 105.741C102.568 106.178 102.73 106.509 103.053 106.732C103.38 106.952 103.793 107.062 104.294 107.062ZM111.404 103.078V108H110.147V99.8182H111.361V101.097H111.468C111.659 100.681 111.951 100.347 112.341 100.095C112.732 99.8395 113.236 99.7116 113.854 99.7116C114.408 99.7116 114.893 99.8253 115.308 100.053C115.724 100.276 116.047 100.617 116.278 101.075C116.509 101.53 116.624 102.105 116.624 102.801V108H115.367V102.886C115.367 102.244 115.2 101.743 114.866 101.384C114.532 101.022 114.074 100.841 113.492 100.841C113.091 100.841 112.732 100.928 112.416 101.102C112.103 101.276 111.857 101.53 111.675 101.864C111.494 102.197 111.404 102.602 111.404 103.078ZM122.479 99.8182V100.884H118.239V99.8182H122.479ZM119.475 97.858H120.732V105.656C120.732 106.011 120.784 106.278 120.887 106.455C120.993 106.629 121.128 106.746 121.291 106.807C121.458 106.864 121.634 106.892 121.819 106.892C121.957 106.892 122.071 106.885 122.16 106.871C122.248 106.853 122.32 106.839 122.373 106.828L122.628 107.957C122.543 107.989 122.424 108.021 122.272 108.053C122.119 108.089 121.925 108.107 121.691 108.107C121.336 108.107 120.988 108.03 120.647 107.877C120.31 107.725 120.029 107.492 119.805 107.18C119.585 106.867 119.475 106.473 119.475 105.997V97.858Z" fill="black"/>
<path d="M156.202 88L154.213 80.7273H155.108L156.628 86.6506H156.699L158.247 80.7273H159.241L160.79 86.6506H160.861L162.381 80.7273H163.276L161.287 88H160.378L158.773 82.2045H158.716L157.111 88H156.202ZM170.883 83H170.003C169.951 82.7467 169.859 82.5241 169.729 82.3324C169.601 82.1406 169.445 81.9796 169.26 81.8494C169.078 81.7169 168.876 81.6174 168.653 81.5511C168.431 81.4848 168.199 81.4517 167.957 81.4517C167.517 81.4517 167.118 81.563 166.76 81.7855C166.405 82.008 166.122 82.3359 165.912 82.7692C165.703 83.2024 165.599 83.7339 165.599 84.3636C165.599 84.9934 165.703 85.5249 165.912 85.9581C166.122 86.3913 166.405 86.7192 166.76 86.9418C167.118 87.1643 167.517 87.2756 167.957 87.2756C168.199 87.2756 168.431 87.2424 168.653 87.1761C168.876 87.1098 169.078 87.0116 169.26 86.8814C169.445 86.7488 169.601 86.5866 169.729 86.3949C169.859 86.2008 169.951 85.9782 170.003 85.7273H170.883C170.817 86.099 170.696 86.4316 170.521 86.7251C170.346 87.0187 170.128 87.2685 169.868 87.4744C169.607 87.678 169.315 87.8331 168.991 87.9396C168.669 88.0462 168.324 88.0994 167.957 88.0994C167.337 88.0994 166.785 87.9479 166.302 87.6449C165.819 87.3419 165.439 86.911 165.162 86.3523C164.885 85.7936 164.747 85.1307 164.747 84.3636C164.747 83.5966 164.885 82.9337 165.162 82.375C165.439 81.8163 165.819 81.3854 166.302 81.0824C166.785 80.7794 167.337 80.6278 167.957 80.6278C168.324 80.6278 168.669 80.6811 168.991 80.7876C169.315 80.8942 169.607 81.0504 169.868 81.2564C170.128 81.46 170.346 81.7086 170.521 82.0021C170.696 82.2933 170.817 82.6259 170.883 83ZM173.605 88H172.681L175.352 80.7273H176.261L178.931 88H178.008L175.835 81.8778H175.778L173.605 88ZM173.946 85.1591H177.667V85.9403H173.946V85.1591ZM185.694 83C185.616 82.7609 185.513 82.5466 185.385 82.3572C185.26 82.1655 185.109 82.0021 184.934 81.8672C184.761 81.7322 184.565 81.6293 184.345 81.5582C184.124 81.4872 183.883 81.4517 183.62 81.4517C183.189 81.4517 182.798 81.563 182.445 81.7855C182.092 82.008 181.811 82.3359 181.603 82.7692C181.395 83.2024 181.291 83.7339 181.291 84.3636C181.291 84.9934 181.396 85.5249 181.607 85.9581C181.817 86.3913 182.103 86.7192 182.463 86.9418C182.822 87.1643 183.227 87.2756 183.677 87.2756C184.094 87.2756 184.461 87.1868 184.778 87.0092C185.097 86.8293 185.346 86.576 185.524 86.2493C185.704 85.9202 185.794 85.5331 185.794 85.0881L186.063 85.1449H183.876V84.3636H186.646V85.1449C186.646 85.7438 186.518 86.2647 186.262 86.7074C186.009 87.1501 185.659 87.4934 185.211 87.7372C184.766 87.9787 184.255 88.0994 183.677 88.0994C183.033 88.0994 182.467 87.9479 181.98 87.6449C181.494 87.3419 181.115 86.911 180.843 86.3523C180.573 85.7936 180.438 85.1307 180.438 84.3636C180.438 83.7884 180.515 83.2711 180.669 82.8118C180.825 82.3501 181.046 81.9571 181.33 81.6328C181.614 81.3085 181.95 81.0599 182.338 80.8871C182.727 80.7143 183.154 80.6278 183.62 80.6278C184.004 80.6278 184.361 80.6858 184.693 80.8018C185.026 80.9155 185.324 81.0777 185.584 81.2884C185.847 81.4967 186.066 81.7464 186.241 82.0376C186.416 82.3265 186.537 82.6473 186.603 83H185.694ZM192.967 88V80.7273H195.424C195.995 80.7273 196.461 80.8303 196.823 81.0362C197.188 81.2398 197.458 81.5156 197.633 81.8636C197.808 82.2116 197.896 82.5999 197.896 83.0284C197.896 83.4569 197.808 83.8464 197.633 84.1967C197.46 84.5471 197.192 84.8265 196.83 85.0348C196.468 85.2408 196.004 85.3438 195.438 85.3438H193.677V84.5625H195.41C195.8 84.5625 196.114 84.495 196.351 84.3601C196.588 84.2251 196.759 84.0429 196.866 83.8132C196.975 83.5812 197.029 83.3196 197.029 83.0284C197.029 82.7372 196.975 82.4768 196.866 82.2472C196.759 82.0175 196.586 81.8376 196.347 81.7074C196.108 81.5748 195.791 81.5085 195.396 81.5085H193.847V88H192.967ZM200.314 88V80.7273H202.772C203.34 80.7273 203.806 80.8243 204.171 81.0185C204.535 81.2102 204.805 81.4742 204.98 81.8104C205.156 82.1465 205.243 82.5289 205.243 82.9574C205.243 83.3859 205.156 83.7659 204.98 84.0973C204.805 84.4287 204.537 84.6892 204.174 84.8786C203.812 85.0656 203.349 85.1591 202.786 85.1591H200.797V84.3636H202.757C203.146 84.3636 203.458 84.3068 203.695 84.1932C203.934 84.0795 204.107 83.9186 204.213 83.7102C204.322 83.4995 204.377 83.2486 204.377 82.9574C204.377 82.6662 204.322 82.4117 204.213 82.1939C204.105 81.9761 203.931 81.808 203.691 81.6896C203.452 81.5689 203.136 81.5085 202.743 81.5085H201.195V88H200.314ZM203.738 84.733L205.527 88H204.505L202.743 84.733H203.738ZM208.591 80.7273V88H207.711V80.7273H208.591ZM217.124 80.7273V88H216.272L212.309 82.2898H212.238V88H211.357V80.7273H212.21L216.187 86.4517H216.258V80.7273H217.124ZM225.739 83H224.858C224.806 82.7467 224.715 82.5241 224.585 82.3324C224.457 82.1406 224.301 81.9796 224.116 81.8494C223.934 81.7169 223.731 81.6174 223.509 81.5511C223.286 81.4848 223.054 81.4517 222.813 81.4517C222.372 81.4517 221.973 81.563 221.616 81.7855C221.261 82.008 220.978 82.3359 220.767 82.7692C220.559 83.2024 220.455 83.7339 220.455 84.3636C220.455 84.9934 220.559 85.5249 220.767 85.9581C220.978 86.3913 221.261 86.7192 221.616 86.9418C221.973 87.1643 222.372 87.2756 222.813 87.2756C223.054 87.2756 223.286 87.2424 223.509 87.1761C223.731 87.1098 223.934 87.0116 224.116 86.8814C224.301 86.7488 224.457 86.5866 224.585 86.3949C224.715 86.2008 224.806 85.9782 224.858 85.7273H225.739C225.673 86.099 225.552 86.4316 225.377 86.7251C225.201 87.0187 224.984 87.2685 224.723 87.4744C224.463 87.678 224.17 87.8331 223.846 87.9396C223.524 88.0462 223.18 88.0994 222.813 88.0994C222.192 88.0994 221.641 87.9479 221.158 87.6449C220.675 87.3419 220.295 86.911 220.018 86.3523C219.741 85.7936 219.602 85.1307 219.602 84.3636C219.602 83.5966 219.741 82.9337 220.018 82.375C220.295 81.8163 220.675 81.3854 221.158 81.0824C221.641 80.7794 222.192 80.6278 222.813 80.6278C223.18 80.6278 223.524 80.6811 223.846 80.7876C224.17 80.8942 224.463 81.0504 224.723 81.2564C224.984 81.46 225.201 81.7086 225.377 82.0021C225.552 82.2933 225.673 82.6259 225.739 83ZM229.043 80.7273V88H228.162V80.7273H229.043ZM231.808 88V80.7273H234.266C234.836 80.7273 235.303 80.8303 235.665 81.0362C236.03 81.2398 236.299 81.5156 236.475 81.8636C236.65 82.2116 236.737 82.5999 236.737 83.0284C236.737 83.4569 236.65 83.8464 236.475 84.1967C236.302 84.5471 236.034 84.8265 235.672 85.0348C235.31 85.2408 234.846 85.3438 234.28 85.3438H232.519V84.5625H234.252C234.642 84.5625 234.956 84.495 235.193 84.3601C235.429 84.2251 235.601 84.0429 235.708 83.8132C235.816 83.5812 235.871 83.3196 235.871 83.0284C235.871 82.7372 235.816 82.4768 235.708 82.2472C235.601 82.0175 235.428 81.8376 235.189 81.7074C234.95 81.5748 234.633 81.5085 234.237 81.5085H232.689V88H231.808ZM239.156 88V80.7273H240.037V87.2188H243.417V88H239.156ZM245.781 88V80.7273H250.17V81.5085H246.662V83.9659H249.943V84.7472H246.662V87.2188H250.227V88H245.781Z" fill="#5E5E5E"/>
<path d="M166.379 99.0664L162.16 103.285L166.344 107.469C166.695 107.785 166.695 108.312 166.344 108.629C166.027 108.98 165.5 108.98 165.184 108.629L160.965 104.445L156.781 108.629C156.465 108.98 155.938 108.98 155.621 108.629C155.27 108.312 155.27 107.785 155.621 107.434L159.805 103.25L155.621 99.0664C155.27 98.75 155.27 98.2227 155.621 97.8711C155.938 97.5547 156.465 97.5547 156.816 97.8711L161 102.09L165.184 97.9062C165.5 97.5547 166.027 97.5547 166.379 97.9062C166.695 98.2227 166.695 98.75 166.379 99.0664Z" fill="#FF3B30"/>
<path d="M173.321 108V97.0909H177.007C177.863 97.0909 178.563 97.2454 179.106 97.5543C179.653 97.8597 180.058 98.2734 180.32 98.7955C180.583 99.3175 180.714 99.8999 180.714 100.543C180.714 101.185 180.583 101.77 180.32 102.295C180.061 102.821 179.66 103.24 179.116 103.552C178.573 103.861 177.877 104.016 177.028 104.016H174.386V102.844H176.986C177.572 102.844 178.042 102.743 178.397 102.54C178.752 102.338 179.01 102.064 179.17 101.72C179.333 101.372 179.415 100.979 179.415 100.543C179.415 100.106 179.333 99.7152 179.17 99.3707C179.01 99.0263 178.751 98.7564 178.392 98.5611C178.033 98.3622 177.558 98.2628 176.964 98.2628H174.642V108H173.321ZM186.015 108.17C185.226 108.17 184.546 107.996 183.974 107.648C183.406 107.297 182.968 106.807 182.659 106.178C182.353 105.546 182.201 104.811 182.201 103.973C182.201 103.135 182.353 102.396 182.659 101.757C182.968 101.114 183.397 100.614 183.948 100.255C184.502 99.8928 185.148 99.7116 185.887 99.7116C186.313 99.7116 186.734 99.7827 187.149 99.9247C187.565 100.067 187.943 100.298 188.284 100.617C188.625 100.933 188.896 101.352 189.099 101.874C189.301 102.396 189.402 103.039 189.402 103.803V104.335H183.096V103.249H188.124C188.124 102.787 188.032 102.375 187.847 102.013C187.666 101.651 187.407 101.365 187.069 101.155C186.735 100.946 186.341 100.841 185.887 100.841C185.386 100.841 184.953 100.965 184.587 101.214C184.225 101.459 183.946 101.778 183.751 102.173C183.555 102.567 183.458 102.989 183.458 103.44V104.165C183.458 104.783 183.564 105.306 183.777 105.736C183.994 106.162 184.294 106.487 184.678 106.711C185.061 106.931 185.507 107.041 186.015 107.041C186.345 107.041 186.643 106.995 186.909 106.903C187.179 106.807 187.412 106.665 187.607 106.477C187.803 106.285 187.953 106.047 188.06 105.763L189.275 106.104C189.147 106.516 188.932 106.878 188.63 107.19C188.328 107.499 187.955 107.741 187.511 107.915C187.067 108.085 186.569 108.17 186.015 108.17ZM191.315 108V99.8182H192.529V101.054H192.614C192.763 100.649 193.033 100.321 193.424 100.069C193.815 99.8164 194.255 99.6903 194.745 99.6903C194.837 99.6903 194.953 99.6921 195.091 99.6957C195.23 99.6992 195.335 99.7045 195.406 99.7116V100.99C195.363 100.979 195.265 100.963 195.113 100.942C194.963 100.917 194.805 100.905 194.638 100.905C194.241 100.905 193.886 100.988 193.573 101.155C193.264 101.319 193.019 101.546 192.838 101.837C192.661 102.125 192.572 102.453 192.572 102.822V108H191.315ZM199.971 108.17C199.203 108.17 198.543 107.989 197.989 107.627C197.435 107.265 197.009 106.766 196.711 106.13C196.412 105.495 196.263 104.768 196.263 103.952C196.263 103.121 196.416 102.387 196.721 101.752C197.03 101.113 197.46 100.614 198.01 100.255C198.564 99.8928 199.211 99.7116 199.949 99.7116C200.525 99.7116 201.043 99.8182 201.505 100.031C201.966 100.244 202.344 100.543 202.639 100.926C202.934 101.31 203.117 101.757 203.188 102.268H201.931C201.835 101.896 201.622 101.565 201.292 101.278C200.965 100.987 200.525 100.841 199.971 100.841C199.48 100.841 199.051 100.969 198.681 101.224C198.316 101.477 198.03 101.833 197.824 102.295C197.621 102.753 197.52 103.291 197.52 103.909C197.52 104.541 197.62 105.092 197.819 105.56C198.021 106.029 198.305 106.393 198.671 106.652C199.04 106.912 199.473 107.041 199.971 107.041C200.297 107.041 200.594 106.984 200.86 106.871C201.126 106.757 201.352 106.594 201.537 106.381C201.721 106.168 201.853 105.912 201.931 105.614H203.188C203.117 106.097 202.941 106.532 202.661 106.919C202.384 107.302 202.016 107.608 201.558 107.835C201.103 108.059 200.574 108.17 199.971 108.17ZM208.456 108.17C207.668 108.17 206.988 107.996 206.416 107.648C205.848 107.297 205.409 106.807 205.1 106.178C204.795 105.546 204.642 104.811 204.642 103.973C204.642 103.135 204.795 102.396 205.1 101.757C205.409 101.114 205.839 100.614 206.389 100.255C206.943 99.8928 207.589 99.7116 208.328 99.7116C208.754 99.7116 209.175 99.7827 209.591 99.9247C210.006 100.067 210.384 100.298 210.725 100.617C211.066 100.933 211.338 101.352 211.54 101.874C211.743 102.396 211.844 103.039 211.844 103.803V104.335H205.537V103.249H210.565C210.565 102.787 210.473 102.375 210.288 102.013C210.107 101.651 209.848 101.365 209.511 101.155C209.177 100.946 208.783 100.841 208.328 100.841C207.827 100.841 207.394 100.965 207.028 101.214C206.666 101.459 206.387 101.778 206.192 102.173C205.997 102.567 205.899 102.989 205.899 103.44V104.165C205.899 104.783 206.006 105.306 206.219 105.736C206.435 106.162 206.735 106.487 207.119 106.711C207.502 106.931 207.948 107.041 208.456 107.041C208.786 107.041 209.085 106.995 209.351 106.903C209.621 106.807 209.853 106.665 210.049 106.477C210.244 106.285 210.395 106.047 210.501 105.763L211.716 106.104C211.588 106.516 211.373 106.878 211.071 107.19C210.77 107.499 210.397 107.741 209.953 107.915C209.509 108.085 209.01 108.17 208.456 108.17ZM213.756 108V99.8182H215.013V108H213.756ZM214.395 98.4545C214.15 98.4545 213.939 98.3711 213.761 98.2042C213.587 98.0373 213.5 97.8366 213.5 97.6023C213.5 97.3679 213.587 97.1673 213.761 97.0004C213.939 96.8335 214.15 96.75 214.395 96.75C214.64 96.75 214.85 96.8335 215.024 97.0004C215.201 97.1673 215.29 97.3679 215.29 97.6023C215.29 97.8366 215.201 98.0373 215.024 98.2042C214.85 98.3711 214.64 98.4545 214.395 98.4545ZM224.006 99.8182L220.98 108H219.702L216.676 99.8182H218.04L220.299 106.338H220.384L222.642 99.8182H224.006ZM227.824 108.192C227.305 108.192 226.835 108.094 226.412 107.899C225.99 107.7 225.654 107.414 225.406 107.041C225.157 106.665 225.033 106.21 225.033 105.678C225.033 105.209 225.125 104.829 225.31 104.538C225.494 104.243 225.741 104.012 226.05 103.845C226.359 103.678 226.7 103.554 227.073 103.472C227.449 103.387 227.827 103.32 228.207 103.27C228.705 103.206 229.108 103.158 229.417 103.126C229.729 103.091 229.956 103.032 230.098 102.95C230.244 102.869 230.317 102.727 230.317 102.524V102.482C230.317 101.956 230.173 101.548 229.885 101.256C229.601 100.965 229.17 100.82 228.591 100.82C227.991 100.82 227.52 100.951 227.179 101.214C226.838 101.477 226.599 101.757 226.46 102.055L225.267 101.629C225.48 101.132 225.764 100.745 226.119 100.468C226.478 100.187 226.869 99.9922 227.291 99.8821C227.717 99.7685 228.136 99.7116 228.548 99.7116C228.811 99.7116 229.113 99.7436 229.454 99.8075C229.798 99.8679 230.13 99.994 230.45 100.186C230.773 100.377 231.041 100.667 231.254 101.054C231.467 101.441 231.574 101.96 231.574 102.609V108H230.317V106.892H230.253C230.168 107.07 230.026 107.26 229.827 107.462C229.628 107.664 229.363 107.837 229.033 107.979C228.703 108.121 228.3 108.192 227.824 108.192ZM228.016 107.062C228.513 107.062 228.932 106.965 229.273 106.77C229.617 106.574 229.876 106.322 230.05 106.013C230.228 105.704 230.317 105.379 230.317 105.038V103.888C230.263 103.952 230.146 104.01 229.965 104.064C229.788 104.113 229.582 104.158 229.347 104.197C229.116 104.232 228.891 104.264 228.671 104.293C228.454 104.317 228.278 104.339 228.143 104.357C227.817 104.399 227.511 104.468 227.227 104.564C226.947 104.657 226.719 104.797 226.545 104.985C226.375 105.17 226.29 105.422 226.29 105.741C226.29 106.178 226.451 106.509 226.775 106.732C227.101 106.952 227.515 107.062 228.016 107.062ZM234.039 108V97.0909H235.296V101.118H235.402C235.495 100.976 235.623 100.795 235.786 100.575C235.953 100.351 236.191 100.152 236.5 99.978C236.812 99.8004 237.235 99.7116 237.767 99.7116C238.456 99.7116 239.064 99.8839 239.589 100.228C240.115 100.573 240.525 101.061 240.82 101.693C241.114 102.325 241.262 103.071 241.262 103.93C241.262 104.797 241.114 105.548 240.82 106.184C240.525 106.816 240.117 107.306 239.595 107.654C239.073 107.998 238.471 108.17 237.789 108.17C237.263 108.17 236.842 108.083 236.526 107.909C236.21 107.732 235.967 107.531 235.797 107.308C235.626 107.08 235.495 106.892 235.402 106.743H235.253V108H234.039ZM235.275 103.909C235.275 104.527 235.365 105.072 235.546 105.544C235.727 106.013 235.992 106.381 236.34 106.647C236.688 106.91 237.114 107.041 237.618 107.041C238.144 107.041 238.582 106.903 238.934 106.626C239.289 106.345 239.555 105.969 239.733 105.496C239.914 105.021 240.005 104.491 240.005 103.909C240.005 103.334 239.916 102.815 239.738 102.354C239.564 101.888 239.3 101.521 238.945 101.251C238.593 100.978 238.151 100.841 237.618 100.841C237.107 100.841 236.677 100.971 236.329 101.23C235.981 101.485 235.718 101.844 235.541 102.306C235.363 102.764 235.275 103.298 235.275 103.909ZM244.442 97.0909V108H243.185V97.0909H244.442ZM250.175 108.17C249.386 108.17 248.706 107.996 248.135 107.648C247.566 107.297 247.128 106.807 246.819 106.178C246.513 105.546 246.361 104.811 246.361 103.973C246.361 103.135 246.513 102.396 246.819 101.757C247.128 101.114 247.558 100.614 248.108 100.255C248.662 99.8928 249.308 99.7116 250.047 99.7116C250.473 99.7116 250.894 99.7827 251.309 99.9247C251.725 100.067 252.103 100.298 252.444 100.617C252.785 100.933 253.056 101.352 253.259 101.874C253.461 102.396 253.562 103.039 253.562 103.803V104.335H247.256V103.249H252.284C252.284 102.787 252.192 102.375 252.007 102.013C251.826 101.651 251.567 101.365 251.229 101.155C250.896 100.946 250.501 100.841 250.047 100.841C249.546 100.841 249.113 100.965 248.747 101.214C248.385 101.459 248.106 101.778 247.911 102.173C247.716 102.567 247.618 102.989 247.618 103.44V104.165C247.618 104.783 247.724 105.306 247.938 105.736C248.154 106.162 248.454 106.487 248.838 106.711C249.221 106.931 249.667 107.041 250.175 107.041C250.505 107.041 250.803 106.995 251.07 106.903C251.339 106.807 251.572 106.665 251.767 106.477C251.963 106.285 252.114 106.047 252.22 105.763L253.435 106.104C253.307 106.516 253.092 106.878 252.79 107.19C252.488 107.499 252.115 107.741 251.672 107.915C251.228 108.085 250.729 108.17 250.175 108.17Z" fill="black"/>
<path d="M286.761 80.7273V88H285.881V80.7273H286.761ZM289.527 80.7273H290.578L293.05 86.7642H293.135L295.607 80.7273H296.658V88H295.834V82.4744H295.763L293.49 88H292.695L290.422 82.4744H290.351V88H289.527V80.7273ZM299.424 88V80.7273H301.881C302.452 80.7273 302.918 80.8303 303.28 81.0362C303.645 81.2398 303.915 81.5156 304.09 81.8636C304.265 82.2116 304.353 82.5999 304.353 83.0284C304.353 83.4569 304.265 83.8464 304.09 84.1967C303.917 84.5471 303.65 84.8265 303.287 85.0348C302.925 85.2408 302.461 85.3438 301.895 85.3438H300.134V84.5625H301.867C302.257 84.5625 302.571 84.495 302.808 84.3601C303.045 84.2251 303.216 84.0429 303.323 83.8132C303.432 83.5812 303.486 83.3196 303.486 83.0284C303.486 82.7372 303.432 82.4768 303.323 82.2472C303.216 82.0175 303.043 81.8376 302.804 81.7074C302.565 81.5748 302.248 81.5085 301.853 81.5085H300.304V88H299.424ZM306.327 88H305.404L308.075 80.7273H308.984L311.654 88H310.731L308.558 81.8778H308.501L306.327 88ZM306.668 85.1591H310.39V85.9403H306.668V85.1591ZM319.297 83H318.417C318.365 82.7467 318.273 82.5241 318.143 82.3324C318.015 82.1406 317.859 81.9796 317.675 81.8494C317.492 81.7169 317.29 81.6174 317.067 81.5511C316.845 81.4848 316.613 81.4517 316.371 81.4517C315.931 81.4517 315.532 81.563 315.175 81.7855C314.819 82.008 314.537 82.3359 314.326 82.7692C314.117 83.2024 314.013 83.7339 314.013 84.3636C314.013 84.9934 314.117 85.5249 314.326 85.9581C314.537 86.3913 314.819 86.7192 315.175 86.9418C315.532 87.1643 315.931 87.2756 316.371 87.2756C316.613 87.2756 316.845 87.2424 317.067 87.1761C317.29 87.1098 317.492 87.0116 317.675 86.8814C317.859 86.7488 318.015 86.5866 318.143 86.3949C318.273 86.2008 318.365 85.9782 318.417 85.7273H319.297C319.231 86.099 319.11 86.4316 318.935 86.7251C318.76 87.0187 318.542 87.2685 318.282 87.4744C318.021 87.678 317.729 87.8331 317.405 87.9396C317.083 88.0462 316.738 88.0994 316.371 88.0994C315.751 88.0994 315.199 87.9479 314.716 87.6449C314.233 87.3419 313.854 86.911 313.577 86.3523C313.3 85.7936 313.161 85.1307 313.161 84.3636C313.161 83.5966 313.3 82.9337 313.577 82.375C313.854 81.8163 314.233 81.3854 314.716 81.0824C315.199 80.7794 315.751 80.6278 316.371 80.6278C316.738 80.6278 317.083 80.6811 317.405 80.7876C317.729 80.8942 318.021 81.0504 318.282 81.2564C318.542 81.46 318.76 81.7086 318.935 82.0021C319.11 82.2933 319.231 82.6259 319.297 83ZM321.323 81.5085V80.7273H326.777V81.5085H324.49V88H323.61V81.5085H321.323ZM332.551 81.5085V80.7273H338.006V81.5085H335.719V88H334.838V81.5085H332.551ZM346.199 84.3636C346.199 85.1307 346.06 85.7936 345.783 86.3523C345.506 86.911 345.126 87.3419 344.643 87.6449C344.16 87.9479 343.609 88.0994 342.988 88.0994C342.368 88.0994 341.817 87.9479 341.334 87.6449C340.851 87.3419 340.471 86.911 340.194 86.3523C339.917 85.7936 339.778 85.1307 339.778 84.3636C339.778 83.5966 339.917 82.9337 340.194 82.375C340.471 81.8163 340.851 81.3854 341.334 81.0824C341.817 80.7794 342.368 80.6278 342.988 80.6278C343.609 80.6278 344.16 80.7794 344.643 81.0824C345.126 81.3854 345.506 81.8163 345.783 82.375C346.06 82.9337 346.199 83.5966 346.199 84.3636ZM345.346 84.3636C345.346 83.7339 345.241 83.2024 345.03 82.7692C344.822 82.3359 344.539 82.008 344.182 81.7855C343.827 81.563 343.429 81.4517 342.988 81.4517C342.548 81.4517 342.149 81.563 341.792 81.7855C341.437 82.008 341.154 82.3359 340.943 82.7692C340.735 83.2024 340.631 83.7339 340.631 84.3636C340.631 84.9934 340.735 85.5249 340.943 85.9581C341.154 86.3913 341.437 86.7192 341.792 86.9418C342.149 87.1643 342.548 87.2756 342.988 87.2756C343.429 87.2756 343.827 87.1643 344.182 86.9418C344.539 86.7192 344.822 86.3913 345.03 85.9581C345.241 85.5249 345.346 84.9934 345.346 84.3636ZM357.265 80.7273H358.145V85.5426C358.145 86.0398 358.028 86.4837 357.794 86.8743C357.562 87.2625 357.234 87.5691 356.81 87.794C356.386 88.0166 355.889 88.1278 355.319 88.1278C354.748 88.1278 354.251 88.0166 353.827 87.794C353.403 87.5691 353.074 87.2625 352.84 86.8743C352.608 86.4837 352.492 86.0398 352.492 85.5426V80.7273H353.373V85.4716C353.373 85.8267 353.451 86.1428 353.607 86.4197C353.763 86.6944 353.986 86.911 354.275 87.0696C354.566 87.2259 354.914 87.304 355.319 87.304C355.724 87.304 356.072 87.2259 356.363 87.0696C356.654 86.911 356.876 86.6944 357.03 86.4197C357.187 86.1428 357.265 85.8267 357.265 85.4716V80.7273ZM364.881 82.5455C364.839 82.1856 364.666 81.9062 364.363 81.7074C364.06 81.5085 363.688 81.4091 363.248 81.4091C362.926 81.4091 362.644 81.4612 362.403 81.5653C362.164 81.6695 361.977 81.8127 361.842 81.995C361.709 82.1773 361.643 82.3845 361.643 82.6165C361.643 82.8106 361.689 82.9775 361.781 83.1172C361.876 83.2545 361.997 83.3693 362.143 83.4616C362.29 83.5516 362.444 83.6262 362.605 83.6854C362.766 83.7422 362.914 83.7884 363.049 83.8239L363.788 84.0227C363.977 84.0724 364.188 84.1411 364.42 84.2287C364.654 84.3163 364.878 84.4358 365.091 84.5874C365.306 84.7365 365.484 84.9283 365.624 85.1626C365.763 85.397 365.833 85.6847 365.833 86.0256C365.833 86.4186 365.73 86.7737 365.524 87.0909C365.321 87.4081 365.022 87.6603 364.629 87.8473C364.239 88.0343 363.764 88.1278 363.205 88.1278C362.684 88.1278 362.233 88.0438 361.852 87.8757C361.473 87.7076 361.175 87.4732 360.957 87.1726C360.742 86.8719 360.62 86.5227 360.592 86.125H361.501C361.524 86.3996 361.617 86.6269 361.778 86.8068C361.941 86.9844 362.147 87.117 362.396 87.2045C362.647 87.2898 362.916 87.3324 363.205 87.3324C363.541 87.3324 363.843 87.2779 364.111 87.169C364.378 87.0578 364.59 86.9039 364.746 86.7074C364.903 86.5085 364.981 86.2765 364.981 86.0114C364.981 85.7699 364.913 85.5734 364.778 85.4219C364.643 85.2704 364.466 85.1473 364.246 85.0526C364.026 84.9579 363.788 84.875 363.532 84.804L362.637 84.5483C362.069 84.3849 361.619 84.1518 361.288 83.8487C360.956 83.5457 360.79 83.1491 360.79 82.6591C360.79 82.2519 360.901 81.8968 361.121 81.5938C361.343 81.2884 361.642 81.0516 362.016 80.8835C362.392 80.7131 362.812 80.6278 363.276 80.6278C363.745 80.6278 364.162 80.7119 364.526 80.88C364.891 81.0457 365.18 81.273 365.393 81.5618C365.608 81.8506 365.722 82.1785 365.734 82.5455H364.881ZM368.281 88V80.7273H372.67V81.5085H369.162V83.9659H372.443V84.7472H369.162V87.2188H372.727V88H368.281ZM375.258 88V80.7273H377.715C378.283 80.7273 378.75 80.8243 379.114 81.0185C379.479 81.2102 379.749 81.4742 379.924 81.8104C380.099 82.1465 380.187 82.5289 380.187 82.9574C380.187 83.3859 380.099 83.7659 379.924 84.0973C379.749 84.4287 379.48 84.6892 379.118 84.8786C378.756 85.0656 378.293 85.1591 377.729 85.1591H375.741V84.3636H377.701C378.089 84.3636 378.402 84.3068 378.638 84.1932C378.877 84.0795 379.05 83.9186 379.157 83.7102C379.266 83.4995 379.32 83.2486 379.32 82.9574C379.32 82.6662 379.266 82.4117 379.157 82.1939C379.048 81.9761 378.874 81.808 378.635 81.6896C378.396 81.5689 378.08 81.5085 377.687 81.5085H376.138V88H375.258ZM378.681 84.733L380.471 88H379.448L377.687 84.733H378.681ZM386.631 82.5455C386.589 82.1856 386.416 81.9062 386.113 81.7074C385.81 81.5085 385.438 81.4091 384.998 81.4091C384.676 81.4091 384.394 81.4612 384.153 81.5653C383.914 81.6695 383.727 81.8127 383.592 81.995C383.459 82.1773 383.393 82.3845 383.393 82.6165C383.393 82.8106 383.439 82.9775 383.531 83.1172C383.626 83.2545 383.747 83.3693 383.893 83.4616C384.04 83.5516 384.194 83.6262 384.355 83.6854C384.516 83.7422 384.664 83.7884 384.799 83.8239L385.538 84.0227C385.727 84.0724 385.938 84.1411 386.17 84.2287C386.404 84.3163 386.628 84.4358 386.841 84.5874C387.056 84.7365 387.234 84.9283 387.374 85.1626C387.513 85.397 387.583 85.6847 387.583 86.0256C387.583 86.4186 387.48 86.7737 387.274 87.0909C387.071 87.4081 386.772 87.6603 386.379 87.8473C385.989 88.0343 385.514 88.1278 384.955 88.1278C384.434 88.1278 383.983 88.0438 383.602 87.8757C383.223 87.7076 382.925 87.4732 382.707 87.1726C382.492 86.8719 382.37 86.5227 382.342 86.125H383.251C383.274 86.3996 383.367 86.6269 383.528 86.8068C383.691 86.9844 383.897 87.117 384.146 87.2045C384.397 87.2898 384.666 87.3324 384.955 87.3324C385.291 87.3324 385.593 87.2779 385.861 87.169C386.128 87.0578 386.34 86.9039 386.496 86.7074C386.653 86.5085 386.731 86.2765 386.731 86.0114C386.731 85.7699 386.663 85.5734 386.528 85.4219C386.393 85.2704 386.216 85.1473 385.996 85.0526C385.776 84.9579 385.538 84.875 385.282 84.804L384.387 84.5483C383.819 84.3849 383.369 84.1518 383.038 83.8487C382.706 83.5457 382.54 83.1491 382.54 82.6591C382.54 82.2519 382.651 81.8968 382.871 81.5938C383.093 81.2884 383.392 81.0516 383.766 80.8835C384.142 80.7131 384.562 80.6278 385.026 80.6278C385.495 80.6278 385.912 80.7119 386.276 80.88C386.641 81.0457 386.93 81.273 387.143 81.5618C387.358 81.8506 387.472 82.1785 387.484 82.5455H386.631Z" fill="#5E5E5E"/>
<path d="M292 97.0625C289.949 97.0625 288.09 98.1562 287.051 99.9062C286.039 101.684 286.039 103.844 287.051 105.594C288.09 107.371 289.949 108.438 292 108.438C294.023 108.438 295.883 107.371 296.922 105.594C297.934 103.844 297.934 101.684 296.922 99.9062C295.883 98.1562 294.023 97.0625 292 97.0625ZM292 109.75C289.484 109.75 287.188 108.438 285.93 106.25C284.672 104.09 284.672 101.438 285.93 99.25C287.188 97.0898 289.484 95.75 292 95.75C294.488 95.75 296.785 97.0898 298.043 99.25C299.301 101.438 299.301 104.09 298.043 106.25C296.785 108.438 294.488 109.75 292 109.75ZM292 99.25C292.355 99.25 292.656 99.5508 292.656 99.9062V102.969C292.656 103.352 292.355 103.625 292 103.625C291.617 103.625 291.344 103.352 291.344 102.969V99.9062C291.344 99.5508 291.617 99.25 292 99.25ZM292.875 105.375C292.875 105.867 292.465 106.25 292 106.25C291.508 106.25 291.125 105.867 291.125 105.375C291.125 104.91 291.508 104.5 292 104.5C292.465 104.5 292.875 104.91 292.875 105.375Z" fill="#FF3B30"/>
<path d="M310.287 99.8182C310.223 99.2784 309.964 98.8594 309.509 98.5611C309.055 98.2628 308.497 98.1136 307.837 98.1136C307.354 98.1136 306.931 98.1918 306.569 98.348C306.21 98.5043 305.93 98.7191 305.727 98.9925C305.528 99.266 305.429 99.5767 305.429 99.9247C305.429 100.216 305.498 100.466 305.637 100.676C305.779 100.882 305.96 101.054 306.18 101.192C306.4 101.327 306.631 101.439 306.873 101.528C307.114 101.613 307.336 101.683 307.538 101.736L308.646 102.034C308.93 102.109 309.246 102.212 309.594 102.343C309.946 102.474 310.282 102.654 310.601 102.881C310.924 103.105 311.191 103.392 311.4 103.744C311.61 104.096 311.714 104.527 311.714 105.038C311.714 105.628 311.56 106.161 311.251 106.636C310.946 107.112 310.498 107.49 309.909 107.771C309.323 108.051 308.611 108.192 307.773 108.192C306.991 108.192 306.315 108.066 305.743 107.814C305.175 107.561 304.728 107.21 304.401 106.759C304.078 106.308 303.895 105.784 303.852 105.188H305.216C305.251 105.599 305.39 105.94 305.631 106.21C305.876 106.477 306.185 106.675 306.558 106.807C306.935 106.935 307.339 106.999 307.773 106.999C308.277 106.999 308.73 106.917 309.131 106.754C309.532 106.587 309.85 106.356 310.085 106.061C310.319 105.763 310.436 105.415 310.436 105.017C310.436 104.655 310.335 104.36 310.132 104.133C309.93 103.906 309.664 103.721 309.333 103.579C309.003 103.437 308.646 103.312 308.263 103.206L306.92 102.822C306.068 102.577 305.393 102.228 304.896 101.773C304.399 101.319 304.151 100.724 304.151 99.9886C304.151 99.3778 304.316 98.8452 304.646 98.3906C304.98 97.9325 305.427 97.5774 305.988 97.3253C306.553 97.0696 307.183 96.9418 307.879 96.9418C308.582 96.9418 309.207 97.0678 309.754 97.32C310.301 97.5685 310.734 97.9094 311.054 98.3427C311.377 98.7759 311.548 99.2678 311.565 99.8182H310.287ZM317.146 108.17C316.358 108.17 315.678 107.996 315.106 107.648C314.538 107.297 314.1 106.807 313.791 106.178C313.485 105.546 313.332 104.811 313.332 103.973C313.332 103.135 313.485 102.396 313.791 101.757C314.1 101.114 314.529 100.614 315.08 100.255C315.634 99.8928 316.28 99.7116 317.019 99.7116C317.445 99.7116 317.866 99.7827 318.281 99.9247C318.696 100.067 319.075 100.298 319.416 100.617C319.756 100.933 320.028 101.352 320.231 101.874C320.433 102.396 320.534 103.039 320.534 103.803V104.335H314.227V103.249H319.256C319.256 102.787 319.163 102.375 318.979 102.013C318.798 101.651 318.538 101.365 318.201 101.155C317.867 100.946 317.473 100.841 317.019 100.841C316.518 100.841 316.085 100.965 315.719 101.214C315.357 101.459 315.078 101.778 314.883 102.173C314.687 102.567 314.59 102.989 314.59 103.44V104.165C314.59 104.783 314.696 105.306 314.909 105.736C315.126 106.162 315.426 106.487 315.809 106.711C316.193 106.931 316.639 107.041 317.146 107.041C317.477 107.041 317.775 106.995 318.041 106.903C318.311 106.807 318.544 106.665 318.739 106.477C318.934 106.285 319.085 106.047 319.192 105.763L320.406 106.104C320.278 106.516 320.064 106.878 319.762 107.19C319.46 107.499 319.087 107.741 318.643 107.915C318.199 108.085 317.7 108.17 317.146 108.17ZM322.446 108V99.8182H323.661V101.054H323.746C323.895 100.649 324.165 100.321 324.556 100.069C324.946 99.8164 325.387 99.6903 325.877 99.6903C325.969 99.6903 326.085 99.6921 326.223 99.6957C326.362 99.6992 326.466 99.7045 326.537 99.7116V100.99C326.495 100.979 326.397 100.963 326.244 100.942C326.095 100.917 325.937 100.905 325.77 100.905C325.373 100.905 325.017 100.988 324.705 101.155C324.396 101.319 324.151 101.546 323.97 101.837C323.792 102.125 323.704 102.453 323.704 102.822V108H322.446ZM328.028 108V99.8182H329.285V108H328.028ZM328.667 98.4545C328.422 98.4545 328.21 98.3711 328.033 98.2042C327.859 98.0373 327.772 97.8366 327.772 97.6023C327.772 97.3679 327.859 97.1673 328.033 97.0004C328.21 96.8335 328.422 96.75 328.667 96.75C328.912 96.75 329.121 96.8335 329.295 97.0004C329.473 97.1673 329.562 97.3679 329.562 97.6023C329.562 97.8366 329.473 98.0373 329.295 98.2042C329.121 98.3711 328.912 98.4545 328.667 98.4545ZM334.911 108.17C334.172 108.17 333.524 107.995 332.967 107.643C332.413 107.292 331.979 106.8 331.667 106.168C331.358 105.536 331.204 104.797 331.204 103.952C331.204 103.099 331.358 102.355 331.667 101.72C331.979 101.084 332.413 100.591 332.967 100.239C333.524 99.8874 334.172 99.7116 334.911 99.7116C335.65 99.7116 336.296 99.8874 336.85 100.239C337.407 100.591 337.841 101.084 338.15 101.72C338.462 102.355 338.618 103.099 338.618 103.952C338.618 104.797 338.462 105.536 338.15 106.168C337.841 106.8 337.407 107.292 336.85 107.643C336.296 107.995 335.65 108.17 334.911 108.17ZM334.911 107.041C335.472 107.041 335.934 106.897 336.296 106.61C336.658 106.322 336.926 105.944 337.1 105.475C337.274 105.006 337.361 104.499 337.361 103.952C337.361 103.405 337.274 102.895 337.1 102.423C336.926 101.951 336.658 101.569 336.296 101.278C335.934 100.987 335.472 100.841 334.911 100.841C334.35 100.841 333.888 100.987 333.526 101.278C333.164 101.569 332.896 101.951 332.722 102.423C332.548 102.895 332.461 103.405 332.461 103.952C332.461 104.499 332.548 105.006 332.722 105.475C332.896 105.944 333.164 106.322 333.526 106.61C333.888 106.897 334.35 107.041 334.911 107.041ZM345.694 104.655V99.8182H346.951V108H345.694V106.615H345.608C345.417 107.031 345.118 107.384 344.713 107.675C344.309 107.963 343.797 108.107 343.179 108.107C342.668 108.107 342.213 107.995 341.816 107.771C341.418 107.544 341.105 107.203 340.878 106.748C340.651 106.29 340.537 105.713 340.537 105.017V99.8182H341.794V104.932C341.794 105.528 341.961 106.004 342.295 106.359C342.632 106.714 343.062 106.892 343.584 106.892C343.897 106.892 344.214 106.812 344.538 106.652C344.864 106.493 345.138 106.248 345.358 105.917C345.582 105.587 345.694 105.166 345.694 104.655ZM355.049 101.651L353.919 101.97C353.848 101.782 353.744 101.599 353.605 101.422C353.47 101.24 353.285 101.091 353.051 100.974C352.817 100.857 352.517 100.798 352.151 100.798C351.65 100.798 351.233 100.914 350.899 101.145C350.569 101.372 350.404 101.661 350.404 102.013C350.404 102.325 350.517 102.572 350.745 102.753C350.972 102.934 351.327 103.085 351.81 103.206L353.024 103.504C353.756 103.682 354.301 103.953 354.66 104.319C355.018 104.681 355.198 105.148 355.198 105.72C355.198 106.189 355.063 106.608 354.793 106.977C354.527 107.347 354.154 107.638 353.674 107.851C353.195 108.064 352.637 108.17 352.002 108.17C351.167 108.17 350.476 107.989 349.93 107.627C349.383 107.265 349.036 106.736 348.891 106.04L350.084 105.741C350.198 106.182 350.413 106.512 350.729 106.732C351.048 106.952 351.465 107.062 351.98 107.062C352.566 107.062 353.032 106.938 353.376 106.69C353.724 106.437 353.898 106.136 353.898 105.784C353.898 105.5 353.799 105.262 353.6 105.07C353.401 104.875 353.095 104.729 352.684 104.634L351.32 104.314C350.571 104.136 350.02 103.861 349.669 103.488C349.321 103.112 349.147 102.641 349.147 102.077C349.147 101.615 349.276 101.207 349.535 100.852C349.798 100.496 350.155 100.218 350.606 100.015C351.061 99.8129 351.576 99.7116 352.151 99.7116C352.96 99.7116 353.596 99.8892 354.058 100.244C354.523 100.599 354.853 101.068 355.049 101.651Z" fill="black"/>
</g>
<defs>
<clipPath id="clip0_316_104779">
<rect width="389" height="112" fill="white"/>
</clipPath>
</defs>
</svg>
