<svg width="20" height="20" viewBox="0 0 20 20" fill="none" xmlns="http://www.w3.org/2000/svg">
<path d="M1.5 2H2.65625C3.3125 2 3.875 2.40625 4.09375 3H17.8438C18.5 3 18.9688 3.625 18.8125 4.25L17.5 9.5C17.2812 10.375 16.4688 11 15.5625 11H5.75L5.96875 12.2188C6.0625 12.6875 6.5 13 6.96875 13H16.5C16.75 13 17 13.25 17 13.5C17 13.7812 16.75 14 16.5 14H6.96875C6 14 5.1875 13.3438 5 12.4062L3.15625 3.40625C3.125 3.1875 2.90625 3 2.65625 3H1.5C1.21875 3 1 2.78125 1 2.5C1 2.25 1.21875 2 1.5 2ZM4.3125 4L5.53125 10H15.5625C16.0312 10 16.4375 9.6875 16.5312 9.25L17.8438 4H4.3125ZM6.25 16.25C6.25 16.6875 6.5625 17 7 17C7.40625 17 7.75 16.6875 7.75 16.25C7.75 15.8438 7.40625 15.5 7 15.5C6.5625 15.5 6.25 15.8438 6.25 16.25ZM8.75 16.25C8.75 16.9062 8.40625 17.4688 7.875 17.7812C7.3125 18.0938 6.65625 18.0938 6.125 17.7812C5.5625 17.4688 5.25 16.9062 5.25 16.25C5.25 15.625 5.5625 15.0625 6.125 14.75C6.65625 14.4375 7.3125 14.4375 7.875 14.75C8.40625 15.0625 8.75 15.625 8.75 16.25ZM15 15.5C14.5625 15.5 14.25 15.8438 14.25 16.25C14.25 16.6875 14.5625 17 15 17C15.4062 17 15.75 16.6875 15.75 16.25C15.75 15.8438 15.4062 15.5 15 15.5ZM15 18C14.3438 18 13.7812 17.6875 13.4688 17.125C13.1562 16.5938 13.1562 15.9375 13.4688 15.375C13.7812 14.8438 14.3438 14.5 15 14.5C15.625 14.5 16.1875 14.8438 16.5 15.375C16.8125 15.9375 16.8125 16.5938 16.5 17.125C16.1875 17.6875 15.625 18 15 18Z" fill="black"/>
</svg>
