<svg width="500" height="500" viewBox="0 0 500 500" fill="none" xmlns="http://www.w3.org/2000/svg">
<rect width="500" height="500" rx="4" fill="white"/>
<path d="M18.1573 64V44.3636H30.3342V46.9141H21.12V52.897H29.4616V55.4379H21.12V64H18.1573ZM33.7475 64V49.2727H36.6143V64H33.7475ZM35.1953 47.0004C34.6967 47.0004 34.2685 46.8342 33.9105 46.5018C33.5589 46.163 33.3832 45.7603 33.3832 45.2937C33.3832 44.8207 33.5589 44.418 33.9105 44.0856C34.2685 43.7468 34.6967 43.5774 35.1953 43.5774C35.6939 43.5774 36.119 43.7468 36.4705 44.0856C36.8285 44.418 37.0075 44.8207 37.0075 45.2937C37.0075 45.7603 36.8285 46.163 36.4705 46.5018C36.119 46.8342 35.6939 47.0004 35.1953 47.0004ZM40.4711 64V49.2727H43.2421V51.6122H43.3955C43.664 50.8196 44.137 50.1964 44.8145 49.7425C45.4985 49.2823 46.2719 49.0522 47.1349 49.0522C47.3138 49.0522 47.5248 49.0586 47.7677 49.0714C48.017 49.0842 48.2119 49.1001 48.3525 49.1193V51.8615C48.2375 51.8295 48.0329 51.7944 47.7389 51.756C47.4449 51.7113 47.1508 51.6889 46.8568 51.6889C46.1792 51.6889 45.5752 51.8327 45.0447 52.1204C44.5205 52.4016 44.105 52.7947 43.7982 53.2997C43.4914 53.7983 43.338 54.3672 43.338 55.0064V64H40.4711ZM61.8693 52.8683L59.271 53.3285C59.1623 52.9961 58.9897 52.6797 58.7532 52.3793C58.5231 52.0788 58.2099 51.8327 57.8136 51.641C57.4173 51.4492 56.9219 51.3533 56.3274 51.3533C55.5156 51.3533 54.8381 51.5355 54.2947 51.8999C53.7514 52.2578 53.4798 52.7212 53.4798 53.2901C53.4798 53.7823 53.6619 54.1786 54.0263 54.479C54.3906 54.7795 54.9787 55.0256 55.7905 55.2173L58.13 55.7543C59.4851 56.0675 60.495 56.5501 61.1598 57.2021C61.8246 57.854 62.157 58.701 62.157 59.7429C62.157 60.625 61.9013 61.4112 61.3899 62.1016C60.8849 62.7855 60.1786 63.3224 59.271 63.7124C58.3697 64.1023 57.3246 64.2972 56.1357 64.2972C54.4865 64.2972 53.141 63.9457 52.0991 63.2425C51.0572 62.533 50.418 61.5263 50.1815 60.2223L52.9524 59.8004C53.125 60.5227 53.4798 61.0692 54.0167 61.44C54.5536 61.8043 55.2536 61.9865 56.1165 61.9865C57.0561 61.9865 57.8072 61.7915 58.3697 61.4016C58.9322 61.0053 59.2134 60.5227 59.2134 59.9538C59.2134 59.4936 59.0408 59.1069 58.6957 58.7937C58.3569 58.4805 57.8359 58.244 57.1328 58.0842L54.6399 57.5376C53.2656 57.2244 52.2493 56.7259 51.5909 56.0419C50.9389 55.358 50.6129 54.4918 50.6129 53.4435C50.6129 52.5742 50.8558 51.8136 51.3416 51.1616C51.8274 50.5096 52.4986 50.0014 53.3551 49.6371C54.2116 49.2663 55.1928 49.081 56.2987 49.081C57.8903 49.081 59.1431 49.4261 60.0572 50.1165C60.9712 50.8004 61.5753 51.7177 61.8693 52.8683ZM72.1837 49.2727V51.5739H64.1393V49.2727H72.1837ZM66.2966 45.7443H69.1634V59.6758C69.1634 60.2319 69.2465 60.6506 69.4127 60.9318C69.5789 61.2067 69.7931 61.3952 70.0551 61.4975C70.3236 61.5934 70.6144 61.6413 70.9276 61.6413C71.1578 61.6413 71.3591 61.6254 71.5317 61.5934C71.7043 61.5614 71.8385 61.5359 71.9344 61.5167L72.4521 63.8849C72.286 63.9489 72.0494 64.0128 71.7426 64.0767C71.4358 64.147 71.0523 64.1854 70.5921 64.1918C69.8378 64.2045 69.1347 64.0703 68.4827 63.7891C67.8307 63.5078 67.3034 63.0732 66.9007 62.4851C66.498 61.897 66.2966 61.1587 66.2966 60.2702V45.7443ZM85.6933 44.3636V64H82.7306V44.3636H85.6933ZM89.7778 64V49.2727H92.5296V51.6697H92.7117C93.0186 50.858 93.5203 50.2251 94.2171 49.7713C94.9138 49.3111 95.748 49.081 96.7195 49.081C97.7039 49.081 98.5285 49.3111 99.1933 49.7713C99.8644 50.2315 100.36 50.8643 100.679 51.6697H100.833C101.184 50.8835 101.744 50.2571 102.511 49.7905C103.278 49.3175 104.192 49.081 105.253 49.081C106.589 49.081 107.679 49.4996 108.522 50.337C109.373 51.1744 109.798 52.4368 109.798 54.1243V64H106.931V54.3928C106.931 53.3956 106.659 52.6733 106.116 52.2259C105.573 51.7784 104.924 51.5547 104.169 51.5547C103.236 51.5547 102.511 51.8423 101.993 52.4176C101.475 52.9865 101.216 53.7184 101.216 54.6133V64H98.3591V54.2106C98.3591 53.4116 98.1098 52.7692 97.6112 52.2834C97.1127 51.7976 96.4639 51.5547 95.6649 51.5547C95.1215 51.5547 94.6198 51.6985 94.1595 51.9862C93.7057 52.2674 93.3382 52.6605 93.0569 53.1655C92.782 53.6705 92.6446 54.2553 92.6446 54.9201V64H89.7778ZM113.64 69.5227V49.2727H116.44V51.6602H116.68C116.846 51.3533 117.085 50.9986 117.399 50.5959C117.712 50.1932 118.146 49.8416 118.703 49.5412C119.259 49.2344 119.994 49.081 120.908 49.081C122.097 49.081 123.158 49.3814 124.091 49.9822C125.024 50.5831 125.756 51.4492 126.287 52.5806C126.824 53.712 127.092 55.0735 127.092 56.6651C127.092 58.2567 126.827 59.6214 126.296 60.7592C125.766 61.8906 125.037 62.7631 124.11 63.3768C123.183 63.984 122.126 64.2876 120.937 64.2876C120.042 64.2876 119.31 64.1374 118.741 63.837C118.178 63.5366 117.737 63.185 117.418 62.7823C117.098 62.3796 116.852 62.0217 116.68 61.7085H116.507V69.5227H113.64ZM116.449 56.6364C116.449 57.6719 116.6 58.5795 116.9 59.3594C117.2 60.1392 117.635 60.7496 118.204 61.1907C118.773 61.6254 119.47 61.8427 120.294 61.8427C121.151 61.8427 121.867 61.6158 122.442 61.1619C123.017 60.7017 123.452 60.0785 123.746 59.2923C124.046 58.506 124.197 57.6207 124.197 56.6364C124.197 55.6648 124.05 54.7923 123.756 54.0188C123.468 53.2454 123.033 52.6349 122.452 52.1875C121.876 51.7401 121.157 51.5163 120.294 51.5163C119.463 51.5163 118.76 51.7305 118.185 52.1587C117.616 52.587 117.184 53.1847 116.89 53.9517C116.596 54.7187 116.449 55.6136 116.449 56.6364ZM130.304 64V49.2727H133.075V51.6122H133.229C133.497 50.8196 133.97 50.1964 134.648 49.7425C135.331 49.2823 136.105 49.0522 136.968 49.0522C137.147 49.0522 137.358 49.0586 137.601 49.0714C137.85 49.0842 138.045 49.1001 138.186 49.1193V51.8615C138.07 51.8295 137.866 51.7944 137.572 51.756C137.278 51.7113 136.984 51.6889 136.69 51.6889C136.012 51.6889 135.408 51.8327 134.878 52.1204C134.354 52.4016 133.938 52.7947 133.631 53.2997C133.324 53.7983 133.171 54.3672 133.171 55.0064V64H130.304ZM146.486 64.2972C145.035 64.2972 143.786 63.9872 142.737 63.3672C141.696 62.7408 140.89 61.8619 140.321 60.7305C139.759 59.5927 139.478 58.2599 139.478 56.7322C139.478 55.2237 139.759 53.8942 140.321 52.7436C140.89 51.593 141.683 50.695 142.699 50.0494C143.722 49.4038 144.917 49.081 146.285 49.081C147.116 49.081 147.921 49.2184 148.701 49.4933C149.481 49.7681 150.181 50.1996 150.801 50.7876C151.421 51.3757 151.91 52.1396 152.268 53.0792C152.626 54.0124 152.805 55.147 152.805 56.483V57.4993H141.098V55.3516H149.996C149.996 54.5973 149.842 53.9293 149.535 53.3477C149.229 52.7596 148.797 52.2962 148.241 51.9574C147.691 51.6186 147.046 51.4492 146.304 51.4492C145.499 51.4492 144.796 51.6474 144.195 52.0437C143.6 52.4336 143.14 52.945 142.814 53.5778C142.495 54.2042 142.335 54.8849 142.335 55.62V57.2979C142.335 58.2823 142.507 59.1197 142.853 59.81C143.204 60.5004 143.693 61.0277 144.32 61.392C144.946 61.75 145.678 61.929 146.515 61.929C147.059 61.929 147.554 61.8523 148.001 61.6989C148.449 61.5391 148.835 61.3026 149.161 60.9893C149.487 60.6761 149.737 60.2894 149.909 59.8292L152.623 60.3182C152.405 61.1172 152.016 61.8171 151.453 62.418C150.897 63.0124 150.197 63.4759 149.353 63.8082C148.516 64.1342 147.56 64.2972 146.486 64.2972ZM167.022 52.8683L164.423 53.3285C164.315 52.9961 164.142 52.6797 163.906 52.3793C163.675 52.0788 163.362 51.8327 162.966 51.641C162.57 51.4492 162.074 51.3533 161.48 51.3533C160.668 51.3533 159.99 51.5355 159.447 51.8999C158.904 52.2578 158.632 52.7212 158.632 53.2901C158.632 53.7823 158.814 54.1786 159.179 54.479C159.543 54.7795 160.131 55.0256 160.943 55.2173L163.282 55.7543C164.637 56.0675 165.647 56.5501 166.312 57.2021C166.977 57.854 167.309 58.701 167.309 59.7429C167.309 60.625 167.054 61.4112 166.542 62.1016C166.037 62.7855 165.331 63.3224 164.423 63.7124C163.522 64.1023 162.477 64.2972 161.288 64.2972C159.639 64.2972 158.293 63.9457 157.251 63.2425C156.21 62.533 155.57 61.5263 155.334 60.2223L158.105 59.8004C158.277 60.5227 158.632 61.0692 159.169 61.44C159.706 61.8043 160.406 61.9865 161.269 61.9865C162.208 61.9865 162.96 61.7915 163.522 61.4016C164.085 61.0053 164.366 60.5227 164.366 59.9538C164.366 59.4936 164.193 59.1069 163.848 58.7937C163.509 58.4805 162.988 58.244 162.285 58.0842L159.792 57.5376C158.418 57.2244 157.402 56.7259 156.743 56.0419C156.091 55.358 155.765 54.4918 155.765 53.4435C155.765 52.5742 156.008 51.8136 156.494 51.1616C156.98 50.5096 157.651 50.0014 158.507 49.6371C159.364 49.2663 160.345 49.081 161.451 49.081C163.043 49.081 164.295 49.4261 165.21 50.1165C166.124 50.8004 166.728 51.7177 167.022 52.8683ZM181.497 52.8683L178.899 53.3285C178.79 52.9961 178.618 52.6797 178.381 52.3793C178.151 52.0788 177.838 51.8327 177.441 51.641C177.045 51.4492 176.55 51.3533 175.955 51.3533C175.144 51.3533 174.466 51.5355 173.923 51.8999C173.379 52.2578 173.108 52.7212 173.108 53.2901C173.108 53.7823 173.29 54.1786 173.654 54.479C174.019 54.7795 174.607 55.0256 175.418 55.2173L177.758 55.7543C179.113 56.0675 180.123 56.5501 180.788 57.2021C181.453 57.854 181.785 58.701 181.785 59.7429C181.785 60.625 181.529 61.4112 181.018 62.1016C180.513 62.7855 179.807 63.3224 178.899 63.7124C177.998 64.1023 176.953 64.2972 175.764 64.2972C174.114 64.2972 172.769 63.9457 171.727 63.2425C170.685 62.533 170.046 61.5263 169.809 60.2223L172.58 59.8004C172.753 60.5227 173.108 61.0692 173.645 61.44C174.182 61.8043 174.881 61.9865 175.744 61.9865C176.684 61.9865 177.435 61.7915 177.998 61.4016C178.56 61.0053 178.841 60.5227 178.841 59.9538C178.841 59.4936 178.669 59.1069 178.324 58.7937C177.985 58.4805 177.464 58.244 176.761 58.0842L174.268 57.5376C172.894 57.2244 171.877 56.7259 171.219 56.0419C170.567 55.358 170.241 54.4918 170.241 53.4435C170.241 52.5742 170.484 51.8136 170.97 51.1616C171.455 50.5096 172.127 50.0014 172.983 49.6371C173.84 49.2663 174.821 49.081 175.927 49.081C177.518 49.081 178.771 49.4261 179.685 50.1165C180.599 50.8004 181.203 51.7177 181.497 52.8683ZM184.937 64V49.2727H187.804V64H184.937ZM186.385 47.0004C185.886 47.0004 185.458 46.8342 185.1 46.5018C184.748 46.163 184.573 45.7603 184.573 45.2937C184.573 44.8207 184.748 44.418 185.1 44.0856C185.458 43.7468 185.886 43.5774 186.385 43.5774C186.883 43.5774 187.308 43.7468 187.66 44.0856C188.018 44.418 188.197 44.8207 188.197 45.2937C188.197 45.7603 188.018 46.163 187.66 46.5018C187.308 46.8342 186.883 47.0004 186.385 47.0004ZM197.864 64.2972C196.483 64.2972 195.278 63.9808 194.249 63.348C193.22 62.7152 192.421 61.8299 191.852 60.6921C191.283 59.5543 190.999 58.2248 190.999 56.7035C190.999 55.1758 191.283 53.8398 191.852 52.6957C192.421 51.5515 193.22 50.663 194.249 50.0302C195.278 49.3974 196.483 49.081 197.864 49.081C199.245 49.081 200.45 49.3974 201.479 50.0302C202.508 50.663 203.307 51.5515 203.876 52.6957C204.445 53.8398 204.729 55.1758 204.729 56.7035C204.729 58.2248 204.445 59.5543 203.876 60.6921C203.307 61.8299 202.508 62.7152 201.479 63.348C200.45 63.9808 199.245 64.2972 197.864 64.2972ZM197.874 61.8906C198.769 61.8906 199.51 61.6541 200.098 61.1811C200.686 60.7081 201.121 60.0785 201.402 59.2923C201.69 58.506 201.834 57.6399 201.834 56.6939C201.834 55.7543 201.69 54.8913 201.402 54.1051C201.121 53.3125 200.686 52.6765 200.098 52.1971C199.51 51.7177 198.769 51.478 197.874 51.478C196.972 51.478 196.225 51.7177 195.63 52.1971C195.042 52.6765 194.604 53.3125 194.316 54.1051C194.035 54.8913 193.895 55.7543 193.895 56.6939C193.895 57.6399 194.035 58.506 194.316 59.2923C194.604 60.0785 195.042 60.7081 195.63 61.1811C196.225 61.6541 196.972 61.8906 197.874 61.8906ZM210.796 55.2557V64H207.929V49.2727H210.681V51.6697H210.863C211.202 50.8899 211.732 50.2635 212.455 49.7905C213.183 49.3175 214.101 49.081 215.206 49.081C216.21 49.081 217.089 49.2919 217.843 49.7138C218.597 50.1293 219.182 50.7493 219.598 51.5739C220.013 52.3984 220.221 53.418 220.221 54.6325V64H217.354V54.9776C217.354 53.9102 217.076 53.076 216.52 52.4751C215.964 51.8679 215.2 51.5643 214.229 51.5643C213.564 51.5643 212.972 51.7081 212.455 51.9957C211.943 52.2834 211.537 52.7053 211.237 53.2614C210.943 53.8111 210.796 54.4759 210.796 55.2557Z" fill="black"/>
<rect width="355" height="359" transform="translate(72.5 103)" fill="white"/>
<path d="M248.738 106.371C270.898 106.371 292.858 110.567 313.461 118.739L300.517 151.491C284.034 144.954 266.466 141.597 248.738 141.597L248.738 106.371Z" fill="#999999" fill-opacity="0.29"/>
<path d="M313.461 118.739C354.153 134.879 387.373 165.642 406.627 205.014C425.881 244.386 429.785 289.536 417.575 331.638C405.365 373.74 377.919 409.767 340.603 432.675C303.287 455.583 258.784 463.725 215.794 455.509C172.803 447.294 134.417 423.312 108.14 388.251C81.8623 353.191 69.5825 309.573 73.7012 265.925C77.8199 222.277 98.0409 181.736 130.411 152.229C162.781 122.723 204.973 106.371 248.738 106.371L248.738 141.597C213.726 141.597 179.973 154.678 154.077 178.284C128.18 201.889 112.004 234.321 108.709 269.24C105.414 304.158 115.238 339.053 136.26 367.101C157.282 395.15 187.99 414.335 222.382 420.908C256.775 427.48 292.377 420.966 322.23 402.64C352.083 384.314 374.04 355.492 383.808 321.811C393.576 288.129 390.453 252.009 375.05 220.511C359.646 189.013 333.07 164.403 300.517 151.491L313.461 118.739Z" fill="#007AFF"/>
<path d="M208.923 212.132C211.324 212.148 213.66 212.573 215.931 213.406C218.218 214.223 220.276 215.562 222.106 217.425C223.935 219.271 225.389 221.745 226.467 224.849C227.545 227.953 228.084 231.792 228.084 236.365C228.101 240.678 227.643 244.533 226.712 247.931C225.797 251.312 224.482 254.171 222.767 256.507C221.052 258.843 218.986 260.623 216.568 261.848C214.15 263.074 211.43 263.686 208.408 263.686C205.239 263.686 202.43 263.065 199.979 261.824C197.546 260.582 195.577 258.884 194.074 256.727C192.571 254.571 191.649 252.104 191.305 249.327H200.249C200.706 251.32 201.638 252.905 203.042 254.081C204.464 255.241 206.252 255.821 208.408 255.821C211.888 255.821 214.567 254.31 216.445 251.288C218.324 248.266 219.263 244.067 219.263 238.693H218.92C218.12 240.131 217.082 241.372 215.808 242.418C214.534 243.447 213.089 244.239 211.471 244.794C209.87 245.35 208.172 245.627 206.375 245.627C203.434 245.627 200.788 244.925 198.436 243.52C196.1 242.115 194.246 240.188 192.874 237.738C191.518 235.287 190.832 232.486 190.815 229.333C190.815 226.066 191.567 223.134 193.07 220.537C194.589 217.923 196.704 215.865 199.416 214.362C202.128 212.843 205.297 212.099 208.923 212.132ZM208.948 219.483C207.183 219.483 205.591 219.916 204.169 220.782C202.765 221.631 201.654 222.791 200.837 224.261C200.037 225.715 199.636 227.34 199.636 229.137C199.653 230.918 200.053 232.535 200.837 233.989C201.638 235.442 202.724 236.594 204.096 237.444C205.484 238.293 207.069 238.718 208.85 238.718C210.173 238.718 211.406 238.464 212.549 237.958C213.693 237.452 214.689 236.749 215.539 235.851C216.405 234.936 217.074 233.899 217.548 232.739C218.038 231.579 218.275 230.354 218.259 229.064C218.259 227.348 217.85 225.764 217.033 224.31C216.233 222.856 215.13 221.688 213.726 220.806C212.337 219.924 210.744 219.483 208.948 219.483ZM235.337 253.689V246.461L256.63 212.818H262.658V223.109H258.982L244.648 245.824V246.216H274.37V253.689H235.337ZM259.276 263V251.484L259.374 248.249V212.818H267.95V263H259.276ZM309.029 253.591V250.945C309.029 249.001 309.438 247.212 310.255 245.578C311.088 243.945 312.296 242.63 313.881 241.634C315.465 240.637 317.385 240.139 319.639 240.139C321.959 240.139 323.903 240.637 325.471 241.634C327.039 242.614 328.223 243.92 329.024 245.554C329.84 247.188 330.249 248.984 330.249 250.945V253.591C330.249 255.535 329.84 257.324 329.024 258.957C328.207 260.591 327.006 261.906 325.422 262.902C323.854 263.898 321.926 264.397 319.639 264.397C317.352 264.397 315.416 263.898 313.832 262.902C312.247 261.906 311.047 260.591 310.23 258.957C309.43 257.324 309.029 255.535 309.029 253.591ZM315.425 250.945V253.591C315.425 254.881 315.735 256.066 316.356 257.144C316.976 258.222 318.071 258.761 319.639 258.761C321.224 258.761 322.31 258.23 322.898 257.168C323.502 256.09 323.805 254.898 323.805 253.591V250.945C323.805 249.638 323.519 248.445 322.947 247.367C322.375 246.273 321.273 245.725 319.639 245.725C318.104 245.725 317.017 246.273 316.38 247.367C315.743 248.445 315.425 249.638 315.425 250.945ZM283.522 224.874V222.227C283.522 220.267 283.938 218.47 284.772 216.837C285.605 215.203 286.813 213.896 288.398 212.916C289.983 211.92 291.902 211.422 294.156 211.422C296.459 211.422 298.395 211.92 299.963 212.916C301.548 213.896 302.74 215.203 303.541 216.837C304.341 218.47 304.741 220.267 304.741 222.227V224.874C304.741 226.834 304.333 228.631 303.516 230.264C302.716 231.881 301.523 233.18 299.939 234.16C298.354 235.14 296.427 235.63 294.156 235.63C291.853 235.63 289.909 235.14 288.324 234.16C286.756 233.18 285.564 231.873 284.747 230.24C283.93 228.606 283.522 226.817 283.522 224.874ZM289.966 222.227V224.874C289.966 226.18 290.268 227.373 290.873 228.451C291.494 229.513 292.588 230.044 294.156 230.044C295.724 230.044 296.802 229.513 297.391 228.451C297.995 227.373 298.297 226.18 298.297 224.874V222.227C298.297 220.92 298.011 219.728 297.44 218.65C296.868 217.555 295.773 217.008 294.156 217.008C292.604 217.008 291.518 217.555 290.897 218.65C290.277 219.744 289.966 220.937 289.966 222.227ZM286.315 263L320.815 212.818H326.941L292.441 263H286.315Z" fill="black" fill-opacity="0.9"/>
<path d="M170.364 299.227C169.379 299.227 168.515 298.993 167.772 298.524C167.033 298.055 166.456 297.4 166.039 296.557C165.627 295.714 165.421 294.729 165.421 293.602C165.421 292.466 165.627 291.474 166.039 290.626C166.456 289.779 167.033 289.121 167.772 288.652C168.515 288.183 169.379 287.949 170.364 287.949C171.349 287.949 172.211 288.183 172.95 288.652C173.693 289.121 174.271 289.779 174.683 290.626C175.099 291.474 175.308 292.466 175.308 293.602C175.308 294.729 175.099 295.714 174.683 296.557C174.271 297.4 173.693 298.055 172.95 298.524C172.211 298.993 171.349 299.227 170.364 299.227ZM170.364 297.722C171.112 297.722 171.728 297.53 172.211 297.146C172.694 296.763 173.051 296.259 173.283 295.634C173.515 295.009 173.631 294.331 173.631 293.602C173.631 292.873 173.515 292.194 173.283 291.564C173.051 290.934 172.694 290.425 172.211 290.037C171.728 289.649 171.112 289.455 170.364 289.455C169.616 289.455 169.001 289.649 168.518 290.037C168.035 290.425 167.677 290.934 167.445 291.564C167.213 292.194 167.097 292.873 167.097 293.602C167.097 294.331 167.213 295.009 167.445 295.634C167.677 296.259 168.035 296.763 168.518 297.146C169.001 297.53 169.616 297.722 170.364 297.722ZM182.724 288.091V289.511H176.843V288.091H182.724ZM178.605 299V286.585C178.605 285.96 178.752 285.439 179.045 285.023C179.339 284.606 179.72 284.294 180.189 284.085C180.657 283.877 181.152 283.773 181.673 283.773C182.085 283.773 182.421 283.806 182.681 283.872C182.942 283.938 183.136 284 183.264 284.057L182.781 285.506C182.696 285.477 182.577 285.442 182.426 285.399C182.279 285.357 182.085 285.335 181.843 285.335C181.289 285.335 180.889 285.475 180.643 285.754C180.402 286.034 180.281 286.443 180.281 286.983V299H178.605ZM193.908 299.256C193.217 299.256 192.59 299.125 192.026 298.865C191.463 298.6 191.015 298.219 190.684 297.722C190.353 297.22 190.187 296.614 190.187 295.903C190.187 295.278 190.31 294.772 190.556 294.384C190.802 293.991 191.131 293.683 191.543 293.46C191.955 293.238 192.41 293.072 192.907 292.963C193.409 292.849 193.913 292.759 194.42 292.693C195.083 292.608 195.62 292.544 196.032 292.501C196.449 292.454 196.752 292.376 196.941 292.267C197.135 292.158 197.232 291.969 197.232 291.699V291.642C197.232 290.941 197.04 290.397 196.657 290.009C196.278 289.62 195.703 289.426 194.931 289.426C194.131 289.426 193.504 289.601 193.049 289.952C192.594 290.302 192.275 290.676 192.09 291.074L190.499 290.506C190.783 289.843 191.162 289.327 191.636 288.957C192.114 288.583 192.635 288.323 193.198 288.176C193.766 288.025 194.325 287.949 194.874 287.949C195.225 287.949 195.627 287.991 196.082 288.077C196.541 288.157 196.984 288.325 197.41 288.581C197.841 288.837 198.198 289.223 198.482 289.739C198.766 290.255 198.908 290.946 198.908 291.812V299H197.232V297.523H197.147C197.033 297.759 196.844 298.013 196.579 298.283C196.314 298.553 195.961 298.782 195.521 298.972C195.08 299.161 194.543 299.256 193.908 299.256ZM194.164 297.75C194.827 297.75 195.386 297.62 195.84 297.359C196.299 297.099 196.645 296.763 196.877 296.351C197.114 295.939 197.232 295.506 197.232 295.051V293.517C197.161 293.602 197.005 293.68 196.763 293.751C196.527 293.818 196.252 293.877 195.94 293.929C195.632 293.976 195.331 294.019 195.038 294.057C194.749 294.09 194.514 294.118 194.335 294.142C193.899 294.199 193.492 294.291 193.113 294.419C192.739 294.542 192.436 294.729 192.204 294.98C191.977 295.226 191.863 295.562 191.863 295.989C191.863 296.571 192.078 297.011 192.509 297.31C192.945 297.603 193.496 297.75 194.164 297.75ZM210.064 299L206.74 288.091H208.502L210.86 296.443H210.973L213.303 288.091H215.093L217.394 296.415H217.507L219.865 288.091H221.627L218.303 299H216.655L214.269 290.619H214.098L211.712 299H210.064ZM228.045 299.227C226.994 299.227 226.088 298.995 225.325 298.531C224.568 298.062 223.983 297.409 223.571 296.571C223.164 295.728 222.96 294.748 222.96 293.631C222.96 292.513 223.164 291.528 223.571 290.676C223.983 289.819 224.556 289.152 225.29 288.673C226.028 288.19 226.89 287.949 227.875 287.949C228.443 287.949 229.004 288.044 229.558 288.233C230.112 288.422 230.616 288.73 231.071 289.156C231.526 289.578 231.888 290.136 232.158 290.832C232.428 291.528 232.562 292.385 232.562 293.403V294.114H224.153V292.665H230.858C230.858 292.049 230.735 291.5 230.489 291.017C230.247 290.534 229.902 290.153 229.452 289.874C229.007 289.594 228.481 289.455 227.875 289.455C227.207 289.455 226.63 289.62 226.142 289.952C225.659 290.278 225.287 290.705 225.027 291.23C224.767 291.756 224.636 292.319 224.636 292.92V293.886C224.636 294.71 224.778 295.409 225.062 295.982C225.351 296.55 225.751 296.983 226.263 297.281C226.774 297.575 227.368 297.722 228.045 297.722C228.486 297.722 228.884 297.66 229.239 297.537C229.598 297.409 229.909 297.22 230.169 296.969C230.429 296.713 230.631 296.396 230.773 296.017L232.392 296.472C232.222 297.021 231.935 297.504 231.533 297.92C231.13 298.332 230.633 298.654 230.041 298.886C229.449 299.114 228.784 299.227 228.045 299.227ZM235.339 299V284.455H237.016V289.824H237.158C237.281 289.634 237.451 289.393 237.669 289.099C237.892 288.801 238.209 288.536 238.621 288.304C239.037 288.067 239.601 287.949 240.311 287.949C241.23 287.949 242.039 288.179 242.74 288.638C243.441 289.097 243.988 289.748 244.381 290.591C244.774 291.434 244.97 292.428 244.97 293.574C244.97 294.729 244.774 295.731 244.381 296.578C243.988 297.421 243.443 298.074 242.747 298.538C242.051 298.998 241.249 299.227 240.339 299.227C239.639 299.227 239.078 299.111 238.656 298.879C238.235 298.643 237.911 298.375 237.683 298.077C237.456 297.774 237.281 297.523 237.158 297.324H236.959V299H235.339ZM236.987 293.545C236.987 294.369 237.108 295.096 237.349 295.726C237.591 296.351 237.944 296.841 238.408 297.196C238.872 297.546 239.44 297.722 240.112 297.722C240.813 297.722 241.398 297.537 241.866 297.168C242.34 296.794 242.695 296.292 242.932 295.662C243.173 295.027 243.294 294.322 243.294 293.545C243.294 292.778 243.176 292.087 242.939 291.472C242.707 290.851 242.354 290.361 241.881 290.001C241.412 289.637 240.822 289.455 240.112 289.455C239.43 289.455 238.857 289.627 238.393 289.973C237.929 290.314 237.579 290.792 237.342 291.408C237.106 292.018 236.987 292.731 236.987 293.545ZM255.261 290.534L253.756 290.96C253.661 290.709 253.521 290.465 253.337 290.229C253.157 289.987 252.911 289.788 252.598 289.632C252.286 289.476 251.885 289.398 251.398 289.398C250.73 289.398 250.174 289.552 249.729 289.859C249.288 290.162 249.068 290.548 249.068 291.017C249.068 291.434 249.22 291.763 249.523 292.004C249.826 292.246 250.299 292.447 250.943 292.608L252.562 293.006C253.538 293.242 254.265 293.605 254.743 294.092C255.221 294.575 255.46 295.198 255.46 295.96C255.46 296.585 255.28 297.144 254.92 297.636C254.565 298.129 254.068 298.517 253.429 298.801C252.79 299.085 252.046 299.227 251.199 299.227C250.086 299.227 249.165 298.986 248.436 298.503C247.707 298.02 247.245 297.314 247.051 296.386L248.642 295.989C248.794 296.576 249.08 297.016 249.501 297.31C249.928 297.603 250.484 297.75 251.17 297.75C251.952 297.75 252.572 297.584 253.031 297.253C253.495 296.917 253.727 296.514 253.727 296.045C253.727 295.667 253.595 295.349 253.33 295.094C253.064 294.833 252.657 294.639 252.108 294.511L250.29 294.085C249.291 293.848 248.557 293.482 248.088 292.984C247.624 292.482 247.392 291.855 247.392 291.102C247.392 290.487 247.565 289.942 247.911 289.469C248.261 288.995 248.737 288.624 249.338 288.354C249.944 288.084 250.631 287.949 251.398 287.949C252.477 287.949 253.325 288.186 253.94 288.659C254.561 289.133 255.001 289.758 255.261 290.534ZM257.983 299V288.091H259.659V299H257.983ZM258.836 286.273C258.509 286.273 258.227 286.161 257.99 285.939C257.758 285.716 257.642 285.449 257.642 285.136C257.642 284.824 257.758 284.556 257.99 284.334C258.227 284.111 258.509 284 258.836 284C259.162 284 259.442 284.111 259.674 284.334C259.91 284.556 260.029 284.824 260.029 285.136C260.029 285.449 259.91 285.716 259.674 285.939C259.442 286.161 259.162 286.273 258.836 286.273ZM267.474 288.091V289.511H261.82V288.091H267.474ZM263.468 285.477H265.144V295.875C265.144 296.348 265.213 296.704 265.35 296.94C265.492 297.172 265.672 297.329 265.89 297.409C266.112 297.485 266.347 297.523 266.593 297.523C266.778 297.523 266.929 297.513 267.048 297.494C267.166 297.471 267.261 297.452 267.332 297.438L267.673 298.943C267.559 298.986 267.4 299.028 267.197 299.071C266.993 299.118 266.735 299.142 266.423 299.142C265.949 299.142 265.485 299.04 265.031 298.837C264.581 298.633 264.207 298.323 263.908 297.906C263.615 297.49 263.468 296.964 263.468 296.33V285.477ZM274.452 299.227C273.401 299.227 272.494 298.995 271.732 298.531C270.974 298.062 270.389 297.409 269.977 296.571C269.57 295.728 269.366 294.748 269.366 293.631C269.366 292.513 269.57 291.528 269.977 290.676C270.389 289.819 270.962 289.152 271.696 288.673C272.435 288.19 273.296 287.949 274.281 287.949C274.849 287.949 275.411 288.044 275.964 288.233C276.518 288.422 277.023 288.73 277.477 289.156C277.932 289.578 278.294 290.136 278.564 290.832C278.834 291.528 278.969 292.385 278.969 293.403V294.114H270.56V292.665H277.264C277.264 292.049 277.141 291.5 276.895 291.017C276.653 290.534 276.308 290.153 275.858 289.874C275.413 289.594 274.887 289.455 274.281 289.455C273.614 289.455 273.036 289.62 272.548 289.952C272.065 290.278 271.694 290.705 271.433 291.23C271.173 291.756 271.043 292.319 271.043 292.92V293.886C271.043 294.71 271.185 295.409 271.469 295.982C271.758 296.55 272.158 296.983 272.669 297.281C273.18 297.575 273.775 297.722 274.452 297.722C274.892 297.722 275.29 297.66 275.645 297.537C276.005 297.409 276.315 297.22 276.575 296.969C276.836 296.713 277.037 296.396 277.179 296.017L278.798 296.472C278.628 297.021 278.341 297.504 277.939 297.92C277.536 298.332 277.039 298.654 276.447 298.886C275.856 299.114 275.19 299.227 274.452 299.227ZM282.967 284.455V289.455H281.405V284.455H282.967ZM293.679 290.534L292.174 290.96C292.079 290.709 291.939 290.465 291.755 290.229C291.575 289.987 291.328 289.788 291.016 289.632C290.703 289.476 290.303 289.398 289.816 289.398C289.148 289.398 288.592 289.552 288.147 289.859C287.706 290.162 287.486 290.548 287.486 291.017C287.486 291.434 287.638 291.763 287.941 292.004C288.244 292.246 288.717 292.447 289.361 292.608L290.98 293.006C291.956 293.242 292.683 293.605 293.161 294.092C293.639 294.575 293.878 295.198 293.878 295.96C293.878 296.585 293.698 297.144 293.338 297.636C292.983 298.129 292.486 298.517 291.847 298.801C291.208 299.085 290.464 299.227 289.617 299.227C288.504 299.227 287.583 298.986 286.854 298.503C286.125 298.02 285.663 297.314 285.469 296.386L287.06 295.989C287.212 296.576 287.498 297.016 287.919 297.31C288.346 297.603 288.902 297.75 289.588 297.75C290.37 297.75 290.99 297.584 291.449 297.253C291.913 296.917 292.145 296.514 292.145 296.045C292.145 295.667 292.013 295.349 291.748 295.094C291.482 294.833 291.075 294.639 290.526 294.511L288.708 294.085C287.709 293.848 286.975 293.482 286.506 292.984C286.042 292.482 285.81 291.855 285.81 291.102C285.81 290.487 285.983 289.942 286.328 289.469C286.679 288.995 287.155 288.624 287.756 288.354C288.362 288.084 289.049 287.949 289.816 287.949C290.895 287.949 291.743 288.186 292.358 288.659C292.979 289.133 293.419 289.758 293.679 290.534ZM306.884 288.091V289.511H301.004V288.091H306.884ZM302.765 299V286.585C302.765 285.96 302.912 285.439 303.205 285.023C303.499 284.606 303.88 284.294 304.349 284.085C304.817 283.877 305.312 283.773 305.833 283.773C306.245 283.773 306.581 283.806 306.842 283.872C307.102 283.938 307.296 284 307.424 284.057L306.941 285.506C306.856 285.477 306.737 285.442 306.586 285.399C306.439 285.357 306.245 285.335 306.004 285.335C305.45 285.335 305.049 285.475 304.803 285.754C304.562 286.034 304.441 286.443 304.441 286.983V299H302.765ZM309.233 299V288.091H310.909V299H309.233ZM310.086 286.273C309.759 286.273 309.477 286.161 309.24 285.939C309.008 285.716 308.892 285.449 308.892 285.136C308.892 284.824 309.008 284.556 309.24 284.334C309.477 284.111 309.759 284 310.086 284C310.412 284 310.692 284.111 310.924 284.334C311.16 284.556 311.279 284.824 311.279 285.136C311.279 285.449 311.16 285.716 310.924 285.939C310.692 286.161 310.412 286.273 310.086 286.273ZM313.979 299V288.091H315.599V289.739H315.712C315.911 289.199 316.271 288.761 316.792 288.425C317.313 288.089 317.9 287.92 318.553 287.92C318.676 287.92 318.83 287.923 319.015 287.928C319.2 287.932 319.339 287.939 319.434 287.949V289.653C319.377 289.639 319.247 289.618 319.043 289.589C318.844 289.556 318.634 289.54 318.411 289.54C317.881 289.54 317.407 289.651 316.991 289.874C316.579 290.091 316.252 290.394 316.011 290.783C315.774 291.166 315.656 291.604 315.656 292.097V299H313.979ZM329.148 290.534L327.642 290.96C327.548 290.709 327.408 290.465 327.223 290.229C327.043 289.987 326.797 289.788 326.485 289.632C326.172 289.476 325.772 289.398 325.284 289.398C324.617 289.398 324.06 289.552 323.615 289.859C323.175 290.162 322.955 290.548 322.955 291.017C322.955 291.434 323.106 291.763 323.409 292.004C323.712 292.246 324.186 292.447 324.83 292.608L326.449 293.006C327.425 293.242 328.151 293.605 328.63 294.092C329.108 294.575 329.347 295.198 329.347 295.96C329.347 296.585 329.167 297.144 328.807 297.636C328.452 298.129 327.955 298.517 327.316 298.801C326.676 299.085 325.933 299.227 325.086 299.227C323.973 299.227 323.052 298.986 322.323 298.503C321.594 298.02 321.132 297.314 320.938 296.386L322.529 295.989C322.68 296.576 322.967 297.016 323.388 297.31C323.814 297.603 324.371 297.75 325.057 297.75C325.838 297.75 326.459 297.584 326.918 297.253C327.382 296.917 327.614 296.514 327.614 296.045C327.614 295.667 327.481 295.349 327.216 295.094C326.951 294.833 326.544 294.639 325.995 294.511L324.176 294.085C323.177 293.848 322.444 293.482 321.975 292.984C321.511 292.482 321.279 291.855 321.279 291.102C321.279 290.487 321.452 289.942 321.797 289.469C322.148 288.995 322.623 288.624 323.225 288.354C323.831 288.084 324.517 287.949 325.284 287.949C326.364 287.949 327.212 288.186 327.827 288.659C328.447 289.133 328.888 289.758 329.148 290.534ZM336.614 288.091V289.511H330.961V288.091H336.614ZM332.609 285.477H334.285V295.875C334.285 296.348 334.353 296.704 334.491 296.94C334.633 297.172 334.813 297.329 335.031 297.409C335.253 297.485 335.487 297.523 335.734 297.523C335.918 297.523 336.07 297.513 336.188 297.494C336.307 297.471 336.401 297.452 336.472 297.438L336.813 298.943C336.7 298.986 336.541 299.028 336.337 299.071C336.134 299.118 335.876 299.142 335.563 299.142C335.09 299.142 334.626 299.04 334.171 298.837C333.721 298.633 333.347 298.323 333.049 297.906C332.755 297.49 332.609 296.964 332.609 296.33V285.477ZM131.362 323V312.091H133.038V323H131.362ZM132.214 310.273C131.888 310.273 131.606 310.161 131.369 309.939C131.137 309.716 131.021 309.449 131.021 309.136C131.021 308.824 131.137 308.556 131.369 308.334C131.606 308.111 131.888 308 132.214 308C132.541 308 132.821 308.111 133.053 308.334C133.289 308.556 133.408 308.824 133.408 309.136C133.408 309.449 133.289 309.716 133.053 309.939C132.821 310.161 132.541 310.273 132.214 310.273ZM136.108 323V312.091H137.728V313.795H137.87C138.097 313.213 138.464 312.761 138.971 312.439C139.477 312.112 140.086 311.949 140.796 311.949C141.516 311.949 142.114 312.112 142.593 312.439C143.076 312.761 143.452 313.213 143.722 313.795H143.836C144.115 313.232 144.534 312.785 145.093 312.453C145.651 312.117 146.321 311.949 147.103 311.949C148.078 311.949 148.876 312.254 149.496 312.865C150.116 313.471 150.426 314.416 150.426 315.699V323H148.75V315.699C148.75 314.894 148.53 314.319 148.09 313.973C147.65 313.627 147.131 313.455 146.534 313.455C145.767 313.455 145.173 313.687 144.752 314.151C144.33 314.61 144.12 315.192 144.12 315.898V323H142.415V315.528C142.415 314.908 142.214 314.409 141.811 314.03C141.409 313.646 140.891 313.455 140.256 313.455C139.82 313.455 139.413 313.571 139.034 313.803C138.66 314.035 138.357 314.357 138.125 314.768C137.898 315.176 137.784 315.647 137.784 316.182V323H136.108ZM153.491 327.091V312.091H155.11V313.824H155.309C155.432 313.634 155.603 313.393 155.821 313.099C156.043 312.801 156.36 312.536 156.772 312.304C157.189 312.067 157.752 311.949 158.463 311.949C159.381 311.949 160.191 312.179 160.892 312.638C161.592 313.097 162.139 313.748 162.532 314.591C162.925 315.434 163.122 316.428 163.122 317.574C163.122 318.729 162.925 319.731 162.532 320.578C162.139 321.421 161.595 322.074 160.899 322.538C160.203 322.998 159.4 323.227 158.491 323.227C157.79 323.227 157.229 323.111 156.808 322.879C156.386 322.643 156.062 322.375 155.835 322.077C155.608 321.774 155.432 321.523 155.309 321.324H155.167V327.091H153.491ZM155.139 317.545C155.139 318.369 155.26 319.096 155.501 319.726C155.743 320.351 156.095 320.841 156.559 321.196C157.023 321.546 157.592 321.722 158.264 321.722C158.965 321.722 159.549 321.537 160.018 321.168C160.492 320.794 160.847 320.292 161.083 319.662C161.325 319.027 161.446 318.322 161.446 317.545C161.446 316.778 161.327 316.087 161.091 315.472C160.859 314.851 160.506 314.361 160.032 314.001C159.564 313.637 158.974 313.455 158.264 313.455C157.582 313.455 157.009 313.627 156.545 313.973C156.081 314.314 155.731 314.792 155.494 315.408C155.257 316.018 155.139 316.731 155.139 317.545ZM165.679 323V312.091H167.298V313.739H167.412C167.61 313.199 167.97 312.761 168.491 312.425C169.012 312.089 169.599 311.92 170.252 311.92C170.376 311.92 170.529 311.923 170.714 311.928C170.899 311.932 171.038 311.939 171.133 311.949V313.653C171.076 313.639 170.946 313.618 170.743 313.589C170.544 313.556 170.333 313.54 170.11 313.54C169.58 313.54 169.107 313.651 168.69 313.874C168.278 314.091 167.951 314.394 167.71 314.783C167.473 315.166 167.355 315.604 167.355 316.097V323H165.679ZM177.362 323.227C176.311 323.227 175.404 322.995 174.642 322.531C173.884 322.062 173.299 321.409 172.887 320.571C172.48 319.728 172.277 318.748 172.277 317.631C172.277 316.513 172.48 315.528 172.887 314.676C173.299 313.819 173.872 313.152 174.606 312.673C175.345 312.19 176.207 311.949 177.191 311.949C177.76 311.949 178.321 312.044 178.875 312.233C179.429 312.422 179.933 312.73 180.387 313.156C180.842 313.578 181.204 314.136 181.474 314.832C181.744 315.528 181.879 316.385 181.879 317.403V318.114H173.47V316.665H180.174C180.174 316.049 180.051 315.5 179.805 315.017C179.564 314.534 179.218 314.153 178.768 313.874C178.323 313.594 177.797 313.455 177.191 313.455C176.524 313.455 175.946 313.62 175.458 313.952C174.975 314.278 174.604 314.705 174.343 315.23C174.083 315.756 173.953 316.319 173.953 316.92V317.886C173.953 318.71 174.095 319.409 174.379 319.982C174.668 320.55 175.068 320.983 175.579 321.281C176.091 321.575 176.685 321.722 177.362 321.722C177.802 321.722 178.2 321.66 178.555 321.537C178.915 321.409 179.225 321.22 179.485 320.969C179.746 320.713 179.947 320.396 180.089 320.017L181.708 320.472C181.538 321.021 181.252 321.504 180.849 321.92C180.447 322.332 179.949 322.654 179.358 322.886C178.766 323.114 178.1 323.227 177.362 323.227ZM192.156 314.534L190.65 314.96C190.556 314.709 190.416 314.465 190.231 314.229C190.051 313.987 189.805 313.788 189.493 313.632C189.18 313.476 188.78 313.398 188.292 313.398C187.625 313.398 187.068 313.552 186.623 313.859C186.183 314.162 185.963 314.548 185.963 315.017C185.963 315.434 186.114 315.763 186.417 316.004C186.72 316.246 187.194 316.447 187.838 316.608L189.457 317.006C190.432 317.242 191.159 317.605 191.637 318.092C192.116 318.575 192.355 319.198 192.355 319.96C192.355 320.585 192.175 321.144 191.815 321.636C191.46 322.129 190.963 322.517 190.324 322.801C189.684 323.085 188.941 323.227 188.093 323.227C186.981 323.227 186.06 322.986 185.331 322.503C184.601 322.02 184.14 321.314 183.946 320.386L185.537 319.989C185.688 320.576 185.975 321.016 186.396 321.31C186.822 321.603 187.378 321.75 188.065 321.75C188.846 321.75 189.467 321.584 189.926 321.253C190.39 320.917 190.622 320.514 190.622 320.045C190.622 319.667 190.489 319.349 190.224 319.094C189.959 318.833 189.552 318.639 189.002 318.511L187.184 318.085C186.185 317.848 185.451 317.482 184.983 316.984C184.519 316.482 184.287 315.855 184.287 315.102C184.287 314.487 184.459 313.942 184.805 313.469C185.155 312.995 185.631 312.624 186.233 312.354C186.839 312.084 187.525 311.949 188.292 311.949C189.372 311.949 190.219 312.186 190.835 312.659C191.455 313.133 191.895 313.758 192.156 314.534ZM202.605 314.534L201.099 314.96C201.005 314.709 200.865 314.465 200.68 314.229C200.5 313.987 200.254 313.788 199.942 313.632C199.629 313.476 199.229 313.398 198.741 313.398C198.074 313.398 197.518 313.552 197.072 313.859C196.632 314.162 196.412 314.548 196.412 315.017C196.412 315.434 196.563 315.763 196.866 316.004C197.17 316.246 197.643 316.447 198.287 316.608L199.906 317.006C200.882 317.242 201.608 317.605 202.087 318.092C202.565 318.575 202.804 319.198 202.804 319.96C202.804 320.585 202.624 321.144 202.264 321.636C201.909 322.129 201.412 322.517 200.773 322.801C200.134 323.085 199.39 323.227 198.543 323.227C197.43 323.227 196.509 322.986 195.78 322.503C195.051 322.02 194.589 321.314 194.395 320.386L195.986 319.989C196.137 320.576 196.424 321.016 196.845 321.31C197.271 321.603 197.828 321.75 198.514 321.75C199.295 321.75 199.916 321.584 200.375 321.253C200.839 320.917 201.071 320.514 201.071 320.045C201.071 319.667 200.938 319.349 200.673 319.094C200.408 318.833 200.001 318.639 199.452 318.511L197.634 318.085C196.634 317.848 195.901 317.482 195.432 316.984C194.968 316.482 194.736 315.855 194.736 315.102C194.736 314.487 194.909 313.942 195.254 313.469C195.605 312.995 196.08 312.624 196.682 312.354C197.288 312.084 197.974 311.949 198.741 311.949C199.821 311.949 200.669 312.186 201.284 312.659C201.904 313.133 202.345 313.758 202.605 314.534ZM205.327 323V312.091H207.003V323H205.327ZM206.179 310.273C205.853 310.273 205.571 310.161 205.334 309.939C205.102 309.716 204.986 309.449 204.986 309.136C204.986 308.824 205.102 308.556 205.334 308.334C205.571 308.111 205.853 308 206.179 308C206.506 308 206.785 308.111 207.017 308.334C207.254 308.556 207.373 308.824 207.373 309.136C207.373 309.449 207.254 309.716 207.017 309.939C206.785 310.161 206.506 310.273 206.179 310.273ZM214.505 323.227C213.52 323.227 212.656 322.993 211.913 322.524C211.174 322.055 210.596 321.4 210.18 320.557C209.768 319.714 209.562 318.729 209.562 317.602C209.562 316.466 209.768 315.474 210.18 314.626C210.596 313.779 211.174 313.121 211.913 312.652C212.656 312.183 213.52 311.949 214.505 311.949C215.49 311.949 216.352 312.183 217.09 312.652C217.834 313.121 218.411 313.779 218.823 314.626C219.24 315.474 219.448 316.466 219.448 317.602C219.448 318.729 219.24 319.714 218.823 320.557C218.411 321.4 217.834 322.055 217.09 322.524C216.352 322.993 215.49 323.227 214.505 323.227ZM214.505 321.722C215.253 321.722 215.869 321.53 216.352 321.146C216.835 320.763 217.192 320.259 217.424 319.634C217.656 319.009 217.772 318.331 217.772 317.602C217.772 316.873 217.656 316.194 217.424 315.564C217.192 314.934 216.835 314.425 216.352 314.037C215.869 313.649 215.253 313.455 214.505 313.455C213.757 313.455 213.141 313.649 212.658 314.037C212.175 314.425 211.818 314.934 211.586 315.564C211.354 316.194 211.238 316.873 211.238 317.602C211.238 318.331 211.354 319.009 211.586 319.634C211.818 320.259 212.175 320.763 212.658 321.146C213.141 321.53 213.757 321.722 214.505 321.722ZM223.683 316.438V323H222.007V312.091H223.626V313.795H223.768C224.024 313.241 224.412 312.796 224.933 312.46C225.454 312.119 226.126 311.949 226.95 311.949C227.689 311.949 228.335 312.1 228.889 312.403C229.443 312.702 229.874 313.156 230.181 313.767C230.489 314.373 230.643 315.14 230.643 316.068V323H228.967V316.182C228.967 315.325 228.744 314.657 228.299 314.179C227.854 313.696 227.243 313.455 226.467 313.455C225.932 313.455 225.454 313.571 225.032 313.803C224.616 314.035 224.287 314.373 224.045 314.818C223.804 315.263 223.683 315.803 223.683 316.438ZM241.433 314.534L239.928 314.96C239.833 314.709 239.693 314.465 239.509 314.229C239.329 313.987 239.082 313.788 238.77 313.632C238.457 313.476 238.057 313.398 237.57 313.398C236.902 313.398 236.346 313.552 235.901 313.859C235.46 314.162 235.24 314.548 235.24 315.017C235.24 315.434 235.392 315.763 235.695 316.004C235.998 316.246 236.471 316.447 237.115 316.608L238.734 317.006C239.71 317.242 240.437 317.605 240.915 318.092C241.393 318.575 241.632 319.198 241.632 319.96C241.632 320.585 241.452 321.144 241.092 321.636C240.737 322.129 240.24 322.517 239.601 322.801C238.962 323.085 238.218 323.227 237.371 323.227C236.258 323.227 235.337 322.986 234.608 322.503C233.879 322.02 233.417 321.314 233.223 320.386L234.814 319.989C234.965 320.576 235.252 321.016 235.673 321.31C236.099 321.603 236.656 321.75 237.342 321.75C238.124 321.75 238.744 321.584 239.203 321.253C239.667 320.917 239.899 320.514 239.899 320.045C239.899 319.667 239.767 319.349 239.501 319.094C239.236 318.833 238.829 318.639 238.28 318.511L236.462 318.085C235.463 317.848 234.729 317.482 234.26 316.984C233.796 316.482 233.564 315.855 233.564 315.102C233.564 314.487 233.737 313.942 234.082 313.469C234.433 312.995 234.909 312.624 235.51 312.354C236.116 312.084 236.803 311.949 237.57 311.949C238.649 311.949 239.497 312.186 240.112 312.659C240.732 313.133 241.173 313.758 241.433 314.534ZM252.99 323.256C252.299 323.256 251.672 323.125 251.108 322.865C250.545 322.6 250.097 322.219 249.766 321.722C249.435 321.22 249.269 320.614 249.269 319.903C249.269 319.278 249.392 318.772 249.638 318.384C249.884 317.991 250.213 317.683 250.625 317.46C251.037 317.238 251.492 317.072 251.989 316.963C252.491 316.849 252.995 316.759 253.502 316.693C254.165 316.608 254.702 316.544 255.114 316.501C255.531 316.454 255.834 316.376 256.023 316.267C256.217 316.158 256.314 315.969 256.314 315.699V315.642C256.314 314.941 256.123 314.397 255.739 314.009C255.36 313.62 254.785 313.426 254.013 313.426C253.213 313.426 252.586 313.601 252.131 313.952C251.676 314.302 251.357 314.676 251.172 315.074L249.581 314.506C249.865 313.843 250.244 313.327 250.718 312.957C251.196 312.583 251.717 312.323 252.28 312.176C252.848 312.025 253.407 311.949 253.956 311.949C254.307 311.949 254.709 311.991 255.164 312.077C255.623 312.157 256.066 312.325 256.492 312.581C256.923 312.837 257.28 313.223 257.564 313.739C257.848 314.255 257.99 314.946 257.99 315.812V323H256.314V321.523H256.229C256.115 321.759 255.926 322.013 255.661 322.283C255.396 322.553 255.043 322.782 254.603 322.972C254.162 323.161 253.625 323.256 252.99 323.256ZM253.246 321.75C253.909 321.75 254.468 321.62 254.922 321.359C255.382 321.099 255.727 320.763 255.959 320.351C256.196 319.939 256.314 319.506 256.314 319.051V317.517C256.243 317.602 256.087 317.68 255.846 317.751C255.609 317.818 255.334 317.877 255.022 317.929C254.714 317.976 254.413 318.019 254.12 318.057C253.831 318.09 253.596 318.118 253.417 318.142C252.981 318.199 252.574 318.291 252.195 318.419C251.821 318.542 251.518 318.729 251.286 318.98C251.059 319.226 250.945 319.562 250.945 319.989C250.945 320.571 251.16 321.011 251.591 321.31C252.027 321.603 252.578 321.75 253.246 321.75ZM261.05 323V312.091H262.669V313.739H262.783C262.982 313.199 263.341 312.761 263.862 312.425C264.383 312.089 264.97 311.92 265.624 311.92C265.747 311.92 265.901 311.923 266.085 311.928C266.27 311.932 266.41 311.939 266.504 311.949V313.653C266.447 313.639 266.317 313.618 266.114 313.589C265.915 313.556 265.704 313.54 265.482 313.54C264.951 313.54 264.478 313.651 264.061 313.874C263.649 314.091 263.322 314.394 263.081 314.783C262.844 315.166 262.726 315.604 262.726 316.097V323H261.05ZM272.733 323.227C271.682 323.227 270.775 322.995 270.013 322.531C269.255 322.062 268.67 321.409 268.259 320.571C267.851 319.728 267.648 318.748 267.648 317.631C267.648 316.513 267.851 315.528 268.259 314.676C268.67 313.819 269.243 313.152 269.977 312.673C270.716 312.19 271.578 311.949 272.562 311.949C273.131 311.949 273.692 312.044 274.246 312.233C274.8 312.422 275.304 312.73 275.759 313.156C276.213 313.578 276.575 314.136 276.845 314.832C277.115 315.528 277.25 316.385 277.25 317.403V318.114H268.841V316.665H275.545C275.545 316.049 275.422 315.5 275.176 315.017C274.935 314.534 274.589 314.153 274.139 313.874C273.694 313.594 273.169 313.455 272.562 313.455C271.895 313.455 271.317 313.62 270.83 313.952C270.347 314.278 269.975 314.705 269.714 315.23C269.454 315.756 269.324 316.319 269.324 316.92V317.886C269.324 318.71 269.466 319.409 269.75 319.982C270.039 320.55 270.439 320.983 270.95 321.281C271.462 321.575 272.056 321.722 272.733 321.722C273.173 321.722 273.571 321.66 273.926 321.537C274.286 321.409 274.596 321.22 274.857 320.969C275.117 320.713 275.318 320.396 275.46 320.017L277.08 320.472C276.909 321.021 276.623 321.504 276.22 321.92C275.818 322.332 275.321 322.654 274.729 322.886C274.137 323.114 273.472 323.227 272.733 323.227ZM289.544 323.227C288.635 323.227 287.832 322.998 287.136 322.538C286.44 322.074 285.896 321.421 285.503 320.578C285.11 319.731 284.913 318.729 284.913 317.574C284.913 316.428 285.11 315.434 285.503 314.591C285.896 313.748 286.443 313.097 287.143 312.638C287.844 312.179 288.654 311.949 289.572 311.949C290.283 311.949 290.844 312.067 291.256 312.304C291.672 312.536 291.99 312.801 292.207 313.099C292.43 313.393 292.603 313.634 292.726 313.824H292.868V308.455H294.544V323H292.925V321.324H292.726C292.603 321.523 292.428 321.774 292.2 322.077C291.973 322.375 291.649 322.643 291.227 322.879C290.806 323.111 290.245 323.227 289.544 323.227ZM289.771 321.722C290.444 321.722 291.012 321.546 291.476 321.196C291.94 320.841 292.293 320.351 292.534 319.726C292.776 319.096 292.896 318.369 292.896 317.545C292.896 316.731 292.778 316.018 292.541 315.408C292.304 314.792 291.954 314.314 291.49 313.973C291.026 313.627 290.453 313.455 289.771 313.455C289.061 313.455 288.469 313.637 287.996 314.001C287.527 314.361 287.174 314.851 286.938 315.472C286.705 316.087 286.589 316.778 286.589 317.545C286.589 318.322 286.708 319.027 286.945 319.662C287.186 320.292 287.541 320.794 288.01 321.168C288.483 321.537 289.071 321.722 289.771 321.722ZM304.722 318.54V312.091H306.398V323H304.722V321.153H304.608C304.352 321.707 303.955 322.179 303.415 322.567C302.875 322.95 302.193 323.142 301.369 323.142C300.688 323.142 300.081 322.993 299.551 322.695C299.021 322.392 298.604 321.937 298.301 321.331C297.998 320.72 297.847 319.951 297.847 319.023V312.091H299.523V318.909C299.523 319.705 299.745 320.339 300.19 320.812C300.64 321.286 301.213 321.523 301.909 321.523C302.326 321.523 302.75 321.416 303.18 321.203C303.616 320.99 303.981 320.663 304.274 320.223C304.572 319.783 304.722 319.222 304.722 318.54ZM314.042 323.227C312.99 323.227 312.084 322.995 311.321 322.531C310.564 322.062 309.979 321.409 309.567 320.571C309.16 319.728 308.956 318.748 308.956 317.631C308.956 316.513 309.16 315.528 309.567 314.676C309.979 313.819 310.552 313.152 311.286 312.673C312.025 312.19 312.886 311.949 313.871 311.949C314.439 311.949 315 312.044 315.554 312.233C316.108 312.422 316.613 312.73 317.067 313.156C317.522 313.578 317.884 314.136 318.154 314.832C318.424 315.528 318.559 316.385 318.559 317.403V318.114H310.15V316.665H316.854C316.854 316.049 316.731 315.5 316.485 315.017C316.243 314.534 315.898 314.153 315.448 313.874C315.003 313.594 314.477 313.455 313.871 313.455C313.203 313.455 312.626 313.62 312.138 313.952C311.655 314.278 311.283 314.705 311.023 315.23C310.763 315.756 310.632 316.319 310.632 316.92V317.886C310.632 318.71 310.775 319.409 311.059 319.982C311.347 320.55 311.748 320.983 312.259 321.281C312.77 321.575 313.364 321.722 314.042 321.722C314.482 321.722 314.88 321.66 315.235 321.537C315.595 321.409 315.905 321.22 316.165 320.969C316.426 320.713 316.627 320.396 316.769 320.017L318.388 320.472C318.218 321.021 317.931 321.504 317.529 321.92C317.126 322.332 316.629 322.654 316.037 322.886C315.445 323.114 314.78 323.227 314.042 323.227ZM331.478 312.091V313.511H325.824V312.091H331.478ZM327.472 309.477H329.148V319.875C329.148 320.348 329.217 320.704 329.354 320.94C329.496 321.172 329.676 321.329 329.894 321.409C330.116 321.485 330.351 321.523 330.597 321.523C330.782 321.523 330.933 321.513 331.051 321.494C331.17 321.471 331.265 321.452 331.336 321.438L331.676 322.943C331.563 322.986 331.404 323.028 331.201 323.071C330.997 323.118 330.739 323.142 330.426 323.142C329.953 323.142 329.489 323.04 329.034 322.837C328.585 322.633 328.211 322.323 327.912 321.906C327.619 321.49 327.472 320.964 327.472 320.33V309.477ZM338.314 323.227C337.329 323.227 336.465 322.993 335.721 322.524C334.983 322.055 334.405 321.4 333.988 320.557C333.576 319.714 333.37 318.729 333.37 317.602C333.37 316.466 333.576 315.474 333.988 314.626C334.405 313.779 334.983 313.121 335.721 312.652C336.465 312.183 337.329 311.949 338.314 311.949C339.298 311.949 340.16 312.183 340.899 312.652C341.642 313.121 342.22 313.779 342.632 314.626C343.048 315.474 343.257 316.466 343.257 317.602C343.257 318.729 343.048 319.714 342.632 320.557C342.22 321.4 341.642 322.055 340.899 322.524C340.16 322.993 339.298 323.227 338.314 323.227ZM338.314 321.722C339.062 321.722 339.677 321.53 340.16 321.146C340.643 320.763 341.001 320.259 341.233 319.634C341.465 319.009 341.581 318.331 341.581 317.602C341.581 316.873 341.465 316.194 341.233 315.564C341.001 314.934 340.643 314.425 340.16 314.037C339.677 313.649 339.062 313.455 338.314 313.455C337.565 313.455 336.95 313.649 336.467 314.037C335.984 314.425 335.627 314.934 335.395 315.564C335.163 316.194 335.047 316.873 335.047 317.602C335.047 318.331 335.163 319.009 335.395 319.634C335.627 320.259 335.984 320.763 336.467 321.146C336.95 321.53 337.565 321.722 338.314 321.722ZM351.44 323V312.091H353.116V323H351.44ZM352.293 310.273C351.966 310.273 351.684 310.161 351.447 309.939C351.215 309.716 351.099 309.449 351.099 309.136C351.099 308.824 351.215 308.556 351.447 308.334C351.684 308.111 351.966 308 352.293 308C352.619 308 352.899 308.111 353.131 308.334C353.367 308.556 353.486 308.824 353.486 309.136C353.486 309.449 353.367 309.716 353.131 309.939C352.899 310.161 352.619 310.273 352.293 310.273ZM360.931 312.091V313.511H355.277V312.091H360.931ZM356.925 309.477H358.601V319.875C358.601 320.348 358.67 320.704 358.807 320.94C358.949 321.172 359.129 321.329 359.347 321.409C359.569 321.485 359.804 321.523 360.05 321.523C360.235 321.523 360.386 321.513 360.505 321.494C360.623 321.471 360.718 321.452 360.789 321.438L361.13 322.943C361.016 322.986 360.857 323.028 360.654 323.071C360.45 323.118 360.192 323.142 359.88 323.142C359.406 323.142 358.942 323.04 358.488 322.837C358.038 322.633 357.664 322.323 357.365 321.906C357.072 321.49 356.925 320.964 356.925 320.33V309.477ZM370.984 314.534L369.478 314.96C369.384 314.709 369.244 314.465 369.059 314.229C368.879 313.987 368.633 313.788 368.321 313.632C368.008 313.476 367.608 313.398 367.12 313.398C366.453 313.398 365.896 313.552 365.451 313.859C365.011 314.162 364.791 314.548 364.791 315.017C364.791 315.434 364.942 315.763 365.245 316.004C365.548 316.246 366.022 316.447 366.666 316.608L368.285 317.006C369.261 317.242 369.987 317.605 370.466 318.092C370.944 318.575 371.183 319.198 371.183 319.96C371.183 320.585 371.003 321.144 370.643 321.636C370.288 322.129 369.791 322.517 369.152 322.801C368.512 323.085 367.769 323.227 366.922 323.227C365.809 323.227 364.888 322.986 364.159 322.503C363.43 322.02 362.968 321.314 362.774 320.386L364.365 319.989C364.516 320.576 364.803 321.016 365.224 321.31C365.65 321.603 366.207 321.75 366.893 321.75C367.674 321.75 368.295 321.584 368.754 321.253C369.218 320.917 369.45 320.514 369.45 320.045C369.45 319.667 369.317 319.349 369.052 319.094C368.787 318.833 368.38 318.639 367.831 318.511L366.012 318.085C365.013 317.848 364.279 317.482 363.811 316.984C363.347 316.482 363.115 315.855 363.115 315.102C363.115 314.487 363.288 313.942 363.633 313.469C363.984 312.995 364.459 312.624 365.061 312.354C365.667 312.084 366.353 311.949 367.12 311.949C368.2 311.949 369.047 312.186 369.663 312.659C370.283 313.133 370.724 313.758 370.984 314.534ZM225.081 347.227C224.172 347.227 223.369 346.998 222.673 346.538C221.977 346.074 221.433 345.421 221.04 344.578C220.647 343.731 220.45 342.729 220.45 341.574C220.45 340.428 220.647 339.434 221.04 338.591C221.433 337.748 221.98 337.097 222.681 336.638C223.381 336.179 224.191 335.949 225.11 335.949C225.82 335.949 226.381 336.067 226.793 336.304C227.209 336.536 227.527 336.801 227.744 337.099C227.967 337.393 228.14 337.634 228.263 337.824H228.405V332.455H230.081V347H228.462V345.324H228.263C228.14 345.523 227.965 345.774 227.737 346.077C227.51 346.375 227.186 346.643 226.764 346.879C226.343 347.111 225.782 347.227 225.081 347.227ZM225.308 345.722C225.981 345.722 226.549 345.546 227.013 345.196C227.477 344.841 227.83 344.351 228.071 343.726C228.313 343.096 228.433 342.369 228.433 341.545C228.433 340.731 228.315 340.018 228.078 339.408C227.842 338.792 227.491 338.314 227.027 337.973C226.563 337.627 225.99 337.455 225.308 337.455C224.598 337.455 224.006 337.637 223.533 338.001C223.064 338.361 222.711 338.851 222.475 339.472C222.243 340.087 222.127 340.778 222.127 341.545C222.127 342.322 222.245 343.027 222.482 343.662C222.723 344.292 223.078 344.794 223.547 345.168C224.021 345.537 224.608 345.722 225.308 345.722ZM237.958 347.227C236.906 347.227 236 346.995 235.237 346.531C234.48 346.062 233.895 345.409 233.483 344.571C233.076 343.728 232.872 342.748 232.872 341.631C232.872 340.513 233.076 339.528 233.483 338.676C233.895 337.819 234.468 337.152 235.202 336.673C235.941 336.19 236.802 335.949 237.787 335.949C238.355 335.949 238.916 336.044 239.47 336.233C240.024 336.422 240.529 336.73 240.983 337.156C241.438 337.578 241.8 338.136 242.07 338.832C242.34 339.528 242.475 340.385 242.475 341.403V342.114H234.066V340.665H240.77C240.77 340.049 240.647 339.5 240.401 339.017C240.159 338.534 239.814 338.153 239.364 337.874C238.919 337.594 238.393 337.455 237.787 337.455C237.119 337.455 236.542 337.62 236.054 337.952C235.571 338.278 235.2 338.705 234.939 339.23C234.679 339.756 234.548 340.319 234.548 340.92V341.886C234.548 342.71 234.691 343.409 234.975 343.982C235.263 344.55 235.664 344.983 236.175 345.281C236.686 345.575 237.28 345.722 237.958 345.722C238.398 345.722 238.796 345.66 239.151 345.537C239.511 345.409 239.821 345.22 240.081 344.969C240.342 344.713 240.543 344.396 240.685 344.017L242.304 344.472C242.134 345.021 241.847 345.504 241.445 345.92C241.042 346.332 240.545 346.654 239.953 346.886C239.361 347.114 238.696 347.227 237.958 347.227ZM252.752 338.534L251.246 338.96C251.151 338.709 251.012 338.465 250.827 338.229C250.647 337.987 250.401 337.788 250.088 337.632C249.776 337.476 249.376 337.398 248.888 337.398C248.22 337.398 247.664 337.552 247.219 337.859C246.779 338.162 246.558 338.548 246.558 339.017C246.558 339.434 246.71 339.763 247.013 340.004C247.316 340.246 247.789 340.447 248.433 340.608L250.053 341.006C251.028 341.242 251.755 341.605 252.233 342.092C252.711 342.575 252.95 343.198 252.95 343.96C252.95 344.585 252.771 345.144 252.411 345.636C252.056 346.129 251.558 346.517 250.919 346.801C250.28 347.085 249.537 347.227 248.689 347.227C247.576 347.227 246.655 346.986 245.926 346.503C245.197 346.02 244.735 345.314 244.541 344.386L246.132 343.989C246.284 344.576 246.57 345.016 246.992 345.31C247.418 345.603 247.974 345.75 248.661 345.75C249.442 345.75 250.062 345.584 250.521 345.253C250.985 344.917 251.218 344.514 251.218 344.045C251.218 343.667 251.085 343.349 250.82 343.094C250.555 342.833 250.147 342.639 249.598 342.511L247.78 342.085C246.781 341.848 246.047 341.482 245.578 340.984C245.114 340.482 244.882 339.855 244.882 339.102C244.882 338.487 245.055 337.942 245.401 337.469C245.751 336.995 246.227 336.624 246.828 336.354C247.434 336.084 248.121 335.949 248.888 335.949C249.968 335.949 250.815 336.186 251.431 336.659C252.051 337.133 252.491 337.758 252.752 338.534ZM255.474 347V336.091H257.15V347H255.474ZM256.326 334.273C255.999 334.273 255.717 334.161 255.481 333.939C255.249 333.716 255.133 333.449 255.133 333.136C255.133 332.824 255.249 332.556 255.481 332.334C255.717 332.111 255.999 332 256.326 332C256.653 332 256.932 332.111 257.164 332.334C257.401 332.556 257.519 332.824 257.519 333.136C257.519 333.449 257.401 333.716 257.164 333.939C256.932 334.161 256.653 334.273 256.326 334.273ZM264.623 351.318C263.813 351.318 263.117 351.214 262.535 351.006C261.953 350.802 261.467 350.532 261.079 350.196C260.695 349.865 260.39 349.509 260.163 349.131L261.498 348.193C261.65 348.392 261.841 348.619 262.073 348.875C262.305 349.135 262.623 349.36 263.025 349.55C263.432 349.744 263.965 349.841 264.623 349.841C265.504 349.841 266.231 349.628 266.803 349.202C267.376 348.776 267.663 348.108 267.663 347.199V344.983H267.521C267.398 345.182 267.222 345.428 266.995 345.722C266.773 346.01 266.451 346.268 266.029 346.496C265.613 346.718 265.049 346.83 264.339 346.83C263.458 346.83 262.668 346.621 261.967 346.205C261.271 345.788 260.719 345.182 260.312 344.386C259.91 343.591 259.708 342.625 259.708 341.489C259.708 340.371 259.905 339.398 260.298 338.57C260.691 337.736 261.238 337.092 261.938 336.638C262.639 336.179 263.449 335.949 264.367 335.949C265.078 335.949 265.641 336.067 266.058 336.304C266.479 336.536 266.801 336.801 267.024 337.099C267.251 337.393 267.426 337.634 267.549 337.824H267.72V336.091H269.339V347.312C269.339 348.25 269.126 349.012 268.7 349.599C268.278 350.191 267.71 350.625 266.995 350.899C266.285 351.179 265.494 351.318 264.623 351.318ZM264.566 345.324C265.239 345.324 265.807 345.17 266.271 344.862C266.735 344.554 267.088 344.112 267.329 343.534C267.57 342.956 267.691 342.265 267.691 341.46C267.691 340.674 267.573 339.981 267.336 339.379C267.099 338.778 266.749 338.307 266.285 337.966C265.821 337.625 265.248 337.455 264.566 337.455C263.856 337.455 263.264 337.634 262.791 337.994C262.322 338.354 261.969 338.837 261.732 339.443C261.5 340.049 261.384 340.722 261.384 341.46C261.384 342.218 261.503 342.888 261.74 343.47C261.981 344.048 262.336 344.502 262.805 344.834C263.278 345.161 263.865 345.324 264.566 345.324ZM274.083 340.438V347H272.407V336.091H274.026V337.795H274.169C274.424 337.241 274.812 336.796 275.333 336.46C275.854 336.119 276.526 335.949 277.35 335.949C278.089 335.949 278.735 336.1 279.289 336.403C279.843 336.702 280.274 337.156 280.582 337.767C280.89 338.373 281.044 339.14 281.044 340.068V347H279.367V340.182C279.367 339.325 279.145 338.657 278.7 338.179C278.255 337.696 277.644 337.455 276.867 337.455C276.332 337.455 275.854 337.571 275.433 337.803C275.016 338.035 274.687 338.373 274.445 338.818C274.204 339.263 274.083 339.803 274.083 340.438Z" fill="black" fill-opacity="0.9"/>
</svg>
