<svg width="500" height="500" viewBox="0 0 500 500" fill="none" xmlns="http://www.w3.org/2000/svg">
<rect width="500" height="500" rx="4" fill="white"/>
<path d="M18.1573 67.5V47.8636H25.3484C26.7418 47.8636 27.8956 48.0937 28.8097 48.554C29.7237 49.0078 30.4077 49.6246 30.8615 50.4045C31.3153 51.1779 31.5423 52.0504 31.5423 53.022C31.5423 53.8402 31.392 54.5305 31.0916 55.093C30.7912 55.6491 30.3885 56.0966 29.8835 56.4354C29.3849 56.7678 28.8352 57.0107 28.2344 57.1641V57.3558C28.8864 57.3878 29.5224 57.5987 30.1424 57.9886C30.7688 58.3722 31.2866 58.9187 31.6957 59.6282C32.1048 60.3377 32.3093 61.2006 32.3093 62.217C32.3093 63.2205 32.0728 64.1218 31.5998 64.9208C31.1332 65.7134 30.4109 66.343 29.4329 66.8097C28.4549 67.2699 27.2053 67.5 25.6839 67.5H18.1573ZM21.12 64.9592H25.3963C26.8153 64.9592 27.8317 64.6843 28.4453 64.1346C29.0589 63.5849 29.3658 62.8977 29.3658 62.0732C29.3658 61.4531 29.2092 60.8842 28.896 60.3665C28.5827 59.8487 28.1353 59.4364 27.5536 59.1296C26.9783 58.8228 26.2944 58.6694 25.5018 58.6694H21.12V64.9592ZM21.12 56.3587H25.0895C25.7543 56.3587 26.3519 56.2308 26.8825 55.9751C27.4194 55.7195 27.8445 55.3615 28.1577 54.9013C28.4773 54.4347 28.6371 53.8849 28.6371 53.2521C28.6371 52.4403 28.3526 51.7596 27.7837 51.2099C27.2148 50.6602 26.3423 50.3853 25.1662 50.3853H21.12V56.3587ZM39.8791 67.826C38.9458 67.826 38.1021 67.6534 37.3478 67.3082C36.5936 66.9567 35.9959 66.4485 35.5549 65.7837C35.1202 65.119 34.9029 64.304 34.9029 63.3388C34.9029 62.5078 35.0627 61.8239 35.3823 61.2869C35.7019 60.75 36.1333 60.3249 36.6767 60.0117C37.22 59.6985 37.8272 59.462 38.4984 59.3022C39.1696 59.1424 39.8535 59.021 40.5502 58.9379C41.4324 58.8356 42.1483 58.7525 42.698 58.6886C43.2477 58.6183 43.6472 58.5064 43.8965 58.353C44.1458 58.1996 44.2704 57.9503 44.2704 57.6051V57.538C44.2704 56.7006 44.0339 56.0518 43.5609 55.5916C43.0943 55.1314 42.3976 54.9013 41.4707 54.9013C40.5055 54.9013 39.7449 55.1154 39.1887 55.5437C38.639 55.9656 38.2587 56.4354 38.0478 56.9531L35.3535 56.3395C35.6731 55.4446 36.1397 54.7223 36.7534 54.1726C37.3734 53.6165 38.0861 53.2138 38.8915 52.9645C39.6969 52.7088 40.5439 52.581 41.4324 52.581C42.0204 52.581 42.6436 52.6513 43.302 52.7919C43.9668 52.9261 44.5868 53.1754 45.1621 53.5398C45.7438 53.9041 46.22 54.4251 46.5907 55.1026C46.9615 55.7738 47.1468 56.6463 47.1468 57.7202V67.5H44.3471V65.4865H44.2321C44.0467 65.8572 43.7686 66.2216 43.3979 66.5795C43.0272 66.9375 42.551 67.2347 41.9693 67.4712C41.3876 67.7077 40.6909 67.826 39.8791 67.826ZM40.5023 65.5249C41.2949 65.5249 41.9725 65.3683 42.535 65.055C43.1039 64.7418 43.5353 64.3327 43.8294 63.8278C44.1298 63.3164 44.28 62.7699 44.28 62.1882V60.2898C44.1777 60.392 43.9796 60.4879 43.6855 60.5774C43.3979 60.6605 43.0687 60.734 42.698 60.7979C42.3272 60.8555 41.9661 60.9098 41.6145 60.9609C41.263 61.0057 40.9689 61.044 40.7324 61.076C40.1763 61.1463 39.6681 61.2646 39.2079 61.4308C38.7541 61.5969 38.3897 61.8366 38.1149 62.1499C37.8464 62.4567 37.7122 62.8658 37.7122 63.3771C37.7122 64.0866 37.9743 64.6236 38.4984 64.9879C39.0225 65.3459 39.6905 65.5249 40.5023 65.5249ZM56.4784 67.7876C55.2895 67.7876 54.2284 67.484 53.2952 66.8768C52.3683 66.2631 51.6396 65.3906 51.1091 64.2592C50.585 63.1214 50.3229 61.7567 50.3229 60.1651C50.3229 58.5735 50.5882 57.212 51.1187 56.0806C51.6556 54.9492 52.3907 54.0831 53.324 53.4822C54.2572 52.8814 55.3151 52.581 56.4976 52.581C57.4117 52.581 58.1468 52.7344 58.7029 53.0412C59.2654 53.3416 59.7 53.6932 60.0068 54.0959C60.32 54.4986 60.5629 54.8533 60.7355 55.1602H60.9081V47.8636H63.7749V67.5H60.9752V65.2085H60.7355C60.5629 65.5217 60.3137 65.8796 59.9877 66.2823C59.6681 66.685 59.227 67.0366 58.6645 67.337C58.102 67.6374 57.3733 67.7876 56.4784 67.7876ZM57.1112 65.3427C57.9358 65.3427 58.6325 65.1254 59.2014 64.6907C59.7767 64.2496 60.2114 63.6392 60.5054 62.8594C60.8058 62.0795 60.9561 61.1719 60.9561 60.1364C60.9561 59.1136 60.809 58.2187 60.515 57.4517C60.221 56.6847 59.7895 56.087 59.2206 55.6587C58.6517 55.2305 57.9486 55.0163 57.1112 55.0163C56.2483 55.0163 55.5292 55.2401 54.9539 55.6875C54.3786 56.1349 53.944 56.7454 53.6499 57.5188C53.3623 58.2923 53.2185 59.1648 53.2185 60.1364C53.2185 61.1207 53.3655 62.006 53.6595 62.7923C53.9536 63.5785 54.3882 64.2017 54.9635 64.6619C55.5452 65.1158 56.2611 65.3427 57.1112 65.3427ZM75.2423 67.5V47.8636H87.5534V50.4141H78.205V56.397H86.911V58.9379H78.205V64.9496H87.6684V67.5H75.2423ZM93.5435 52.7727L96.7939 58.5064L100.073 52.7727H103.208L98.6156 60.1364L103.247 67.5H100.111L96.7939 61.9964L93.486 67.5H90.3411L94.9242 60.1364L90.3986 52.7727H93.5435ZM106.152 73.0227V52.7727H108.952V55.1602H109.191C109.357 54.8533 109.597 54.4986 109.91 54.0959C110.224 53.6932 110.658 53.3416 111.214 53.0412C111.77 52.7344 112.506 52.581 113.42 52.581C114.608 52.581 115.67 52.8814 116.603 53.4822C117.536 54.0831 118.268 54.9492 118.798 56.0806C119.335 57.212 119.604 58.5735 119.604 60.1651C119.604 61.7567 119.339 63.1214 118.808 64.2592C118.278 65.3906 117.549 66.2631 116.622 66.8768C115.695 67.484 114.637 67.7876 113.448 67.7876C112.553 67.7876 111.822 67.6374 111.253 67.337C110.69 67.0366 110.249 66.685 109.93 66.2823C109.61 65.8796 109.364 65.5217 109.191 65.2085H109.019V73.0227H106.152ZM108.961 60.1364C108.961 61.1719 109.111 62.0795 109.412 62.8594C109.712 63.6392 110.147 64.2496 110.716 64.6907C111.285 65.1254 111.981 65.3427 112.806 65.3427C113.662 65.3427 114.378 65.1158 114.954 64.6619C115.529 64.2017 115.964 63.5785 116.258 62.7923C116.558 62.006 116.708 61.1207 116.708 60.1364C116.708 59.1648 116.561 58.2923 116.267 57.5188C115.98 56.7454 115.545 56.1349 114.963 55.6875C114.388 55.2401 113.669 55.0163 112.806 55.0163C111.975 55.0163 111.272 55.2305 110.697 55.6587C110.128 56.087 109.696 56.6847 109.402 57.4517C109.108 58.2187 108.961 59.1136 108.961 60.1364ZM129.163 67.7972C127.712 67.7972 126.463 67.4872 125.414 66.8672C124.372 66.2408 123.567 65.3619 122.998 64.2305C122.436 63.0927 122.154 61.7599 122.154 60.2322C122.154 58.7237 122.436 57.3942 122.998 56.2436C123.567 55.093 124.36 54.195 125.376 53.5494C126.399 52.9038 127.594 52.581 128.962 52.581C129.793 52.581 130.598 52.7184 131.378 52.9933C132.158 53.2681 132.858 53.6996 133.478 54.2876C134.098 54.8757 134.587 55.6396 134.945 56.5792C135.303 57.5124 135.482 58.647 135.482 59.983V60.9993H123.775V58.8516H132.672C132.672 58.0973 132.519 57.4293 132.212 56.8477C131.905 56.2596 131.474 55.7962 130.918 55.4574C130.368 55.1186 129.722 54.9492 128.981 54.9492C128.176 54.9492 127.472 55.1474 126.872 55.5437C126.277 55.9336 125.817 56.445 125.491 57.0778C125.171 57.7042 125.012 58.3849 125.012 59.12V60.7979C125.012 61.7823 125.184 62.6197 125.529 63.31C125.881 64.0004 126.37 64.5277 126.996 64.892C127.623 65.25 128.355 65.429 129.192 65.429C129.735 65.429 130.231 65.3523 130.678 65.1989C131.126 65.0391 131.512 64.8026 131.838 64.4893C132.164 64.1761 132.414 63.7894 132.586 63.3292L135.3 63.8182C135.082 64.6172 134.692 65.3171 134.13 65.918C133.574 66.5124 132.874 66.9759 132.03 67.3082C131.193 67.6342 130.237 67.7972 129.163 67.7972ZM138.663 67.5V52.7727H141.434V55.1122H141.587C141.855 54.3196 142.328 53.6964 143.006 53.2425C143.69 52.7823 144.463 52.5522 145.326 52.5522C145.505 52.5522 145.716 52.5586 145.959 52.5714C146.208 52.5842 146.403 52.6001 146.544 52.6193V55.3615C146.429 55.3295 146.224 55.2944 145.93 55.256C145.636 55.2113 145.342 55.1889 145.048 55.1889C144.371 55.1889 143.767 55.3327 143.236 55.6204C142.712 55.9016 142.296 56.2947 141.99 56.7997C141.683 57.2983 141.529 57.8672 141.529 58.5064V67.5H138.663ZM149.025 67.5V52.7727H151.892V67.5H149.025ZM150.473 50.5004C149.974 50.5004 149.546 50.3342 149.188 50.0018C148.836 49.663 148.661 49.2603 148.661 48.7937C148.661 48.3207 148.836 47.918 149.188 47.5856C149.546 47.2468 149.974 47.0774 150.473 47.0774C150.971 47.0774 151.396 47.2468 151.748 47.5856C152.106 47.918 152.285 48.3207 152.285 48.7937C152.285 49.2603 152.106 49.663 151.748 50.0018C151.396 50.3342 150.971 50.5004 150.473 50.5004ZM162.096 67.7972C160.645 67.7972 159.395 67.4872 158.347 66.8672C157.305 66.2408 156.5 65.3619 155.931 64.2305C155.368 63.0927 155.087 61.7599 155.087 60.2322C155.087 58.7237 155.368 57.3942 155.931 56.2436C156.5 55.093 157.292 54.195 158.309 53.5494C159.331 52.9038 160.527 52.581 161.894 52.581C162.725 52.581 163.531 52.7184 164.311 52.9933C165.09 53.2681 165.79 53.6996 166.41 54.2876C167.03 54.8757 167.519 55.6396 167.877 56.5792C168.235 57.5124 168.414 58.647 168.414 59.983V60.9993H156.707V58.8516H165.605C165.605 58.0973 165.452 57.4293 165.145 56.8477C164.838 56.2596 164.407 55.7962 163.85 55.4574C163.301 55.1186 162.655 54.9492 161.914 54.9492C161.108 54.9492 160.405 55.1474 159.804 55.5437C159.21 55.9336 158.75 56.445 158.424 57.0778C158.104 57.7042 157.944 58.3849 157.944 59.12V60.7979C157.944 61.7823 158.117 62.6197 158.462 63.31C158.813 64.0004 159.302 64.5277 159.929 64.892C160.555 65.25 161.287 65.429 162.125 65.429C162.668 65.429 163.163 65.3523 163.611 65.1989C164.058 65.0391 164.445 64.8026 164.771 64.4893C165.097 64.1761 165.346 63.7894 165.519 63.3292L168.232 63.8182C168.015 64.6172 167.625 65.3171 167.062 65.918C166.506 66.5124 165.806 66.9759 164.963 67.3082C164.125 67.6342 163.17 67.7972 162.096 67.7972ZM174.462 58.7557V67.5H171.595V52.7727H174.347V55.1697H174.529C174.868 54.3899 175.398 53.7635 176.121 53.2905C176.849 52.8175 177.767 52.581 178.873 52.581C179.876 52.581 180.755 52.7919 181.509 53.2138C182.263 53.6293 182.848 54.2493 183.264 55.0739C183.679 55.8984 183.887 56.918 183.887 58.1325V67.5H181.02V58.4776C181.02 57.4102 180.742 56.576 180.186 55.9751C179.63 55.3679 178.866 55.0643 177.895 55.0643C177.23 55.0643 176.638 55.2081 176.121 55.4957C175.609 55.7834 175.203 56.2053 174.903 56.7614C174.609 57.3111 174.462 57.9759 174.462 58.7557ZM193.935 67.7972C192.51 67.7972 191.283 67.4744 190.254 66.8288C189.231 66.1768 188.445 65.2788 187.895 64.1346C187.345 62.9904 187.07 61.68 187.07 60.2035C187.07 58.7077 187.352 57.3878 187.914 56.2436C188.477 55.093 189.269 54.195 190.292 53.5494C191.315 52.9038 192.52 52.581 193.907 52.581C195.025 52.581 196.022 52.7887 196.898 53.2042C197.774 53.6133 198.48 54.1886 199.017 54.93C199.56 55.6715 199.883 56.5376 199.985 57.5284H197.195C197.042 56.8381 196.69 56.2436 196.141 55.745C195.597 55.2464 194.869 54.9972 193.955 54.9972C193.156 54.9972 192.456 55.2081 191.855 55.63C191.26 56.0455 190.797 56.6399 190.464 57.4134C190.132 58.1804 189.966 59.0881 189.966 60.1364C189.966 61.2102 190.129 62.1371 190.455 62.9169C190.781 63.6967 191.241 64.3008 191.836 64.729C192.436 65.1573 193.143 65.3714 193.955 65.3714C194.498 65.3714 194.99 65.2724 195.431 65.0742C195.879 64.8697 196.252 64.5788 196.553 64.2017C196.86 63.8246 197.074 63.3707 197.195 62.8402H199.985C199.883 63.7926 199.573 64.6428 199.055 65.3906C198.538 66.1385 197.844 66.7266 196.975 67.1548C196.112 67.5831 195.099 67.7972 193.935 67.7972ZM209.399 67.7972C207.948 67.7972 206.698 67.4872 205.65 66.8672C204.608 66.2408 203.802 65.3619 203.233 64.2305C202.671 63.0927 202.39 61.7599 202.39 60.2322C202.39 58.7237 202.671 57.3942 203.233 56.2436C203.802 55.093 204.595 54.195 205.611 53.5494C206.634 52.9038 207.829 52.581 209.197 52.581C210.028 52.581 210.834 52.7184 211.613 52.9933C212.393 53.2681 213.093 53.6996 213.713 54.2876C214.333 54.8757 214.822 55.6396 215.18 56.5792C215.538 57.5124 215.717 58.647 215.717 59.983V60.9993H204.01V58.8516H212.908C212.908 58.0973 212.754 57.4293 212.448 56.8477C212.141 56.2596 211.709 55.7962 211.153 55.4574C210.603 55.1186 209.958 54.9492 209.216 54.9492C208.411 54.9492 207.708 55.1474 207.107 55.5437C206.513 55.9336 206.052 56.445 205.726 57.0778C205.407 57.7042 205.247 58.3849 205.247 59.12V60.7979C205.247 61.7823 205.419 62.6197 205.765 63.31C206.116 64.0004 206.605 64.5277 207.232 64.892C207.858 65.25 208.59 65.429 209.427 65.429C209.971 65.429 210.466 65.3523 210.913 65.1989C211.361 65.0391 211.748 64.8026 212.074 64.4893C212.4 64.1761 212.649 63.7894 212.821 63.3292L215.535 63.8182C215.318 64.6172 214.928 65.3171 214.365 65.918C213.809 66.5124 213.109 66.9759 212.265 67.3082C211.428 67.6342 210.472 67.7972 209.399 67.7972Z" fill="black"/>
<path d="M250.842 106.5C295.62 106.5 338.715 123.558 371.356 154.202L347.253 179.861C321.14 155.346 286.664 141.7 250.842 141.7L250.842 106.5Z" fill="#999999" fill-opacity="0.29"/>
<path d="M371.356 154.202C401.22 182.238 420.369 219.808 425.503 260.441C430.638 301.074 421.437 342.225 399.486 376.806C377.534 411.386 344.207 437.23 305.244 449.886C266.282 462.542 224.124 461.218 186.034 446.141C147.943 431.064 116.305 403.179 96.5686 367.289C76.8324 331.399 70.2343 289.751 77.9108 249.521C85.5873 209.29 107.058 172.996 138.624 146.89C170.19 120.783 209.875 106.5 250.842 106.5L250.842 141.7C218.068 141.7 186.32 153.127 161.067 174.012C135.815 194.897 118.638 223.932 112.497 256.117C106.356 288.301 111.634 321.619 127.423 350.331C143.212 379.043 168.523 401.351 198.995 413.413C229.468 425.474 263.194 426.534 294.364 416.409C325.534 406.284 352.196 385.609 369.757 357.944C387.318 330.28 394.679 297.359 390.571 264.853C386.463 232.347 371.145 202.29 347.253 179.861L371.356 154.202Z" fill="#AF52DE"/>
<path d="M201.837 247.186C198.195 247.186 194.96 246.574 192.134 245.348C189.325 244.123 187.119 242.449 185.518 240.325C183.934 238.185 183.15 235.76 183.166 233.048C183.15 230.941 183.607 229.005 184.538 227.241C185.469 225.477 186.727 224.006 188.312 222.83C189.913 221.638 191.693 220.878 193.653 220.551V220.208C191.072 219.637 188.982 218.322 187.381 216.263C185.796 214.189 185.012 211.796 185.028 209.084C185.012 206.503 185.731 204.2 187.185 202.174C188.638 200.149 190.631 198.556 193.163 197.396C195.695 196.22 198.587 195.632 201.837 195.632C205.055 195.632 207.922 196.22 210.438 197.396C212.97 198.556 214.963 200.149 216.417 202.174C217.887 204.2 218.622 206.503 218.622 209.084C218.622 211.796 217.813 214.189 216.196 216.263C214.595 218.322 212.529 219.637 209.997 220.208V220.551C211.957 220.878 213.721 221.638 215.289 222.83C216.874 224.006 218.132 225.477 219.063 227.241C220.01 229.005 220.484 230.941 220.484 233.048C220.484 235.76 219.684 238.185 218.083 240.325C216.482 242.449 214.277 244.123 211.467 245.348C208.674 246.574 205.464 247.186 201.837 247.186ZM201.837 240.178C203.716 240.178 205.349 239.86 206.738 239.223C208.126 238.569 209.205 237.654 209.972 236.478C210.74 235.302 211.132 233.946 211.148 232.411C211.132 230.81 210.716 229.397 209.899 228.172C209.098 226.93 207.996 225.958 206.591 225.256C205.202 224.554 203.618 224.202 201.837 224.202C200.04 224.202 198.44 224.554 197.035 225.256C195.63 225.958 194.519 226.93 193.702 228.172C192.902 229.397 192.51 230.81 192.526 232.411C192.51 233.946 192.886 235.302 193.653 236.478C194.421 237.638 195.499 238.545 196.888 239.198C198.293 239.852 199.942 240.178 201.837 240.178ZM201.837 217.317C203.373 217.317 204.729 217.007 205.905 216.386C207.097 215.765 208.037 214.9 208.723 213.789C209.409 212.678 209.76 211.396 209.776 209.942C209.76 208.504 209.417 207.246 208.747 206.168C208.077 205.074 207.146 204.233 205.954 203.645C204.761 203.04 203.389 202.738 201.837 202.738C200.253 202.738 198.856 203.04 197.647 203.645C196.455 204.233 195.524 205.074 194.854 206.168C194.201 207.246 193.882 208.504 193.898 209.942C193.882 211.396 194.209 212.678 194.879 213.789C195.565 214.883 196.504 215.749 197.696 216.386C198.905 217.007 200.286 217.317 201.837 217.317ZM246.377 247.186C242.735 247.186 239.5 246.574 236.674 245.348C233.865 244.123 231.659 242.449 230.059 240.325C228.474 238.185 227.69 235.76 227.706 233.048C227.69 230.941 228.147 229.005 229.078 227.241C230.009 225.477 231.267 224.006 232.852 222.83C234.453 221.638 236.233 220.878 238.193 220.551V220.208C235.612 219.637 233.522 218.322 231.921 216.263C230.336 214.189 229.552 211.796 229.568 209.084C229.552 206.503 230.271 204.2 231.725 202.174C233.179 200.149 235.171 198.556 237.703 197.396C240.235 196.22 243.127 195.632 246.377 195.632C249.595 195.632 252.462 196.22 254.978 197.396C257.51 198.556 259.503 200.149 260.957 202.174C262.427 204.2 263.162 206.503 263.162 209.084C263.162 211.796 262.353 214.189 260.736 216.263C259.135 218.322 257.069 219.637 254.537 220.208V220.551C256.497 220.878 258.261 221.638 259.829 222.83C261.414 224.006 262.672 225.477 263.603 227.241C264.55 229.005 265.024 230.941 265.024 233.048C265.024 235.76 264.224 238.185 262.623 240.325C261.022 242.449 258.817 244.123 256.007 245.348C253.214 246.574 250.004 247.186 246.377 247.186ZM246.377 240.178C248.256 240.178 249.889 239.86 251.278 239.223C252.666 238.569 253.745 237.654 254.512 236.478C255.28 235.302 255.672 233.946 255.688 232.411C255.672 230.81 255.256 229.397 254.439 228.172C253.638 226.93 252.536 225.958 251.131 225.256C249.742 224.554 248.158 224.202 246.377 224.202C244.581 224.202 242.98 224.554 241.575 225.256C240.17 225.958 239.059 226.93 238.242 228.172C237.442 229.397 237.05 230.81 237.066 232.411C237.05 233.946 237.426 235.302 238.193 236.478C238.961 237.638 240.039 238.545 241.428 239.198C242.833 239.852 244.483 240.178 246.377 240.178ZM246.377 217.317C247.913 217.317 249.269 217.007 250.445 216.386C251.637 215.765 252.577 214.9 253.263 213.789C253.949 212.678 254.3 211.396 254.316 209.942C254.3 208.504 253.957 207.246 253.287 206.168C252.617 205.074 251.686 204.233 250.494 203.645C249.301 203.04 247.929 202.738 246.377 202.738C244.793 202.738 243.396 203.04 242.187 203.645C240.995 204.233 240.064 205.074 239.394 206.168C238.741 207.246 238.422 208.504 238.438 209.942C238.422 211.396 238.749 212.678 239.419 213.789C240.105 214.883 241.044 215.749 242.236 216.386C243.445 217.007 244.826 217.317 246.377 217.317ZM299.91 237.091V234.445C299.91 232.501 300.318 230.712 301.135 229.078C301.968 227.445 303.177 226.13 304.762 225.134C306.346 224.137 308.265 223.639 310.52 223.639C312.839 223.639 314.783 224.137 316.351 225.134C317.92 226.114 319.104 227.42 319.904 229.054C320.721 230.688 321.129 232.484 321.129 234.445V237.091C321.129 239.035 320.721 240.824 319.904 242.457C319.088 244.091 317.887 245.406 316.302 246.402C314.734 247.398 312.807 247.897 310.52 247.897C308.233 247.897 306.297 247.398 304.713 246.402C303.128 245.406 301.927 244.091 301.111 242.457C300.31 240.824 299.91 239.035 299.91 237.091ZM306.305 234.445V237.091C306.305 238.381 306.616 239.566 307.236 240.644C307.857 241.722 308.952 242.261 310.52 242.261C312.104 242.261 313.191 241.73 313.779 240.668C314.383 239.59 314.685 238.398 314.685 237.091V234.445C314.685 233.138 314.399 231.945 313.828 230.867C313.256 229.773 312.153 229.225 310.52 229.225C308.984 229.225 307.898 229.773 307.261 230.867C306.624 231.945 306.305 233.138 306.305 234.445ZM274.403 208.374V205.727C274.403 203.767 274.819 201.97 275.652 200.337C276.485 198.703 277.694 197.396 279.279 196.416C280.863 195.42 282.782 194.922 285.037 194.922C287.34 194.922 289.276 195.42 290.844 196.416C292.428 197.396 293.621 198.703 294.421 200.337C295.222 201.97 295.622 203.767 295.622 205.727V208.374C295.622 210.334 295.214 212.131 294.397 213.764C293.596 215.381 292.404 216.68 290.819 217.66C289.235 218.64 287.307 219.13 285.037 219.13C282.733 219.13 280.79 218.64 279.205 217.66C277.637 216.68 276.444 215.373 275.628 213.74C274.811 212.106 274.403 210.317 274.403 208.374ZM280.847 205.727V208.374C280.847 209.68 281.149 210.873 281.753 211.951C282.374 213.013 283.469 213.544 285.037 213.544C286.605 213.544 287.683 213.013 288.271 211.951C288.876 210.873 289.178 209.68 289.178 208.374V205.727C289.178 204.42 288.892 203.228 288.32 202.15C287.748 201.055 286.654 200.508 285.037 200.508C283.485 200.508 282.399 201.055 281.778 202.15C281.157 203.244 280.847 204.437 280.847 205.727ZM277.196 246.5L311.696 196.318H317.822L283.322 246.5H277.196Z" fill="black" fill-opacity="0.9"/>
<path d="M166.108 282.727C165.123 282.727 164.259 282.493 163.516 282.024C162.777 281.555 162.2 280.9 161.783 280.057C161.371 279.214 161.165 278.229 161.165 277.102C161.165 275.966 161.371 274.974 161.783 274.126C162.2 273.279 162.777 272.621 163.516 272.152C164.259 271.683 165.123 271.449 166.108 271.449C167.093 271.449 167.955 271.683 168.693 272.152C169.437 272.621 170.014 273.279 170.426 274.126C170.843 274.974 171.051 275.966 171.051 277.102C171.051 278.229 170.843 279.214 170.426 280.057C170.014 280.9 169.437 281.555 168.693 282.024C167.955 282.493 167.093 282.727 166.108 282.727ZM166.108 281.222C166.856 281.222 167.472 281.03 167.955 280.646C168.438 280.263 168.795 279.759 169.027 279.134C169.259 278.509 169.375 277.831 169.375 277.102C169.375 276.373 169.259 275.694 169.027 275.064C168.795 274.434 168.438 273.925 167.955 273.537C167.472 273.149 166.856 272.955 166.108 272.955C165.36 272.955 164.745 273.149 164.262 273.537C163.779 273.925 163.421 274.434 163.189 275.064C162.957 275.694 162.841 276.373 162.841 277.102C162.841 277.831 162.957 278.509 163.189 279.134C163.421 279.759 163.779 280.263 164.262 280.646C164.745 281.03 165.36 281.222 166.108 281.222ZM178.468 271.591V273.011H172.587V271.591H178.468ZM174.349 282.5V270.085C174.349 269.46 174.495 268.939 174.789 268.523C175.083 268.106 175.464 267.794 175.932 267.585C176.401 267.377 176.896 267.273 177.417 267.273C177.829 267.273 178.165 267.306 178.425 267.372C178.686 267.438 178.88 267.5 179.008 267.557L178.525 269.006C178.44 268.977 178.321 268.942 178.17 268.899C178.023 268.857 177.829 268.835 177.587 268.835C177.033 268.835 176.633 268.975 176.387 269.254C176.146 269.534 176.025 269.943 176.025 270.483V282.5H174.349ZM190.874 282.727C189.889 282.727 189.025 282.493 188.282 282.024C187.543 281.555 186.965 280.9 186.549 280.057C186.137 279.214 185.931 278.229 185.931 277.102C185.931 275.966 186.137 274.974 186.549 274.126C186.965 273.279 187.543 272.621 188.282 272.152C189.025 271.683 189.889 271.449 190.874 271.449C191.859 271.449 192.72 271.683 193.459 272.152C194.202 272.621 194.78 273.279 195.192 274.126C195.609 274.974 195.817 275.966 195.817 277.102C195.817 278.229 195.609 279.214 195.192 280.057C194.78 280.9 194.202 281.555 193.459 282.024C192.72 282.493 191.859 282.727 190.874 282.727ZM190.874 281.222C191.622 281.222 192.237 281.03 192.72 280.646C193.203 280.263 193.561 279.759 193.793 279.134C194.025 278.509 194.141 277.831 194.141 277.102C194.141 276.373 194.025 275.694 193.793 275.064C193.561 274.434 193.203 273.925 192.72 273.537C192.237 273.149 191.622 272.955 190.874 272.955C190.126 272.955 189.51 273.149 189.027 273.537C188.544 273.925 188.187 274.434 187.955 275.064C187.723 275.694 187.607 276.373 187.607 277.102C187.607 277.831 187.723 278.509 187.955 279.134C188.187 279.759 188.544 280.263 189.027 280.646C189.51 281.03 190.126 281.222 190.874 281.222ZM200.052 275.938V282.5H198.376V271.591H199.995V273.295H200.137C200.393 272.741 200.781 272.296 201.302 271.96C201.823 271.619 202.495 271.449 203.319 271.449C204.057 271.449 204.704 271.6 205.258 271.903C205.812 272.202 206.243 272.656 206.55 273.267C206.858 273.873 207.012 274.64 207.012 275.568V282.5H205.336V275.682C205.336 274.825 205.113 274.157 204.668 273.679C204.223 273.196 203.612 272.955 202.836 272.955C202.301 272.955 201.823 273.071 201.401 273.303C200.985 273.535 200.655 273.873 200.414 274.318C200.172 274.763 200.052 275.303 200.052 275.938ZM211.751 267.955V282.5H210.075V267.955H211.751ZM214.821 282.5V271.591H216.497V282.5H214.821ZM215.673 269.773C215.347 269.773 215.065 269.661 214.828 269.439C214.596 269.216 214.48 268.949 214.48 268.636C214.48 268.324 214.596 268.056 214.828 267.834C215.065 267.611 215.347 267.5 215.673 267.5C216 267.5 216.279 267.611 216.511 267.834C216.748 268.056 216.866 268.324 216.866 268.636C216.866 268.949 216.748 269.216 216.511 269.439C216.279 269.661 216 269.773 215.673 269.773ZM221.243 275.938V282.5H219.567V271.591H221.186V273.295H221.328C221.584 272.741 221.972 272.296 222.493 271.96C223.014 271.619 223.686 271.449 224.51 271.449C225.249 271.449 225.895 271.6 226.449 271.903C227.003 272.202 227.434 272.656 227.742 273.267C228.05 273.873 228.203 274.64 228.203 275.568V282.5H226.527V275.682C226.527 274.825 226.305 274.157 225.86 273.679C225.415 273.196 224.804 272.955 224.027 272.955C223.492 272.955 223.014 273.071 222.593 273.303C222.176 273.535 221.847 273.873 221.605 274.318C221.364 274.763 221.243 275.303 221.243 275.938ZM235.84 282.727C234.789 282.727 233.882 282.495 233.12 282.031C232.362 281.562 231.778 280.909 231.366 280.071C230.958 279.228 230.755 278.248 230.755 277.131C230.755 276.013 230.958 275.028 231.366 274.176C231.778 273.319 232.351 272.652 233.084 272.173C233.823 271.69 234.685 271.449 235.67 271.449C236.238 271.449 236.799 271.544 237.353 271.733C237.907 271.922 238.411 272.23 238.866 272.656C239.32 273.078 239.682 273.636 239.952 274.332C240.222 275.028 240.357 275.885 240.357 276.903V277.614H231.948V276.165H238.653C238.653 275.549 238.53 275 238.283 274.517C238.042 274.034 237.696 273.653 237.246 273.374C236.801 273.094 236.276 272.955 235.67 272.955C235.002 272.955 234.424 273.12 233.937 273.452C233.454 273.778 233.082 274.205 232.822 274.73C232.561 275.256 232.431 275.819 232.431 276.42V277.386C232.431 278.21 232.573 278.909 232.857 279.482C233.146 280.05 233.546 280.483 234.057 280.781C234.569 281.075 235.163 281.222 235.84 281.222C236.28 281.222 236.678 281.16 237.033 281.037C237.393 280.909 237.703 280.72 237.964 280.469C238.224 280.213 238.425 279.896 238.567 279.517L240.187 279.972C240.016 280.521 239.73 281.004 239.327 281.42C238.925 281.832 238.428 282.154 237.836 282.386C237.244 282.614 236.579 282.727 235.84 282.727ZM252.964 282.727C251.941 282.727 251.06 282.486 250.322 282.003C249.583 281.52 249.015 280.855 248.617 280.007C248.219 279.16 248.021 278.191 248.021 277.102C248.021 275.994 248.224 275.017 248.631 274.169C249.043 273.317 249.616 272.652 250.35 272.173C251.089 271.69 251.95 271.449 252.935 271.449C253.702 271.449 254.394 271.591 255.009 271.875C255.625 272.159 256.129 272.557 256.522 273.068C256.915 273.58 257.159 274.176 257.253 274.858H255.577C255.449 274.361 255.165 273.92 254.725 273.537C254.289 273.149 253.702 272.955 252.964 272.955C252.31 272.955 251.737 273.125 251.245 273.466C250.757 273.802 250.376 274.278 250.101 274.893C249.832 275.504 249.697 276.222 249.697 277.045C249.697 277.888 249.829 278.622 250.094 279.247C250.364 279.872 250.743 280.357 251.231 280.703C251.723 281.049 252.301 281.222 252.964 281.222C253.399 281.222 253.795 281.146 254.15 280.994C254.505 280.843 254.806 280.625 255.052 280.341C255.298 280.057 255.473 279.716 255.577 279.318H257.253C257.159 279.962 256.924 280.542 256.55 281.058C256.181 281.57 255.691 281.977 255.08 282.28C254.474 282.578 253.769 282.727 252.964 282.727ZM266.579 278.04V271.591H268.255V282.5H266.579V280.653H266.465C266.209 281.207 265.812 281.679 265.272 282.067C264.732 282.45 264.05 282.642 263.226 282.642C262.545 282.642 261.939 282.493 261.408 282.195C260.878 281.892 260.461 281.437 260.158 280.831C259.855 280.22 259.704 279.451 259.704 278.523V271.591H261.38V278.409C261.38 279.205 261.602 279.839 262.047 280.312C262.497 280.786 263.07 281.023 263.766 281.023C264.183 281.023 264.607 280.916 265.038 280.703C265.473 280.49 265.838 280.163 266.131 279.723C266.43 279.283 266.579 278.722 266.579 278.04ZM279.052 274.034L277.546 274.46C277.452 274.209 277.312 273.965 277.127 273.729C276.947 273.487 276.701 273.288 276.389 273.132C276.076 272.976 275.676 272.898 275.188 272.898C274.521 272.898 273.965 273.052 273.519 273.359C273.079 273.662 272.859 274.048 272.859 274.517C272.859 274.934 273.01 275.263 273.313 275.504C273.617 275.746 274.09 275.947 274.734 276.108L276.353 276.506C277.329 276.742 278.055 277.105 278.534 277.592C279.012 278.075 279.251 278.698 279.251 279.46C279.251 280.085 279.071 280.644 278.711 281.136C278.356 281.629 277.859 282.017 277.22 282.301C276.581 282.585 275.837 282.727 274.99 282.727C273.877 282.727 272.956 282.486 272.227 282.003C271.498 281.52 271.036 280.814 270.842 279.886L272.433 279.489C272.584 280.076 272.871 280.516 273.292 280.81C273.718 281.103 274.275 281.25 274.961 281.25C275.742 281.25 276.363 281.084 276.822 280.753C277.286 280.417 277.518 280.014 277.518 279.545C277.518 279.167 277.385 278.849 277.12 278.594C276.855 278.333 276.448 278.139 275.899 278.011L274.081 277.585C273.081 277.348 272.348 276.982 271.879 276.484C271.415 275.982 271.183 275.355 271.183 274.602C271.183 273.987 271.356 273.442 271.701 272.969C272.052 272.495 272.527 272.124 273.129 271.854C273.735 271.584 274.421 271.449 275.188 271.449C276.268 271.449 277.116 271.686 277.731 272.159C278.351 272.633 278.792 273.258 279.052 274.034ZM286.518 271.591V273.011H280.865V271.591H286.518ZM282.513 268.977H284.189V279.375C284.189 279.848 284.257 280.204 284.395 280.44C284.537 280.672 284.717 280.829 284.935 280.909C285.157 280.985 285.391 281.023 285.638 281.023C285.822 281.023 285.974 281.013 286.092 280.994C286.211 280.971 286.305 280.952 286.376 280.938L286.717 282.443C286.604 282.486 286.445 282.528 286.241 282.571C286.038 282.618 285.78 282.642 285.467 282.642C284.994 282.642 284.53 282.54 284.075 282.337C283.625 282.133 283.251 281.823 282.953 281.406C282.659 280.99 282.513 280.464 282.513 279.83V268.977ZM293.354 282.727C292.369 282.727 291.505 282.493 290.762 282.024C290.023 281.555 289.446 280.9 289.029 280.057C288.617 279.214 288.411 278.229 288.411 277.102C288.411 275.966 288.617 274.974 289.029 274.126C289.446 273.279 290.023 272.621 290.762 272.152C291.505 271.683 292.369 271.449 293.354 271.449C294.339 271.449 295.201 271.683 295.94 272.152C296.683 272.621 297.261 273.279 297.672 274.126C298.089 274.974 298.297 275.966 298.297 277.102C298.297 278.229 298.089 279.214 297.672 280.057C297.261 280.9 296.683 281.555 295.94 282.024C295.201 282.493 294.339 282.727 293.354 282.727ZM293.354 281.222C294.102 281.222 294.718 281.03 295.201 280.646C295.684 280.263 296.041 279.759 296.273 279.134C296.505 278.509 296.621 277.831 296.621 277.102C296.621 276.373 296.505 275.694 296.273 275.064C296.041 274.434 295.684 273.925 295.201 273.537C294.718 273.149 294.102 272.955 293.354 272.955C292.606 272.955 291.991 273.149 291.508 273.537C291.025 273.925 290.667 274.434 290.435 275.064C290.203 275.694 290.087 276.373 290.087 277.102C290.087 277.831 290.203 278.509 290.435 279.134C290.667 279.759 291.025 280.263 291.508 280.646C291.991 281.03 292.606 281.222 293.354 281.222ZM300.856 282.5V271.591H302.475V273.295H302.617C302.845 272.713 303.212 272.261 303.718 271.939C304.225 271.612 304.833 271.449 305.544 271.449C306.263 271.449 306.862 271.612 307.34 271.939C307.823 272.261 308.2 272.713 308.47 273.295H308.583C308.863 272.732 309.282 272.285 309.84 271.953C310.399 271.617 311.069 271.449 311.85 271.449C312.826 271.449 313.624 271.754 314.244 272.365C314.864 272.971 315.174 273.916 315.174 275.199V282.5H313.498V275.199C313.498 274.394 313.278 273.819 312.838 273.473C312.397 273.127 311.879 272.955 311.282 272.955C310.515 272.955 309.921 273.187 309.5 273.651C309.078 274.11 308.867 274.692 308.867 275.398V282.5H307.163V275.028C307.163 274.408 306.962 273.909 306.559 273.53C306.157 273.146 305.638 272.955 305.004 272.955C304.568 272.955 304.161 273.071 303.782 273.303C303.408 273.535 303.105 273.857 302.873 274.268C302.646 274.676 302.532 275.147 302.532 275.682V282.5H300.856ZM322.813 282.727C321.762 282.727 320.855 282.495 320.093 282.031C319.335 281.562 318.75 280.909 318.338 280.071C317.931 279.228 317.728 278.248 317.728 277.131C317.728 276.013 317.931 275.028 318.338 274.176C318.75 273.319 319.323 272.652 320.057 272.173C320.796 271.69 321.657 271.449 322.642 271.449C323.21 271.449 323.772 271.544 324.326 271.733C324.88 271.922 325.384 272.23 325.838 272.656C326.293 273.078 326.655 273.636 326.925 274.332C327.195 275.028 327.33 275.885 327.33 276.903V277.614H318.921V276.165H325.625C325.625 275.549 325.502 275 325.256 274.517C325.014 274.034 324.669 273.653 324.219 273.374C323.774 273.094 323.248 272.955 322.642 272.955C321.975 272.955 321.397 273.12 320.909 273.452C320.426 273.778 320.055 274.205 319.794 274.73C319.534 275.256 319.404 275.819 319.404 276.42V277.386C319.404 278.21 319.546 278.909 319.83 279.482C320.119 280.05 320.519 280.483 321.03 280.781C321.541 281.075 322.136 281.222 322.813 281.222C323.253 281.222 323.651 281.16 324.006 281.037C324.366 280.909 324.676 280.72 324.936 280.469C325.197 280.213 325.398 279.896 325.54 279.517L327.159 279.972C326.989 280.521 326.702 281.004 326.3 281.42C325.898 281.832 325.4 282.154 324.808 282.386C324.217 282.614 323.551 282.727 322.813 282.727ZM329.88 282.5V271.591H331.499V273.239H331.612C331.811 272.699 332.171 272.261 332.692 271.925C333.213 271.589 333.8 271.42 334.453 271.42C334.576 271.42 334.73 271.423 334.915 271.428C335.1 271.432 335.239 271.439 335.334 271.449V273.153C335.277 273.139 335.147 273.118 334.943 273.089C334.745 273.056 334.534 273.04 334.311 273.04C333.781 273.04 333.308 273.151 332.891 273.374C332.479 273.591 332.152 273.894 331.911 274.283C331.674 274.666 331.556 275.104 331.556 275.597V282.5H329.88ZM345.048 274.034L343.543 274.46C343.448 274.209 343.308 273.965 343.123 273.729C342.944 273.487 342.697 273.288 342.385 273.132C342.072 272.976 341.672 272.898 341.185 272.898C340.517 272.898 339.961 273.052 339.516 273.359C339.075 273.662 338.855 274.048 338.855 274.517C338.855 274.934 339.007 275.263 339.31 275.504C339.613 275.746 340.086 275.947 340.73 276.108L342.349 276.506C343.325 276.742 344.052 277.105 344.53 277.592C345.008 278.075 345.247 278.698 345.247 279.46C345.247 280.085 345.067 280.644 344.707 281.136C344.352 281.629 343.855 282.017 343.216 282.301C342.577 282.585 341.833 282.727 340.986 282.727C339.873 282.727 338.952 282.486 338.223 282.003C337.494 281.52 337.032 280.814 336.838 279.886L338.429 279.489C338.58 280.076 338.867 280.516 339.288 280.81C339.714 281.103 340.271 281.25 340.957 281.25C341.739 281.25 342.359 281.084 342.818 280.753C343.282 280.417 343.514 280.014 343.514 279.545C343.514 279.167 343.382 278.849 343.116 278.594C342.851 278.333 342.444 278.139 341.895 278.011L340.077 277.585C339.078 277.348 338.344 276.982 337.875 276.484C337.411 275.982 337.179 275.355 337.179 274.602C337.179 273.987 337.352 273.442 337.697 272.969C338.048 272.495 338.524 272.124 339.125 271.854C339.731 271.584 340.418 271.449 341.185 271.449C342.264 271.449 343.112 271.686 343.727 272.159C344.347 272.633 344.788 273.258 345.048 274.034ZM179.941 298.034L178.435 298.46C178.34 298.209 178.201 297.965 178.016 297.729C177.836 297.487 177.59 297.288 177.277 297.132C176.965 296.976 176.565 296.898 176.077 296.898C175.41 296.898 174.853 297.052 174.408 297.359C173.968 297.662 173.748 298.048 173.748 298.517C173.748 298.934 173.899 299.263 174.202 299.504C174.505 299.746 174.979 299.947 175.623 300.108L177.242 300.506C178.217 300.742 178.944 301.105 179.422 301.592C179.901 302.075 180.14 302.698 180.14 303.46C180.14 304.085 179.96 304.644 179.6 305.136C179.245 305.629 178.748 306.017 178.108 306.301C177.469 306.585 176.726 306.727 175.878 306.727C174.766 306.727 173.845 306.486 173.116 306.003C172.386 305.52 171.925 304.814 171.731 303.886L173.321 303.489C173.473 304.076 173.759 304.516 174.181 304.81C174.607 305.103 175.163 305.25 175.85 305.25C176.631 305.25 177.251 305.084 177.711 304.753C178.175 304.417 178.407 304.014 178.407 303.545C178.407 303.167 178.274 302.849 178.009 302.594C177.744 302.333 177.337 302.139 176.787 302.011L174.969 301.585C173.97 301.348 173.236 300.982 172.767 300.484C172.303 299.982 172.071 299.355 172.071 298.602C172.071 297.987 172.244 297.442 172.59 296.969C172.94 296.495 173.416 296.124 174.017 295.854C174.624 295.584 175.31 295.449 176.077 295.449C177.157 295.449 178.004 295.686 178.62 296.159C179.24 296.633 179.68 297.258 179.941 298.034ZM185.873 306.756C185.182 306.756 184.554 306.625 183.991 306.365C183.427 306.1 182.98 305.719 182.649 305.222C182.317 304.72 182.151 304.114 182.151 303.403C182.151 302.778 182.274 302.272 182.521 301.884C182.767 301.491 183.096 301.183 183.508 300.96C183.92 300.738 184.374 300.572 184.872 300.463C185.373 300.349 185.878 300.259 186.384 300.193C187.047 300.108 187.585 300.044 187.997 300.001C188.413 299.954 188.716 299.876 188.906 299.767C189.1 299.658 189.197 299.469 189.197 299.199V299.142C189.197 298.441 189.005 297.897 188.622 297.509C188.243 297.12 187.667 296.926 186.896 296.926C186.095 296.926 185.468 297.101 185.014 297.452C184.559 297.802 184.239 298.176 184.055 298.574L182.464 298.006C182.748 297.343 183.127 296.827 183.6 296.457C184.078 296.083 184.599 295.823 185.163 295.676C185.731 295.525 186.29 295.449 186.839 295.449C187.189 295.449 187.592 295.491 188.046 295.577C188.506 295.657 188.948 295.825 189.374 296.081C189.805 296.337 190.163 296.723 190.447 297.239C190.731 297.755 190.873 298.446 190.873 299.312V306.5H189.197V305.023H189.112C188.998 305.259 188.809 305.513 188.543 305.783C188.278 306.053 187.926 306.282 187.485 306.472C187.045 306.661 186.507 306.756 185.873 306.756ZM186.129 305.25C186.792 305.25 187.35 305.12 187.805 304.859C188.264 304.599 188.61 304.263 188.842 303.851C189.078 303.439 189.197 303.006 189.197 302.551V301.017C189.126 301.102 188.97 301.18 188.728 301.251C188.491 301.318 188.217 301.377 187.904 301.429C187.596 301.476 187.296 301.519 187.002 301.557C186.713 301.59 186.479 301.618 186.299 301.642C185.863 301.699 185.456 301.791 185.078 301.919C184.703 302.042 184.4 302.229 184.168 302.48C183.941 302.726 183.828 303.062 183.828 303.489C183.828 304.071 184.043 304.511 184.474 304.81C184.909 305.103 185.461 305.25 186.129 305.25ZM194.621 310.591C194.337 310.591 194.084 310.567 193.861 310.52C193.639 310.477 193.485 310.435 193.4 310.392L193.826 308.915C194.233 309.019 194.593 309.057 194.905 309.028C195.218 309 195.495 308.86 195.736 308.609C195.982 308.363 196.207 307.963 196.411 307.409L196.723 306.557L192.689 295.591H194.508L197.519 304.284H197.633L200.644 295.591H202.462L197.831 308.091C197.623 308.654 197.365 309.121 197.057 309.49C196.749 309.864 196.392 310.141 195.985 310.321C195.582 310.501 195.128 310.591 194.621 310.591ZM215.044 295.591V297.011H209.39V295.591H215.044ZM211.038 292.977H212.714V303.375C212.714 303.848 212.783 304.204 212.92 304.44C213.062 304.672 213.242 304.829 213.46 304.909C213.682 304.985 213.917 305.023 214.163 305.023C214.348 305.023 214.499 305.013 214.618 304.994C214.736 304.971 214.831 304.952 214.902 304.938L215.243 306.443C215.129 306.486 214.97 306.528 214.767 306.571C214.563 306.618 214.305 306.642 213.993 306.642C213.519 306.642 213.055 306.54 212.601 306.337C212.151 306.133 211.777 305.823 211.478 305.406C211.185 304.99 211.038 304.464 211.038 303.83V292.977ZM219.476 299.938V306.5H217.799V291.955H219.476V297.295H219.618C219.873 296.732 220.257 296.285 220.768 295.953C221.284 295.617 221.971 295.449 222.828 295.449C223.571 295.449 224.222 295.598 224.781 295.896C225.34 296.19 225.773 296.642 226.081 297.253C226.393 297.859 226.549 298.631 226.549 299.568V306.5H224.873V299.682C224.873 298.815 224.648 298.145 224.199 297.672C223.754 297.194 223.136 296.955 222.345 296.955C221.796 296.955 221.303 297.071 220.868 297.303C220.437 297.535 220.096 297.873 219.845 298.318C219.599 298.763 219.476 299.303 219.476 299.938ZM234.19 306.727C233.139 306.727 232.232 306.495 231.47 306.031C230.712 305.562 230.127 304.909 229.715 304.071C229.308 303.228 229.104 302.248 229.104 301.131C229.104 300.013 229.308 299.028 229.715 298.176C230.127 297.319 230.7 296.652 231.434 296.173C232.173 295.69 233.034 295.449 234.019 295.449C234.587 295.449 235.149 295.544 235.703 295.733C236.256 295.922 236.761 296.23 237.215 296.656C237.67 297.078 238.032 297.636 238.302 298.332C238.572 299.028 238.707 299.885 238.707 300.903V301.614H230.298V300.165H237.002C237.002 299.549 236.879 299 236.633 298.517C236.391 298.034 236.046 297.653 235.596 297.374C235.151 297.094 234.625 296.955 234.019 296.955C233.352 296.955 232.774 297.12 232.286 297.452C231.803 297.778 231.432 298.205 231.171 298.73C230.911 299.256 230.781 299.819 230.781 300.42V301.386C230.781 302.21 230.923 302.909 231.207 303.482C231.496 304.05 231.896 304.483 232.407 304.781C232.918 305.075 233.513 305.222 234.19 305.222C234.63 305.222 235.028 305.16 235.383 305.037C235.743 304.909 236.053 304.72 236.313 304.469C236.574 304.213 236.775 303.896 236.917 303.517L238.536 303.972C238.366 304.521 238.079 305.004 237.677 305.42C237.274 305.832 236.777 306.154 236.185 306.386C235.594 306.614 234.928 306.727 234.19 306.727ZM242.004 310.591C241.72 310.591 241.467 310.567 241.244 310.52C241.022 310.477 240.868 310.435 240.782 310.392L241.209 308.915C241.616 309.019 241.976 309.057 242.288 309.028C242.601 309 242.878 308.86 243.119 308.609C243.365 308.363 243.59 307.963 243.794 307.409L244.106 306.557L240.072 295.591H241.89L244.902 304.284H245.015L248.027 295.591H249.845L245.214 308.091C245.006 308.654 244.748 309.121 244.44 309.49C244.132 309.864 243.775 310.141 243.368 310.321C242.965 310.501 242.511 310.591 242.004 310.591ZM260.154 306.5L256.83 295.591H258.591L260.949 303.943H261.063L263.392 295.591H265.182L267.483 303.915H267.597L269.955 295.591H271.716L268.392 306.5H266.745L264.358 298.119H264.188L261.802 306.5H260.154ZM277.993 306.727C277.008 306.727 276.144 306.493 275.401 306.024C274.662 305.555 274.084 304.9 273.668 304.057C273.256 303.214 273.05 302.229 273.05 301.102C273.05 299.966 273.256 298.974 273.668 298.126C274.084 297.279 274.662 296.621 275.401 296.152C276.144 295.683 277.008 295.449 277.993 295.449C278.978 295.449 279.84 295.683 280.578 296.152C281.322 296.621 281.899 297.279 282.311 298.126C282.728 298.974 282.936 299.966 282.936 301.102C282.936 302.229 282.728 303.214 282.311 304.057C281.899 304.9 281.322 305.555 280.578 306.024C279.84 306.493 278.978 306.727 277.993 306.727ZM277.993 305.222C278.741 305.222 279.357 305.03 279.84 304.646C280.323 304.263 280.68 303.759 280.912 303.134C281.144 302.509 281.26 301.831 281.26 301.102C281.26 300.373 281.144 299.694 280.912 299.064C280.68 298.434 280.323 297.925 279.84 297.537C279.357 297.149 278.741 296.955 277.993 296.955C277.245 296.955 276.629 297.149 276.146 297.537C275.663 297.925 275.306 298.434 275.074 299.064C274.842 299.694 274.726 300.373 274.726 301.102C274.726 301.831 274.842 302.509 275.074 303.134C275.306 303.759 275.663 304.263 276.146 304.646C276.629 305.03 277.245 305.222 277.993 305.222ZM292.37 302.04V295.591H294.046V306.5H292.37V304.653H292.256C292 305.207 291.603 305.679 291.063 306.067C290.523 306.45 289.841 306.642 289.017 306.642C288.336 306.642 287.73 306.493 287.199 306.195C286.669 305.892 286.252 305.437 285.949 304.831C285.646 304.22 285.495 303.451 285.495 302.523V295.591H287.171V302.409C287.171 303.205 287.393 303.839 287.839 304.312C288.288 304.786 288.861 305.023 289.557 305.023C289.974 305.023 290.398 304.916 290.829 304.703C291.264 304.49 291.629 304.163 291.922 303.723C292.221 303.283 292.37 302.722 292.37 302.04ZM298.792 291.955V306.5H297.116V291.955H298.792ZM305.981 306.727C305.072 306.727 304.27 306.498 303.574 306.038C302.878 305.574 302.333 304.921 301.94 304.078C301.547 303.231 301.351 302.229 301.351 301.074C301.351 299.928 301.547 298.934 301.94 298.091C302.333 297.248 302.88 296.597 303.581 296.138C304.281 295.679 305.091 295.449 306.01 295.449C306.72 295.449 307.281 295.567 307.693 295.804C308.11 296.036 308.427 296.301 308.645 296.599C308.867 296.893 309.04 297.134 309.163 297.324H309.305V291.955H310.981V306.5H309.362V304.824H309.163C309.04 305.023 308.865 305.274 308.638 305.577C308.41 305.875 308.086 306.143 307.664 306.379C307.243 306.611 306.682 306.727 305.981 306.727ZM306.209 305.222C306.881 305.222 307.449 305.046 307.913 304.696C308.377 304.341 308.73 303.851 308.971 303.226C309.213 302.596 309.334 301.869 309.334 301.045C309.334 300.231 309.215 299.518 308.978 298.908C308.742 298.292 308.391 297.814 307.927 297.473C307.463 297.127 306.89 296.955 306.209 296.955C305.498 296.955 304.906 297.137 304.433 297.501C303.964 297.861 303.611 298.351 303.375 298.972C303.143 299.587 303.027 300.278 303.027 301.045C303.027 301.822 303.145 302.527 303.382 303.162C303.623 303.792 303.978 304.294 304.447 304.668C304.921 305.037 305.508 305.222 306.209 305.222ZM315.96 299.938V306.5H314.284V295.591H315.903V297.295H316.045C316.301 296.741 316.689 296.296 317.21 295.96C317.731 295.619 318.403 295.449 319.227 295.449C319.966 295.449 320.612 295.6 321.166 295.903C321.72 296.202 322.151 296.656 322.459 297.267C322.766 297.873 322.92 298.64 322.92 299.568V306.5H321.244V299.682C321.244 298.825 321.022 298.157 320.576 297.679C320.131 297.196 319.521 296.955 318.744 296.955C318.209 296.955 317.731 297.071 317.309 297.303C316.893 297.535 316.564 297.873 316.322 298.318C316.081 298.763 315.96 299.303 315.96 299.938ZM327.46 291.955V293.233C327.46 293.621 327.389 294.036 327.247 294.476C327.11 294.911 326.906 295.335 326.636 295.747C326.371 296.154 326.049 296.509 325.671 296.812L324.761 296.074C325.06 295.648 325.318 295.205 325.536 294.746C325.758 294.282 325.869 293.787 325.869 293.261V291.955H327.46ZM334.712 295.591V297.011H329.058V295.591H334.712ZM330.706 292.977H332.382V303.375C332.382 303.848 332.451 304.204 332.588 304.44C332.73 304.672 332.91 304.829 333.128 304.909C333.35 304.985 333.585 305.023 333.831 305.023C334.016 305.023 334.167 305.013 334.286 304.994C334.404 304.971 334.499 304.952 334.57 304.938L334.911 306.443C334.797 306.486 334.638 306.528 334.435 306.571C334.231 306.618 333.973 306.642 333.661 306.642C333.187 306.642 332.723 306.54 332.269 306.337C331.819 306.133 331.445 305.823 331.146 305.406C330.853 304.99 330.706 304.464 330.706 303.83V292.977ZM165.758 330.5V319.591H167.378V321.239H167.491C167.69 320.699 168.05 320.261 168.571 319.925C169.092 319.589 169.679 319.42 170.332 319.42C170.455 319.42 170.609 319.423 170.794 319.428C170.979 319.432 171.118 319.439 171.213 319.449V321.153C171.156 321.139 171.026 321.118 170.822 321.089C170.623 321.056 170.413 321.04 170.19 321.04C169.66 321.04 169.186 321.151 168.77 321.374C168.358 321.591 168.031 321.894 167.79 322.283C167.553 322.666 167.435 323.104 167.435 323.597V330.5H165.758ZM177.442 330.727C176.391 330.727 175.484 330.495 174.722 330.031C173.964 329.562 173.379 328.909 172.967 328.071C172.56 327.228 172.356 326.248 172.356 325.131C172.356 324.013 172.56 323.028 172.967 322.176C173.379 321.319 173.952 320.652 174.686 320.173C175.425 319.69 176.286 319.449 177.271 319.449C177.839 319.449 178.4 319.544 178.954 319.733C179.508 319.922 180.013 320.23 180.467 320.656C180.922 321.078 181.284 321.636 181.554 322.332C181.824 323.028 181.959 323.885 181.959 324.903V325.614H173.55V324.165H180.254C180.254 323.549 180.131 323 179.885 322.517C179.643 322.034 179.298 321.653 178.848 321.374C178.403 321.094 177.877 320.955 177.271 320.955C176.604 320.955 176.026 321.12 175.538 321.452C175.055 321.778 174.684 322.205 174.423 322.73C174.163 323.256 174.033 323.819 174.033 324.42V325.386C174.033 326.21 174.175 326.909 174.459 327.482C174.748 328.05 175.148 328.483 175.659 328.781C176.17 329.075 176.765 329.222 177.442 329.222C177.882 329.222 178.28 329.16 178.635 329.037C178.995 328.909 179.305 328.72 179.565 328.469C179.826 328.213 180.027 327.896 180.169 327.517L181.788 327.972C181.618 328.521 181.331 329.004 180.929 329.42C180.526 329.832 180.029 330.154 179.437 330.386C178.846 330.614 178.18 330.727 177.442 330.727ZM189.253 319.591V321.011H183.599V319.591H189.253ZM185.247 316.977H186.923V327.375C186.923 327.848 186.992 328.204 187.129 328.44C187.271 328.672 187.451 328.829 187.669 328.909C187.891 328.985 188.126 329.023 188.372 329.023C188.557 329.023 188.708 329.013 188.827 328.994C188.945 328.971 189.04 328.952 189.111 328.938L189.452 330.443C189.338 330.486 189.179 330.528 188.976 330.571C188.772 330.618 188.514 330.642 188.202 330.642C187.728 330.642 187.264 330.54 186.81 330.337C186.36 330.133 185.986 329.823 185.687 329.406C185.394 328.99 185.247 328.464 185.247 327.83V316.977ZM198.649 326.04V319.591H200.325V330.5H198.649V328.653H198.535C198.28 329.207 197.882 329.679 197.342 330.067C196.802 330.45 196.121 330.642 195.297 330.642C194.615 330.642 194.009 330.493 193.479 330.195C192.948 329.892 192.532 329.437 192.229 328.831C191.926 328.22 191.774 327.451 191.774 326.523V319.591H193.45V326.409C193.45 327.205 193.673 327.839 194.118 328.312C194.568 328.786 195.141 329.023 195.837 329.023C196.253 329.023 196.677 328.916 197.108 328.703C197.543 328.49 197.908 328.163 198.202 327.723C198.5 327.283 198.649 326.722 198.649 326.04ZM203.395 330.5V319.591H205.014V321.239H205.128C205.327 320.699 205.687 320.261 206.208 319.925C206.728 319.589 207.316 319.42 207.969 319.42C208.092 319.42 208.246 319.423 208.431 319.428C208.615 319.432 208.755 319.439 208.85 319.449V321.153C208.793 321.139 208.663 321.118 208.459 321.089C208.26 321.056 208.05 321.04 207.827 321.04C207.297 321.04 206.823 321.151 206.407 321.374C205.995 321.591 205.668 321.894 205.426 322.283C205.19 322.666 205.071 323.104 205.071 323.597V330.5H203.395ZM212.513 323.938V330.5H210.837V319.591H212.456V321.295H212.598C212.854 320.741 213.242 320.296 213.763 319.96C214.284 319.619 214.956 319.449 215.78 319.449C216.518 319.449 217.165 319.6 217.719 319.903C218.273 320.202 218.704 320.656 219.011 321.267C219.319 321.873 219.473 322.64 219.473 323.568V330.5H217.797V323.682C217.797 322.825 217.574 322.157 217.129 321.679C216.684 321.196 216.073 320.955 215.297 320.955C214.762 320.955 214.284 321.071 213.862 321.303C213.445 321.535 213.116 321.873 212.875 322.318C212.633 322.763 212.513 323.303 212.513 323.938ZM232.905 319.591V321.011H227.252V319.591H232.905ZM228.899 316.977H230.576V327.375C230.576 327.848 230.644 328.204 230.782 328.44C230.924 328.672 231.103 328.829 231.321 328.909C231.544 328.985 231.778 329.023 232.024 329.023C232.209 329.023 232.361 329.013 232.479 328.994C232.597 328.971 232.692 328.952 232.763 328.938L233.104 330.443C232.99 330.486 232.832 330.528 232.628 330.571C232.425 330.618 232.166 330.642 231.854 330.642C231.38 330.642 230.916 330.54 230.462 330.337C230.012 330.133 229.638 329.823 229.34 329.406C229.046 328.99 228.899 328.464 228.899 327.83V316.977ZM239.741 330.727C238.756 330.727 237.892 330.493 237.149 330.024C236.41 329.555 235.832 328.9 235.416 328.057C235.004 327.214 234.798 326.229 234.798 325.102C234.798 323.966 235.004 322.974 235.416 322.126C235.832 321.279 236.41 320.621 237.149 320.152C237.892 319.683 238.756 319.449 239.741 319.449C240.726 319.449 241.588 319.683 242.326 320.152C243.07 320.621 243.647 321.279 244.059 322.126C244.476 322.974 244.684 323.966 244.684 325.102C244.684 326.229 244.476 327.214 244.059 328.057C243.647 328.9 243.07 329.555 242.326 330.024C241.588 330.493 240.726 330.727 239.741 330.727ZM239.741 329.222C240.489 329.222 241.105 329.03 241.588 328.646C242.071 328.263 242.428 327.759 242.66 327.134C242.892 326.509 243.008 325.831 243.008 325.102C243.008 324.373 242.892 323.694 242.66 323.064C242.428 322.434 242.071 321.925 241.588 321.537C241.105 321.149 240.489 320.955 239.741 320.955C238.993 320.955 238.377 321.149 237.894 321.537C237.411 321.925 237.054 322.434 236.822 323.064C236.59 323.694 236.474 324.373 236.474 325.102C236.474 325.831 236.59 326.509 236.822 327.134C237.054 327.759 237.411 328.263 237.894 328.646C238.377 329.03 238.993 329.222 239.741 329.222ZM256.078 330.756C255.387 330.756 254.759 330.625 254.196 330.365C253.632 330.1 253.185 329.719 252.854 329.222C252.522 328.72 252.356 328.114 252.356 327.403C252.356 326.778 252.48 326.272 252.726 325.884C252.972 325.491 253.301 325.183 253.713 324.96C254.125 324.738 254.579 324.572 255.077 324.463C255.579 324.349 256.083 324.259 256.589 324.193C257.252 324.108 257.79 324.044 258.202 324.001C258.618 323.954 258.921 323.876 259.111 323.767C259.305 323.658 259.402 323.469 259.402 323.199V323.142C259.402 322.441 259.21 321.897 258.827 321.509C258.448 321.12 257.873 320.926 257.101 320.926C256.301 320.926 255.673 321.101 255.219 321.452C254.764 321.802 254.445 322.176 254.26 322.574L252.669 322.006C252.953 321.343 253.332 320.827 253.805 320.457C254.284 320.083 254.804 319.823 255.368 319.676C255.936 319.525 256.495 319.449 257.044 319.449C257.394 319.449 257.797 319.491 258.251 319.577C258.711 319.657 259.153 319.825 259.579 320.081C260.01 320.337 260.368 320.723 260.652 321.239C260.936 321.755 261.078 322.446 261.078 323.312V330.5H259.402V329.023H259.317C259.203 329.259 259.014 329.513 258.748 329.783C258.483 330.053 258.131 330.282 257.69 330.472C257.25 330.661 256.713 330.756 256.078 330.756ZM256.334 329.25C256.997 329.25 257.555 329.12 258.01 328.859C258.469 328.599 258.815 328.263 259.047 327.851C259.284 327.439 259.402 327.006 259.402 326.551V325.017C259.331 325.102 259.175 325.18 258.933 325.251C258.696 325.318 258.422 325.377 258.109 325.429C257.802 325.476 257.501 325.519 257.207 325.557C256.918 325.59 256.684 325.618 256.504 325.642C256.069 325.699 255.661 325.791 255.283 325.919C254.909 326.042 254.605 326.229 254.373 326.48C254.146 326.726 254.033 327.062 254.033 327.489C254.033 328.071 254.248 328.511 254.679 328.81C255.114 329.103 255.666 329.25 256.334 329.25ZM272.234 330.5L268.91 319.591H270.671L273.029 327.943H273.143L275.473 319.591H277.262L279.563 327.915H279.677L282.035 319.591H283.796L280.473 330.5H278.825L276.438 322.119H276.268L273.882 330.5H272.234ZM290.215 330.727C289.164 330.727 288.257 330.495 287.495 330.031C286.737 329.562 286.153 328.909 285.741 328.071C285.333 327.228 285.13 326.248 285.13 325.131C285.13 324.013 285.333 323.028 285.741 322.176C286.153 321.319 286.726 320.652 287.459 320.173C288.198 319.69 289.06 319.449 290.045 319.449C290.613 319.449 291.174 319.544 291.728 319.733C292.282 319.922 292.786 320.23 293.241 320.656C293.695 321.078 294.057 321.636 294.327 322.332C294.597 323.028 294.732 323.885 294.732 324.903V325.614H286.323V324.165H293.028C293.028 323.549 292.904 323 292.658 322.517C292.417 322.034 292.071 321.653 291.621 321.374C291.176 321.094 290.651 320.955 290.045 320.955C289.377 320.955 288.799 321.12 288.312 321.452C287.829 321.778 287.457 322.205 287.197 322.73C286.936 323.256 286.806 323.819 286.806 324.42V325.386C286.806 326.21 286.948 326.909 287.232 327.482C287.521 328.05 287.921 328.483 288.432 328.781C288.944 329.075 289.538 329.222 290.215 329.222C290.655 329.222 291.053 329.16 291.408 329.037C291.768 328.909 292.078 328.72 292.339 328.469C292.599 328.213 292.8 327.896 292.942 327.517L294.562 327.972C294.391 328.521 294.105 329.004 293.702 329.42C293.3 329.832 292.803 330.154 292.211 330.386C291.619 330.614 290.954 330.727 290.215 330.727ZM297.509 330.5V315.955H299.185V321.324H299.327C299.45 321.134 299.621 320.893 299.839 320.599C300.061 320.301 300.378 320.036 300.79 319.804C301.207 319.567 301.77 319.449 302.481 319.449C303.399 319.449 304.209 319.679 304.91 320.138C305.61 320.597 306.157 321.248 306.55 322.091C306.943 322.934 307.14 323.928 307.14 325.074C307.14 326.229 306.943 327.231 306.55 328.078C306.157 328.921 305.613 329.574 304.917 330.038C304.221 330.498 303.418 330.727 302.509 330.727C301.808 330.727 301.247 330.611 300.826 330.379C300.404 330.143 300.08 329.875 299.853 329.577C299.626 329.274 299.45 329.023 299.327 328.824H299.128V330.5H297.509ZM299.157 325.045C299.157 325.869 299.278 326.596 299.519 327.226C299.761 327.851 300.113 328.341 300.577 328.696C301.041 329.046 301.61 329.222 302.282 329.222C302.983 329.222 303.567 329.037 304.036 328.668C304.51 328.294 304.865 327.792 305.101 327.162C305.343 326.527 305.464 325.822 305.464 325.045C305.464 324.278 305.345 323.587 305.109 322.972C304.877 322.351 304.524 321.861 304.05 321.501C303.582 321.137 302.992 320.955 302.282 320.955C301.6 320.955 301.027 321.127 300.563 321.473C300.099 321.814 299.749 322.292 299.512 322.908C299.275 323.518 299.157 324.231 299.157 325.045ZM317.431 322.034L315.925 322.46C315.831 322.209 315.691 321.965 315.506 321.729C315.326 321.487 315.08 321.288 314.768 321.132C314.455 320.976 314.055 320.898 313.567 320.898C312.9 320.898 312.343 321.052 311.898 321.359C311.458 321.662 311.238 322.048 311.238 322.517C311.238 322.934 311.389 323.263 311.692 323.504C311.995 323.746 312.469 323.947 313.113 324.108L314.732 324.506C315.708 324.742 316.434 325.105 316.913 325.592C317.391 326.075 317.63 326.698 317.63 327.46C317.63 328.085 317.45 328.644 317.09 329.136C316.735 329.629 316.238 330.017 315.599 330.301C314.959 330.585 314.216 330.727 313.369 330.727C312.256 330.727 311.335 330.486 310.606 330.003C309.877 329.52 309.415 328.814 309.221 327.886L310.812 327.489C310.963 328.076 311.25 328.516 311.671 328.81C312.097 329.103 312.654 329.25 313.34 329.25C314.121 329.25 314.742 329.084 315.201 328.753C315.665 328.417 315.897 328.014 315.897 327.545C315.897 327.167 315.764 326.849 315.499 326.594C315.234 326.333 314.827 326.139 314.278 326.011L312.459 325.585C311.46 325.348 310.726 324.982 310.258 324.484C309.794 323.982 309.562 323.355 309.562 322.602C309.562 321.987 309.735 321.442 310.08 320.969C310.431 320.495 310.906 320.124 311.508 319.854C312.114 319.584 312.8 319.449 313.567 319.449C314.647 319.449 315.494 319.686 316.11 320.159C316.73 320.633 317.171 321.258 317.431 322.034ZM320.153 330.5V319.591H321.829V330.5H320.153ZM321.005 317.773C320.679 317.773 320.397 317.661 320.16 317.439C319.928 317.216 319.812 316.949 319.812 316.636C319.812 316.324 319.928 316.056 320.16 315.834C320.397 315.611 320.679 315.5 321.005 315.5C321.332 315.5 321.611 315.611 321.843 315.834C322.08 316.056 322.198 316.324 322.198 316.636C322.198 316.949 322.08 317.216 321.843 317.439C321.611 317.661 321.332 317.773 321.005 317.773ZM329.643 319.591V321.011H323.99V319.591H329.643ZM325.638 316.977H327.314V327.375C327.314 327.848 327.382 328.204 327.52 328.44C327.662 328.672 327.842 328.829 328.06 328.909C328.282 328.985 328.516 329.023 328.763 329.023C328.947 329.023 329.099 329.013 329.217 328.994C329.336 328.971 329.43 328.952 329.501 328.938L329.842 330.443C329.729 330.486 329.57 330.528 329.366 330.571C329.163 330.618 328.905 330.642 328.592 330.642C328.119 330.642 327.655 330.54 327.2 330.337C326.75 330.133 326.376 329.823 326.078 329.406C325.784 328.99 325.638 328.464 325.638 327.83V316.977ZM336.621 330.727C335.57 330.727 334.663 330.495 333.901 330.031C333.144 329.562 332.559 328.909 332.147 328.071C331.74 327.228 331.536 326.248 331.536 325.131C331.536 324.013 331.74 323.028 332.147 322.176C332.559 321.319 333.132 320.652 333.866 320.173C334.604 319.69 335.466 319.449 336.451 319.449C337.019 319.449 337.58 319.544 338.134 319.733C338.688 319.922 339.192 320.23 339.647 320.656C340.101 321.078 340.464 321.636 340.734 322.332C341.003 323.028 341.138 323.885 341.138 324.903V325.614H332.729V324.165H339.434C339.434 323.549 339.311 323 339.065 322.517C338.823 322.034 338.477 321.653 338.028 321.374C337.583 321.094 337.057 320.955 336.451 320.955C335.783 320.955 335.206 321.12 334.718 321.452C334.235 321.778 333.863 322.205 333.603 322.73C333.342 323.256 333.212 323.819 333.212 324.42V325.386C333.212 326.21 333.354 326.909 333.638 327.482C333.927 328.05 334.327 328.483 334.839 328.781C335.35 329.075 335.944 329.222 336.621 329.222C337.062 329.222 337.459 329.16 337.815 329.037C338.174 328.909 338.485 328.72 338.745 328.469C339.005 328.213 339.207 327.896 339.349 327.517L340.968 327.972C340.797 328.521 340.511 329.004 340.109 329.42C339.706 329.832 339.209 330.154 338.617 330.386C338.025 330.614 337.36 330.727 336.621 330.727ZM148.832 354.756C148.141 354.756 147.513 354.625 146.95 354.365C146.386 354.1 145.939 353.719 145.608 353.222C145.276 352.72 145.11 352.114 145.11 351.403C145.11 350.778 145.233 350.272 145.48 349.884C145.726 349.491 146.055 349.183 146.467 348.96C146.879 348.738 147.333 348.572 147.831 348.463C148.332 348.349 148.837 348.259 149.343 348.193C150.006 348.108 150.544 348.044 150.956 348.001C151.372 347.954 151.675 347.876 151.865 347.767C152.059 347.658 152.156 347.469 152.156 347.199V347.142C152.156 346.441 151.964 345.897 151.581 345.509C151.202 345.12 150.626 344.926 149.855 344.926C149.054 344.926 148.427 345.101 147.973 345.452C147.518 345.802 147.198 346.176 147.014 346.574L145.423 346.006C145.707 345.343 146.086 344.827 146.559 344.457C147.037 344.083 147.558 343.823 148.122 343.676C148.69 343.525 149.249 343.449 149.798 343.449C150.148 343.449 150.551 343.491 151.005 343.577C151.465 343.657 151.907 343.825 152.333 344.081C152.764 344.337 153.122 344.723 153.406 345.239C153.69 345.755 153.832 346.446 153.832 347.312V354.5H152.156V353.023H152.071C151.957 353.259 151.768 353.513 151.502 353.783C151.237 354.053 150.884 354.282 150.444 354.472C150.004 354.661 149.466 354.756 148.832 354.756ZM149.088 353.25C149.751 353.25 150.309 353.12 150.764 352.859C151.223 352.599 151.569 352.263 151.801 351.851C152.037 351.439 152.156 351.006 152.156 350.551V349.017C152.085 349.102 151.929 349.18 151.687 349.251C151.45 349.318 151.176 349.377 150.863 349.429C150.555 349.476 150.255 349.519 149.961 349.557C149.672 349.59 149.438 349.618 149.258 349.642C148.822 349.699 148.415 349.791 148.036 349.919C147.662 350.042 147.359 350.229 147.127 350.48C146.9 350.726 146.786 351.062 146.786 351.489C146.786 352.071 147.002 352.511 147.433 352.81C147.868 353.103 148.42 353.25 149.088 353.25ZM161.749 343.591V345.011H155.869V343.591H161.749ZM157.63 354.5V342.085C157.63 341.46 157.777 340.939 158.07 340.523C158.364 340.106 158.745 339.794 159.214 339.585C159.682 339.377 160.177 339.273 160.698 339.273C161.11 339.273 161.446 339.306 161.707 339.372C161.967 339.438 162.161 339.5 162.289 339.557L161.806 341.006C161.721 340.977 161.602 340.942 161.451 340.899C161.304 340.857 161.11 340.835 160.869 340.835C160.315 340.835 159.914 340.975 159.668 341.254C159.427 341.534 159.306 341.943 159.306 342.483V354.5H157.63ZM168.843 343.591V345.011H163.189V343.591H168.843ZM164.837 340.977H166.513V351.375C166.513 351.848 166.582 352.204 166.719 352.44C166.861 352.672 167.041 352.829 167.259 352.909C167.481 352.985 167.716 353.023 167.962 353.023C168.147 353.023 168.298 353.013 168.416 352.994C168.535 352.971 168.63 352.952 168.701 352.938L169.041 354.443C168.928 354.486 168.769 354.528 168.566 354.571C168.362 354.618 168.104 354.642 167.791 354.642C167.318 354.642 166.854 354.54 166.399 354.337C165.95 354.133 165.576 353.823 165.277 353.406C164.984 352.99 164.837 352.464 164.837 351.83V340.977ZM175.821 354.727C174.769 354.727 173.863 354.495 173.1 354.031C172.343 353.562 171.758 352.909 171.346 352.071C170.939 351.228 170.735 350.248 170.735 349.131C170.735 348.013 170.939 347.028 171.346 346.176C171.758 345.319 172.331 344.652 173.065 344.173C173.804 343.69 174.665 343.449 175.65 343.449C176.218 343.449 176.779 343.544 177.333 343.733C177.887 343.922 178.392 344.23 178.846 344.656C179.301 345.078 179.663 345.636 179.933 346.332C180.203 347.028 180.338 347.885 180.338 348.903V349.614H171.929V348.165H178.633C178.633 347.549 178.51 347 178.264 346.517C178.022 346.034 177.677 345.653 177.227 345.374C176.782 345.094 176.256 344.955 175.65 344.955C174.983 344.955 174.405 345.12 173.917 345.452C173.434 345.778 173.063 346.205 172.802 346.73C172.542 347.256 172.411 347.819 172.411 348.42V349.386C172.411 350.21 172.554 350.909 172.838 351.482C173.126 352.05 173.527 352.483 174.038 352.781C174.549 353.075 175.143 353.222 175.821 353.222C176.261 353.222 176.659 353.16 177.014 353.037C177.374 352.909 177.684 352.72 177.944 352.469C178.205 352.213 178.406 351.896 178.548 351.517L180.167 351.972C179.997 352.521 179.71 353.004 179.308 353.42C178.905 353.832 178.408 354.154 177.816 354.386C177.224 354.614 176.559 354.727 175.821 354.727ZM182.887 354.5V343.591H184.507V345.239H184.62C184.819 344.699 185.179 344.261 185.7 343.925C186.221 343.589 186.808 343.42 187.461 343.42C187.584 343.42 187.738 343.423 187.923 343.428C188.108 343.432 188.247 343.439 188.342 343.449V345.153C188.285 345.139 188.155 345.118 187.951 345.089C187.752 345.056 187.542 345.04 187.319 345.04C186.789 345.04 186.315 345.151 185.899 345.374C185.487 345.591 185.16 345.894 184.919 346.283C184.682 346.666 184.563 347.104 184.563 347.597V354.5H182.887ZM197.63 347.938V354.5H195.954V339.955H197.63V345.295H197.772C198.028 344.732 198.411 344.285 198.922 343.953C199.439 343.617 200.125 343.449 200.982 343.449C201.726 343.449 202.377 343.598 202.935 343.896C203.494 344.19 203.927 344.642 204.235 345.253C204.547 345.859 204.704 346.631 204.704 347.568V354.5H203.028V347.682C203.028 346.815 202.803 346.145 202.353 345.672C201.908 345.194 201.29 344.955 200.499 344.955C199.95 344.955 199.458 345.071 199.022 345.303C198.591 345.535 198.25 345.873 197.999 346.318C197.753 346.763 197.63 347.303 197.63 347.938ZM210.98 354.756C210.289 354.756 209.662 354.625 209.098 354.365C208.535 354.1 208.087 353.719 207.756 353.222C207.425 352.72 207.259 352.114 207.259 351.403C207.259 350.778 207.382 350.272 207.628 349.884C207.874 349.491 208.203 349.183 208.615 348.96C209.027 348.738 209.482 348.572 209.979 348.463C210.481 348.349 210.985 348.259 211.492 348.193C212.155 348.108 212.692 348.044 213.104 348.001C213.521 347.954 213.824 347.876 214.013 347.767C214.207 347.658 214.304 347.469 214.304 347.199V347.142C214.304 346.441 214.112 345.897 213.729 345.509C213.35 345.12 212.775 344.926 212.003 344.926C211.203 344.926 210.576 345.101 210.121 345.452C209.666 345.802 209.347 346.176 209.162 346.574L207.571 346.006C207.855 345.343 208.234 344.827 208.708 344.457C209.186 344.083 209.707 343.823 210.27 343.676C210.838 343.525 211.397 343.449 211.946 343.449C212.297 343.449 212.699 343.491 213.154 343.577C213.613 343.657 214.056 343.825 214.482 344.081C214.913 344.337 215.27 344.723 215.554 345.239C215.838 345.755 215.98 346.446 215.98 347.312V354.5H214.304V353.023H214.219C214.105 353.259 213.916 353.513 213.651 353.783C213.386 354.053 213.033 354.282 212.593 354.472C212.152 354.661 211.615 354.756 210.98 354.756ZM211.236 353.25C211.899 353.25 212.458 353.12 212.912 352.859C213.371 352.599 213.717 352.263 213.949 351.851C214.186 351.439 214.304 351.006 214.304 350.551V349.017C214.233 349.102 214.077 349.18 213.835 349.251C213.599 349.318 213.324 349.377 213.012 349.429C212.704 349.476 212.403 349.519 212.11 349.557C211.821 349.59 211.586 349.618 211.407 349.642C210.971 349.699 210.564 349.791 210.185 349.919C209.811 350.042 209.508 350.229 209.276 350.48C209.049 350.726 208.935 351.062 208.935 351.489C208.935 352.071 209.15 352.511 209.581 352.81C210.017 353.103 210.568 353.25 211.236 353.25ZM227.57 343.591L223.535 354.5H221.831L217.797 343.591H219.615L222.626 352.284H222.74L225.751 343.591H227.57ZM229.782 354.5V343.591H231.458V354.5H229.782ZM230.634 341.773C230.307 341.773 230.026 341.661 229.789 341.439C229.557 341.216 229.441 340.949 229.441 340.636C229.441 340.324 229.557 340.056 229.789 339.834C230.026 339.611 230.307 339.5 230.634 339.5C230.961 339.5 231.24 339.611 231.472 339.834C231.709 340.056 231.827 340.324 231.827 340.636C231.827 340.949 231.709 341.216 231.472 341.439C231.24 341.661 230.961 341.773 230.634 341.773ZM236.204 347.938V354.5H234.528V343.591H236.147V345.295H236.289C236.545 344.741 236.933 344.296 237.454 343.96C237.975 343.619 238.647 343.449 239.471 343.449C240.21 343.449 240.856 343.6 241.41 343.903C241.964 344.202 242.395 344.656 242.703 345.267C243.01 345.873 243.164 346.64 243.164 347.568V354.5H241.488V347.682C241.488 346.825 241.266 346.157 240.821 345.679C240.376 345.196 239.765 344.955 238.988 344.955C238.453 344.955 237.975 345.071 237.554 345.303C237.137 345.535 236.808 345.873 236.566 346.318C236.325 346.763 236.204 347.303 236.204 347.938ZM250.631 358.818C249.821 358.818 249.125 358.714 248.543 358.506C247.96 358.302 247.475 358.032 247.087 357.696C246.703 357.365 246.398 357.009 246.17 356.631L247.506 355.693C247.657 355.892 247.849 356.119 248.081 356.375C248.313 356.635 248.63 356.86 249.033 357.05C249.44 357.244 249.972 357.341 250.631 357.341C251.511 357.341 252.238 357.128 252.811 356.702C253.384 356.276 253.67 355.608 253.67 354.699V352.483H253.528C253.405 352.682 253.23 352.928 253.003 353.222C252.78 353.51 252.458 353.768 252.037 353.996C251.62 354.218 251.057 354.33 250.347 354.33C249.466 354.33 248.675 354.121 247.974 353.705C247.278 353.288 246.727 352.682 246.32 351.886C245.917 351.091 245.716 350.125 245.716 348.989C245.716 347.871 245.912 346.898 246.305 346.07C246.698 345.236 247.245 344.592 247.946 344.138C248.647 343.679 249.456 343.449 250.375 343.449C251.085 343.449 251.649 343.567 252.065 343.804C252.487 344.036 252.809 344.301 253.031 344.599C253.258 344.893 253.434 345.134 253.557 345.324H253.727V343.591H255.347V354.812C255.347 355.75 255.133 356.512 254.707 357.099C254.286 357.691 253.718 358.125 253.003 358.399C252.293 358.679 251.502 358.818 250.631 358.818ZM250.574 352.824C251.246 352.824 251.814 352.67 252.278 352.362C252.742 352.054 253.095 351.612 253.337 351.034C253.578 350.456 253.699 349.765 253.699 348.96C253.699 348.174 253.58 347.481 253.344 346.879C253.107 346.278 252.757 345.807 252.293 345.466C251.829 345.125 251.256 344.955 250.574 344.955C249.864 344.955 249.272 345.134 248.798 345.494C248.329 345.854 247.977 346.337 247.74 346.943C247.508 347.549 247.392 348.222 247.392 348.96C247.392 349.718 247.51 350.388 247.747 350.97C247.989 351.548 248.344 352.002 248.812 352.334C249.286 352.661 249.873 352.824 250.574 352.824ZM267.25 354.756C266.559 354.756 265.931 354.625 265.368 354.365C264.804 354.1 264.357 353.719 264.025 353.222C263.694 352.72 263.528 352.114 263.528 351.403C263.528 350.778 263.651 350.272 263.898 349.884C264.144 349.491 264.473 349.183 264.885 348.96C265.297 348.738 265.751 348.572 266.248 348.463C266.75 348.349 267.255 348.259 267.761 348.193C268.424 348.108 268.962 348.044 269.373 348.001C269.79 347.954 270.093 347.876 270.283 347.767C270.477 347.658 270.574 347.469 270.574 347.199V347.142C270.574 346.441 270.382 345.897 269.998 345.509C269.62 345.12 269.044 344.926 268.273 344.926C267.472 344.926 266.845 345.101 266.391 345.452C265.936 345.802 265.616 346.176 265.432 346.574L263.841 346.006C264.125 345.343 264.504 344.827 264.977 344.457C265.455 344.083 265.976 343.823 266.54 343.676C267.108 343.525 267.667 343.449 268.216 343.449C268.566 343.449 268.969 343.491 269.423 343.577C269.882 343.657 270.325 343.825 270.751 344.081C271.182 344.337 271.54 344.723 271.824 345.239C272.108 345.755 272.25 346.446 272.25 347.312V354.5H270.574V353.023H270.489C270.375 353.259 270.186 353.513 269.92 353.783C269.655 354.053 269.302 354.282 268.862 354.472C268.422 354.661 267.884 354.756 267.25 354.756ZM267.506 353.25C268.168 353.25 268.727 353.12 269.182 352.859C269.641 352.599 269.987 352.263 270.219 351.851C270.455 351.439 270.574 351.006 270.574 350.551V349.017C270.503 349.102 270.347 349.18 270.105 349.251C269.868 349.318 269.594 349.377 269.281 349.429C268.973 349.476 268.673 349.519 268.379 349.557C268.09 349.59 267.856 349.618 267.676 349.642C267.24 349.699 266.833 349.791 266.454 349.919C266.08 350.042 265.777 350.229 265.545 350.48C265.318 350.726 265.204 351.062 265.204 351.489C265.204 352.071 265.42 352.511 265.851 352.81C266.286 353.103 266.838 353.25 267.506 353.25ZM281.161 354.5V339.955H282.838V345.324H282.98C283.103 345.134 283.273 344.893 283.491 344.599C283.714 344.301 284.031 344.036 284.443 343.804C284.859 343.567 285.423 343.449 286.133 343.449C287.052 343.449 287.861 343.679 288.562 344.138C289.263 344.597 289.81 345.248 290.203 346.091C290.596 346.934 290.792 347.928 290.792 349.074C290.792 350.229 290.596 351.231 290.203 352.078C289.81 352.921 289.265 353.574 288.569 354.038C287.873 354.498 287.071 354.727 286.161 354.727C285.461 354.727 284.9 354.611 284.478 354.379C284.057 354.143 283.733 353.875 283.505 353.577C283.278 353.274 283.103 353.023 282.98 352.824H282.781V354.5H281.161ZM282.809 349.045C282.809 349.869 282.93 350.596 283.171 351.226C283.413 351.851 283.766 352.341 284.23 352.696C284.694 353.046 285.262 353.222 285.934 353.222C286.635 353.222 287.22 353.037 287.688 352.668C288.162 352.294 288.517 351.792 288.754 351.162C288.995 350.527 289.116 349.822 289.116 349.045C289.116 348.278 288.998 347.587 288.761 346.972C288.529 346.351 288.176 345.861 287.703 345.501C287.234 345.137 286.644 344.955 285.934 344.955C285.252 344.955 284.679 345.127 284.215 345.473C283.751 345.814 283.401 346.292 283.164 346.908C282.928 347.518 282.809 348.231 282.809 349.045ZM296.566 354.756C295.875 354.756 295.248 354.625 294.684 354.365C294.121 354.1 293.673 353.719 293.342 353.222C293.01 352.72 292.845 352.114 292.845 351.403C292.845 350.778 292.968 350.272 293.214 349.884C293.46 349.491 293.789 349.183 294.201 348.96C294.613 348.738 295.068 348.572 295.565 348.463C296.067 348.349 296.571 348.259 297.078 348.193C297.741 348.108 298.278 348.044 298.69 348.001C299.107 347.954 299.41 347.876 299.599 347.767C299.793 347.658 299.89 347.469 299.89 347.199V347.142C299.89 346.441 299.698 345.897 299.315 345.509C298.936 345.12 298.361 344.926 297.589 344.926C296.789 344.926 296.161 345.101 295.707 345.452C295.252 345.802 294.933 346.176 294.748 346.574L293.157 346.006C293.441 345.343 293.82 344.827 294.294 344.457C294.772 344.083 295.293 343.823 295.856 343.676C296.424 343.525 296.983 343.449 297.532 343.449C297.883 343.449 298.285 343.491 298.74 343.577C299.199 343.657 299.642 343.825 300.068 344.081C300.499 344.337 300.856 344.723 301.14 345.239C301.424 345.755 301.566 346.446 301.566 347.312V354.5H299.89V353.023H299.805C299.691 353.259 299.502 353.513 299.237 353.783C298.972 354.053 298.619 354.282 298.179 354.472C297.738 354.661 297.201 354.756 296.566 354.756ZM296.822 353.25C297.485 353.25 298.044 353.12 298.498 352.859C298.957 352.599 299.303 352.263 299.535 351.851C299.772 351.439 299.89 351.006 299.89 350.551V349.017C299.819 349.102 299.663 349.18 299.421 349.251C299.185 349.318 298.91 349.377 298.598 349.429C298.29 349.476 297.989 349.519 297.696 349.557C297.407 349.59 297.172 349.618 296.992 349.642C296.557 349.699 296.15 349.791 295.771 349.919C295.397 350.042 295.094 350.229 294.862 350.48C294.634 350.726 294.521 351.062 294.521 351.489C294.521 352.071 294.736 352.511 295.167 352.81C295.603 353.103 296.154 353.25 296.822 353.25ZM308.745 354.727C307.836 354.727 307.033 354.498 306.337 354.038C305.641 353.574 305.097 352.921 304.704 352.078C304.311 351.231 304.114 350.229 304.114 349.074C304.114 347.928 304.311 346.934 304.704 346.091C305.097 345.248 305.644 344.597 306.344 344.138C307.045 343.679 307.855 343.449 308.773 343.449C309.484 343.449 310.045 343.567 310.457 343.804C310.873 344.036 311.19 344.301 311.408 344.599C311.631 344.893 311.804 345.134 311.927 345.324H312.069V339.955H313.745V354.5H312.126V352.824H311.927C311.804 353.023 311.628 353.274 311.401 353.577C311.174 353.875 310.85 354.143 310.428 354.379C310.007 354.611 309.446 354.727 308.745 354.727ZM308.972 353.222C309.645 353.222 310.213 353.046 310.677 352.696C311.141 352.341 311.494 351.851 311.735 351.226C311.976 350.596 312.097 349.869 312.097 349.045C312.097 348.231 311.979 347.518 311.742 346.908C311.505 346.292 311.155 345.814 310.691 345.473C310.227 345.127 309.654 344.955 308.972 344.955C308.262 344.955 307.67 345.137 307.197 345.501C306.728 345.861 306.375 346.351 306.138 346.972C305.906 347.587 305.79 348.278 305.79 349.045C305.79 349.822 305.909 350.527 306.145 351.162C306.387 351.792 306.742 352.294 307.211 352.668C307.684 353.037 308.271 353.222 308.972 353.222ZM329.547 350.04V343.591H331.224V354.5H329.547V352.653H329.434C329.178 353.207 328.78 353.679 328.241 354.067C327.701 354.45 327.019 354.642 326.195 354.642C325.513 354.642 324.907 354.493 324.377 354.195C323.847 353.892 323.43 353.437 323.127 352.831C322.824 352.22 322.672 351.451 322.672 350.523V343.591H324.349V350.409C324.349 351.205 324.571 351.839 325.016 352.312C325.466 352.786 326.039 353.023 326.735 353.023C327.152 353.023 327.575 352.916 328.006 352.703C328.442 352.49 328.806 352.163 329.1 351.723C329.398 351.283 329.547 350.722 329.547 350.04ZM342.021 346.034L340.515 346.46C340.42 346.209 340.281 345.965 340.096 345.729C339.916 345.487 339.67 345.288 339.358 345.132C339.045 344.976 338.645 344.898 338.157 344.898C337.49 344.898 336.933 345.052 336.488 345.359C336.048 345.662 335.828 346.048 335.828 346.517C335.828 346.934 335.979 347.263 336.282 347.504C336.585 347.746 337.059 347.947 337.703 348.108L339.322 348.506C340.297 348.742 341.024 349.105 341.502 349.592C341.981 350.075 342.22 350.698 342.22 351.46C342.22 352.085 342.04 352.644 341.68 353.136C341.325 353.629 340.828 354.017 340.188 354.301C339.549 354.585 338.806 354.727 337.958 354.727C336.846 354.727 335.925 354.486 335.196 354.003C334.466 353.52 334.005 352.814 333.811 351.886L335.402 351.489C335.553 352.076 335.84 352.516 336.261 352.81C336.687 353.103 337.243 353.25 337.93 353.25C338.711 353.25 339.331 353.084 339.791 352.753C340.255 352.417 340.487 352.014 340.487 351.545C340.487 351.167 340.354 350.849 340.089 350.594C339.824 350.333 339.417 350.139 338.867 350.011L337.049 349.585C336.05 349.348 335.316 348.982 334.848 348.484C334.384 347.982 334.152 347.355 334.152 346.602C334.152 345.987 334.324 345.442 334.67 344.969C335.02 344.495 335.496 344.124 336.098 343.854C336.704 343.584 337.39 343.449 338.157 343.449C339.237 343.449 340.084 343.686 340.7 344.159C341.32 344.633 341.76 345.258 342.021 346.034ZM349.317 354.727C348.266 354.727 347.359 354.495 346.596 354.031C345.839 353.562 345.254 352.909 344.842 352.071C344.435 351.228 344.231 350.248 344.231 349.131C344.231 348.013 344.435 347.028 344.842 346.176C345.254 345.319 345.827 344.652 346.561 344.173C347.3 343.69 348.161 343.449 349.146 343.449C349.714 343.449 350.275 343.544 350.829 343.733C351.383 343.922 351.888 344.23 352.342 344.656C352.797 345.078 353.159 345.636 353.429 346.332C353.699 347.028 353.834 347.885 353.834 348.903V349.614H345.425V348.165H352.129C352.129 347.549 352.006 347 351.76 346.517C351.518 346.034 351.173 345.653 350.723 345.374C350.278 345.094 349.752 344.955 349.146 344.955C348.479 344.955 347.901 345.12 347.413 345.452C346.93 345.778 346.559 346.205 346.298 346.73C346.038 347.256 345.908 347.819 345.908 348.42V349.386C345.908 350.21 346.05 350.909 346.334 351.482C346.623 352.05 347.023 352.483 347.534 352.781C348.045 353.075 348.64 353.222 349.317 353.222C349.757 353.222 350.155 353.16 350.51 353.037C350.87 352.909 351.18 352.72 351.44 352.469C351.701 352.213 351.902 351.896 352.044 351.517L353.663 351.972C353.493 352.521 353.206 353.004 352.804 353.42C352.401 353.832 351.904 354.154 351.312 354.386C350.721 354.614 350.055 354.727 349.317 354.727ZM356.383 354.5V343.591H358.003V345.239H358.116C358.315 344.699 358.675 344.261 359.196 343.925C359.717 343.589 360.304 343.42 360.957 343.42C361.08 343.42 361.234 343.423 361.419 343.428C361.604 343.432 361.743 343.439 361.838 343.449V345.153C361.781 345.139 361.651 345.118 361.447 345.089C361.248 345.056 361.038 345.04 360.815 345.04C360.285 345.04 359.811 345.151 359.395 345.374C358.983 345.591 358.656 345.894 358.415 346.283C358.178 346.666 358.06 347.104 358.06 347.597V354.5H356.383ZM207.139 378.727C206.088 378.727 205.181 378.495 204.419 378.031C203.661 377.562 203.076 376.909 202.665 376.071C202.257 375.228 202.054 374.248 202.054 373.131C202.054 372.013 202.257 371.028 202.665 370.176C203.076 369.319 203.649 368.652 204.383 368.173C205.122 367.69 205.984 367.449 206.968 367.449C207.537 367.449 208.098 367.544 208.652 367.733C209.206 367.922 209.71 368.23 210.165 368.656C210.619 369.078 210.981 369.636 211.251 370.332C211.521 371.028 211.656 371.885 211.656 372.903V373.614H203.247V372.165H209.951C209.951 371.549 209.828 371 209.582 370.517C209.341 370.034 208.995 369.653 208.545 369.374C208.1 369.094 207.575 368.955 206.968 368.955C206.301 368.955 205.723 369.12 205.236 369.452C204.753 369.778 204.381 370.205 204.12 370.73C203.86 371.256 203.73 371.819 203.73 372.42V373.386C203.73 374.21 203.872 374.909 204.156 375.482C204.445 376.05 204.845 376.483 205.356 376.781C205.868 377.075 206.462 377.222 207.139 377.222C207.579 377.222 207.977 377.16 208.332 377.037C208.692 376.909 209.002 376.72 209.263 376.469C209.523 376.213 209.724 375.896 209.866 375.517L211.486 375.972C211.315 376.521 211.029 377.004 210.626 377.42C210.224 377.832 209.727 378.154 209.135 378.386C208.543 378.614 207.878 378.727 207.139 378.727ZM215.163 367.591L217.776 372.051L220.39 367.591H222.322L218.799 373.045L222.322 378.5H220.39L217.776 374.267L215.163 378.5H213.231L216.697 373.045L213.231 367.591H215.163ZM224.714 382.591V367.591H226.333V369.324H226.532C226.655 369.134 226.825 368.893 227.043 368.599C227.266 368.301 227.583 368.036 227.995 367.804C228.411 367.567 228.975 367.449 229.685 367.449C230.604 367.449 231.413 367.679 232.114 368.138C232.815 368.597 233.362 369.248 233.755 370.091C234.148 370.934 234.344 371.928 234.344 373.074C234.344 374.229 234.148 375.231 233.755 376.078C233.362 376.921 232.817 377.574 232.121 378.038C231.425 378.498 230.623 378.727 229.714 378.727C229.013 378.727 228.452 378.611 228.03 378.379C227.609 378.143 227.285 377.875 227.057 377.577C226.83 377.274 226.655 377.023 226.532 376.824H226.39V382.591H224.714ZM226.361 373.045C226.361 373.869 226.482 374.596 226.723 375.226C226.965 375.851 227.318 376.341 227.782 376.696C228.246 377.046 228.814 377.222 229.486 377.222C230.187 377.222 230.772 377.037 231.241 376.668C231.714 376.294 232.069 375.792 232.306 375.162C232.547 374.527 232.668 373.822 232.668 373.045C232.668 372.278 232.55 371.587 232.313 370.972C232.081 370.351 231.728 369.861 231.255 369.501C230.786 369.137 230.196 368.955 229.486 368.955C228.804 368.955 228.232 369.127 227.767 369.473C227.303 369.814 226.953 370.292 226.716 370.908C226.48 371.518 226.361 372.231 226.361 373.045ZM241.475 378.727C240.424 378.727 239.517 378.495 238.755 378.031C237.997 377.562 237.412 376.909 237 376.071C236.593 375.228 236.39 374.248 236.39 373.131C236.39 372.013 236.593 371.028 237 370.176C237.412 369.319 237.985 368.652 238.719 368.173C239.458 367.69 240.32 367.449 241.304 367.449C241.873 367.449 242.434 367.544 242.988 367.733C243.542 367.922 244.046 368.23 244.5 368.656C244.955 369.078 245.317 369.636 245.587 370.332C245.857 371.028 245.992 371.885 245.992 372.903V373.614H237.583V372.165H244.287C244.287 371.549 244.164 371 243.918 370.517C243.677 370.034 243.331 369.653 242.881 369.374C242.436 369.094 241.91 368.955 241.304 368.955C240.637 368.955 240.059 369.12 239.571 369.452C239.089 369.778 238.717 370.205 238.456 370.73C238.196 371.256 238.066 371.819 238.066 372.42V373.386C238.066 374.21 238.208 374.909 238.492 375.482C238.781 376.05 239.181 376.483 239.692 376.781C240.204 377.075 240.798 377.222 241.475 377.222C241.915 377.222 242.313 377.16 242.668 377.037C243.028 376.909 243.338 376.72 243.598 376.469C243.859 376.213 244.06 375.896 244.202 375.517L245.821 375.972C245.651 376.521 245.365 377.004 244.962 377.42C244.56 377.832 244.062 378.154 243.471 378.386C242.879 378.614 242.214 378.727 241.475 378.727ZM248.542 378.5V367.591H250.161V369.239H250.275C250.473 368.699 250.833 368.261 251.354 367.925C251.875 367.589 252.462 367.42 253.116 367.42C253.239 367.42 253.392 367.423 253.577 367.428C253.762 367.432 253.901 367.439 253.996 367.449V369.153C253.939 369.139 253.809 369.118 253.606 369.089C253.407 369.056 253.196 369.04 252.973 369.04C252.443 369.04 251.97 369.151 251.553 369.374C251.141 369.591 250.814 369.894 250.573 370.283C250.336 370.666 250.218 371.104 250.218 371.597V378.5H248.542ZM255.983 378.5V367.591H257.659V378.5H255.983ZM256.835 365.773C256.509 365.773 256.227 365.661 255.99 365.439C255.758 365.216 255.642 364.949 255.642 364.636C255.642 364.324 255.758 364.056 255.99 363.834C256.227 363.611 256.509 363.5 256.835 363.5C257.162 363.5 257.441 363.611 257.673 363.834C257.91 364.056 258.028 364.324 258.028 364.636C258.028 364.949 257.91 365.216 257.673 365.439C257.441 365.661 257.162 365.773 256.835 365.773ZM265.303 378.727C264.252 378.727 263.345 378.495 262.583 378.031C261.825 377.562 261.241 376.909 260.829 376.071C260.421 375.228 260.218 374.248 260.218 373.131C260.218 372.013 260.421 371.028 260.829 370.176C261.241 369.319 261.813 368.652 262.547 368.173C263.286 367.69 264.148 367.449 265.133 367.449C265.701 367.449 266.262 367.544 266.816 367.733C267.37 367.922 267.874 368.23 268.329 368.656C268.783 369.078 269.145 369.636 269.415 370.332C269.685 371.028 269.82 371.885 269.82 372.903V373.614H261.411V372.165H268.116C268.116 371.549 267.992 371 267.746 370.517C267.505 370.034 267.159 369.653 266.709 369.374C266.264 369.094 265.739 368.955 265.133 368.955C264.465 368.955 263.887 369.12 263.4 369.452C262.917 369.778 262.545 370.205 262.285 370.73C262.024 371.256 261.894 371.819 261.894 372.42V373.386C261.894 374.21 262.036 374.909 262.32 375.482C262.609 376.05 263.009 376.483 263.52 376.781C264.032 377.075 264.626 377.222 265.303 377.222C265.743 377.222 266.141 377.16 266.496 377.037C266.856 376.909 267.166 376.72 267.427 376.469C267.687 376.213 267.888 375.896 268.03 375.517L269.65 375.972C269.479 376.521 269.193 377.004 268.79 377.42C268.388 377.832 267.891 378.154 267.299 378.386C266.707 378.614 266.042 378.727 265.303 378.727ZM274.046 371.938V378.5H272.37V367.591H273.989V369.295H274.131C274.387 368.741 274.775 368.296 275.296 367.96C275.817 367.619 276.489 367.449 277.313 367.449C278.052 367.449 278.698 367.6 279.252 367.903C279.806 368.202 280.237 368.656 280.544 369.267C280.852 369.873 281.006 370.64 281.006 371.568V378.5H279.33V371.682C279.33 370.825 279.107 370.157 278.662 369.679C278.217 369.196 277.606 368.955 276.83 368.955C276.295 368.955 275.817 369.071 275.395 369.303C274.979 369.535 274.65 369.873 274.408 370.318C274.167 370.763 274.046 371.303 274.046 371.938ZM288.501 378.727C287.478 378.727 286.597 378.486 285.859 378.003C285.12 377.52 284.552 376.855 284.154 376.007C283.756 375.16 283.558 374.191 283.558 373.102C283.558 371.994 283.761 371.017 284.168 370.169C284.58 369.317 285.153 368.652 285.887 368.173C286.626 367.69 287.488 367.449 288.472 367.449C289.239 367.449 289.931 367.591 290.546 367.875C291.162 368.159 291.666 368.557 292.059 369.068C292.452 369.58 292.696 370.176 292.791 370.858H291.114C290.987 370.361 290.702 369.92 290.262 369.537C289.827 369.149 289.239 368.955 288.501 368.955C287.847 368.955 287.274 369.125 286.782 369.466C286.294 369.802 285.913 370.278 285.639 370.893C285.369 371.504 285.234 372.222 285.234 373.045C285.234 373.888 285.366 374.622 285.631 375.247C285.901 375.872 286.28 376.357 286.768 376.703C287.26 377.049 287.838 377.222 288.501 377.222C288.936 377.222 289.332 377.146 289.687 376.994C290.042 376.843 290.343 376.625 290.589 376.341C290.835 376.057 291.01 375.716 291.114 375.318H292.791C292.696 375.962 292.461 376.542 292.087 377.058C291.718 377.57 291.228 377.977 290.617 378.28C290.011 378.578 289.306 378.727 288.501 378.727ZM299.815 378.727C298.764 378.727 297.857 378.495 297.095 378.031C296.337 377.562 295.752 376.909 295.34 376.071C294.933 375.228 294.729 374.248 294.729 373.131C294.729 372.013 294.933 371.028 295.34 370.176C295.752 369.319 296.325 368.652 297.059 368.173C297.798 367.69 298.659 367.449 299.644 367.449C300.212 367.449 300.774 367.544 301.327 367.733C301.881 367.922 302.386 368.23 302.84 368.656C303.295 369.078 303.657 369.636 303.927 370.332C304.197 371.028 304.332 371.885 304.332 372.903V373.614H295.923V372.165H302.627C302.627 371.549 302.504 371 302.258 370.517C302.016 370.034 301.671 369.653 301.221 369.374C300.776 369.094 300.25 368.955 299.644 368.955C298.977 368.955 298.399 369.12 297.911 369.452C297.428 369.778 297.057 370.205 296.796 370.73C296.536 371.256 296.406 371.819 296.406 372.42V373.386C296.406 374.21 296.548 374.909 296.832 375.482C297.121 376.05 297.521 376.483 298.032 376.781C298.543 377.075 299.138 377.222 299.815 377.222C300.255 377.222 300.653 377.16 301.008 377.037C301.368 376.909 301.678 376.72 301.938 376.469C302.199 376.213 302.4 375.896 302.542 375.517L304.161 375.972C303.991 376.521 303.704 377.004 303.302 377.42C302.899 377.832 302.402 378.154 301.81 378.386C301.219 378.614 300.553 378.727 299.815 378.727Z" fill="black" fill-opacity="0.9"/>
</svg>
