<svg width="820" height="635" viewBox="0 0 820 635" fill="none" xmlns="http://www.w3.org/2000/svg">
<g clip-path="url(#clip0_204_4555)">
<path d="M342.063 441.112C302.267 425.828 268.437 398.187 245.556 362.264C222.676 326.338 211.952 284.028 214.966 241.561C217.98 199.094 234.571 158.715 262.297 126.371C290.022 94.026 327.417 71.4252 368.974 61.8958L382.264 119.673C353.102 126.36 326.86 142.22 307.404 164.918C287.948 187.615 276.306 215.95 274.191 245.751C272.076 275.551 279.601 305.243 295.657 330.452C311.713 355.661 335.453 375.058 363.379 385.783L342.063 441.112Z" fill="#D6D8E7"/>
<path d="M362.468 63.5031C407.241 51.6389 454.756 55.7366 496.828 75.0902C538.9 94.444 572.895 127.842 592.957 169.53C613.019 211.219 617.892 258.588 606.734 303.479C595.578 348.368 569.09 387.966 531.836 415.455C494.583 442.943 448.893 456.596 402.639 454.067C356.386 451.535 312.465 432.979 278.441 401.591C244.418 370.203 222.423 327.952 216.246 282.114C210.069 236.275 220.096 189.721 244.6 150.47L294.986 181.829C277.791 209.373 270.754 242.041 275.089 274.208C279.424 306.373 294.859 336.024 318.734 358.049C342.609 380.075 373.43 393.097 405.888 394.873C438.345 396.648 470.406 387.068 496.55 367.777C522.692 348.489 541.279 320.7 549.11 289.2C556.938 257.699 553.519 224.459 539.441 195.204C525.364 165.95 501.507 142.513 471.983 128.932C442.46 115.351 409.117 112.476 377.699 120.801L362.468 63.5031Z" fill="#30B0C7"/>
<path d="M337.182 228.16C331.015 224.958 327.932 220.001 327.932 213.29C327.932 209.965 328.764 206.947 330.429 204.238C332.156 201.467 334.715 199.281 338.107 197.681C341.561 196.018 345.754 195.187 350.688 195.187C355.621 195.187 359.784 196.018 363.176 197.681C366.629 199.281 369.189 201.467 370.854 204.238C372.58 206.947 373.444 209.965 373.444 213.29C373.444 216.676 372.611 219.663 370.946 222.249C369.281 224.773 367.061 226.744 364.286 228.16C367.678 229.638 370.33 231.793 372.241 234.625C374.153 237.458 375.109 240.813 375.109 244.693C375.109 248.88 374.03 252.543 371.871 255.684C369.774 258.762 366.876 261.133 363.176 262.796C359.476 264.458 355.313 265.289 350.688 265.289C346.063 265.289 341.9 264.458 338.2 262.796C334.561 261.133 331.663 258.762 329.504 255.684C327.408 252.543 326.359 248.88 326.359 244.693C326.359 240.813 327.315 237.458 329.227 234.625C331.139 231.731 333.79 229.576 337.182 228.16ZM360.863 215.137C360.863 212.12 359.938 209.78 358.088 208.117C356.3 206.455 353.833 205.624 350.688 205.624C347.604 205.624 345.138 206.455 343.287 208.117C341.499 209.78 340.605 212.15 340.605 215.229C340.605 218 341.53 220.217 343.38 221.879C345.292 223.542 347.728 224.373 350.688 224.373C353.648 224.373 356.084 223.542 357.996 221.879C359.907 220.155 360.863 217.908 360.863 215.137ZM350.688 233.794C347.173 233.794 344.305 234.687 342.085 236.472C339.926 238.258 338.847 240.813 338.847 244.138C338.847 247.217 339.896 249.742 341.992 251.712C344.151 253.621 347.049 254.575 350.688 254.575C354.326 254.575 357.194 253.59 359.291 251.62C361.387 249.649 362.436 247.155 362.436 244.138C362.436 240.875 361.357 238.35 359.198 236.565C357.04 234.717 354.203 233.794 350.688 233.794ZM393.154 228.16C386.987 224.958 383.904 220.001 383.904 213.29C383.904 209.965 384.737 206.947 386.402 204.238C388.128 201.467 390.688 199.281 394.079 197.681C397.533 196.018 401.726 195.187 406.66 195.187C411.593 195.187 415.756 196.018 419.147 197.681C422.601 199.281 425.16 201.467 426.825 204.238C428.552 206.947 429.415 209.965 429.415 213.29C429.415 216.676 428.583 219.663 426.918 222.249C425.253 224.773 423.033 226.744 420.257 228.16C423.649 229.638 426.301 231.793 428.213 234.625C430.125 237.458 431.08 240.813 431.08 244.693C431.08 248.88 430.001 252.543 427.843 255.684C425.746 258.762 422.848 261.133 419.147 262.796C415.447 264.458 411.285 265.289 406.66 265.289C402.035 265.289 397.872 264.458 394.172 262.796C390.533 261.133 387.635 258.762 385.477 255.684C383.38 252.543 382.331 248.88 382.331 244.693C382.331 240.813 383.287 237.458 385.199 234.625C387.111 231.731 389.763 229.576 393.154 228.16ZM416.835 215.137C416.835 212.12 415.91 209.78 414.06 208.117C412.271 206.455 409.804 205.624 406.66 205.624C403.577 205.624 401.11 206.455 399.26 208.117C397.471 209.78 396.577 212.15 396.577 215.229C396.577 218 397.502 220.217 399.352 221.879C401.264 223.542 403.7 224.373 406.66 224.373C409.619 224.373 412.055 223.542 413.967 221.879C415.879 220.155 416.835 217.908 416.835 215.137ZM406.66 233.794C403.145 233.794 400.277 234.687 398.057 236.472C395.899 238.258 394.82 240.813 394.82 244.138C394.82 247.217 395.868 249.742 397.965 251.712C400.123 253.621 403.022 254.575 406.66 254.575C410.298 254.575 413.165 253.59 415.262 251.62C417.359 249.649 418.407 247.155 418.407 244.138C418.407 240.875 417.328 238.35 415.17 236.565C413.011 234.717 410.174 233.794 406.66 233.794ZM436.361 213.013C436.361 208.333 437.718 204.669 440.431 202.022C443.206 199.374 446.752 198.05 451.069 198.05C455.386 198.05 458.901 199.374 461.615 202.022C464.39 204.669 465.777 208.333 465.777 213.013C465.777 217.754 464.39 221.448 461.615 224.096C458.901 226.744 455.386 228.067 451.069 228.067C446.752 228.067 443.206 226.744 440.431 224.096C437.718 221.448 436.361 217.754 436.361 213.013ZM495.749 199.158L459.394 263.812H446.814L483.076 199.158H495.749ZM450.977 205.808C447.585 205.808 445.889 208.21 445.889 213.013C445.889 217.877 447.585 220.309 450.977 220.309C452.642 220.309 453.937 219.724 454.862 218.554C455.787 217.323 456.249 215.475 456.249 213.013C456.249 208.21 454.492 205.808 450.977 205.808ZM476.97 249.865C476.97 245.124 478.327 241.46 481.04 238.874C483.816 236.226 487.362 234.902 491.678 234.902C495.995 234.902 499.48 236.226 502.131 238.874C504.845 241.46 506.202 245.124 506.202 249.865C506.202 254.606 504.845 258.3 502.131 260.948C499.48 263.596 495.995 264.92 491.678 264.92C487.3 264.92 483.754 263.596 481.04 260.948C478.327 258.3 476.97 254.606 476.97 249.865ZM491.586 242.661C488.071 242.661 486.313 245.062 486.313 249.865C486.313 254.729 488.071 257.161 491.586 257.161C495.039 257.161 496.766 254.729 496.766 249.865C496.766 245.062 495.039 242.661 491.586 242.661Z" fill="#1EA3BB"/>
<path d="M356.833 302.704C355.285 302.704 353.886 302.357 352.636 301.664C351.386 300.951 350.404 299.961 349.689 298.692C348.975 297.405 348.618 295.919 348.618 294.234C348.618 292.57 348.985 291.093 349.719 289.806C350.453 288.519 351.455 287.527 352.725 286.834C353.995 286.142 355.414 285.794 356.981 285.794C358.549 285.794 359.968 286.142 361.238 286.834C362.508 287.527 363.51 288.519 364.244 289.806C364.978 291.093 365.345 292.57 365.345 294.234C365.345 295.899 364.968 297.375 364.214 298.662C363.46 299.949 362.428 300.951 361.119 301.664C359.829 302.357 358.4 302.704 356.833 302.704ZM356.833 299.762C357.706 299.762 358.519 299.554 359.273 299.138C360.047 298.722 360.672 298.098 361.148 297.266C361.625 296.434 361.863 295.423 361.863 294.234C361.863 293.046 361.635 292.044 361.178 291.233C360.722 290.401 360.117 289.777 359.363 289.361C358.609 288.944 357.795 288.736 356.922 288.736C356.049 288.736 355.235 288.944 354.481 289.361C353.747 289.777 353.162 290.401 352.725 291.233C352.289 292.044 352.07 293.046 352.07 294.234C352.07 295.997 352.517 297.364 353.41 298.336C354.323 299.286 355.463 299.762 356.833 299.762ZM375.575 288.826H372.539V302.437H369.116V288.826H367.182V286.062H369.116V284.903C369.116 283.021 369.612 281.654 370.605 280.802C371.617 279.931 373.194 279.494 375.337 279.494V282.317C374.305 282.317 373.581 282.516 373.164 282.912C372.748 283.289 372.539 283.952 372.539 284.903V286.062H375.575V288.826ZM393.428 302.704C391.88 302.704 390.481 302.357 389.231 301.664C387.981 300.951 386.999 299.961 386.284 298.692C385.57 297.405 385.213 295.919 385.213 294.234C385.213 292.57 385.58 291.093 386.314 289.806C387.048 288.519 388.05 287.527 389.32 286.834C390.59 286.142 392.009 285.794 393.577 285.794C395.144 285.794 396.563 286.142 397.833 286.834C399.103 287.527 400.105 288.519 400.839 289.806C401.573 291.093 401.94 292.57 401.94 294.234C401.94 295.899 401.564 297.375 400.809 298.662C400.055 299.949 399.023 300.951 397.714 301.664C396.424 302.357 394.995 302.704 393.428 302.704ZM393.428 299.762C394.301 299.762 395.114 299.554 395.868 299.138C396.642 298.722 397.267 298.098 397.744 297.266C398.22 296.434 398.458 295.423 398.458 294.234C398.458 293.046 398.23 292.044 397.773 291.233C397.317 290.401 396.712 289.777 395.958 289.361C395.204 288.944 394.39 288.736 393.517 288.736C392.644 288.736 391.831 288.944 391.076 289.361C390.342 289.777 389.757 290.401 389.32 291.233C388.884 292.044 388.665 293.046 388.665 294.234C388.665 295.997 389.112 297.364 390.005 298.336C390.918 299.286 392.059 299.762 393.428 299.762ZM413.568 285.794C414.86 285.794 416.009 286.062 417.021 286.597C418.054 287.132 418.857 287.925 419.432 288.974C420.009 290.023 420.295 291.292 420.295 292.778V302.437H416.932V293.283C416.932 291.818 416.565 290.698 415.831 289.925C415.098 289.132 414.095 288.736 412.824 288.736C411.556 288.736 410.544 289.132 409.788 289.925C409.056 290.698 408.687 291.818 408.687 293.283V302.437H405.294V286.062H408.687V287.934C409.243 287.26 409.949 286.736 410.8 286.359C411.675 285.982 412.598 285.794 413.568 285.794ZM428.018 280.445V302.437H424.625V280.445H428.018ZM434.197 283.892C433.584 283.892 433.066 283.684 432.65 283.268C432.233 282.852 432.025 282.338 432.025 281.723C432.025 281.108 432.233 280.594 432.65 280.178C433.066 279.761 433.584 279.553 434.197 279.553C434.793 279.553 435.299 279.761 435.715 280.178C436.132 280.594 436.34 281.108 436.34 281.723C436.34 282.338 436.132 282.852 435.715 283.268C435.299 283.684 434.793 283.892 434.197 283.892ZM435.864 286.062V302.437H432.471V286.062H435.864ZM448.594 285.794C449.886 285.794 451.035 286.062 452.047 286.597C453.08 287.132 453.883 287.925 454.458 288.974C455.035 290.023 455.321 291.292 455.321 292.778V302.437H451.958V293.283C451.958 291.818 451.591 290.698 450.856 289.925C450.124 289.132 449.121 288.736 447.85 288.736C446.582 288.736 445.57 289.132 444.814 289.925C444.082 290.698 443.713 291.818 443.713 293.283V302.437H440.32V286.062H443.713V287.934C444.269 287.26 444.974 286.736 445.826 286.359C446.701 285.982 447.623 285.794 448.594 285.794ZM474.682 293.848C474.682 294.463 474.64 295.016 474.563 295.512H462.032C462.13 296.82 462.616 297.869 463.49 298.662C464.363 299.456 465.434 299.851 466.705 299.851C468.53 299.851 469.819 299.088 470.574 297.563H474.235C473.738 299.069 472.836 300.306 471.527 301.278C470.235 302.229 468.628 302.704 466.705 302.704C465.136 302.704 463.728 302.357 462.478 301.664C461.246 300.951 460.276 299.961 459.561 298.692C458.865 297.405 458.52 295.919 458.52 294.234C458.52 292.55 458.856 291.075 459.532 289.806C460.225 288.519 461.187 287.527 462.419 286.834C463.669 286.142 465.097 285.794 466.705 285.794C468.253 285.794 469.631 286.13 470.842 286.805C472.051 287.479 472.994 288.43 473.67 289.658C474.343 290.867 474.682 292.264 474.682 293.848ZM471.14 292.778C471.119 291.53 470.673 290.529 469.8 289.777C468.926 289.024 467.845 288.647 466.556 288.647C465.384 288.647 464.383 289.024 463.55 289.777C462.716 290.51 462.219 291.509 462.062 292.778H471.14ZM332.863 326.239C332.863 324.554 333.2 323.08 333.875 321.811C334.569 320.524 335.522 319.532 336.732 318.839C337.943 318.146 339.332 317.799 340.899 317.799C342.883 317.799 344.52 318.274 345.81 319.225C347.12 320.156 348.003 321.493 348.459 323.237H344.798C344.501 322.426 344.025 321.79 343.37 321.335C342.715 320.88 341.891 320.652 340.899 320.652C339.51 320.652 338.399 321.148 337.566 322.138C336.752 323.109 336.345 324.476 336.345 326.239C336.345 328.001 336.752 329.38 337.566 330.37C338.399 331.36 339.51 331.856 340.899 331.856C342.864 331.856 344.163 330.994 344.798 329.27H348.459C347.983 330.934 347.09 332.263 345.781 333.252C344.471 334.224 342.844 334.709 340.899 334.709C339.332 334.709 337.943 334.361 336.732 333.668C335.522 332.955 334.569 331.965 333.875 330.697C333.2 329.41 332.863 327.924 332.863 326.239ZM366.693 318.066V334.441H363.3V332.509C362.764 333.184 362.06 333.719 361.187 334.114C360.334 334.491 359.421 334.679 358.449 334.679C357.159 334.679 355.998 334.411 354.966 333.876C353.954 333.342 353.151 332.548 352.555 331.499C351.98 330.45 351.692 329.181 351.692 327.695V318.066H355.055V327.19C355.055 328.655 355.423 329.784 356.157 330.578C356.891 331.35 357.893 331.737 359.163 331.737C360.433 331.737 361.435 331.35 362.169 330.578C362.923 329.784 363.3 328.655 363.3 327.19V318.066H366.693ZM377.123 334.709C375.833 334.709 374.673 334.48 373.641 334.025C372.629 333.55 371.825 332.916 371.23 332.123C370.635 331.312 370.317 330.409 370.277 329.419H373.79C373.849 330.111 374.177 330.697 374.772 331.172C375.387 331.627 376.151 331.856 377.064 331.856C378.016 331.856 378.75 331.677 379.266 331.321C379.802 330.943 380.07 330.468 380.07 329.894C380.07 329.279 379.772 328.824 379.177 328.527C378.601 328.23 377.679 327.903 376.409 327.546C375.179 327.21 374.177 326.884 373.403 326.566C372.629 326.248 371.954 325.763 371.379 325.11C370.823 324.456 370.545 323.594 370.545 322.524C370.545 321.653 370.803 320.86 371.319 320.147C371.835 319.413 372.569 318.839 373.522 318.423C374.494 318.007 375.605 317.799 376.855 317.799C378.72 317.799 380.219 318.274 381.35 319.225C382.501 320.156 383.116 321.434 383.195 323.059H379.802C379.743 322.325 379.445 321.742 378.909 321.306C378.373 320.869 377.649 320.652 376.736 320.652C375.843 320.652 375.159 320.821 374.683 321.157C374.206 321.493 373.968 321.939 373.968 322.494C373.968 322.931 374.127 323.297 374.444 323.594C374.762 323.891 375.149 324.129 375.605 324.307C376.062 324.465 376.736 324.673 377.629 324.931C378.82 325.249 379.792 325.576 380.546 325.912C381.32 326.23 381.985 326.705 382.54 327.338C383.096 327.972 383.384 328.815 383.404 329.864C383.404 330.795 383.146 331.627 382.63 332.361C382.114 333.095 381.38 333.668 380.427 334.084C379.494 334.501 378.393 334.709 377.123 334.709ZM391.029 320.83V329.894C391.029 330.509 391.168 330.955 391.445 331.232C391.743 331.49 392.239 331.618 392.933 331.618H395.017V334.441H392.338C390.81 334.441 389.639 334.084 388.826 333.371C388.012 332.658 387.606 331.499 387.606 329.894V320.83H385.671V318.066H387.606V313.995H391.029V318.066H395.017V320.83H391.029ZM405.257 334.709C403.71 334.709 402.311 334.361 401.061 333.668C399.811 332.955 398.829 331.965 398.115 330.697C397.4 329.41 397.043 327.924 397.043 326.239C397.043 324.575 397.41 323.098 398.144 321.811C398.879 320.524 399.881 319.532 401.15 318.839C402.421 318.146 403.839 317.799 405.406 317.799C406.974 317.799 408.394 318.146 409.662 318.839C410.933 319.532 411.936 320.524 412.669 321.811C413.404 323.098 413.77 324.575 413.77 326.239C413.77 327.903 413.394 329.38 412.639 330.667C411.886 331.954 410.853 332.955 409.543 333.668C408.254 334.361 406.826 334.709 405.257 334.709ZM405.257 331.766C406.132 331.766 406.945 331.558 407.698 331.142C408.472 330.726 409.097 330.102 409.573 329.27C410.049 328.438 410.287 327.428 410.287 326.239C410.287 325.05 410.061 324.049 409.603 323.237C409.147 322.405 408.543 321.781 407.787 321.365C407.034 320.949 406.221 320.741 405.347 320.741C404.474 320.741 403.661 320.949 402.907 321.365C402.173 321.781 401.587 322.405 401.15 323.237C400.714 324.049 400.496 325.05 400.496 326.239C400.496 328.001 400.942 329.368 401.835 330.34C402.748 331.291 403.889 331.766 405.257 331.766ZM436.977 317.799C438.268 317.799 439.418 318.066 440.43 318.601C441.462 319.136 442.266 319.929 442.841 320.979C443.436 322.028 443.734 323.297 443.734 324.783V334.441H440.37V325.288C440.37 323.822 440.004 322.702 439.269 321.93C438.536 321.136 437.533 320.741 436.263 320.741C434.994 320.741 433.982 321.136 433.227 321.93C432.494 322.702 432.125 323.822 432.125 325.288V334.441H428.762V325.288C428.762 323.822 428.396 322.702 427.661 321.93C426.928 321.136 425.925 320.741 424.655 320.741C423.386 320.741 422.374 321.136 421.619 321.93C420.886 322.702 420.517 323.822 420.517 325.288V334.441H417.124V318.066H420.517V319.939C421.074 319.264 421.779 318.741 422.631 318.363C423.485 317.986 424.398 317.799 425.369 317.799C426.679 317.799 427.851 318.075 428.881 318.631C429.914 319.186 430.708 319.989 431.262 321.038C431.759 320.048 432.533 319.264 433.584 318.69C434.637 318.096 435.768 317.799 436.977 317.799ZM463.083 325.852C463.083 326.467 463.044 327.021 462.964 327.517H450.433C450.534 328.824 451.019 329.874 451.891 330.667C452.766 331.46 453.837 331.856 455.106 331.856C456.933 331.856 458.222 331.092 458.975 329.567H462.636C462.142 331.074 461.237 332.311 459.928 333.282C458.639 334.233 457.031 334.709 455.106 334.709C453.54 334.709 452.129 334.361 450.879 333.668C449.65 332.955 448.677 331.965 447.962 330.697C447.269 329.41 446.921 327.924 446.921 326.239C446.921 324.554 447.259 323.08 447.933 321.811C448.629 320.524 449.59 319.532 450.82 318.839C452.07 318.146 453.499 317.799 455.106 317.799C456.654 317.799 458.034 318.135 459.243 318.809C460.454 319.484 461.398 320.435 462.071 321.662C462.746 322.872 463.083 324.268 463.083 325.852ZM459.541 324.783C459.522 323.534 459.076 322.533 458.201 321.781C457.329 321.029 456.248 320.652 454.957 320.652C453.787 320.652 452.784 321.029 451.951 321.781C451.117 322.515 450.623 323.514 450.463 324.783H459.541ZM469.816 320.444C470.311 319.612 470.966 318.967 471.781 318.512C472.614 318.037 473.596 317.799 474.727 317.799V321.306H473.864C472.534 321.306 471.522 321.642 470.828 322.316C470.153 322.99 469.816 324.159 469.816 325.823V334.441H466.423V318.066H469.816V320.444ZM483.799 334.709C482.51 334.709 481.349 334.48 480.316 334.025C479.304 333.55 478.501 332.916 477.905 332.123C477.31 331.312 476.992 330.409 476.953 329.419H480.465C480.525 330.111 480.852 330.697 481.447 331.172C482.063 331.627 482.826 331.856 483.739 331.856C484.692 331.856 485.427 331.677 485.942 331.321C486.477 330.943 486.745 330.468 486.745 329.894C486.745 329.279 486.448 328.824 485.852 328.527C485.278 328.23 484.355 327.903 483.084 327.546C481.855 327.21 480.852 326.884 480.078 326.566C479.304 326.248 478.629 325.763 478.054 325.11C477.498 324.456 477.221 323.594 477.221 322.524C477.221 321.653 477.48 320.86 477.995 320.147C478.51 319.413 479.245 318.839 480.197 318.423C481.17 318.007 482.281 317.799 483.531 317.799C485.397 317.799 486.894 318.274 488.025 319.225C489.177 320.156 489.791 321.434 489.871 323.059H486.478C486.418 322.325 486.12 321.742 485.585 321.306C485.049 320.869 484.325 320.652 483.412 320.652C482.519 320.652 481.834 320.821 481.358 321.157C480.882 321.493 480.644 321.939 480.644 322.494C480.644 322.931 480.802 323.297 481.12 323.594C481.438 323.891 481.825 324.129 482.281 324.307C482.736 324.465 483.412 324.673 484.305 324.931C485.495 325.249 486.468 325.576 487.222 325.912C487.995 326.23 488.659 326.705 489.216 327.338C489.772 327.972 490.058 328.815 490.079 329.864C490.079 330.795 489.82 331.627 489.305 332.361C488.79 333.095 488.055 333.668 487.103 334.084C486.171 334.501 485.069 334.709 483.799 334.709Z" fill="#4E4B66"/>
</g>
<path d="M144.758 520.5H141.381L148.97 499.409H152.647L160.237 520.5H156.859L150.896 503.24H150.731L144.758 520.5ZM145.325 512.241H156.282V514.918H145.325V512.241ZM163.035 520.5V504.682H166.011V507.195H166.176C166.465 506.343 166.973 505.674 167.7 505.186C168.435 504.692 169.266 504.445 170.193 504.445C170.385 504.445 170.611 504.452 170.872 504.466C171.14 504.479 171.349 504.496 171.5 504.517V507.462C171.377 507.428 171.157 507.39 170.841 507.349C170.526 507.301 170.21 507.277 169.894 507.277C169.166 507.277 168.517 507.431 167.948 507.74C167.385 508.042 166.938 508.465 166.609 509.007C166.279 509.543 166.114 510.154 166.114 510.84V520.5H163.035ZM180.416 520.819C178.858 520.819 177.516 520.486 176.39 519.82C175.271 519.147 174.405 518.203 173.794 516.988C173.19 515.766 172.888 514.335 172.888 512.694C172.888 511.074 173.19 509.646 173.794 508.41C174.405 507.174 175.257 506.209 176.348 505.516C177.447 504.823 178.731 504.476 180.2 504.476C181.092 504.476 181.958 504.623 182.795 504.919C183.633 505.214 184.385 505.677 185.05 506.309C185.716 506.941 186.242 507.761 186.626 508.77C187.011 509.773 187.203 510.991 187.203 512.426V513.518H174.629V511.211H184.185C184.185 510.401 184.021 509.683 183.691 509.059C183.362 508.427 182.898 507.929 182.301 507.565C181.71 507.201 181.017 507.02 180.221 507.02C179.356 507.02 178.6 507.232 177.955 507.658C177.316 508.077 176.822 508.626 176.472 509.306C176.129 509.979 175.957 510.71 175.957 511.499V513.301C175.957 514.359 176.142 515.258 176.513 516C176.891 516.741 177.416 517.308 178.089 517.699C178.762 518.083 179.548 518.276 180.447 518.276C181.031 518.276 181.563 518.193 182.043 518.028C182.524 517.857 182.939 517.603 183.289 517.266C183.64 516.93 183.907 516.515 184.093 516.02L187.007 516.545C186.774 517.404 186.355 518.155 185.751 518.801C185.153 519.439 184.402 519.937 183.495 520.294C182.596 520.644 181.57 520.819 180.416 520.819ZM198.541 520.5V499.409H201.723V517.761H211.28V520.5H198.541ZM221.481 520.819C219.922 520.819 218.58 520.486 217.454 519.82C216.335 519.147 215.47 518.203 214.859 516.988C214.255 515.766 213.953 514.335 213.953 512.694C213.953 511.074 214.255 509.646 214.859 508.41C215.47 507.174 216.321 506.209 217.413 505.516C218.511 504.823 219.795 504.476 221.264 504.476C222.157 504.476 223.022 504.623 223.86 504.919C224.697 505.214 225.449 505.677 226.115 506.309C226.781 506.941 227.306 507.761 227.691 508.77C228.075 509.773 228.267 510.991 228.267 512.426V513.518H215.693V511.211H225.25C225.25 510.401 225.085 509.683 224.756 509.059C224.426 508.427 223.963 507.929 223.365 507.565C222.775 507.201 222.081 507.02 221.285 507.02C220.42 507.02 219.665 507.232 219.019 507.658C218.381 508.077 217.887 508.626 217.536 509.306C217.193 509.979 217.022 510.71 217.022 511.499V513.301C217.022 514.359 217.207 515.258 217.578 516C217.955 516.741 218.48 517.308 219.153 517.699C219.826 518.083 220.612 518.276 221.512 518.276C222.095 518.276 222.627 518.193 223.108 518.028C223.588 517.857 224.004 517.603 224.354 517.266C224.704 516.93 224.972 516.515 225.157 516.02L228.072 516.545C227.838 517.404 227.419 518.155 226.815 518.801C226.218 519.439 225.466 519.937 224.56 520.294C223.66 520.644 222.634 520.819 221.481 520.819ZM243.537 508.544L240.746 509.038C240.63 508.681 240.444 508.341 240.19 508.018C239.943 507.696 239.607 507.431 239.181 507.225C238.755 507.02 238.223 506.917 237.585 506.917C236.713 506.917 235.985 507.112 235.401 507.504C234.818 507.888 234.526 508.386 234.526 508.997C234.526 509.525 234.722 509.951 235.113 510.274C235.504 510.596 236.136 510.861 237.008 511.067L239.521 511.643C240.976 511.98 242.061 512.498 242.775 513.199C243.489 513.899 243.846 514.808 243.846 515.928C243.846 516.875 243.571 517.719 243.022 518.461C242.48 519.196 241.721 519.772 240.746 520.191C239.778 520.61 238.656 520.819 237.379 520.819C235.607 520.819 234.162 520.442 233.043 519.686C231.924 518.924 231.237 517.843 230.983 516.442L233.96 515.989C234.145 516.765 234.526 517.352 235.103 517.75C235.679 518.142 236.431 518.337 237.358 518.337C238.367 518.337 239.174 518.128 239.778 517.709C240.382 517.283 240.684 516.765 240.684 516.154C240.684 515.66 240.499 515.244 240.128 514.908C239.764 514.572 239.205 514.318 238.45 514.146L235.772 513.559C234.296 513.223 233.204 512.687 232.497 511.952C231.797 511.218 231.447 510.288 231.447 509.162C231.447 508.228 231.708 507.411 232.23 506.711C232.751 506.01 233.472 505.464 234.392 505.073C235.312 504.675 236.366 504.476 237.554 504.476C239.263 504.476 240.609 504.847 241.591 505.588C242.572 506.323 243.221 507.308 243.537 508.544ZM259.085 508.544L256.294 509.038C256.177 508.681 255.992 508.341 255.738 508.018C255.491 507.696 255.154 507.431 254.729 507.225C254.303 507.02 253.771 506.917 253.133 506.917C252.261 506.917 251.533 507.112 250.949 507.504C250.366 507.888 250.074 508.386 250.074 508.997C250.074 509.525 250.27 509.951 250.661 510.274C251.052 510.596 251.684 510.861 252.556 511.067L255.069 511.643C256.524 511.98 257.609 512.498 258.323 513.199C259.037 513.899 259.394 514.808 259.394 515.928C259.394 516.875 259.119 517.719 258.57 518.461C258.028 519.196 257.269 519.772 256.294 520.191C255.326 520.61 254.204 520.819 252.927 520.819C251.155 520.819 249.71 520.442 248.591 519.686C247.472 518.924 246.785 517.843 246.531 516.442L249.508 515.989C249.693 516.765 250.074 517.352 250.651 517.75C251.227 518.142 251.979 518.337 252.906 518.337C253.915 518.337 254.722 518.128 255.326 517.709C255.93 517.283 256.232 516.765 256.232 516.154C256.232 515.66 256.047 515.244 255.676 514.908C255.312 514.572 254.753 514.318 253.998 514.146L251.32 513.559C249.844 513.223 248.752 512.687 248.045 511.952C247.345 511.218 246.995 510.288 246.995 509.162C246.995 508.228 247.256 507.411 247.777 506.711C248.299 506.01 249.02 505.464 249.94 505.073C250.86 504.675 251.914 504.476 253.102 504.476C254.811 504.476 256.157 504.847 257.139 505.588C258.12 506.323 258.769 507.308 259.085 508.544ZM270.701 520.5V499.409H273.884V517.761H283.44V520.5H270.701ZM286.823 520.5V504.682H289.903V520.5H286.823ZM288.378 502.241C287.843 502.241 287.383 502.063 286.998 501.706C286.621 501.342 286.432 500.909 286.432 500.408C286.432 499.9 286.621 499.467 286.998 499.11C287.383 498.747 287.843 498.565 288.378 498.565C288.914 498.565 289.37 498.747 289.748 499.11C290.133 499.467 290.325 499.9 290.325 500.408C290.325 500.909 290.133 501.342 289.748 501.706C289.37 502.063 288.914 502.241 288.378 502.241ZM296.877 515.135L296.856 511.376H297.392L303.695 504.682H307.381L300.193 512.303H299.709L296.877 515.135ZM294.045 520.5V499.409H297.124V520.5H294.045ZM304.034 520.5L298.37 512.982L300.492 510.83L307.814 520.5H304.034ZM316.354 520.819C314.795 520.819 313.453 520.486 312.327 519.82C311.208 519.147 310.343 518.203 309.732 516.988C309.128 515.766 308.826 514.335 308.826 512.694C308.826 511.074 309.128 509.646 309.732 508.41C310.343 507.174 311.194 506.209 312.286 505.516C313.384 504.823 314.668 504.476 316.137 504.476C317.03 504.476 317.895 504.623 318.733 504.919C319.57 505.214 320.322 505.677 320.988 506.309C321.654 506.941 322.179 507.761 322.564 508.77C322.948 509.773 323.14 510.991 323.14 512.426V513.518H310.566V511.211H320.123C320.123 510.401 319.958 509.683 319.629 509.059C319.299 508.427 318.836 507.929 318.238 507.565C317.648 507.201 316.954 507.02 316.158 507.02C315.293 507.02 314.538 507.232 313.892 507.658C313.254 508.077 312.76 508.626 312.409 509.306C312.066 509.979 311.895 510.71 311.895 511.499V513.301C311.895 514.359 312.08 515.258 312.451 516C312.828 516.741 313.354 517.308 314.026 517.699C314.699 518.083 315.485 518.276 316.385 518.276C316.968 518.276 317.5 518.193 317.981 518.028C318.461 517.857 318.877 517.603 319.227 517.266C319.577 516.93 319.845 516.515 320.03 516.02L322.945 516.545C322.711 517.404 322.292 518.155 321.688 518.801C321.091 519.439 320.339 519.937 319.433 520.294C318.534 520.644 317.507 520.819 316.354 520.819ZM329.636 499.409V520.5H326.557V499.409H329.636ZM335.725 526.432C335.265 526.432 334.846 526.394 334.468 526.319C334.091 526.25 333.809 526.174 333.624 526.092L334.365 523.569C334.928 523.72 335.43 523.785 335.869 523.765C336.308 523.744 336.696 523.579 337.033 523.27C337.376 522.961 337.678 522.457 337.939 521.756L338.32 520.706L332.532 504.682H335.828L339.834 516.957H339.999L344.005 504.682H347.31L340.792 522.611C340.49 523.435 340.105 524.132 339.638 524.702C339.171 525.278 338.615 525.711 337.97 525.999C337.325 526.288 336.576 526.432 335.725 526.432ZM357.086 502.148V499.409H373.409V502.148H366.828V520.5H363.656V502.148H357.086ZM381.138 520.819C379.655 520.819 378.361 520.479 377.255 519.8C376.15 519.12 375.292 518.169 374.681 516.947C374.07 515.725 373.764 514.297 373.764 512.663C373.764 511.022 374.07 509.587 374.681 508.358C375.292 507.129 376.15 506.175 377.255 505.495C378.361 504.816 379.655 504.476 381.138 504.476C382.621 504.476 383.915 504.816 385.02 505.495C386.126 506.175 386.984 507.129 387.595 508.358C388.206 509.587 388.511 511.022 388.511 512.663C388.511 514.297 388.206 515.725 387.595 516.947C386.984 518.169 386.126 519.12 385.02 519.8C383.915 520.479 382.621 520.819 381.138 520.819ZM381.148 518.234C382.109 518.234 382.906 517.98 383.537 517.472C384.169 516.964 384.636 516.288 384.938 515.444C385.247 514.599 385.401 513.669 385.401 512.653C385.401 511.643 385.247 510.717 384.938 509.872C384.636 509.021 384.169 508.338 383.537 507.823C382.906 507.308 382.109 507.05 381.148 507.05C380.18 507.05 379.377 507.308 378.738 507.823C378.107 508.338 377.636 509.021 377.327 509.872C377.025 510.717 376.874 511.643 376.874 512.653C376.874 513.669 377.025 514.599 377.327 515.444C377.636 516.288 378.107 516.964 378.738 517.472C379.377 517.98 380.18 518.234 381.148 518.234ZM399.87 520.5V499.409H407.388C409.022 499.409 410.378 499.691 411.456 500.254C412.541 500.817 413.351 501.596 413.886 502.591C414.422 503.58 414.69 504.723 414.69 506.021C414.69 507.311 414.418 508.448 413.876 509.429C413.341 510.404 412.53 511.163 411.446 511.705C410.368 512.248 409.012 512.519 407.378 512.519H401.683V509.779H407.089C408.119 509.779 408.957 509.632 409.602 509.337C410.254 509.041 410.732 508.612 411.034 508.049C411.336 507.486 411.487 506.81 411.487 506.021C411.487 505.224 411.332 504.534 411.023 503.951C410.721 503.367 410.244 502.921 409.592 502.612C408.947 502.296 408.099 502.138 407.048 502.138H403.053V520.5H399.87ZM410.282 510.984L415.493 520.5H411.868L406.76 510.984H410.282ZM424.934 520.819C423.375 520.819 422.033 520.486 420.907 519.82C419.788 519.147 418.923 518.203 418.312 516.988C417.708 515.766 417.406 514.335 417.406 512.694C417.406 511.074 417.708 509.646 418.312 508.41C418.923 507.174 419.774 506.209 420.866 505.516C421.964 504.823 423.248 504.476 424.718 504.476C425.61 504.476 426.475 504.623 427.313 504.919C428.15 505.214 428.902 505.677 429.568 506.309C430.234 506.941 430.759 507.761 431.144 508.77C431.528 509.773 431.72 510.991 431.72 512.426V513.518H419.146V511.211H428.703C428.703 510.401 428.538 509.683 428.209 509.059C427.879 508.427 427.416 507.929 426.818 507.565C426.228 507.201 425.535 507.02 424.738 507.02C423.873 507.02 423.118 507.232 422.473 507.658C421.834 508.077 421.34 508.626 420.99 509.306C420.646 509.979 420.475 510.71 420.475 511.499V513.301C420.475 514.359 420.66 515.258 421.031 516C421.408 516.741 421.934 517.308 422.606 517.699C423.279 518.083 424.065 518.276 424.965 518.276C425.548 518.276 426.08 518.193 426.561 518.028C427.042 517.857 427.457 517.603 427.807 517.266C428.157 516.93 428.425 516.515 428.61 516.02L431.525 516.545C431.291 517.404 430.872 518.155 430.268 518.801C429.671 519.439 428.919 519.937 428.013 520.294C427.114 520.644 426.087 520.819 424.934 520.819ZM442.521 504.682V507.153H433.88V504.682H442.521ZM436.198 500.892H439.277V515.855C439.277 516.453 439.366 516.902 439.545 517.205C439.723 517.5 439.953 517.702 440.235 517.812C440.523 517.915 440.835 517.967 441.172 517.967C441.419 517.967 441.635 517.949 441.82 517.915C442.006 517.881 442.15 517.853 442.253 517.833L442.809 520.376C442.631 520.445 442.377 520.514 442.047 520.582C441.717 520.658 441.306 520.699 440.811 520.706C440.001 520.72 439.246 520.576 438.546 520.273C437.845 519.971 437.279 519.504 436.846 518.873C436.414 518.241 436.198 517.448 436.198 516.494V500.892ZM455.947 513.94V504.682H459.037V520.5H456.009V517.761H455.844C455.48 518.605 454.897 519.309 454.093 519.872C453.297 520.428 452.305 520.706 451.117 520.706C450.101 520.706 449.202 520.483 448.419 520.037C447.643 519.583 447.032 518.914 446.586 518.028C446.147 517.143 445.927 516.048 445.927 514.743V504.682H449.006V514.373C449.006 515.45 449.305 516.309 449.902 516.947C450.499 517.586 451.275 517.905 452.229 517.905C452.806 517.905 453.379 517.761 453.949 517.472C454.526 517.184 455.003 516.748 455.381 516.164C455.765 515.581 455.954 514.839 455.947 513.94ZM463.174 520.5V504.682H466.15V507.195H466.315C466.603 506.343 467.111 505.674 467.839 505.186C468.574 504.692 469.404 504.445 470.331 504.445C470.524 504.445 470.75 504.452 471.011 504.466C471.279 504.479 471.488 504.496 471.639 504.517V507.462C471.516 507.428 471.296 507.39 470.98 507.349C470.664 507.301 470.348 507.277 470.033 507.277C469.305 507.277 468.656 507.431 468.086 507.74C467.523 508.042 467.077 508.465 466.747 509.007C466.418 509.543 466.253 510.154 466.253 510.84V520.5H463.174ZM477.383 511.108V520.5H474.304V504.682H477.259V507.256H477.455C477.819 506.419 478.389 505.746 479.165 505.238C479.947 504.73 480.933 504.476 482.12 504.476C483.198 504.476 484.142 504.702 484.952 505.156C485.762 505.602 486.391 506.268 486.837 507.153C487.283 508.039 487.506 509.134 487.506 510.439V520.5H484.427V510.809C484.427 509.663 484.128 508.767 483.531 508.121C482.934 507.469 482.113 507.143 481.07 507.143C480.356 507.143 479.721 507.298 479.165 507.607C478.615 507.915 478.179 508.369 477.857 508.966C477.541 509.556 477.383 510.27 477.383 511.108ZM498.518 502.148V499.409H514.841V502.148H508.26V520.5H505.088V502.148H498.518ZM522.569 520.819C521.086 520.819 519.792 520.479 518.687 519.8C517.582 519.12 516.723 518.169 516.112 516.947C515.501 515.725 515.196 514.297 515.196 512.663C515.196 511.022 515.501 509.587 516.112 508.358C516.723 507.129 517.582 506.175 518.687 505.495C519.792 504.816 521.086 504.476 522.569 504.476C524.052 504.476 525.346 504.816 526.452 505.495C527.557 506.175 528.415 507.129 529.026 508.358C529.637 509.587 529.943 511.022 529.943 512.663C529.943 514.297 529.637 515.725 529.026 516.947C528.415 518.169 527.557 519.12 526.452 519.8C525.346 520.479 524.052 520.819 522.569 520.819ZM522.58 518.234C523.541 518.234 524.337 517.98 524.969 517.472C525.601 516.964 526.067 516.288 526.369 515.444C526.678 514.599 526.833 513.669 526.833 512.653C526.833 511.643 526.678 510.717 526.369 509.872C526.067 509.021 525.601 508.338 524.969 507.823C524.337 507.308 523.541 507.05 522.58 507.05C521.612 507.05 520.808 507.308 520.17 507.823C519.538 508.338 519.068 509.021 518.759 509.872C518.457 510.717 518.306 511.643 518.306 512.653C518.306 513.669 518.457 514.599 518.759 515.444C519.068 516.288 519.538 516.964 520.17 517.472C520.808 517.98 521.612 518.234 522.58 518.234ZM543.084 520.5H539.706L547.296 499.409H550.972L558.562 520.5H555.184L549.221 503.24H549.057L543.084 520.5ZM543.65 512.241H554.607V514.918H543.65V512.241ZM573.412 520.5L567.563 499.409H570.91L575.019 515.742H575.214L579.488 499.409H582.804L587.078 515.752H587.274L591.372 499.409H594.73L588.87 520.5H585.667L581.228 504.702H581.064L576.625 520.5H573.412ZM602.644 520.819C601.085 520.819 599.743 520.486 598.617 519.82C597.498 519.147 596.633 518.203 596.022 516.988C595.418 515.766 595.116 514.335 595.116 512.694C595.116 511.074 595.418 509.646 596.022 508.41C596.633 507.174 597.484 506.209 598.576 505.516C599.674 504.823 600.958 504.476 602.428 504.476C603.32 504.476 604.185 504.623 605.023 504.919C605.86 505.214 606.612 505.677 607.278 506.309C607.944 506.941 608.469 507.761 608.854 508.77C609.238 509.773 609.43 510.991 609.43 512.426V513.518H596.856V511.211H606.413C606.413 510.401 606.248 509.683 605.919 509.059C605.589 508.427 605.126 507.929 604.528 507.565C603.938 507.201 603.245 507.02 602.448 507.02C601.583 507.02 600.828 507.232 600.182 507.658C599.544 508.077 599.05 508.626 598.7 509.306C598.356 509.979 598.185 510.71 598.185 511.499V513.301C598.185 514.359 598.37 515.258 598.741 516C599.118 516.741 599.644 517.308 600.316 517.699C600.989 518.083 601.775 518.276 602.675 518.276C603.258 518.276 603.79 518.193 604.271 518.028C604.751 517.857 605.167 517.603 605.517 517.266C605.867 516.93 606.135 516.515 606.32 516.02L609.235 516.545C609.001 517.404 608.582 518.155 607.978 518.801C607.381 519.439 606.629 519.937 605.723 520.294C604.824 520.644 603.797 520.819 602.644 520.819ZM613.094 520.5V499.409H616.173V507.246H616.359C616.537 506.917 616.794 506.536 617.131 506.103C617.467 505.67 617.934 505.293 618.531 504.97C619.129 504.641 619.918 504.476 620.9 504.476C622.177 504.476 623.317 504.799 624.319 505.444C625.321 506.089 626.108 507.02 626.677 508.235C627.254 509.45 627.542 510.912 627.542 512.622C627.542 514.331 627.258 515.797 626.688 517.019C626.118 518.234 625.335 519.172 624.34 519.831C623.344 520.483 622.208 520.809 620.931 520.809C619.97 520.809 619.184 520.648 618.573 520.325C617.968 520.002 617.495 519.625 617.152 519.192C616.808 518.76 616.544 518.375 616.359 518.039H616.101V520.5H613.094ZM616.111 512.591C616.111 513.703 616.273 514.678 616.595 515.516C616.918 516.353 617.385 517.009 617.996 517.483C618.607 517.949 619.355 518.183 620.241 518.183C621.161 518.183 621.93 517.939 622.548 517.452C623.166 516.957 623.633 516.288 623.948 515.444C624.271 514.599 624.432 513.648 624.432 512.591C624.432 511.547 624.274 510.61 623.959 509.779C623.65 508.949 623.183 508.293 622.558 507.812C621.94 507.332 621.168 507.092 620.241 507.092C619.348 507.092 618.593 507.322 617.975 507.782C617.364 508.242 616.901 508.884 616.585 509.707C616.269 510.531 616.111 511.492 616.111 512.591ZM642.853 508.544L640.063 509.038C639.946 508.681 639.761 508.341 639.507 508.018C639.259 507.696 638.923 507.431 638.497 507.225C638.072 507.02 637.54 506.917 636.901 506.917C636.029 506.917 635.301 507.112 634.718 507.504C634.134 507.888 633.842 508.386 633.842 508.997C633.842 509.525 634.038 509.951 634.429 510.274C634.821 510.596 635.452 510.861 636.324 511.067L638.837 511.643C640.293 511.98 641.377 512.498 642.091 513.199C642.805 513.899 643.162 514.808 643.162 515.928C643.162 516.875 642.888 517.719 642.339 518.461C641.796 519.196 641.038 519.772 640.063 520.191C639.095 520.61 637.972 520.819 636.695 520.819C634.924 520.819 633.479 520.442 632.36 519.686C631.24 518.924 630.554 517.843 630.3 516.442L633.276 515.989C633.461 516.765 633.842 517.352 634.419 517.75C634.996 518.142 635.748 518.337 636.674 518.337C637.684 518.337 638.49 518.128 639.095 517.709C639.699 517.283 640.001 516.765 640.001 516.154C640.001 515.66 639.815 515.244 639.445 514.908C639.081 514.572 638.521 514.318 637.766 514.146L635.089 513.559C633.612 513.223 632.521 512.687 631.814 511.952C631.113 511.218 630.763 510.288 630.763 509.162C630.763 508.228 631.024 507.411 631.546 506.711C632.068 506.01 632.789 505.464 633.709 505.073C634.629 504.675 635.682 504.476 636.87 504.476C638.58 504.476 639.925 504.847 640.907 505.588C641.889 506.323 642.538 507.308 642.853 508.544ZM646.548 520.5V504.682H649.627V520.5H646.548ZM648.103 502.241C647.568 502.241 647.108 502.063 646.723 501.706C646.345 501.342 646.157 500.909 646.157 500.408C646.157 499.9 646.345 499.467 646.723 499.11C647.108 498.747 647.568 498.565 648.103 498.565C648.639 498.565 649.095 498.747 649.473 499.11C649.857 499.467 650.049 499.9 650.049 500.408C650.049 500.909 649.857 501.342 649.473 501.706C649.095 502.063 648.639 502.241 648.103 502.241ZM661.154 504.682V507.153H652.513V504.682H661.154ZM654.83 500.892H657.91V515.855C657.91 516.453 657.999 516.902 658.177 517.205C658.356 517.5 658.586 517.702 658.867 517.812C659.156 517.915 659.468 517.967 659.804 517.967C660.052 517.967 660.268 517.949 660.453 517.915C660.639 517.881 660.783 517.853 660.886 517.833L661.442 520.376C661.263 520.445 661.009 520.514 660.68 520.582C660.35 520.658 659.938 520.699 659.444 520.706C658.634 520.72 657.879 520.576 657.178 520.273C656.478 519.971 655.912 519.504 655.479 518.873C655.047 518.241 654.83 517.448 654.83 516.494V500.892ZM671.207 520.819C669.649 520.819 668.307 520.486 667.181 519.82C666.062 519.147 665.196 518.203 664.585 516.988C663.981 515.766 663.679 514.335 663.679 512.694C663.679 511.074 663.981 509.646 664.585 508.41C665.196 507.174 666.048 506.209 667.139 505.516C668.238 504.823 669.522 504.476 670.991 504.476C671.884 504.476 672.749 504.623 673.586 504.919C674.424 505.214 675.176 505.677 675.841 506.309C676.507 506.941 677.033 507.761 677.417 508.77C677.802 509.773 677.994 510.991 677.994 512.426V513.518H665.42V511.211H674.976C674.976 510.401 674.812 509.683 674.482 509.059C674.153 508.427 673.689 507.929 673.092 507.565C672.501 507.201 671.808 507.02 671.012 507.02C670.147 507.02 669.391 507.232 668.746 507.658C668.107 508.077 667.613 508.626 667.263 509.306C666.92 509.979 666.748 510.71 666.748 511.499V513.301C666.748 514.359 666.933 515.258 667.304 516C667.682 516.741 668.207 517.308 668.88 517.699C669.553 518.083 670.339 518.276 671.238 518.276C671.822 518.276 672.354 518.193 672.834 518.028C673.315 517.857 673.73 517.603 674.08 517.266C674.431 516.93 674.698 516.515 674.884 516.02L677.798 516.545C677.565 517.404 677.146 518.155 676.542 518.801C675.944 519.439 675.193 519.937 674.286 520.294C673.387 520.644 672.361 520.819 671.207 520.819ZM253.494 568.5H250.116L257.706 547.409H261.383L268.973 568.5H265.595L259.632 551.24H259.467L253.494 568.5ZM254.061 560.241H265.018V562.918H254.061V560.241ZM279.214 552.682V555.153H270.275V552.682H279.214ZM272.726 568.5V550.849C272.726 549.86 272.943 549.04 273.375 548.387C273.808 547.728 274.381 547.237 275.095 546.915C275.809 546.585 276.585 546.42 277.422 546.42C278.04 546.42 278.569 546.472 279.008 546.575C279.448 546.671 279.774 546.76 279.987 546.843L279.266 549.335C279.122 549.294 278.936 549.246 278.71 549.191C278.483 549.129 278.208 549.098 277.886 549.098C277.137 549.098 276.602 549.283 276.279 549.654C275.963 550.025 275.805 550.56 275.805 551.261V568.5H272.726ZM289.775 552.682V555.153H281.135V552.682H289.775ZM283.452 548.892H286.531V563.855C286.531 564.453 286.62 564.902 286.799 565.205C286.977 565.5 287.207 565.702 287.489 565.812C287.777 565.915 288.09 565.967 288.426 565.967C288.673 565.967 288.889 565.949 289.075 565.915C289.26 565.881 289.404 565.853 289.507 565.833L290.063 568.376C289.885 568.445 289.631 568.514 289.301 568.582C288.972 568.658 288.56 568.699 288.066 568.706C287.255 568.72 286.5 568.576 285.8 568.273C285.1 567.971 284.533 567.504 284.101 566.873C283.668 566.241 283.452 565.448 283.452 564.494V548.892ZM299.829 568.819C298.27 568.819 296.928 568.486 295.802 567.82C294.683 567.147 293.818 566.203 293.207 564.988C292.603 563.766 292.301 562.335 292.301 560.694C292.301 559.074 292.603 557.646 293.207 556.41C293.818 555.174 294.669 554.209 295.761 553.516C296.859 552.823 298.143 552.476 299.613 552.476C300.505 552.476 301.37 552.623 302.208 552.919C303.045 553.214 303.797 553.677 304.463 554.309C305.129 554.941 305.654 555.761 306.039 556.77C306.423 557.773 306.615 558.991 306.615 560.426V561.518H294.041V559.211H303.598C303.598 558.401 303.433 557.683 303.104 557.059C302.774 556.427 302.311 555.929 301.713 555.565C301.123 555.201 300.43 555.02 299.633 555.02C298.768 555.02 298.013 555.232 297.368 555.658C296.729 556.077 296.235 556.626 295.885 557.306C295.541 557.979 295.37 558.71 295.37 559.499V561.301C295.37 562.359 295.555 563.258 295.926 564C296.303 564.741 296.829 565.308 297.501 565.699C298.174 566.083 298.96 566.276 299.86 566.276C300.443 566.276 300.975 566.193 301.456 566.028C301.937 565.857 302.352 565.603 302.702 565.266C303.052 564.93 303.32 564.515 303.505 564.02L306.42 564.545C306.186 565.404 305.768 566.155 305.163 566.801C304.566 567.439 303.814 567.937 302.908 568.294C302.009 568.644 300.982 568.819 299.829 568.819ZM310.032 568.5V552.682H313.008V555.195H313.173C313.461 554.343 313.969 553.674 314.697 553.186C315.432 552.692 316.262 552.445 317.189 552.445C317.381 552.445 317.608 552.452 317.869 552.466C318.137 552.479 318.346 552.496 318.497 552.517V555.462C318.373 555.428 318.154 555.39 317.838 555.349C317.522 555.301 317.206 555.277 316.891 555.277C316.163 555.277 315.514 555.431 314.944 555.74C314.381 556.042 313.935 556.465 313.605 557.007C313.276 557.543 313.111 558.154 313.111 558.84V568.5H310.032ZM330.865 568.5H327.487L335.077 547.409H338.754L346.344 568.5H342.966L337.003 551.24H336.838L330.865 568.5ZM331.432 560.241H342.389V562.918H331.432V560.241ZM357.064 568.5V547.409H364.788C366.285 547.409 367.524 547.656 368.506 548.151C369.487 548.638 370.222 549.301 370.709 550.138C371.197 550.969 371.441 551.906 371.441 552.95C371.441 553.828 371.279 554.57 370.957 555.174C370.634 555.771 370.201 556.252 369.659 556.616C369.123 556.973 368.533 557.234 367.888 557.398V557.604C368.588 557.639 369.271 557.865 369.937 558.284C370.61 558.696 371.166 559.283 371.605 560.045C372.045 560.807 372.264 561.734 372.264 562.826C372.264 563.904 372.01 564.872 371.502 565.73C371.001 566.581 370.225 567.257 369.175 567.759C368.125 568.253 366.782 568.5 365.148 568.5H357.064ZM360.246 565.771H364.839C366.364 565.771 367.455 565.476 368.114 564.885C368.773 564.295 369.103 563.557 369.103 562.671C369.103 562.005 368.935 561.394 368.598 560.838C368.262 560.282 367.781 559.839 367.157 559.51C366.539 559.18 365.804 559.015 364.953 559.015H360.246V565.771ZM360.246 556.533H364.51C365.224 556.533 365.866 556.396 366.436 556.121C367.012 555.847 367.469 555.462 367.805 554.968C368.149 554.467 368.32 553.876 368.32 553.197C368.32 552.325 368.015 551.594 367.404 551.003C366.793 550.413 365.855 550.118 364.592 550.118H360.246V556.533ZM380.395 568.85C379.393 568.85 378.486 568.665 377.676 568.294C376.866 567.916 376.224 567.371 375.75 566.657C375.284 565.943 375.05 565.067 375.05 564.031C375.05 563.138 375.222 562.403 375.565 561.827C375.908 561.25 376.372 560.793 376.955 560.457C377.539 560.121 378.191 559.867 378.912 559.695C379.633 559.523 380.368 559.393 381.116 559.304C382.063 559.194 382.832 559.105 383.423 559.036C384.013 558.96 384.442 558.84 384.71 558.675C384.978 558.511 385.112 558.243 385.112 557.872V557.8C385.112 556.901 384.858 556.204 384.35 555.71C383.848 555.215 383.1 554.968 382.104 554.968C381.068 554.968 380.251 555.198 379.653 555.658C379.063 556.111 378.655 556.616 378.428 557.172L375.534 556.513C375.877 555.552 376.379 554.776 377.038 554.185C377.704 553.588 378.469 553.156 379.334 552.888C380.199 552.613 381.109 552.476 382.063 552.476C382.695 552.476 383.364 552.551 384.071 552.702C384.785 552.847 385.451 553.114 386.069 553.506C386.694 553.897 387.206 554.457 387.604 555.184C388.002 555.905 388.201 556.842 388.201 557.996V568.5H385.194V566.337H385.07C384.871 566.736 384.573 567.127 384.174 567.511C383.776 567.896 383.265 568.215 382.64 568.469C382.015 568.723 381.267 568.85 380.395 568.85ZM381.064 566.379C381.916 566.379 382.643 566.21 383.248 565.874C383.859 565.538 384.322 565.098 384.638 564.556C384.961 564.007 385.122 563.42 385.122 562.795V560.756C385.012 560.866 384.799 560.969 384.483 561.065C384.174 561.154 383.821 561.233 383.423 561.301C383.024 561.363 382.637 561.422 382.259 561.477C381.881 561.525 381.566 561.566 381.312 561.6C380.714 561.676 380.168 561.803 379.674 561.981C379.187 562.16 378.795 562.417 378.5 562.754C378.212 563.083 378.068 563.522 378.068 564.072C378.068 564.834 378.349 565.411 378.912 565.802C379.475 566.186 380.192 566.379 381.064 566.379ZM398.224 568.809C396.947 568.809 395.807 568.483 394.805 567.831C393.809 567.172 393.027 566.234 392.457 565.019C391.894 563.797 391.612 562.331 391.612 560.622C391.612 558.912 391.897 557.45 392.467 556.235C393.044 555.02 393.833 554.089 394.836 553.444C395.838 552.799 396.974 552.476 398.244 552.476C399.226 552.476 400.016 552.641 400.613 552.97C401.217 553.293 401.684 553.67 402.014 554.103C402.35 554.536 402.611 554.917 402.796 555.246H402.982V547.409H406.061V568.5H403.054V566.039H402.796C402.611 566.375 402.343 566.76 401.993 567.192C401.65 567.625 401.176 568.002 400.572 568.325C399.968 568.648 399.185 568.809 398.224 568.809ZM398.904 566.183C399.789 566.183 400.538 565.949 401.149 565.483C401.767 565.009 402.233 564.353 402.549 563.516C402.872 562.678 403.033 561.703 403.033 560.591C403.033 559.492 402.875 558.531 402.559 557.707C402.244 556.884 401.78 556.242 401.169 555.782C400.558 555.322 399.803 555.092 398.904 555.092C397.977 555.092 397.204 555.332 396.586 555.812C395.969 556.293 395.502 556.949 395.186 557.779C394.877 558.61 394.722 559.547 394.722 560.591C394.722 561.648 394.88 562.599 395.196 563.444C395.512 564.288 395.979 564.957 396.597 565.452C397.222 565.939 397.99 566.183 398.904 566.183ZM418.378 568.5V547.409H431.601V550.148H421.56V556.575H430.911V559.304H421.56V565.761H431.724V568.5H418.378ZM438.035 552.682L441.526 558.84L445.048 552.682H448.415L443.482 560.591L448.456 568.5H445.089L441.526 562.589L437.973 568.5H434.595L439.517 560.591L434.657 552.682H438.035ZM451.577 574.432V552.682H454.584V555.246H454.841C455.02 554.917 455.277 554.536 455.614 554.103C455.95 553.67 456.417 553.293 457.014 552.97C457.612 552.641 458.401 552.476 459.383 552.476C460.66 552.476 461.8 552.799 462.802 553.444C463.804 554.089 464.59 555.02 465.16 556.235C465.737 557.45 466.025 558.912 466.025 560.622C466.025 562.331 465.74 563.797 465.171 565.019C464.601 566.234 463.818 567.172 462.823 567.831C461.827 568.483 460.691 568.809 459.414 568.809C458.453 568.809 457.667 568.648 457.055 568.325C456.451 568.002 455.978 567.625 455.634 567.192C455.291 566.76 455.027 566.375 454.841 566.039H454.656V574.432H451.577ZM454.594 560.591C454.594 561.703 454.756 562.678 455.078 563.516C455.401 564.353 455.868 565.009 456.479 565.483C457.09 565.949 457.838 566.183 458.724 566.183C459.644 566.183 460.413 565.939 461.031 565.452C461.649 564.957 462.115 564.288 462.431 563.444C462.754 562.599 462.915 561.648 462.915 560.591C462.915 559.547 462.757 558.61 462.441 557.779C462.133 556.949 461.666 556.293 461.041 555.812C460.423 555.332 459.651 555.092 458.724 555.092C457.831 555.092 457.076 555.322 456.458 555.782C455.847 556.242 455.384 556.884 455.068 557.707C454.752 558.531 454.594 559.492 454.594 560.591ZM476.293 568.819C474.734 568.819 473.392 568.486 472.266 567.82C471.147 567.147 470.282 566.203 469.671 564.988C469.067 563.766 468.765 562.335 468.765 560.694C468.765 559.074 469.067 557.646 469.671 556.41C470.282 555.174 471.133 554.209 472.225 553.516C473.323 552.823 474.607 552.476 476.076 552.476C476.969 552.476 477.834 552.623 478.672 552.919C479.509 553.214 480.261 553.677 480.927 554.309C481.593 554.941 482.118 555.761 482.503 556.77C482.887 557.773 483.079 558.991 483.079 560.426V561.518H470.505V559.211H480.062C480.062 558.401 479.897 557.683 479.568 557.059C479.238 556.427 478.775 555.929 478.177 555.565C477.587 555.201 476.893 555.02 476.097 555.02C475.232 555.02 474.477 555.232 473.831 555.658C473.193 556.077 472.699 556.626 472.348 557.306C472.005 557.979 471.834 558.71 471.834 559.499V561.301C471.834 562.359 472.019 563.258 472.39 564C472.767 564.741 473.292 565.308 473.965 565.699C474.638 566.083 475.424 566.276 476.324 566.276C476.907 566.276 477.439 566.193 477.92 566.028C478.4 565.857 478.816 565.603 479.166 565.266C479.516 564.93 479.784 564.515 479.969 564.02L482.884 564.545C482.65 565.404 482.231 566.155 481.627 566.801C481.03 567.439 480.278 567.937 479.372 568.294C478.473 568.644 477.446 568.819 476.293 568.819ZM486.496 568.5V552.682H489.472V555.195H489.637C489.925 554.343 490.433 553.674 491.161 553.186C491.895 552.692 492.726 552.445 493.653 552.445C493.845 552.445 494.072 552.452 494.333 552.466C494.6 552.479 494.81 552.496 494.961 552.517V555.462C494.837 555.428 494.618 555.39 494.302 555.349C493.986 555.301 493.67 555.277 493.354 555.277C492.627 555.277 491.978 555.431 491.408 555.74C490.845 556.042 490.399 556.465 490.069 557.007C489.74 557.543 489.575 558.154 489.575 558.84V568.5H486.496ZM497.626 568.5V552.682H500.705V568.5H497.626ZM499.181 550.241C498.645 550.241 498.185 550.063 497.801 549.706C497.423 549.342 497.234 548.909 497.234 548.408C497.234 547.9 497.423 547.467 497.801 547.11C498.185 546.747 498.645 546.565 499.181 546.565C499.716 546.565 500.173 546.747 500.55 547.11C500.935 547.467 501.127 547.9 501.127 548.408C501.127 548.909 500.935 549.342 500.55 549.706C500.173 550.063 499.716 550.241 499.181 550.241ZM511.665 568.819C510.106 568.819 508.764 568.486 507.638 567.82C506.519 567.147 505.654 566.203 505.043 564.988C504.439 563.766 504.137 562.335 504.137 560.694C504.137 559.074 504.439 557.646 505.043 556.41C505.654 555.174 506.505 554.209 507.597 553.516C508.695 552.823 509.979 552.476 511.449 552.476C512.341 552.476 513.206 552.623 514.044 552.919C514.881 553.214 515.633 553.677 516.299 554.309C516.965 554.941 517.49 555.761 517.875 556.77C518.259 557.773 518.451 558.991 518.451 560.426V561.518H505.877V559.211H515.434C515.434 558.401 515.269 557.683 514.94 557.059C514.61 556.427 514.147 555.929 513.549 555.565C512.959 555.201 512.266 555.02 511.469 555.02C510.604 555.02 509.849 555.232 509.203 555.658C508.565 556.077 508.071 556.626 507.721 557.306C507.377 557.979 507.206 558.71 507.206 559.499V561.301C507.206 562.359 507.391 563.258 507.762 564C508.139 564.741 508.665 565.308 509.337 565.699C510.01 566.083 510.796 566.276 511.696 566.276C512.279 566.276 512.811 566.193 513.292 566.028C513.772 565.857 514.188 565.603 514.538 565.266C514.888 564.93 515.156 564.515 515.341 564.02L518.256 564.545C518.022 565.404 517.603 566.155 516.999 566.801C516.402 567.439 515.65 567.937 514.744 568.294C513.845 568.644 512.818 568.819 511.665 568.819ZM524.947 559.108V568.5H521.868V552.682H524.823V555.256H525.019C525.383 554.419 525.953 553.746 526.729 553.238C527.511 552.73 528.496 552.476 529.684 552.476C530.762 552.476 531.706 552.702 532.516 553.156C533.326 553.602 533.955 554.268 534.401 555.153C534.847 556.039 535.07 557.134 535.07 558.439V568.5H531.991V558.809C531.991 557.663 531.692 556.767 531.095 556.121C530.498 555.469 529.677 555.143 528.634 555.143C527.92 555.143 527.285 555.298 526.729 555.607C526.179 555.915 525.743 556.369 525.421 556.966C525.105 557.556 524.947 558.27 524.947 559.108ZM545.863 568.819C544.332 568.819 543.014 568.473 541.908 567.779C540.81 567.079 539.965 566.114 539.375 564.885C538.784 563.656 538.489 562.249 538.489 560.663C538.489 559.056 538.791 557.639 539.396 556.41C540 555.174 540.851 554.209 541.949 553.516C543.048 552.823 544.342 552.476 545.832 552.476C547.033 552.476 548.104 552.699 549.045 553.145C549.986 553.585 550.744 554.203 551.321 554.999C551.905 555.795 552.251 556.726 552.361 557.79H549.364C549.199 557.048 548.822 556.41 548.231 555.874C547.648 555.339 546.865 555.071 545.883 555.071C545.025 555.071 544.273 555.298 543.628 555.751C542.99 556.197 542.492 556.835 542.135 557.666C541.778 558.49 541.599 559.465 541.599 560.591C541.599 561.744 541.774 562.74 542.125 563.577C542.475 564.415 542.969 565.064 543.608 565.524C544.253 565.984 545.012 566.214 545.883 566.214C546.467 566.214 546.996 566.107 547.469 565.895C547.95 565.675 548.352 565.362 548.674 564.957C549.004 564.552 549.234 564.065 549.364 563.495H552.361C552.251 564.518 551.918 565.431 551.362 566.234C550.806 567.038 550.061 567.669 549.127 568.129C548.201 568.589 547.112 568.819 545.863 568.819ZM562.471 568.819C560.913 568.819 559.571 568.486 558.445 567.82C557.326 567.147 556.461 566.203 555.85 564.988C555.245 563.766 554.943 562.335 554.943 560.694C554.943 559.074 555.245 557.646 555.85 556.41C556.461 555.174 557.312 554.209 558.404 553.516C559.502 552.823 560.786 552.476 562.255 552.476C563.148 552.476 564.013 552.623 564.85 552.919C565.688 553.214 566.44 553.677 567.106 554.309C567.772 554.941 568.297 555.761 568.681 556.77C569.066 557.773 569.258 558.991 569.258 560.426V561.518H556.684V559.211H566.241C566.241 558.401 566.076 557.683 565.746 557.059C565.417 556.427 564.953 555.929 564.356 555.565C563.766 555.201 563.072 555.02 562.276 555.02C561.411 555.02 560.655 555.232 560.01 555.658C559.372 556.077 558.877 556.626 558.527 557.306C558.184 557.979 558.012 558.71 558.012 559.499V561.301C558.012 562.359 558.198 563.258 558.568 564C558.946 564.741 559.471 565.308 560.144 565.699C560.817 566.083 561.603 566.276 562.502 566.276C563.086 566.276 563.618 566.193 564.099 566.028C564.579 565.857 564.994 565.603 565.345 565.266C565.695 564.93 565.963 564.515 566.148 564.02L569.062 564.545C568.829 565.404 568.41 566.155 567.806 566.801C567.209 567.439 566.457 567.937 565.551 568.294C564.651 568.644 563.625 568.819 562.471 568.819Z" fill="#4E4B66"/>
<defs>
<clipPath id="clip0_204_4555">
<rect width="424" height="402" fill="white" transform="translate(198 53.5)"/>
</clipPath>
</defs>
</svg>
