<svg width="20" height="20" viewBox="0 0 20 20" fill="none" xmlns="http://www.w3.org/2000/svg">
<path d="M1.75 2H4H4.59375L4.71875 2.625L4.8125 3H17.4062H19L18.5312 4.5L16.5 11H6.3125L6.59375 12.5H16.25H17V14H16.25H6H5.375L5.25 13.4062L3.375 3.5H1.75H1V2H1.75ZM6.03125 9.5H15.375L16.9375 4.5H5.09375L6.03125 9.5ZM6.5 18C5.9375 18 5.46875 17.7188 5.1875 17.25C4.90625 16.8125 4.90625 16.2188 5.1875 15.75C5.46875 15.3125 5.9375 15 6.5 15C7.03125 15 7.5 15.3125 7.78125 15.75C8.0625 16.2188 8.0625 16.8125 7.78125 17.25C7.5 17.7188 7.03125 18 6.5 18ZM17 16.5C17 17.0625 16.6875 17.5312 16.25 17.8125C15.7812 18.0938 15.1875 18.0938 14.75 17.8125C14.2812 17.5312 14 17.0625 14 16.5C14 15.9688 14.2812 15.5 14.75 15.2188C15.1875 14.9375 15.7812 14.9375 16.25 15.2188C16.6875 15.5 17 15.9688 17 16.5Z" fill="#4E4B66"/>
</svg>
