<svg width="26" height="23" viewBox="0 0 26 23" fill="none" xmlns="http://www.w3.org/2000/svg">
<path d="M1.77515 0H3.70874C4.65405 0 5.51343 0.558594 5.90015 1.375H23.5603C24.6775 1.375 25.4939 2.44922 25.1931 3.56641L23.4314 10.0977C23.0876 11.4727 21.8416 12.375 20.4666 12.375H8.04858L8.3064 13.6211C8.39233 14.0938 8.82202 14.4375 9.29468 14.4375H21.7126C22.2712 14.4375 22.7439 14.9102 22.7439 15.4688C22.7439 16.0703 22.2712 16.5 21.7126 16.5H9.29468C7.83374 16.5 6.54468 15.4688 6.28687 14.0078L4.05249 2.36328C4.00952 2.19141 3.88062 2.0625 3.70874 2.0625H1.77515C1.17358 2.0625 0.743896 1.63281 0.743896 1.03125C0.743896 0.472656 1.17358 0 1.77515 0ZM6.3728 3.4375L7.66187 10.3125H20.4666C20.9392 10.3125 21.3259 10.0117 21.4548 9.58203L23.0876 3.4375H6.3728ZM8.3064 22C7.53296 22 6.88843 21.6133 6.50171 20.9688C6.11499 20.3672 6.11499 19.5508 6.50171 18.9062C6.88843 18.3047 7.53296 17.875 8.3064 17.875C9.03687 17.875 9.6814 18.3047 10.0681 18.9062C10.4548 19.5508 10.4548 20.3672 10.0681 20.9688C9.6814 21.6133 9.03687 22 8.3064 22ZM22.7439 19.9375C22.7439 20.7109 22.3142 21.3555 21.7126 21.7422C21.0681 22.1289 20.2517 22.1289 19.6501 21.7422C19.0056 21.3555 18.6189 20.7109 18.6189 19.9375C18.6189 19.207 19.0056 18.5625 19.6501 18.1758C20.2517 17.7891 21.0681 17.7891 21.7126 18.1758C22.3142 18.5625 22.7439 19.207 22.7439 19.9375Z" fill="#BDA18C"/>
</svg>
