<svg width="390" height="80" viewBox="0 0 390 80" fill="none" xmlns="http://www.w3.org/2000/svg">
<path d="M73.1852 22.5H2.81481C1.26024 22.5 0 23.7054 0 25.1923V54.8077C0 56.2946 1.26024 57.5 2.81481 57.5H73.1852C74.7398 57.5 76 56.2946 76 54.8077V25.1923C76 23.7054 74.7398 22.5 73.1852 22.5Z" fill="#75B2C5"/>
<path d="M30.6977 46.0579H28.8984V35.4872H35.1425V36.9477H30.6977V40.2447H34.8553V41.698H30.6977V46.0579ZM38.7483 38.0539V46.0579H36.9719V38.0539H38.7483ZM37.8714 34.9883C38.1436 34.9883 38.3779 35.0582 38.5744 35.198C38.776 35.3377 38.8768 35.5787 38.8768 35.921C38.8768 36.2584 38.776 36.4994 38.5744 36.644C38.3779 36.7838 38.1436 36.8537 37.8714 36.8537C37.5892 36.8537 37.3498 36.7838 37.1533 36.644C36.9618 36.4994 36.8661 36.2584 36.8661 35.921C36.8661 35.5787 36.9618 35.3377 37.1533 35.198C37.3498 35.0582 37.5892 34.9883 37.8714 34.9883ZM43.1479 41.9656L40.3509 38.0539H42.3768L44.2893 40.8666L46.2094 38.0539H48.2276L45.4156 41.9656L48.3713 46.0579H46.3379L44.2893 43.0573L42.2332 46.0579H40.2148L43.1479 41.9656Z" fill="white"/>
<path d="M182.612 41.6414C182.612 42.2799 182.464 42.83 182.168 43.2917C181.877 43.7535 181.457 44.107 180.907 44.3526C180.362 44.5982 179.71 44.721 178.953 44.721C178.583 44.721 178.23 44.6989 177.892 44.6548C177.555 44.6105 177.236 44.5466 176.936 44.4631C176.64 44.3747 176.37 44.2691 176.125 44.1464V42.4812C176.536 42.6728 176.996 42.8472 177.504 43.0044C178.012 43.1566 178.53 43.2328 179.057 43.2328C179.486 43.2328 179.842 43.1738 180.124 43.056C180.41 42.9331 180.623 42.7612 180.761 42.5402C180.9 42.3142 180.969 42.0514 180.969 41.7519C180.969 41.4327 180.889 41.1624 180.727 40.9414C180.565 40.7203 180.32 40.519 179.992 40.3373C179.669 40.1506 179.262 39.9517 178.772 39.7404C178.44 39.5981 178.121 39.436 177.816 39.2542C177.516 39.0725 177.248 38.8589 177.012 38.6133C176.776 38.3677 176.589 38.0779 176.451 37.7439C176.317 37.4049 176.25 37.0071 176.25 36.5503C176.25 35.9413 176.386 35.4206 176.659 34.9884C176.936 34.5561 177.324 34.2246 177.823 33.9937C178.327 33.7629 178.913 33.6475 179.583 33.6475C180.115 33.6475 180.614 33.7064 181.08 33.8243C181.551 33.9422 182.014 34.1092 182.466 34.3253L181.94 35.7473C181.524 35.5655 181.12 35.4206 180.727 35.3126C180.339 35.2045 179.941 35.1505 179.535 35.1505C179.184 35.1505 178.886 35.207 178.641 35.3199C178.396 35.4329 178.209 35.5925 178.079 35.7988C177.955 36.0001 177.892 36.2408 177.892 36.5208C177.892 36.8352 177.964 37.1004 178.107 37.3165C178.255 37.5278 178.481 37.7218 178.786 37.8986C179.096 38.0754 179.493 38.2719 179.978 38.4881C180.537 38.7336 181.011 38.9914 181.399 39.2616C181.792 39.5317 182.092 39.8559 182.3 40.2341C182.508 40.6074 182.612 41.0766 182.612 41.6414ZM187.408 36.2629C188.378 36.2629 189.11 36.4914 189.605 36.9481C190.104 37.4049 190.353 38.1171 190.353 39.0848V44.5737H189.196L188.884 43.417H188.828C188.611 43.7117 188.387 43.9548 188.156 44.1464C187.925 44.3379 187.657 44.4804 187.352 44.5737C187.052 44.6719 186.685 44.721 186.25 44.721C185.793 44.721 185.384 44.6326 185.024 44.4557C184.663 44.274 184.379 43.999 184.171 43.6306C183.963 43.2622 183.859 42.7956 183.859 42.2307C183.859 41.3909 184.153 40.7597 184.739 40.3373C185.331 39.9148 186.222 39.6816 187.415 39.6373L188.745 39.5858V39.1585C188.745 38.5936 188.62 38.1908 188.371 37.9501C188.126 37.7095 187.78 37.5891 187.331 37.5891C186.948 37.5891 186.576 37.6481 186.216 37.7659C185.855 37.8839 185.504 38.0287 185.162 38.2006L184.635 36.9777C185.01 36.7664 185.435 36.5945 185.911 36.4619C186.391 36.3293 186.89 36.2629 187.408 36.2629ZM188.738 40.6762L187.747 40.713C186.934 40.7425 186.363 40.8898 186.035 41.155C185.707 41.4203 185.543 41.7837 185.543 42.2455C185.543 42.6483 185.657 42.9429 185.883 43.1297C186.109 43.3114 186.407 43.4023 186.777 43.4023C187.341 43.4023 187.807 43.2328 188.177 42.8939C188.551 42.55 188.738 42.0465 188.738 41.3835V40.6762ZM194.386 44.5737L191.469 36.4177H193.194L194.775 41.2067C194.876 41.5112 194.969 41.8403 195.052 42.1939C195.135 42.5476 195.193 42.8447 195.225 43.0854H195.28C195.313 42.8349 195.375 42.5353 195.468 42.1866C195.56 41.8329 195.655 41.5062 195.752 41.2067L197.332 36.4177H199.051L196.133 44.5737H194.386ZM203.271 36.2629C203.955 36.2629 204.542 36.4128 205.031 36.7123C205.521 37.012 205.898 37.4369 206.161 37.987C206.424 38.5371 206.556 39.1953 206.556 39.9615V40.8898H201.435C201.453 41.6806 201.652 42.2897 202.031 42.717C202.414 43.1444 202.95 43.358 203.639 43.358C204.128 43.358 204.567 43.3088 204.955 43.2106C205.348 43.1075 205.752 42.9576 206.168 42.7612V44.1684C205.785 44.36 205.394 44.5 204.997 44.5884C204.6 44.6768 204.124 44.721 203.569 44.721C202.816 44.721 202.153 44.5663 201.58 44.2568C201.012 43.9425 200.566 43.476 200.243 42.8571C199.924 42.2382 199.764 41.4694 199.764 40.551C199.764 39.6373 199.91 38.8613 200.201 38.2227C200.492 37.5842 200.901 37.098 201.428 36.764C201.954 36.4299 202.569 36.2629 203.271 36.2629ZM203.271 37.567C202.758 37.567 202.343 37.7439 202.024 38.0975C201.71 38.4512 201.525 38.9694 201.469 39.652H204.962C204.958 39.2444 204.893 38.8834 204.768 38.569C204.648 38.2547 204.463 38.0091 204.214 37.8323C203.969 37.6554 203.655 37.567 203.271 37.567ZM213.896 44.5737H212.246V33.8022H217.971V35.2905H213.896V38.6501H217.707V40.131H213.896V44.5737ZM226.439 40.4773C226.439 41.155 226.356 41.7568 226.19 42.2823C226.023 42.8079 225.78 43.2524 225.462 43.6159C225.143 43.9744 224.76 44.2495 224.311 44.441C223.863 44.6277 223.358 44.721 222.794 44.721C222.268 44.721 221.784 44.6277 221.345 44.441C220.906 44.2495 220.525 43.9744 220.202 43.6159C219.883 43.2524 219.636 42.8079 219.461 42.2823C219.285 41.7568 219.197 41.155 219.197 40.4773C219.197 39.5784 219.343 38.8171 219.634 38.1933C219.929 37.5646 220.35 37.0857 220.896 36.7566C221.44 36.4275 222.089 36.2629 222.842 36.2629C223.55 36.2629 224.173 36.4275 224.714 36.7566C225.254 37.0857 225.676 37.5646 225.982 38.1933C226.287 38.822 226.439 39.5833 226.439 40.4773ZM220.874 40.4773C220.874 41.0715 220.942 41.5799 221.075 42.0024C221.214 42.4248 221.427 42.7489 221.713 42.9749C221.999 43.1959 222.369 43.3065 222.821 43.3065C223.274 43.3065 223.644 43.1959 223.931 42.9749C224.217 42.7489 224.427 42.4248 224.561 42.0024C224.695 41.5799 224.762 41.0715 224.762 40.4773C224.762 39.8829 224.695 39.3794 224.561 38.9669C224.427 38.5494 224.217 38.2325 223.931 38.0165C223.644 37.7955 223.272 37.6849 222.815 37.6849C222.14 37.6849 221.648 37.9256 221.338 38.407C221.029 38.8883 220.874 39.5784 220.874 40.4773ZM232.198 36.2629C232.328 36.2629 232.469 36.2704 232.622 36.2851C232.773 36.2998 232.905 36.3194 233.017 36.344L232.864 37.9648C232.767 37.9354 232.646 37.9133 232.503 37.8986C232.365 37.8839 232.24 37.8764 232.13 37.8764C231.837 37.8764 231.561 37.928 231.297 38.0312C231.034 38.1294 230.8 38.2817 230.598 38.4881C230.394 38.6894 230.235 38.9424 230.119 39.2469C230.004 39.5514 229.946 39.905 229.946 40.3078V44.5737H228.31V36.4177H229.585L229.808 37.8543H229.883C230.036 37.5646 230.225 37.2993 230.452 37.0586C230.678 36.818 230.937 36.6265 231.228 36.484C231.524 36.3366 231.847 36.2629 232.198 36.2629ZM238.291 44.5737V33.8022H239.954V43.0707H244.257V44.5737H238.291ZM248.852 36.2629C249.823 36.2629 250.555 36.4914 251.049 36.9481C251.548 37.4049 251.797 38.1171 251.797 39.0848V44.5737H250.64L250.328 43.417H250.272C250.056 43.7117 249.831 43.9548 249.6 44.1464C249.37 44.3379 249.101 44.4804 248.796 44.5737C248.496 44.6719 248.129 44.721 247.695 44.721C247.237 44.721 246.828 44.6326 246.468 44.4557C246.108 44.274 245.824 43.999 245.616 43.6306C245.407 43.2622 245.303 42.7956 245.303 42.2307C245.303 41.3909 245.597 40.7597 246.183 40.3373C246.775 39.9148 247.667 39.6816 248.859 39.6373L250.189 39.5858V39.1585C250.189 38.5936 250.065 38.1908 249.816 37.9501C249.571 37.7095 249.224 37.5891 248.776 37.5891C248.393 37.5891 248.02 37.6481 247.659 37.7659C247.3 37.8839 246.949 38.0287 246.607 38.2006L246.079 36.9777C246.454 36.7664 246.879 36.5945 247.355 36.4619C247.836 36.3293 248.335 36.2629 248.852 36.2629ZM250.182 40.6762L249.191 40.713C248.379 40.7425 247.807 40.8898 247.48 41.155C247.152 41.4203 246.988 41.7837 246.988 42.2455C246.988 42.6483 247.101 42.9429 247.327 43.1297C247.554 43.3114 247.852 43.4023 248.221 43.4023C248.785 43.4023 249.251 43.2328 249.622 42.8939C249.995 42.55 250.182 42.0465 250.182 41.3835V40.6762ZM256.932 43.3212C257.145 43.3212 257.356 43.3016 257.563 43.2622C257.771 43.2181 257.96 43.1665 258.132 43.1075V44.419C257.952 44.5025 257.718 44.5737 257.432 44.6326C257.145 44.6916 256.847 44.721 256.537 44.721C256.103 44.721 255.713 44.6448 255.366 44.4926C255.02 44.3354 254.745 44.0678 254.542 43.6896C254.339 43.3114 254.237 42.7883 254.237 42.1202V37.7365H253.19V36.9629L254.313 36.3513L254.847 34.6053H255.873V36.4177H258.069V37.7365H255.873V42.0981C255.873 42.5108 255.97 42.8177 256.164 43.0191C256.358 43.2204 256.614 43.3212 256.932 43.3212ZM262.747 36.2629C263.431 36.2629 264.017 36.4128 264.508 36.7123C264.998 37.012 265.374 37.4369 265.638 37.987C265.9 38.5371 266.033 39.1953 266.033 39.9615V40.8898H260.911C260.929 41.6806 261.128 42.2897 261.506 42.717C261.891 43.1444 262.426 43.358 263.115 43.358C263.604 43.358 264.043 43.3088 264.431 43.2106C264.824 43.1075 265.228 42.9576 265.644 42.7612V44.1684C265.26 44.36 264.87 44.5 264.473 44.5884C264.075 44.6768 263.6 44.721 263.045 44.721C262.293 44.721 261.629 44.5663 261.057 44.2568C260.488 43.9425 260.042 43.476 259.719 42.8571C259.4 42.2382 259.24 41.4694 259.24 40.551C259.24 39.6373 259.385 38.8613 259.678 38.2227C259.969 37.5842 260.377 37.098 260.904 36.764C261.431 36.4299 262.046 36.2629 262.747 36.2629ZM262.747 37.567C262.235 37.567 261.818 37.7439 261.5 38.0975C261.186 38.4512 261.001 38.9694 260.946 39.652H264.438C264.434 39.2444 264.369 38.8834 264.244 38.569C264.124 38.2547 263.939 38.0091 263.69 37.8323C263.445 37.6554 263.13 37.567 262.747 37.567ZM271.756 36.2629C271.886 36.2629 272.027 36.2704 272.18 36.2851C272.332 36.2998 272.463 36.3194 272.575 36.344L272.422 37.9648C272.325 37.9354 272.204 37.9133 272.061 37.8986C271.923 37.8839 271.799 37.8764 271.688 37.8764C271.397 37.8764 271.119 37.928 270.856 38.0312C270.592 38.1294 270.359 38.2817 270.156 38.4881C269.952 38.6894 269.793 38.9424 269.678 39.2469C269.562 39.5514 269.504 39.905 269.504 40.3078V44.5737H267.868V36.4177H269.143L269.366 37.8543H269.441C269.594 37.5646 269.783 37.2993 270.01 37.0586C270.236 36.818 270.495 36.6265 270.786 36.484C271.082 36.3366 271.406 36.2629 271.756 36.2629Z" fill="#5D9BAE"/>
<path d="M173 45.4946H270.399V45.863H173V45.4946Z" fill="#5D9BAE"/>
<path d="M285.425 32C289.334 32 292.521 35.3891 292.521 39.5445C292.521 43.7293 289.334 47.0889 285.425 47.0889C281.489 47.0889 278.328 43.7293 278.328 39.5445C278.328 35.3891 281.489 32 285.425 32ZM285.425 43.7882C285.896 43.7882 286.312 43.3757 286.312 42.8452C286.312 42.3147 285.896 41.9021 285.425 41.9021C284.898 41.9021 284.538 42.3147 284.538 42.8452C284.538 43.3757 284.926 43.7882 285.425 43.7882ZM287.337 39.6034C287.948 39.2203 288.308 38.5424 288.308 37.8351C288.308 36.6859 287.449 35.7722 286.312 35.7722H284.898C283.845 35.7722 282.986 36.6859 282.986 37.8351C282.986 38.2183 283.29 38.5424 283.651 38.5424C284.011 38.5424 284.315 38.2183 284.315 37.8351C284.315 37.4816 284.565 37.1868 284.926 37.1868H286.339C286.673 37.1868 286.977 37.4816 286.977 37.8351C286.977 38.0709 286.867 38.2772 286.673 38.3951L285.092 39.3971C284.87 39.5445 284.76 39.7802 284.76 40.016V40.4875C284.76 40.8707 285.064 41.1948 285.425 41.1948C285.786 41.1948 286.09 40.8707 286.09 40.4875V40.4286L287.337 39.6034Z" fill="#D8D8D8"/>
<path d="M307.508 33.1543H309.025V48.0001H307.508V33.1543Z" fill="#999999"/>
<path d="M328.645 33.8027C329.518 33.8027 330.239 33.9157 330.807 34.1416C331.381 34.3676 331.805 34.7114 332.082 35.1731C332.365 35.6348 332.506 36.2218 332.506 36.934C332.506 37.4645 332.413 37.9164 332.228 38.2897C332.043 38.6629 331.801 38.9723 331.5 39.2179C331.2 39.4635 330.879 39.66 330.537 39.8074L333.413 44.5742H331.536L329.089 40.2568H327.46V44.5742H325.797V33.8027H328.645ZM328.534 35.2763H327.46V38.7979H328.611C329.382 38.7979 329.941 38.6458 330.288 38.3412C330.639 38.0367 330.814 37.5873 330.814 36.9929C330.814 36.3691 330.627 35.927 330.254 35.6667C329.883 35.4064 329.311 35.2763 328.534 35.2763ZM337.751 36.2635C338.436 36.2635 339.023 36.4134 339.512 36.7129C340.002 37.0125 340.378 37.4374 340.642 37.9875C340.904 38.5377 341.037 39.1959 341.037 39.962V40.8904H335.916C335.933 41.6812 336.132 42.2903 336.512 42.7175C336.895 43.1449 337.431 43.3586 338.119 43.3586C338.609 43.3586 339.048 43.3094 339.435 43.2112C339.828 43.1081 340.233 42.9582 340.649 42.7618V44.169C340.265 44.3606 339.874 44.5005 339.477 44.5889C339.079 44.6773 338.604 44.7216 338.049 44.7216C337.297 44.7216 336.633 44.5668 336.061 44.2574C335.492 43.943 335.046 43.4765 334.723 42.8576C334.404 42.2387 334.245 41.4699 334.245 40.5515C334.245 39.6379 334.391 38.8618 334.682 38.2233C334.973 37.5848 335.382 37.0985 335.908 36.7646C336.435 36.4305 337.05 36.2635 337.751 36.2635ZM337.751 37.5676C337.239 37.5676 336.823 37.7445 336.505 38.0981C336.19 38.4518 336.005 38.97 335.95 39.6526H339.443C339.438 39.2449 339.374 38.8839 339.249 38.5696C339.128 38.2552 338.943 38.0097 338.694 37.8329C338.449 37.656 338.136 37.5676 337.751 37.5676ZM351.544 36.2635C352.402 36.2635 353.049 36.4993 353.483 36.9708C353.922 37.4423 354.142 38.1988 354.142 39.24V44.5742H352.513V39.5495C352.513 38.9306 352.4 38.464 352.174 38.1496C351.947 37.8353 351.603 37.6781 351.141 37.6781C350.494 37.6781 350.027 37.8991 349.741 38.3412C349.46 38.7783 349.319 39.4144 349.319 40.2494V44.5742H347.69V39.5495C347.69 39.1369 347.639 38.793 347.537 38.518C347.44 38.238 347.29 38.0293 347.087 37.8917C346.883 37.7494 346.627 37.6781 346.318 37.6781C345.87 37.6781 345.511 37.7862 345.243 38.0022C344.98 38.2184 344.791 38.5377 344.675 38.9601C344.559 39.3776 344.501 39.8909 344.501 40.5V44.5742H342.873V36.4183H344.142L344.37 37.516H344.46C344.617 37.2312 344.811 36.9978 345.042 36.8161C345.278 36.6294 345.539 36.492 345.826 36.4036C346.112 36.3102 346.41 36.2635 346.719 36.2635C347.293 36.2635 347.775 36.3716 348.168 36.5877C348.561 36.7989 348.854 37.1231 349.048 37.5603H349.173C349.413 37.1182 349.748 36.7915 350.177 36.5804C350.608 36.3691 351.062 36.2635 351.544 36.2635ZM363.207 40.4778C363.207 41.1556 363.124 41.7574 362.957 42.2829C362.791 42.8085 362.548 43.2529 362.23 43.6165C361.911 43.975 361.527 44.2501 361.079 44.4416C360.631 44.6283 360.125 44.7216 359.562 44.7216C359.035 44.7216 358.552 44.6283 358.113 44.4416C357.674 44.2501 357.293 43.975 356.969 43.6165C356.651 43.2529 356.404 42.8085 356.229 42.2829C356.052 41.7574 355.965 41.1556 355.965 40.4778C355.965 39.5789 356.11 38.8177 356.401 38.1939C356.697 37.5652 357.117 37.0862 357.662 36.7572C358.207 36.4281 358.857 36.2635 359.61 36.2635C360.317 36.2635 360.941 36.4281 361.481 36.7572C362.022 37.0862 362.444 37.5652 362.749 38.1939C363.054 38.8226 363.207 39.5838 363.207 40.4778ZM357.642 40.4778C357.642 41.0721 357.708 41.5805 357.843 42.003C357.981 42.4253 358.194 42.7495 358.481 42.9754C358.767 43.1965 359.136 43.307 359.589 43.307C360.042 43.307 360.412 43.1965 360.698 42.9754C360.984 42.7495 361.195 42.4253 361.329 42.003C361.462 41.5805 361.53 41.0721 361.53 40.4778C361.53 39.8835 361.462 39.38 361.329 38.9674C361.195 38.55 360.984 38.2331 360.698 38.0171C360.412 37.796 360.039 37.6855 359.582 37.6855C358.908 37.6855 358.415 37.9262 358.106 38.4075C357.797 38.8888 357.642 39.5789 357.642 40.4778ZM366.831 44.5742L363.914 36.4183H365.64L367.219 41.2073C367.321 41.5118 367.414 41.8409 367.497 42.1945C367.58 42.5482 367.638 42.8453 367.67 43.086H367.725C367.758 42.8355 367.82 42.5358 367.912 42.1872C368.005 41.8335 368.1 41.5068 368.197 41.2073L369.777 36.4183H371.496L368.578 44.5742H366.831ZM375.716 36.2635C376.4 36.2635 376.986 36.4134 377.476 36.7129C377.966 37.0125 378.343 37.4374 378.605 37.9875C378.869 38.5377 379.001 39.1959 379.001 39.962V40.8904H373.879C373.898 41.6812 374.097 42.2903 374.475 42.7175C374.858 43.1449 375.395 43.3586 376.084 43.3586C376.573 43.3586 377.012 43.3094 377.4 43.2112C377.793 43.1081 378.197 42.9582 378.613 42.7618V44.169C378.229 44.3606 377.839 44.5005 377.442 44.5889C377.044 44.6773 376.569 44.7216 376.014 44.7216C375.261 44.7216 374.598 44.5668 374.025 44.2574C373.457 43.943 373.011 43.4765 372.688 42.8576C372.369 42.2387 372.209 41.4699 372.209 40.5515C372.209 39.6379 372.355 38.8618 372.645 38.2233C372.936 37.5848 373.346 37.0985 373.872 36.7646C374.4 36.4305 375.013 36.2635 375.716 36.2635ZM375.716 37.5676C375.203 37.5676 374.787 37.7445 374.468 38.0981C374.155 38.4518 373.97 38.97 373.915 39.6526H377.407C377.403 39.2449 377.338 38.8839 377.213 38.5696C377.093 38.2552 376.908 38.0097 376.659 37.8329C376.414 37.656 376.099 37.5676 375.716 37.5676Z" fill="#5D9BAE"/>
<path d="M322.023 45.4946H377.231V45.863H322.023V45.4946Z" fill="#5D9BAE"/>
</svg>
