<svg width="390" height="80" viewBox="0 0 390 80" fill="none" xmlns="http://www.w3.org/2000/svg">
<g clip-path="url(#clip0_351_5495)">
<path d="M249 8H0V36H249V8Z" fill="#D3E8E0"/>
<g style="mix-blend-mode:luminosity">
<path d="M10.0002 22.6546L12.3022 18.2452H13.3852L10.5032 23.6292V27.04H9.49721V23.6773L6.60938 18.2452H7.71007L10.0002 22.6546ZM20.0189 23.7314C20.0189 24.2728 19.9498 24.7561 19.8118 25.1811C19.6737 25.6063 19.4745 25.9652 19.2141 26.258C18.9537 26.5508 18.6381 26.7753 18.2673 26.9317C17.9003 27.0841 17.4842 27.1603 17.0187 27.1603C16.5847 27.1603 16.1862 27.0841 15.8233 26.9317C15.4642 26.7753 15.1526 26.5508 14.8883 26.258C14.6278 25.9652 14.4247 25.6063 14.2787 25.1811C14.1367 24.7561 14.0657 24.2728 14.0657 23.7314C14.0657 23.0096 14.186 22.3959 14.4267 21.8906C14.6673 21.3813 15.0106 20.9943 15.4564 20.7296C15.9061 20.4609 16.4407 20.3266 17.0601 20.3266C17.6519 20.3266 18.1686 20.4609 18.6105 20.7296C19.0563 20.9983 19.4015 21.3874 19.6461 21.8966C19.8946 22.402 20.0189 23.0135 20.0189 23.7314ZM15.0835 23.7314C15.0835 24.2608 15.1526 24.7199 15.2907 25.109C15.4287 25.498 15.6418 25.7988 15.9298 26.0113C16.2178 26.2239 16.5887 26.3301 17.0423 26.3301C17.492 26.3301 17.8609 26.2239 18.1489 26.0113C18.4408 25.7988 18.6559 25.498 18.794 25.109C18.932 24.7199 19.0011 24.2608 19.0011 23.7314C19.0011 23.206 18.932 22.7529 18.794 22.3718C18.6559 21.9869 18.4428 21.6901 18.1548 21.4815C17.8668 21.273 17.494 21.1687 17.0364 21.1687C16.3618 21.1687 15.8667 21.3953 15.551 21.8485C15.2393 22.3017 15.0835 22.9294 15.0835 23.7314ZM27.0728 20.4469V27.04H26.268L26.126 26.1136H26.0727C25.9386 26.3422 25.765 26.5347 25.552 26.6911C25.3389 26.8475 25.0983 26.9638 24.83 27.04C24.5657 27.1202 24.2836 27.1603 23.9837 27.1603C23.4709 27.1603 23.0408 27.0761 22.6937 26.9076C22.3465 26.7392 22.0842 26.4785 21.9067 26.1256C21.733 25.7727 21.6462 25.3196 21.6462 24.7661V20.4469H22.6405V24.6939C22.6405 25.2433 22.7628 25.6544 23.0073 25.9271C23.2519 26.1959 23.6248 26.3301 24.1258 26.3301C24.6071 26.3301 24.9898 26.238 25.2738 26.0534C25.5618 25.8689 25.7689 25.5982 25.8952 25.2413C26.0215 24.8804 26.0846 24.4392 26.0846 23.9179V20.4469H27.0728ZM37.3282 24.6999C37.3282 25.2212 37.2 25.6664 36.9435 26.0354C36.6911 26.4004 36.336 26.679 35.8783 26.8715C35.4208 27.0641 34.8822 27.1603 34.2628 27.1603C33.9354 27.1603 33.6257 27.1443 33.3338 27.1122C33.0418 27.0801 32.7735 27.034 32.529 26.9738C32.2844 26.9137 32.0693 26.8395 31.8839 26.7513V25.7707C32.1798 25.895 32.5407 26.0113 32.9669 26.1196C33.393 26.2239 33.8387 26.276 34.3042 26.276C34.7382 26.276 35.1051 26.2179 35.4049 26.1015C35.7048 25.9813 35.9317 25.8108 36.0855 25.5903C36.2432 25.3656 36.3222 25.0969 36.3222 24.7841C36.3222 24.4834 36.2571 24.2327 36.1269 24.0322C35.9968 23.8276 35.7797 23.6431 35.476 23.4787C35.1762 23.3103 34.7659 23.1319 34.2451 22.9434C33.8782 22.811 33.5547 22.6666 33.2745 22.5103C32.9945 22.3498 32.7598 22.1693 32.5704 21.9689C32.381 21.7683 32.237 21.5356 32.1384 21.271C32.0437 21.0063 31.9964 20.7035 31.9964 20.3627C31.9964 19.8934 32.1127 19.4924 32.3455 19.1595C32.5822 18.8227 32.9076 18.566 33.3219 18.3895C33.7401 18.2091 34.2194 18.1188 34.7599 18.1188C35.2215 18.1188 35.6476 18.1629 36.0381 18.2512C36.4326 18.3394 36.7937 18.4577 37.1211 18.6061L36.8075 19.4844C36.4958 19.352 36.1644 19.2418 35.8132 19.1535C35.4661 19.0653 35.1071 19.0212 34.7362 19.0212C34.3654 19.0212 34.0518 19.0773 33.7953 19.1896C33.5428 19.2979 33.3496 19.4523 33.2154 19.6528C33.0813 19.8533 33.0142 20.092 33.0142 20.3687C33.0142 20.6775 33.0773 20.9341 33.2036 21.1387C33.3338 21.3432 33.5389 21.5257 33.819 21.6861C34.1031 21.8425 34.4779 22.0069 34.9434 22.1794C35.4523 22.3679 35.8843 22.5684 36.2394 22.781C36.5944 22.9895 36.8646 23.2461 37.0501 23.551C37.2355 23.8517 37.3282 24.2347 37.3282 24.6999ZM41.3759 20.3386C42.1492 20.3386 42.7232 20.5151 43.098 20.868C43.4727 21.2209 43.6601 21.7844 43.6601 22.5583V27.04H42.9441L42.7547 26.0655H42.7074C42.526 26.3061 42.3366 26.5087 42.1393 26.6731C41.942 26.8335 41.7132 26.9558 41.4528 27.04C41.1965 27.1202 40.8808 27.1603 40.506 27.1603C40.1116 27.1603 39.7604 27.0902 39.4527 26.9497C39.1489 26.8094 38.9082 26.5968 38.7307 26.3121C38.5571 26.0274 38.4704 25.6664 38.4704 25.2293C38.4704 24.5716 38.7267 24.0663 39.2396 23.7134C39.7525 23.3605 40.5336 23.1679 41.5831 23.1359L42.7015 23.0877V22.6847C42.7015 22.1152 42.5812 21.7162 42.3405 21.4876C42.0998 21.259 41.7606 21.1447 41.3226 21.1447C40.9834 21.1447 40.6599 21.1948 40.3522 21.2951C40.0445 21.3953 39.7525 21.5137 39.4764 21.65L39.1745 20.892C39.4665 20.7397 39.8018 20.6093 40.1805 20.501C40.5593 20.3927 40.9577 20.3386 41.3759 20.3386ZM42.6897 23.7915L41.7014 23.8337C40.8926 23.8658 40.3225 24.0001 39.9911 24.2367C39.6598 24.4733 39.4941 24.8082 39.4941 25.2413C39.4941 25.6183 39.6065 25.897 39.8314 26.0775C40.0562 26.258 40.3542 26.3482 40.725 26.3482C41.3009 26.3482 41.7724 26.1858 42.1393 25.861C42.5063 25.5361 42.6897 25.0489 42.6897 24.3992V23.7915ZM47.1102 27.04L44.6484 20.4469H45.7017L47.128 24.4352C47.2266 24.7079 47.3272 25.0088 47.4297 25.3376C47.5323 25.6664 47.6034 25.9311 47.6428 26.1317H47.6842C47.7315 25.9311 47.8104 25.6664 47.9209 25.3376C48.0314 25.0047 48.132 24.7039 48.2227 24.4352L49.6489 20.4469H50.7022L48.2346 27.04H47.1102ZM54.241 20.3266C54.7933 20.3266 55.2667 20.4509 55.6613 20.6996C56.0558 20.9482 56.3576 21.2971 56.5667 21.7462C56.7758 22.1914 56.8803 22.7128 56.8803 23.3103V23.9299H52.4006C52.4125 24.7039 52.6018 25.2935 52.9687 25.6985C53.3357 26.1036 53.8524 26.3061 54.5192 26.3061C54.9295 26.3061 55.2924 26.268 55.6081 26.1918C55.9236 26.1156 56.2511 26.0033 56.5904 25.8549V26.7332C56.263 26.8816 55.9374 26.9898 55.6139 27.058C55.2944 27.1262 54.9156 27.1603 54.4778 27.1603C53.8544 27.1603 53.31 27.0319 52.8445 26.7753C52.3828 26.5146 52.0239 26.1337 51.7674 25.6324C51.511 25.1311 51.3828 24.5174 51.3828 23.7915C51.3828 23.0817 51.4991 22.4682 51.7319 21.9508C51.9686 21.4295 52.3 21.0284 52.726 20.7476C53.1561 20.4669 53.6611 20.3266 54.241 20.3266ZM54.2292 21.1447C53.7045 21.1447 53.2863 21.3191 52.9746 21.668C52.6629 22.0169 52.4775 22.5042 52.4183 23.1299H55.8507C55.8467 22.7368 55.7856 22.3919 55.6672 22.0952C55.5528 21.7944 55.3772 21.5617 55.1405 21.3973C54.9038 21.2289 54.6 21.1447 54.2292 21.1447ZM60.857 27.1603C60.0364 27.1603 59.3855 26.8756 58.9042 26.3061C58.4268 25.7367 58.1882 24.8904 58.1882 23.7675C58.1882 22.6326 58.4328 21.7763 58.922 21.1989C59.4111 20.6174 60.0621 20.3266 60.8747 20.3266C61.218 20.3266 61.5178 20.3726 61.7742 20.4649C62.0307 20.5572 62.2516 20.6815 62.437 20.8379C62.6225 20.9903 62.7783 21.1647 62.9045 21.3613H62.9756C62.9597 21.2369 62.944 21.0665 62.9282 20.8499C62.9125 20.6334 62.9045 20.4569 62.9045 20.3206V17.6797H63.8869V27.04H63.0939L62.946 26.1015H62.9045C62.7822 26.2981 62.6264 26.4765 62.437 26.6369C62.2516 26.7974 62.0287 26.9256 61.7684 27.022C61.5119 27.1141 61.2081 27.1603 60.857 27.1603ZM61.0109 26.3301C61.7053 26.3301 62.1964 26.1297 62.4844 25.7286C62.7724 25.3275 62.9164 24.732 62.9164 23.942V23.7615C62.9164 22.9233 62.7783 22.2797 62.5022 21.8304C62.2299 21.3813 61.7328 21.1567 61.0109 21.1567C60.4073 21.1567 59.9555 21.3933 59.6557 21.8666C59.3558 22.3358 59.206 22.9774 59.206 23.7915C59.206 24.6016 59.354 25.2273 59.6498 25.6684C59.9496 26.1096 60.4033 26.3301 61.0109 26.3301ZM76.7698 22.6306C76.7698 23.3083 76.6849 23.926 76.5152 24.4834C76.3457 25.0368 76.0932 25.514 75.7578 25.9151C75.4264 26.3121 75.0142 26.6189 74.521 26.8355C74.0279 27.052 73.4559 27.1603 72.8049 27.1603C72.1342 27.1603 71.5484 27.052 71.0473 26.8355C70.5503 26.6189 70.136 26.3101 69.8046 25.909C69.4771 25.5081 69.2306 25.0288 69.0649 24.4713C68.9031 23.9139 68.8222 23.2963 68.8222 22.6185C68.8222 21.7202 68.9682 20.9321 69.2602 20.2544C69.5521 19.5767 69.994 19.0492 70.5857 18.6723C71.1815 18.2953 71.927 18.1068 72.8227 18.1068C73.6787 18.1068 74.3987 18.2933 74.9826 18.6663C75.5704 19.0392 76.0143 19.5646 76.3141 20.2424C76.6178 20.9161 76.7698 21.7122 76.7698 22.6306ZM69.8815 22.6306C69.8815 23.3765 69.986 24.0222 70.1952 24.5676C70.4043 25.113 70.7238 25.534 71.1538 25.8308C71.5878 26.1276 72.1381 26.276 72.8049 26.276C73.4756 26.276 74.0239 26.1276 74.45 25.8308C74.88 25.534 75.1976 25.113 75.4028 24.5676C75.6079 24.0222 75.7105 23.3765 75.7105 22.6306C75.7105 21.4955 75.4757 20.6093 75.0063 19.9717C74.5408 19.3299 73.8128 19.0091 72.8227 19.0091C72.1519 19.0091 71.5996 19.1555 71.1657 19.4483C70.7317 19.7411 70.4082 20.1582 70.1952 20.6996C69.986 21.2369 69.8815 21.8806 69.8815 22.6306ZM81.6223 20.3266C82.3915 20.3266 82.9735 20.519 83.368 20.9041C83.7625 21.2851 83.9598 21.8986 83.9598 22.7448V27.04H82.9892V22.811C82.9892 22.2616 82.865 21.8505 82.6164 21.5778C82.3718 21.3052 81.9951 21.1687 81.4861 21.1687C80.7682 21.1687 80.2631 21.3753 79.9712 21.7883C79.6793 22.2015 79.5333 22.801 79.5333 23.587V27.04H78.551V20.4469H79.3439L79.4919 21.3973H79.5451C79.6833 21.1647 79.8588 20.9703 80.0719 20.8138C80.2848 20.6534 80.5236 20.5331 80.7879 20.4529C81.0522 20.3687 81.3303 20.3266 81.6223 20.3266ZM96.1502 22.5583C96.1502 23.549 95.9727 24.3771 95.6176 25.0428C95.2626 25.7045 94.7478 26.2038 94.0732 26.5407C93.4024 26.8736 92.5877 27.04 91.6291 27.04H89.2798V18.2452H91.8895C92.7692 18.2452 93.5267 18.4096 94.1619 18.7384C94.797 19.0633 95.2862 19.5465 95.6295 20.1882C95.9767 20.8259 96.1502 21.6159 96.1502 22.5583ZM95.091 22.5945C95.091 21.8044 94.9607 21.1527 94.7004 20.6394C94.444 20.126 94.0652 19.7451 93.5642 19.4963C93.0671 19.2438 92.4576 19.1174 91.7356 19.1174H90.2858V26.1617H91.5108C92.7022 26.1617 93.5958 25.863 94.1915 25.2654C94.7912 24.6678 95.091 23.7775 95.091 22.5945ZM98.9078 20.4469V27.04H97.9255V20.4469H98.9078ZM98.4286 17.9805C98.5903 17.9805 98.7284 18.0346 98.8428 18.1429C98.9612 18.2472 99.0203 18.4116 99.0203 18.6362C99.0203 18.8567 98.9612 19.0212 98.8428 19.1294C98.7284 19.2377 98.5903 19.2918 98.4286 19.2918C98.2589 19.2918 98.1169 19.2377 98.0025 19.1294C97.892 19.0212 97.8368 18.8567 97.8368 18.6362C97.8368 18.4116 97.892 18.2472 98.0025 18.1429C98.1169 18.0346 98.2589 17.9805 98.4286 17.9805ZM103.488 20.3266C104.041 20.3266 104.514 20.4509 104.908 20.6996C105.303 20.9482 105.605 21.2971 105.814 21.7462C106.023 22.1914 106.128 22.7128 106.128 23.3103V23.9299H101.648C101.66 24.7039 101.849 25.2935 102.216 25.6985C102.583 26.1036 103.1 26.3061 103.766 26.3061C104.177 26.3061 104.54 26.268 104.855 26.1918C105.171 26.1156 105.498 26.0033 105.838 25.8549V26.7332C105.51 26.8816 105.185 26.9898 104.861 27.058C104.542 27.1262 104.163 27.1603 103.725 27.1603C103.102 27.1603 102.557 27.0319 102.092 26.7753C101.63 26.5146 101.271 26.1337 101.015 25.6324C100.758 25.1311 100.63 24.5174 100.63 23.7915C100.63 23.0817 100.746 22.4682 100.979 21.9508C101.216 21.4295 101.547 21.0284 101.973 20.7476C102.403 20.4669 102.908 20.3266 103.488 20.3266ZM103.476 21.1447C102.952 21.1447 102.533 21.3191 102.222 21.668C101.91 22.0169 101.725 22.5042 101.666 23.1299H105.098C105.094 22.7368 105.033 22.3919 104.914 22.0952C104.8 21.7944 104.624 21.5617 104.388 21.3973C104.151 21.2289 103.847 21.1447 103.476 21.1447ZM114.791 19.0212C114.314 19.0212 113.883 19.1054 113.501 19.2738C113.122 19.4382 112.799 19.6789 112.53 19.9956C112.266 20.3085 112.063 20.6875 111.921 21.1327C111.779 21.5778 111.708 22.0791 111.708 22.6366C111.708 23.3745 111.821 24.0161 112.045 24.5615C112.274 25.103 112.613 25.5221 113.063 25.8189C113.516 26.1156 114.083 26.264 114.761 26.264C115.148 26.264 115.511 26.2319 115.85 26.1677C116.194 26.0995 116.526 26.0153 116.85 25.9151V26.8054C116.535 26.9256 116.204 27.0139 115.856 27.0701C115.509 27.1303 115.096 27.1603 114.619 27.1603C113.74 27.1603 113.004 26.9758 112.412 26.6069C111.824 26.2339 111.382 25.7085 111.087 25.0308C110.795 24.353 110.648 23.553 110.648 22.6306C110.648 21.9648 110.74 21.3572 110.921 20.8078C111.107 20.2544 111.374 19.7771 111.726 19.3761C112.081 18.975 112.515 18.6663 113.027 18.4497C113.544 18.2291 114.137 18.1188 114.803 18.1188C115.241 18.1188 115.663 18.1629 116.069 18.2512C116.476 18.3394 116.843 18.4657 117.17 18.6302L116.768 19.4963C116.491 19.3681 116.188 19.2578 115.856 19.1655C115.529 19.0693 115.173 19.0212 114.791 19.0212ZM123.934 20.4469V27.04H123.129L122.987 26.1136H122.934C122.8 26.3422 122.626 26.5347 122.413 26.6911C122.2 26.8475 121.959 26.9638 121.691 27.04C121.427 27.1202 121.145 27.1603 120.845 27.1603C120.332 27.1603 119.902 27.0761 119.555 26.9076C119.208 26.7392 118.945 26.4785 118.767 26.1256C118.594 25.7727 118.507 25.3196 118.507 24.7661V20.4469H119.501V24.6939C119.501 25.2433 119.623 25.6544 119.868 25.9271C120.113 26.1959 120.486 26.3301 120.986 26.3301C121.468 26.3301 121.851 26.238 122.134 26.0534C122.423 25.8689 122.63 25.5982 122.756 25.2413C122.882 24.8804 122.945 24.4392 122.945 23.9179V20.4469H123.934ZM128.106 26.3422C128.268 26.3422 128.433 26.3281 128.603 26.3001C128.773 26.272 128.91 26.238 129.017 26.1978V26.9738C128.903 27.026 128.743 27.0701 128.538 27.1062C128.336 27.1423 128.139 27.1603 127.946 27.1603C127.602 27.1603 127.292 27.1001 127.011 26.9799C126.731 26.8555 126.506 26.647 126.337 26.3542C126.171 26.0615 126.088 25.6563 126.088 25.139V21.2289H125.164V20.7417L126.094 20.3506L126.484 18.9189H127.076V20.4469H128.975V21.2289H127.076V25.109C127.076 25.5221 127.169 25.8308 127.355 26.0354C127.544 26.2399 127.794 26.3422 128.106 26.3422ZM132.426 26.3422C132.588 26.3422 132.753 26.3281 132.923 26.3001C133.093 26.272 133.23 26.238 133.337 26.1978V26.9738C133.223 27.026 133.063 27.0701 132.858 27.1062C132.656 27.1423 132.459 27.1603 132.266 27.1603C131.922 27.1603 131.611 27.1001 131.331 26.9799C131.051 26.8555 130.826 26.647 130.657 26.3542C130.49 26.0615 130.408 25.6563 130.408 25.139V21.2289H129.484V20.7417L130.414 20.3506L130.804 18.9189H131.396V20.4469H133.295V21.2289H131.396V25.109C131.396 25.5221 131.488 25.8308 131.675 26.0354C131.864 26.2399 132.114 26.3422 132.426 26.3422ZM135.633 20.4469V27.04H134.65V20.4469H135.633ZM135.154 17.9805C135.316 17.9805 135.454 18.0346 135.568 18.1429C135.686 18.2472 135.746 18.4116 135.746 18.6362C135.746 18.8567 135.686 19.0212 135.568 19.1294C135.454 19.2377 135.316 19.2918 135.154 19.2918C134.984 19.2918 134.842 19.2377 134.728 19.1294C134.617 19.0212 134.562 18.8567 134.562 18.6362C134.562 18.4116 134.617 18.2472 134.728 18.1429C134.842 18.0346 134.984 17.9805 135.154 17.9805ZM140.787 20.3266C141.556 20.3266 142.139 20.519 142.534 20.9041C142.928 21.2851 143.125 21.8986 143.125 22.7448V27.04H142.155V22.811C142.155 22.2616 142.03 21.8505 141.782 21.5778C141.538 21.3052 141.161 21.1687 140.652 21.1687C139.933 21.1687 139.429 21.3753 139.137 21.7883C138.845 22.2015 138.698 22.801 138.698 23.587V27.04H137.717V20.4469H138.509L138.658 21.3973H138.71C138.848 21.1647 139.024 20.9703 139.237 20.8138C139.45 20.6534 139.689 20.5331 139.953 20.4529C140.218 20.3687 140.495 20.3266 140.787 20.3266ZM146.959 29.9997C146.108 29.9997 145.451 29.8373 144.989 29.5124C144.528 29.1916 144.296 28.7404 144.296 28.1589C144.296 27.7458 144.425 27.3929 144.681 27.1001C144.942 26.8074 145.301 26.6129 145.759 26.5166C145.589 26.4364 145.442 26.3161 145.32 26.1556C145.202 25.9953 145.143 25.8108 145.143 25.6023C145.143 25.3617 145.208 25.1511 145.339 24.9706C145.472 24.7861 145.676 24.6097 145.948 24.4413C145.609 24.3009 145.332 24.0643 145.119 23.7314C144.91 23.3945 144.805 23.0035 144.805 22.5583C144.805 22.0851 144.902 21.682 145.095 21.3492C145.289 21.0124 145.569 20.7557 145.936 20.5792C146.303 20.4028 146.747 20.3145 147.268 20.3145C147.381 20.3145 147.496 20.3206 147.611 20.3325C147.728 20.3406 147.842 20.3546 147.948 20.3747C148.055 20.3908 148.147 20.4108 148.226 20.4348H150.451V21.0785L149.256 21.2289C149.375 21.3853 149.473 21.5738 149.552 21.7944C149.63 22.0149 149.67 22.2596 149.67 22.5283C149.67 23.186 149.451 23.7093 149.013 24.0983C148.576 24.4834 147.973 24.6759 147.208 24.6759C147.027 24.6759 146.842 24.6598 146.652 24.6277C146.458 24.736 146.31 24.8563 146.208 24.9887C146.11 25.121 146.06 25.2734 146.06 25.4459C146.06 25.5741 146.098 25.6765 146.173 25.7527C146.251 25.8288 146.364 25.8851 146.51 25.9211C146.656 25.9531 146.832 25.9692 147.037 25.9692H148.179C148.885 25.9692 149.425 26.1196 149.8 26.4204C150.179 26.7211 150.368 27.1603 150.368 27.7378C150.368 28.4677 150.076 29.0272 149.492 29.4162C148.908 29.8052 148.065 29.9997 146.959 29.9997ZM146.989 29.2176C147.526 29.2176 147.97 29.1615 148.321 29.0492C148.676 28.941 148.94 28.7825 149.113 28.574C149.291 28.3694 149.38 28.1248 149.38 27.8401C149.38 27.5754 149.321 27.3749 149.203 27.2385C149.084 27.1062 148.911 27.0179 148.682 26.9738C148.453 26.9256 148.172 26.9017 147.842 26.9017H146.717C146.425 26.9017 146.171 26.9477 145.954 27.04C145.736 27.1323 145.569 27.2686 145.451 27.449C145.337 27.6296 145.279 27.8541 145.279 28.1228C145.279 28.4798 145.427 28.7505 145.723 28.9349C146.019 29.1234 146.44 29.2176 146.989 29.2176ZM147.244 23.948C147.713 23.948 148.067 23.8276 148.302 23.587C148.539 23.3463 148.658 22.9955 148.658 22.5344C148.658 22.041 148.538 21.6721 148.297 21.4275C148.057 21.1788 147.701 21.0545 147.232 21.0545C146.782 21.0545 146.435 21.1827 146.19 21.4394C145.95 21.6921 145.829 22.0631 145.829 22.5524C145.829 23.0015 145.951 23.3463 146.196 23.587C146.44 23.8276 146.79 23.948 147.244 23.948ZM159.907 24.6999C159.907 25.2212 159.78 25.6664 159.523 26.0354C159.271 26.4004 158.916 26.679 158.458 26.8715C158 27.0641 157.462 27.1603 156.842 27.1603C156.515 27.1603 156.205 27.1443 155.914 27.1122C155.622 27.0801 155.353 27.034 155.108 26.9738C154.864 26.9137 154.649 26.8395 154.464 26.7513V25.7707C154.759 25.895 155.12 26.0113 155.547 26.1196C155.972 26.2239 156.418 26.276 156.884 26.276C157.317 26.276 157.684 26.2179 157.985 26.1015C158.285 25.9813 158.511 25.8108 158.665 25.5903C158.822 25.3656 158.902 25.0969 158.902 24.7841C158.902 24.4834 158.837 24.2327 158.707 24.0322C158.577 23.8276 158.359 23.6431 158.055 23.4787C157.756 23.3103 157.345 23.1319 156.825 22.9434C156.458 22.811 156.134 22.6666 155.854 22.5103C155.574 22.3498 155.34 22.1693 155.15 21.9689C154.96 21.7683 154.816 21.5356 154.718 21.271C154.623 21.0063 154.576 20.7035 154.576 20.3627C154.576 19.8934 154.692 19.4924 154.925 19.1595C155.162 18.8227 155.487 18.566 155.901 18.3895C156.32 18.2091 156.799 18.1188 157.339 18.1188C157.801 18.1188 158.227 18.1629 158.617 18.2512C159.012 18.3394 159.373 18.4577 159.7 18.6061L159.387 19.4844C159.076 19.352 158.744 19.2418 158.393 19.1535C158.045 19.0653 157.686 19.0212 157.316 19.0212C156.945 19.0212 156.631 19.0773 156.375 19.1896C156.122 19.2979 155.929 19.4523 155.795 19.6528C155.661 19.8533 155.594 20.092 155.594 20.3687C155.594 20.6775 155.657 20.9341 155.784 21.1387C155.914 21.3432 156.118 21.5257 156.398 21.6861C156.683 21.8425 157.057 22.0069 157.523 22.1794C158.032 22.3679 158.464 22.5684 158.819 22.781C159.174 22.9895 159.444 23.2461 159.63 23.551C159.815 23.8517 159.907 24.2347 159.907 24.6999ZM166.885 20.4469V27.04H166.08L165.937 26.1136H165.885C165.75 26.3422 165.577 26.5347 165.363 26.6911C165.151 26.8475 164.911 26.9638 164.642 27.04C164.377 27.1202 164.095 27.1603 163.796 27.1603C163.282 27.1603 162.852 27.0761 162.505 26.9076C162.158 26.7392 161.896 26.4785 161.719 26.1256C161.545 25.7727 161.458 25.3196 161.458 24.7661V20.4469H162.453V24.6939C162.453 25.2433 162.575 25.6544 162.819 25.9271C163.064 26.1959 163.436 26.3301 163.938 26.3301C164.419 26.3301 164.801 26.238 165.086 26.0534C165.373 25.8689 165.58 25.5982 165.707 25.2413C165.833 24.8804 165.897 24.4392 165.897 23.9179V20.4469H166.885ZM172.009 20.3266C172.818 20.3266 173.464 20.6093 173.944 21.1748C174.425 21.7403 174.667 22.5905 174.667 23.7254C174.667 24.4753 174.555 25.105 174.335 25.6144C174.114 26.1236 173.803 26.5087 173.4 26.7693C173.002 27.0299 172.53 27.1603 171.986 27.1603C171.642 27.1603 171.341 27.1141 171.08 27.022C170.819 26.9297 170.597 26.8054 170.412 26.649C170.227 26.4925 170.072 26.3221 169.95 26.1376H169.878C169.891 26.2941 169.905 26.4826 169.92 26.7031C169.94 26.9237 169.95 27.1162 169.95 27.2806V29.9876H168.962V20.4469H169.773L169.903 21.4214H169.95C170.077 21.2209 170.23 21.0384 170.412 20.874C170.594 20.7055 170.814 20.5732 171.074 20.4769C171.338 20.3767 171.65 20.3266 172.009 20.3266ZM171.837 21.1687C171.388 21.1687 171.025 21.257 170.749 21.4334C170.477 21.6099 170.277 21.8746 170.152 22.2275C170.025 22.5764 169.958 23.0155 169.95 23.5449V23.7375C169.95 24.2949 170.01 24.7661 170.127 25.1511C170.25 25.5361 170.449 25.8288 170.726 26.0294C171.006 26.2299 171.38 26.3301 171.85 26.3301C172.252 26.3301 172.588 26.2198 172.855 25.9993C173.124 25.7788 173.323 25.4719 173.454 25.0789C173.587 24.6818 173.654 24.2267 173.654 23.7134C173.654 22.9353 173.504 22.3177 173.205 21.8606C172.908 21.3993 172.453 21.1687 171.837 21.1687ZM179.43 20.3266C180.238 20.3266 180.884 20.6093 181.366 21.1748C181.847 21.7403 182.087 22.5905 182.087 23.7254C182.087 24.4753 181.977 25.105 181.756 25.6144C181.535 26.1236 181.223 26.5087 180.821 26.7693C180.422 27.0299 179.951 27.1603 179.407 27.1603C179.063 27.1603 178.761 27.1141 178.501 27.022C178.241 26.9297 178.018 26.8054 177.832 26.649C177.647 26.4925 177.493 26.3221 177.37 26.1376H177.3C177.312 26.2941 177.325 26.4826 177.341 26.7031C177.361 26.9237 177.37 27.1162 177.37 27.2806V29.9876H176.382V20.4469H177.193L177.323 21.4214H177.37C177.497 21.2209 177.651 21.0384 177.832 20.874C178.014 20.7055 178.234 20.5732 178.495 20.4769C178.76 20.3767 179.072 20.3266 179.43 20.3266ZM179.259 21.1687C178.808 21.1687 178.446 21.257 178.169 21.4334C177.897 21.6099 177.698 21.8746 177.572 22.2275C177.445 22.5764 177.378 23.0155 177.37 23.5449V23.7375C177.37 24.2949 177.43 24.7661 177.548 25.1511C177.67 25.5361 177.87 25.8288 178.146 26.0294C178.426 26.2299 178.801 26.3301 179.27 26.3301C179.673 26.3301 180.008 26.2198 180.276 25.9993C180.545 25.7788 180.744 25.4719 180.874 25.0789C181.009 24.6818 181.076 24.2267 181.076 23.7134C181.076 22.9353 180.926 22.3177 180.625 21.8606C180.33 21.3993 179.874 21.1687 179.259 21.1687ZM184.792 27.04H183.804V17.6797H184.792V27.04ZM187.851 20.4469V27.04H186.869V20.4469H187.851ZM187.371 17.9805C187.533 17.9805 187.672 18.0346 187.786 18.1429C187.905 18.2472 187.964 18.4116 187.964 18.6362C187.964 18.8567 187.905 19.0212 187.786 19.1294C187.672 19.2377 187.533 19.2918 187.371 19.2918C187.202 19.2918 187.061 19.2377 186.946 19.1294C186.835 19.0212 186.78 18.8567 186.78 18.6362C186.78 18.4116 186.835 18.2472 186.946 18.1429C187.061 18.0346 187.202 17.9805 187.371 17.9805ZM192.432 20.3266C192.984 20.3266 193.457 20.4509 193.852 20.6996C194.246 20.9482 194.548 21.2971 194.758 21.7462C194.966 22.1914 195.07 22.7128 195.07 23.3103V23.9299H190.591C190.603 24.7039 190.792 25.2935 191.159 25.6985C191.526 26.1036 192.043 26.3061 192.709 26.3061C193.12 26.3061 193.483 26.268 193.798 26.1918C194.114 26.1156 194.441 26.0033 194.781 25.8549V26.7332C194.453 26.8816 194.127 26.9898 193.804 27.058C193.485 27.1262 193.106 27.1603 192.669 27.1603C192.045 27.1603 191.501 27.0319 191.035 26.7753C190.573 26.5146 190.214 26.1337 189.958 25.6324C189.701 25.1311 189.573 24.5174 189.573 23.7915C189.573 23.0817 189.689 22.4682 189.922 21.9508C190.159 21.4295 190.49 21.0284 190.917 20.7476C191.346 20.4669 191.851 20.3266 192.432 20.3266ZM192.42 21.1447C191.895 21.1447 191.476 21.3191 191.165 21.668C190.853 22.0169 190.668 22.5042 190.608 23.1299H194.041C194.037 22.7368 193.976 22.3919 193.857 22.0952C193.743 21.7944 193.568 21.5617 193.331 21.3973C193.094 21.2289 192.791 21.1447 192.42 21.1447ZM200.935 25.2353C200.935 25.6563 200.83 26.0113 200.621 26.3001C200.416 26.5848 200.121 26.7994 199.734 26.9438C199.351 27.0882 198.894 27.1603 198.361 27.1603C197.907 27.1603 197.514 27.1242 197.184 27.052C196.852 26.9799 196.562 26.8776 196.313 26.7452V25.8248C196.578 25.9572 196.894 26.0775 197.261 26.1858C197.628 26.2941 198.002 26.3482 198.385 26.3482C198.944 26.3482 199.351 26.256 199.603 26.0715C199.857 25.887 199.982 25.6363 199.982 25.3196C199.982 25.139 199.931 24.9807 199.829 24.8444C199.73 24.7039 199.562 24.5696 199.325 24.4413C199.089 24.3089 198.761 24.1645 198.343 24.0082C197.928 23.8477 197.57 23.6893 197.266 23.5329C196.967 23.3724 196.733 23.178 196.568 22.9494C196.406 22.7208 196.325 22.424 196.325 22.059C196.325 21.5016 196.546 21.0745 196.988 20.7777C197.434 20.4769 198.018 20.3266 198.739 20.3266C199.13 20.3266 199.495 20.3667 199.834 20.4469C200.177 20.5231 200.498 20.6273 200.793 20.7597L200.461 21.5597C200.194 21.4435 199.907 21.3452 199.603 21.2651C199.3 21.1847 198.991 21.1447 198.674 21.1447C198.22 21.1447 197.872 21.2209 197.628 21.3732C197.386 21.5257 197.266 21.7342 197.266 21.9989C197.266 22.2034 197.321 22.3718 197.432 22.5042C197.546 22.6366 197.728 22.7609 197.976 22.8772C198.225 22.9934 198.552 23.1299 198.959 23.2862C199.365 23.4386 199.717 23.597 200.012 23.7615C200.308 23.9219 200.535 24.1184 200.693 24.351C200.855 24.5796 200.935 24.8744 200.935 25.2353ZM208.468 27.04H207.457V19.1475H204.734V18.2452H211.178V19.1475H208.468V27.04ZM217.931 23.7314C217.931 24.2728 217.862 24.7561 217.724 25.1811C217.585 25.6063 217.387 25.9652 217.126 26.258C216.866 26.5508 216.551 26.7753 216.179 26.9317C215.812 27.0841 215.396 27.1603 214.931 27.1603C214.497 27.1603 214.098 27.0841 213.736 26.9317C213.376 26.7753 213.065 26.5508 212.8 26.258C212.54 25.9652 212.336 25.6063 212.191 25.1811C212.049 24.7561 211.977 24.2728 211.977 23.7314C211.977 23.0096 212.098 22.3959 212.338 21.8906C212.579 21.3813 212.922 20.9943 213.369 20.7296C213.818 20.4609 214.352 20.3266 214.972 20.3266C215.563 20.3266 216.08 20.4609 216.522 20.7296C216.968 20.9983 217.313 21.3874 217.558 21.8966C217.807 22.402 217.931 23.0135 217.931 23.7314ZM212.995 23.7314C212.995 24.2608 213.065 24.7199 213.202 25.109C213.341 25.498 213.554 25.7988 213.841 26.0113C214.13 26.2239 214.5 26.3301 214.954 26.3301C215.404 26.3301 215.773 26.2239 216.06 26.0113C216.352 25.7988 216.568 25.498 216.706 25.109C216.844 24.7199 216.913 24.2608 216.913 23.7314C216.913 23.206 216.844 22.7529 216.706 22.3718C216.568 21.9869 216.354 21.6901 216.067 21.4815C215.778 21.273 215.406 21.1687 214.949 21.1687C214.273 21.1687 213.778 21.3953 213.463 21.8485C213.152 22.3017 212.995 22.9294 212.995 23.7314ZM221.937 27.1603C221.116 27.1603 220.465 26.8756 219.985 26.3061C219.507 25.7367 219.269 24.8904 219.269 23.7675C219.269 22.6326 219.513 21.7763 220.002 21.1989C220.492 20.6174 221.142 20.3266 221.955 20.3266C222.298 20.3266 222.598 20.3726 222.855 20.4649C223.11 20.5572 223.332 20.6815 223.517 20.8379C223.702 20.9903 223.859 21.1647 223.984 21.3613H224.056C224.04 21.2369 224.024 21.0665 224.008 20.8499C223.993 20.6334 223.984 20.4569 223.984 20.3206V17.6797H224.967V27.04H224.174L224.026 26.1015H223.984C223.862 26.2981 223.707 26.4765 223.517 26.6369C223.332 26.7974 223.108 26.9256 222.848 27.022C222.592 27.1141 222.289 27.1603 221.937 27.1603ZM222.091 26.3301C222.785 26.3301 223.277 26.1297 223.564 25.7286C223.852 25.3275 223.996 24.732 223.996 23.942V23.7615C223.996 22.9233 223.859 22.2797 223.582 21.8304C223.31 21.3813 222.813 21.1567 222.091 21.1567C221.488 21.1567 221.036 21.3933 220.736 21.8666C220.436 22.3358 220.286 22.9774 220.286 23.7915C220.286 24.6016 220.434 25.2273 220.73 25.6684C221.029 26.1096 221.483 26.3301 222.091 26.3301ZM229.477 20.3386C230.25 20.3386 230.824 20.5151 231.199 20.868C231.573 21.2209 231.76 21.7844 231.76 22.5583V27.04H231.044L230.855 26.0655H230.807C230.627 26.3061 230.437 26.5087 230.24 26.6731C230.043 26.8335 229.814 26.9558 229.554 27.04C229.297 27.1202 228.981 27.1603 228.606 27.1603C228.212 27.1603 227.86 27.0902 227.553 26.9497C227.249 26.8094 227.009 26.5968 226.831 26.3121C226.657 26.0274 226.571 25.6664 226.571 25.2293C226.571 24.5716 226.827 24.0663 227.34 23.7134C227.852 23.3605 228.634 23.1679 229.684 23.1359L230.802 23.0877V22.6847C230.802 22.1152 230.682 21.7162 230.441 21.4876C230.2 21.259 229.861 21.1447 229.423 21.1447C229.083 21.1447 228.76 21.1948 228.453 21.2951C228.144 21.3953 227.852 21.5137 227.577 21.65L227.275 20.892C227.567 20.7397 227.902 20.6093 228.281 20.501C228.66 20.3927 229.058 20.3386 229.477 20.3386ZM230.79 23.7915L229.802 23.8337C228.993 23.8658 228.423 24.0001 228.092 24.2367C227.76 24.4733 227.595 24.8082 227.595 25.2413C227.595 25.6183 227.707 25.897 227.932 26.0775C228.157 26.258 228.454 26.3482 228.825 26.3482C229.402 26.3482 229.873 26.1858 230.24 25.861C230.607 25.5361 230.79 25.0489 230.79 24.3992V23.7915ZM232.761 20.4469H233.814L235.246 24.2728C235.329 24.4974 235.406 24.714 235.477 24.9225C235.548 25.127 235.611 25.3235 235.666 25.512C235.721 25.7005 235.764 25.883 235.796 26.0594H235.838C235.893 25.859 235.971 25.5962 236.075 25.2714C236.177 24.9426 236.288 24.6077 236.406 24.2668L237.761 20.4469H238.821L235.998 28.0085C235.848 28.4136 235.672 28.7665 235.471 29.0673C235.274 29.368 235.033 29.5986 234.748 29.759C234.465 29.9234 234.122 30.0056 233.719 30.0056C233.534 30.0056 233.37 29.9937 233.228 29.9696C233.086 29.9495 232.964 29.9255 232.861 29.8975V29.0973C232.948 29.1174 233.053 29.1354 233.175 29.1515C233.301 29.1675 233.431 29.1755 233.565 29.1755C233.81 29.1755 234.021 29.1275 234.199 29.0311C234.38 28.939 234.536 28.8025 234.666 28.6221C234.796 28.4417 234.908 28.2271 235.003 27.9784L235.359 27.052L232.761 20.4469ZM240.743 24.5976H240.099L239.827 18.2452H241.015L240.743 24.5976ZM239.708 26.4144C239.708 26.1337 239.775 25.9351 239.909 25.8189C240.044 25.6985 240.211 25.6383 240.413 25.6383C240.61 25.6383 240.775 25.6985 240.91 25.8189C241.047 25.9351 241.117 26.1337 241.117 26.4144C241.117 26.6911 241.047 26.8936 240.91 27.022C240.775 27.1463 240.61 27.2084 240.413 27.2084C240.211 27.2084 240.044 27.1463 239.909 27.022C239.775 26.8936 239.708 26.6911 239.708 26.4144Z" fill="#7F7F7F" fill-opacity="0.7"/>
</g>
<g style="mix-blend-mode:overlay">
<path d="M10.0002 22.6546L12.3022 18.2452H13.3852L10.5032 23.6292V27.04H9.49721V23.6773L6.60938 18.2452H7.71007L10.0002 22.6546ZM20.0189 23.7314C20.0189 24.2728 19.9498 24.7561 19.8118 25.1811C19.6737 25.6063 19.4745 25.9652 19.2141 26.258C18.9537 26.5508 18.6381 26.7753 18.2673 26.9317C17.9003 27.0841 17.4842 27.1603 17.0187 27.1603C16.5847 27.1603 16.1862 27.0841 15.8233 26.9317C15.4642 26.7753 15.1526 26.5508 14.8883 26.258C14.6278 25.9652 14.4247 25.6063 14.2787 25.1811C14.1367 24.7561 14.0657 24.2728 14.0657 23.7314C14.0657 23.0096 14.186 22.3959 14.4267 21.8906C14.6673 21.3813 15.0106 20.9943 15.4564 20.7296C15.9061 20.4609 16.4407 20.3266 17.0601 20.3266C17.6519 20.3266 18.1686 20.4609 18.6105 20.7296C19.0563 20.9983 19.4015 21.3874 19.6461 21.8966C19.8946 22.402 20.0189 23.0135 20.0189 23.7314ZM15.0835 23.7314C15.0835 24.2608 15.1526 24.7199 15.2907 25.109C15.4287 25.498 15.6418 25.7988 15.9298 26.0113C16.2178 26.2239 16.5887 26.3301 17.0423 26.3301C17.492 26.3301 17.8609 26.2239 18.1489 26.0113C18.4408 25.7988 18.6559 25.498 18.794 25.109C18.932 24.7199 19.0011 24.2608 19.0011 23.7314C19.0011 23.206 18.932 22.7529 18.794 22.3718C18.6559 21.9869 18.4428 21.6901 18.1548 21.4815C17.8668 21.273 17.494 21.1687 17.0364 21.1687C16.3618 21.1687 15.8667 21.3953 15.551 21.8485C15.2393 22.3017 15.0835 22.9294 15.0835 23.7314ZM27.0728 20.4469V27.04H26.268L26.126 26.1136H26.0727C25.9386 26.3422 25.765 26.5347 25.552 26.6911C25.3389 26.8475 25.0983 26.9638 24.83 27.04C24.5657 27.1202 24.2836 27.1603 23.9837 27.1603C23.4709 27.1603 23.0408 27.0761 22.6937 26.9076C22.3465 26.7392 22.0842 26.4785 21.9067 26.1256C21.733 25.7727 21.6462 25.3196 21.6462 24.7661V20.4469H22.6405V24.6939C22.6405 25.2433 22.7628 25.6544 23.0073 25.9271C23.2519 26.1959 23.6248 26.3301 24.1258 26.3301C24.6071 26.3301 24.9898 26.238 25.2738 26.0534C25.5618 25.8689 25.7689 25.5982 25.8952 25.2413C26.0215 24.8804 26.0846 24.4392 26.0846 23.9179V20.4469H27.0728ZM37.3282 24.6999C37.3282 25.2212 37.2 25.6664 36.9435 26.0354C36.6911 26.4004 36.336 26.679 35.8783 26.8715C35.4208 27.0641 34.8822 27.1603 34.2628 27.1603C33.9354 27.1603 33.6257 27.1443 33.3338 27.1122C33.0418 27.0801 32.7735 27.034 32.529 26.9738C32.2844 26.9137 32.0693 26.8395 31.8839 26.7513V25.7707C32.1798 25.895 32.5407 26.0113 32.9669 26.1196C33.393 26.2239 33.8387 26.276 34.3042 26.276C34.7382 26.276 35.1051 26.2179 35.4049 26.1015C35.7048 25.9813 35.9317 25.8108 36.0855 25.5903C36.2432 25.3656 36.3222 25.0969 36.3222 24.7841C36.3222 24.4834 36.2571 24.2327 36.1269 24.0322C35.9968 23.8276 35.7797 23.6431 35.476 23.4787C35.1762 23.3103 34.7659 23.1319 34.2451 22.9434C33.8782 22.811 33.5547 22.6666 33.2745 22.5103C32.9945 22.3498 32.7598 22.1693 32.5704 21.9689C32.381 21.7683 32.237 21.5356 32.1384 21.271C32.0437 21.0063 31.9964 20.7035 31.9964 20.3627C31.9964 19.8934 32.1127 19.4924 32.3455 19.1595C32.5822 18.8227 32.9076 18.566 33.3219 18.3895C33.7401 18.2091 34.2194 18.1188 34.7599 18.1188C35.2215 18.1188 35.6476 18.1629 36.0381 18.2512C36.4326 18.3394 36.7937 18.4577 37.1211 18.6061L36.8075 19.4844C36.4958 19.352 36.1644 19.2418 35.8132 19.1535C35.4661 19.0653 35.1071 19.0212 34.7362 19.0212C34.3654 19.0212 34.0518 19.0773 33.7953 19.1896C33.5428 19.2979 33.3496 19.4523 33.2154 19.6528C33.0813 19.8533 33.0142 20.092 33.0142 20.3687C33.0142 20.6775 33.0773 20.9341 33.2036 21.1387C33.3338 21.3432 33.5389 21.5257 33.819 21.6861C34.1031 21.8425 34.4779 22.0069 34.9434 22.1794C35.4523 22.3679 35.8843 22.5684 36.2394 22.781C36.5944 22.9895 36.8646 23.2461 37.0501 23.551C37.2355 23.8517 37.3282 24.2347 37.3282 24.6999ZM41.3759 20.3386C42.1492 20.3386 42.7232 20.5151 43.098 20.868C43.4727 21.2209 43.6601 21.7844 43.6601 22.5583V27.04H42.9441L42.7547 26.0655H42.7074C42.526 26.3061 42.3366 26.5087 42.1393 26.6731C41.942 26.8335 41.7132 26.9558 41.4528 27.04C41.1965 27.1202 40.8808 27.1603 40.506 27.1603C40.1116 27.1603 39.7604 27.0902 39.4527 26.9497C39.1489 26.8094 38.9082 26.5968 38.7307 26.3121C38.5571 26.0274 38.4704 25.6664 38.4704 25.2293C38.4704 24.5716 38.7267 24.0663 39.2396 23.7134C39.7525 23.3605 40.5336 23.1679 41.5831 23.1359L42.7015 23.0877V22.6847C42.7015 22.1152 42.5812 21.7162 42.3405 21.4876C42.0998 21.259 41.7606 21.1447 41.3226 21.1447C40.9834 21.1447 40.6599 21.1948 40.3522 21.2951C40.0445 21.3953 39.7525 21.5137 39.4764 21.65L39.1745 20.892C39.4665 20.7397 39.8018 20.6093 40.1805 20.501C40.5593 20.3927 40.9577 20.3386 41.3759 20.3386ZM42.6897 23.7915L41.7014 23.8337C40.8926 23.8658 40.3225 24.0001 39.9911 24.2367C39.6598 24.4733 39.4941 24.8082 39.4941 25.2413C39.4941 25.6183 39.6065 25.897 39.8314 26.0775C40.0562 26.258 40.3542 26.3482 40.725 26.3482C41.3009 26.3482 41.7724 26.1858 42.1393 25.861C42.5063 25.5361 42.6897 25.0489 42.6897 24.3992V23.7915ZM47.1102 27.04L44.6484 20.4469H45.7017L47.128 24.4352C47.2266 24.7079 47.3272 25.0088 47.4297 25.3376C47.5323 25.6664 47.6034 25.9311 47.6428 26.1317H47.6842C47.7315 25.9311 47.8104 25.6664 47.9209 25.3376C48.0314 25.0047 48.132 24.7039 48.2227 24.4352L49.6489 20.4469H50.7022L48.2346 27.04H47.1102ZM54.241 20.3266C54.7933 20.3266 55.2667 20.4509 55.6613 20.6996C56.0558 20.9482 56.3576 21.2971 56.5667 21.7462C56.7758 22.1914 56.8803 22.7128 56.8803 23.3103V23.9299H52.4006C52.4125 24.7039 52.6018 25.2935 52.9687 25.6985C53.3357 26.1036 53.8524 26.3061 54.5192 26.3061C54.9295 26.3061 55.2924 26.268 55.6081 26.1918C55.9236 26.1156 56.2511 26.0033 56.5904 25.8549V26.7332C56.263 26.8816 55.9374 26.9898 55.6139 27.058C55.2944 27.1262 54.9156 27.1603 54.4778 27.1603C53.8544 27.1603 53.31 27.0319 52.8445 26.7753C52.3828 26.5146 52.0239 26.1337 51.7674 25.6324C51.511 25.1311 51.3828 24.5174 51.3828 23.7915C51.3828 23.0817 51.4991 22.4682 51.7319 21.9508C51.9686 21.4295 52.3 21.0284 52.726 20.7476C53.1561 20.4669 53.6611 20.3266 54.241 20.3266ZM54.2292 21.1447C53.7045 21.1447 53.2863 21.3191 52.9746 21.668C52.6629 22.0169 52.4775 22.5042 52.4183 23.1299H55.8507C55.8467 22.7368 55.7856 22.3919 55.6672 22.0952C55.5528 21.7944 55.3772 21.5617 55.1405 21.3973C54.9038 21.2289 54.6 21.1447 54.2292 21.1447ZM60.857 27.1603C60.0364 27.1603 59.3855 26.8756 58.9042 26.3061C58.4268 25.7367 58.1882 24.8904 58.1882 23.7675C58.1882 22.6326 58.4328 21.7763 58.922 21.1989C59.4111 20.6174 60.0621 20.3266 60.8747 20.3266C61.218 20.3266 61.5178 20.3726 61.7742 20.4649C62.0307 20.5572 62.2516 20.6815 62.437 20.8379C62.6225 20.9903 62.7783 21.1647 62.9045 21.3613H62.9756C62.9597 21.2369 62.944 21.0665 62.9282 20.8499C62.9125 20.6334 62.9045 20.4569 62.9045 20.3206V17.6797H63.8869V27.04H63.0939L62.946 26.1015H62.9045C62.7822 26.2981 62.6264 26.4765 62.437 26.6369C62.2516 26.7974 62.0287 26.9256 61.7684 27.022C61.5119 27.1141 61.2081 27.1603 60.857 27.1603ZM61.0109 26.3301C61.7053 26.3301 62.1964 26.1297 62.4844 25.7286C62.7724 25.3275 62.9164 24.732 62.9164 23.942V23.7615C62.9164 22.9233 62.7783 22.2797 62.5022 21.8304C62.2299 21.3813 61.7328 21.1567 61.0109 21.1567C60.4073 21.1567 59.9555 21.3933 59.6557 21.8666C59.3558 22.3358 59.206 22.9774 59.206 23.7915C59.206 24.6016 59.354 25.2273 59.6498 25.6684C59.9496 26.1096 60.4033 26.3301 61.0109 26.3301ZM76.7698 22.6306C76.7698 23.3083 76.6849 23.926 76.5152 24.4834C76.3457 25.0368 76.0932 25.514 75.7578 25.9151C75.4264 26.3121 75.0142 26.6189 74.521 26.8355C74.0279 27.052 73.4559 27.1603 72.8049 27.1603C72.1342 27.1603 71.5484 27.052 71.0473 26.8355C70.5503 26.6189 70.136 26.3101 69.8046 25.909C69.4771 25.5081 69.2306 25.0288 69.0649 24.4713C68.9031 23.9139 68.8222 23.2963 68.8222 22.6185C68.8222 21.7202 68.9682 20.9321 69.2602 20.2544C69.5521 19.5767 69.994 19.0492 70.5857 18.6723C71.1815 18.2953 71.927 18.1068 72.8227 18.1068C73.6787 18.1068 74.3987 18.2933 74.9826 18.6663C75.5704 19.0392 76.0143 19.5646 76.3141 20.2424C76.6178 20.9161 76.7698 21.7122 76.7698 22.6306ZM69.8815 22.6306C69.8815 23.3765 69.986 24.0222 70.1952 24.5676C70.4043 25.113 70.7238 25.534 71.1538 25.8308C71.5878 26.1276 72.1381 26.276 72.8049 26.276C73.4756 26.276 74.0239 26.1276 74.45 25.8308C74.88 25.534 75.1976 25.113 75.4028 24.5676C75.6079 24.0222 75.7105 23.3765 75.7105 22.6306C75.7105 21.4955 75.4757 20.6093 75.0063 19.9717C74.5408 19.3299 73.8128 19.0091 72.8227 19.0091C72.1519 19.0091 71.5996 19.1555 71.1657 19.4483C70.7317 19.7411 70.4082 20.1582 70.1952 20.6996C69.986 21.2369 69.8815 21.8806 69.8815 22.6306ZM81.6223 20.3266C82.3915 20.3266 82.9735 20.519 83.368 20.9041C83.7625 21.2851 83.9598 21.8986 83.9598 22.7448V27.04H82.9892V22.811C82.9892 22.2616 82.865 21.8505 82.6164 21.5778C82.3718 21.3052 81.9951 21.1687 81.4861 21.1687C80.7682 21.1687 80.2631 21.3753 79.9712 21.7883C79.6793 22.2015 79.5333 22.801 79.5333 23.587V27.04H78.551V20.4469H79.3439L79.4919 21.3973H79.5451C79.6833 21.1647 79.8588 20.9703 80.0719 20.8138C80.2848 20.6534 80.5236 20.5331 80.7879 20.4529C81.0522 20.3687 81.3303 20.3266 81.6223 20.3266ZM96.1502 22.5583C96.1502 23.549 95.9727 24.3771 95.6176 25.0428C95.2626 25.7045 94.7478 26.2038 94.0732 26.5407C93.4024 26.8736 92.5877 27.04 91.6291 27.04H89.2798V18.2452H91.8895C92.7692 18.2452 93.5267 18.4096 94.1619 18.7384C94.797 19.0633 95.2862 19.5465 95.6295 20.1882C95.9767 20.8259 96.1502 21.6159 96.1502 22.5583ZM95.091 22.5945C95.091 21.8044 94.9607 21.1527 94.7004 20.6394C94.444 20.126 94.0652 19.7451 93.5642 19.4963C93.0671 19.2438 92.4576 19.1174 91.7356 19.1174H90.2858V26.1617H91.5108C92.7022 26.1617 93.5958 25.863 94.1915 25.2654C94.7912 24.6678 95.091 23.7775 95.091 22.5945ZM98.9078 20.4469V27.04H97.9255V20.4469H98.9078ZM98.4286 17.9805C98.5903 17.9805 98.7284 18.0346 98.8428 18.1429C98.9612 18.2472 99.0203 18.4116 99.0203 18.6362C99.0203 18.8567 98.9612 19.0212 98.8428 19.1294C98.7284 19.2377 98.5903 19.2918 98.4286 19.2918C98.2589 19.2918 98.1169 19.2377 98.0025 19.1294C97.892 19.0212 97.8368 18.8567 97.8368 18.6362C97.8368 18.4116 97.892 18.2472 98.0025 18.1429C98.1169 18.0346 98.2589 17.9805 98.4286 17.9805ZM103.488 20.3266C104.041 20.3266 104.514 20.4509 104.908 20.6996C105.303 20.9482 105.605 21.2971 105.814 21.7462C106.023 22.1914 106.128 22.7128 106.128 23.3103V23.9299H101.648C101.66 24.7039 101.849 25.2935 102.216 25.6985C102.583 26.1036 103.1 26.3061 103.766 26.3061C104.177 26.3061 104.54 26.268 104.855 26.1918C105.171 26.1156 105.498 26.0033 105.838 25.8549V26.7332C105.51 26.8816 105.185 26.9898 104.861 27.058C104.542 27.1262 104.163 27.1603 103.725 27.1603C103.102 27.1603 102.557 27.0319 102.092 26.7753C101.63 26.5146 101.271 26.1337 101.015 25.6324C100.758 25.1311 100.63 24.5174 100.63 23.7915C100.63 23.0817 100.746 22.4682 100.979 21.9508C101.216 21.4295 101.547 21.0284 101.973 20.7476C102.403 20.4669 102.908 20.3266 103.488 20.3266ZM103.476 21.1447C102.952 21.1447 102.533 21.3191 102.222 21.668C101.91 22.0169 101.725 22.5042 101.666 23.1299H105.098C105.094 22.7368 105.033 22.3919 104.914 22.0952C104.8 21.7944 104.624 21.5617 104.388 21.3973C104.151 21.2289 103.847 21.1447 103.476 21.1447ZM114.791 19.0212C114.314 19.0212 113.883 19.1054 113.501 19.2738C113.122 19.4382 112.799 19.6789 112.53 19.9956C112.266 20.3085 112.063 20.6875 111.921 21.1327C111.779 21.5778 111.708 22.0791 111.708 22.6366C111.708 23.3745 111.821 24.0161 112.045 24.5615C112.274 25.103 112.613 25.5221 113.063 25.8189C113.516 26.1156 114.083 26.264 114.761 26.264C115.148 26.264 115.511 26.2319 115.85 26.1677C116.194 26.0995 116.526 26.0153 116.85 25.9151V26.8054C116.535 26.9256 116.204 27.0139 115.856 27.0701C115.509 27.1303 115.096 27.1603 114.619 27.1603C113.74 27.1603 113.004 26.9758 112.412 26.6069C111.824 26.2339 111.382 25.7085 111.087 25.0308C110.795 24.353 110.648 23.553 110.648 22.6306C110.648 21.9648 110.74 21.3572 110.921 20.8078C111.107 20.2544 111.374 19.7771 111.726 19.3761C112.081 18.975 112.515 18.6663 113.027 18.4497C113.544 18.2291 114.137 18.1188 114.803 18.1188C115.241 18.1188 115.663 18.1629 116.069 18.2512C116.476 18.3394 116.843 18.4657 117.17 18.6302L116.768 19.4963C116.491 19.3681 116.188 19.2578 115.856 19.1655C115.529 19.0693 115.173 19.0212 114.791 19.0212ZM123.934 20.4469V27.04H123.129L122.987 26.1136H122.934C122.8 26.3422 122.626 26.5347 122.413 26.6911C122.2 26.8475 121.959 26.9638 121.691 27.04C121.427 27.1202 121.145 27.1603 120.845 27.1603C120.332 27.1603 119.902 27.0761 119.555 26.9076C119.208 26.7392 118.945 26.4785 118.767 26.1256C118.594 25.7727 118.507 25.3196 118.507 24.7661V20.4469H119.501V24.6939C119.501 25.2433 119.623 25.6544 119.868 25.9271C120.113 26.1959 120.486 26.3301 120.986 26.3301C121.468 26.3301 121.851 26.238 122.134 26.0534C122.423 25.8689 122.63 25.5982 122.756 25.2413C122.882 24.8804 122.945 24.4392 122.945 23.9179V20.4469H123.934ZM128.106 26.3422C128.268 26.3422 128.433 26.3281 128.603 26.3001C128.773 26.272 128.91 26.238 129.017 26.1978V26.9738C128.903 27.026 128.743 27.0701 128.538 27.1062C128.336 27.1423 128.139 27.1603 127.946 27.1603C127.602 27.1603 127.292 27.1001 127.011 26.9799C126.731 26.8555 126.506 26.647 126.337 26.3542C126.171 26.0615 126.088 25.6563 126.088 25.139V21.2289H125.164V20.7417L126.094 20.3506L126.484 18.9189H127.076V20.4469H128.975V21.2289H127.076V25.109C127.076 25.5221 127.169 25.8308 127.355 26.0354C127.544 26.2399 127.794 26.3422 128.106 26.3422ZM132.426 26.3422C132.588 26.3422 132.753 26.3281 132.923 26.3001C133.093 26.272 133.23 26.238 133.337 26.1978V26.9738C133.223 27.026 133.063 27.0701 132.858 27.1062C132.656 27.1423 132.459 27.1603 132.266 27.1603C131.922 27.1603 131.611 27.1001 131.331 26.9799C131.051 26.8555 130.826 26.647 130.657 26.3542C130.49 26.0615 130.408 25.6563 130.408 25.139V21.2289H129.484V20.7417L130.414 20.3506L130.804 18.9189H131.396V20.4469H133.295V21.2289H131.396V25.109C131.396 25.5221 131.488 25.8308 131.675 26.0354C131.864 26.2399 132.114 26.3422 132.426 26.3422ZM135.633 20.4469V27.04H134.65V20.4469H135.633ZM135.154 17.9805C135.316 17.9805 135.454 18.0346 135.568 18.1429C135.686 18.2472 135.746 18.4116 135.746 18.6362C135.746 18.8567 135.686 19.0212 135.568 19.1294C135.454 19.2377 135.316 19.2918 135.154 19.2918C134.984 19.2918 134.842 19.2377 134.728 19.1294C134.617 19.0212 134.562 18.8567 134.562 18.6362C134.562 18.4116 134.617 18.2472 134.728 18.1429C134.842 18.0346 134.984 17.9805 135.154 17.9805ZM140.787 20.3266C141.556 20.3266 142.139 20.519 142.534 20.9041C142.928 21.2851 143.125 21.8986 143.125 22.7448V27.04H142.155V22.811C142.155 22.2616 142.03 21.8505 141.782 21.5778C141.538 21.3052 141.161 21.1687 140.652 21.1687C139.933 21.1687 139.429 21.3753 139.137 21.7883C138.845 22.2015 138.698 22.801 138.698 23.587V27.04H137.717V20.4469H138.509L138.658 21.3973H138.71C138.848 21.1647 139.024 20.9703 139.237 20.8138C139.45 20.6534 139.689 20.5331 139.953 20.4529C140.218 20.3687 140.495 20.3266 140.787 20.3266ZM146.959 29.9997C146.108 29.9997 145.451 29.8373 144.989 29.5124C144.528 29.1916 144.296 28.7404 144.296 28.1589C144.296 27.7458 144.425 27.3929 144.681 27.1001C144.942 26.8074 145.301 26.6129 145.759 26.5166C145.589 26.4364 145.442 26.3161 145.32 26.1556C145.202 25.9953 145.143 25.8108 145.143 25.6023C145.143 25.3617 145.208 25.1511 145.339 24.9706C145.472 24.7861 145.676 24.6097 145.948 24.4413C145.609 24.3009 145.332 24.0643 145.119 23.7314C144.91 23.3945 144.805 23.0035 144.805 22.5583C144.805 22.0851 144.902 21.682 145.095 21.3492C145.289 21.0124 145.569 20.7557 145.936 20.5792C146.303 20.4028 146.747 20.3145 147.268 20.3145C147.381 20.3145 147.496 20.3206 147.611 20.3325C147.728 20.3406 147.842 20.3546 147.948 20.3747C148.055 20.3908 148.147 20.4108 148.226 20.4348H150.451V21.0785L149.256 21.2289C149.375 21.3853 149.473 21.5738 149.552 21.7944C149.63 22.0149 149.67 22.2596 149.67 22.5283C149.67 23.186 149.451 23.7093 149.013 24.0983C148.576 24.4834 147.973 24.6759 147.208 24.6759C147.027 24.6759 146.842 24.6598 146.652 24.6277C146.458 24.736 146.31 24.8563 146.208 24.9887C146.11 25.121 146.06 25.2734 146.06 25.4459C146.06 25.5741 146.098 25.6765 146.173 25.7527C146.251 25.8288 146.364 25.8851 146.51 25.9211C146.656 25.9531 146.832 25.9692 147.037 25.9692H148.179C148.885 25.9692 149.425 26.1196 149.8 26.4204C150.179 26.7211 150.368 27.1603 150.368 27.7378C150.368 28.4677 150.076 29.0272 149.492 29.4162C148.908 29.8052 148.065 29.9997 146.959 29.9997ZM146.989 29.2176C147.526 29.2176 147.97 29.1615 148.321 29.0492C148.676 28.941 148.94 28.7825 149.113 28.574C149.291 28.3694 149.38 28.1248 149.38 27.8401C149.38 27.5754 149.321 27.3749 149.203 27.2385C149.084 27.1062 148.911 27.0179 148.682 26.9738C148.453 26.9256 148.172 26.9017 147.842 26.9017H146.717C146.425 26.9017 146.171 26.9477 145.954 27.04C145.736 27.1323 145.569 27.2686 145.451 27.449C145.337 27.6296 145.279 27.8541 145.279 28.1228C145.279 28.4798 145.427 28.7505 145.723 28.9349C146.019 29.1234 146.44 29.2176 146.989 29.2176ZM147.244 23.948C147.713 23.948 148.067 23.8276 148.302 23.587C148.539 23.3463 148.658 22.9955 148.658 22.5344C148.658 22.041 148.538 21.6721 148.297 21.4275C148.057 21.1788 147.701 21.0545 147.232 21.0545C146.782 21.0545 146.435 21.1827 146.19 21.4394C145.95 21.6921 145.829 22.0631 145.829 22.5524C145.829 23.0015 145.951 23.3463 146.196 23.587C146.44 23.8276 146.79 23.948 147.244 23.948ZM159.907 24.6999C159.907 25.2212 159.78 25.6664 159.523 26.0354C159.271 26.4004 158.916 26.679 158.458 26.8715C158 27.0641 157.462 27.1603 156.842 27.1603C156.515 27.1603 156.205 27.1443 155.914 27.1122C155.622 27.0801 155.353 27.034 155.108 26.9738C154.864 26.9137 154.649 26.8395 154.464 26.7513V25.7707C154.759 25.895 155.12 26.0113 155.547 26.1196C155.972 26.2239 156.418 26.276 156.884 26.276C157.317 26.276 157.684 26.2179 157.985 26.1015C158.285 25.9813 158.511 25.8108 158.665 25.5903C158.822 25.3656 158.902 25.0969 158.902 24.7841C158.902 24.4834 158.837 24.2327 158.707 24.0322C158.577 23.8276 158.359 23.6431 158.055 23.4787C157.756 23.3103 157.345 23.1319 156.825 22.9434C156.458 22.811 156.134 22.6666 155.854 22.5103C155.574 22.3498 155.34 22.1693 155.15 21.9689C154.96 21.7683 154.816 21.5356 154.718 21.271C154.623 21.0063 154.576 20.7035 154.576 20.3627C154.576 19.8934 154.692 19.4924 154.925 19.1595C155.162 18.8227 155.487 18.566 155.901 18.3895C156.32 18.2091 156.799 18.1188 157.339 18.1188C157.801 18.1188 158.227 18.1629 158.617 18.2512C159.012 18.3394 159.373 18.4577 159.7 18.6061L159.387 19.4844C159.076 19.352 158.744 19.2418 158.393 19.1535C158.045 19.0653 157.686 19.0212 157.316 19.0212C156.945 19.0212 156.631 19.0773 156.375 19.1896C156.122 19.2979 155.929 19.4523 155.795 19.6528C155.661 19.8533 155.594 20.092 155.594 20.3687C155.594 20.6775 155.657 20.9341 155.784 21.1387C155.914 21.3432 156.118 21.5257 156.398 21.6861C156.683 21.8425 157.057 22.0069 157.523 22.1794C158.032 22.3679 158.464 22.5684 158.819 22.781C159.174 22.9895 159.444 23.2461 159.63 23.551C159.815 23.8517 159.907 24.2347 159.907 24.6999ZM166.885 20.4469V27.04H166.08L165.937 26.1136H165.885C165.75 26.3422 165.577 26.5347 165.363 26.6911C165.151 26.8475 164.911 26.9638 164.642 27.04C164.377 27.1202 164.095 27.1603 163.796 27.1603C163.282 27.1603 162.852 27.0761 162.505 26.9076C162.158 26.7392 161.896 26.4785 161.719 26.1256C161.545 25.7727 161.458 25.3196 161.458 24.7661V20.4469H162.453V24.6939C162.453 25.2433 162.575 25.6544 162.819 25.9271C163.064 26.1959 163.436 26.3301 163.938 26.3301C164.419 26.3301 164.801 26.238 165.086 26.0534C165.373 25.8689 165.58 25.5982 165.707 25.2413C165.833 24.8804 165.897 24.4392 165.897 23.9179V20.4469H166.885ZM172.009 20.3266C172.818 20.3266 173.464 20.6093 173.944 21.1748C174.425 21.7403 174.667 22.5905 174.667 23.7254C174.667 24.4753 174.555 25.105 174.335 25.6144C174.114 26.1236 173.803 26.5087 173.4 26.7693C173.002 27.0299 172.53 27.1603 171.986 27.1603C171.642 27.1603 171.341 27.1141 171.08 27.022C170.819 26.9297 170.597 26.8054 170.412 26.649C170.227 26.4925 170.072 26.3221 169.95 26.1376H169.878C169.891 26.2941 169.905 26.4826 169.92 26.7031C169.94 26.9237 169.95 27.1162 169.95 27.2806V29.9876H168.962V20.4469H169.773L169.903 21.4214H169.95C170.077 21.2209 170.23 21.0384 170.412 20.874C170.594 20.7055 170.814 20.5732 171.074 20.4769C171.338 20.3767 171.65 20.3266 172.009 20.3266ZM171.837 21.1687C171.388 21.1687 171.025 21.257 170.749 21.4334C170.477 21.6099 170.277 21.8746 170.152 22.2275C170.025 22.5764 169.958 23.0155 169.95 23.5449V23.7375C169.95 24.2949 170.01 24.7661 170.127 25.1511C170.25 25.5361 170.449 25.8288 170.726 26.0294C171.006 26.2299 171.38 26.3301 171.85 26.3301C172.252 26.3301 172.588 26.2198 172.855 25.9993C173.124 25.7788 173.323 25.4719 173.454 25.0789C173.587 24.6818 173.654 24.2267 173.654 23.7134C173.654 22.9353 173.504 22.3177 173.205 21.8606C172.908 21.3993 172.453 21.1687 171.837 21.1687ZM179.43 20.3266C180.238 20.3266 180.884 20.6093 181.366 21.1748C181.847 21.7403 182.087 22.5905 182.087 23.7254C182.087 24.4753 181.977 25.105 181.756 25.6144C181.535 26.1236 181.223 26.5087 180.821 26.7693C180.422 27.0299 179.951 27.1603 179.407 27.1603C179.063 27.1603 178.761 27.1141 178.501 27.022C178.241 26.9297 178.018 26.8054 177.832 26.649C177.647 26.4925 177.493 26.3221 177.37 26.1376H177.3C177.312 26.2941 177.325 26.4826 177.341 26.7031C177.361 26.9237 177.37 27.1162 177.37 27.2806V29.9876H176.382V20.4469H177.193L177.323 21.4214H177.37C177.497 21.2209 177.651 21.0384 177.832 20.874C178.014 20.7055 178.234 20.5732 178.495 20.4769C178.76 20.3767 179.072 20.3266 179.43 20.3266ZM179.259 21.1687C178.808 21.1687 178.446 21.257 178.169 21.4334C177.897 21.6099 177.698 21.8746 177.572 22.2275C177.445 22.5764 177.378 23.0155 177.37 23.5449V23.7375C177.37 24.2949 177.43 24.7661 177.548 25.1511C177.67 25.5361 177.87 25.8288 178.146 26.0294C178.426 26.2299 178.801 26.3301 179.27 26.3301C179.673 26.3301 180.008 26.2198 180.276 25.9993C180.545 25.7788 180.744 25.4719 180.874 25.0789C181.009 24.6818 181.076 24.2267 181.076 23.7134C181.076 22.9353 180.926 22.3177 180.625 21.8606C180.33 21.3993 179.874 21.1687 179.259 21.1687ZM184.792 27.04H183.804V17.6797H184.792V27.04ZM187.851 20.4469V27.04H186.869V20.4469H187.851ZM187.371 17.9805C187.533 17.9805 187.672 18.0346 187.786 18.1429C187.905 18.2472 187.964 18.4116 187.964 18.6362C187.964 18.8567 187.905 19.0212 187.786 19.1294C187.672 19.2377 187.533 19.2918 187.371 19.2918C187.202 19.2918 187.061 19.2377 186.946 19.1294C186.835 19.0212 186.78 18.8567 186.78 18.6362C186.78 18.4116 186.835 18.2472 186.946 18.1429C187.061 18.0346 187.202 17.9805 187.371 17.9805ZM192.432 20.3266C192.984 20.3266 193.457 20.4509 193.852 20.6996C194.246 20.9482 194.548 21.2971 194.758 21.7462C194.966 22.1914 195.07 22.7128 195.07 23.3103V23.9299H190.591C190.603 24.7039 190.792 25.2935 191.159 25.6985C191.526 26.1036 192.043 26.3061 192.709 26.3061C193.12 26.3061 193.483 26.268 193.798 26.1918C194.114 26.1156 194.441 26.0033 194.781 25.8549V26.7332C194.453 26.8816 194.127 26.9898 193.804 27.058C193.485 27.1262 193.106 27.1603 192.669 27.1603C192.045 27.1603 191.501 27.0319 191.035 26.7753C190.573 26.5146 190.214 26.1337 189.958 25.6324C189.701 25.1311 189.573 24.5174 189.573 23.7915C189.573 23.0817 189.689 22.4682 189.922 21.9508C190.159 21.4295 190.49 21.0284 190.917 20.7476C191.346 20.4669 191.851 20.3266 192.432 20.3266ZM192.42 21.1447C191.895 21.1447 191.476 21.3191 191.165 21.668C190.853 22.0169 190.668 22.5042 190.608 23.1299H194.041C194.037 22.7368 193.976 22.3919 193.857 22.0952C193.743 21.7944 193.568 21.5617 193.331 21.3973C193.094 21.2289 192.791 21.1447 192.42 21.1447ZM200.935 25.2353C200.935 25.6563 200.83 26.0113 200.621 26.3001C200.416 26.5848 200.121 26.7994 199.734 26.9438C199.351 27.0882 198.894 27.1603 198.361 27.1603C197.907 27.1603 197.514 27.1242 197.184 27.052C196.852 26.9799 196.562 26.8776 196.313 26.7452V25.8248C196.578 25.9572 196.894 26.0775 197.261 26.1858C197.628 26.2941 198.002 26.3482 198.385 26.3482C198.944 26.3482 199.351 26.256 199.603 26.0715C199.857 25.887 199.982 25.6363 199.982 25.3196C199.982 25.139 199.931 24.9807 199.829 24.8444C199.73 24.7039 199.562 24.5696 199.325 24.4413C199.089 24.3089 198.761 24.1645 198.343 24.0082C197.928 23.8477 197.57 23.6893 197.266 23.5329C196.967 23.3724 196.733 23.178 196.568 22.9494C196.406 22.7208 196.325 22.424 196.325 22.059C196.325 21.5016 196.546 21.0745 196.988 20.7777C197.434 20.4769 198.018 20.3266 198.739 20.3266C199.13 20.3266 199.495 20.3667 199.834 20.4469C200.177 20.5231 200.498 20.6273 200.793 20.7597L200.461 21.5597C200.194 21.4435 199.907 21.3452 199.603 21.2651C199.3 21.1847 198.991 21.1447 198.674 21.1447C198.22 21.1447 197.872 21.2209 197.628 21.3732C197.386 21.5257 197.266 21.7342 197.266 21.9989C197.266 22.2034 197.321 22.3718 197.432 22.5042C197.546 22.6366 197.728 22.7609 197.976 22.8772C198.225 22.9934 198.552 23.1299 198.959 23.2862C199.365 23.4386 199.717 23.597 200.012 23.7615C200.308 23.9219 200.535 24.1184 200.693 24.351C200.855 24.5796 200.935 24.8744 200.935 25.2353ZM208.468 27.04H207.457V19.1475H204.734V18.2452H211.178V19.1475H208.468V27.04ZM217.931 23.7314C217.931 24.2728 217.862 24.7561 217.724 25.1811C217.585 25.6063 217.387 25.9652 217.126 26.258C216.866 26.5508 216.551 26.7753 216.179 26.9317C215.812 27.0841 215.396 27.1603 214.931 27.1603C214.497 27.1603 214.098 27.0841 213.736 26.9317C213.376 26.7753 213.065 26.5508 212.8 26.258C212.54 25.9652 212.336 25.6063 212.191 25.1811C212.049 24.7561 211.977 24.2728 211.977 23.7314C211.977 23.0096 212.098 22.3959 212.338 21.8906C212.579 21.3813 212.922 20.9943 213.369 20.7296C213.818 20.4609 214.352 20.3266 214.972 20.3266C215.563 20.3266 216.08 20.4609 216.522 20.7296C216.968 20.9983 217.313 21.3874 217.558 21.8966C217.807 22.402 217.931 23.0135 217.931 23.7314ZM212.995 23.7314C212.995 24.2608 213.065 24.7199 213.202 25.109C213.341 25.498 213.554 25.7988 213.841 26.0113C214.13 26.2239 214.5 26.3301 214.954 26.3301C215.404 26.3301 215.773 26.2239 216.06 26.0113C216.352 25.7988 216.568 25.498 216.706 25.109C216.844 24.7199 216.913 24.2608 216.913 23.7314C216.913 23.206 216.844 22.7529 216.706 22.3718C216.568 21.9869 216.354 21.6901 216.067 21.4815C215.778 21.273 215.406 21.1687 214.949 21.1687C214.273 21.1687 213.778 21.3953 213.463 21.8485C213.152 22.3017 212.995 22.9294 212.995 23.7314ZM221.937 27.1603C221.116 27.1603 220.465 26.8756 219.985 26.3061C219.507 25.7367 219.269 24.8904 219.269 23.7675C219.269 22.6326 219.513 21.7763 220.002 21.1989C220.492 20.6174 221.142 20.3266 221.955 20.3266C222.298 20.3266 222.598 20.3726 222.855 20.4649C223.11 20.5572 223.332 20.6815 223.517 20.8379C223.702 20.9903 223.859 21.1647 223.984 21.3613H224.056C224.04 21.2369 224.024 21.0665 224.008 20.8499C223.993 20.6334 223.984 20.4569 223.984 20.3206V17.6797H224.967V27.04H224.174L224.026 26.1015H223.984C223.862 26.2981 223.707 26.4765 223.517 26.6369C223.332 26.7974 223.108 26.9256 222.848 27.022C222.592 27.1141 222.289 27.1603 221.937 27.1603ZM222.091 26.3301C222.785 26.3301 223.277 26.1297 223.564 25.7286C223.852 25.3275 223.996 24.732 223.996 23.942V23.7615C223.996 22.9233 223.859 22.2797 223.582 21.8304C223.31 21.3813 222.813 21.1567 222.091 21.1567C221.488 21.1567 221.036 21.3933 220.736 21.8666C220.436 22.3358 220.286 22.9774 220.286 23.7915C220.286 24.6016 220.434 25.2273 220.73 25.6684C221.029 26.1096 221.483 26.3301 222.091 26.3301ZM229.477 20.3386C230.25 20.3386 230.824 20.5151 231.199 20.868C231.573 21.2209 231.76 21.7844 231.76 22.5583V27.04H231.044L230.855 26.0655H230.807C230.627 26.3061 230.437 26.5087 230.24 26.6731C230.043 26.8335 229.814 26.9558 229.554 27.04C229.297 27.1202 228.981 27.1603 228.606 27.1603C228.212 27.1603 227.86 27.0902 227.553 26.9497C227.249 26.8094 227.009 26.5968 226.831 26.3121C226.657 26.0274 226.571 25.6664 226.571 25.2293C226.571 24.5716 226.827 24.0663 227.34 23.7134C227.852 23.3605 228.634 23.1679 229.684 23.1359L230.802 23.0877V22.6847C230.802 22.1152 230.682 21.7162 230.441 21.4876C230.2 21.259 229.861 21.1447 229.423 21.1447C229.083 21.1447 228.76 21.1948 228.453 21.2951C228.144 21.3953 227.852 21.5137 227.577 21.65L227.275 20.892C227.567 20.7397 227.902 20.6093 228.281 20.501C228.66 20.3927 229.058 20.3386 229.477 20.3386ZM230.79 23.7915L229.802 23.8337C228.993 23.8658 228.423 24.0001 228.092 24.2367C227.76 24.4733 227.595 24.8082 227.595 25.2413C227.595 25.6183 227.707 25.897 227.932 26.0775C228.157 26.258 228.454 26.3482 228.825 26.3482C229.402 26.3482 229.873 26.1858 230.24 25.861C230.607 25.5361 230.79 25.0489 230.79 24.3992V23.7915ZM232.761 20.4469H233.814L235.246 24.2728C235.329 24.4974 235.406 24.714 235.477 24.9225C235.548 25.127 235.611 25.3235 235.666 25.512C235.721 25.7005 235.764 25.883 235.796 26.0594H235.838C235.893 25.859 235.971 25.5962 236.075 25.2714C236.177 24.9426 236.288 24.6077 236.406 24.2668L237.761 20.4469H238.821L235.998 28.0085C235.848 28.4136 235.672 28.7665 235.471 29.0673C235.274 29.368 235.033 29.5986 234.748 29.759C234.465 29.9234 234.122 30.0056 233.719 30.0056C233.534 30.0056 233.37 29.9937 233.228 29.9696C233.086 29.9495 232.964 29.9255 232.861 29.8975V29.0973C232.948 29.1174 233.053 29.1354 233.175 29.1515C233.301 29.1675 233.431 29.1755 233.565 29.1755C233.81 29.1755 234.021 29.1275 234.199 29.0311C234.38 28.939 234.536 28.8025 234.666 28.6221C234.796 28.4417 234.908 28.2271 235.003 27.9784L235.359 27.052L232.761 20.4469ZM240.743 24.5976H240.099L239.827 18.2452H241.015L240.743 24.5976ZM239.708 26.4144C239.708 26.1337 239.775 25.9351 239.909 25.8189C240.044 25.6985 240.211 25.6383 240.413 25.6383C240.61 25.6383 240.775 25.6985 240.91 25.8189C241.047 25.9351 241.117 26.1337 241.117 26.4144C241.117 26.6911 241.047 26.8936 240.91 27.022C240.775 27.1463 240.61 27.2084 240.413 27.2084C240.211 27.2084 240.044 27.1463 239.909 27.022C239.775 26.8936 239.708 26.6911 239.708 26.4144Z" fill="#292929"/>
</g>
</g>
<g clip-path="url(#clip1_351_5495)">
<path d="M353 8H257V36H353V8Z" fill="#FFF1C0"/>
<path d="M272.319 22.6306C272.319 23.3083 272.234 23.926 272.064 24.4834C271.894 25.0368 271.641 25.514 271.305 25.9151C270.974 26.3121 270.561 26.6189 270.067 26.8355C269.573 27.052 269 27.1603 268.348 27.1603C267.676 27.1603 267.09 27.052 266.588 26.8355C266.09 26.6189 265.675 26.3101 265.343 25.909C265.015 25.5081 264.768 25.0288 264.602 24.4713C264.44 23.9139 264.359 23.2963 264.359 22.6185C264.359 21.7202 264.506 20.9321 264.798 20.2544C265.09 19.5767 265.533 19.0492 266.126 18.6723C266.722 18.2953 267.469 18.1068 268.366 18.1068C269.223 18.1068 269.944 18.2933 270.529 18.6663C271.118 19.0392 271.562 19.5646 271.863 20.2424C272.167 20.9161 272.319 21.7122 272.319 22.6306ZM265.42 22.6306C265.42 23.3765 265.525 24.0222 265.734 24.5676C265.944 25.113 266.264 25.534 266.695 25.8308C267.129 26.1276 267.68 26.276 268.348 26.276C269.02 26.276 269.569 26.1276 269.996 25.8308C270.426 25.534 270.744 25.113 270.95 24.5676C271.155 24.0222 271.258 23.3765 271.258 22.6306C271.258 21.4955 271.023 20.6093 270.553 19.9717C270.087 19.3299 269.358 19.0091 268.366 19.0091C267.694 19.0091 267.141 19.1555 266.706 19.4483C266.272 19.7411 265.948 20.1582 265.734 20.6996C265.525 21.2369 265.42 21.8806 265.42 22.6306ZM277.179 20.3266C277.949 20.3266 278.532 20.519 278.927 20.9041C279.322 21.2851 279.52 21.8986 279.52 22.7448V27.04H278.548V22.811C278.548 22.2616 278.423 21.8505 278.175 21.5778C277.93 21.3052 277.552 21.1687 277.043 21.1687C276.323 21.1687 275.818 21.3753 275.525 21.7883C275.233 22.2015 275.087 22.801 275.087 23.587V27.04H274.103V20.4469H274.897L275.045 21.3973H275.099C275.237 21.1647 275.413 20.9703 275.626 20.8138C275.839 20.6534 276.078 20.5331 276.343 20.4529C276.608 20.3687 276.887 20.3266 277.179 20.3266ZM282.537 27.04H281.547V17.6797H282.537V27.04ZM283.592 20.4469H284.647L286.081 24.2728C286.164 24.4974 286.241 24.714 286.312 24.9225C286.383 25.127 286.446 25.3235 286.502 25.512C286.557 25.7005 286.6 25.883 286.632 26.0594H286.674C286.729 25.859 286.808 25.5962 286.911 25.2714C287.013 24.9426 287.124 24.6077 287.242 24.2668L288.6 20.4469H289.661L286.834 28.0085C286.683 28.4136 286.508 28.7665 286.306 29.0673C286.108 29.368 285.867 29.5986 285.583 29.759C285.299 29.9234 284.955 30.0056 284.552 30.0056C284.366 30.0056 284.202 29.9937 284.06 29.9696C283.918 29.9495 283.795 29.9255 283.692 29.8975V29.0973C283.779 29.1174 283.884 29.1354 284.007 29.1515C284.133 29.1675 284.263 29.1755 284.398 29.1755C284.643 29.1755 284.854 29.1275 285.032 29.0311C285.214 28.939 285.37 28.8025 285.5 28.6221C285.63 28.4417 285.743 28.2271 285.838 27.9784L286.193 27.052L283.592 20.4469ZM297.075 27.04H296.115V20.8078C296.115 20.5712 296.115 20.3687 296.115 20.2003C296.119 20.0278 296.123 19.8713 296.127 19.731C296.135 19.5866 296.144 19.4402 296.156 19.2918C296.034 19.4202 295.919 19.5305 295.813 19.6227C295.706 19.7109 295.573 19.8213 295.415 19.9536L294.426 20.7597L293.91 20.0799L296.257 18.2452H297.075V27.04ZM306.439 18.2452C307.15 18.2452 307.737 18.3354 308.199 18.5159C308.666 18.6923 309.013 18.963 309.242 19.328C309.472 19.6929 309.586 20.1582 309.586 20.7236C309.586 21.1888 309.503 21.5778 309.337 21.8906C309.171 22.1995 308.954 22.4501 308.685 22.6425C308.417 22.8351 308.13 22.9835 307.826 23.0877L310.203 27.04H309.029L306.907 23.3704H305.106V27.04H304.098V18.2452H306.439ZM306.38 19.1294H305.106V22.5042H306.481C307.188 22.5042 307.707 22.3578 308.039 22.0651C308.375 21.7723 308.543 21.3412 308.543 20.7717C308.543 20.1742 308.365 19.751 308.01 19.5024C307.658 19.2538 307.115 19.1294 306.38 19.1294ZM313.942 20.3266C314.496 20.3266 314.97 20.4509 315.365 20.6996C315.76 20.9482 316.062 21.2971 316.272 21.7462C316.481 22.1914 316.586 22.7128 316.586 23.3103V23.9299H312.099C312.111 24.7039 312.301 25.2935 312.668 25.6985C313.036 26.1036 313.553 26.3061 314.221 26.3061C314.632 26.3061 314.995 26.268 315.311 26.1918C315.627 26.1156 315.955 26.0033 316.295 25.8549V26.7332C315.967 26.8816 315.641 26.9898 315.317 27.058C314.997 27.1262 314.618 27.1603 314.179 27.1603C313.555 27.1603 313.01 27.0319 312.544 26.7753C312.081 26.5146 311.722 26.1337 311.465 25.6324C311.208 25.1311 311.08 24.5174 311.08 23.7915C311.08 23.0817 311.196 22.4682 311.429 21.9508C311.667 21.4295 311.998 21.0284 312.425 20.7476C312.856 20.4669 313.362 20.3266 313.942 20.3266ZM313.93 21.1447C313.405 21.1447 312.986 21.3191 312.674 21.668C312.362 22.0169 312.176 22.5042 312.117 23.1299H315.554C315.55 22.7368 315.489 22.3919 315.371 22.0952C315.256 21.7944 315.08 21.5617 314.843 21.3973C314.606 21.2289 314.302 21.1447 313.93 21.1447ZM325.31 20.3266C326.025 20.3266 326.564 20.517 326.928 20.898C327.291 21.275 327.473 21.8826 327.473 22.7208V27.04H326.501V22.7689C326.501 22.2355 326.387 21.8365 326.157 21.5718C325.932 21.3031 325.596 21.1687 325.15 21.1687C324.522 21.1687 324.065 21.3532 323.781 21.7222C323.496 22.0912 323.354 22.6346 323.354 23.3524V27.04H322.376V22.7689C322.376 22.4119 322.325 22.1152 322.222 21.8786C322.123 21.6419 321.973 21.4655 321.772 21.3492C321.574 21.2289 321.323 21.1687 321.019 21.1687C320.588 21.1687 320.242 21.259 319.982 21.4394C319.721 21.6199 319.531 21.8887 319.413 22.2455C319.298 22.5984 319.241 23.0336 319.241 23.551V27.04H318.257V20.4469H319.051L319.199 21.3793H319.253C319.383 21.1507 319.547 20.9582 319.745 20.8018C319.942 20.6454 320.163 20.5271 320.408 20.4469C320.653 20.3667 320.914 20.3266 321.191 20.3266C321.685 20.3266 322.098 20.4208 322.429 20.6093C322.765 20.7938 323.008 21.0766 323.158 21.4575H323.212C323.425 21.0766 323.718 20.7938 324.089 20.6093C324.46 20.4208 324.867 20.3266 325.31 20.3266ZM331.924 20.3386C332.698 20.3386 333.273 20.5151 333.649 20.868C334.024 21.2209 334.212 21.7844 334.212 22.5583V27.04H333.495L333.305 26.0655H333.258C333.076 26.3061 332.886 26.5087 332.689 26.6731C332.491 26.8335 332.262 26.9558 332.001 27.04C331.744 27.1202 331.428 27.1603 331.053 27.1603C330.658 27.1603 330.306 27.0902 329.998 26.9497C329.694 26.8094 329.453 26.5968 329.275 26.3121C329.101 26.0274 329.014 25.6664 329.014 25.2293C329.014 24.5716 329.271 24.0663 329.784 23.7134C330.298 23.3605 331.08 23.1679 332.131 23.1359L333.252 23.0877V22.6847C333.252 22.1152 333.131 21.7162 332.89 21.4876C332.649 21.259 332.309 21.1447 331.871 21.1447C331.531 21.1447 331.207 21.1948 330.899 21.2951C330.591 21.3953 330.298 21.5137 330.022 21.65L329.719 20.892C330.012 20.7397 330.347 20.6093 330.727 20.501C331.106 20.3927 331.505 20.3386 331.924 20.3386ZM333.24 23.7915L332.25 23.8337C331.44 23.8658 330.869 24.0001 330.537 24.2367C330.205 24.4733 330.039 24.8082 330.039 25.2413C330.039 25.6183 330.152 25.897 330.377 26.0775C330.602 26.258 330.901 26.3482 331.272 26.3482C331.849 26.3482 332.321 26.1858 332.689 25.861C333.056 25.5361 333.24 25.0489 333.24 24.3992V23.7915ZM337.223 20.4469V27.04H336.239V20.4469H337.223ZM336.743 17.9805C336.904 17.9805 337.043 18.0346 337.157 18.1429C337.276 18.2472 337.335 18.4116 337.335 18.6362C337.335 18.8567 337.276 19.0212 337.157 19.1294C337.043 19.2377 336.904 19.2918 336.743 19.2918C336.573 19.2918 336.43 19.2377 336.316 19.1294C336.205 19.0212 336.15 18.8567 336.15 18.6362C336.15 18.4116 336.205 18.2472 336.316 18.1429C336.43 18.0346 336.573 17.9805 336.743 17.9805ZM342.385 20.3266C343.155 20.3266 343.738 20.519 344.133 20.9041C344.528 21.2851 344.726 21.8986 344.726 22.7448V27.04H343.754V22.811C343.754 22.2616 343.629 21.8505 343.38 21.5778C343.135 21.3052 342.758 21.1687 342.248 21.1687C341.529 21.1687 341.024 21.3753 340.731 21.7883C340.439 22.2015 340.293 22.801 340.293 23.587V27.04H339.309V20.4469H340.103L340.251 21.3973H340.304C340.443 21.1647 340.618 20.9703 340.832 20.8138C341.045 20.6534 341.284 20.5331 341.549 20.4529C341.814 20.3687 342.092 20.3266 342.385 20.3266Z" fill="#AB7221"/>
</g>
<g clip-path="url(#clip2_351_5495)">
<path d="M202 44H0V72H202V44Z" fill="#D14646"/>
<path d="M15.3295 58.6306C15.3295 59.3083 15.2445 59.926 15.0745 60.4834C14.9046 61.0368 14.6517 61.514 14.3157 61.9151C13.9836 62.3121 13.5706 62.6189 13.0766 62.8355C12.5826 63.052 12.0094 63.1603 11.3572 63.1603C10.6853 63.1603 10.0984 63.052 9.5964 62.8355C9.09838 62.6189 8.68337 62.3101 8.35136 61.909C8.0233 61.5081 7.77627 61.0288 7.61026 60.4713C7.44821 59.9139 7.36719 59.2963 7.36719 58.6185C7.36719 57.7202 7.51342 56.9321 7.80591 56.2544C8.09839 55.5767 8.54107 55.0492 9.13395 54.6723C9.73077 54.2953 10.4778 54.1068 11.375 54.1068C12.2327 54.1068 12.954 54.2933 13.539 54.6663C14.1279 55.0392 14.5726 55.5646 14.873 56.2424C15.1773 56.9161 15.3295 57.7122 15.3295 58.6306ZM8.42843 58.6306C8.42843 59.3765 8.53317 60.0222 8.74265 60.5676C8.95214 61.113 9.27229 61.534 9.70311 61.8308C10.1379 62.1276 10.6893 62.276 11.3572 62.276C12.0292 62.276 12.5786 62.1276 13.0054 61.8308C13.4362 61.534 13.7544 61.113 13.9599 60.5676C14.1654 60.0222 14.2682 59.3765 14.2682 58.6306C14.2682 57.4955 14.0331 56.6093 13.5627 55.9717C13.0964 55.3299 12.3671 55.0091 11.375 55.0091C10.7031 55.0091 10.1497 55.1555 9.71497 55.4483C9.28019 55.7411 8.95609 56.1582 8.74265 56.6996C8.53317 57.2369 8.42843 57.8806 8.42843 58.6306ZM20.1911 56.3266C20.9618 56.3266 21.5448 56.519 21.94 56.9041C22.3353 57.2851 22.5329 57.8986 22.5329 58.7448V63.04H21.5606V58.811C21.5606 58.2616 21.4361 57.8505 21.1871 57.5778C20.942 57.3052 20.5645 57.1687 20.0547 57.1687C19.3353 57.1687 18.8294 57.3753 18.5369 57.7883C18.2445 58.2015 18.0983 58.801 18.0983 59.587V63.04H17.1141V56.4469H17.9085L18.0567 57.3973H18.1101C18.2484 57.1647 18.4243 56.9703 18.6377 56.8138C18.8512 56.6534 19.0903 56.5331 19.3551 56.4529C19.6199 56.3687 19.8986 56.3266 20.1911 56.3266ZM25.5506 63.04H24.5606V53.6797H25.5506V63.04ZM26.606 56.4469H27.6612L29.096 60.2728C29.179 60.4974 29.2562 60.714 29.3272 60.9225C29.3984 61.127 29.4617 61.3235 29.517 61.512C29.5723 61.7005 29.6158 61.883 29.6475 62.0594H29.689C29.7443 61.859 29.8233 61.5962 29.9261 61.2714C30.0288 60.9426 30.1396 60.6077 30.2581 60.2668L31.6158 56.4469H32.677L29.849 64.0085C29.6988 64.4136 29.523 64.7665 29.3213 65.0673C29.1237 65.368 28.8826 65.5986 28.5981 65.759C28.3135 65.9234 27.9695 66.0056 27.5664 66.0056C27.3806 66.0056 27.2166 65.9937 27.0743 65.9696C26.9321 65.9495 26.8095 65.9255 26.7068 65.8975V65.0973C26.7937 65.1174 26.8985 65.1354 27.021 65.1515C27.1474 65.1675 27.2779 65.1755 27.4123 65.1755C27.6574 65.1755 27.8688 65.1275 28.0467 65.0311C28.2285 64.939 28.3846 64.8025 28.5151 64.6221C28.6454 64.4417 28.7581 64.2271 28.8529 63.9784L29.2087 63.052L26.606 56.4469ZM40.0938 63.04H39.1334V56.8078C39.1334 56.5712 39.1334 56.3687 39.1334 56.2003C39.1374 56.0278 39.1414 55.8713 39.1452 55.731C39.1532 55.5866 39.1631 55.4402 39.1749 55.2918C39.0524 55.4202 38.9378 55.5305 38.8311 55.6227C38.7243 55.7109 38.5919 55.8213 38.4338 55.9536L37.4437 56.7597L36.928 56.0799L39.2757 54.2452H40.0938V63.04ZM47.1195 63.04V54.2452H48.1274V63.04H47.1195ZM53.4395 56.3266C54.2102 56.3266 54.7933 56.519 55.1884 56.9041C55.5837 57.2851 55.7813 57.8986 55.7813 58.7448V63.04H54.8091V58.811C54.8091 58.2616 54.6845 57.8505 54.4355 57.5778C54.1905 57.3052 53.813 57.1687 53.3031 57.1687C52.5837 57.1687 52.0779 57.3753 51.7853 57.7883C51.4928 58.2015 51.3467 58.801 51.3467 59.587V63.04H50.3625V56.4469H51.1569L51.3052 57.3973H51.3585C51.4968 57.1647 51.6727 56.9703 51.8861 56.8138C52.0996 56.6534 52.3387 56.5331 52.6035 56.4529C52.8683 56.3687 53.147 56.3266 53.4395 56.3266ZM66.0025 60.6999C66.0025 61.2212 65.874 61.6664 65.6172 62.0354C65.3642 62.4004 65.0085 62.679 64.55 62.8715C64.0914 63.0641 63.552 63.1603 62.9314 63.1603C62.6034 63.1603 62.2931 63.1443 62.0006 63.1122C61.7081 63.0801 61.4394 63.034 61.1942 62.9738C60.9492 62.9137 60.7338 62.8395 60.5481 62.7513V61.7707C60.8445 61.895 61.2062 62.0113 61.633 62.1196C62.0599 62.2239 62.5065 62.276 62.9729 62.276C63.4077 62.276 63.7753 62.2179 64.0757 62.1015C64.376 61.9813 64.6033 61.8108 64.7575 61.5903C64.9156 61.3656 64.9946 61.0969 64.9946 60.7841C64.9946 60.4834 64.9294 60.2327 64.799 60.0322C64.6685 59.8276 64.4512 59.6431 64.1469 59.4787C63.8464 59.3103 63.4353 59.1319 62.9137 58.9434C62.5461 58.811 62.2219 58.6666 61.9413 58.5103C61.6607 58.3498 61.4255 58.1693 61.2357 57.9689C61.0461 57.7683 60.9018 57.5356 60.803 57.271C60.7081 57.0063 60.6606 56.7035 60.6606 56.3627C60.6606 55.8934 60.7773 55.4924 61.0104 55.1595C61.2477 54.8227 61.5737 54.566 61.9888 54.3895C62.4077 54.2091 62.8879 54.1188 63.4294 54.1188C63.8919 54.1188 64.3187 54.1629 64.71 54.2512C65.1053 54.3394 65.4669 54.4577 65.795 54.6061L65.4807 55.4844C65.1686 55.352 64.8365 55.2418 64.4847 55.1535C64.1369 55.0653 63.7773 55.0212 63.4057 55.0212C63.0342 55.0212 62.7199 55.0773 62.4631 55.1896C62.2101 55.2979 62.0164 55.4523 61.882 55.6528C61.7476 55.8533 61.6805 56.092 61.6805 56.3687C61.6805 56.6775 61.7437 56.9341 61.8702 57.1387C62.0006 57.3432 62.2061 57.5257 62.4867 57.6861C62.7714 57.8425 63.1468 58.0069 63.6133 58.1794C64.1231 58.3679 64.5559 58.5684 64.9116 58.781C65.2673 58.9895 65.5381 59.2461 65.7239 59.551C65.9097 59.8517 66.0025 60.2347 66.0025 60.6999ZM69.7258 62.3422C69.8879 62.3422 70.0539 62.3281 70.2237 62.3001C70.3937 62.272 70.532 62.238 70.6388 62.1978V62.9738C70.5242 63.026 70.364 63.0701 70.1585 63.1062C69.9569 63.1423 69.7594 63.1603 69.5656 63.1603C69.2218 63.1603 68.9095 63.1001 68.6289 62.9799C68.3483 62.8555 68.1231 62.647 67.9531 62.3542C67.7871 62.0615 67.704 61.6563 67.704 61.139V57.2289H66.7791V56.7417L67.71 56.3506L68.1013 54.9189H68.6942V56.4469H70.5973V57.2289H68.6942V61.109C68.6942 61.5221 68.787 61.8308 68.9728 62.0354C69.1625 62.2399 69.4135 62.3422 69.7258 62.3422ZM77.5577 59.7314C77.5577 60.2728 77.4885 60.7561 77.3502 61.1811C77.2118 61.6063 77.0122 61.9652 76.7513 62.258C76.4905 62.5508 76.1742 62.7753 75.8027 62.9317C75.4351 63.0841 75.0181 63.1603 74.5517 63.1603C74.1169 63.1603 73.7178 63.0841 73.3542 62.9317C72.9945 62.7753 72.6822 62.5508 72.4174 62.258C72.1565 61.9652 71.953 61.6063 71.8067 61.1811C71.6645 60.7561 71.5933 60.2728 71.5933 59.7314C71.5933 59.0096 71.7139 58.3959 71.955 57.8906C72.1961 57.3813 72.5399 56.9943 72.9866 56.7296C73.4372 56.4609 73.9727 56.3266 74.5932 56.3266C75.1861 56.3266 75.7039 56.4609 76.1465 56.7296C76.5933 56.9983 76.9391 57.3874 77.1841 57.8966C77.4332 58.402 77.5577 59.0135 77.5577 59.7314ZM72.6131 59.7314C72.6131 60.2608 72.6822 60.7199 72.8206 61.109C72.9589 61.498 73.1723 61.7988 73.4608 62.0113C73.7494 62.2239 74.1209 62.3301 74.5755 62.3301C75.026 62.3301 75.3956 62.2239 75.6841 62.0113C75.9767 61.7988 76.192 61.498 76.3303 61.109C76.4687 60.7199 76.5378 60.2608 76.5378 59.7314C76.5378 59.206 76.4687 58.7529 76.3303 58.3718C76.192 57.9869 75.9786 57.6901 75.6901 57.4815C75.4016 57.273 75.028 57.1687 74.5695 57.1687C73.8936 57.1687 73.3976 57.3953 73.0814 57.8485C72.7692 58.3017 72.6131 58.9294 72.6131 59.7314ZM81.8619 63.1603C81.2769 63.1603 80.7611 63.038 80.3145 62.7934C79.8679 62.5488 79.5201 62.1758 79.271 61.6745C79.022 61.1732 78.8975 60.5415 78.8975 59.7796C78.8975 58.9815 79.028 58.3297 79.2888 57.8245C79.5536 57.3151 79.9173 56.9381 80.3797 56.6935C80.8422 56.4489 81.3679 56.3266 81.9567 56.3266C82.2808 56.3266 82.5931 56.3607 82.8936 56.4289C83.1979 56.493 83.4469 56.5752 83.6405 56.6755L83.3441 57.5117C83.1464 57.4315 82.9172 57.3592 82.6564 57.2951C82.3995 57.2309 82.1583 57.1989 81.933 57.1989C81.4824 57.1989 81.107 57.2971 80.8066 57.4936C80.5102 57.6901 80.2869 57.9788 80.1366 58.3599C79.9904 58.7409 79.9173 59.21 79.9173 59.7675C79.9173 60.3009 79.9884 60.7561 80.1307 61.1331C80.2769 61.5101 80.4924 61.7988 80.777 61.9993C81.0655 62.1959 81.4251 62.2941 81.856 62.2941C82.1998 62.2941 82.5101 62.258 82.7868 62.1858C83.0634 62.1096 83.3145 62.0214 83.5397 61.9211V62.8114C83.3224 62.9237 83.0792 63.0099 82.8106 63.0701C82.5456 63.1303 82.2295 63.1603 81.8619 63.1603ZM86.0594 53.6797V58.5403C86.0594 58.7008 86.0535 58.8972 86.0417 59.1299C86.0299 59.3584 86.0199 59.5609 86.012 59.7375H86.0535C86.1365 59.6332 86.2571 59.4787 86.4152 59.2742C86.5773 59.0697 86.7136 58.9053 86.8243 58.781L88.9824 56.4469H90.1384L87.5239 59.2622L90.3282 63.04H89.1424L86.848 59.9179L86.0594 60.6518V63.04H85.0812V53.6797H86.0594ZM91.3123 62.4144C91.3123 62.1337 91.3795 61.9351 91.5139 61.8189C91.6483 61.6985 91.8124 61.6383 92.006 61.6383C92.2075 61.6383 92.3775 61.6985 92.5158 61.8189C92.6542 61.9351 92.7233 62.1337 92.7233 62.4144C92.7233 62.6911 92.6542 62.8936 92.5158 63.022C92.3775 63.1463 92.2075 63.2084 92.006 63.2084C91.8124 63.2084 91.6483 63.1463 91.5139 63.022C91.3795 62.8936 91.3123 62.6911 91.3123 62.4144ZM100.164 58.6546L102.47 54.2452H103.555L100.668 59.6292V63.04H99.66V59.6773L96.7668 54.2452H97.8695L100.164 58.6546ZM110.201 59.7314C110.201 60.2728 110.132 60.7561 109.994 61.1811C109.855 61.6063 109.656 61.9652 109.395 62.258C109.134 62.5508 108.818 62.7753 108.446 62.9317C108.079 63.0841 107.662 63.1603 107.195 63.1603C106.761 63.1603 106.361 63.0841 105.998 62.9317C105.638 62.7753 105.326 62.5508 105.061 62.258C104.8 61.9652 104.597 61.6063 104.45 61.1811C104.308 60.7561 104.237 60.2728 104.237 59.7314C104.237 59.0096 104.358 58.3959 104.599 57.8906C104.84 57.3813 105.184 56.9943 105.63 56.7296C106.081 56.4609 106.616 56.3266 107.237 56.3266C107.83 56.3266 108.348 56.4609 108.79 56.7296C109.237 56.9983 109.583 57.3874 109.828 57.8966C110.077 58.402 110.201 59.0135 110.201 59.7314ZM105.257 59.7314C105.257 60.2608 105.326 60.7199 105.464 61.109C105.603 61.498 105.816 61.7988 106.105 62.0113C106.393 62.2239 106.765 62.3301 107.219 62.3301C107.67 62.3301 108.039 62.2239 108.328 62.0113C108.62 61.7988 108.836 61.498 108.974 61.109C109.112 60.7199 109.182 60.2608 109.182 59.7314C109.182 59.206 109.112 58.7529 108.974 58.3718C108.836 57.9869 108.622 57.6901 108.334 57.4815C108.045 57.273 107.672 57.1687 107.213 57.1687C106.537 57.1687 106.041 57.3953 105.725 57.8485C105.413 58.3017 105.257 58.9294 105.257 59.7314ZM117.268 56.4469V63.04H116.462L116.32 62.1136H116.267C116.132 62.3422 115.958 62.5347 115.745 62.6911C115.532 62.8475 115.29 62.9638 115.022 63.04C114.757 63.1202 114.474 63.1603 114.174 63.1603C113.66 63.1603 113.229 63.0761 112.881 62.9076C112.534 62.7392 112.271 62.4785 112.092 62.1256C111.919 61.7727 111.832 61.3196 111.832 60.7661V56.4469H112.827V60.6939C112.827 61.2433 112.95 61.6544 113.195 61.9271C113.44 62.1959 113.814 62.3301 114.316 62.3301C114.798 62.3301 115.182 62.238 115.467 62.0534C115.755 61.8689 115.962 61.5982 116.089 61.2413C116.215 60.8804 116.278 60.4392 116.278 59.9179V56.4469H117.268ZM124.994 54.2452C125.705 54.2452 126.292 54.3354 126.754 54.5159C127.221 54.6923 127.569 54.963 127.797 55.328C128.027 55.6929 128.142 56.1582 128.142 56.7236C128.142 57.1888 128.059 57.5778 127.892 57.8906C127.727 58.1995 127.509 58.4501 127.241 58.6425C126.972 58.8351 126.685 58.9835 126.381 59.0877L128.759 63.04H127.584L125.462 59.3704H123.659V63.04H122.651V54.2452H124.994ZM124.934 55.1294H123.659V58.5042H125.035C125.742 58.5042 126.262 58.3578 126.594 58.0651C126.93 57.7723 127.099 57.3412 127.099 56.7717C127.099 56.1742 126.92 55.751 126.564 55.5024C126.213 55.2538 125.669 55.1294 124.934 55.1294ZM132.5 56.3266C133.053 56.3266 133.527 56.4509 133.923 56.6996C134.318 56.9482 134.62 57.2971 134.83 57.7462C135.038 58.1914 135.143 58.7128 135.143 59.3103V59.9299H130.655C130.667 60.7039 130.857 61.2935 131.225 61.6985C131.592 62.1036 132.11 62.3061 132.778 62.3061C133.19 62.3061 133.553 62.268 133.868 62.1918C134.185 62.1156 134.513 62.0033 134.853 61.8549V62.7332C134.525 62.8816 134.198 62.9898 133.875 63.058C133.555 63.1262 133.175 63.1603 132.737 63.1603C132.112 63.1603 131.567 63.0319 131.1 62.7753C130.638 62.5146 130.278 62.1337 130.022 61.6324C129.764 61.1311 129.635 60.5174 129.635 59.7915C129.635 59.0817 129.752 58.4682 129.985 57.9508C130.222 57.4295 130.555 57.0284 130.982 56.7476C131.412 56.4669 131.918 56.3266 132.5 56.3266ZM132.488 57.1447C131.962 57.1447 131.543 57.3191 131.23 57.668C130.918 58.0169 130.732 58.5042 130.673 59.1299H134.112C134.108 58.7368 134.047 58.3919 133.928 58.0952C133.813 57.7944 133.638 57.5617 133.4 57.3973C133.163 57.2289 132.86 57.1447 132.488 57.1447ZM141.174 65.9876V63.1603C141.174 63.0039 141.177 62.8234 141.185 62.6189C141.193 62.4144 141.207 62.238 141.227 62.0896H141.161C140.979 62.3943 140.721 62.649 140.384 62.8535C140.049 63.058 139.616 63.1603 139.086 63.1603C138.291 63.1603 137.653 62.8756 137.171 62.3061C136.689 61.7367 136.448 60.8863 136.448 59.7555C136.448 59.0135 136.558 58.388 136.78 57.8786C137.001 57.3692 137.313 56.9843 137.716 56.7236C138.124 56.4589 138.598 56.3266 139.139 56.3266C139.657 56.3266 140.081 56.4309 140.409 56.6394C140.736 56.8439 140.994 57.0946 141.179 57.3913H141.227L141.374 56.4469H142.157V65.9876H141.174ZM139.269 62.3301C139.729 62.3301 140.096 62.2439 140.373 62.0715C140.649 61.895 140.851 61.6304 140.977 61.2775C141.108 60.9245 141.177 60.4854 141.185 59.96V59.7494C141.185 58.8992 141.042 58.2556 140.759 57.8184C140.474 57.3773 139.977 57.1567 139.269 57.1567C138.661 57.1567 138.209 57.3933 137.913 57.8666C137.616 58.3358 137.468 58.9734 137.468 59.7796C137.468 60.5856 137.616 61.2133 137.913 61.6624C138.209 62.1076 138.661 62.3301 139.269 62.3301ZM149.616 56.4469V63.04H148.81L148.667 62.1136H148.613C148.48 62.3422 148.305 62.5347 148.092 62.6911C147.878 62.8475 147.638 62.9638 147.368 63.04C147.103 63.1202 146.821 63.1603 146.52 63.1603C146.007 63.1603 145.577 63.0761 145.228 62.9076C144.88 62.7392 144.617 62.4785 144.44 62.1256C144.266 61.7727 144.179 61.3196 144.179 60.7661V56.4469H145.175V60.6939C145.175 61.2433 145.297 61.6544 145.542 61.9271C145.788 62.1959 146.161 62.3301 146.663 62.3301C147.145 62.3301 147.528 62.238 147.813 62.0534C148.102 61.8689 148.31 61.5982 148.436 61.2413C148.563 60.8804 148.625 60.4392 148.625 59.9179V56.4469H149.616ZM154.199 56.3266C154.752 56.3266 155.226 56.4509 155.622 56.6996C156.017 56.9482 156.319 57.2971 156.529 57.7462C156.739 58.1914 156.842 58.7128 156.842 59.3103V59.9299H152.354C152.366 60.7039 152.556 61.2935 152.924 61.6985C153.291 62.1036 153.809 62.3061 154.477 62.3061C154.889 62.3061 155.252 62.268 155.569 62.1918C155.884 62.1156 156.212 62.0033 156.552 61.8549V62.7332C156.224 62.8816 155.899 62.9898 155.574 63.058C155.254 63.1262 154.874 63.1603 154.436 63.1603C153.811 63.1603 153.266 63.0319 152.799 62.7753C152.337 62.5146 151.978 62.1337 151.721 61.6324C151.463 61.1311 151.335 60.5174 151.335 59.7915C151.335 59.0817 151.451 58.4682 151.685 57.9508C151.921 57.4295 152.254 57.0284 152.681 56.7476C153.111 56.4669 153.618 56.3266 154.199 56.3266ZM154.187 57.1447C153.661 57.1447 153.242 57.3191 152.929 57.668C152.618 58.0169 152.431 58.5042 152.373 59.1299H155.811C155.807 58.7368 155.746 58.3919 155.627 58.0952C155.512 57.7944 155.337 57.5617 155.099 57.3973C154.862 57.2289 154.559 57.1447 154.187 57.1447ZM162.718 61.2353C162.718 61.6563 162.613 62.0113 162.403 62.3001C162.198 62.5848 161.902 62.7994 161.515 62.9438C161.131 63.0882 160.673 63.1603 160.139 63.1603C159.685 63.1603 159.292 63.1242 158.959 63.052C158.627 62.9799 158.337 62.8776 158.087 62.7452V61.8248C158.352 61.9572 158.669 62.0775 159.037 62.1858C159.404 62.2941 159.78 62.3482 160.163 62.3482C160.724 62.3482 161.131 62.256 161.385 62.0715C161.637 61.887 161.763 61.6363 161.763 61.3196C161.763 61.139 161.712 60.9807 161.61 60.8444C161.51 60.7039 161.343 60.5696 161.105 60.4413C160.868 60.3089 160.54 60.1645 160.122 60.0082C159.707 59.8477 159.347 59.6893 159.042 59.5329C158.742 59.3724 158.509 59.178 158.342 58.9494C158.18 58.7208 158.1 58.424 158.1 58.059C158.1 57.5016 158.321 57.0745 158.764 56.7777C159.21 56.4769 159.795 56.3266 160.518 56.3266C160.91 56.3266 161.275 56.3667 161.615 56.4469C161.96 56.5231 162.28 56.6273 162.576 56.7597L162.243 57.5597C161.975 57.4435 161.688 57.3452 161.385 57.2651C161.08 57.1847 160.77 57.1447 160.453 57.1447C159.999 57.1447 159.649 57.2209 159.404 57.3732C159.163 57.5257 159.042 57.7342 159.042 57.9989C159.042 58.2034 159.097 58.3718 159.208 58.5042C159.323 58.6366 159.505 58.7609 159.754 58.8772C160.003 58.9934 160.33 59.1299 160.738 59.2862C161.145 59.4386 161.497 59.597 161.793 59.7615C162.09 59.9219 162.317 60.1184 162.475 60.351C162.637 60.5796 162.718 60.8744 162.718 61.2353ZM166.4 62.3422C166.562 62.3422 166.728 62.3281 166.898 62.3001C167.068 62.272 167.206 62.238 167.313 62.1978V62.9738C167.198 63.026 167.038 63.0701 166.833 63.1062C166.631 63.1423 166.433 63.1603 166.24 63.1603C165.896 63.1603 165.584 63.1001 165.303 62.9799C165.023 62.8555 164.798 62.647 164.628 62.3542C164.461 62.0615 164.378 61.6563 164.378 61.139V57.2289H163.453V56.7417L164.384 56.3506L164.776 54.9189H165.368V56.4469H167.271V57.2289H165.368V61.109C165.368 61.5221 165.461 61.8308 165.646 62.0354C165.836 62.2399 166.088 62.3422 166.4 62.3422ZM171.131 56.3266C171.684 56.3266 172.159 56.4509 172.554 56.6996C172.949 56.9482 173.252 57.2971 173.462 57.7462C173.67 58.1914 173.775 58.7128 173.775 59.3103V59.9299H169.287C169.299 60.7039 169.489 61.2935 169.856 61.6985C170.224 62.1036 170.742 62.3061 171.41 62.3061C171.821 62.3061 172.184 62.268 172.5 62.1918C172.817 62.1156 173.145 62.0033 173.485 61.8549V62.7332C173.157 62.8816 172.83 62.9898 172.507 63.058C172.187 63.1262 171.807 63.1603 171.369 63.1603C170.744 63.1603 170.199 63.0319 169.732 62.7753C169.269 62.5146 168.909 62.1337 168.653 61.6324C168.396 61.1311 168.268 60.5174 168.268 59.7915C168.268 59.0817 168.384 58.4682 168.617 57.9508C168.854 57.4295 169.186 57.0284 169.614 56.7476C170.044 56.4669 170.55 56.3266 171.131 56.3266ZM171.119 57.1447C170.594 57.1447 170.174 57.3191 169.862 57.668C169.55 58.0169 169.364 58.5042 169.305 59.1299H172.744C172.74 58.7368 172.679 58.3919 172.56 58.0952C172.445 57.7944 172.269 57.5617 172.032 57.3973C171.795 57.2289 171.491 57.1447 171.119 57.1447ZM177.76 63.1603C176.937 63.1603 176.285 62.8756 175.803 62.3061C175.325 61.7367 175.085 60.8904 175.085 59.7675C175.085 58.6326 175.33 57.7763 175.82 57.1989C176.311 56.6174 176.963 56.3266 177.777 56.3266C178.121 56.3266 178.421 56.3726 178.678 56.4649C178.935 56.5572 179.156 56.6815 179.343 56.8379C179.528 56.9903 179.684 57.1647 179.811 57.3613H179.881C179.866 57.2369 179.85 57.0665 179.835 56.8499C179.818 56.6334 179.811 56.4569 179.811 56.3206V53.6797H180.795V63.04H180.001L179.853 62.1015H179.811C179.688 62.2981 179.533 62.4765 179.343 62.6369C179.156 62.7974 178.933 62.9256 178.673 63.022C178.415 63.1141 178.111 63.1603 177.76 63.1603ZM177.913 62.3301C178.609 62.3301 179.101 62.1297 179.39 61.7286C179.678 61.3275 179.823 60.732 179.823 59.942V59.7615C179.823 58.9233 179.684 58.2797 179.408 57.8304C179.135 57.3813 178.637 57.1567 177.913 57.1567C177.308 57.1567 176.856 57.3933 176.556 57.8666C176.255 58.3358 176.105 58.9774 176.105 59.7915C176.105 60.6016 176.253 61.2273 176.55 61.6684C176.85 62.1096 177.305 62.3301 177.913 62.3301ZM191.277 63.04H185.597V62.2038L187.915 59.8156C188.347 59.3745 188.708 58.9815 189 58.6366C189.297 58.2916 189.522 57.9527 189.677 57.6199C189.83 57.2831 189.907 56.914 189.907 56.5131C189.907 56.0158 189.762 55.6368 189.469 55.3761C189.18 55.1114 188.799 54.9791 188.325 54.9791C187.909 54.9791 187.542 55.0513 187.222 55.1956C186.902 55.34 186.574 55.5445 186.237 55.8092L185.71 55.1355C185.939 54.939 186.189 54.7645 186.457 54.6121C186.73 54.4597 187.02 54.3394 187.329 54.2512C187.64 54.1629 187.972 54.1188 188.325 54.1188C188.858 54.1188 189.318 54.2131 189.705 54.4016C190.093 54.59 190.392 54.8587 190.601 55.2076C190.815 55.5566 190.921 55.9717 190.921 56.4529C190.921 56.9181 190.83 57.3512 190.648 57.7523C190.467 58.1493 190.212 58.5443 189.884 58.9373C189.555 59.3263 189.172 59.7395 188.734 60.1766L186.849 62.0835V62.1256H191.277V63.04ZM192.836 62.4144C192.836 62.1337 192.903 61.9351 193.038 61.8189C193.173 61.6985 193.336 61.6383 193.53 61.6383C193.731 61.6383 193.901 61.6985 194.04 61.8189C194.178 61.9351 194.248 62.1337 194.248 62.4144C194.248 62.6911 194.178 62.8936 194.04 63.022C193.901 63.1463 193.731 63.2084 193.53 63.2084C193.336 63.2084 193.173 63.1463 193.038 63.022C192.903 62.8936 192.836 62.6911 192.836 62.4144Z" fill="#F5F5F5"/>
</g>
<defs>
<clipPath id="clip0_351_5495">
<rect width="249" height="28" fill="white" transform="translate(0 8)"/>
</clipPath>
<clipPath id="clip1_351_5495">
<rect width="96" height="28" fill="white" transform="translate(257 8)"/>
</clipPath>
<clipPath id="clip2_351_5495">
<rect width="202" height="28" fill="white" transform="translate(0 44)"/>
</clipPath>
</defs>
</svg>
