<svg width="24" height="23" viewBox="0 0 24 23" fill="none" xmlns="http://www.w3.org/2000/svg">
<path d="M12 0C14.2773 0 16.125 1.84766 16.125 4.125V4.29688C16.125 4.98438 15.5664 5.5 14.8789 5.5H9.07812C8.39062 5.5 7.875 4.98438 7.875 4.29688V4.125C7.875 1.84766 9.72266 0 12 0ZM2.67578 4.42578C3.0625 4.03906 3.70703 4.03906 4.09375 4.42578L7.23047 7.5625C7.91797 7.13281 8.73438 6.875 9.59375 6.875H14.4062C15.2656 6.875 16.0391 7.13281 16.7266 7.5625L19.8633 4.42578C20.25 4.03906 20.8945 4.03906 21.2812 4.42578C21.7109 4.85547 21.7109 5.5 21.2812 5.88672L18.1875 9.02344C18.6172 9.71094 18.875 10.4844 18.875 11.3438H21.9688C22.5273 11.3438 23 11.8164 23 12.375C23 12.9766 22.5273 13.4062 21.9688 13.4062H18.875V13.75C18.875 14.9531 18.5742 16.0273 18.0586 17.0156L21.3242 20.2383C21.7109 20.668 21.7109 21.3125 21.3242 21.6992C20.8945 22.1289 20.25 22.1289 19.8633 21.6992L16.8125 18.6484C15.5664 19.8945 13.8477 20.625 12 20.625C10.1094 20.625 8.39062 19.8945 7.14453 18.6914L4.13672 21.6992C3.70703 22.1289 3.0625 22.1289 2.67578 21.6992C2.24609 21.3125 2.24609 20.668 2.67578 20.2812L5.89844 17.0156C5.38281 16.0273 5.125 14.9531 5.125 13.75V13.4062H2.03125C1.42969 13.4062 1 12.9766 1 12.375C1 11.8164 1.42969 11.3438 2.03125 11.3438H5.125C5.125 10.4844 5.33984 9.71094 5.76953 9.02344L2.67578 5.88672C2.24609 5.5 2.24609 4.85547 2.67578 4.46875V4.42578ZM7.1875 11.3438V13.75C7.1875 16.0703 8.77734 18.0039 10.9688 18.4766V12.0312C10.9688 11.4727 11.3984 11 12 11C12.5586 11 13.0312 11.4727 13.0312 12.0312V18.4766C15.1797 18.0039 16.8125 16.0703 16.8125 13.75V11.3438C16.8125 10.0547 15.6953 8.9375 14.4062 8.9375H9.59375C8.26172 8.9375 7.1875 10.0547 7.1875 11.3438Z" fill="#D6BFAF"/>
</svg>
