<svg width="20" height="20" viewBox="0 0 20 20" fill="none" xmlns="http://www.w3.org/2000/svg">
<path d="M7 9L7.84375 7.5L10.125 3.53125L11 2L11.8438 3.53125L14.125 7.5L15 9H13.25H8.71875H7ZM11 5.03125L9.5625 7.5H12.4062L11 5.03125ZM6 11.5C5.09375 11.5 4.28125 12 3.8125 12.75C3.375 13.5312 3.375 14.5 3.8125 15.25C4.28125 16.0312 5.09375 16.5 6 16.5C6.875 16.5 7.6875 16.0312 8.15625 15.25C8.59375 14.5 8.59375 13.5312 8.15625 12.75C7.6875 12 6.875 11.5 6 11.5ZM6 18C4.5625 18 3.25 17.25 2.53125 16C1.8125 14.7812 1.8125 13.25 2.53125 12C3.25 10.7812 4.5625 10 6 10C7.40625 10 8.71875 10.7812 9.4375 12C10.1562 13.25 10.1562 14.7812 9.4375 16C8.71875 17.25 7.40625 18 6 18ZM16.5 12H12.5V16H16.5V12ZM12.5 10.5H16.5H18V12V16V17.5H16.5H12.5H11V16V12V10.5H12.5Z" fill="#4E4B66"/>
</svg>
