<svg width="24" height="23" viewBox="0 0 24 23" fill="none" xmlns="http://www.w3.org/2000/svg">
<path d="M8.04688 7.5625L12.1719 0.6875C12.4297 0.257812 12.8594 0 13.375 0C13.8477 0 14.2773 0.257812 14.5352 0.6875L18.6602 7.5625C18.918 7.99219 18.918 8.50781 18.6602 8.9375C18.4453 9.36719 17.9727 9.625 17.5 9.625H9.25C8.73438 9.625 8.26172 9.36719 8.04688 8.9375C7.78906 8.50781 7.78906 7.99219 8.04688 7.5625ZM13.375 2.75L10.4531 7.5625H16.2539L13.375 2.75ZM20.9375 13.75H15.4375V19.25H20.9375V13.75ZM15.0938 11.6875H21.2812C22.2266 11.6875 23 12.4609 23 13.4062V19.5938C23 20.582 22.2266 21.3125 21.2812 21.3125H15.0938C14.1055 21.3125 13.375 20.582 13.375 19.5938V13.4062C13.375 12.4609 14.1055 11.6875 15.0938 11.6875ZM9.9375 16.5C9.9375 15.2969 9.25 14.1797 8.21875 13.5352C7.14453 12.9336 5.8125 12.9336 4.78125 13.5352C3.70703 14.1797 3.0625 15.2969 3.0625 16.5C3.0625 17.7461 3.70703 18.8633 4.78125 19.5078C5.8125 20.1094 7.14453 20.1094 8.21875 19.5078C9.25 18.8633 9.9375 17.7461 9.9375 16.5ZM1 16.5C1 14.5664 2.03125 12.7617 3.75 11.7734C5.42578 10.7852 7.53125 10.7852 9.25 11.7734C10.9258 12.7617 12 14.5664 12 16.5C12 18.4766 10.9258 20.2812 9.25 21.2695C7.53125 22.2578 5.42578 22.2578 3.75 21.2695C2.03125 20.2812 1 18.4766 1 16.5Z" fill="#BDA18C"/>
</svg>
