<svg width="24" height="24" viewBox="0 0 24 24" fill="none" xmlns="http://www.w3.org/2000/svg">
<path d="M7.50417 7.60792H16.4958C17.0578 7.60792 17.5333 8.11117 17.5333 8.70594C17.5333 9.07195 17.3604 9.3922 17.101 9.59808L12.4107 13.3268C12.1513 13.5326 11.8271 13.5326 11.5677 13.3268L6.87735 9.59808C6.61797 9.3922 6.46667 9.07195 6.46667 8.70594C6.46667 8.11117 6.92058 7.60792 7.50417 7.60792ZM6.46667 10.17L11.157 13.9216C11.6542 14.3104 12.3243 14.3104 12.8213 13.9216L17.5333 10.17V14.9281C17.5333 15.7516 16.9065 16.3921 16.15 16.3921H7.85001C7.07188 16.3921 6.46667 15.7516 6.46667 14.9281V10.17Z" fill="black"/>
</svg>
