<svg width="21" height="21" viewBox="0 0 21 21" fill="none" xmlns="http://www.w3.org/2000/svg">
<rect x="0.125" y="0.25" width="20" height="20" rx="2" fill="#6E7191"/>
<path d="M3.125 5H17.125V7.1875L10.125 12L3.125 7.1875V5ZM3.125 15.5V8.25391L9.60547 12.7383L10.125 13.0664L10.6172 12.7383L17.125 8.25391V15.5H3.125Z" fill="white"/>
<path fill-rule="evenodd" clip-rule="evenodd" d="M2.9375 4.75H17.4375V7.31901L10.1875 12.3034L2.9375 7.31901V4.75ZM3.4375 5.25V7.05599L10.1875 11.6966L16.9375 7.05599V5.25H3.4375ZM2.9375 7.77689L9.8059 12.5297L10.1838 12.7684L10.5394 12.5313L17.4375 7.77803V15.75H2.9375V7.77689ZM16.9375 8.72978L10.8184 12.9463L10.1912 13.3644L9.52559 12.944L3.4375 8.73092V15.25H16.9375V8.72978Z" fill="#6E7191"/>
</svg>
