<svg width="24" height="24" viewBox="0 0 24 24" fill="none" xmlns="http://www.w3.org/2000/svg">
<rect x="0.5" y="0.5" width="23" height="23" rx="3.5" fill="white" fill-opacity="0.37"/>
<rect x="0.5" y="0.5" width="23" height="23" rx="3.5" stroke="#E6DCD3"/>
<path d="M7.95845 8.76675C7.76901 8.76675 7.62166 8.94637 7.62166 9.126V9.64242L11.2422 12.8083C11.6843 13.19 12.2947 13.19 12.7368 12.8083L16.3784 9.64242V9.126C16.3784 8.94637 16.21 8.76675 16.0416 8.76675H7.95845ZM7.62166 11.0345V14.874C7.62166 15.0761 7.76901 15.2332 7.95845 15.2332H16.0416C16.21 15.2332 16.3784 15.0761 16.3784 14.874V11.0345L13.3893 13.6391C12.5684 14.3576 11.4106 14.3576 10.6107 13.6391L7.62166 11.0345ZM6.61127 9.126C6.61127 8.34014 7.20066 7.689 7.95845 7.689H16.0416C16.7783 7.689 17.3888 8.34014 17.3888 9.126V14.874C17.3888 15.6823 16.7783 16.311 16.0416 16.311H7.95845C7.20066 16.311 6.61127 15.6823 6.61127 14.874V9.126Z" fill="#7A6759"/>
</svg>
