<svg width="24" height="24" viewBox="0 0 24 24" fill="none" xmlns="http://www.w3.org/2000/svg">
<g clip-path="url(#clip0_67_19215)">
<path d="M6.14999 7.2H17.85C18.5813 7.2 19.2 7.81874 19.2 8.55C19.2 9 18.975 9.39374 18.6374 9.64687L12.5343 14.2313C12.1969 14.4844 11.775 14.4844 11.4375 14.2313L5.33436 9.64687C4.99686 9.39374 4.79999 9 4.79999 8.55C4.79999 7.81874 5.39062 7.2 6.14999 7.2ZM4.79999 10.35L10.9031 14.9626C11.55 15.4406 12.4219 15.4406 13.0687 14.9626L19.2 10.35V16.2C19.2 17.2126 18.3843 18 17.4 18H6.59999C5.58749 18 4.79999 17.2126 4.79999 16.2V10.35Z" fill="black"/>
<mask id="mask0_67_19215" style="mask-type:luminance" maskUnits="userSpaceOnUse" x="4" y="7" width="16" height="11">
<path d="M6.14999 7.2H17.85C18.5813 7.2 19.2 7.81874 19.2 8.55C19.2 9 18.975 9.39374 18.6374 9.64687L12.5343 14.2313C12.1969 14.4844 11.775 14.4844 11.4375 14.2313L5.33436 9.64687C4.99686 9.39374 4.79999 9 4.79999 8.55C4.79999 7.81874 5.39062 7.2 6.14999 7.2ZM4.79999 10.35L10.9031 14.9626C11.55 15.4406 12.4219 15.4406 13.0687 14.9626L19.2 10.35V16.2C19.2 17.2126 18.3843 18 17.4 18H6.59999C5.58749 18 4.79999 17.2126 4.79999 16.2V10.35Z" fill="white"/>
</mask>
<g mask="url(#mask0_67_19215)">
<path d="M4.8 10.35L4.98088 10.1107L4.5 9.74723V10.35H4.8ZM10.9031 14.9626L10.7222 15.2018L10.7248 15.2038L10.9031 14.9626ZM13.0687 14.9626L13.247 15.2038L13.2491 15.2022L13.0687 14.9626ZM19.2 10.35H19.5V9.7489L19.0196 10.1103L19.2 10.35ZM6.15 7.5H17.85V6.9H6.15V7.5ZM17.85 7.5C18.4156 7.5 18.9 7.98444 18.9 8.55H19.5C19.5 7.65306 18.7469 6.9 17.85 6.9V7.5ZM18.9 8.55C18.9 8.89579 18.7277 9.20427 18.4574 9.40687L18.8176 9.88687C19.2223 9.58324 19.5 9.10421 19.5 8.55H18.9ZM18.4574 9.40687L12.3542 13.9914L12.7144 14.4713L18.8176 9.88687L18.4574 9.40687ZM12.3542 13.9914C12.1235 14.1644 11.8483 14.1643 11.6175 13.9913L11.2573 14.4712C11.7015 14.8043 12.2702 14.8044 12.7144 14.4713L12.3542 13.9914ZM11.6175 13.9913L5.51455 9.40701L5.1542 9.88674L11.2573 14.4712L11.6175 13.9913ZM5.51455 9.40701C5.25529 9.21256 5.1 8.90899 5.1 8.55H4.5C4.5 9.09101 4.73848 9.57495 5.1542 9.88674L5.51455 9.40701ZM5.1 8.55C5.1 7.98035 5.56037 7.5 6.15 7.5V6.9C5.22089 6.9 4.5 7.65715 4.5 8.55H5.1ZM4.61912 10.5893L10.7222 15.2018L11.084 14.7232L4.98088 10.1107L4.61912 10.5893ZM10.7248 15.2038C11.4777 15.7602 12.4942 15.7602 13.247 15.2038L12.8904 14.7212C12.3496 15.1211 11.6223 15.1211 11.0814 14.7212L10.7248 15.2038ZM13.2491 15.2022L19.3804 10.5897L19.0196 10.1103L12.8884 14.7228L13.2491 15.2022ZM18.9 10.35V16.2H19.5V10.35H18.9ZM18.9 16.2C18.9 17.0437 18.2218 17.7 17.4 17.7V18.3C18.547 18.3 19.5 17.3813 19.5 16.2H18.9ZM17.4 17.7H6.6V18.3H17.4V17.7ZM6.6 17.7C5.75318 17.7 5.1 17.0468 5.1 16.2H4.5C4.5 17.3782 5.42182 18.3 6.6 18.3V17.7ZM5.1 16.2V10.35H4.5V16.2H5.1Z" fill="#E6DCD3"/>
</g>
</g>
<defs>
<clipPath id="clip0_67_19215">
<rect width="24" height="24" fill="white"/>
</clipPath>
</defs>
</svg>
