<svg width="22" height="22" viewBox="0 0 22 22" fill="none" xmlns="http://www.w3.org/2000/svg">
<path d="M19.625 0.9375C20.3887 0.9375 21.0625 1.61133 21.0625 2.41992V19.625C21.0625 20.4336 20.3887 21.0625 19.625 21.0625H2.33008C1.56641 21.0625 0.9375 20.4336 0.9375 19.625V2.41992C0.9375 1.61133 1.56641 0.9375 2.33008 0.9375H19.625ZM7.00195 18.1875V8.61914H4.03711V18.1875H7.00195ZM5.51953 7.27148C6.46289 7.27148 7.22656 6.50781 7.22656 5.56445C7.22656 4.62109 6.46289 3.8125 5.51953 3.8125C4.53125 3.8125 3.76758 4.62109 3.76758 5.56445C3.76758 6.50781 4.53125 7.27148 5.51953 7.27148ZM18.1875 18.1875V12.9316C18.1875 10.3711 17.6035 8.34961 14.5938 8.34961C13.1562 8.34961 12.168 9.1582 11.7637 9.92188H11.7188V8.61914H8.88867V18.1875H11.8535V13.4707C11.8535 12.2129 12.0781 11 13.6504 11C15.1777 11 15.1777 12.4375 15.1777 13.5156V18.1875H18.1875Z" fill="#6E7191"/>
</svg>
