<svg width="20" height="20" viewBox="0 0 20 20" fill="none" xmlns="http://www.w3.org/2000/svg">
<rect width="20" height="20" rx="2" fill="#6E7191"/>
<path d="M3 4.75H17V6.9375L10 11.75L3 6.9375V4.75ZM3 15.25V8.00391L9.48047 12.4883L10 12.8164L10.4922 12.4883L17 8.00391V15.25H3Z" fill="white"/>
<path fill-rule="evenodd" clip-rule="evenodd" d="M2.8125 4.5H17.3125V7.06901L10.0625 12.0534L2.8125 7.06901V4.5ZM3.3125 5V6.80599L10.0625 11.4466L16.8125 6.80599V5H3.3125ZM2.8125 7.52689L9.6809 12.2797L10.0588 12.5184L10.4144 12.2813L17.3125 7.52803V15.5H2.8125V7.52689ZM16.8125 8.47978L10.6934 12.6963L10.0662 13.1144L9.40059 12.694L3.3125 8.48092V15H16.8125V8.47978Z" fill="#6E7191"/>
</svg>
