<svg width="26" height="22" viewBox="0 0 26 22" fill="none" xmlns="http://www.w3.org/2000/svg">
<path d="M13.666 0.225586L25.0097 9.85059C25.4394 10.2373 25.4824 10.8818 25.1387 11.3115C24.7519 11.7412 24.1074 11.7842 23.6777 11.4404L22.6465 10.5381V18.5303C22.6465 20.4639 21.0996 21.9678 19.209 21.9678H6.83396C4.90037 21.9678 3.39646 20.4639 3.39646 18.5303V10.5381L2.32225 11.4404C1.89256 11.7842 1.24803 11.7412 0.861308 11.3115C0.517558 10.8818 0.560527 10.2373 0.990214 9.85059L12.334 0.225586C12.7207 -0.0751953 13.2793 -0.0751953 13.666 0.225586ZM5.45896 18.5303C5.45896 19.3037 6.06053 19.9053 6.83396 19.9053H8.89646V13.374C8.89646 12.4287 9.62693 11.6553 10.6152 11.6553H15.4277C16.373 11.6553 17.1465 12.4287 17.1465 13.374V19.9053H19.209C19.9394 19.9053 20.584 19.3037 20.584 18.5303V8.77637L13.0215 2.37402L5.45896 8.77637V18.5303ZM10.959 19.9053H15.084V13.7178H10.959V19.9053Z" fill="#BDA18C"/>
</svg>
