<svg width="20" height="20" viewBox="0 0 20 20" fill="none" xmlns="http://www.w3.org/2000/svg">
<path d="M16.2539 3.37109C15.8789 2.96484 15.2227 2.96484 14.8477 3.37109L14.0039 4.18359L15.8164 5.99609L16.6289 5.15234C17.0352 4.77734 17.0352 4.12109 16.6289 3.74609L16.2539 3.37109ZM7.97266 10.2461C7.81641 10.3711 7.72266 10.5586 7.69141 10.7148L7.22266 12.7773L9.28516 12.3086C9.44141 12.2773 9.62891 12.1836 9.75391 12.0273L15.0977 6.68359L13.3164 4.90234L7.97266 10.2461ZM14.1289 2.65234C14.9102 1.87109 16.1914 1.87109 16.9727 2.65234L17.3477 3.02734C18.1289 3.80859 18.1289 5.08984 17.3477 5.87109L10.4727 12.7461C10.1914 13.0273 9.84766 13.2148 9.50391 13.2773L6.66016 13.9336C6.50391 13.9648 6.31641 13.9336 6.19141 13.8086C6.06641 13.6836 6.03516 13.4961 6.06641 13.3398L6.72266 10.4961C6.81641 10.1523 6.97266 9.80859 7.25391 9.52734L14.1289 2.65234ZM4.56641 3.93359H8.56641C8.81641 3.93359 9.06641 4.18359 9.06641 4.43359C9.06641 4.71484 8.81641 4.93359 8.56641 4.93359H4.56641C3.72266 4.93359 3.06641 5.62109 3.06641 6.43359V15.4336C3.06641 16.2773 3.72266 16.9336 4.56641 16.9336H13.5664C14.3789 16.9336 15.0664 16.2773 15.0664 15.4336V11.4336C15.0664 11.1836 15.2852 10.9336 15.5664 10.9336C15.8164 10.9336 16.0664 11.1836 16.0664 11.4336V15.4336C16.0664 16.8398 14.9414 17.9336 13.5664 17.9336H4.56641C3.16016 17.9336 2.06641 16.8398 2.06641 15.4336V6.43359C2.06641 5.05859 3.16016 3.93359 4.56641 3.93359Z" fill="#FA4D4D"/>
</svg>
