<svg width="24" height="24" viewBox="0 0 24 24" fill="none" xmlns="http://www.w3.org/2000/svg">
<rect x="0.5" y="0.5" width="23" height="23" rx="3.5" fill="white" fill-opacity="0.37"/>
<rect x="0.5" y="0.5" width="23" height="23" rx="3.5" stroke="#E6DCD3"/>
<path d="M9.26648 16.9325H7.21632V10.3411H9.26648V16.9325ZM8.23038 9.45936C7.59108 9.45936 7.06201 8.90824 7.06201 8.2469C7.06201 7.82805 7.28246 7.43124 7.63517 7.23284C8.00993 7.01239 8.47287 7.01239 8.82559 7.23284C9.20035 7.43124 9.4208 7.82805 9.4208 8.2469C9.4208 8.90824 8.89172 9.45936 8.23038 9.45936ZM14.8879 16.9325V13.736C14.8879 12.9645 14.8658 11.9945 13.8077 11.9945C12.7495 11.9945 12.5952 12.8102 12.5952 13.6699V16.9325H10.5451V10.3411H12.5071V11.245H12.5291C12.8157 10.7379 13.477 10.1868 14.469 10.1868C16.5412 10.1868 16.938 11.5536 16.938 13.3172V16.9325H14.8879Z" fill="#7A6759"/>
</svg>
