<svg width="24" height="22" viewBox="0 0 24 22" fill="none" xmlns="http://www.w3.org/2000/svg">
<path d="M8.92817 16.543H6.62428V9.13583H8.92817V16.543ZM7.76384 8.14491C7.04542 8.14491 6.45087 7.52558 6.45087 6.78239C6.45087 6.3117 6.6986 5.86579 7.09497 5.64283C7.5161 5.3951 8.03634 5.3951 8.43271 5.64283C8.85385 5.86579 9.10158 6.3117 9.10158 6.78239C9.10158 7.52558 8.50703 8.14491 7.76384 8.14491ZM17.5245 16.543H15.2453V12.9509C15.2453 12.0838 15.2205 10.9938 14.0314 10.9938C12.8423 10.9938 12.6689 11.9104 12.6689 12.8765V16.543H10.365V9.13583H12.5698V10.1515H12.5946C12.9166 9.58174 13.6598 8.96241 14.7746 8.96241C17.1032 8.96241 17.5492 10.4983 17.5492 12.4801V16.543H17.5245Z" fill="black"/>
</svg>
