<svg width="21" height="21" viewBox="0 0 21 21" fill="none" xmlns="http://www.w3.org/2000/svg">
<rect x="0.125" y="0.25" width="20" height="20" rx="2" fill="white"/>
<path d="M18.75 0.1875C19.5137 0.1875 20.1875 0.861328 20.1875 1.66992V18.875C20.1875 19.6836 19.5137 20.3125 18.75 20.3125H1.45508C0.691406 20.3125 0.0625 19.6836 0.0625 18.875V1.66992C0.0625 0.861328 0.691406 0.1875 1.45508 0.1875H18.75ZM6.12695 17.4375V7.86914H3.16211V17.4375H6.12695ZM4.64453 6.52148C5.58789 6.52148 6.35156 5.75781 6.35156 4.81445C6.35156 3.87109 5.58789 3.0625 4.64453 3.0625C3.65625 3.0625 2.89258 3.87109 2.89258 4.81445C2.89258 5.75781 3.65625 6.52148 4.64453 6.52148ZM17.3125 17.4375V12.1816C17.3125 9.62109 16.7285 7.59961 13.7188 7.59961C12.2812 7.59961 11.293 8.4082 10.8887 9.17188H10.8438V7.86914H8.01367V17.4375H10.9785V12.7207C10.9785 11.4629 11.2031 10.25 12.7754 10.25C14.3027 10.25 14.3027 11.6875 14.3027 12.7656V17.4375H17.3125Z" fill="#6E7191"/>
</svg>
