<svg width="24" height="24" viewBox="0 0 24 24" fill="none" xmlns="http://www.w3.org/2000/svg">
<g clip-path="url(#clip0_67_19229)">
<path d="M8.21252 18H5.5969V9.59063H8.21252V18ZM6.89065 8.46563C6.07502 8.46563 5.40002 7.7625 5.40002 6.91875C5.40002 6.38438 5.68128 5.87813 6.13128 5.625C6.6094 5.34375 7.20002 5.34375 7.65002 5.625C8.12815 5.87813 8.4094 6.38438 8.4094 6.91875C8.4094 7.7625 7.7344 8.46563 6.89065 8.46563ZM17.9719 18H15.3844V13.9219C15.3844 12.9374 15.3563 11.7 14.0063 11.7C12.6563 11.7 12.4594 12.7406 12.4594 13.8374V18H9.84377V9.59063H12.3469V10.7437H12.375C12.7407 10.0969 13.5844 9.39375 14.85 9.39375C17.4937 9.39375 18 11.1375 18 13.3874V18H17.9719Z" fill="black"/>
</g>
<defs>
<clipPath id="clip0_67_19229">
<rect width="24" height="24" fill="white"/>
</clipPath>
</defs>
</svg>
