<svg width="160" height="19" viewBox="0 0 160 19" fill="none" xmlns="http://www.w3.org/2000/svg">
<g clip-path="url(#clip0_189_101112)">
<path d="M5.76432 17.8525V2.47228H0.442408C0.156144 2.47228 0 2.29011 0 1.9518V0.520481C0 0.182168 0.156144 0 0.442408 0H13.2679C13.5542 0 13.7103 0.182168 13.7103 0.520481V1.9518C13.7103 2.29011 13.5542 2.47228 13.2679 2.47228H7.946V17.8525C7.946 18.1908 7.78986 18.373 7.50359 18.373H6.20239C5.91613 18.373 5.75998 18.1908 5.75998 17.8525H5.76432Z" fill="#4E4B66"/>
<path d="M12.6303 12.5956V9.44669C12.6303 5.67321 13.5151 3.74744 17.2018 3.74744H20.3161C24.0028 3.74744 24.8876 5.67321 24.8876 9.44669V11.7889C24.8876 12.1272 24.7315 12.3093 24.4452 12.3093H14.7079V12.8038C14.7079 15.4843 15.1937 16.0568 17.2452 16.0568H23.4476C23.7339 16.0568 23.89 16.2389 23.89 16.5773V17.8525C23.89 18.1908 23.7339 18.3729 23.4476 18.3729H17.1975C13.5108 18.3729 12.626 16.4732 12.626 12.5956H12.6303ZM22.8057 10.0973V9.26453C22.8057 6.6361 22.3199 6.06357 20.2684 6.06357H17.2452C15.1937 6.06357 14.7079 6.6361 14.7079 9.26453V10.0973H22.8101H22.8057Z" fill="#4E4B66"/>
<path d="M26.2756 12.5956V9.44669C26.2756 5.67321 27.1604 3.74744 30.8472 3.74744H33.9613C37.6481 3.74744 38.5329 5.67321 38.5329 9.44669V11.7889C38.5329 12.1272 38.3768 12.3093 38.0905 12.3093H28.3532V12.8038C28.3532 15.4843 28.8389 16.0568 30.8905 16.0568H37.0929C37.3792 16.0568 37.5353 16.2389 37.5353 16.5773V17.8525C37.5353 18.1908 37.3792 18.3729 37.0929 18.3729H30.8428C27.156 18.3729 26.2712 16.4732 26.2712 12.5956H26.2756ZM36.4553 10.0973V9.26453C36.4553 6.6361 35.9696 6.06357 33.918 6.06357H30.8948C28.8433 6.06357 28.3575 6.6361 28.3575 9.26453V10.0973H36.4596H36.4553Z" fill="#4E4B66"/>
<path d="M52.5295 9.52477V17.8785C52.5295 18.2168 52.3733 18.3989 52.0871 18.3989H50.8943C50.6081 18.3989 50.4519 18.2168 50.4519 17.8785V9.31661C50.4519 6.6361 49.9661 6.06357 47.9362 6.06357H44.8004C43.0568 6.06357 42.263 6.532 42.263 9.31661V17.8525C42.263 18.1908 42.1069 18.3729 41.8206 18.3729H40.6278C40.3416 18.3729 40.1854 18.1908 40.1854 17.8525V4.26792C40.1854 3.9296 40.3416 3.74744 40.6278 3.74744H41.8206C42.1069 3.74744 42.263 3.9296 42.263 4.26792V5.64719C42.7488 4.37201 43.7637 3.74744 45.7719 3.74744H47.9579C51.6447 3.74744 52.5295 5.64719 52.5295 9.52477Z" fill="#4E4B66"/>
<path d="M53.8523 14.3392C53.8523 11.5026 54.8022 10.3055 57.8036 9.91509L63.2774 9.21245C63.8065 9.13437 63.9843 8.79613 63.9843 8.17149C63.9843 6.50598 63.5636 6.06357 61.7115 6.06357H55.288C55.0017 6.06357 54.8455 5.8814 54.8455 5.54309V4.26792C54.8455 3.9296 55.0017 3.74744 55.288 3.74744H61.755C64.9342 3.74744 66.0619 5.07466 66.0619 8.04141V17.8525C66.0619 18.1908 65.9058 18.3729 65.6195 18.3729H64.4267C64.1405 18.3729 63.9843 18.1908 63.9843 17.8525V16.1349C63.4118 17.6703 62.5703 18.3729 60.1415 18.3729H58.4846C55.5265 18.3729 53.848 17.1238 53.848 14.3392H53.8523ZM60.9829 16.1089C63.2774 16.1089 63.9843 15.172 63.9843 12.7257V11.2944L58.1333 12.0231C56.3679 12.2313 55.9472 12.7257 55.9472 14.131C55.9472 15.4062 56.7193 16.1089 58.4846 16.1089H60.9786H60.9829Z" fill="#4E4B66"/>
<path d="M71.0846 17.8525V0.520481C71.0846 0.182168 71.2408 0 71.527 0H73.1188C73.3617 0 73.5179 0.078072 73.648 0.338312L79.9632 12.2573L86.2736 0.338312C86.408 0.078072 86.56 0 86.8032 0H88.3688C88.6552 0 88.8112 0.182168 88.8112 0.520481V17.8525C88.8112 18.1908 88.6552 18.373 88.3688 18.373H87.0896C86.8032 18.373 86.6472 18.1908 86.6472 17.8525V4.21589L80.9304 14.8077C80.796 15.0679 80.6224 15.146 80.4008 15.146H79.4947C79.2518 15.146 79.0956 15.0679 78.9656 14.8077L73.2489 4.18986V17.8525C73.2489 18.1908 73.0928 18.373 72.8065 18.373H71.527C71.2408 18.373 71.0846 18.1908 71.0846 17.8525Z" fill="#6E7191"/>
<path d="M90.824 12.5956V9.44669C90.824 5.67321 91.7088 3.74744 95.3952 3.74744H99.0608C102.747 3.74744 103.632 5.67321 103.632 9.44669V12.5956C103.632 16.4732 102.747 18.3729 99.0608 18.3729H95.3952C91.7088 18.3729 90.824 16.4732 90.824 12.5956ZM99.0128 16.0568C101.064 16.0568 101.55 15.4843 101.55 12.8038V9.26453C101.55 6.6361 101.064 6.06357 99.0128 6.06357H95.4344C93.3832 6.06357 92.8968 6.6361 92.8968 9.26453V12.8038C92.8968 15.4843 93.3832 16.0568 95.4344 16.0568H99.0128Z" fill="#6E7191"/>
<path d="M117.846 9.52477V17.8785C117.846 18.2168 117.69 18.3989 117.403 18.3989H116.21C115.924 18.3989 115.768 18.2168 115.768 17.8785V9.31661C115.768 6.6361 115.282 6.06357 113.252 6.06357H110.116C108.373 6.06357 107.579 6.532 107.579 9.31661V17.8525C107.579 18.1908 107.423 18.3729 107.137 18.3729H105.944C105.658 18.3729 105.502 18.1908 105.502 17.8525V4.26792C105.502 3.9296 105.658 3.74744 105.944 3.74744H107.137C107.423 3.74744 107.579 3.9296 107.579 4.26792V5.64719C108.065 4.37201 109.08 3.74744 111.088 3.74744H113.274C116.961 3.74744 117.846 5.64719 117.846 9.52477Z" fill="#6E7191"/>
<path d="M119.173 14.3392C119.173 11.5026 120.122 10.3055 123.124 9.91509L128.598 9.21245C129.126 9.13437 129.305 8.79613 129.305 8.17149C129.305 6.50598 128.884 6.06357 127.032 6.06357H120.608C120.322 6.06357 120.166 5.8814 120.166 5.54309V4.26792C120.166 3.9296 120.322 3.74744 120.608 3.74744H127.075C130.254 3.74744 131.382 5.07466 131.382 8.04141V17.8525C131.382 18.1908 131.226 18.3729 130.94 18.3729H129.747C129.461 18.3729 129.305 18.1908 129.305 17.8525V16.1349C128.732 17.6703 127.89 18.3729 125.462 18.3729H123.805C120.847 18.3729 119.168 17.1238 119.168 14.3392H119.173ZM126.303 16.1089C128.598 16.1089 129.305 15.172 129.305 12.7257V11.2944L123.454 12.0231C121.688 12.2313 121.267 12.7257 121.267 14.131C121.267 15.4062 122.039 16.1089 123.805 16.1089H126.299H126.303Z" fill="#6E7191"/>
<path d="M133.104 12.5956V9.44669C133.104 5.67321 133.989 3.74744 137.676 3.74744H141.341C144.676 3.74744 145.821 5.2308 145.912 9.03029C145.912 9.39461 145.756 9.57685 145.47 9.57685H144.277C143.991 9.57685 143.834 9.39461 143.834 9.03029C143.77 6.58405 143.306 6.06357 141.298 6.06357H137.719C135.667 6.06357 135.182 6.6361 135.182 9.26453V12.8038C135.182 15.4843 135.667 16.0568 137.719 16.0568H141.298C143.349 16.0568 143.791 15.4843 143.834 13.038C143.834 12.6737 143.991 12.4915 144.277 12.4915H145.47C145.756 12.4915 145.912 12.6737 145.912 13.038C145.804 16.9677 144.633 18.3729 141.341 18.3729H137.676C133.989 18.3729 133.104 16.4732 133.104 12.5956Z" fill="#6E7191"/>
<path d="M147.192 12.5956V9.44669C147.192 5.67321 148.077 3.74744 151.763 3.74744H155.429C159.115 3.74744 160 5.67321 160 9.44669V12.5956C160 16.4732 159.115 18.3729 155.429 18.3729H151.763C148.077 18.3729 147.192 16.4732 147.192 12.5956ZM155.385 16.0568C157.437 16.0568 157.922 15.4843 157.922 12.8038V9.26453C157.922 6.6361 157.437 6.06357 155.385 6.06357H151.806C149.755 6.06357 149.27 6.6361 149.27 9.26453V12.8038C149.27 15.4843 149.755 16.0568 151.806 16.0568H155.385Z" fill="#6E7191"/>
</g>
<defs>
<clipPath id="clip0_189_101112">
<rect width="160" height="18.4" fill="white"/>
</clipPath>
</defs>
</svg>
