<svg width="100" height="18" viewBox="0 0 100 18" fill="none" xmlns="http://www.w3.org/2000/svg">
<g clip-path="url(#clip0_67_19265)">
<path d="M14.5654 3.07692C15.0559 3.11767 15.4117 3.03616 15.633 2.83414C15.8667 2.63213 15.9836 2.30784 15.9836 1.86129C15.9836 1.59193 15.8862 1.35448 15.6897 1.15247C15.5056 0.950451 15.224 0.808687 14.8434 0.727173C14.2415 0.604901 13.5368 0.51807 12.726 0.463137C11.9275 0.409975 10.8546 0.381622 9.50374 0.381622C7.31902 0.381622 5.52556 0.542879 4.12691 0.867165C2.73888 1.19145 1.70317 1.70357 1.01446 2.40708C0.338155 3.09641 0 4.01433 0 5.16262C0 5.7031 0.07967 6.18864 0.23901 6.62102C0.39835 7.03923 0.601951 7.36351 0.846272 7.59388C0.980826 7.72856 1.15256 7.79589 1.36147 7.79589C1.65537 7.79589 1.93864 7.6878 2.20774 7.47161C2.48924 7.24124 2.63088 6.99847 2.63088 6.74329C2.63088 6.6352 2.60609 6.53419 2.55652 6.44027C2.31043 6.02207 2.18827 5.5826 2.18827 5.12364C2.18827 4.62392 2.3299 4.21812 2.61141 3.90801C2.9053 3.58372 3.39748 3.33386 4.08441 3.15843C4.77135 2.983 5.71676 2.8749 6.92067 2.83414C6.8587 3.15843 6.80382 3.45613 6.75424 3.72549C6.70467 3.98243 6.66218 4.21103 6.625 4.41482C6.45327 5.32034 6.28154 6.27902 6.1098 7.29086C5.93807 8.3027 5.78404 9.3234 5.64949 10.3494C5.57513 10.9572 5.47067 11.6731 5.33612 12.4972C5.21396 13.3212 5.10242 14.1115 5.00505 14.8664C4.91829 15.6089 4.8758 16.1423 4.8758 16.4666C4.8758 16.8174 4.98557 17.1009 5.20688 17.3171C5.42818 17.5333 5.74155 17.6414 6.14521 17.6414C6.52586 17.6414 6.85162 17.5404 7.12073 17.3384C7.39161 17.1222 7.53855 16.8192 7.56334 16.4276C7.61291 15.6851 7.71028 14.7122 7.85723 13.5108C8.00418 12.2951 8.14581 11.2284 8.28037 10.3104C8.66101 7.79944 9.07884 5.30084 9.53207 2.81642C10.5395 2.8306 11.3485 2.85718 11.9629 2.89794C12.5896 2.92452 13.4536 2.98654 14.5584 3.08046L14.5654 3.07692Z" fill="#7A6759"/>
<path d="M40.2882 8.16271C40.1324 7.9855 39.9093 7.89513 39.619 7.89513C39.3286 7.89513 39.0896 7.92525 38.8595 7.98373C38.7993 7.65767 38.7214 7.43439 38.624 7.31567C38.539 7.18276 38.3655 7.11542 38.1 7.11542C37.2696 7.11542 36.48 7.44148 35.7329 8.0936C34.9981 8.73154 34.4086 9.58389 33.9624 10.6524C33.5358 11.6625 33.3144 12.7328 33.2967 13.8652C33.0542 14.193 32.84 14.457 32.6594 14.6555C32.3336 15.0117 32.0503 15.1889 31.8096 15.1889C31.4608 15.1889 31.2855 14.893 31.2855 14.2993C31.2855 13.8847 31.4006 13.0305 31.629 11.7405C31.8945 10.2271 32.0273 9.18164 32.0273 8.60395C32.0273 7.63995 31.6361 7.15795 30.8535 7.15795C30.4552 7.15795 30.0161 7.32807 29.5345 7.67008C29.0654 8.01031 28.5838 8.58268 28.0899 9.38365C27.5959 10.1846 27.1498 11.223 26.7532 12.4972C26.801 11.845 26.8612 11.2957 26.9338 10.8509C27.0064 10.4061 27.102 9.88692 27.2223 9.29328C27.4029 8.46219 27.4932 7.9288 27.4932 7.69134C27.4932 7.48401 27.4454 7.34225 27.348 7.26782C27.2524 7.1934 27.0825 7.15618 26.8417 7.15618C26.3956 7.15618 26.0468 7.26073 25.7936 7.46806C25.5528 7.66122 25.3775 7.9731 25.2695 8.40193C24.857 10.0039 24.6393 11.6909 24.6074 13.4576C24.2002 13.952 23.7434 14.3738 23.2353 14.7193C22.5484 15.1783 21.934 15.4086 21.3923 15.4086C20.5495 15.4086 19.9777 15.0684 19.6767 14.3862C21.0984 13.9555 22.104 13.3779 22.6936 12.6513C23.2955 11.9106 23.5965 11.0281 23.5965 10.0039C23.5965 9.12848 23.3858 8.43915 22.9644 7.93589C22.5431 7.41667 21.9836 7.15795 21.2843 7.15795C20.5017 7.15795 19.7971 7.41667 19.1704 7.93589C18.556 8.4551 18.0745 9.1586 17.7257 10.0499C17.3769 10.9253 17.2016 11.8734 17.2016 12.8976C17.2016 13.2007 17.2211 13.4877 17.2494 13.7642C16.9113 14.1292 16.543 14.45 16.1429 14.7228C15.456 15.1818 14.8416 15.4122 14.2999 15.4122C13.4571 15.4122 12.8853 15.0719 12.5843 14.3897C14.006 13.9591 15.0116 13.3814 15.6012 12.6549C16.2031 11.9141 16.5041 11.0317 16.5041 10.0074C16.5041 9.13202 16.2934 8.44269 15.872 7.93943C15.4507 7.42022 14.8894 7.1615 14.1919 7.1615C13.4093 7.1615 12.7047 7.42022 12.078 7.93943C11.4636 8.45864 10.9821 9.16215 10.6333 10.0535C10.2845 10.9289 10.1092 11.8769 10.1092 12.9012C10.1092 14.3684 10.458 15.5256 11.1573 16.3709C11.8567 17.2161 12.8375 17.6396 14.1016 17.6396C15.0293 17.6396 15.8968 17.3579 16.7041 16.7944C17.1521 16.486 17.5416 16.1635 17.8779 15.8233C17.9895 16.0164 18.1116 16.2025 18.2515 16.3709C18.9508 17.2161 19.9317 17.6396 21.1958 17.6396C22.1235 17.6396 22.991 17.3579 23.7983 16.7944C24.1418 16.5587 24.4498 16.3124 24.7278 16.0572C24.7667 16.3248 24.8145 16.5569 24.8747 16.7501C25.0677 17.3437 25.3917 17.6396 25.8503 17.6396C26.2238 17.6396 26.4947 17.5209 26.6629 17.2835C26.8435 17.0318 26.9993 16.5569 27.1321 15.8605C27.3126 14.9568 27.5481 14.0955 27.8367 13.2804C28.1377 12.4653 28.4263 11.8131 28.7042 11.3223C28.9928 10.8172 29.2159 10.5656 29.3734 10.5656C29.5062 10.5656 29.5717 10.6843 29.5717 10.9218C29.5717 11.278 29.4938 11.923 29.3363 12.8569C29.1681 13.9254 29.0831 14.6661 29.0831 15.0808C29.0831 15.9119 29.2389 16.5481 29.5523 16.9946C29.8656 17.4252 30.3295 17.6396 30.9438 17.6396C31.7033 17.6396 32.3779 17.388 32.9674 16.883C33.2153 16.6757 33.4561 16.4417 33.6898 16.1866C33.7606 16.3461 33.8367 16.4984 33.927 16.6384C34.3608 17.3065 34.9202 17.6396 35.6072 17.6396C36.5225 17.6396 37.1669 17.0017 37.5405 15.7258L37.5228 16.082C37.5228 16.6314 37.6184 17.0318 37.8114 17.2835C38.0167 17.5209 38.323 17.6396 38.732 17.6396C39.141 17.6396 39.4543 17.5209 39.6349 17.2835C39.8279 17.0318 39.9235 16.6243 39.9235 16.0607C39.9235 15.0383 39.9589 14.1186 40.0315 13.3017C40.1041 12.4706 40.2068 11.604 40.3378 10.6985C40.4582 9.85325 40.5184 9.25961 40.5184 8.91937C40.5184 8.57914 40.4405 8.34169 40.2829 8.16271H40.2882ZM12.2975 12.6123C12.2975 11.7086 12.448 10.936 12.749 10.2998C13.0623 9.66187 13.4412 9.3429 13.8874 9.3429C14.1034 9.3429 14.2733 9.4315 14.3937 9.61048C14.5265 9.7735 14.592 9.99678 14.592 10.2785C14.592 10.8279 14.3866 11.3099 13.9777 11.7245C13.5687 12.1392 13.0075 12.4511 12.2975 12.6584V12.6123ZM19.3899 12.6123C19.3899 11.7086 19.5404 10.936 19.8414 10.2998C20.1547 9.66187 20.5336 9.3429 20.9798 9.3429C21.1958 9.3429 21.3657 9.4315 21.4861 9.61048C21.6189 9.7735 21.6844 9.99678 21.6844 10.2785C21.6844 10.8279 21.479 11.3099 21.0701 11.7245C20.6611 12.1392 20.0999 12.4511 19.3899 12.6584V12.6123ZM37.9743 11.4321C37.7583 12.9154 37.5104 13.9449 37.2342 14.5244C36.9562 15.1021 36.65 15.3927 36.3136 15.3927C36.0852 15.3927 35.8975 15.281 35.7541 15.0595C35.6213 14.8221 35.5558 14.4818 35.5558 14.0371C35.5558 13.206 35.6815 12.421 35.9347 11.6785C36.1879 10.9377 36.5243 10.3441 36.9456 9.89932C37.367 9.44036 37.8255 9.2029 38.3195 9.18695L37.976 11.4339L37.9743 11.4321Z" fill="#7A6759"/>
<path d="M99.6211 9.5201C99.3679 8.80773 98.9891 8.23713 98.4827 7.80652C97.9764 7.36174 97.3691 7.13846 96.6574 7.13846C95.9457 7.13846 95.2605 7.39009 94.6692 7.89512C94.0796 8.38421 93.6087 9.07354 93.2599 9.96311C92.9218 10.8385 92.7536 11.8397 92.7536 12.9667C92.7536 13.245 92.7695 13.5178 92.7996 13.7837C92.4685 14.1664 92.1339 14.4801 91.794 14.7246C91.2274 15.1251 90.6981 15.3253 90.2041 15.3253C88.9878 15.3253 88.3788 14.4659 88.3788 12.7452C88.3788 12.1232 88.4514 11.5509 88.5948 11.0317C88.7382 10.5124 88.9312 10.1049 89.1737 9.80894C89.4145 9.49706 89.673 9.34112 89.951 9.34112C90.0961 9.34112 90.2041 9.39251 90.2767 9.49706C90.3617 9.60161 90.4024 9.74869 90.4024 9.94185C90.4024 10.135 90.3723 10.3423 90.3121 10.5638C90.2997 10.6223 90.282 10.7198 90.2572 10.8527C90.2325 10.9856 90.2218 11.1043 90.2218 11.2089C90.2218 11.4463 90.2873 11.6324 90.4201 11.7653C90.5653 11.8982 90.7512 11.9655 90.9796 11.9655C91.3408 11.9655 91.6293 11.7511 91.8471 11.3205C92.0755 10.8899 92.1906 10.3636 92.1906 9.7416C92.1906 8.98494 92.0047 8.37003 91.6311 7.89512C91.2699 7.40604 90.7583 7.16149 90.0961 7.16149C89.434 7.16149 88.7771 7.40604 88.1628 7.89512C87.5485 8.38421 87.0492 9.08063 86.6632 9.98615C86.2773 10.8899 86.0843 11.9443 86.0843 13.1439C86.0843 13.408 86.1002 13.6596 86.125 13.9024C85.8966 14.2125 85.6966 14.4641 85.5284 14.6555C85.2026 15.0117 84.9264 15.1889 84.698 15.1889C84.5529 15.1889 84.4325 15.1216 84.3369 14.9887C84.2519 14.8557 84.2112 14.6768 84.2112 14.4553C84.2112 13.7872 84.3493 12.6017 84.6272 10.897C84.8078 9.72566 84.8981 8.98317 84.8981 8.67306C84.8981 8.15384 84.6024 7.89512 84.0129 7.89512C83.7349 7.89512 83.4711 7.92525 83.218 7.98373C83.1578 7.65767 83.0799 7.43439 82.9825 7.31566C82.8975 7.18276 82.724 7.11542 82.4584 7.11542C81.6281 7.11542 80.8385 7.44148 80.0913 8.09359C79.3566 8.73153 78.7671 9.58389 78.3209 10.6524C77.8942 11.6625 77.6729 12.7328 77.6552 13.8652C77.4127 14.193 77.1984 14.457 77.0179 14.6555C76.6921 15.0117 76.4088 15.1889 76.168 15.1889C75.8193 15.1889 75.644 14.893 75.644 14.2993C75.644 13.8847 75.7591 13.0305 75.9875 11.7405C76.253 10.2271 76.3858 9.18164 76.3858 8.60395C76.3858 7.63995 75.9945 7.15795 75.212 7.15795C74.8137 7.15795 74.3746 7.32807 73.893 7.67007C73.4239 8.01031 72.9423 8.58268 72.4483 9.38365C71.9544 10.1846 71.5082 11.223 71.1117 12.4971C71.1595 11.845 71.2197 11.2957 71.2922 10.8509C71.3648 10.4061 71.4604 9.88691 71.5808 9.29328C71.7614 8.46218 71.8517 7.92879 71.8517 7.69134C71.8517 7.48401 71.8039 7.34224 71.7065 7.26782C71.6109 7.19339 71.441 7.15618 71.2002 7.15618C70.754 7.15618 70.4052 7.26073 70.1521 7.46806C69.9113 7.66121 69.736 7.97309 69.628 8.40193C69.4191 9.21708 69.2598 10.0535 69.15 10.9112C68.61 11.0582 68.1302 11.1486 67.7106 11.1823C67.615 10.0411 67.2822 9.08417 66.7174 8.31333C66.1633 7.52654 65.4285 7.13491 64.5132 7.13491C63.7661 7.13491 63.0862 7.38655 62.4719 7.89158C61.8575 8.38067 61.376 9.07 61.0272 9.95957C60.6784 10.835 60.5032 11.8362 60.5032 12.9632C60.5032 13.0624 60.5049 13.1599 60.5085 13.2591C60.4978 13.2733 60.4872 13.2857 60.4766 13.3017C60.0358 13.991 59.6498 14.4836 59.3223 14.7796C59.0036 15.0773 58.6761 15.2243 58.3379 15.2243C57.9785 15.2243 57.697 15.0826 57.4916 14.799C57.2969 14.5155 57.1995 14.0902 57.1995 13.5232C57.1995 13.0376 57.2508 12.4564 57.3535 11.7812L58.2919 5.9884C58.4247 5.13781 58.4919 4.41481 58.4919 3.82117C58.4919 2.72782 58.2972 1.87723 57.9077 1.26942C57.5288 0.661603 56.9782 0.358582 56.2612 0.358582C55.3689 0.358582 54.5792 0.764382 53.8905 1.57421C53.2036 2.38404 52.6034 3.72194 52.09 5.58437C52.1821 4.92339 52.2281 4.36874 52.2281 3.92395C52.2281 2.78984 52.0333 1.91267 51.6439 1.29068C51.265 0.668691 50.7409 0.358582 50.0735 0.358582C49.2006 0.358582 48.4004 0.798051 47.6727 1.67522C46.9433 2.53998 46.2883 4.07281 45.7022 6.2737C45.7235 6.15142 45.7536 5.93523 45.7943 5.62512C45.835 5.31502 45.8811 4.9163 45.9324 4.43076C45.9837 3.93104 46.0085 3.49866 46.0085 3.13362C46.0085 2.2281 45.8545 1.54054 45.5464 1.0674C45.249 0.594265 44.817 0.358582 44.254 0.358582C43.6485 0.358582 43.043 0.608441 42.4375 1.10816C41.832 1.5937 41.2832 2.29012 40.791 3.19387C40.637 3.4774 40.5237 3.73434 40.4529 3.96294C40.3909 4.17913 40.3608 4.39532 40.3608 4.61151C40.3608 4.84188 40.4122 5.05098 40.5148 5.23882C40.6281 5.41425 40.7556 5.50285 40.899 5.50285C41.0743 5.50285 41.2319 5.37526 41.3753 5.11832C41.8267 4.33507 42.2375 3.76801 42.6057 3.41715C42.9846 3.0521 43.3086 2.86958 43.5759 2.86958C43.9141 2.86958 44.0841 3.1726 44.0841 3.78042C44.0841 4.42899 44.038 5.23882 43.946 6.21167C43.7919 7.76399 43.5812 9.60161 43.3157 11.721C43.1617 12.8693 43.0483 13.773 42.9775 14.4358C42.9156 15.0843 42.8855 15.6177 42.8855 16.0359C42.8855 16.6579 42.9669 17.0832 43.1316 17.3118C43.2962 17.528 43.5671 17.6361 43.9477 17.6361C44.3478 17.6361 44.6152 17.5014 44.748 17.2303C44.8914 16.9609 44.9994 16.4807 45.072 15.7932C45.4101 12.5397 45.8315 9.95957 46.3343 8.05638C46.8477 6.13902 47.37 4.80821 47.9047 4.06572C48.4376 3.30905 48.9563 2.9316 49.4591 2.9316C49.7566 2.9316 49.9779 3.05387 50.1213 3.29665C50.2753 3.53942 50.3514 3.91864 50.3514 4.43076C50.3514 5.37526 50.116 7.48224 49.6432 10.7499C49.468 11.9655 49.3246 13.0252 49.213 13.929C49.0997 14.8203 49.0431 15.5433 49.0431 16.0962C49.0431 16.6898 49.1192 17.0956 49.2732 17.3118C49.4379 17.528 49.6946 17.6361 50.0434 17.6361C50.4435 17.6361 50.7303 17.5014 50.9056 17.2303C51.0897 16.9468 51.2189 16.3992 51.2898 15.5894C51.5872 12.5645 51.9714 10.1066 52.4441 8.21764C52.9257 6.32686 53.4285 4.97655 53.9525 4.16672C54.4854 3.34272 54.9935 2.9316 55.4769 2.9316C55.7336 2.9316 55.9283 3.05387 56.0611 3.29665C56.2045 3.52701 56.2771 3.87788 56.2771 4.34925C56.2771 4.6186 56.2612 4.89681 56.2311 5.18034C56.201 5.44969 56.1585 5.74031 56.1071 6.05042C56.0558 6.36053 56.0204 6.57672 55.9991 6.69899L55.383 10.4061C55.1369 11.9177 55.013 13.0731 55.013 13.8687C55.013 15.017 55.2591 15.9349 55.7513 16.6225C56.2435 17.2976 56.9269 17.6343 57.7979 17.6343C58.3733 17.6343 58.9221 17.4376 59.4444 17.0478C59.9331 16.681 60.427 16.1121 60.9263 15.3448C61.1901 16.0253 61.5654 16.5746 62.0558 16.9911C62.5746 17.4217 63.1942 17.6361 63.9166 17.6361C64.7717 17.6361 65.5365 17.2657 66.2111 16.5233C66.8856 15.7666 67.3371 14.7654 67.5655 13.5196C68.0559 13.4948 68.5233 13.4257 68.9676 13.3141C68.9623 13.5072 68.9588 13.7021 68.9588 13.8971C68.9588 15.2013 69.0491 16.1511 69.2297 16.7448C69.4227 17.3384 69.7484 17.6343 70.2052 17.6343C70.5788 17.6343 70.8496 17.5156 71.0178 17.2781C71.1984 17.0265 71.3542 16.5516 71.487 15.8552C71.6676 14.9514 71.903 14.0902 72.1916 13.2751C72.4926 12.4599 72.7812 11.8078 73.0591 11.317C73.3477 10.8119 73.5708 10.5603 73.7284 10.5603C73.8612 10.5603 73.9267 10.679 73.9267 10.9165C73.9267 11.2727 73.8488 11.9177 73.6912 12.8516C73.523 13.9201 73.438 14.6608 73.438 15.0755C73.438 15.9066 73.5938 16.5427 73.9072 16.9893C74.2206 17.4199 74.6844 17.6343 75.2988 17.6343C76.0583 17.6343 76.7328 17.3827 77.3224 16.8777C77.5755 16.665 77.8216 16.4276 78.0606 16.1653C78.1368 16.3301 78.2218 16.4878 78.3191 16.6331C78.7653 17.3012 79.3602 17.6343 80.1073 17.6343C81.058 17.6343 81.8476 17.0123 82.4744 15.7666C82.6426 16.3443 82.8904 16.805 83.2144 17.1452C83.5508 17.4713 83.919 17.6343 84.3174 17.6343C84.8361 17.6343 85.3708 17.3756 85.925 16.8564C86.21 16.5888 86.488 16.2893 86.7571 15.9597C86.8491 16.1175 86.9483 16.2698 87.058 16.4116C87.7202 17.2268 88.6426 17.6343 89.8217 17.6343C90.5564 17.6343 91.316 17.404 92.0985 16.945C92.5748 16.6597 93.0103 16.3053 93.4051 15.8818C93.6299 16.3142 93.9114 16.6845 94.2514 16.9911C94.7577 17.4217 95.365 17.6361 96.0767 17.6361C96.7884 17.6361 97.4559 17.3916 98.0454 16.9025C98.6474 16.3974 99.1236 15.7081 99.4724 14.8345C99.8212 13.9449 99.9965 12.9366 99.9965 11.8096C99.9965 10.9944 99.8707 10.2307 99.6176 9.51833L99.6211 9.5201ZM65.055 14.7034C64.7788 15.0897 64.4459 15.281 64.0617 15.281C63.713 15.281 63.4049 15.0666 63.1411 14.636C62.8879 14.2054 62.7622 13.5834 62.7622 12.7683C62.7622 11.7298 62.918 10.9289 63.2314 10.3654C63.5572 9.78768 63.9608 9.49706 64.4424 9.49706H64.5327C64.4973 9.73452 64.4778 9.97197 64.4778 10.2094C64.4778 10.7729 64.5734 11.3063 64.7664 11.8114C64.9718 12.3164 65.2603 12.724 65.6339 13.0341C65.5383 13.7606 65.3453 14.317 65.055 14.7016V14.7034ZM82.0424 13.2786C81.9344 13.9166 81.7591 14.4287 81.5183 14.8132C81.2775 15.1995 81.0244 15.3909 80.7588 15.3909C80.4932 15.3909 80.2826 15.2793 80.1268 15.0578C79.9816 14.8345 79.9108 14.4943 79.9108 14.0353C79.9108 13.2042 80.0365 12.4192 80.2896 11.6767C80.5428 10.936 80.8792 10.3423 81.3006 9.89755C81.7343 9.43858 82.2035 9.20113 82.7098 9.18518L82.0406 13.2786H82.0424ZM97.3089 14.4127C97.0327 14.9621 96.6893 15.235 96.2785 15.235C95.9173 15.235 95.6164 15.0347 95.3756 14.6342C95.1348 14.2338 95.0144 13.6118 95.0144 12.7665C95.0144 11.698 95.1525 10.8988 95.4305 10.3636C95.7191 9.81426 96.0802 9.54136 96.514 9.54136C96.8521 9.54136 97.1407 9.74869 97.3815 10.1634C97.6223 10.578 97.7427 11.1947 97.7427 12.0098C97.7427 13.0624 97.5975 13.8634 97.3089 14.4127Z" fill="#BDA18C"/>
</g>
<defs>
<clipPath id="clip0_67_19265">
<rect width="100" height="17.2757" fill="white" transform="translate(0 0.362122)"/>
</clipPath>
</defs>
</svg>
