<svg width="565" height="98" viewBox="0 0 565 98" fill="none" xmlns="http://www.w3.org/2000/svg">
<g clip-path="url(#clip0_73_25127)">
<path d="M82.27 15.32C85.04 15.55 87.05 15.09 88.3 13.95C89.62 12.81 90.28 10.98 90.28 8.45999C90.28 6.93999 89.73 5.59999 88.62 4.45999C87.58 3.31999 85.99 2.51999 83.84 2.05999C80.44 1.36999 76.46 0.879985 71.88 0.569985C67.37 0.269985 61.31 0.109985 53.68 0.109985C41.34 0.109985 31.21 1.01999 23.31 2.84999C15.47 4.67999 9.62 7.56999 5.73 11.54C1.91 15.43 0 20.61 0 27.09C0 30.14 0.45 32.88 1.35 35.32C2.25 37.68 3.4 39.51 4.78 40.81C5.54 41.57 6.51 41.95 7.69 41.95C9.35 41.95 10.95 41.34 12.47 40.12C14.06 38.82 14.86 37.45 14.86 36.01C14.86 35.4 14.72 34.83 14.44 34.3C13.05 31.94 12.36 29.46 12.36 26.87C12.36 24.05 13.16 21.76 14.75 20.01C16.41 18.18 19.19 16.77 23.07 15.78C26.95 14.79 32.29 14.18 39.09 13.95C38.74 15.78 38.43 17.46 38.15 18.98C37.87 20.43 37.63 21.72 37.42 22.87C36.45 27.98 35.48 33.39 34.51 39.1C33.54 44.81 32.67 50.57 31.91 56.36C31.49 59.79 30.9 63.83 30.14 68.48C29.45 73.13 28.82 77.59 28.27 81.85C27.78 86.04 27.54 89.05 27.54 90.88C27.54 92.86 28.16 94.46 29.41 95.68C30.66 96.9 32.43 97.51 34.71 97.51C36.86 97.51 38.7 96.94 40.22 95.8C41.75 94.58 42.58 92.87 42.72 90.66C43 86.47 43.55 80.98 44.38 74.2C45.21 67.34 46.01 61.32 46.77 56.14C48.92 41.97 51.28 27.87 53.84 13.85C59.53 13.93 64.1 14.08 67.57 14.31C71.11 14.46 75.99 14.81 82.23 15.34L82.27 15.32Z" fill="#FA4D4D"/>
<path d="M227.56 44.02C226.68 43.02 225.42 42.51 223.78 42.51C222.14 42.51 220.79 42.68 219.49 43.01C219.15 41.17 218.71 39.91 218.16 39.24C217.68 38.49 216.7 38.11 215.2 38.11C210.51 38.11 206.05 39.95 201.83 43.63C197.68 47.23 194.35 52.04 191.83 58.07C189.42 63.77 188.17 69.81 188.07 76.2C186.7 78.05 185.49 79.54 184.47 80.66C182.63 82.67 181.03 83.67 179.67 83.67C177.7 83.67 176.71 82 176.71 78.65C176.71 76.31 177.36 71.49 178.65 64.21C180.15 55.67 180.9 49.77 180.9 46.51C180.9 41.07 178.69 38.35 174.27 38.35C172.02 38.35 169.54 39.31 166.82 41.24C164.17 43.16 161.45 46.39 158.66 50.91C155.87 55.43 153.35 61.29 151.11 68.48C151.38 64.8 151.72 61.7 152.13 59.19C152.54 56.68 153.08 53.75 153.76 50.4C154.78 45.71 155.29 42.7 155.29 41.36C155.29 40.19 155.02 39.39 154.47 38.97C153.93 38.55 152.97 38.34 151.61 38.34C149.09 38.34 147.12 38.93 145.69 40.1C144.33 41.19 143.34 42.95 142.73 45.37C140.4 54.41 139.17 63.93 138.99 73.9C136.69 76.69 134.11 79.07 131.24 81.02C127.36 83.61 123.89 84.91 120.83 84.91C116.07 84.91 112.84 82.99 111.14 79.14C119.17 76.71 124.85 73.45 128.18 69.35C131.58 65.17 133.28 60.19 133.28 54.41C133.28 49.47 132.09 45.58 129.71 42.74C127.33 39.81 124.17 38.35 120.22 38.35C115.8 38.35 111.82 39.81 108.28 42.74C104.81 45.67 102.09 49.64 100.12 54.67C98.1501 59.61 97.1601 64.96 97.1601 70.74C97.1601 72.45 97.2701 74.07 97.4301 75.63C95.5201 77.69 93.4401 79.5 91.1801 81.04C87.3001 83.63 83.8301 84.93 80.7701 84.93C76.0101 84.93 72.7801 83.01 71.0801 79.16C79.1101 76.73 84.7901 73.47 88.1201 69.37C91.5201 65.19 93.2201 60.21 93.2201 54.43C93.2201 49.49 92.0301 45.6 89.6501 42.76C87.2701 39.83 84.1001 38.37 80.1601 38.37C75.7401 38.37 71.7601 39.83 68.2201 42.76C64.7501 45.69 62.0301 49.66 60.0601 54.69C58.0901 59.63 57.1001 64.98 57.1001 70.76C57.1001 79.04 59.0701 85.57 63.0201 90.34C66.9701 95.11 72.5101 97.5 79.6501 97.5C84.8901 97.5 89.7901 95.91 94.3501 92.73C96.8801 90.99 99.0801 89.17 100.98 87.25C101.61 88.34 102.3 89.39 103.09 90.34C107.04 95.11 112.58 97.5 119.72 97.5C124.96 97.5 129.86 95.91 134.42 92.73C136.36 91.4 138.1 90.01 139.67 88.57C139.89 90.08 140.16 91.39 140.5 92.48C141.59 95.83 143.42 97.5 146.01 97.5C148.12 97.5 149.65 96.83 150.6 95.49C151.62 94.07 152.5 91.39 153.25 87.46C154.27 82.36 155.6 77.5 157.23 72.9C158.93 68.3 160.56 64.62 162.13 61.85C163.76 59 165.02 57.58 165.91 57.58C166.66 57.58 167.03 58.25 167.03 59.59C167.03 61.6 166.59 65.24 165.7 70.51C164.75 76.54 164.27 80.72 164.27 83.06C164.27 87.75 165.15 91.34 166.92 93.86C168.69 96.29 171.31 97.5 174.78 97.5C179.07 97.5 182.88 96.08 186.21 93.23C187.61 92.06 188.97 90.74 190.29 89.3C190.69 90.2 191.12 91.06 191.63 91.85C194.08 95.62 197.24 97.5 201.12 97.5C206.29 97.5 209.93 93.9 212.04 86.7L211.94 88.71C211.94 91.81 212.48 94.07 213.57 95.49C214.73 96.83 216.46 97.5 218.77 97.5C221.08 97.5 222.85 96.83 223.87 95.49C224.96 94.07 225.5 91.77 225.5 88.59C225.5 82.82 225.7 77.63 226.11 73.02C226.52 68.33 227.1 63.44 227.84 58.33C228.52 53.56 228.86 50.21 228.86 48.29C228.86 46.37 228.42 45.03 227.53 44.02H227.56ZM69.4601 69.13C69.4601 64.03 70.3101 59.67 72.0101 56.08C73.7801 52.48 75.9201 50.68 78.4401 50.68C79.6601 50.68 80.6201 51.18 81.3001 52.19C82.0501 53.11 82.4201 54.37 82.4201 55.96C82.4201 59.06 81.2601 61.78 78.9501 64.12C76.6401 66.46 73.4701 68.22 69.4601 69.39V69.14V69.13ZM109.52 69.13C109.52 64.03 110.37 59.67 112.07 56.08C113.84 52.48 115.98 50.68 118.5 50.68C119.72 50.68 120.68 51.18 121.36 52.19C122.11 53.11 122.48 54.37 122.48 55.96C122.48 59.06 121.32 61.78 119.01 64.12C116.7 66.46 113.53 68.22 109.52 69.39V69.14V69.13ZM214.49 62.47C213.27 70.84 211.87 76.65 210.31 79.92C208.74 83.18 207.01 84.82 205.11 84.82C203.82 84.82 202.76 84.19 201.95 82.94C201.2 81.6 200.83 79.68 200.83 77.17C200.83 72.48 201.54 68.05 202.97 63.86C204.4 59.68 206.3 56.33 208.68 53.82C211.06 51.23 213.65 49.89 216.44 49.8L214.5 62.48L214.49 62.47Z" fill="#FA4D4D"/>
<path d="M562.69 51.68C561.26 47.66 559.12 44.44 556.26 42.01C553.4 39.5 549.97 38.24 545.95 38.24C541.93 38.24 538.06 39.66 534.72 42.51C531.39 45.27 528.73 49.16 526.76 54.18C524.85 59.12 523.9 64.77 523.9 71.13C523.9 72.7 523.99 74.24 524.16 75.74C522.29 77.9 520.4 79.67 518.48 81.05C515.28 83.31 512.29 84.44 509.5 84.44C502.63 84.44 499.19 79.59 499.19 69.88C499.19 66.37 499.6 63.14 500.41 60.21C501.22 57.28 502.31 54.98 503.68 53.31C505.04 51.55 506.5 50.67 508.07 50.67C508.89 50.67 509.5 50.96 509.91 51.55C510.39 52.14 510.62 52.97 510.62 54.06C510.62 55.15 510.45 56.32 510.11 57.57C510.04 57.9 509.94 58.45 509.8 59.2C509.66 59.95 509.6 60.62 509.6 61.21C509.6 62.55 509.97 63.6 510.72 64.35C511.54 65.1 512.59 65.48 513.88 65.48C515.92 65.48 517.55 64.27 518.78 61.84C520.07 59.41 520.72 56.44 520.72 52.93C520.72 48.66 519.67 45.19 517.56 42.51C515.52 39.75 512.63 38.37 508.89 38.37C505.15 38.37 501.44 39.75 497.97 42.51C494.5 45.27 491.68 49.2 489.5 54.31C487.32 59.41 486.23 65.36 486.23 72.13C486.23 73.62 486.32 75.04 486.46 76.41C485.17 78.16 484.04 79.58 483.09 80.66C481.25 82.67 479.69 83.67 478.4 83.67C477.58 83.67 476.9 83.29 476.36 82.54C475.88 81.79 475.65 80.78 475.65 79.53C475.65 75.76 476.43 69.07 478 59.45C479.02 52.84 479.53 48.65 479.53 46.9C479.53 43.97 477.86 42.51 474.53 42.51C472.96 42.51 471.47 42.68 470.04 43.01C469.7 41.17 469.26 39.91 468.71 39.24C468.23 38.49 467.25 38.11 465.75 38.11C461.06 38.11 456.6 39.95 452.38 43.63C448.23 47.23 444.9 52.04 442.38 58.07C439.97 63.77 438.72 69.81 438.62 76.2C437.25 78.05 436.04 79.54 435.02 80.66C433.18 82.67 431.58 83.67 430.22 83.67C428.25 83.67 427.26 82 427.26 78.65C427.26 76.31 427.91 71.49 429.2 64.21C430.7 55.67 431.45 49.77 431.45 46.51C431.45 41.07 429.24 38.35 424.82 38.35C422.57 38.35 420.09 39.31 417.37 41.24C414.72 43.16 412 46.39 409.21 50.91C406.42 55.43 403.9 61.29 401.66 68.48C401.93 64.8 402.27 61.7 402.68 59.19C403.09 56.68 403.63 53.75 404.31 50.4C405.33 45.71 405.84 42.7 405.84 41.36C405.84 40.19 405.57 39.39 405.02 38.97C404.48 38.55 403.52 38.34 402.16 38.34C399.64 38.34 397.67 38.93 396.24 40.1C394.88 41.19 393.89 42.95 393.28 45.37C392.1 49.97 391.2 54.69 390.58 59.53C387.53 60.36 384.82 60.87 382.45 61.06C381.91 54.62 380.03 49.22 376.84 44.87C373.71 40.43 369.56 38.22 364.39 38.22C360.17 38.22 356.33 39.64 352.86 42.49C349.39 45.25 346.67 49.14 344.7 54.16C342.73 59.1 341.74 64.75 341.74 71.11C341.74 71.67 341.75 72.22 341.77 72.78C341.71 72.86 341.65 72.93 341.59 73.02C339.1 76.91 336.92 79.69 335.07 81.36C333.27 83.04 331.42 83.87 329.51 83.87C327.48 83.87 325.89 83.07 324.73 81.47C323.63 79.87 323.08 77.47 323.08 74.27C323.08 71.53 323.37 68.25 323.95 64.44L329.25 31.75C330 26.95 330.38 22.87 330.38 19.52C330.38 13.35 329.28 8.54998 327.08 5.11998C324.94 1.68998 321.83 -0.0200195 317.78 -0.0200195C312.74 -0.0200195 308.28 2.26998 304.39 6.83998C300.51 11.41 297.12 18.96 294.22 29.47C294.74 25.74 295 22.61 295 20.1C295 13.7 293.9 8.74998 291.7 5.23998C289.56 1.72998 286.6 -0.0200195 282.83 -0.0200195C277.9 -0.0200195 273.38 2.45998 269.27 7.40998C265.15 12.29 261.45 20.94 258.14 33.36C258.26 32.67 258.43 31.45 258.66 29.7C258.89 27.95 259.15 25.7 259.44 22.96C259.73 20.14 259.87 17.7 259.87 15.64C259.87 10.53 259 6.64998 257.26 3.97998C255.58 1.30998 253.14 -0.0200195 249.96 -0.0200195C246.54 -0.0200195 243.12 1.38998 239.7 4.20998C236.28 6.94998 233.18 10.88 230.4 15.98C229.53 17.58 228.89 19.03 228.49 20.32C228.14 21.54 227.97 22.76 227.97 23.98C227.97 25.28 228.26 26.46 228.84 27.52C229.48 28.51 230.2 29.01 231.01 29.01C232 29.01 232.89 28.29 233.7 26.84C236.25 22.42 238.57 19.22 240.65 17.24C242.79 15.18 244.62 14.15 246.13 14.15C248.04 14.15 249 15.86 249 19.29C249 22.95 248.74 27.52 248.22 33.01C247.35 41.77 246.16 52.14 244.66 64.1C243.79 70.58 243.15 75.68 242.75 79.42C242.4 83.08 242.23 86.09 242.23 88.45C242.23 91.96 242.69 94.36 243.62 95.65C244.55 96.87 246.08 97.48 248.23 97.48C250.49 97.48 252 96.72 252.75 95.19C253.56 93.67 254.17 90.96 254.58 87.08C256.49 68.72 258.87 54.16 261.71 43.42C264.61 32.6 267.56 25.09 270.58 20.9C273.59 16.63 276.52 14.5 279.36 14.5C281.04 14.5 282.29 15.19 283.1 16.56C283.97 17.93 284.4 20.07 284.4 22.96C284.4 28.29 283.07 40.18 280.4 58.62C279.41 65.48 278.6 71.46 277.97 76.56C277.33 81.59 277.01 85.67 277.01 88.79C277.01 92.14 277.44 94.43 278.31 95.65C279.24 96.87 280.69 97.48 282.66 97.48C284.92 97.48 286.54 96.72 287.53 95.19C288.57 93.59 289.3 90.5 289.7 85.93C291.38 68.86 293.55 54.99 296.22 44.33C298.94 33.66 301.78 26.04 304.74 21.47C307.75 16.82 310.62 14.5 313.35 14.5C314.8 14.5 315.9 15.19 316.65 16.56C317.46 17.86 317.87 19.84 317.87 22.5C317.87 24.02 317.78 25.59 317.61 27.19C317.44 28.71 317.2 30.35 316.91 32.1C316.62 33.85 316.42 35.07 316.3 35.76L312.82 56.68C311.43 65.21 310.73 71.73 310.73 76.22C310.73 82.7 312.12 87.88 314.9 91.76C317.68 95.57 321.54 97.47 326.46 97.47C329.71 97.47 332.81 96.36 335.76 94.16C338.52 92.09 341.31 88.88 344.13 84.55C345.62 88.39 347.74 91.49 350.51 93.84C353.44 96.27 356.94 97.48 361.02 97.48C365.85 97.48 370.17 95.39 373.98 91.2C377.79 86.93 380.34 81.28 381.63 74.25C384.4 74.11 387.04 73.72 389.55 73.09C389.52 74.18 389.5 75.28 389.5 76.38C389.5 83.74 390.01 89.1 391.03 92.45C392.12 95.8 393.96 97.47 396.54 97.47C398.65 97.47 400.18 96.8 401.13 95.46C402.15 94.04 403.03 91.36 403.78 87.43C404.8 82.33 406.13 77.47 407.76 72.87C409.46 68.27 411.09 64.59 412.66 61.82C414.29 58.97 415.55 57.55 416.44 57.55C417.19 57.55 417.56 58.22 417.56 59.56C417.56 61.57 417.12 65.21 416.23 70.48C415.28 76.51 414.8 80.69 414.8 83.03C414.8 87.72 415.68 91.31 417.45 93.83C419.22 96.26 421.84 97.47 425.31 97.47C429.6 97.47 433.41 96.05 436.74 93.2C438.17 92 439.56 90.66 440.91 89.18C441.34 90.11 441.82 91 442.37 91.82C444.89 95.59 448.25 97.47 452.47 97.47C457.84 97.47 462.3 93.96 465.84 86.93C466.79 90.19 468.19 92.79 470.02 94.71C471.92 96.55 474 97.47 476.25 97.47C479.18 97.47 482.2 96.01 485.33 93.08C486.94 91.57 488.51 89.88 490.03 88.02C490.55 88.91 491.11 89.77 491.73 90.57C495.47 95.17 500.68 97.47 507.34 97.47C511.49 97.47 515.78 96.17 520.2 93.58C522.89 91.97 525.35 89.97 527.58 87.58C528.85 90.02 530.44 92.11 532.36 93.84C535.22 96.27 538.65 97.48 542.67 97.48C546.69 97.48 550.46 96.1 553.79 93.34C557.19 90.49 559.88 86.6 561.85 81.67C563.82 76.65 564.81 70.96 564.81 64.6C564.81 60 564.1 55.69 562.67 51.67L562.69 51.68ZM367.45 80.93C365.89 83.11 364.01 84.19 361.84 84.19C359.87 84.19 358.13 82.98 356.64 80.55C355.21 78.12 354.5 74.61 354.5 70.01C354.5 64.15 355.38 59.63 357.15 56.45C358.99 53.19 361.27 51.55 363.99 51.55H364.5C364.3 52.89 364.19 54.23 364.19 55.57C364.19 58.75 364.73 61.76 365.82 64.61C366.98 67.46 368.61 69.76 370.72 71.51C370.18 75.61 369.09 78.75 367.45 80.92V80.93ZM463.4 72.89C462.79 76.49 461.8 79.38 460.44 81.55C459.08 83.73 457.65 84.81 456.15 84.81C454.65 84.81 453.46 84.18 452.58 82.93C451.76 81.67 451.36 79.75 451.36 77.16C451.36 72.47 452.07 68.04 453.5 63.85C454.93 59.67 456.83 56.32 459.21 53.81C461.66 51.22 464.31 49.88 467.17 49.79L463.39 72.89H463.4ZM549.63 79.29C548.07 82.39 546.13 83.93 543.81 83.93C541.77 83.93 540.07 82.8 538.71 80.54C537.35 78.28 536.67 74.77 536.67 70C536.67 63.97 537.45 59.46 539.02 56.44C540.65 53.34 542.69 51.8 545.14 51.8C547.05 51.8 548.68 52.97 550.04 55.31C551.4 57.65 552.08 61.13 552.08 65.73C552.08 71.67 551.26 76.19 549.63 79.29Z" fill="black"/>
</g>
<defs>
<clipPath id="clip0_73_25127">
<rect width="564.83" height="97.49" fill="white"/>
</clipPath>
</defs>
</svg>
