<?xml version="1.0" encoding="UTF-8"?>
<svg id="Layer_2" xmlns="http://www.w3.org/2000/svg" viewBox="0 0 368.88 42.42">
  <defs>
    <style>
      .cls-1 {
        fill: #5348ce;
      }

      .cls-2 {
        fill: #887dfd;
      }
    </style>
  </defs>
  <g id="Layer_1-2" data-name="Layer_1">
    <g>
      <g>
        <path class="cls-1" d="M13.29,41.16V5.7H1.02c-.66,0-1.02-.42-1.02-1.2V1.2C0,.42.36,0,1.02,0h29.57c.66,0,1.02.42,1.02,1.2v3.3c0,.78-.36,1.2-1.02,1.2h-12.27v35.46c0,.78-.36,1.2-1.02,1.2h-3c-.66,0-1.02-.42-1.02-1.2Z"/>
        <path class="cls-1" d="M29.12,29.04v-7.26c0-8.7,2.04-13.14,10.54-13.14h7.18c8.5,0,10.54,4.44,10.54,13.14v5.4c0,.78-.36,1.2-1.02,1.2h-22.45v1.14c0,6.18,1.12,7.5,5.85,7.5h14.3c.66,0,1.02.42,1.02,1.2v2.94c0,.78-.36,1.2-1.02,1.2h-14.41c-8.5,0-10.54-4.38-10.54-13.32ZM52.58,23.28v-1.92c0-6.06-1.12-7.38-5.85-7.38h-6.97c-4.73,0-5.85,1.32-5.85,7.38v1.92h18.68Z"/>
        <path class="cls-1" d="M60.58,29.04v-7.26c0-8.7,2.04-13.14,10.54-13.14h7.18c8.5,0,10.54,4.44,10.54,13.14v5.4c0,.78-.36,1.2-1.02,1.2h-22.45v1.14c0,6.18,1.12,7.5,5.85,7.5h14.3c.66,0,1.02.42,1.02,1.2v2.94c0,.78-.36,1.2-1.02,1.2h-14.41c-8.5,0-10.54-4.38-10.54-13.32ZM84.05,23.28v-1.92c0-6.06-1.12-7.38-5.85-7.38h-6.97c-4.73,0-5.85,1.32-5.85,7.38v1.92h18.68Z"/>
        <path class="cls-1" d="M121.11,21.96v19.26c0,.78-.36,1.2-1.02,1.2h-2.75c-.66,0-1.02-.42-1.02-1.2v-19.74c0-6.18-1.12-7.5-5.8-7.5h-7.23c-4.02,0-5.85,1.08-5.85,7.5v19.68c0,.78-.36,1.2-1.02,1.2h-2.75c-.66,0-1.02-.42-1.02-1.2V9.84c0-.78.36-1.2,1.02-1.2h2.75c.66,0,1.02.42,1.02,1.2v3.18c1.12-2.94,3.46-4.38,8.09-4.38h5.04c8.5,0,10.54,4.38,10.54,13.32Z"/>
        <path class="cls-1" d="M124.16,33.06c0-6.54,2.19-9.3,9.11-10.2l12.62-1.62c1.22-.18,1.63-.96,1.63-2.4,0-3.84-.97-4.86-5.24-4.86h-14.81c-.66,0-1.02-.42-1.02-1.2v-2.94c0-.78.36-1.2,1.02-1.2h14.91c7.33,0,9.93,3.06,9.93,9.9v22.62c0,.78-.36,1.2-1.02,1.2h-2.75c-.66,0-1.02-.42-1.02-1.2v-3.96c-1.32,3.54-3.26,5.16-8.86,5.16h-3.82c-6.82,0-10.69-2.88-10.69-9.3ZM140.6,37.14c5.29,0,6.92-2.16,6.92-7.8v-3.3l-13.49,1.68c-4.07.48-5.04,1.62-5.04,4.86,0,2.94,1.78,4.56,5.85,4.56h5.75Z"/>
      </g>
      <g>
        <path class="cls-2" d="M163.89,41.16V1.2c0-.78.36-1.2,1.02-1.2h3.67c.56,0,.92.18,1.22.78l14.56,27.48L198.91.78c.31-.6.66-.78,1.22-.78h3.61c.66,0,1.02.42,1.02,1.2v39.96c0,.78-.36,1.2-1.02,1.2h-2.95c-.66,0-1.02-.42-1.02-1.2V9.72l-13.18,24.42c-.31.6-.71.78-1.22.78h-2.09c-.56,0-.92-.18-1.22-.78l-13.18-24.48v31.5c0,.78-.36,1.2-1.02,1.2h-2.95c-.66,0-1.02-.42-1.02-1.2Z"/>
        <path class="cls-2" d="M209.4,29.04v-7.26c0-8.7,2.04-13.14,10.54-13.14h8.45c8.5,0,10.54,4.44,10.54,13.14v7.26c0,8.94-2.04,13.32-10.54,13.32h-8.45c-8.5,0-10.54-4.38-10.54-13.32ZM228.28,37.02c4.73,0,5.85-1.32,5.85-7.5v-8.16c0-6.06-1.12-7.38-5.85-7.38h-8.25c-4.73,0-5.85,1.32-5.85,7.38v8.16c0,6.18,1.12,7.5,5.85,7.5h8.25Z"/>
        <path class="cls-2" d="M271.7,21.96v19.26c0,.78-.36,1.2-1.02,1.2h-2.75c-.66,0-1.02-.42-1.02-1.2v-19.74c0-6.18-1.12-7.5-5.8-7.5h-7.23c-4.02,0-5.85,1.08-5.85,7.5v19.68c0,.78-.36,1.2-1.02,1.2h-2.75c-.66,0-1.02-.42-1.02-1.2V9.84c0-.78.36-1.2,1.02-1.2h2.75c.66,0,1.02.42,1.02,1.2v3.18c1.12-2.94,3.46-4.38,8.09-4.38h5.04c8.5,0,10.54,4.38,10.54,13.32Z"/>
        <path class="cls-2" d="M274.76,33.06c0-6.54,2.19-9.3,9.11-10.2l12.62-1.62c1.22-.18,1.63-.96,1.63-2.4,0-3.84-.97-4.86-5.24-4.86h-14.81c-.66,0-1.02-.42-1.02-1.2v-2.94c0-.78.36-1.2,1.02-1.2h14.91c7.33,0,9.93,3.06,9.93,9.9v22.62c0,.78-.36,1.2-1.02,1.2h-2.75c-.66,0-1.02-.42-1.02-1.2v-3.96c-1.32,3.54-3.26,5.16-8.86,5.16h-3.82c-6.82,0-10.69-2.88-10.69-9.3ZM291.2,37.14c5.29,0,6.92-2.16,6.92-7.8v-3.3l-13.49,1.68c-4.07.48-5.04,1.62-5.04,4.86,0,2.94,1.78,4.56,5.85,4.56h5.75Z"/>
        <path class="cls-2" d="M306.88,29.04v-7.26c0-8.7,2.04-13.14,10.54-13.14h8.45c7.69,0,10.33,3.42,10.54,12.18,0,.84-.36,1.26-1.02,1.26h-2.75c-.66,0-1.02-.42-1.02-1.26-.15-5.64-1.22-6.84-5.85-6.84h-8.25c-4.73,0-5.85,1.32-5.85,7.38v8.16c0,6.18,1.12,7.5,5.85,7.5h8.25c4.73,0,5.75-1.32,5.85-6.96,0-.84.36-1.26,1.02-1.26h2.75c.66,0,1.02.42,1.02,1.26-.25,9.06-2.95,12.3-10.54,12.3h-8.45c-8.5,0-10.54-4.38-10.54-13.32Z"/>
        <path class="cls-2" d="M339.36,29.04v-7.26c0-8.7,2.04-13.14,10.54-13.14h8.45c8.5,0,10.54,4.44,10.54,13.14v7.26c0,8.94-2.04,13.32-10.54,13.32h-8.45c-8.5,0-10.54-4.38-10.54-13.32ZM358.25,37.02c4.73,0,5.85-1.32,5.85-7.5v-8.16c0-6.06-1.12-7.38-5.85-7.38h-8.25c-4.73,0-5.85,1.32-5.85,7.38v8.16c0,6.18,1.12,7.5,5.85,7.5h8.25Z"/>
      </g>
    </g>
  </g>
</svg>