<svg width="115" height="20" viewBox="0 0 115 20" fill="none" xmlns="http://www.w3.org/2000/svg">
<path d="M17.178 3.01045C17.7396 3.05559 18.147 2.96531 18.4004 2.74159C18.668 2.51787 18.8018 2.15874 18.8018 1.66419C18.8018 1.3659 18.6903 1.10293 18.4653 0.879206C18.2545 0.655484 17.9322 0.498486 17.4963 0.408212C16.807 0.272802 16.0002 0.176641 15.0717 0.115804C14.1575 0.0569301 12.9289 0.0255306 11.3822 0.0255306C8.88057 0.0255306 6.82699 0.204115 5.22547 0.563248C3.63613 0.92238 2.4502 1.48953 1.6616 2.26864C0.887201 3.03204 0.5 4.0486 0.5 5.32028C0.5 5.91883 0.591225 6.45655 0.773676 6.93539C0.956127 7.39853 1.18926 7.75767 1.46902 8.01279C1.62309 8.16194 1.81973 8.23651 2.05894 8.23651C2.39546 8.23651 2.71982 8.1168 3.02796 7.87738C3.35029 7.62226 3.51246 7.3534 3.51246 7.0708C3.51246 6.95109 3.48408 6.83923 3.42732 6.73522C3.14554 6.27208 3.00566 5.78538 3.00566 5.2771C3.00566 4.72369 3.16784 4.27428 3.49016 3.93085C3.82668 3.57172 4.39026 3.29501 5.17682 3.10072C5.96339 2.90644 7.04593 2.78673 8.42444 2.74159C8.35349 3.10072 8.29065 3.43042 8.23388 3.72871C8.17712 4.01327 8.12847 4.26643 8.0859 4.49211C7.88925 5.49494 7.69261 6.55663 7.49597 7.6772C7.29933 8.79778 7.12296 9.92816 6.96889 11.0644C6.88375 11.7376 6.76414 12.5304 6.61007 13.4429C6.47019 14.3555 6.34248 15.2308 6.23098 16.0668C6.13165 16.889 6.08299 17.4797 6.08299 17.8389C6.08299 18.2275 6.20868 18.5414 6.46208 18.7809C6.71549 19.0203 7.07431 19.14 7.53652 19.14C7.97237 19.14 8.34538 19.0281 8.65352 18.8044C8.96369 18.565 9.13195 18.2294 9.16033 17.7957C9.21709 16.9734 9.32859 15.896 9.49685 14.5655C9.66511 13.2192 9.82729 12.0378 9.98136 11.0213C10.4172 8.24043 10.8956 5.47335 11.4146 2.72197C12.5681 2.73767 13.4945 2.7671 14.198 2.81224C14.9156 2.84168 15.9049 2.91036 17.1699 3.01437L17.178 3.01045Z" fill="#7A6759"/>
<path d="M46.6316 8.64274C46.4533 8.44649 46.1978 8.34641 45.8654 8.34641C45.5329 8.34641 45.2592 8.37977 44.9957 8.44453C44.9268 8.08344 44.8376 7.83617 44.7261 7.70468C44.6287 7.55749 44.4301 7.48292 44.126 7.48292C43.1752 7.48292 42.2711 7.84401 41.4156 8.5662C40.5743 9.27269 39.8992 10.2166 39.3884 11.4C38.8998 12.5186 38.6464 13.704 38.6261 14.958C38.3484 15.321 38.1031 15.6134 37.8963 15.8332C37.5233 16.2277 37.1989 16.4239 36.9232 16.4239C36.5239 16.4239 36.3232 16.0962 36.3232 15.4388C36.3232 14.9796 36.455 14.0336 36.7165 12.605C37.0206 10.929 37.1726 9.77116 37.1726 9.13139C37.1726 8.06381 36.7246 7.53002 35.8285 7.53002C35.3724 7.53002 34.8697 7.71842 34.3183 8.09717C33.781 8.47397 33.2296 9.10785 32.664 9.99488C32.0984 10.8819 31.5876 12.0319 31.1335 13.4429C31.1882 12.7208 31.2571 12.1124 31.3403 11.6198C31.4234 11.1272 31.5328 10.5522 31.6707 9.8948C31.8775 8.9744 31.9809 8.38369 31.9809 8.12072C31.9809 7.89111 31.9261 7.73412 31.8146 7.65169C31.7052 7.56927 31.5105 7.52806 31.2348 7.52806C30.724 7.52806 30.3246 7.64384 30.0347 7.87345C29.759 8.08736 29.5583 8.43276 29.4347 8.90767C28.9623 10.6817 28.713 12.55 28.6765 14.5066C28.2102 15.0541 27.6872 15.5212 27.1054 15.9039C26.3188 16.4122 25.6154 16.6673 24.995 16.6673C24.0301 16.6673 23.3753 16.2905 23.0306 15.5349C24.6585 15.0581 25.81 14.4183 26.485 13.6137C27.1743 12.7934 27.5189 11.8161 27.5189 10.6817C27.5189 9.71229 27.2777 8.94889 26.7952 8.39154C26.3127 7.81654 25.6721 7.53002 24.8714 7.53002C23.9753 7.53002 23.1685 7.81654 22.4508 8.39154C21.7474 8.96655 21.196 9.74565 20.7966 10.7328C20.3973 11.7022 20.1966 12.7522 20.1966 13.8865C20.1966 14.222 20.2189 14.54 20.2513 14.8461C19.8641 15.2504 19.4424 15.6056 18.9843 15.9078C18.1977 16.4161 17.4943 16.6712 16.8739 16.6712C15.909 16.6712 15.2542 16.2944 14.9096 15.5389C16.5374 15.062 17.6889 14.4222 18.364 13.6176C19.0532 12.7973 19.3978 11.82 19.3978 10.6857C19.3978 9.71621 19.1566 8.95281 18.6741 8.39547C18.1916 7.82046 17.549 7.53394 16.7503 7.53394C15.8542 7.53394 15.0474 7.82046 14.3298 8.39547C13.6263 8.97047 13.0749 9.74957 12.6755 10.7367C12.2762 11.7062 12.0755 12.7561 12.0755 13.8904C12.0755 15.5153 12.4748 16.7968 13.2756 17.7329C14.0764 18.669 15.1994 19.138 16.6469 19.138C17.7092 19.138 18.7025 18.826 19.6269 18.2019C20.1398 17.8605 20.5858 17.5033 20.971 17.1265C21.0987 17.3404 21.2386 17.5465 21.3987 17.7329C22.1995 18.669 23.3226 19.138 24.77 19.138C25.8323 19.138 26.8256 18.826 27.75 18.2019C28.1433 17.9409 28.496 17.6681 28.8143 17.3855C28.8589 17.6819 28.9137 17.939 28.9826 18.1529C29.2036 18.8103 29.5745 19.138 30.0996 19.138C30.5273 19.138 30.8375 19.0066 31.0301 18.7436C31.2369 18.4649 31.4153 17.939 31.5673 17.1677C31.7741 16.1669 32.0437 15.2131 32.3741 14.3104C32.7188 13.4076 33.0492 12.6854 33.3675 12.1418C33.6979 11.5825 33.9534 11.3039 34.1338 11.3039C34.2858 11.3039 34.3608 11.4353 34.3608 11.6983C34.3608 12.0928 34.2716 12.8071 34.0912 13.8413C33.8986 15.0247 33.8013 15.845 33.8013 16.3042C33.8013 17.2246 33.9797 17.9292 34.3385 18.4237C34.6973 18.9006 35.2285 19.138 35.9319 19.138C36.8016 19.138 37.574 18.8594 38.2491 18.3001C38.5329 18.0705 38.8086 17.8114 39.0762 17.5288C39.1573 17.7054 39.2444 17.8742 39.3478 18.0292C39.8445 18.7691 40.4851 19.138 41.2717 19.138C42.3197 19.138 43.0576 18.4315 43.4854 17.0186L43.4651 17.413C43.4651 18.0214 43.5746 18.4649 43.7956 18.7436C44.0307 19.0066 44.3814 19.138 44.8497 19.138C45.318 19.138 45.6768 19.0066 45.8836 18.7436C46.1046 18.4649 46.214 18.0135 46.214 17.3895C46.214 16.2571 46.2546 15.2386 46.3377 14.3339C46.4208 13.4135 46.5384 12.4539 46.6884 11.451C46.8263 10.5149 46.8952 9.85751 46.8952 9.48072C46.8952 9.10392 46.806 8.84095 46.6256 8.64274H46.6316ZM14.5811 13.5705C14.5811 12.5696 14.7535 11.714 15.0981 11.0095C15.4569 10.303 15.8907 9.94975 16.4016 9.94975C16.6489 9.94975 16.8435 10.0479 16.9814 10.2461C17.1334 10.4266 17.2084 10.6739 17.2084 10.9859C17.2084 11.5943 16.9733 12.1281 16.505 12.5873C16.0367 13.0465 15.3941 13.3919 14.5811 13.6215V13.5705ZM22.7022 13.5705C22.7022 12.5696 22.8745 11.714 23.2192 11.0095C23.578 10.303 24.0118 9.94975 24.5227 9.94975C24.77 9.94975 24.9646 10.0479 25.1025 10.2461C25.2545 10.4266 25.3295 10.6739 25.3295 10.9859C25.3295 11.5943 25.0944 12.1281 24.6261 12.5873C24.1578 13.0465 23.5151 13.3919 22.7022 13.6215V13.5705ZM43.9821 12.2635C43.7347 13.9061 43.4509 15.0463 43.1347 15.688C42.8164 16.3278 42.4657 16.6496 42.0805 16.6496C41.819 16.6496 41.6041 16.526 41.4399 16.2807C41.2879 16.0177 41.2129 15.6409 41.2129 15.1483C41.2129 14.2279 41.3568 13.3586 41.6467 12.5363C41.9366 11.716 42.3218 11.0585 42.8042 10.566C43.2867 10.0577 43.8118 9.79471 44.3774 9.77705L43.9841 12.2655L43.9821 12.2635Z" fill="#7A6759"/>
<path d="M114.57 10.146C114.28 9.35706 113.847 8.72515 113.267 8.24827C112.687 7.75569 111.992 7.50842 111.177 7.50842C110.362 7.50842 109.577 7.78709 108.9 8.34639C108.225 8.88803 107.686 9.65143 107.286 10.6366C106.899 11.6061 106.707 12.7148 106.707 13.963C106.707 14.2711 106.725 14.5733 106.759 14.8677C106.38 15.2916 105.997 15.6389 105.608 15.9098C104.959 16.3533 104.353 16.575 103.787 16.575C102.395 16.575 101.697 15.6232 101.697 13.7177C101.697 13.0288 101.78 12.395 101.945 11.82C102.109 11.245 102.33 10.7936 102.608 10.4659C102.883 10.1205 103.179 9.94777 103.497 9.94777C103.664 9.94777 103.787 10.0047 103.871 10.1205C103.968 10.2362 104.014 10.3991 104.014 10.613C104.014 10.827 103.98 11.0566 103.911 11.3019C103.897 11.3666 103.877 11.4746 103.848 11.6218C103.82 11.7689 103.808 11.9004 103.808 12.0162C103.808 12.2792 103.883 12.4852 104.035 12.6324C104.201 12.7796 104.414 12.8542 104.675 12.8542C105.089 12.8542 105.419 12.6167 105.669 12.1398C105.93 11.663 106.062 11.0801 106.062 10.3913C106.062 9.55331 105.849 8.87233 105.421 8.34639C105.008 7.80475 104.422 7.53393 103.664 7.53393C102.906 7.53393 102.153 7.80475 101.45 8.34639C100.747 8.88803 100.175 9.65928 99.7329 10.6621C99.291 11.663 99.07 12.8306 99.07 14.1592C99.07 14.4516 99.0883 14.7303 99.1167 14.9992C98.8551 15.3426 98.6261 15.6213 98.4335 15.8332C98.0605 16.2277 97.7442 16.4239 97.4827 16.4239C97.3165 16.4239 97.1786 16.3493 97.0691 16.2022C96.9718 16.055 96.9252 15.8568 96.9252 15.6115C96.9252 14.8716 97.0833 13.5587 97.4016 11.6708C97.6084 10.3736 97.7118 9.55135 97.7118 9.20792C97.7118 8.63291 97.3732 8.34639 96.6982 8.34639C96.3799 8.34639 96.0778 8.37975 95.7879 8.44451C95.719 8.08342 95.6298 7.83615 95.5183 7.70466C95.421 7.55748 95.2223 7.4829 94.9183 7.4829C93.9675 7.4829 93.0633 7.844 92.2078 8.56619C91.3665 9.27268 90.6915 10.2166 90.1806 11.4C89.6921 12.5186 89.4386 13.7039 89.4184 14.958C89.1406 15.321 88.8953 15.6134 88.6886 15.8332C88.3156 16.2277 87.9912 16.4239 87.7155 16.4239C87.3161 16.4239 87.1154 16.0962 87.1154 15.4388C87.1154 14.9795 87.2472 14.0336 87.5087 12.605C87.8128 10.929 87.9649 9.77114 87.9649 9.13138C87.9649 8.06379 87.5168 7.53 86.6208 7.53C86.1647 7.53 85.6619 7.7184 85.1105 8.09716C84.5733 8.47395 84.0219 9.10783 83.4563 9.99487C82.8907 10.8819 82.3798 12.0319 81.9257 13.4429C81.9805 12.7207 82.0494 12.1124 82.1325 11.6198C82.2156 11.1272 82.3251 10.5522 82.4629 9.89478C82.6697 8.97438 82.7731 8.38368 82.7731 8.12071C82.7731 7.8911 82.7184 7.7341 82.6069 7.65168C82.4974 7.56925 82.3028 7.52804 82.0271 7.52804C81.5162 7.52804 81.1169 7.64382 80.827 7.87343C80.5513 8.08734 80.3506 8.43274 80.2269 8.90766C79.9877 9.81039 79.8053 10.7367 79.6796 11.6865C79.0613 11.8494 78.5119 11.9495 78.0314 11.9868C77.922 10.7229 77.5408 9.66321 76.8942 8.80953C76.2596 7.9382 75.4183 7.50449 74.3703 7.50449C73.5148 7.50449 72.7363 7.78316 72.0328 8.34247C71.3294 8.88411 70.778 9.64751 70.3786 10.6327C69.9793 11.6021 69.7786 12.7109 69.7786 13.9591C69.7786 14.069 69.7806 14.1769 69.7846 14.2868C69.7725 14.3025 69.7603 14.3162 69.7482 14.3339C69.2434 15.0973 68.8015 15.6429 68.4264 15.9706C68.0615 16.3003 67.6865 16.4632 67.2993 16.4632C66.8877 16.4632 66.5654 16.3062 66.3303 15.9922C66.1073 15.6782 65.9958 15.2072 65.9958 14.5792C65.9958 14.0415 66.0546 13.3978 66.1721 12.6501L67.2466 6.23477C67.3986 5.29278 67.4756 4.4921 67.4756 3.83467C67.4756 2.62382 67.2526 1.68184 66.8066 1.00871C66.3728 0.335583 65.7424 0 64.9213 0C63.8996 0 62.9955 0.449406 62.2069 1.34626C61.4203 2.2431 60.7331 3.72477 60.1452 5.78733C60.2506 5.05533 60.3033 4.44107 60.3033 3.94849C60.3033 2.69251 60.0803 1.72109 59.6343 1.03226C59.2005 0.343432 58.6004 0 57.8362 0C56.8367 0 55.9204 0.486693 55.0872 1.45812C54.252 2.4158 53.5019 4.11334 52.8309 6.55073C52.8553 6.41532 52.8897 6.1759 52.9363 5.83246C52.983 5.48903 53.0357 5.04748 53.0945 4.50976C53.1533 3.95634 53.1816 3.4775 53.1816 3.07323C53.1816 2.07041 53.0053 1.30897 52.6525 0.784988C52.312 0.261009 51.8173 0 51.1727 0C50.4793 0 49.786 0.276708 49.0927 0.830125C48.3994 1.36784 47.771 2.13909 47.2074 3.13995C47.031 3.45395 46.9013 3.73851 46.8202 3.99167C46.7492 4.23109 46.7148 4.47051 46.7148 4.70993C46.7148 4.96505 46.7736 5.19662 46.8911 5.40465C47.0209 5.59893 47.1668 5.69705 47.3311 5.69705C47.5317 5.69705 47.7122 5.55576 47.8764 5.2712C48.3933 4.40379 48.8636 3.77579 49.2853 3.38723C49.7191 2.98296 50.0901 2.78082 50.3962 2.78082C50.7834 2.78082 50.978 3.1164 50.978 3.78953C50.978 4.5078 50.9253 5.40465 50.8199 6.48204C50.6435 8.20117 50.4023 10.2362 50.0982 12.5834C49.9218 13.855 49.7921 14.8559 49.711 15.5899C49.6401 16.3081 49.6056 16.8988 49.6056 17.362C49.6056 18.0508 49.6989 18.5218 49.8874 18.775C50.0759 19.0144 50.3861 19.1341 50.8219 19.1341C51.2801 19.1341 51.5862 18.9849 51.7382 18.6847C51.9025 18.3864 52.0261 17.8546 52.1092 17.0931C52.4964 13.49 52.9789 10.6327 53.5546 8.52497C54.1425 6.40158 54.7406 4.92776 55.3528 4.10549C55.963 3.26751 56.557 2.84951 57.1327 2.84951C57.4733 2.84951 57.7267 2.98492 57.8909 3.25378C58.0673 3.52264 58.1544 3.9426 58.1544 4.50976C58.1544 5.55576 57.8848 7.88913 57.3435 11.5079C57.1428 12.8542 56.9786 14.0277 56.8509 15.0286C56.7212 16.0157 56.6563 16.8164 56.6563 17.4287C56.6563 18.0861 56.7435 18.5355 56.9198 18.775C57.1084 19.0144 57.4023 19.1341 57.8017 19.1341C58.2598 19.1341 58.5883 18.9849 58.789 18.6847C58.9998 18.3707 59.1478 17.7643 59.2289 16.8674C59.5694 13.5175 60.0093 10.7956 60.5506 8.70356C61.102 6.6096 61.6778 5.1142 62.2778 4.21735C62.888 3.3048 63.4698 2.84951 64.0233 2.84951C64.3172 2.84951 64.5402 2.98492 64.6922 3.25378C64.8565 3.5089 64.9396 3.89747 64.9396 4.41949C64.9396 4.71778 64.9213 5.02589 64.8869 5.33988C64.8524 5.63818 64.8037 5.96002 64.745 6.30346C64.6862 6.64689 64.6456 6.88631 64.6213 7.02172L63.9158 11.1272C63.634 12.8012 63.4921 14.0807 63.4921 14.9619C63.4921 16.2336 63.7739 17.2501 64.3375 18.0116C64.901 18.7593 65.6836 19.1321 66.681 19.1321C67.3398 19.1321 67.9683 18.9143 68.5663 18.4826C69.1258 18.0763 69.6914 17.4464 70.2631 16.5966C70.5651 17.3502 70.9949 17.9586 71.5565 18.4198C72.1504 18.8966 72.86 19.1341 73.6871 19.1341C74.6662 19.1341 75.542 18.7239 76.3144 17.9017C77.0867 17.0637 77.6037 15.9549 77.8652 14.5753C78.4267 14.5478 78.9619 14.4713 79.4708 14.3476C79.4647 14.5615 79.4606 14.7774 79.4606 14.9933C79.4606 16.4377 79.564 17.4895 79.7708 18.147C79.9918 18.8044 80.3648 19.1321 80.8878 19.1321C81.3155 19.1321 81.6257 19.0006 81.8183 18.7377C82.0251 18.459 82.2035 17.9331 82.3555 17.1618C82.5623 16.161 82.8319 15.2072 83.1623 14.3045C83.507 13.4017 83.8374 12.6795 84.1557 12.1359C84.4861 11.5766 84.7416 11.2979 84.922 11.2979C85.074 11.2979 85.149 11.4294 85.149 11.6924C85.149 12.0869 85.0598 12.8012 84.8794 13.8354C84.6868 15.0188 84.5895 15.8391 84.5895 16.2983C84.5895 17.2187 84.7679 17.9232 85.1267 18.4178C85.4856 18.8947 86.0167 19.1321 86.7201 19.1321C87.5898 19.1321 88.3622 18.8535 89.0373 18.2942C89.3271 18.0587 89.6089 17.7957 89.8826 17.5052C89.9698 17.6878 90.0671 17.8624 90.1786 18.0233C90.6894 18.7632 91.3706 19.1321 92.2261 19.1321C93.3147 19.1321 94.2189 18.4433 94.9365 17.0637C95.1291 17.7035 95.4129 18.2137 95.7839 18.5905C96.169 18.9516 96.5907 19.1321 97.0468 19.1321C97.6408 19.1321 98.253 18.8456 98.8876 18.2706C99.214 17.9743 99.5322 17.6426 99.8404 17.2776C99.9458 17.4523 100.059 17.621 100.185 17.778C100.943 18.6808 101.999 19.1321 103.35 19.1321C104.191 19.1321 105.06 18.877 105.957 18.3687C106.502 18.0528 107.001 17.6603 107.453 17.1912C107.71 17.6701 108.032 18.0802 108.422 18.4198C109.001 18.8966 109.697 19.1341 110.512 19.1341C111.327 19.1341 112.091 18.8633 112.766 18.3216C113.455 17.7623 114.001 16.9989 114.4 16.0314C114.799 15.0463 115 13.9296 115 12.6815C115 11.7788 114.856 10.9329 114.566 10.144L114.57 10.146ZM74.9906 15.8862C74.6743 16.314 74.2932 16.526 73.8533 16.526C73.4539 16.526 73.1012 16.2885 72.7991 15.8116C72.5093 15.3348 72.3653 14.6459 72.3653 13.7432C72.3653 12.5932 72.5437 11.7061 72.9025 11.0821C73.2755 10.4423 73.7378 10.1205 74.2892 10.1205H74.3925C74.352 10.3834 74.3297 10.6464 74.3297 10.9094C74.3297 11.5334 74.4392 12.1241 74.6601 12.6835C74.8953 13.2428 75.2257 13.6941 75.6535 14.0376C75.544 14.8422 75.323 15.4584 74.9906 15.8842V15.8862ZM94.4419 14.3084C94.3182 15.0149 94.1175 15.582 93.8418 16.0079C93.5661 16.4357 93.2762 16.6476 92.9721 16.6476C92.668 16.6476 92.4268 16.524 92.2484 16.2787C92.0822 16.0314 92.0011 15.6546 92.0011 15.1464C92.0011 14.226 92.145 13.3566 92.4349 12.5343C92.7248 11.714 93.11 11.0566 93.5924 10.564C94.0891 10.0557 94.6263 9.79273 95.2061 9.77507L94.4398 14.3084H94.4419ZM111.923 15.5644C111.606 16.1727 111.213 16.4749 110.743 16.4749C110.329 16.4749 109.985 16.2532 109.709 15.8097C109.433 15.3661 109.295 14.6773 109.295 13.7412C109.295 12.5579 109.453 11.6728 109.772 11.0801C110.102 10.4717 110.516 10.1695 111.012 10.1695C111.4 10.1695 111.73 10.3991 112.006 10.8584C112.281 11.3176 112.419 12.0005 112.419 12.9032C112.419 14.069 112.253 14.956 111.923 15.5644Z" fill="#BDA18C"/>
</svg>
