<svg width="505" height="117" viewBox="0 0 505 117" fill="none" xmlns="http://www.w3.org/2000/svg">
<path d="M343.709 8H0V52H343.709V8Z" fill="#E04B4B"/>
<path d="M30.3073 30.8418C30.3073 31.942 30.1675 32.9446 29.8877 33.8496C29.6079 34.748 29.1917 35.5228 28.6388 36.1738C28.0924 36.8184 27.4126 37.3164 26.5995 37.668C25.7864 38.0196 24.8432 38.1954 23.7699 38.1954C22.664 38.1954 21.698 38.0196 20.8719 37.668C20.0522 37.3164 19.3693 36.8152 18.8229 36.164C18.283 35.513 17.8764 34.735 17.6032 33.83C17.3365 32.9252 17.2031 31.9226 17.2031 30.8222C17.2031 29.364 17.4438 28.0846 17.9252 26.9844C18.4065 25.8841 19.1351 25.028 20.1108 24.416C21.0931 23.804 22.3225 23.498 23.799 23.498C25.2107 23.498 26.3979 23.8008 27.3606 24.4062C28.3298 25.0117 29.0616 25.8646 29.556 26.9648C30.0568 28.0586 30.3073 29.351 30.3073 30.8418ZM18.9497 30.8418C18.9497 32.0528 19.1221 33.101 19.4668 33.9864C19.8116 34.8718 20.3386 35.5554 21.0476 36.0372C21.7632 36.5188 22.6706 36.7598 23.7699 36.7598C24.8757 36.7598 25.7798 36.5188 26.4824 36.0372C27.1914 35.5554 27.7151 34.8718 28.0533 33.9864C28.3916 33.101 28.5606 32.0528 28.5606 30.8418C28.5606 28.9994 28.1737 27.5605 27.3996 26.5254C26.6321 25.4837 25.4319 24.9629 23.799 24.9629C22.6932 24.9629 21.7826 25.2005 21.067 25.6758C20.3516 26.151 19.8181 26.8281 19.4668 27.707C19.1221 28.5794 18.9497 29.6244 18.9497 30.8418ZM38.3084 27.1016C39.5767 27.1016 40.5363 27.4141 41.1867 28.039C41.8372 28.6576 42.1625 29.6536 42.1625 31.0274V38H40.5623V31.1348C40.5623 30.2428 40.3574 29.5756 39.9476 29.1328C39.5443 28.6902 38.9231 28.4688 38.084 28.4688C36.9 28.4688 36.0675 28.804 35.5861 29.4746C35.1047 30.1452 34.8639 31.1184 34.8639 32.3946V38H33.2443V27.2969H34.5518L34.7958 28.8398H34.8835C35.1111 28.4622 35.4006 28.1464 35.7519 27.8926C36.1032 27.6322 36.4967 27.4368 36.9325 27.3066C37.3684 27.1699 37.827 27.1016 38.3084 27.1016ZM47.1289 38H45.4995V22.8047H47.1289V38ZM48.8658 27.2969H50.6026L52.964 33.5078C53.1005 33.8724 53.2274 34.224 53.3445 34.5624C53.4616 34.8946 53.5657 35.2136 53.6566 35.5196C53.7477 35.8256 53.8193 36.1218 53.8714 36.4082H53.9396C54.0307 36.0826 54.1608 35.6562 54.33 35.129C54.4991 34.595 54.6811 34.0514 54.8764 33.498L57.1109 27.2969H58.8574L54.2031 39.5722C53.9559 40.2298 53.6664 40.8028 53.3347 41.291C53.0093 41.7792 52.6127 42.1536 52.1443 42.414C51.6759 42.681 51.11 42.8144 50.4465 42.8144C50.1408 42.8144 49.8708 42.795 49.6366 42.7558C49.4024 42.7234 49.2008 42.6842 49.0317 42.6386V41.3398C49.1748 41.3724 49.3472 41.4016 49.5489 41.4278C49.7569 41.4538 49.9717 41.4668 50.1927 41.4668C50.5962 41.4668 50.9441 41.3886 51.2368 41.2324C51.536 41.0826 51.793 40.8614 52.0076 40.5684C52.2224 40.2754 52.4077 39.927 52.5639 39.5234L53.1492 38.0196L48.8658 27.2969ZM74.3813 38H65.0338V36.6426L68.849 32.7656C69.558 32.0494 70.153 31.4114 70.6344 30.8516C71.1224 30.2916 71.4931 29.7416 71.7469 29.2012C72.0005 28.6542 72.1274 28.0554 72.1274 27.4043C72.1274 26.597 71.8868 25.9818 71.4054 25.5586C70.9304 25.1289 70.3027 24.9141 69.5222 24.9141C68.8392 24.9141 68.2343 25.0312 67.7073 25.2656C67.1804 25.5 66.6404 25.832 66.0875 26.2617L65.2192 25.168C65.5965 24.849 66.0064 24.5658 66.4486 24.3184C66.8974 24.071 67.3756 23.8757 67.883 23.7324C68.3967 23.5892 68.9433 23.5176 69.5222 23.5176C70.4002 23.5176 71.1582 23.6706 71.7957 23.9766C72.4331 24.2826 72.9243 24.7188 73.269 25.2852C73.6203 25.8516 73.796 26.5254 73.796 27.3066C73.796 28.0618 73.6463 28.765 73.3472 29.416C73.0478 30.0606 72.6284 30.7018 72.0884 31.3398C71.5485 31.9714 70.9174 32.642 70.1954 33.3516L67.0926 36.4472V36.5156H74.3813V38ZM82.6263 38V23.7227H84.2851V38H82.6263ZM93.0277 27.1016C94.2962 27.1016 95.2556 27.4141 95.9061 28.039C96.5565 28.6576 96.8818 29.6536 96.8818 31.0274V38H95.2816V31.1348C95.2816 30.2428 95.0768 29.5756 94.6669 29.1328C94.2637 28.6902 93.6424 28.4688 92.8033 28.4688C91.6193 28.4688 90.7868 28.804 90.3054 29.4746C89.824 30.1452 89.5834 31.1184 89.5834 32.3946V38H87.9636V27.2969H89.2711L89.5151 28.8398H89.6028C89.8306 28.4622 90.12 28.1464 90.4713 27.8926C90.8226 27.6322 91.216 27.4368 91.6519 27.3066C92.0877 27.1699 92.5463 27.1016 93.0277 27.1016ZM113.704 34.2012C113.704 35.0476 113.492 35.7702 113.069 36.3692C112.653 36.9616 112.068 37.414 111.313 37.7266C110.558 38.039 109.67 38.1954 108.649 38.1954C108.109 38.1954 107.599 38.1692 107.117 38.1172C106.636 38.0652 106.194 37.9902 105.79 37.8926C105.387 37.795 105.033 37.6744 104.727 37.5312V35.9394C105.215 36.1412 105.81 36.33 106.512 36.5058C107.215 36.6752 107.95 36.7598 108.717 36.7598C109.433 36.7598 110.038 36.6654 110.532 36.4766C111.027 36.2812 111.401 36.0046 111.655 35.6464C111.915 35.282 112.045 34.8458 112.045 34.3378C112.045 33.8496 111.938 33.4428 111.723 33.1172C111.508 32.7852 111.15 32.4856 110.649 32.2188C110.155 31.9454 109.479 31.6556 108.62 31.3496C108.015 31.1348 107.482 30.9004 107.02 30.6464C106.558 30.386 106.171 30.093 105.859 29.7676C105.546 29.442 105.309 29.0644 105.146 28.6348C104.99 28.205 104.912 27.7135 104.912 27.1602C104.912 26.3984 105.104 25.7474 105.488 25.207C105.878 24.6602 106.415 24.2435 107.098 23.957C107.787 23.6641 108.578 23.5176 109.469 23.5176C110.23 23.5176 110.932 23.5892 111.576 23.7324C112.227 23.8757 112.822 24.0677 113.362 24.3086L112.845 25.7344C112.331 25.5195 111.785 25.3405 111.206 25.1973C110.633 25.054 110.041 24.9824 109.43 24.9824C108.818 24.9824 108.301 25.0736 107.878 25.2559C107.462 25.4316 107.143 25.6823 106.922 26.0078C106.701 26.3333 106.59 26.7207 106.59 27.1699C106.59 27.6712 106.695 28.0878 106.903 28.42C107.117 28.752 107.456 29.0482 107.918 29.3086C108.386 29.5624 109.004 29.8294 109.771 30.1094C110.61 30.4154 111.323 30.7408 111.908 31.086C112.494 31.4244 112.939 31.8412 113.245 32.336C113.551 32.8242 113.704 33.446 113.704 34.2012ZM119.831 36.8672C120.098 36.8672 120.371 36.8444 120.651 36.7988C120.931 36.7532 121.158 36.698 121.334 36.6328V37.8926C121.145 37.9772 120.882 38.0488 120.543 38.1074C120.212 38.166 119.886 38.1954 119.568 38.1954C119.002 38.1954 118.488 38.0976 118.026 37.9024C117.564 37.7006 117.193 37.362 116.914 36.8868C116.641 36.4114 116.504 35.754 116.504 34.914V28.5664H114.982V27.7754L116.514 27.1406L117.158 24.8164H118.133V27.2969H121.265V28.5664H118.133V34.8652C118.133 35.5358 118.286 36.0372 118.592 36.3692C118.904 36.7012 119.317 36.8672 119.831 36.8672ZM132.721 32.629C132.721 33.5078 132.607 34.2924 132.379 34.9824C132.151 35.6726 131.823 36.2552 131.394 36.7304C130.964 37.2058 130.444 37.5704 129.833 37.8242C129.227 38.0716 128.541 38.1954 127.774 38.1954C127.058 38.1954 126.401 38.0716 125.803 37.8242C125.211 37.5704 124.697 37.2058 124.261 36.7304C123.832 36.2552 123.497 35.6726 123.256 34.9824C123.022 34.2924 122.905 33.5078 122.905 32.629C122.905 31.457 123.103 30.461 123.5 29.6406C123.897 28.8138 124.463 28.1856 125.198 27.7559C125.939 27.3197 126.821 27.1016 127.842 27.1016C128.818 27.1016 129.67 27.3197 130.398 27.7559C131.133 28.192 131.703 28.8236 132.106 29.6504C132.516 30.4708 132.721 31.4636 132.721 32.629ZM124.583 32.629C124.583 33.4882 124.697 34.2338 124.925 34.8652C125.152 35.4968 125.503 35.985 125.978 36.33C126.453 36.6752 127.065 36.8476 127.813 36.8476C128.554 36.8476 129.163 36.6752 129.637 36.33C130.119 35.985 130.473 35.4968 130.701 34.8652C130.929 34.2338 131.042 33.4882 131.042 32.629C131.042 31.776 130.929 31.0404 130.701 30.4218C130.473 29.7968 130.122 29.3152 129.647 28.9766C129.172 28.638 128.557 28.4688 127.803 28.4688C126.691 28.4688 125.874 28.8366 125.354 29.5722C124.84 30.308 124.583 31.3268 124.583 32.629ZM139.805 38.1954C138.842 38.1954 137.993 37.9968 137.258 37.5996C136.523 37.2024 135.95 36.597 135.541 35.7832C135.131 34.9694 134.926 33.944 134.926 32.707C134.926 31.4114 135.14 30.3536 135.57 29.5332C136.006 28.7064 136.604 28.0944 137.365 27.6973C138.126 27.3001 138.991 27.1016 139.961 27.1016C140.494 27.1016 141.008 27.1569 141.502 27.2676C142.003 27.3717 142.413 27.5052 142.732 27.668L142.244 29.0254C141.919 28.8952 141.541 28.778 141.112 28.6738C140.689 28.5696 140.292 28.5176 139.922 28.5176C139.18 28.5176 138.562 28.677 138.068 28.996C137.58 29.3152 137.212 29.7838 136.965 30.4024C136.724 31.0208 136.604 31.7826 136.604 32.6876C136.604 33.5534 136.721 34.2924 136.955 34.9042C137.196 35.5162 137.551 35.985 138.019 36.3106C138.494 36.6296 139.086 36.789 139.795 36.789C140.361 36.789 140.871 36.7304 141.327 36.6132C141.782 36.4896 142.195 36.3464 142.566 36.1836V37.629C142.208 37.8112 141.808 37.9512 141.366 38.0488C140.93 38.1464 140.409 38.1954 139.805 38.1954ZM146.713 22.8047V30.6954C146.713 30.9558 146.703 31.2748 146.684 31.6524C146.664 32.0234 146.648 32.3522 146.635 32.6386H146.703C146.84 32.4694 147.038 32.2188 147.298 31.8868C147.565 31.5546 147.789 31.2878 147.971 31.086L151.523 27.2969H153.426L149.123 31.8672L153.738 38H151.787L148.01 32.9316L146.713 34.123V38H145.103V22.8047H146.713ZM155.358 36.9844C155.358 36.5286 155.468 36.2064 155.69 36.0176C155.911 35.8222 156.181 35.7246 156.499 35.7246C156.831 35.7246 157.111 35.8222 157.339 36.0176C157.566 36.2064 157.68 36.5286 157.68 36.9844C157.68 37.4336 157.566 37.7624 157.339 37.9708C157.111 38.1726 156.831 38.2734 156.499 38.2734C156.181 38.2734 155.911 38.1726 155.69 37.9708C155.468 37.7624 155.358 37.4336 155.358 36.9844ZM169.925 30.8808L173.721 23.7227H175.507L170.755 32.4628V38H169.096V32.541L164.335 23.7227H166.149L169.925 30.8808ZM186.445 32.629C186.445 33.5078 186.331 34.2924 186.103 34.9824C185.876 35.6726 185.547 36.2552 185.118 36.7304C184.688 37.2058 184.168 37.5704 183.557 37.8242C182.952 38.0716 182.265 38.1954 181.498 38.1954C180.782 38.1954 180.125 38.0716 179.527 37.8242C178.935 37.5704 178.421 37.2058 177.985 36.7304C177.556 36.2552 177.221 35.6726 176.98 34.9824C176.746 34.2924 176.629 33.5078 176.629 32.629C176.629 31.457 176.827 30.461 177.224 29.6406C177.621 28.8138 178.187 28.1856 178.922 27.7559C179.663 27.3197 180.545 27.1016 181.566 27.1016C182.542 27.1016 183.394 27.3197 184.122 27.7559C184.858 28.192 185.427 28.8236 185.83 29.6504C186.24 30.4708 186.445 31.4636 186.445 32.629ZM178.307 32.629C178.307 33.4882 178.421 34.2338 178.649 34.8652C178.876 35.4968 179.228 35.985 179.702 36.33C180.177 36.6752 180.789 36.8476 181.537 36.8476C182.278 36.8476 182.887 36.6752 183.362 36.33C183.843 35.985 184.197 35.4968 184.425 34.8652C184.653 34.2338 184.767 33.4882 184.767 32.629C184.767 31.776 184.653 31.0404 184.425 30.4218C184.197 29.7968 183.846 29.3152 183.371 28.9766C182.896 28.638 182.282 28.4688 181.527 28.4688C180.415 28.4688 179.598 28.8366 179.078 29.5722C178.564 30.308 178.307 31.3268 178.307 32.629ZM198.075 27.2969V38H196.749L196.514 36.496H196.427C196.205 36.8672 195.919 37.1796 195.568 37.4336C195.217 37.6876 194.82 37.8764 194.378 38C193.942 38.1302 193.477 38.1954 192.982 38.1954C192.137 38.1954 191.428 38.0586 190.855 37.7852C190.283 37.5118 189.85 37.0886 189.557 36.5156C189.271 35.9428 189.128 35.207 189.128 34.3086V27.2969H190.767V34.1914C190.767 35.0834 190.969 35.7506 191.372 36.1934C191.776 36.6296 192.39 36.8476 193.216 36.8476C194.01 36.8476 194.641 36.698 195.109 36.3984C195.584 36.099 195.926 35.6596 196.134 35.08C196.342 34.4942 196.446 33.778 196.446 32.9316V27.2969H198.075ZM210.789 23.7227C211.96 23.7227 212.927 23.8691 213.688 24.1621C214.456 24.4486 215.027 24.888 215.405 25.4805C215.782 26.0729 215.97 26.8281 215.97 27.7461C215.97 28.5014 215.834 29.1328 215.561 29.6406C215.287 30.142 214.929 30.5488 214.488 30.8614C214.046 31.1738 213.574 31.4148 213.073 31.584L216.985 38H215.053L211.56 32.043H208.595V38H206.936V23.7227H210.789ZM210.693 25.1582H208.595V30.6368H210.859C212.022 30.6368 212.877 30.399 213.424 29.9238C213.976 29.4486 214.254 28.7486 214.254 27.8242C214.254 26.8542 213.96 26.1673 213.375 25.7637C212.797 25.36 211.902 25.1582 210.693 25.1582ZM223.142 27.1016C224.054 27.1016 224.833 27.3034 225.484 27.707C226.134 28.1106 226.631 28.677 226.977 29.4062C227.321 30.129 227.495 30.9752 227.495 31.9454V32.9512H220.107C220.127 34.2076 220.439 35.1648 221.044 35.8222C221.65 36.4798 222.501 36.8086 223.6 36.8086C224.277 36.8086 224.877 36.7468 225.396 36.623C225.916 36.4994 226.457 36.317 227.015 36.0762V37.502C226.475 37.7428 225.94 37.9186 225.406 38.0292C224.879 38.14 224.255 38.1954 223.532 38.1954C222.505 38.1954 221.608 37.987 220.84 37.5704C220.079 37.1472 219.487 36.5286 219.064 35.7148C218.64 34.901 218.43 33.905 218.43 32.7266C218.43 31.5742 218.622 30.5782 219.006 29.7382C219.395 28.892 219.941 28.2408 220.644 27.7852C221.354 27.3294 222.185 27.1016 223.142 27.1016ZM223.122 28.4296C222.257 28.4296 221.568 28.7128 221.054 29.2792C220.54 29.8458 220.235 30.6368 220.137 31.6524H225.796C225.79 31.0144 225.688 30.4544 225.494 29.9726C225.304 29.4844 225.015 29.1068 224.625 28.8398C224.235 28.5664 223.734 28.4296 223.122 28.4296ZM237.418 42.7852V38.1954C237.418 37.9414 237.424 37.6484 237.436 37.3164C237.45 36.9844 237.472 36.698 237.504 36.457H237.398C237.098 36.9518 236.673 37.3652 236.119 37.6972C235.566 38.0292 234.854 38.1954 233.983 38.1954C232.676 38.1954 231.625 37.733 230.832 36.8086C230.038 35.8842 229.641 34.504 229.641 32.668C229.641 31.4636 229.823 30.448 230.186 29.621C230.552 28.7942 231.066 28.1692 231.729 27.7461C232.398 27.3164 233.18 27.1016 234.071 27.1016C234.922 27.1016 235.618 27.2708 236.159 27.6094C236.699 27.9414 237.12 28.3484 237.426 28.83H237.504L237.75 27.2969H239.037V42.7852H237.418ZM234.285 36.8476C235.04 36.8476 235.646 36.7076 236.099 36.4278C236.555 36.1412 236.887 35.7116 237.094 35.1386C237.31 34.5658 237.424 33.8528 237.436 33V32.6582C237.436 31.278 237.202 30.233 236.735 29.5234C236.265 28.8072 235.45 28.4492 234.285 28.4492C233.284 28.4492 232.538 28.8334 232.051 29.6016C231.563 30.3632 231.319 31.3984 231.319 32.707C231.319 34.0156 231.563 35.0346 232.051 35.7636C232.538 36.4864 233.284 36.8476 234.285 36.8476ZM251.312 27.2969V38H249.986L249.75 36.496H249.662C249.442 36.8672 249.156 37.1796 248.805 37.4336C248.453 37.6876 248.055 37.8764 247.614 38C247.178 38.1302 246.712 38.1954 246.219 38.1954C245.373 38.1954 244.664 38.0586 244.091 37.7852C243.519 37.5118 243.085 37.0886 242.794 36.5156C242.508 35.9428 242.364 35.207 242.364 34.3086V27.2969H244.003V34.1914C244.003 35.0834 244.204 35.7506 244.608 36.1934C245.012 36.6296 245.627 36.8476 246.453 36.8476C247.246 36.8476 247.877 36.698 248.345 36.3984C248.821 36.099 249.162 35.6596 249.37 35.08C249.578 34.4942 249.682 33.778 249.682 32.9316V27.2969H251.312ZM258.854 27.1016C259.765 27.1016 260.545 27.3034 261.196 27.707C261.846 28.1106 262.345 28.677 262.689 29.4062C263.035 30.129 263.206 30.9752 263.206 31.9454V32.9512H255.821C255.839 34.2076 256.152 35.1648 256.756 35.8222C257.361 36.4798 258.213 36.8086 259.314 36.8086C259.989 36.8086 260.589 36.7468 261.108 36.623C261.628 36.4994 262.169 36.317 262.729 36.0762V37.502C262.187 37.7428 261.652 37.9186 261.118 38.0292C260.591 38.14 259.967 38.1954 259.244 38.1954C258.217 38.1954 257.319 37.987 256.552 37.5704C255.791 37.1472 255.199 36.5286 254.776 35.7148C254.352 34.901 254.142 33.905 254.142 32.7266C254.142 31.5742 254.334 30.5782 254.718 29.7382C255.107 28.892 255.655 28.2408 256.356 27.7852C257.066 27.3294 257.899 27.1016 258.854 27.1016ZM258.834 28.4296C257.969 28.4296 257.279 28.7128 256.766 29.2792C256.252 29.8458 255.947 30.6368 255.849 31.6524H261.508C261.502 31.0144 261.4 30.4544 261.206 29.9726C261.016 29.4844 260.728 29.1068 260.337 28.8398C259.947 28.5664 259.446 28.4296 258.834 28.4296ZM272.876 35.0704C272.876 35.754 272.702 36.33 272.359 36.7988C272.021 37.261 271.531 37.6094 270.894 37.8438C270.264 38.0782 269.509 38.1954 268.632 38.1954C267.882 38.1954 267.235 38.1368 266.689 38.0196C266.144 37.9024 265.664 37.7364 265.255 37.5214V36.0274C265.69 36.2422 266.212 36.4376 266.815 36.6132C267.421 36.789 268.038 36.877 268.67 36.877C269.593 36.877 270.264 36.7272 270.68 36.4278C271.096 36.1282 271.306 35.7214 271.306 35.207C271.306 34.914 271.22 34.657 271.052 34.4356C270.888 34.2076 270.612 33.9896 270.222 33.7812C269.831 33.5664 269.291 33.332 268.602 33.0782C267.918 32.8178 267.327 32.5606 266.825 32.3066C266.332 32.0462 265.948 31.7304 265.674 31.3594C265.409 30.9882 265.275 30.5066 265.275 29.914C265.275 29.0092 265.638 28.3158 266.368 27.834C267.103 27.3457 268.064 27.1016 269.255 27.1016C269.899 27.1016 270.502 27.1667 271.06 27.2969C271.627 27.4206 272.153 27.5898 272.642 27.8047L272.095 29.1036C271.653 28.9148 271.182 28.7552 270.68 28.625C270.178 28.4948 269.669 28.4296 269.147 28.4296C268.4 28.4296 267.824 28.5534 267.421 28.8008C267.025 29.0482 266.825 29.3868 266.825 29.8164C266.825 30.1484 266.917 30.4218 267.099 30.6368C267.287 30.8516 267.587 31.0534 267.996 31.2422C268.406 31.431 268.948 31.6524 269.617 31.9062C270.286 32.1536 270.866 32.4108 271.354 32.6778C271.841 32.9382 272.215 33.2572 272.475 33.6348C272.742 34.0058 272.876 34.4844 272.876 35.0704ZM278.935 36.8672C279.201 36.8672 279.475 36.8444 279.754 36.7988C280.034 36.7532 280.262 36.698 280.438 36.6328V37.8926C280.248 37.9772 279.986 38.0488 279.646 38.1074C279.315 38.166 278.991 38.1954 278.671 38.1954C278.106 38.1954 277.592 38.0976 277.131 37.9024C276.667 37.7006 276.297 37.362 276.018 36.8868C275.744 36.4114 275.608 35.754 275.608 34.914V28.5664H274.085V27.7754L275.618 27.1406L276.261 24.8164H277.237V27.2969H280.37V28.5664H277.237V34.8652C277.237 35.5358 277.39 36.0372 277.696 36.3692C278.008 36.7012 278.422 36.8672 278.935 36.8672ZM286.721 27.1016C287.632 27.1016 288.413 27.3034 289.063 27.707C289.714 28.1106 290.212 28.677 290.555 29.4062C290.901 30.129 291.073 30.9752 291.073 31.9454V32.9512H283.687C283.707 34.2076 284.019 35.1648 284.624 35.8222C285.228 36.4798 286.081 36.8086 287.18 36.8086C287.856 36.8086 288.455 36.7468 288.975 36.623C289.496 36.4994 290.036 36.317 290.595 36.0762V37.502C290.056 37.7428 289.518 37.9186 288.985 38.0292C288.459 38.14 287.834 38.1954 287.112 38.1954C286.083 38.1954 285.186 37.987 284.418 37.5704C283.657 37.1472 283.066 36.5286 282.642 35.7148C282.22 34.901 282.008 33.905 282.008 32.7266C282.008 31.5742 282.2 30.5782 282.584 29.7382C282.974 28.892 283.521 28.2408 284.223 27.7852C284.932 27.3294 285.765 27.1016 286.721 27.1016ZM286.703 28.4296C285.837 28.4296 285.148 28.7128 284.632 29.2792C284.119 29.8458 283.813 30.6368 283.715 31.6524H289.376C289.368 31.0144 289.268 30.4544 289.073 29.9726C288.885 29.4844 288.595 29.1068 288.205 28.8398C287.814 28.5664 287.314 28.4296 286.703 28.4296ZM297.629 38.1954C296.276 38.1954 295.203 37.733 294.41 36.8086C293.623 35.8842 293.229 34.5104 293.229 32.6876C293.229 30.845 293.633 29.455 294.44 28.5176C295.245 27.5736 296.318 27.1016 297.659 27.1016C298.225 27.1016 298.72 27.1764 299.142 27.3262C299.566 27.4759 299.929 27.6777 300.235 27.9316C300.541 28.179 300.799 28.4622 301.006 28.7812H301.122C301.096 28.5794 301.07 28.3028 301.044 27.9512C301.018 27.5996 301.006 27.3132 301.006 27.0918V22.8047H302.625V38H301.318L301.074 36.4766H301.006C300.805 36.7956 300.547 37.0852 300.235 37.3458C299.929 37.6062 299.562 37.8144 299.132 37.9708C298.71 38.1204 298.209 38.1954 297.629 38.1954ZM297.883 36.8476C299.028 36.8476 299.839 36.5222 300.313 35.871C300.789 35.22 301.026 34.2532 301.026 32.9708V32.6778C301.026 31.317 300.799 30.2722 300.343 29.543C299.893 28.8138 299.074 28.4492 297.883 28.4492C296.888 28.4492 296.145 28.8334 295.649 29.6016C295.155 30.3632 294.908 31.405 294.908 32.7266C294.908 34.0416 295.151 35.0572 295.639 35.7734C296.135 36.4896 296.882 36.8476 297.883 36.8476ZM320.59 34.6894H318.452V38H316.871V34.6894H309.973V33.3222L316.765 23.6445H318.452V33.2246H320.59V34.6894ZM316.871 33.2246V28.5566C316.871 28.1986 316.875 27.8763 316.881 27.5898C316.887 27.2969 316.897 27.0267 316.911 26.7793C316.923 26.5254 316.933 26.2845 316.939 26.0566C316.953 25.8288 316.963 25.6042 316.969 25.3828H316.891C316.767 25.6432 316.625 25.9199 316.461 26.2129C316.305 26.4993 316.146 26.7565 315.984 26.9844L311.583 33.2246H316.871ZM322.442 36.9844C322.442 36.5286 322.554 36.2064 322.774 36.0176C322.996 35.8222 323.266 35.7246 323.585 35.7246C323.917 35.7246 324.197 35.8222 324.425 36.0176C324.652 36.2064 324.764 36.5286 324.764 36.9844C324.764 37.4336 324.652 37.7624 324.425 37.9708C324.197 38.1726 323.917 38.2734 323.585 38.2734C323.266 38.2734 322.996 38.1726 322.774 37.9708C322.554 37.7624 322.442 37.4336 322.442 36.9844Z" fill="#F5F5F5"/>
<path d="M159.865 60H0V104H159.865V60Z" fill="#FFF1C0"/>
<path d="M26.3152 82.8419C26.3152 83.9421 26.1753 84.9447 25.8955 85.8497C25.6157 86.7481 25.1995 87.5229 24.6466 88.1739C24.1002 88.8185 23.4204 89.3165 22.6073 89.6681C21.7942 90.0197 20.851 90.1955 19.7776 90.1955C18.6718 90.1955 17.7058 90.0197 16.8797 89.6681C16.0601 89.3165 15.3771 88.8153 14.8307 88.1641C14.2908 87.5131 13.8842 86.7351 13.611 85.8301C13.3443 84.9253 13.2109 83.9227 13.2109 82.8223C13.2109 81.3641 13.4516 80.0847 13.933 78.9845C14.4144 77.8843 15.1429 77.0281 16.1186 76.4161C17.1009 75.8041 18.3303 75.4981 19.8069 75.4981C21.2185 75.4981 22.4057 75.8009 23.3684 76.4063C24.3376 77.0119 25.0694 77.8647 25.5638 78.9649C26.0646 80.0587 26.3152 81.3511 26.3152 82.8419ZM14.9575 82.8419C14.9575 84.0529 15.1299 85.1011 15.4746 85.9865C15.8194 86.8719 16.3463 87.5555 17.0553 88.0373C17.7709 88.5189 18.6783 88.7599 19.7776 88.7599C20.8835 88.7599 21.7876 88.5189 22.4902 88.0373C23.1992 87.5555 23.7229 86.8719 24.0611 85.9865C24.3994 85.1011 24.5684 84.0529 24.5684 82.8419C24.5684 80.9995 24.1816 79.5607 23.4074 78.5255C22.6399 77.4839 21.4397 76.9629 19.8069 76.9629C18.7011 76.9629 17.7904 77.2007 17.0749 77.6759C16.3593 78.1511 15.8259 78.8283 15.4746 79.7071C15.1299 80.5795 14.9575 81.6245 14.9575 82.8419ZM34.3162 79.1017C35.5845 79.1017 36.5441 79.4141 37.1946 80.0391C37.845 80.6577 38.1703 81.6537 38.1703 83.0275V90.0001H36.5701V83.1349C36.5701 82.2429 36.3653 81.5757 35.9554 81.1329C35.5521 80.6903 34.9309 80.4689 34.0918 80.4689C32.9078 80.4689 32.0753 80.8041 31.5939 81.4747C31.1125 82.1453 30.8717 83.1185 30.8717 84.3947V90.0001H29.2521V79.2969H30.5596L30.8036 80.8399H30.8913C31.1189 80.4623 31.4084 80.1465 31.7598 79.8927C32.1111 79.6323 32.5045 79.4369 32.9404 79.3067C33.3762 79.1701 33.8348 79.1017 34.3162 79.1017ZM43.1367 90.0001H41.5073V74.8047H43.1367V90.0001ZM44.8737 79.2969H46.6104L48.9718 85.5079C49.1083 85.8725 49.2352 86.2241 49.3523 86.5625C49.4694 86.8947 49.5735 87.2137 49.6644 87.5197C49.7555 87.8257 49.8271 88.1219 49.8792 88.4083H49.9474C50.0385 88.0827 50.1686 87.6563 50.3378 87.1291C50.5069 86.5951 50.6889 86.0515 50.8842 85.4981L53.1187 79.2969H54.8652L50.211 91.5723C49.9638 92.2299 49.6742 92.8029 49.3425 93.2911C49.0172 93.7793 48.6205 94.1537 48.1521 94.4141C47.6837 94.6811 47.1178 94.8145 46.4543 94.8145C46.1486 94.8145 45.8786 94.7951 45.6444 94.7559C45.4102 94.7235 45.2086 94.6843 45.0395 94.6387V93.3399C45.1826 93.3725 45.3551 93.4017 45.5567 93.4279C45.7647 93.4539 45.9795 93.4669 46.2005 93.4669C46.604 93.4669 46.9519 93.3887 47.2447 93.2325C47.5438 93.0827 47.8008 92.8615 48.0154 92.5685C48.2302 92.2755 48.4155 91.9271 48.5717 91.5235L49.157 90.0197L44.8737 79.2969ZM70.3891 90.0001H61.0416V88.6427L64.8568 84.7657C65.5658 84.0495 66.1609 83.4115 66.6423 82.8517C67.1302 82.2917 67.5009 81.7417 67.7547 81.2013C68.0083 80.6543 68.1352 80.0555 68.1352 79.4043C68.1352 78.5971 67.8946 77.9819 67.4132 77.5587C66.9382 77.1291 66.3105 76.9141 65.53 76.9141C64.847 76.9141 64.2421 77.0313 63.7151 77.2657C63.1882 77.5001 62.6482 77.8321 62.0953 78.2619L61.227 77.1681C61.6043 76.8491 62.0142 76.5659 62.4564 76.3185C62.9052 76.0711 63.3834 75.8757 63.8908 75.7325C64.4046 75.5893 64.9511 75.5177 65.53 75.5177C66.4081 75.5177 67.166 75.6707 67.8035 75.9767C68.4409 76.2827 68.9321 76.7189 69.2768 77.2853C69.6281 77.8517 69.8038 78.5255 69.8038 79.3067C69.8038 80.0619 69.6541 80.7651 69.355 81.4161C69.0556 82.0607 68.6362 82.7019 68.0962 83.3399C67.5563 83.9715 66.9252 84.6421 66.2032 85.3517L63.1005 88.4473V88.5157H70.3891V90.0001ZM82.4883 75.7227C83.6593 75.7227 84.6253 75.8693 85.3862 76.1623C86.1538 76.4487 86.7263 76.8881 87.1036 77.4805C87.4808 78.0731 87.6695 78.8283 87.6695 79.7461C87.6695 80.5015 87.5328 81.1329 87.2596 81.6407C86.9865 82.1421 86.6288 82.5489 86.1863 82.8615C85.7441 83.1739 85.2723 83.4149 84.7715 83.5841L88.6842 90.0001H86.7523L83.2592 84.0431H80.2929V90.0001H78.6341V75.7227H82.4883ZM82.3907 77.1583H80.2929V82.6369H82.5566C83.721 82.6369 84.5763 82.3991 85.1228 81.9239C85.6758 81.4487 85.9521 80.7487 85.9521 79.8243C85.9521 78.8543 85.6594 78.1675 85.0741 77.7637C84.4952 77.3601 83.6007 77.1583 82.3907 77.1583ZM94.8412 79.1017C95.7518 79.1017 96.5324 79.3035 97.1828 79.7071C97.8335 80.1107 98.3311 80.6771 98.6758 81.4063C99.0205 82.1291 99.1929 82.9753 99.1929 83.9455V84.9513H91.8066C91.8262 86.2077 92.1383 87.1649 92.7434 87.8223C93.3483 88.4799 94.2004 88.8087 95.2998 88.8087C95.9762 88.8087 96.5747 88.7469 97.0951 88.6231C97.6155 88.4995 98.1554 88.3171 98.7147 88.0763V89.5021C98.175 89.7429 97.6382 89.9187 97.1049 90.0293C96.5779 90.1401 95.9535 90.1955 95.2315 90.1955C94.2038 90.1955 93.3059 89.9871 92.5384 89.5705C91.7774 89.1473 91.1853 88.5287 90.7625 87.7149C90.3398 86.9011 90.1284 85.9051 90.1284 84.7267C90.1284 83.5743 90.3202 82.5783 90.7039 81.7383C91.0944 80.8921 91.6407 80.2409 92.3433 79.7853C93.0523 79.3295 93.8848 79.1017 94.8412 79.1017ZM94.8216 80.4297C93.9566 80.4297 93.2669 80.7129 92.753 81.2793C92.2392 81.8459 91.9335 82.6369 91.836 83.6525H97.4952C97.4886 83.0145 97.3879 82.4545 97.1926 81.9727C97.004 81.4845 96.7146 81.1069 96.3242 80.8399C95.9339 80.5665 95.4331 80.4297 94.8216 80.4297ZM113.556 79.1017C114.733 79.1017 115.621 79.4109 116.22 80.0293C116.818 80.6413 117.117 81.6277 117.117 82.9883V90.0001H115.517V83.0665C115.517 82.2007 115.328 81.5529 114.951 81.1231C114.58 80.6869 114.027 80.4689 113.292 80.4689C112.258 80.4689 111.507 80.7683 111.038 81.3673C110.57 81.9663 110.336 82.8485 110.336 84.0137V90.0001H108.726V83.0665C108.726 82.4871 108.641 82.0053 108.472 81.6211C108.31 81.2371 108.062 80.9507 107.731 80.7619C107.405 80.5665 106.992 80.4689 106.491 80.4689C105.782 80.4689 105.213 80.6153 104.784 80.9083C104.355 81.2013 104.042 81.6375 103.847 82.2169C103.659 82.7899 103.564 83.4961 103.564 84.3361V90.0001H101.944V79.2969H103.252L103.496 80.8107H103.584C103.798 80.4395 104.068 80.1271 104.394 79.8731C104.719 79.6193 105.083 79.4271 105.486 79.2969C105.89 79.1667 106.319 79.1017 106.774 79.1017C107.587 79.1017 108.267 79.2547 108.814 79.5607C109.367 79.8601 109.767 80.3191 110.014 80.9377H110.102C110.453 80.3191 110.934 79.8601 111.546 79.5607C112.157 79.2547 112.827 79.1017 113.556 79.1017ZM124.445 79.1211C125.72 79.1211 126.667 79.4077 127.284 79.9805C127.902 80.5535 128.211 81.4681 128.211 82.7247V90.0001H127.031L126.718 88.4181H126.64C126.341 88.8087 126.029 89.1375 125.704 89.4043C125.378 89.6649 125.001 89.8633 124.572 90.0001C124.149 90.1303 123.629 90.1955 123.011 90.1955C122.36 90.1955 121.781 90.0815 121.274 89.8537C120.773 89.6257 120.376 89.2807 120.083 88.8185C119.797 88.3563 119.654 87.7703 119.654 87.0607C119.654 85.9929 120.077 85.1727 120.923 84.5997C121.768 84.0267 123.056 83.7143 124.786 83.6623L126.631 83.5841V82.9297C126.631 82.0053 126.432 81.3575 126.035 80.9865C125.639 80.6153 125.079 80.4297 124.357 80.4297C123.798 80.4297 123.264 80.5111 122.757 80.6739C122.25 80.8367 121.768 81.0287 121.313 81.2501L120.815 80.0197C121.297 79.7723 121.85 79.5607 122.474 79.3849C123.099 79.2091 123.756 79.1211 124.445 79.1211ZM126.611 84.7267L124.982 84.7951C123.648 84.8471 122.708 85.0653 122.162 85.4493C121.615 85.8335 121.342 86.3771 121.342 87.0801C121.342 87.6921 121.528 88.1447 121.898 88.4377C122.269 88.7305 122.76 88.8771 123.372 88.8771C124.321 88.8771 125.099 88.6133 125.704 88.0861C126.309 87.5587 126.611 86.7677 126.611 85.7129V84.7267ZM133.168 79.2969V90.0001H131.548V79.2969H133.168ZM132.378 75.2931C132.644 75.2931 132.872 75.3809 133.061 75.5567C133.256 75.7261 133.353 75.9929 133.353 76.3575C133.353 76.7155 133.256 76.9825 133.061 77.1583C132.872 77.3341 132.644 77.4219 132.378 77.4219C132.098 77.4219 131.864 77.3341 131.675 77.1583C131.493 76.9825 131.402 76.7155 131.402 76.3575C131.402 75.9929 131.493 75.7261 131.675 75.5567C131.864 75.3809 132.098 75.2931 132.378 75.2931ZM141.667 79.1017C142.935 79.1017 143.895 79.4141 144.545 80.0391C145.196 80.6577 145.521 81.6537 145.521 83.0275V90.0001H143.921V83.1349C143.921 82.2429 143.716 81.5757 143.306 81.1329C142.903 80.6903 142.281 80.4689 141.442 80.4689C140.258 80.4689 139.426 80.8041 138.945 81.4747C138.463 82.1453 138.222 83.1185 138.222 84.3947V90.0001H136.603V79.2969H137.91L138.154 80.8399H138.242C138.47 80.4623 138.759 80.1465 139.11 79.8927C139.462 79.6323 139.855 79.4369 140.291 79.3067C140.727 79.1701 141.185 79.1017 141.667 79.1017Z" fill="#AB7221"/>
</svg>
