<svg width="20" height="20" viewBox="0 0 20 20" fill="none" xmlns="http://www.w3.org/2000/svg">
<path d="M10.7812 2.11636L12.7812 3.61636C12.9062 3.71011 13 3.83511 13 3.99136C13 4.14761 12.9062 4.30386 12.7812 4.39761L10.7812 5.89761C10.5625 6.08511 10.25 6.02261 10.0938 5.80386C9.90625 5.58511 9.96875 5.27261 10.1875 5.11636L11 4.49136H5.5C4.09375 4.49136 3 5.61636 3 6.99136C3 8.39761 4.09375 9.49136 5.5 9.49136H14.5C16.4062 9.49136 18 11.0851 18 12.9914C18 14.7726 16.6562 16.2726 14.9375 16.4914C14.7188 17.3664 13.9375 17.9914 13 17.9914C11.875 17.9914 11 17.1164 11 15.9914C11 14.8976 11.875 13.9914 13 13.9914C13.9062 13.9914 14.6875 14.6164 14.9062 15.4601C16.0938 15.2726 17 14.2414 17 12.9914C17 11.6164 15.875 10.4914 14.5 10.4914H5.5C3.5625 10.4914 2 8.92886 2 6.99136C2 5.08511 3.5625 3.49136 5.5 3.49136H11L10.1875 2.89761C9.96875 2.74136 9.90625 2.42886 10.0938 2.21011C10.25 1.99136 10.5625 1.92886 10.7812 2.11636ZM12.9688 16.9914C13.5312 17.0226 13.9688 16.5539 13.9688 16.0226C13.9688 15.4601 13.5312 15.0226 13 14.9914C12.4375 14.9914 11.9688 15.4601 11.9688 15.9914C11.9688 16.5539 12.4375 16.9914 12.9688 16.9914ZM16 2.99136C15.4375 2.99136 15 3.46011 15 3.99136C15 4.55386 15.4375 4.99136 16 4.99136C16.5312 4.99136 17 4.55386 17 3.99136C17 3.46011 16.5312 2.99136 16 2.99136ZM16 5.99136C15.2812 5.99136 14.625 5.61636 14.25 4.99136C13.9062 4.39761 13.9062 3.61636 14.25 2.99136C14.625 2.39761 15.2812 1.99136 16 1.99136C16.6875 1.99136 17.3438 2.39761 17.7188 2.99136C18.0625 3.61636 18.0625 4.39761 17.7188 4.99136C17.3438 5.61636 16.6875 5.99136 16 5.99136ZM5.9375 15.4914H8L7.1875 14.8976C6.96875 14.7414 6.90625 14.4289 7.09375 14.2101C7.25 13.9914 7.5625 13.9289 7.78125 14.1164L9.78125 15.6164C9.90625 15.7101 10 15.8351 10 15.9914C10 16.1476 9.90625 16.3039 9.78125 16.3976L7.78125 17.8976C7.5625 18.0851 7.25 18.0226 7.09375 17.8039C6.90625 17.5851 6.96875 17.2726 7.1875 17.1164L8 16.4914H5.9375C5.6875 17.3664 4.90625 17.9914 4 17.9914C2.875 17.9914 2 17.1164 2 15.9914C2 14.8976 2.875 13.9914 4 13.9914C4.90625 13.9914 5.6875 14.6476 5.9375 15.4914ZM3 15.9914C3 16.5539 3.4375 16.9914 4 16.9914C4.53125 16.9914 5 16.5539 5 15.9914C5 15.4601 4.53125 14.9914 4 14.9914C3.4375 14.9914 3 15.4601 3 15.9914Z" fill="#FA4D4D"/>
</svg>
