<svg width="16" height="22" viewBox="0 0 16 22" fill="none" xmlns="http://www.w3.org/2000/svg">
<path d="M3.1875 2.0625C2.80078 2.0625 2.5 2.40625 2.5 2.75V19.25C2.5 19.6367 2.80078 19.9375 3.1875 19.9375H12.8125C13.1562 19.9375 13.5 19.6367 13.5 19.25V2.75C13.5 2.40625 13.1562 2.0625 12.8125 2.0625H3.1875ZM0.4375 2.75C0.4375 1.24609 1.64062 0 3.1875 0H12.8125C14.3164 0 15.5625 1.24609 15.5625 2.75V19.25C15.5625 20.7969 14.3164 22 12.8125 22H3.1875C1.64062 22 0.4375 20.7969 0.4375 19.25V2.75ZM6.625 17.1875H9.375C9.71875 17.1875 10.0625 17.5312 10.0625 17.875C10.0625 18.2617 9.71875 18.5625 9.375 18.5625H6.625C6.23828 18.5625 5.9375 18.2617 5.9375 17.875C5.9375 17.5312 6.23828 17.1875 6.625 17.1875Z" fill="#D6BFAF"/>
</svg>
