<svg width="24" height="22" viewBox="0 0 24 22" fill="none" xmlns="http://www.w3.org/2000/svg">
<path d="M7.1875 2.0625C6.80078 2.0625 6.5 2.40625 6.5 2.75V19.25C6.5 19.6367 6.80078 19.9375 7.1875 19.9375H16.8125C17.1562 19.9375 17.5 19.6367 17.5 19.25V2.75C17.5 2.40625 17.1562 2.0625 16.8125 2.0625H7.1875ZM4.4375 2.75C4.4375 1.24609 5.64062 0 7.1875 0H16.8125C18.3164 0 19.5625 1.24609 19.5625 2.75V19.25C19.5625 20.7969 18.3164 22 16.8125 22H7.1875C5.64062 22 4.4375 20.7969 4.4375 19.25V2.75ZM10.625 17.1875H13.375C13.7188 17.1875 14.0625 17.5312 14.0625 17.875C14.0625 18.2617 13.7188 18.5625 13.375 18.5625H10.625C10.2383 18.5625 9.9375 18.2617 9.9375 17.875C9.9375 17.5312 10.2383 17.1875 10.625 17.1875Z" fill="#D6BFAF"/>
</svg>
