<svg width="24" height="24" viewBox="0 0 24 24" fill="none" xmlns="http://www.w3.org/2000/svg">
<path d="M8.49576 7.06931L9.34838 9.11561C9.49759 9.45666 9.41233 9.86165 9.11391 10.0961L8.06945 10.9701C8.77286 12.4621 9.98785 13.6772 11.4799 14.3806L12.3538 13.3361C12.5884 13.0376 12.9934 12.9524 13.3344 13.1017L15.3807 13.9542C15.7857 14.1034 15.9775 14.5511 15.8709 14.9561L15.3594 16.8318C15.2528 17.1943 14.9331 17.45 14.5494 17.45C9.26312 17.45 5 13.1869 5 7.90062C5 7.51693 5.25579 7.1972 5.61815 7.09063L7.49393 6.57905C7.89892 6.47247 8.34655 6.66431 8.49576 7.06931Z" fill="black"/>
</svg>
