<svg width="24" height="24" viewBox="0 0 24 24" fill="none" xmlns="http://www.w3.org/2000/svg">
<rect x="0.5" y="0.5" width="23" height="23" rx="3.5" fill="white" fill-opacity="0.37"/>
<rect x="0.5" y="0.5" width="23" height="23" rx="3.5" stroke="#E6DCD3"/>
<path d="M14.5062 12.4092L16.8638 13.4196C17.2427 13.5669 17.4532 13.9668 17.369 14.3668L16.8638 16.7244C16.7796 17.1033 16.4218 17.398 16.0429 17.398C15.8955 17.398 15.7692 17.3769 15.6429 17.3769C15.4324 17.3769 15.2219 17.3559 15.0325 17.3348C10.2963 16.8296 6.61255 12.8302 6.61255 7.9466C6.61255 7.56771 6.8862 7.20986 7.26509 7.12566L9.62267 6.62046C10.0226 6.53627 10.4226 6.74676 10.5699 7.12566L11.5803 9.48324C11.7277 9.82004 11.6435 10.22 11.3488 10.4515L10.4857 11.1672C11.0541 12.1355 11.854 12.9354 12.8222 13.5038L13.5379 12.6407C13.7695 12.346 14.1694 12.2618 14.5062 12.4092ZM15.8955 16.3665L16.3376 14.2826L14.2326 13.3775L13.6221 14.1352C13.3064 14.5141 12.7591 14.6194 12.317 14.3668C11.2014 13.7142 10.2752 12.7881 9.62267 11.6724C9.37007 11.2304 9.47532 10.6831 9.85422 10.3673L10.612 9.75689L9.70687 7.65191L7.62294 8.09395C7.68609 12.6407 11.3488 16.3034 15.8955 16.3665Z" fill="#7A6759"/>
</svg>
