<svg width="24" height="24" viewBox="0 0 24 24" fill="none" xmlns="http://www.w3.org/2000/svg">
<path d="M8.97041 6.39982L9.9388 8.72397C10.1083 9.11132 10.0114 9.57131 9.6725 9.83761L8.48621 10.8302C9.28514 12.5249 10.6651 13.9049 12.3598 14.7038L13.3523 13.5175C13.6187 13.1785 14.0787 13.0817 14.4661 13.2513L16.7902 14.2195C17.2502 14.389 17.468 14.8975 17.347 15.3574L16.7659 17.4879C16.6449 17.8995 16.2818 18.19 15.846 18.19C9.84196 18.19 5 13.348 5 7.344C5 6.90822 5.29052 6.54508 5.70209 6.42404L7.83255 5.843C8.29254 5.72195 8.80094 5.93983 8.97041 6.39982Z" fill="black"/>
</svg>
