<svg width="474" height="103" viewBox="0 0 474 103" fill="none" xmlns="http://www.w3.org/2000/svg">
<rect width="473.336" height="103" fill="white"/>
<rect x="9.00781" y="34" width="286" height="8" rx="4" fill="url(#paint0_linear_360_5925)"/>
<rect x="298.008" y="34" width="163" height="8" rx="4" fill="#DADADA"/>
<rect x="55.2969" y="27.5" width="20" height="20" rx="10" fill="#9A6CF7"/>
<path d="M40.187 77.5L36.6924 67.3647H36.6177C36.6343 67.5916 36.6536 67.9015 36.6758 68.2944C36.6979 68.6873 36.7173 69.1079 36.7339 69.5562C36.7505 70.0044 36.7588 70.4333 36.7588 70.8428V77.5H34.9492V65.3643H37.7466L41.1084 75.0513H41.1582L44.6362 65.3643H47.4253V77.5H45.5244V70.7432C45.5244 70.3724 45.5299 69.9712 45.541 69.5396C45.5576 69.1079 45.5742 68.6984 45.5908 68.311C45.613 67.9237 45.6296 67.6138 45.6406 67.3813H45.5742L41.9468 77.5H40.187ZM49.0356 68.311H51.1606L53.0449 73.5571C53.1279 73.7951 53.2026 74.0303 53.269 74.2627C53.341 74.4896 53.4019 74.7137 53.4517 74.9351C53.507 75.1564 53.5513 75.3778 53.5845 75.5991H53.6343C53.6896 75.3114 53.7671 74.9904 53.8667 74.6362C53.9718 74.2765 54.0881 73.9168 54.2153 73.5571L56.0249 68.311H58.125L54.1821 78.7617C53.9552 79.3594 53.6758 79.8685 53.3438 80.2891C53.0173 80.7152 52.6299 81.0361 52.1816 81.252C51.7334 81.4733 51.2215 81.584 50.646 81.584C50.3693 81.584 50.1286 81.5674 49.9238 81.5342C49.7191 81.5065 49.5448 81.4761 49.4009 81.4429V79.8823C49.5171 79.91 49.6637 79.9349 49.8408 79.957C50.0179 79.9792 50.2005 79.9902 50.3887 79.9902C50.7373 79.9902 51.0389 79.9211 51.2935 79.7827C51.548 79.6444 51.7638 79.4479 51.9409 79.1934C52.118 78.9443 52.2646 78.6593 52.3809 78.3384L52.7046 77.4751L49.0356 68.311ZM69.3062 66.8833C68.7251 66.8833 68.2049 66.9884 67.7456 67.1987C67.2918 67.409 66.9072 67.7134 66.5918 68.1118C66.2764 68.5047 66.0356 68.9834 65.8696 69.5479C65.7036 70.1068 65.6206 70.7376 65.6206 71.4404C65.6206 72.3812 65.7534 73.1919 66.019 73.8726C66.2847 74.5477 66.6886 75.0679 67.231 75.4331C67.7733 75.7928 68.4595 75.9727 69.2896 75.9727C69.8042 75.9727 70.305 75.9229 70.792 75.8232C71.279 75.7236 71.7826 75.5881 72.3027 75.4165V77.1099C71.8102 77.3035 71.3122 77.4447 70.8086 77.5332C70.305 77.6217 69.724 77.666 69.0654 77.666C67.8258 77.666 66.7965 77.4087 65.9775 76.894C65.1641 76.3794 64.5553 75.6545 64.1514 74.7192C63.7529 73.784 63.5537 72.6883 63.5537 71.4321C63.5537 70.5135 63.681 69.6724 63.9355 68.9087C64.1901 68.145 64.5609 67.4865 65.0479 66.9331C65.5348 66.3742 66.1353 65.9453 66.8491 65.6465C67.5685 65.3421 68.3903 65.1899 69.3145 65.1899C69.9232 65.1899 70.5208 65.2591 71.1074 65.3975C71.6995 65.5303 72.2474 65.7212 72.751 65.9702L72.0537 67.6138C71.6331 67.4146 71.1932 67.243 70.7339 67.0991C70.2746 66.9552 69.7987 66.8833 69.3062 66.8833ZM78.3125 68.1367C79.4746 68.1367 80.3517 68.394 80.9438 68.9087C81.5415 69.4233 81.8403 70.2257 81.8403 71.3159V77.5H80.4541L80.0806 76.1968H80.0142C79.7541 76.5288 79.4857 76.8027 79.209 77.0186C78.9323 77.2344 78.6113 77.3949 78.2461 77.5C77.8864 77.6107 77.4465 77.666 76.9263 77.666C76.3784 77.666 75.8887 77.5664 75.457 77.3672C75.0254 77.1624 74.6851 76.8525 74.436 76.4375C74.187 76.0225 74.0625 75.4967 74.0625 74.8604C74.0625 73.9141 74.4139 73.203 75.1167 72.7271C75.825 72.2511 76.8931 71.9883 78.3208 71.9385L79.9146 71.8804V71.3989C79.9146 70.7625 79.7651 70.3088 79.4663 70.0376C79.173 69.7664 78.758 69.6309 78.2212 69.6309C77.7619 69.6309 77.3164 69.6973 76.8848 69.8301C76.4531 69.9629 76.0326 70.1261 75.623 70.3198L74.9922 68.9419C75.4404 68.7039 75.9495 68.5103 76.5195 68.3608C77.0951 68.2114 77.6927 68.1367 78.3125 68.1367ZM79.9062 73.1089L78.7192 73.1504C77.7453 73.1836 77.0618 73.3496 76.6689 73.6484C76.276 73.9473 76.0796 74.3568 76.0796 74.877C76.0796 75.3307 76.2152 75.6628 76.4863 75.873C76.7575 76.0778 77.1144 76.1802 77.5571 76.1802C78.2323 76.1802 78.7912 75.9893 79.2339 75.6074C79.6821 75.2201 79.9062 74.6528 79.9062 73.9058V73.1089ZM89.228 68.1367C89.383 68.1367 89.5518 68.145 89.7344 68.1616C89.917 68.1782 90.0747 68.2004 90.2075 68.228L90.0249 70.0542C89.9087 70.021 89.7648 69.9961 89.5933 69.9795C89.4272 69.9629 89.2778 69.9546 89.145 69.9546C88.7964 69.9546 88.4644 70.0127 88.1489 70.1289C87.8335 70.2396 87.554 70.4111 87.3105 70.6436C87.0671 70.8704 86.8761 71.1554 86.7378 71.4985C86.5994 71.8416 86.5303 72.2401 86.5303 72.6938V77.5H84.5713V68.311H86.0986L86.3643 69.9297H86.4556C86.6382 69.6032 86.8651 69.3044 87.1362 69.0332C87.4074 68.762 87.7173 68.5462 88.0659 68.3857C88.4201 68.2197 88.8075 68.1367 89.228 68.1367ZM95.3291 76.0889C95.5837 76.0889 95.8354 76.0667 96.0845 76.0225C96.3335 75.9727 96.5604 75.9146 96.7651 75.8481V77.3257C96.5493 77.4198 96.2699 77.5 95.9268 77.5664C95.5837 77.6328 95.2267 77.666 94.856 77.666C94.3358 77.666 93.8682 77.5802 93.4531 77.4087C93.0381 77.2316 92.7088 76.93 92.4653 76.5039C92.2218 76.0778 92.1001 75.4884 92.1001 74.7358V69.7969H90.8467V68.9253L92.1914 68.2363L92.8306 66.269H94.0591V68.311H96.6904V69.7969H94.0591V74.7109C94.0591 75.1758 94.1753 75.5216 94.4077 75.7485C94.6401 75.9754 94.9473 76.0889 95.3291 76.0889Z" fill="#8750F7"/>
<rect x="169.547" y="27.5" width="20" height="20" rx="10" fill="#7746D7"/>
<path d="M152.611 74.1963C152.611 74.9157 152.434 75.5355 152.08 76.0557C151.731 76.5758 151.227 76.9743 150.569 77.251C149.916 77.5277 149.136 77.666 148.228 77.666C147.785 77.666 147.362 77.6411 146.958 77.5913C146.554 77.5415 146.172 77.4696 145.812 77.3755C145.458 77.2759 145.135 77.1569 144.841 77.0186V75.1426C145.334 75.3584 145.884 75.5549 146.493 75.7319C147.102 75.9035 147.722 75.9893 148.353 75.9893C148.867 75.9893 149.293 75.9229 149.631 75.79C149.974 75.6517 150.229 75.458 150.395 75.209C150.561 74.9544 150.644 74.6584 150.644 74.3208C150.644 73.9611 150.547 73.6567 150.353 73.4077C150.159 73.1587 149.866 72.9318 149.473 72.7271C149.086 72.5168 148.599 72.2926 148.012 72.0547C147.614 71.8942 147.232 71.7116 146.867 71.5068C146.507 71.3021 146.186 71.0614 145.904 70.7847C145.622 70.508 145.397 70.1815 145.231 69.8052C145.071 69.4233 144.991 68.9751 144.991 68.4604C144.991 67.7743 145.154 67.1877 145.48 66.7007C145.812 66.2137 146.277 65.8402 146.875 65.5801C147.478 65.32 148.181 65.1899 148.983 65.1899C149.62 65.1899 150.217 65.2563 150.776 65.3892C151.341 65.522 151.894 65.7101 152.437 65.9536L151.806 67.5557C151.308 67.3509 150.823 67.1877 150.353 67.0659C149.888 66.9442 149.412 66.8833 148.925 66.8833C148.505 66.8833 148.148 66.9469 147.854 67.0742C147.561 67.2015 147.337 67.3813 147.182 67.6138C147.033 67.8407 146.958 68.1118 146.958 68.4272C146.958 68.7814 147.044 69.0802 147.215 69.3237C147.392 69.5617 147.664 69.7803 148.029 69.9795C148.4 70.1787 148.875 70.4001 149.457 70.6436C150.126 70.9202 150.693 71.2108 151.158 71.5151C151.629 71.8195 151.988 72.1847 152.237 72.6108C152.486 73.0314 152.611 73.5599 152.611 74.1963ZM156.703 64.584V67.8296C156.703 68.1672 156.692 68.4964 156.67 68.8174C156.653 69.1383 156.634 69.3874 156.612 69.5645H156.72C156.913 69.2435 157.151 68.9806 157.434 68.7759C157.716 68.5656 158.031 68.4079 158.38 68.3027C158.734 68.1976 159.11 68.145 159.509 68.145C160.212 68.145 160.809 68.264 161.302 68.502C161.794 68.7344 162.171 69.0968 162.431 69.5894C162.696 70.0819 162.829 70.721 162.829 71.5068V77.5H160.878V71.8721C160.878 71.1582 160.732 70.6242 160.438 70.27C160.145 69.9103 159.691 69.7305 159.077 69.7305C158.485 69.7305 158.015 69.855 157.666 70.104C157.323 70.3475 157.077 70.71 156.927 71.1914C156.778 71.6673 156.703 72.2484 156.703 72.9346V77.5H154.752V64.584H156.703ZM167.511 68.311V77.5H165.56V68.311H167.511ZM166.548 64.7915C166.847 64.7915 167.104 64.8717 167.32 65.0322C167.541 65.1927 167.652 65.4694 167.652 65.8623C167.652 66.2497 167.541 66.5264 167.32 66.6924C167.104 66.8529 166.847 66.9331 166.548 66.9331C166.238 66.9331 165.975 66.8529 165.759 66.6924C165.549 66.5264 165.444 66.2497 165.444 65.8623C165.444 65.4694 165.549 65.1927 165.759 65.0322C165.975 64.8717 166.238 64.7915 166.548 64.7915ZM175.023 68.1367C176.113 68.1367 176.987 68.5352 177.646 69.332C178.31 70.1289 178.642 71.3132 178.642 72.8848C178.642 73.9251 178.487 74.8022 178.177 75.5161C177.873 76.2244 177.444 76.7612 176.891 77.1265C176.343 77.4862 175.704 77.666 174.973 77.666C174.508 77.666 174.104 77.6051 173.761 77.4834C173.418 77.3617 173.125 77.2039 172.881 77.0103C172.638 76.811 172.433 76.5952 172.267 76.3628H172.151C172.179 76.5841 172.203 76.8304 172.226 77.1016C172.253 77.3672 172.267 77.6107 172.267 77.832V81.5757H170.308V68.311H171.902L172.176 69.5811H172.267C172.439 69.321 172.646 69.0802 172.89 68.8589C173.139 68.6375 173.438 68.4632 173.786 68.3359C174.14 68.2031 174.553 68.1367 175.023 68.1367ZM174.5 69.7305C173.963 69.7305 173.532 69.8384 173.205 70.0542C172.884 70.2645 172.649 70.5827 172.5 71.0088C172.356 71.4349 172.278 71.9689 172.267 72.6108V72.8848C172.267 73.5654 172.336 74.1437 172.475 74.6196C172.618 75.09 172.854 75.4497 173.18 75.6987C173.512 75.9422 173.96 76.064 174.525 76.064C175.001 76.064 175.394 75.9339 175.704 75.6738C176.019 75.4137 176.254 75.043 176.409 74.5615C176.564 74.0801 176.642 73.5129 176.642 72.8599C176.642 71.8693 176.465 71.1001 176.11 70.5522C175.762 70.0044 175.225 69.7305 174.5 69.7305ZM185.615 68.1367C186.705 68.1367 187.579 68.5352 188.238 69.332C188.902 70.1289 189.234 71.3132 189.234 72.8848C189.234 73.9251 189.079 74.8022 188.769 75.5161C188.465 76.2244 188.036 76.7612 187.482 77.1265C186.935 77.4862 186.295 77.666 185.565 77.666C185.1 77.666 184.696 77.6051 184.353 77.4834C184.01 77.3617 183.717 77.2039 183.473 77.0103C183.23 76.811 183.025 76.5952 182.859 76.3628H182.743C182.77 76.5841 182.795 76.8304 182.817 77.1016C182.845 77.3672 182.859 77.6107 182.859 77.832V81.5757H180.9V68.311H182.494L182.768 69.5811H182.859C183.03 69.321 183.238 69.0802 183.481 68.8589C183.73 68.6375 184.029 68.4632 184.378 68.3359C184.732 68.2031 185.144 68.1367 185.615 68.1367ZM185.092 69.7305C184.555 69.7305 184.123 69.8384 183.797 70.0542C183.476 70.2645 183.241 70.5827 183.091 71.0088C182.947 71.4349 182.87 71.9689 182.859 72.6108V72.8848C182.859 73.5654 182.928 74.1437 183.066 74.6196C183.21 75.09 183.445 75.4497 183.772 75.6987C184.104 75.9422 184.552 76.064 185.117 76.064C185.593 76.064 185.986 75.9339 186.295 75.6738C186.611 75.4137 186.846 75.043 187.001 74.5615C187.156 74.0801 187.233 73.5129 187.233 72.8599C187.233 71.8693 187.056 71.1001 186.702 70.5522C186.354 70.0044 185.817 69.7305 185.092 69.7305ZM193.442 68.311V77.5H191.492V68.311H193.442ZM192.479 64.7915C192.778 64.7915 193.036 64.8717 193.251 65.0322C193.473 65.1927 193.583 65.4694 193.583 65.8623C193.583 66.2497 193.473 66.5264 193.251 66.6924C193.036 66.8529 192.778 66.9331 192.479 66.9331C192.17 66.9331 191.907 66.8529 191.691 66.6924C191.481 66.5264 191.375 66.2497 191.375 65.8623C191.375 65.4694 191.481 65.1927 191.691 65.0322C191.907 64.8717 192.17 64.7915 192.479 64.7915ZM201.029 68.1367C202.064 68.1367 202.869 68.4051 203.445 68.9419C204.026 69.4731 204.316 70.3281 204.316 71.5068V77.5H202.366V71.8721C202.366 71.1582 202.219 70.6242 201.926 70.27C201.632 69.9103 201.179 69.7305 200.564 69.7305C199.674 69.7305 199.054 70.0044 198.705 70.5522C198.362 71.1001 198.19 71.8942 198.19 72.9346V77.5H196.24V68.311H197.759L198.033 69.5562H198.141C198.34 69.2352 198.586 68.9723 198.879 68.7676C199.178 68.5573 199.51 68.3996 199.875 68.2944C200.246 68.1893 200.631 68.1367 201.029 68.1367ZM209.67 81.584C208.425 81.584 207.471 81.3599 206.807 80.9116C206.143 80.4634 205.811 79.8353 205.811 79.0273C205.811 78.4629 205.988 77.9842 206.342 77.5913C206.696 77.2039 207.202 76.9355 207.861 76.7861C207.612 76.6755 207.396 76.5039 207.213 76.2715C207.036 76.0335 206.948 75.7707 206.948 75.4829C206.948 75.1398 207.045 74.8465 207.238 74.603C207.432 74.3595 207.722 74.1243 208.11 73.8975C207.628 73.6927 207.241 73.3607 206.948 72.9014C206.66 72.4365 206.516 71.8914 206.516 71.2661C206.516 70.6021 206.657 70.0376 206.939 69.5728C207.222 69.1024 207.634 68.7454 208.176 68.502C208.719 68.2529 209.374 68.1284 210.144 68.1284C210.31 68.1284 210.489 68.1395 210.683 68.1616C210.882 68.1782 211.065 68.2004 211.231 68.228C211.403 68.2502 211.533 68.2751 211.621 68.3027H214.8V69.3901L213.24 69.6807C213.389 69.891 213.508 70.1317 213.597 70.4028C213.685 70.6685 213.729 70.959 213.729 71.2744C213.729 72.2262 213.4 72.9761 212.742 73.5239C212.089 74.0662 211.187 74.3374 210.036 74.3374C209.759 74.3263 209.491 74.3042 209.23 74.271C209.031 74.3927 208.879 74.5283 208.774 74.6777C208.669 74.8216 208.616 74.9849 208.616 75.1675C208.616 75.3169 208.669 75.4386 208.774 75.5327C208.879 75.6213 209.034 75.6877 209.239 75.7319C209.449 75.7762 209.704 75.7983 210.002 75.7983H211.588C212.595 75.7983 213.364 76.0114 213.896 76.4375C214.427 76.8636 214.692 77.4889 214.692 78.3135C214.692 79.3594 214.261 80.1646 213.397 80.729C212.534 81.299 211.292 81.584 209.67 81.584ZM209.745 80.2144C210.426 80.2144 210.999 80.1479 211.463 80.0151C211.928 79.8823 212.28 79.6914 212.518 79.4424C212.756 79.1989 212.875 78.9084 212.875 78.5708C212.875 78.272 212.8 78.0423 212.65 77.8818C212.501 77.7214 212.277 77.6107 211.978 77.5498C211.679 77.4889 211.308 77.4585 210.866 77.4585H209.421C209.062 77.4585 208.743 77.5138 208.467 77.6245C208.19 77.7407 207.974 77.9067 207.819 78.1226C207.67 78.3384 207.595 78.5985 207.595 78.9028C207.595 79.3234 207.781 79.6471 208.151 79.874C208.528 80.1009 209.059 80.2144 209.745 80.2144ZM210.127 73.0591C210.697 73.0591 211.12 72.9041 211.397 72.5942C211.674 72.2788 211.812 71.8361 211.812 71.2661C211.812 70.6463 211.668 70.1815 211.38 69.8716C211.098 69.5617 210.678 69.4067 210.119 69.4067C209.571 69.4067 209.153 69.5645 208.865 69.8799C208.583 70.1953 208.442 70.6629 208.442 71.2827C208.442 71.8416 208.583 72.2788 208.865 72.5942C209.153 72.9041 209.574 73.0591 210.127 73.0591Z" fill="#7746D7"/>
<rect x="283.797" y="27.5" width="20" height="20" rx="10" fill="#432990"/>
<path d="M262.437 65.3643C264.003 65.3643 265.145 65.6852 265.865 66.3271C266.584 66.9691 266.944 67.8683 266.944 69.0249C266.944 69.5506 266.861 70.0514 266.695 70.5273C266.534 70.9977 266.269 71.4155 265.898 71.7808C265.527 72.1405 265.037 72.4255 264.429 72.6357C263.826 72.846 263.081 72.9512 262.196 72.9512H260.901V77.5H258.909V65.3643H262.437ZM262.304 67.0161H260.901V71.291H261.988C262.614 71.291 263.145 71.2191 263.582 71.0752C264.019 70.9258 264.351 70.6906 264.578 70.3696C264.805 70.0487 264.918 69.6253 264.918 69.0996C264.918 68.3968 264.705 67.8739 264.279 67.5308C263.859 67.1877 263.2 67.0161 262.304 67.0161ZM272.771 68.1367C273.933 68.1367 274.81 68.394 275.402 68.9087C276 69.4233 276.299 70.2257 276.299 71.3159V77.5H274.913L274.539 76.1968H274.473C274.213 76.5288 273.944 76.8027 273.667 77.0186C273.391 77.2344 273.07 77.3949 272.705 77.5C272.345 77.6107 271.905 77.666 271.385 77.666C270.837 77.666 270.347 77.5664 269.916 77.3672C269.484 77.1624 269.144 76.8525 268.895 76.4375C268.646 76.0225 268.521 75.4967 268.521 74.8604C268.521 73.9141 268.872 73.203 269.575 72.7271C270.284 72.2511 271.352 71.9883 272.779 71.9385L274.373 71.8804V71.3989C274.373 70.7625 274.224 70.3088 273.925 70.0376C273.632 69.7664 273.216 69.6309 272.68 69.6309C272.22 69.6309 271.775 69.6973 271.343 69.8301C270.912 69.9629 270.491 70.1261 270.082 70.3198L269.451 68.9419C269.899 68.7039 270.408 68.5103 270.978 68.3608C271.554 68.2114 272.151 68.1367 272.771 68.1367ZM274.365 73.1089L273.178 73.1504C272.204 73.1836 271.52 73.3496 271.127 73.6484C270.735 73.9473 270.538 74.3568 270.538 74.877C270.538 75.3307 270.674 75.6628 270.945 75.873C271.216 76.0778 271.573 76.1802 272.016 76.1802C272.691 76.1802 273.25 75.9893 273.692 75.6074C274.141 75.2201 274.365 74.6528 274.365 73.9058V73.1089ZM277.644 68.311H279.769L281.653 73.5571C281.736 73.7951 281.811 74.0303 281.877 74.2627C281.949 74.4896 282.01 74.7137 282.06 74.9351C282.115 75.1564 282.159 75.3778 282.192 75.5991H282.242C282.298 75.3114 282.375 74.9904 282.475 74.6362C282.58 74.2765 282.696 73.9168 282.823 73.5571L284.633 68.311H286.733L282.79 78.7617C282.563 79.3594 282.284 79.8685 281.952 80.2891C281.625 80.7152 281.238 81.0361 280.79 81.252C280.341 81.4733 279.829 81.584 279.254 81.584C278.977 81.584 278.736 81.5674 278.532 81.5342C278.327 81.5065 278.153 81.4761 278.009 81.4429V79.8823C278.125 79.91 278.272 79.9349 278.449 79.957C278.626 79.9792 278.808 79.9902 278.997 79.9902C279.345 79.9902 279.647 79.9211 279.901 79.7827C280.156 79.6444 280.372 79.4479 280.549 79.1934C280.726 78.9443 280.873 78.6593 280.989 78.3384L281.312 77.4751L277.644 68.311ZM298.512 68.1367C299.541 68.1367 300.316 68.4023 300.836 68.9336C301.362 69.4648 301.625 70.3171 301.625 71.4902V77.5H299.674V71.8389C299.674 71.1416 299.538 70.6159 299.267 70.2617C298.996 69.9076 298.584 69.7305 298.03 69.7305C297.256 69.7305 296.697 69.9795 296.354 70.4775C296.016 70.9701 295.847 71.6867 295.847 72.6274V77.5H293.896V71.8389C293.896 71.374 293.836 70.9867 293.714 70.6768C293.598 70.3613 293.418 70.1261 293.174 69.9712C292.931 69.8107 292.624 69.7305 292.253 69.7305C291.716 69.7305 291.287 69.8522 290.966 70.0957C290.651 70.3392 290.424 70.6989 290.286 71.1748C290.147 71.6452 290.078 72.2235 290.078 72.9097V77.5H288.127V68.311H289.646L289.92 69.5479H290.028C290.216 69.2269 290.449 68.964 290.726 68.7593C291.008 68.549 291.32 68.394 291.664 68.2944C292.007 68.1893 292.364 68.1367 292.734 68.1367C293.421 68.1367 293.999 68.2585 294.469 68.502C294.94 68.7399 295.291 69.1051 295.523 69.5977H295.673C295.961 69.0996 296.362 68.7316 296.876 68.4937C297.391 68.2557 297.936 68.1367 298.512 68.1367ZM308.008 68.1367C308.827 68.1367 309.53 68.3055 310.116 68.6431C310.703 68.9806 311.154 69.4593 311.469 70.0791C311.785 70.6989 311.942 71.4404 311.942 72.3037V73.3496H305.808C305.83 74.2406 306.068 74.9268 306.522 75.4082C306.981 75.8896 307.623 76.1304 308.448 76.1304C309.034 76.1304 309.56 76.075 310.025 75.9644C310.495 75.8481 310.979 75.6794 311.478 75.458V77.0435C311.018 77.2593 310.551 77.417 310.075 77.5166C309.599 77.6162 309.029 77.666 308.365 77.666C307.463 77.666 306.669 77.4917 305.982 77.1431C305.302 76.7889 304.768 76.2632 304.38 75.5659C303.999 74.8687 303.808 74.0026 303.808 72.9678C303.808 71.9385 303.982 71.0641 304.331 70.3447C304.679 69.6253 305.169 69.0775 305.8 68.7012C306.431 68.3249 307.167 68.1367 308.008 68.1367ZM308.008 69.606C307.394 69.606 306.896 69.8052 306.514 70.2036C306.137 70.6021 305.916 71.1859 305.85 71.9551H310.033C310.028 71.4958 309.95 71.089 309.801 70.7349C309.657 70.3807 309.436 70.104 309.137 69.9048C308.843 69.7056 308.467 69.606 308.008 69.606ZM318.932 68.1367C319.966 68.1367 320.772 68.4051 321.347 68.9419C321.928 69.4731 322.219 70.3281 322.219 71.5068V77.5H320.268V71.8721C320.268 71.1582 320.121 70.6242 319.828 70.27C319.535 69.9103 319.081 69.7305 318.467 69.7305C317.576 69.7305 316.956 70.0044 316.607 70.5522C316.264 71.1001 316.093 71.8942 316.093 72.9346V77.5H314.142V68.311H315.661L315.935 69.5562H316.043C316.242 69.2352 316.488 68.9723 316.782 68.7676C317.081 68.5573 317.413 68.3996 317.778 68.2944C318.149 68.1893 318.533 68.1367 318.932 68.1367ZM328.37 76.0889C328.624 76.0889 328.876 76.0667 329.125 76.0225C329.374 75.9727 329.601 75.9146 329.806 75.8481V77.3257C329.59 77.4198 329.31 77.5 328.967 77.5664C328.624 77.6328 328.267 77.666 327.896 77.666C327.376 77.666 326.909 77.5802 326.494 77.4087C326.079 77.2316 325.749 76.93 325.506 76.5039C325.262 76.0778 325.141 75.4884 325.141 74.7358V69.7969H323.887V68.9253L325.232 68.2363L325.871 66.269H327.1V68.311H329.731V69.7969H327.1V74.7109C327.1 75.1758 327.216 75.5216 327.448 75.7485C327.681 75.9754 327.988 76.0889 328.37 76.0889Z" fill="#432990"/>
<rect x="398.047" y="27.5" width="20" height="20" rx="10" fill="#DADADA"/>
<rect width="69" height="23" transform="translate(373.547 59.5)" fill="white"/>
<path d="M377.193 77.5H375.217V65.3643H382.074V67.041H377.193V70.8262H381.758V72.4946H377.193V77.5ZM386.033 68.311V77.5H384.083V68.311H386.033ZM385.07 64.7915C385.369 64.7915 385.626 64.8717 385.842 65.0322C386.064 65.1927 386.174 65.4694 386.174 65.8623C386.174 66.2497 386.064 66.5264 385.842 66.6924C385.626 66.8529 385.369 66.9331 385.07 66.9331C384.76 66.9331 384.498 66.8529 384.282 66.6924C384.071 66.5264 383.966 66.2497 383.966 65.8623C383.966 65.4694 384.071 65.1927 384.282 65.0322C384.498 64.8717 384.76 64.7915 385.07 64.7915ZM393.62 68.1367C394.655 68.1367 395.46 68.4051 396.036 68.9419C396.617 69.4731 396.907 70.3281 396.907 71.5068V77.5H394.957V71.8721C394.957 71.1582 394.81 70.6242 394.517 70.27C394.223 69.9103 393.77 69.7305 393.155 69.7305C392.264 69.7305 391.645 70.0044 391.296 70.5522C390.953 71.1001 390.781 71.8942 390.781 72.9346V77.5H388.831V68.311H390.35L390.624 69.5562H390.731C390.931 69.2352 391.177 68.9723 391.47 68.7676C391.769 68.5573 392.101 68.3996 392.466 68.2944C392.837 68.1893 393.222 68.1367 393.62 68.1367ZM401.589 68.311V77.5H399.638V68.311H401.589ZM400.626 64.7915C400.925 64.7915 401.182 64.8717 401.398 65.0322C401.619 65.1927 401.73 65.4694 401.73 65.8623C401.73 66.2497 401.619 66.5264 401.398 66.6924C401.182 66.8529 400.925 66.9331 400.626 66.9331C400.316 66.9331 400.053 66.8529 399.837 66.6924C399.627 66.5264 399.522 66.2497 399.522 65.8623C399.522 65.4694 399.627 65.1927 399.837 65.0322C400.053 64.8717 400.316 64.7915 400.626 64.7915ZM410.562 74.877C410.562 75.4801 410.415 75.9893 410.122 76.4043C409.829 76.8193 409.4 77.1348 408.835 77.3506C408.277 77.5609 407.59 77.666 406.777 77.666C406.135 77.666 405.582 77.619 405.117 77.5249C404.657 77.4364 404.223 77.298 403.813 77.1099V75.4248C404.251 75.6296 404.74 75.8066 405.283 75.9561C405.831 76.1055 406.348 76.1802 406.835 76.1802C407.477 76.1802 407.939 76.0806 408.221 75.8813C408.503 75.6766 408.645 75.4054 408.645 75.0679C408.645 74.8687 408.586 74.6916 408.47 74.5366C408.36 74.3761 408.149 74.2129 407.839 74.0469C407.535 73.8753 407.087 73.6706 406.495 73.4326C405.914 73.2002 405.424 72.9678 405.025 72.7354C404.627 72.5029 404.325 72.2235 404.121 71.897C403.916 71.5649 403.813 71.1416 403.813 70.627C403.813 69.8135 404.134 69.1965 404.776 68.7759C405.424 68.3498 406.279 68.1367 407.341 68.1367C407.906 68.1367 408.437 68.1948 408.935 68.311C409.439 68.4217 409.931 68.585 410.413 68.8008L409.798 70.27C409.383 70.0874 408.965 69.938 408.545 69.8218C408.13 69.7 407.707 69.6392 407.275 69.6392C406.771 69.6392 406.387 69.7166 406.121 69.8716C405.861 70.0265 405.731 70.2479 405.731 70.5356C405.731 70.7515 405.795 70.9341 405.922 71.0835C406.049 71.2329 406.268 71.3823 406.578 71.5317C406.893 71.6812 407.33 71.8665 407.889 72.0879C408.437 72.2982 408.91 72.5195 409.309 72.752C409.713 72.9788 410.022 73.2583 410.238 73.5903C410.454 73.9224 410.562 74.3512 410.562 74.877ZM414.621 64.584V67.8296C414.621 68.1672 414.61 68.4964 414.588 68.8174C414.571 69.1383 414.552 69.3874 414.53 69.5645H414.638C414.831 69.2435 415.069 68.9806 415.352 68.7759C415.634 68.5656 415.949 68.4079 416.298 68.3027C416.652 68.1976 417.028 68.145 417.427 68.145C418.13 68.145 418.727 68.264 419.22 68.502C419.712 68.7344 420.089 69.0968 420.349 69.5894C420.614 70.0819 420.747 70.721 420.747 71.5068V77.5H418.796V71.8721C418.796 71.1582 418.65 70.6242 418.356 70.27C418.063 69.9103 417.609 69.7305 416.995 69.7305C416.403 69.7305 415.933 69.855 415.584 70.104C415.241 70.3475 414.995 70.71 414.845 71.1914C414.696 71.6673 414.621 72.2484 414.621 72.9346V77.5H412.67V64.584H414.621ZM427.139 68.1367C427.958 68.1367 428.66 68.3055 429.247 68.6431C429.834 68.9806 430.285 69.4593 430.6 70.0791C430.916 70.6989 431.073 71.4404 431.073 72.3037V73.3496H424.939C424.961 74.2406 425.199 74.9268 425.653 75.4082C426.112 75.8896 426.754 76.1304 427.579 76.1304C428.165 76.1304 428.691 76.075 429.156 75.9644C429.626 75.8481 430.11 75.6794 430.608 75.458V77.0435C430.149 77.2593 429.681 77.417 429.206 77.5166C428.73 77.6162 428.16 77.666 427.496 77.666C426.594 77.666 425.799 77.4917 425.113 77.1431C424.433 76.7889 423.899 76.2632 423.511 75.5659C423.129 74.8687 422.938 74.0026 422.938 72.9678C422.938 71.9385 423.113 71.0641 423.461 70.3447C423.81 69.6253 424.3 69.0775 424.931 68.7012C425.562 68.3249 426.298 68.1367 427.139 68.1367ZM427.139 69.606C426.524 69.606 426.026 69.8052 425.645 70.2036C425.268 70.6021 425.047 71.1859 424.98 71.9551H429.164C429.159 71.4958 429.081 71.089 428.932 70.7349C428.788 70.3807 428.566 70.104 428.268 69.9048C427.974 69.7056 427.598 69.606 427.139 69.606ZM436.361 77.666C435.265 77.666 434.385 77.2676 433.721 76.4707C433.063 75.6683 432.733 74.4868 432.733 72.9263C432.733 71.3491 433.068 70.1566 433.738 69.3486C434.413 68.5407 435.301 68.1367 436.402 68.1367C436.867 68.1367 437.274 68.2004 437.623 68.3276C437.971 68.4494 438.27 68.6154 438.519 68.8257C438.774 69.036 438.989 69.2712 439.167 69.5312H439.258C439.23 69.3597 439.197 69.1134 439.158 68.7925C439.125 68.466 439.108 68.1644 439.108 67.8877V64.584H441.067V77.5H439.54L439.191 76.2466H439.108C438.942 76.5122 438.732 76.7529 438.478 76.9688C438.229 77.179 437.93 77.3478 437.581 77.4751C437.238 77.6024 436.831 77.666 436.361 77.666ZM436.909 76.0806C437.744 76.0806 438.334 75.8398 438.677 75.3584C439.02 74.877 439.197 74.1548 439.208 73.1919V72.9346C439.208 71.9053 439.042 71.1167 438.71 70.5688C438.378 70.0155 437.772 69.7388 436.892 69.7388C436.189 69.7388 435.653 70.0238 435.282 70.5938C434.917 71.1582 434.734 71.9468 434.734 72.9595C434.734 73.9722 434.917 74.7469 435.282 75.2837C435.653 75.8149 436.195 76.0806 436.909 76.0806Z" fill="#757575"/>
<defs>
<linearGradient id="paint0_linear_360_5925" x1="10.8218" y1="37.2" x2="20.4005" y2="88.8812" gradientUnits="userSpaceOnUse">
<stop stop-color="#A375FF"/>
<stop offset="0.549266" stop-color="#7342D4"/>
<stop offset="1" stop-color="#432990"/>
</linearGradient>
</defs>
</svg>
