<svg width="580" height="390" viewBox="0 0 580 390" fill="none" xmlns="http://www.w3.org/2000/svg">
<rect width="580" height="390" fill="white"/>
<path d="M41.0387 106.545H42.7699L45.7798 113.895H45.8906L48.9006 106.545H50.6317V116H49.2745V109.158H49.1868L46.3984 115.986H45.272L42.4837 109.154H42.396V116H41.0387V106.545ZM55.5818 116.143C54.917 116.143 54.3369 115.991 53.8414 115.686C53.3459 115.381 52.9611 114.955 52.6872 114.407C52.4133 113.859 52.2764 113.219 52.2764 112.487C52.2764 111.751 52.4133 111.108 52.6872 110.557C52.9611 110.006 53.3459 109.578 53.8414 109.274C54.3369 108.969 54.917 108.817 55.5818 108.817C56.2465 108.817 56.8267 108.969 57.3222 109.274C57.8177 109.578 58.2024 110.006 58.4763 110.557C58.7502 111.108 58.8872 111.751 58.8872 112.487C58.8872 113.219 58.7502 113.859 58.4763 114.407C58.2024 114.955 57.8177 115.381 57.3222 115.686C56.8267 115.991 56.2465 116.143 55.5818 116.143ZM55.5864 114.984C56.0173 114.984 56.3743 114.871 56.6574 114.643C56.9405 114.415 57.1498 114.112 57.2852 113.733C57.4237 113.355 57.493 112.938 57.493 112.482C57.493 112.03 57.4237 111.614 57.2852 111.236C57.1498 110.854 56.9405 110.548 56.6574 110.317C56.3743 110.086 56.0173 109.971 55.5864 109.971C55.1524 109.971 54.7923 110.086 54.5061 110.317C54.223 110.548 54.0122 110.854 53.8737 111.236C53.7383 111.614 53.6705 112.03 53.6705 112.482C53.6705 112.938 53.7383 113.355 53.8737 113.733C54.0122 114.112 54.223 114.415 54.5061 114.643C54.7923 114.871 55.1524 114.984 55.5864 114.984ZM60.5387 116V106.545H61.919V110.059H62.0021C62.0821 109.911 62.1976 109.74 62.3484 109.546C62.4992 109.352 62.7085 109.183 62.9762 109.038C63.244 108.891 63.5979 108.817 64.038 108.817C64.6104 108.817 65.1213 108.961 65.5707 109.251C66.02 109.54 66.3724 109.957 66.6278 110.502C66.8864 111.047 67.0156 111.702 67.0156 112.468C67.0156 113.235 66.8879 113.892 66.6325 114.44C66.377 114.984 66.0262 115.404 65.5799 115.7C65.1336 115.992 64.6243 116.138 64.0518 116.138C63.621 116.138 63.2686 116.066 62.9947 115.922C62.7238 115.777 62.5115 115.608 62.3576 115.414C62.2037 115.22 62.0852 115.047 62.0021 114.897H61.8867V116H60.5387ZM61.8913 112.455C61.8913 112.953 61.9637 113.39 62.1083 113.766C62.253 114.141 62.4622 114.435 62.7362 114.647C63.0101 114.857 63.3455 114.961 63.7425 114.961C64.1549 114.961 64.4996 114.852 64.7766 114.634C65.0536 114.412 65.2629 114.112 65.4045 113.733C65.5491 113.355 65.6214 112.929 65.6214 112.455C65.6214 111.987 65.5507 111.567 65.4091 111.194C65.2706 110.822 65.0613 110.528 64.7812 110.312C64.5043 110.097 64.158 109.989 63.7425 109.989C63.3424 109.989 63.0039 110.092 62.7269 110.299C62.453 110.505 62.2453 110.793 62.1037 111.162C61.9621 111.531 61.8913 111.962 61.8913 112.455ZM68.5656 116V108.909H69.9459V116H68.5656ZM69.2627 107.815C69.0226 107.815 68.8164 107.735 68.6441 107.575C68.4748 107.412 68.3902 107.218 68.3902 106.993C68.3902 106.766 68.4748 106.572 68.6441 106.412C68.8164 106.248 69.0226 106.167 69.2627 106.167C69.5028 106.167 69.7074 106.248 69.8767 106.412C70.049 106.572 70.1352 106.766 70.1352 106.993C70.1352 107.218 70.049 107.412 69.8767 107.575C69.7074 107.735 69.5028 107.815 69.2627 107.815ZM73.1832 106.545V116H71.8029V106.545H73.1832ZM78.0963 116.143C77.3977 116.143 76.796 115.994 76.2913 115.695C75.7896 115.394 75.4018 114.971 75.1279 114.426C74.8571 113.878 74.7217 113.236 74.7217 112.501C74.7217 111.774 74.8571 111.134 75.1279 110.58C75.4018 110.026 75.7835 109.594 76.2728 109.283C76.7652 108.972 77.3408 108.817 77.9994 108.817C78.3995 108.817 78.7873 108.883 79.1627 109.015C79.5382 109.148 79.8752 109.355 80.1737 109.638C80.4723 109.922 80.7077 110.289 80.8801 110.742C81.0524 111.191 81.1386 111.737 81.1386 112.381V112.87H75.5019V111.836H79.786C79.786 111.473 79.7121 111.151 79.5644 110.871C79.4166 110.588 79.2089 110.365 78.9411 110.202C78.6765 110.039 78.3656 109.957 78.0086 109.957C77.6208 109.957 77.2823 110.052 76.993 110.243C76.7068 110.431 76.4852 110.677 76.3282 110.982C76.1743 111.283 76.0974 111.611 76.0974 111.965V112.773C76.0974 113.247 76.1805 113.65 76.3467 113.983C76.516 114.315 76.7514 114.569 77.053 114.744C77.3546 114.917 77.707 115.003 78.1102 115.003C78.3718 115.003 78.6103 114.966 78.8257 114.892C79.0412 114.815 79.2274 114.701 79.3843 114.55C79.5413 114.4 79.6613 114.213 79.7444 113.992L81.0509 114.227C80.9462 114.612 80.7585 114.949 80.4877 115.238C80.2199 115.525 79.8829 115.748 79.4767 115.908C79.0735 116.065 78.6134 116.143 78.0963 116.143Z" fill="black" fill-opacity="0.7"/>
<path d="M34.0994 193.5H31.0387V184.045H34.1964C35.1228 184.045 35.9183 184.235 36.5831 184.613C37.2479 184.989 37.7572 185.529 38.1112 186.234C38.4682 186.935 38.6467 187.777 38.6467 188.759C38.6467 189.744 38.4666 190.59 38.1065 191.298C37.7495 192.006 37.2325 192.551 36.5554 192.932C35.8783 193.311 35.0597 193.5 34.0994 193.5ZM32.4652 192.254H34.021C34.7411 192.254 35.3397 192.118 35.8168 191.847C36.2938 191.573 36.6508 191.178 36.8878 190.661C37.1248 190.141 37.2433 189.507 37.2433 188.759C37.2433 188.017 37.1248 187.388 36.8878 186.871C36.6539 186.354 36.3046 185.961 35.8398 185.694C35.3751 185.426 34.7981 185.292 34.1087 185.292H32.4652V192.254ZM43.3659 193.643C42.6672 193.643 42.0655 193.494 41.5608 193.195C41.0592 192.894 40.6714 192.471 40.3975 191.926C40.1266 191.378 39.9912 190.736 39.9912 190.001C39.9912 189.274 40.1266 188.634 40.3975 188.08C40.6714 187.526 41.053 187.094 41.5423 186.783C42.0348 186.472 42.6103 186.317 43.2689 186.317C43.669 186.317 44.0568 186.383 44.4323 186.515C44.8077 186.648 45.1447 186.855 45.4433 187.138C45.7418 187.422 45.9772 187.789 46.1496 188.242C46.3219 188.691 46.4081 189.237 46.4081 189.881V190.37H40.7714V189.336H45.0555C45.0555 188.973 44.9816 188.651 44.8339 188.371C44.6862 188.088 44.4784 187.865 44.2107 187.702C43.946 187.539 43.6352 187.457 43.2781 187.457C42.8904 187.457 42.5518 187.552 42.2625 187.743C41.9763 187.931 41.7547 188.177 41.5977 188.482C41.4439 188.783 41.3669 189.111 41.3669 189.465V190.273C41.3669 190.747 41.45 191.15 41.6162 191.483C41.7855 191.815 42.0209 192.069 42.3225 192.244C42.6241 192.417 42.9765 192.503 43.3797 192.503C43.6413 192.503 43.8798 192.466 44.0953 192.392C44.3107 192.315 44.4969 192.201 44.6539 192.05C44.8108 191.9 44.9308 191.713 45.0139 191.492L46.3204 191.727C46.2158 192.112 46.028 192.449 45.7572 192.738C45.4894 193.025 45.1524 193.248 44.7462 193.408C44.343 193.565 43.8829 193.643 43.3659 193.643ZM53.2532 188.14L52.0021 188.362C51.9498 188.202 51.8667 188.049 51.7528 187.905C51.642 187.76 51.4912 187.642 51.3004 187.549C51.1096 187.457 50.8711 187.411 50.5849 187.411C50.194 187.411 49.8678 187.499 49.6062 187.674C49.3446 187.846 49.2138 188.069 49.2138 188.343C49.2138 188.58 49.3015 188.771 49.4769 188.916C49.6523 189.06 49.9355 189.179 50.3263 189.271L51.4528 189.53C52.1052 189.681 52.5915 189.913 52.9116 190.227C53.2317 190.541 53.3917 190.949 53.3917 191.45C53.3917 191.875 53.2686 192.254 53.0224 192.586C52.7792 192.915 52.4392 193.174 52.0021 193.362C51.5682 193.549 51.065 193.643 50.4925 193.643C49.6985 193.643 49.0507 193.474 48.549 193.135C48.0473 192.794 47.7396 192.309 47.6257 191.681L48.9599 191.478C49.043 191.826 49.2138 192.089 49.4723 192.267C49.7308 192.443 50.0678 192.531 50.4833 192.531C50.9357 192.531 51.2973 192.437 51.5682 192.249C51.839 192.058 51.9744 191.826 51.9744 191.552C51.9744 191.33 51.8913 191.144 51.7251 190.993C51.562 190.842 51.3112 190.729 50.9727 190.652L49.7724 190.388C49.1107 190.238 48.6213 189.998 48.3043 189.668C47.9904 189.339 47.8335 188.922 47.8335 188.417C47.8335 187.999 47.9504 187.632 48.1843 187.319C48.4182 187.005 48.7414 186.76 49.1538 186.585C49.5662 186.406 50.0386 186.317 50.571 186.317C51.3374 186.317 51.9406 186.483 52.3807 186.815C52.8208 187.145 53.1116 187.586 53.2532 188.14ZM56.1789 191.095L56.1697 189.41H56.4097L59.235 186.409H60.8877L57.6654 189.825H57.4484L56.1789 191.095ZM54.9094 193.5V184.045H56.2897V193.5H54.9094ZM59.3873 193.5L56.8483 190.13L57.7993 189.165L61.0816 193.5H59.3873ZM65.4557 186.409V187.517H61.5825V186.409H65.4557ZM62.6212 184.71H64.0015V191.418C64.0015 191.686 64.0415 191.887 64.1215 192.023C64.2016 192.155 64.3047 192.246 64.4308 192.295C64.5601 192.341 64.7001 192.364 64.8509 192.364C64.9617 192.364 65.0587 192.357 65.1418 192.341C65.2249 192.326 65.2895 192.314 65.3357 192.304L65.585 193.445C65.5049 193.475 65.3911 193.506 65.2433 193.537C65.0956 193.571 64.911 193.589 64.6894 193.592C64.3262 193.598 63.9877 193.534 63.6737 193.398C63.3598 193.263 63.1059 193.054 62.912 192.771C62.7181 192.487 62.6212 192.132 62.6212 191.704V184.71ZM69.8933 193.643C69.2285 193.643 68.6484 193.491 68.1529 193.186C67.6574 192.881 67.2727 192.455 66.9988 191.907C66.7248 191.359 66.5879 190.719 66.5879 189.987C66.5879 189.251 66.7248 188.608 66.9988 188.057C67.2727 187.506 67.6574 187.078 68.1529 186.774C68.6484 186.469 69.2285 186.317 69.8933 186.317C70.5581 186.317 71.1382 186.469 71.6337 186.774C72.1292 187.078 72.5139 187.506 72.7878 188.057C73.0617 188.608 73.1987 189.251 73.1987 189.987C73.1987 190.719 73.0617 191.359 72.7878 191.907C72.5139 192.455 72.1292 192.881 71.6337 193.186C71.1382 193.491 70.5581 193.643 69.8933 193.643ZM69.8979 192.484C70.3288 192.484 70.6858 192.371 70.9689 192.143C71.2521 191.915 71.4614 191.612 71.5968 191.233C71.7353 190.855 71.8045 190.438 71.8045 189.982C71.8045 189.53 71.7353 189.114 71.5968 188.736C71.4614 188.354 71.2521 188.048 70.9689 187.817C70.6858 187.586 70.3288 187.471 69.8979 187.471C69.464 187.471 69.1039 187.586 68.8176 187.817C68.5345 188.048 68.3237 188.354 68.1852 188.736C68.0498 189.114 67.9821 189.53 67.9821 189.982C67.9821 190.438 68.0498 190.855 68.1852 191.233C68.3237 191.612 68.5345 191.915 68.8176 192.143C69.1039 192.371 69.464 192.484 69.8979 192.484ZM74.7394 196.159V186.409H76.0874V187.559H76.2029C76.2829 187.411 76.3983 187.24 76.5491 187.046C76.6999 186.852 76.9092 186.683 77.1769 186.538C77.4447 186.391 77.7986 186.317 78.2387 186.317C78.8112 186.317 79.3221 186.461 79.7714 186.751C80.2207 187.04 80.5731 187.457 80.8286 188.002C81.0871 188.547 81.2164 189.202 81.2164 189.968C81.2164 190.735 81.0886 191.392 80.8332 191.94C80.5777 192.484 80.2269 192.904 79.7806 193.2C79.3344 193.492 78.825 193.638 78.2526 193.638C77.8217 193.638 77.4693 193.566 77.1954 193.422C76.9246 193.277 76.7122 193.108 76.5583 192.914C76.4044 192.72 76.286 192.547 76.2029 192.397H76.1198V196.159H74.7394ZM76.0921 189.955C76.0921 190.453 76.1644 190.89 76.309 191.266C76.4537 191.641 76.663 191.935 76.9369 192.147C77.2108 192.357 77.5463 192.461 77.9433 192.461C78.3557 192.461 78.7004 192.352 78.9774 192.134C79.2544 191.912 79.4636 191.612 79.6052 191.233C79.7499 190.855 79.8222 190.429 79.8222 189.955C79.8222 189.487 79.7514 189.067 79.6098 188.694C79.4713 188.322 79.262 188.028 78.982 187.812C78.705 187.597 78.3588 187.489 77.9433 187.489C77.5432 187.489 77.2046 187.592 76.9276 187.799C76.6537 188.005 76.446 188.293 76.3044 188.662C76.1628 189.031 76.0921 189.462 76.0921 189.955Z" fill="black" fill-opacity="0.7"/>
<path d="M43.5724 262.773V261.545H50.8896V262.773H47.9396V271H46.5178V262.773H43.5724ZM53.4944 271.157C53.0451 271.157 52.6388 271.074 52.2757 270.908C51.9125 270.738 51.6247 270.494 51.4124 270.174C51.2031 269.854 51.0985 269.461 51.0985 268.996C51.0985 268.596 51.1754 268.267 51.3293 268.009C51.4832 267.75 51.6909 267.545 51.9525 267.395C52.2141 267.244 52.5065 267.13 52.8296 267.053C53.1528 266.976 53.4821 266.917 53.8176 266.877C54.2423 266.828 54.587 266.788 54.8517 266.757C55.1163 266.724 55.3087 266.67 55.4287 266.596C55.5487 266.522 55.6088 266.402 55.6088 266.236V266.203C55.6088 265.8 55.4949 265.488 55.2671 265.266C55.0425 265.045 54.707 264.934 54.2607 264.934C53.796 264.934 53.4298 265.037 53.162 265.243C52.8973 265.446 52.7142 265.673 52.6127 265.922L51.3154 265.626C51.4693 265.196 51.694 264.848 51.9894 264.583C52.288 264.315 52.6311 264.121 53.0189 264.001C53.4067 263.878 53.8145 263.817 54.2423 263.817C54.5254 263.817 54.8255 263.851 55.1425 263.918C55.4626 263.983 55.7611 264.103 56.0381 264.278C56.3182 264.454 56.5474 264.705 56.7259 265.031C56.9044 265.354 56.9937 265.774 56.9937 266.291V271H55.6457V270.031H55.5903C55.501 270.209 55.3672 270.384 55.1887 270.557C55.0102 270.729 54.7809 270.872 54.5008 270.986C54.2207 271.1 53.8853 271.157 53.4944 271.157ZM53.7945 270.049C54.1761 270.049 54.5023 269.974 54.7732 269.823C55.0471 269.672 55.2548 269.475 55.3964 269.232C55.541 268.986 55.6134 268.723 55.6134 268.442V267.528C55.5641 267.578 55.4687 267.624 55.3271 267.667C55.1887 267.707 55.0302 267.742 54.8517 267.773C54.6731 267.801 54.4993 267.827 54.33 267.852C54.1607 267.873 54.0191 267.892 53.9053 267.907C53.6375 267.941 53.3928 267.998 53.1713 268.078C52.9527 268.158 52.7773 268.273 52.645 268.424C52.5157 268.572 52.4511 268.769 52.4511 269.015C52.4511 269.357 52.5773 269.615 52.8296 269.79C53.082 269.963 53.4036 270.049 53.7945 270.049ZM58.943 271V261.545H60.3233V265.059H60.4064C60.4864 264.911 60.6019 264.74 60.7527 264.546C60.9035 264.352 61.1127 264.183 61.3805 264.038C61.6483 263.891 62.0022 263.817 62.4423 263.817C63.0147 263.817 63.5256 263.961 63.975 264.251C64.4243 264.54 64.7767 264.957 65.0321 265.502C65.2907 266.047 65.4199 266.702 65.4199 267.468C65.4199 268.235 65.2922 268.892 65.0368 269.44C64.7813 269.984 64.4305 270.404 63.9842 270.7C63.5379 270.992 63.0286 271.138 62.4561 271.138C62.0253 271.138 61.6729 271.066 61.399 270.922C61.1281 270.777 60.9158 270.608 60.7619 270.414C60.608 270.22 60.4895 270.047 60.4064 269.897H60.291V271H58.943ZM60.2956 267.455C60.2956 267.953 60.368 268.39 60.5126 268.766C60.6573 269.141 60.8665 269.435 61.1404 269.647C61.4144 269.857 61.7498 269.961 62.1468 269.961C62.5592 269.961 62.9039 269.852 63.1809 269.634C63.4579 269.412 63.6672 269.112 63.8088 268.733C63.9534 268.355 64.0257 267.929 64.0257 267.455C64.0257 266.987 63.955 266.567 63.8134 266.194C63.6749 265.822 63.4656 265.528 63.1855 265.312C62.9086 265.097 62.5623 264.989 62.1468 264.989C61.7467 264.989 61.4082 265.092 61.1312 265.299C60.8573 265.505 60.6496 265.793 60.508 266.162C60.3664 266.531 60.2956 266.962 60.2956 267.455ZM68.3502 261.545V271H66.9699V261.545H68.3502ZM73.2633 271.143C72.5647 271.143 71.963 270.994 71.4583 270.695C70.9566 270.394 70.5688 269.971 70.2949 269.426C70.0241 268.878 69.8887 268.236 69.8887 267.501C69.8887 266.774 70.0241 266.134 70.2949 265.58C70.5688 265.026 70.9505 264.594 71.4398 264.283C71.9322 263.972 72.5078 263.817 73.1664 263.817C73.5665 263.817 73.9542 263.883 74.3297 264.015C74.7052 264.148 75.0422 264.355 75.3407 264.638C75.6393 264.922 75.8747 265.289 76.0471 265.742C76.2194 266.191 76.3056 266.737 76.3056 267.381V267.87H70.6689V266.836H74.9529C74.9529 266.473 74.8791 266.151 74.7314 265.871C74.5836 265.588 74.3759 265.365 74.1081 265.202C73.8435 265.039 73.5326 264.957 73.1756 264.957C72.7878 264.957 72.4493 265.052 72.16 265.243C71.8738 265.431 71.6522 265.677 71.4952 265.982C71.3413 266.283 71.2644 266.611 71.2644 266.965V267.773C71.2644 268.247 71.3475 268.65 71.5137 268.983C71.6829 269.315 71.9184 269.569 72.22 269.744C72.5216 269.917 72.874 270.003 73.2772 270.003C73.5388 270.003 73.7773 269.966 73.9927 269.892C74.2082 269.815 74.3944 269.701 74.5513 269.55C74.7083 269.4 74.8283 269.213 74.9114 268.992L76.2179 269.227C76.1132 269.612 75.9255 269.949 75.6547 270.238C75.3869 270.525 75.0499 270.748 74.6436 270.908C74.2405 271.065 73.7804 271.143 73.2633 271.143ZM81.1471 263.909V265.017H77.2739V263.909H81.1471ZM78.3126 262.21H79.6929V268.918C79.6929 269.186 79.7329 269.387 79.8129 269.523C79.893 269.655 79.9961 269.746 80.1222 269.795C80.2515 269.841 80.3915 269.864 80.5423 269.864C80.6531 269.864 80.7501 269.857 80.8332 269.841C80.9163 269.826 80.9809 269.814 81.0271 269.804L81.2764 270.945C81.1963 270.975 81.0825 271.006 80.9347 271.037C80.787 271.071 80.6024 271.089 80.3808 271.092C80.0176 271.098 79.6791 271.034 79.3651 270.898C79.0512 270.763 78.7973 270.554 78.6034 270.271C78.4095 269.987 78.3126 269.632 78.3126 269.204V262.21Z" fill="black" fill-opacity="0.7"/>
<line x1="549.5" y1="50.5" x2="549.5" y2="326.5" stroke="#00001A" stroke-opacity="0.15" stroke-dasharray="2"/>
<line x1="457.3" y1="50.5" x2="457.3" y2="326.5" stroke="#00001A" stroke-opacity="0.15" stroke-dasharray="2"/>
<line x1="365.1" y1="50.5" x2="365.1" y2="326.5" stroke="#00001A" stroke-opacity="0.15" stroke-dasharray="2"/>
<line x1="272.9" y1="50.5" x2="272.9" y2="326.5" stroke="#00001A" stroke-opacity="0.15" stroke-dasharray="2"/>
<line x1="180.7" y1="50.5" x2="180.7" y2="326.5" stroke="#00001A" stroke-opacity="0.15" stroke-dasharray="2"/>
<line x1="88.5" y1="50.5" x2="88.5" y2="326.5" stroke="#00001A" stroke-opacity="0.15" stroke-dasharray="2"/>
<line x1="89" y1="51" x2="549" y2="51" stroke="#00001A" stroke-opacity="0.15" stroke-dasharray="2"/>
<line x1="89" y1="325" x2="549" y2="325" stroke="#00001A" stroke-opacity="0.15" stroke-dasharray="2"/>
<g opacity="0.2">
<rect opacity="0.8" x="549" y="85.5" width="64" height="460" transform="rotate(90 549 85.5)" fill="#5856D6"/>
</g>
<rect opacity="0.8" x="536.222" y="85.5" width="64" height="447" transform="rotate(90 536.222 85.5)" fill="#5856D6"/>
<g opacity="0.2">
<rect opacity="0.8" x="549" y="158.5" width="64" height="460" transform="rotate(90 549 158.5)" fill="#00C7BE"/>
</g>
<rect opacity="0.8" x="370.111" y="158.5" width="64" height="281" transform="rotate(90 370.111 158.5)" fill="#00C7BE"/>
<g opacity="0.2">
<rect opacity="0.8" x="549" y="231.5" width="64" height="460" transform="rotate(90 549 231.5)" fill="#007AFF"/>
</g>
<rect opacity="0.8" x="152.889" y="231.5" width="64" height="64" transform="rotate(90 152.889 231.5)" fill="#007AFF"/>
<path d="M111.438 335.109C110.849 335.109 110.348 334.949 109.934 334.629C109.52 334.306 109.203 333.839 108.984 333.227C108.766 332.612 108.656 331.87 108.656 331C108.656 330.135 108.766 329.397 108.984 328.785C109.206 328.171 109.523 327.702 109.938 327.379C110.354 327.053 110.854 326.891 111.438 326.891C112.021 326.891 112.52 327.053 112.934 327.379C113.35 327.702 113.668 328.171 113.887 328.785C114.108 329.397 114.219 330.135 114.219 331C114.219 331.87 114.109 332.612 113.891 333.227C113.672 333.839 113.355 334.306 112.941 334.629C112.527 334.949 112.026 335.109 111.438 335.109ZM111.438 334.25C112.021 334.25 112.474 333.969 112.797 333.406C113.12 332.844 113.281 332.042 113.281 331C113.281 330.307 113.207 329.717 113.059 329.23C112.913 328.743 112.702 328.372 112.426 328.117C112.152 327.862 111.823 327.734 111.438 327.734C110.859 327.734 110.408 328.02 110.082 328.59C109.757 329.158 109.594 329.961 109.594 331C109.594 331.693 109.667 332.281 109.813 332.766C109.958 333.25 110.168 333.618 110.441 333.871C110.717 334.124 111.049 334.25 111.438 334.25Z" fill="black" fill-opacity="0.7"/>
<path d="M237.307 327V335H236.338V328.016H236.292L234.338 329.312V328.328L236.338 327H237.307ZM242.217 335.109C241.629 335.109 241.127 334.949 240.713 334.629C240.299 334.306 239.983 333.839 239.764 333.227C239.545 332.612 239.436 331.87 239.436 331C239.436 330.135 239.545 329.397 239.764 328.785C239.986 328.171 240.303 327.702 240.717 327.379C241.134 327.053 241.634 326.891 242.217 326.891C242.801 326.891 243.299 327.053 243.713 327.379C244.13 327.702 244.448 328.171 244.667 328.785C244.888 329.397 244.999 330.135 244.999 331C244.999 331.87 244.889 332.612 244.67 333.227C244.452 333.839 244.135 334.306 243.721 334.629C243.307 334.949 242.806 335.109 242.217 335.109ZM242.217 334.25C242.801 334.25 243.254 333.969 243.577 333.406C243.9 332.844 244.061 332.042 244.061 331C244.061 330.307 243.987 329.717 243.838 329.23C243.693 328.743 243.482 328.372 243.206 328.117C242.932 327.862 242.603 327.734 242.217 327.734C241.639 327.734 241.187 328.02 240.862 328.59C240.536 329.158 240.374 329.961 240.374 331C240.374 331.693 240.446 332.281 240.592 332.766C240.738 333.25 240.948 333.618 241.221 333.871C241.497 334.124 241.829 334.25 242.217 334.25ZM249.092 335.109C248.504 335.109 248.002 334.949 247.588 334.629C247.174 334.306 246.858 333.839 246.639 333.227C246.42 332.612 246.311 331.87 246.311 331C246.311 330.135 246.42 329.397 246.639 328.785C246.861 328.171 247.178 327.702 247.592 327.379C248.009 327.053 248.509 326.891 249.092 326.891C249.676 326.891 250.174 327.053 250.588 327.379C251.005 327.702 251.323 328.171 251.542 328.785C251.763 329.397 251.874 330.135 251.874 331C251.874 331.87 251.764 332.612 251.545 333.227C251.327 333.839 251.01 334.306 250.596 334.629C250.182 334.949 249.681 335.109 249.092 335.109ZM249.092 334.25C249.676 334.25 250.129 333.969 250.452 333.406C250.775 332.844 250.936 332.042 250.936 331C250.936 330.307 250.862 329.717 250.713 329.23C250.568 328.743 250.357 328.372 250.081 328.117C249.807 327.862 249.478 327.734 249.092 327.734C248.514 327.734 248.062 328.02 247.737 328.59C247.411 329.158 247.249 329.961 247.249 331C247.249 331.693 247.321 332.281 247.467 332.766C247.613 333.25 247.823 333.618 248.096 333.871C248.372 334.124 248.704 334.25 249.092 334.25ZM254.233 332.812L254.217 331.672H254.405L257.03 329H258.17L255.374 331.828H255.295L254.233 332.812ZM253.374 335V327H254.295V335H253.374ZM257.186 335L254.842 332.031L255.499 331.391L258.358 335H257.186Z" fill="black" fill-opacity="0.7"/>
<path d="M378.162 335V334.297L380.802 331.406C381.112 331.068 381.367 330.773 381.568 330.523C381.768 330.271 381.917 330.034 382.013 329.812C382.112 329.589 382.162 329.354 382.162 329.109C382.162 328.828 382.094 328.585 381.958 328.379C381.826 328.173 381.643 328.014 381.412 327.902C381.18 327.79 380.919 327.734 380.63 327.734C380.323 327.734 380.055 327.798 379.826 327.926C379.599 328.051 379.423 328.227 379.298 328.453C379.176 328.68 379.115 328.945 379.115 329.25H378.193C378.193 328.781 378.301 328.37 378.517 328.016C378.733 327.661 379.028 327.385 379.4 327.187C379.775 326.99 380.195 326.891 380.662 326.891C381.13 326.891 381.546 326.99 381.908 327.187C382.27 327.385 382.554 327.652 382.759 327.988C382.965 328.324 383.068 328.698 383.068 329.109C383.068 329.404 383.014 329.691 382.908 329.973C382.804 330.251 382.621 330.562 382.361 330.906C382.103 331.247 381.745 331.664 381.287 332.156L379.49 334.078V334.141H383.208V335H378.162ZM387.431 335.109C386.843 335.109 386.341 334.949 385.927 334.629C385.513 334.306 385.197 333.839 384.978 333.227C384.759 332.612 384.65 331.87 384.65 331C384.65 330.135 384.759 329.397 384.978 328.785C385.199 328.171 385.517 327.702 385.931 327.379C386.348 327.053 386.848 326.891 387.431 326.891C388.014 326.891 388.513 327.053 388.927 327.379C389.344 327.702 389.662 328.171 389.88 328.785C390.102 329.397 390.212 330.135 390.212 331C390.212 331.87 390.103 332.612 389.884 333.227C389.666 333.839 389.349 334.306 388.935 334.629C388.521 334.949 388.02 335.109 387.431 335.109ZM387.431 334.25C388.014 334.25 388.468 333.969 388.791 333.406C389.113 332.844 389.275 332.042 389.275 331C389.275 330.307 389.201 329.717 389.052 329.23C388.906 328.743 388.695 328.372 388.419 328.117C388.146 327.862 387.817 327.734 387.431 327.734C386.853 327.734 386.401 328.02 386.076 328.59C385.75 329.158 385.587 329.961 385.587 331C385.587 331.693 385.66 332.281 385.806 332.766C385.952 333.25 386.162 333.618 386.435 333.871C386.711 334.124 387.043 334.25 387.431 334.25ZM394.306 335.109C393.718 335.109 393.216 334.949 392.802 334.629C392.388 334.306 392.072 333.839 391.853 333.227C391.634 332.612 391.525 331.87 391.525 331C391.525 330.135 391.634 329.397 391.853 328.785C392.074 328.171 392.392 327.702 392.806 327.379C393.223 327.053 393.723 326.891 394.306 326.891C394.889 326.891 395.388 327.053 395.802 327.379C396.219 327.702 396.537 328.171 396.755 328.785C396.977 329.397 397.087 330.135 397.087 331C397.087 331.87 396.978 332.612 396.759 333.227C396.541 333.839 396.224 334.306 395.81 334.629C395.396 334.949 394.895 335.109 394.306 335.109ZM394.306 334.25C394.889 334.25 395.343 333.969 395.666 333.406C395.988 332.844 396.15 332.042 396.15 331C396.15 330.307 396.076 329.717 395.927 329.23C395.781 328.743 395.57 328.372 395.294 328.117C395.021 327.862 394.692 327.734 394.306 327.734C393.728 327.734 393.276 328.02 392.951 328.59C392.625 329.158 392.462 329.961 392.462 331C392.462 331.693 392.535 332.281 392.681 332.766C392.827 333.25 393.037 333.618 393.31 333.871C393.586 334.124 393.918 334.25 394.306 334.25ZM399.447 332.812L399.431 331.672H399.619L402.244 329H403.384L400.587 331.828H400.509L399.447 332.812ZM398.587 335V327H399.509V335H398.587ZM402.4 335L400.056 332.031L400.712 331.391L403.572 335H402.4Z" fill="black" fill-opacity="0.7"/>
<path d="M526.531 335.109C526.016 335.109 525.556 335.021 525.152 334.844C524.751 334.667 524.432 334.421 524.195 334.105C523.961 333.788 523.833 333.419 523.813 333H524.797C524.818 333.258 524.906 333.48 525.062 333.668C525.219 333.853 525.423 333.996 525.676 334.098C525.928 334.199 526.208 334.25 526.516 334.25C526.859 334.25 527.164 334.19 527.43 334.07C527.695 333.951 527.904 333.784 528.055 333.57C528.206 333.357 528.281 333.109 528.281 332.828C528.281 332.534 528.208 332.275 528.063 332.051C527.917 331.824 527.703 331.647 527.422 331.52C527.141 331.392 526.797 331.328 526.391 331.328H525.75V330.469H526.391C526.708 330.469 526.987 330.411 527.227 330.297C527.469 330.182 527.658 330.021 527.793 329.812C527.931 329.604 528 329.359 528 329.078C528 328.807 527.94 328.572 527.82 328.371C527.701 328.171 527.531 328.014 527.313 327.902C527.096 327.79 526.841 327.734 526.547 327.734C526.271 327.734 526.01 327.785 525.766 327.887C525.523 327.986 525.326 328.13 525.172 328.32C525.018 328.508 524.935 328.734 524.922 329H523.984C524 328.581 524.126 328.214 524.363 327.898C524.6 327.581 524.91 327.333 525.293 327.156C525.678 326.979 526.102 326.891 526.563 326.891C527.057 326.891 527.482 326.991 527.836 327.191C528.19 327.389 528.462 327.651 528.652 327.977C528.842 328.302 528.938 328.654 528.938 329.031C528.938 329.482 528.819 329.866 528.582 330.184C528.348 330.501 528.029 330.721 527.625 330.844V330.906C528.13 330.99 528.525 331.204 528.809 331.551C529.092 331.895 529.234 332.32 529.234 332.828C529.234 333.263 529.116 333.654 528.879 334C528.645 334.344 528.324 334.615 527.918 334.812C527.512 335.01 527.049 335.109 526.531 335.109ZM533.441 335.109C532.853 335.109 532.352 334.949 531.938 334.629C531.523 334.306 531.207 333.839 530.988 333.227C530.77 332.612 530.66 331.87 530.66 331C530.66 330.135 530.77 329.397 530.988 328.785C531.21 328.171 531.527 327.702 531.941 327.379C532.358 327.053 532.858 326.891 533.441 326.891C534.025 326.891 534.523 327.053 534.938 327.379C535.354 327.702 535.672 328.171 535.891 328.785C536.112 329.397 536.223 330.135 536.223 331C536.223 331.87 536.113 332.612 535.895 333.227C535.676 333.839 535.359 334.306 534.945 334.629C534.531 334.949 534.03 335.109 533.441 335.109ZM533.441 334.25C534.025 334.25 534.478 333.969 534.801 333.406C535.124 332.844 535.285 332.042 535.285 331C535.285 330.307 535.211 329.717 535.063 329.23C534.917 328.743 534.706 328.372 534.43 328.117C534.156 327.862 533.827 327.734 533.441 327.734C532.863 327.734 532.411 328.02 532.086 328.59C531.76 329.158 531.598 329.961 531.598 331C531.598 331.693 531.671 332.281 531.816 332.766C531.962 333.25 532.172 333.618 532.445 333.871C532.721 334.124 533.053 334.25 533.441 334.25ZM540.316 335.109C539.728 335.109 539.227 334.949 538.812 334.629C538.398 334.306 538.082 333.839 537.863 333.227C537.645 332.612 537.535 331.87 537.535 331C537.535 330.135 537.645 329.397 537.863 328.785C538.085 328.171 538.402 327.702 538.816 327.379C539.233 327.053 539.733 326.891 540.316 326.891C540.9 326.891 541.398 327.053 541.813 327.379C542.229 327.702 542.547 328.171 542.766 328.785C542.987 329.397 543.098 330.135 543.098 331C543.098 331.87 542.988 332.612 542.77 333.227C542.551 333.839 542.234 334.306 541.82 334.629C541.406 334.949 540.905 335.109 540.316 335.109ZM540.316 334.25C540.9 334.25 541.353 333.969 541.676 333.406C541.999 332.844 542.16 332.042 542.16 331C542.16 330.307 542.086 329.717 541.938 329.23C541.792 328.743 541.581 328.372 541.305 328.117C541.031 327.862 540.702 327.734 540.316 327.734C539.738 327.734 539.286 328.02 538.961 328.59C538.635 329.158 538.473 329.961 538.473 331C538.473 331.693 538.546 332.281 538.691 332.766C538.837 333.25 539.047 333.618 539.32 333.871C539.596 334.124 539.928 334.25 540.316 334.25ZM545.457 332.812L545.441 331.672H545.629L548.254 329H549.395L546.598 331.828H546.52L545.457 332.812ZM544.598 335V327H545.52V335H544.598ZM548.41 335L546.066 332.031L546.723 331.391L549.582 335H548.41Z" fill="black" fill-opacity="0.7"/>
</svg>
