<svg width="580" height="337" viewBox="0 0 580 337" fill="none" xmlns="http://www.w3.org/2000/svg">
<g clip-path="url(#clip0_292_93489)">
<rect width="580" height="354" transform="translate(0 -17)" fill="white"/>
<line x1="9" y1="20.5" x2="566" y2="20.5" stroke="#00001A" stroke-opacity="0.15" stroke-dasharray="2"/>
<line x1="9" y1="91.25" x2="566" y2="91.25" stroke="#00001A" stroke-opacity="0.15" stroke-dasharray="2"/>
<line x1="9" y1="162" x2="566" y2="162" stroke="#00001A" stroke-opacity="0.15" stroke-dasharray="2"/>
<line x1="9" y1="232.75" x2="566" y2="232.75" stroke="#00001A" stroke-opacity="0.15" stroke-dasharray="2"/>
<line x1="9" y1="303.5" x2="566" y2="303.5" stroke="#00001A" stroke-opacity="0.3"/>
<line x1="8.5" y1="304" x2="8.5" y2="21" stroke="#00001A" stroke-opacity="0.15" stroke-dasharray="2"/>
<line x1="70.3887" y1="304" x2="70.3887" y2="21" stroke="#00001A" stroke-opacity="0.15" stroke-dasharray="2"/>
<line x1="132.278" y1="304" x2="132.278" y2="21" stroke="#00001A" stroke-opacity="0.15" stroke-dasharray="2"/>
<line x1="194.167" y1="304" x2="194.167" y2="21" stroke="#00001A" stroke-opacity="0.15" stroke-dasharray="2"/>
<line x1="256.056" y1="304" x2="256.056" y2="21" stroke="#00001A" stroke-opacity="0.15" stroke-dasharray="2"/>
<line x1="317.944" y1="304" x2="317.944" y2="21" stroke="#00001A" stroke-opacity="0.15" stroke-dasharray="2"/>
<line x1="379.833" y1="304" x2="379.833" y2="21" stroke="#00001A" stroke-opacity="0.15" stroke-dasharray="2"/>
<line x1="441.722" y1="304" x2="441.722" y2="21" stroke="#00001A" stroke-opacity="0.15" stroke-dasharray="2"/>
<line x1="503.611" y1="304" x2="503.611" y2="21" stroke="#00001A" stroke-opacity="0.15" stroke-dasharray="2"/>
<line x1="565.5" y1="304" x2="565.5" y2="21" stroke="#00001A" stroke-opacity="0.15" stroke-dasharray="2"/>
<path d="M35.9502 298.38L91.8502 229.535L147.75 301.19L203.65 83.696L259.55 284.33L315.45 23L371.35 219.7L427.25 163.5L483.15 275.9L539.05 304M539.05 304V304Z" stroke="#007AFF" stroke-width="2"/>
<circle cx="35.9502" cy="298.38" r="3" fill="white" stroke="#007AFF" stroke-width="2"/>
<circle cx="91.8501" cy="229.535" r="3" fill="white" stroke="#007AFF" stroke-width="2"/>
<circle cx="147.75" cy="301.19" r="3" fill="white" stroke="#007AFF" stroke-width="2"/>
<circle cx="203.65" cy="83.696" r="3" fill="white" stroke="#007AFF" stroke-width="2"/>
<circle cx="259.55" cy="284.33" r="3" fill="white" stroke="#007AFF" stroke-width="2"/>
<circle cx="315.45" cy="23" r="3" fill="white" stroke="#007AFF" stroke-width="2"/>
<circle cx="371.35" cy="219.7" r="3" fill="white" stroke="#007AFF" stroke-width="2"/>
<circle cx="427.25" cy="163.5" r="3" fill="white" stroke="#007AFF" stroke-width="2"/>
<circle cx="483.15" cy="275.9" r="3" fill="white" stroke="#007AFF" stroke-width="2"/>
<circle cx="539.05" cy="304" r="3" fill="white" stroke="#007AFF" stroke-width="2"/>
<g filter="url(#filter0_dd_292_93489)">
<rect x="292" y="47" width="187" height="94" rx="4" fill="white" shape-rendering="crispEdges"/>
<path d="M321.594 70.375C321.594 68.207 320.422 66.2148 318.547 65.1016C316.643 64.0176 314.328 64.0176 312.453 65.1016C310.549 66.2148 309.406 68.207 309.406 70.375C309.406 72.5723 310.549 74.5645 312.453 75.6777C314.328 76.7617 316.643 76.7617 318.547 75.6777C320.422 74.5645 321.594 72.5723 321.594 70.375ZM308 70.375C308 67.709 309.406 65.248 311.75 63.9004C314.064 62.5527 316.906 62.5527 319.25 63.9004C321.564 65.248 323 67.709 323 70.375C323 73.0703 321.564 75.5312 319.25 76.8789C316.906 78.2266 314.064 78.2266 311.75 76.8789C309.406 75.5312 308 73.0703 308 70.375ZM315.5 67.5625C316.496 67.5625 317.404 68.1191 317.932 68.9688C318.43 69.8477 318.43 70.9316 317.932 71.7812C317.404 72.6602 316.496 73.1875 315.5 73.1875C314.475 73.1875 313.566 72.6602 313.039 71.7812C312.541 70.9316 312.541 69.8477 313.039 68.9688C313.566 68.1191 314.475 67.5625 315.5 67.5625Z" fill="#007AFF"/>
<path d="M330.533 75.5H329.332L332.804 66.0455H333.986L337.457 75.5H336.257L333.432 67.5412H333.358L330.533 75.5ZM330.976 71.8068H335.814V72.8224H330.976V71.8068ZM346.297 66.0455V75.5H345.189L340.037 68.0767H339.945V75.5H338.8V66.0455H339.908L345.078 73.4872H345.171V66.0455H346.297ZM356.435 70.7727C356.435 71.7699 356.255 72.6316 355.895 73.358C355.535 74.0843 355.041 74.6444 354.413 75.0384C353.786 75.4323 353.068 75.6293 352.262 75.6293C351.456 75.6293 350.739 75.4323 350.111 75.0384C349.483 74.6444 348.989 74.0843 348.629 73.358C348.269 72.6316 348.089 71.7699 348.089 70.7727C348.089 69.7756 348.269 68.9138 348.629 68.1875C348.989 67.4612 349.483 66.901 350.111 66.5071C350.739 66.1132 351.456 65.9162 352.262 65.9162C353.068 65.9162 353.786 66.1132 354.413 66.5071C355.041 66.901 355.535 67.4612 355.895 68.1875C356.255 68.9138 356.435 69.7756 356.435 70.7727ZM355.327 70.7727C355.327 69.9541 355.19 69.2631 354.917 68.6999C354.646 68.1367 354.278 67.7105 353.813 67.4212C353.352 67.1319 352.835 66.9872 352.262 66.9872C351.69 66.9872 351.171 67.1319 350.706 67.4212C350.245 67.7105 349.877 68.1367 349.603 68.6999C349.332 69.2631 349.197 69.9541 349.197 70.7727C349.197 71.5914 349.332 72.2823 349.603 72.8455C349.877 73.4087 350.245 73.835 350.706 74.1243C351.171 74.4136 351.69 74.5582 352.262 74.5582C352.835 74.5582 353.352 74.4136 353.813 74.1243C354.278 73.835 354.646 73.4087 354.917 72.8455C355.19 72.2823 355.327 71.5914 355.327 70.7727ZM358.23 66.0455H359.597L362.81 73.8935H362.921L366.134 66.0455H367.5V75.5H366.429V68.3168H366.337L363.382 75.5H362.348L359.394 68.3168H359.301V75.5H358.23V66.0455ZM370.054 75.5H368.853L372.325 66.0455H373.507L376.978 75.5H375.778L372.953 67.5412H372.879L370.054 75.5ZM370.497 71.8068H375.335V72.8224H370.497V71.8068ZM378.321 75.5V66.0455H379.466V74.4844H383.861V75.5H378.321ZM385.504 75.5V66.0455H386.648V74.4844H391.043V75.5H385.504ZM391.429 66.0455H392.74L395.362 70.4588H395.473L398.095 66.0455H399.406L395.99 71.6037V75.5H394.845V71.6037L391.429 66.0455ZM407.201 75.5H404.283V66.0455H407.33C408.247 66.0455 409.032 66.2347 409.685 66.6133C410.337 66.9888 410.837 67.5289 411.185 68.2337C411.533 68.9354 411.707 69.7756 411.707 70.7543C411.707 71.7391 411.531 72.587 411.18 73.2979C410.83 74.0058 410.319 74.5505 409.648 74.9322C408.977 75.3107 408.161 75.5 407.201 75.5ZM405.428 74.4844H407.127C407.909 74.4844 408.557 74.3336 409.071 74.032C409.585 73.7304 409.968 73.301 410.22 72.744C410.473 72.1869 410.599 71.5237 410.599 70.7543C410.599 69.991 410.474 69.3339 410.225 68.783C409.976 68.229 409.603 67.8043 409.108 67.5089C408.612 67.2103 407.995 67.0611 407.256 67.0611H405.428V74.4844ZM413.497 75.5V66.0455H419.203V67.0611H414.642V70.2557H418.908V71.2713H414.642V74.4844H419.277V75.5H413.497ZM420.62 67.0611V66.0455H427.711V67.0611H424.738V75.5H423.593V67.0611H420.62ZM429.348 75.5V66.0455H435.054V67.0611H430.492V70.2557H434.758V71.2713H430.492V74.4844H435.127V75.5H429.348ZM444.595 69H443.45C443.382 68.6707 443.264 68.3814 443.095 68.1321C442.929 67.8828 442.725 67.6735 442.485 67.5043C442.248 67.3319 441.985 67.2027 441.696 67.1165C441.407 67.0303 441.105 66.9872 440.791 66.9872C440.219 66.9872 439.7 67.1319 439.235 67.4212C438.774 67.7105 438.406 68.1367 438.132 68.6999C437.861 69.2631 437.726 69.9541 437.726 70.7727C437.726 71.5914 437.861 72.2823 438.132 72.8455C438.406 73.4087 438.774 73.835 439.235 74.1243C439.7 74.4136 440.219 74.5582 440.791 74.5582C441.105 74.5582 441.407 74.5152 441.696 74.429C441.985 74.3428 442.248 74.2151 442.485 74.0458C442.725 73.8735 442.929 73.6626 443.095 73.4134C443.264 73.161 443.382 72.8717 443.45 72.5455H444.595C444.509 73.0286 444.352 73.4611 444.124 73.8427C443.896 74.2243 443.613 74.549 443.275 74.8168C442.936 75.0814 442.556 75.283 442.134 75.4215C441.716 75.56 441.268 75.6293 440.791 75.6293C439.985 75.6293 439.268 75.4323 438.64 75.0384C438.012 74.6444 437.518 74.0843 437.158 73.358C436.798 72.6316 436.618 71.7699 436.618 70.7727C436.618 69.7756 436.798 68.9138 437.158 68.1875C437.518 67.4612 438.012 66.901 438.64 66.5071C439.268 66.1132 439.985 65.9162 440.791 65.9162C441.268 65.9162 441.716 65.9854 442.134 66.1239C442.556 66.2624 442.936 66.4656 443.275 66.7333C443.613 66.998 443.896 67.3211 444.124 67.7028C444.352 68.0813 444.509 68.5137 444.595 69ZM446.315 75.5V66.0455H452.021V67.0611H447.46V70.2557H451.726V71.2713H447.46V74.4844H452.095V75.5H446.315ZM456.872 75.5H453.955V66.0455H457.002C457.919 66.0455 458.703 66.2347 459.356 66.6133C460.008 66.9888 460.509 67.5289 460.856 68.2337C461.204 68.9354 461.378 69.7756 461.378 70.7543C461.378 71.7391 461.203 72.587 460.852 73.2979C460.501 74.0058 459.99 74.5505 459.319 74.9322C458.648 75.3107 457.832 75.5 456.872 75.5ZM455.1 74.4844H456.798C457.58 74.4844 458.228 74.3336 458.742 74.032C459.256 73.7304 459.639 73.301 459.891 72.744C460.144 72.1869 460.27 71.5237 460.27 70.7543C460.27 69.991 460.145 69.3339 459.896 68.783C459.647 68.229 459.274 67.8043 458.779 67.5089C458.283 67.2103 457.666 67.0611 456.928 67.0611H455.1V74.4844Z" fill="#1E1E1E"/>
<path d="M308.509 100L308.646 99.233L312.038 96.0795C312.435 95.7102 312.766 95.3878 313.031 95.1122C313.298 94.8366 313.505 94.5781 313.653 94.3366C313.803 94.0952 313.901 93.8409 313.947 93.5739C313.998 93.267 313.971 93.0014 313.866 92.777C313.761 92.5526 313.595 92.3793 313.367 92.2571C313.14 92.1349 312.867 92.0739 312.549 92.0739C312.214 92.0739 311.909 92.1435 311.633 92.2827C311.357 92.419 311.129 92.6122 310.947 92.8622C310.765 93.1094 310.646 93.3977 310.589 93.7273H309.583C309.668 93.2159 309.863 92.767 310.167 92.3807C310.474 91.9943 310.85 91.6932 311.296 91.4773C311.745 91.2614 312.225 91.1534 312.737 91.1534C313.248 91.1534 313.681 91.2614 314.036 91.4773C314.391 91.6932 314.649 91.9844 314.808 92.3509C314.967 92.7173 315.009 93.125 314.935 93.5739C314.879 93.8977 314.766 94.2116 314.599 94.5156C314.431 94.8196 314.174 95.1591 313.828 95.5341C313.484 95.9062 313.018 96.3608 312.43 96.8977L310.129 98.9943L310.112 99.0625H314.168L314.015 100H308.509ZM318.485 100.119C317.842 100.119 317.325 99.9446 316.933 99.5952C316.541 99.2429 316.283 98.733 316.158 98.0653C316.033 97.3949 316.047 96.5852 316.2 95.6364C316.354 94.6932 316.605 93.8878 316.955 93.2202C317.304 92.5497 317.735 92.0384 318.246 91.6861C318.757 91.331 319.331 91.1534 319.967 91.1534C320.604 91.1534 321.119 91.331 321.514 91.6861C321.912 92.0412 322.176 92.5526 322.307 93.2202C322.44 93.8878 322.428 94.6932 322.269 95.6364C322.11 96.5852 321.855 97.3935 321.506 98.0611C321.156 98.7287 320.726 99.2386 320.215 99.5909C319.703 99.9432 319.127 100.119 318.485 100.119ZM318.638 99.1818C319.277 99.1818 319.824 98.875 320.279 98.2614C320.736 97.6449 321.058 96.7699 321.246 95.6364C321.371 94.8807 321.396 94.2372 321.323 93.706C321.249 93.1747 321.084 92.7699 320.828 92.4915C320.573 92.2131 320.235 92.0739 319.814 92.0739C319.183 92.0739 318.641 92.3849 318.186 93.0071C317.732 93.6264 317.411 94.5028 317.223 95.6364C317.098 96.392 317.071 97.0341 317.142 97.5625C317.213 98.0909 317.375 98.4929 317.628 98.7685C317.881 99.044 318.217 99.1818 318.638 99.1818ZM323.546 100H322.438L327.092 91.2727H328.183L329.938 100H328.83L327.45 92.6534H327.382L323.546 100ZM324.518 96.5909H328.984L328.83 97.5284H324.365L324.518 96.5909ZM335.61 97.3239L336.257 93.4545H337.263L336.172 100H335.166L335.354 98.892H335.286C335.081 99.2244 334.796 99.5071 334.429 99.7401C334.063 99.9702 333.632 100.085 333.138 100.085C332.729 100.085 332.379 99.9957 332.09 99.8168C331.803 99.6349 331.598 99.3622 331.476 98.9986C331.357 98.6321 331.343 98.1705 331.433 97.6136L332.132 93.4545H333.138L332.456 97.5455C332.379 98.0227 332.452 98.4034 332.674 98.6875C332.895 98.9716 333.215 99.1136 333.632 99.1136C333.882 99.1136 334.147 99.0497 334.425 98.9219C334.706 98.794 334.956 98.598 335.175 98.3338C335.397 98.0696 335.541 97.733 335.61 97.3239ZM340.127 102.591C339.638 102.591 339.229 102.528 338.9 102.403C338.57 102.281 338.306 102.119 338.107 101.918C337.908 101.719 337.758 101.506 337.655 101.278L338.559 100.716C338.627 100.835 338.715 100.972 338.823 101.125C338.931 101.281 339.094 101.416 339.313 101.53C339.535 101.646 339.846 101.705 340.246 101.705C340.772 101.705 341.232 101.577 341.627 101.321C342.022 101.065 342.266 100.665 342.36 100.119L342.565 98.7898H342.479C342.388 98.9091 342.262 99.0568 342.1 99.233C341.938 99.4062 341.721 99.5611 341.448 99.6974C341.175 99.831 340.826 99.8977 340.4 99.8977C339.868 99.8977 339.414 99.7727 339.036 99.5227C338.658 99.2727 338.387 98.9091 338.222 98.4318C338.06 97.9545 338.036 97.375 338.15 96.6932C338.261 96.0227 338.474 95.4389 338.789 94.9418C339.107 94.4418 339.499 94.0554 339.965 93.7827C340.431 93.5071 340.94 93.3693 341.491 93.3693C341.917 93.3693 342.243 93.4403 342.471 93.5824C342.701 93.7216 342.868 93.8807 342.974 94.0597C343.079 94.2358 343.158 94.3807 343.212 94.4943H343.315L343.485 93.4545H344.457L343.349 100.188C343.255 100.75 343.052 101.207 342.739 101.56C342.427 101.915 342.043 102.175 341.589 102.339C341.134 102.507 340.647 102.591 340.127 102.591ZM340.655 98.9943C341.056 98.9943 341.413 98.902 341.725 98.7173C342.04 98.5327 342.302 98.267 342.509 97.9205C342.717 97.5739 342.86 97.1591 342.94 96.6761C343.019 96.2045 343.013 95.7884 342.922 95.4276C342.832 95.0668 342.66 94.7841 342.407 94.5795C342.157 94.375 341.829 94.2727 341.422 94.2727C340.993 94.2727 340.623 94.3807 340.31 94.5966C340.001 94.8125 339.749 95.1023 339.556 95.4659C339.363 95.8295 339.229 96.233 339.155 96.6761C339.082 97.1307 339.084 97.5327 339.164 97.8821C339.243 98.2287 339.405 98.5014 339.65 98.7003C339.897 98.8963 340.232 98.9943 340.655 98.9943ZM352.518 91.1534C352.884 91.1562 353.239 91.2259 353.583 91.3622C353.927 91.4957 354.224 91.7202 354.474 92.0355C354.724 92.3509 354.894 92.7784 354.985 93.3182C355.079 93.8551 355.057 94.5312 354.921 95.3466C354.793 96.1136 354.609 96.794 354.367 97.3878C354.128 97.9787 353.842 98.4773 353.506 98.8835C353.171 99.2898 352.793 99.598 352.373 99.8082C351.955 100.016 351.503 100.119 351.018 100.119C350.535 100.119 350.114 100.023 349.756 99.8295C349.401 99.6335 349.126 99.3622 348.93 99.0156C348.736 98.6662 348.643 98.2614 348.648 97.8011H349.654C349.671 98.2102 349.79 98.5426 350.012 98.7983C350.236 99.054 350.583 99.1818 351.052 99.1818C351.725 99.1818 352.315 98.8935 352.82 98.3168C353.329 97.7372 353.677 96.8892 353.864 95.7727L353.796 95.8409C353.597 96.0795 353.377 96.2827 353.136 96.4503C352.894 96.6179 352.637 96.7457 352.364 96.8338C352.092 96.9219 351.807 96.9659 351.512 96.9659C351.001 96.9659 350.553 96.8381 350.17 96.5824C349.786 96.3267 349.503 95.9759 349.322 95.5298C349.14 95.0838 349.097 94.5739 349.194 94C349.285 93.4716 349.482 92.9915 349.786 92.5597C350.093 92.125 350.479 91.7798 350.945 91.5241C351.414 91.2685 351.938 91.1449 352.518 91.1534ZM352.484 92.0909C352.12 92.0909 351.776 92.1818 351.452 92.3636C351.128 92.5455 350.854 92.7912 350.63 93.1009C350.405 93.4105 350.262 93.7557 350.2 94.1364C350.143 94.483 350.168 94.7997 350.276 95.0866C350.384 95.3736 350.559 95.6023 350.8 95.7727C351.042 95.9432 351.336 96.0284 351.682 96.0284C351.961 96.0284 352.229 95.973 352.488 95.8622C352.746 95.7514 352.981 95.6009 353.191 95.4105C353.404 95.2173 353.582 94.9986 353.724 94.7543C353.866 94.5071 353.958 94.25 354.001 93.983C354.057 93.6477 354.032 93.3366 353.924 93.0497C353.816 92.7628 353.638 92.5312 353.391 92.3551C353.144 92.179 352.842 92.0909 352.484 92.0909ZM356.204 100H355.096L359.75 91.2727H360.841L362.596 100H361.488L360.108 92.6534H360.039L356.204 100ZM357.176 96.5909H361.642L361.488 97.5284H357.022L357.176 96.5909ZM365.284 91.2727H366.546L368.319 98.517H368.421L372.58 91.2727H373.841L372.392 100H371.404L372.512 93.3693H372.426L368.591 100H367.637L366.017 93.3693H365.932L364.824 100H363.836L365.284 91.2727Z" fill="#757575"/>
<path d="M410.016 91.4844L413.766 95.2344C414.07 95.5156 414.07 96.0078 413.766 96.2891C413.484 96.5938 412.992 96.5938 412.711 96.2891L410.25 93.8281V101C410.25 101.422 409.898 101.75 409.5 101.75C409.078 101.75 408.75 101.422 408.75 101V93.8281L406.266 96.2891C405.984 96.5938 405.492 96.5938 405.211 96.2891C404.906 96.0078 404.906 95.5156 405.211 95.2344L408.961 91.4844C409.242 91.1797 409.734 91.1797 410.016 91.4844Z" fill="#14AE5C"/>
<path d="M422.686 92.0455V101.5H420.973V93.712H420.918L418.706 95.1246V93.555L421.056 92.0455H422.686ZM425.433 101.5L429.453 93.5412V93.4766H424.786V92.0455H431.226V93.5089L427.21 101.5H425.433ZM435.893 101.629C435.229 101.629 434.638 101.515 434.121 101.288C433.607 101.06 433.201 100.743 432.902 100.337C432.603 99.9304 432.445 99.4611 432.426 98.9286H434.162C434.178 99.1841 434.262 99.4072 434.416 99.598C434.57 99.7857 434.775 99.9319 435.03 100.037C435.286 100.141 435.572 100.194 435.889 100.194C436.227 100.194 436.527 100.135 436.789 100.018C437.051 99.8981 437.255 99.7319 437.403 99.5195C437.551 99.3072 437.623 99.0625 437.62 98.7855C437.623 98.4993 437.549 98.2469 437.398 98.0284C437.248 97.8099 437.029 97.6391 436.743 97.516C436.46 97.3929 436.118 97.3313 435.718 97.3313H434.882V96.011H435.718C436.047 96.011 436.335 95.9541 436.581 95.8402C436.831 95.7263 437.026 95.5663 437.168 95.3601C437.309 95.1508 437.378 94.9092 437.375 94.6353C437.378 94.3675 437.318 94.1352 437.195 93.9382C437.075 93.7382 436.904 93.5827 436.683 93.4719C436.464 93.3612 436.207 93.3058 435.912 93.3058C435.623 93.3058 435.355 93.3581 435.109 93.4627C434.862 93.5674 434.664 93.7166 434.513 93.9105C434.362 94.1013 434.282 94.3291 434.273 94.5938H432.625C432.637 94.0644 432.79 93.5997 433.082 93.1996C433.377 92.7964 433.771 92.4825 434.264 92.2578C434.756 92.0301 435.309 91.9162 435.921 91.9162C436.552 91.9162 437.1 92.0347 437.565 92.2717C438.032 92.5056 438.394 92.821 438.65 93.218C438.905 93.6151 439.033 94.0536 439.033 94.5337C439.036 95.0662 438.879 95.5124 438.562 95.8725C438.248 96.2326 437.835 96.468 437.325 96.5788V96.6527C437.989 96.745 438.499 96.9912 438.853 97.3913C439.21 97.7884 439.387 98.2823 439.384 98.8732C439.384 99.4026 439.233 99.8765 438.931 100.295C438.633 100.711 438.22 101.037 437.694 101.274C437.171 101.511 436.571 101.629 435.893 101.629ZM441.737 101.602C441.457 101.602 441.217 101.503 441.017 101.306C440.817 101.109 440.718 100.869 440.721 100.586C440.718 100.309 440.817 100.072 441.017 99.875C441.217 99.678 441.457 99.5795 441.737 99.5795C442.008 99.5795 442.243 99.678 442.443 99.875C442.646 100.072 442.749 100.309 442.752 100.586C442.749 100.774 442.7 100.944 442.605 101.098C442.512 101.252 442.389 101.375 442.235 101.468C442.085 101.557 441.918 101.602 441.737 101.602ZM447.465 101.629C446.778 101.629 446.169 101.514 445.637 101.283C445.107 101.052 444.692 100.737 444.39 100.337C444.092 99.9335 443.944 99.4764 443.947 98.9656C443.944 98.5685 444.03 98.2038 444.205 97.8714C444.381 97.5391 444.618 97.2621 444.916 97.0405C445.218 96.8158 445.553 96.6727 445.923 96.6112V96.5465C445.436 96.4388 445.043 96.1911 444.741 95.8033C444.442 95.4124 444.295 94.9615 444.298 94.4506C444.295 93.9644 444.43 93.5304 444.704 93.1488C444.978 92.7672 445.353 92.4671 445.83 92.2486C446.307 92.027 446.852 91.9162 447.465 91.9162C448.071 91.9162 448.611 92.027 449.085 92.2486C449.562 92.4671 449.938 92.7672 450.211 93.1488C450.488 93.5304 450.627 93.9644 450.627 94.4506C450.627 94.9615 450.475 95.4124 450.17 95.8033C449.868 96.1911 449.479 96.4388 449.002 96.5465V96.6112C449.371 96.6727 449.704 96.8158 449.999 97.0405C450.298 97.2621 450.535 97.5391 450.71 97.8714C450.889 98.2038 450.978 98.5685 450.978 98.9656C450.978 99.4764 450.827 99.9335 450.525 100.337C450.224 100.737 449.808 101.052 449.279 101.283C448.753 101.514 448.148 101.629 447.465 101.629ZM447.465 100.309C447.819 100.309 448.126 100.249 448.388 100.129C448.65 100.006 448.853 99.8335 448.997 99.6119C449.142 99.3903 449.216 99.1348 449.219 98.8455C449.216 98.5439 449.137 98.2777 448.983 98.0469C448.833 97.813 448.625 97.6299 448.36 97.4975C448.099 97.3652 447.8 97.299 447.465 97.299C447.126 97.299 446.825 97.3652 446.56 97.4975C446.295 97.6299 446.086 97.813 445.932 98.0469C445.781 98.2777 445.707 98.5439 445.71 98.8455C445.707 99.1348 445.778 99.3903 445.923 99.6119C446.067 99.8304 446.271 100.001 446.532 100.124C446.797 100.247 447.108 100.309 447.465 100.309ZM447.465 96.0018C447.754 96.0018 448.009 95.9433 448.231 95.8263C448.456 95.7094 448.633 95.5463 448.762 95.337C448.891 95.1277 448.957 94.8861 448.96 94.6122C448.957 94.3414 448.893 94.1044 448.767 93.9013C448.64 93.6951 448.465 93.5366 448.24 93.4258C448.016 93.3119 447.757 93.255 447.465 93.255C447.166 93.255 446.903 93.3119 446.675 93.4258C446.451 93.5366 446.275 93.6951 446.149 93.9013C446.026 94.1044 445.966 94.3414 445.969 94.6122C445.966 94.8861 446.027 95.1277 446.154 95.337C446.283 95.5432 446.46 95.7063 446.684 95.8263C446.912 95.9433 447.172 96.0018 447.465 96.0018ZM457.551 99.7273V99.2287C457.551 98.8625 457.627 98.5254 457.781 98.2177C457.938 97.9099 458.166 97.6622 458.465 97.4744C458.763 97.2867 459.125 97.1928 459.549 97.1928C459.986 97.1928 460.353 97.2867 460.648 97.4744C460.944 97.6591 461.167 97.9053 461.318 98.2131C461.471 98.5208 461.548 98.8594 461.548 99.2287V99.7273C461.548 100.094 461.471 100.431 461.318 100.738C461.164 101.046 460.937 101.294 460.639 101.482C460.343 101.669 459.98 101.763 459.549 101.763C459.119 101.763 458.754 101.669 458.455 101.482C458.157 101.294 457.931 101.046 457.777 100.738C457.626 100.431 457.551 100.094 457.551 99.7273ZM458.755 99.2287V99.7273C458.755 99.9704 458.814 100.194 458.931 100.397C459.048 100.6 459.254 100.701 459.549 100.701C459.848 100.701 460.053 100.601 460.163 100.401C460.277 100.198 460.334 99.9735 460.334 99.7273V99.2287C460.334 98.9825 460.28 98.7578 460.173 98.5547C460.065 98.3485 459.857 98.2454 459.549 98.2454C459.26 98.2454 459.055 98.3485 458.935 98.5547C458.815 98.7578 458.755 98.9825 458.755 99.2287ZM452.745 94.3168V93.8182C452.745 93.4489 452.823 93.1103 452.98 92.8026C453.137 92.4948 453.365 92.2486 453.663 92.0639C453.962 91.8762 454.324 91.7823 454.748 91.7823C455.182 91.7823 455.547 91.8762 455.842 92.0639C456.141 92.2486 456.366 92.4948 456.516 92.8026C456.667 93.1103 456.743 93.4489 456.743 93.8182V94.3168C456.743 94.6861 456.666 95.0246 456.512 95.3324C456.361 95.6371 456.136 95.8817 455.838 96.0664C455.539 96.2511 455.176 96.3434 454.748 96.3434C454.314 96.3434 453.948 96.2511 453.65 96.0664C453.354 95.8817 453.129 95.6355 452.976 95.3278C452.822 95.02 452.745 94.683 452.745 94.3168ZM453.959 93.8182V94.3168C453.959 94.563 454.016 94.7876 454.13 94.9908C454.247 95.1908 454.453 95.2908 454.748 95.2908C455.044 95.2908 455.247 95.1908 455.358 94.9908C455.472 94.7876 455.528 94.563 455.528 94.3168V93.8182C455.528 93.572 455.475 93.3473 455.367 93.1442C455.259 92.938 455.053 92.8349 454.748 92.8349C454.456 92.8349 454.251 92.938 454.134 93.1442C454.017 93.3504 453.959 93.575 453.959 93.8182ZM453.271 101.5L459.771 92.0455H460.925L454.425 101.5H453.271Z" fill="#009951"/>
<path d="M321.5 117C321.5 117.438 321.156 117.75 320.75 117.75H309.25C308.812 117.75 308.5 117.438 308.5 117C308.5 116.594 308.812 116.25 309.25 116.25H320.75C321.156 116.25 321.5 116.594 321.5 117Z" fill="#007AFF"/>
<path d="M320.5 117C320.5 116.946 320.525 116.876 320.581 116.822C320.632 116.772 320.695 116.75 320.75 116.75V118.75C321.681 118.75 322.5 118.017 322.5 117H320.5ZM320.75 116.75H309.25V118.75H320.75V116.75ZM309.25 116.75C309.276 116.75 309.349 116.763 309.418 116.832C309.487 116.901 309.5 116.974 309.5 117H307.5C307.5 117.99 308.26 118.75 309.25 118.75V116.75ZM309.5 117C309.5 117.055 309.478 117.118 309.428 117.169C309.374 117.225 309.304 117.25 309.25 117.25V115.25C308.233 115.25 307.5 116.069 307.5 117H309.5ZM309.25 117.25H320.75V115.25H309.25V117.25ZM320.75 117.25C320.667 117.25 320.606 117.215 320.57 117.18C320.535 117.144 320.5 117.083 320.5 117H322.5C322.5 116.041 321.709 115.25 320.75 115.25V117.25Z" fill="#007AFF"/>
<path d="M334.891 115.12H333.451C333.396 114.812 333.292 114.541 333.142 114.308C332.991 114.074 332.806 113.875 332.588 113.712C332.369 113.549 332.125 113.426 331.854 113.343C331.586 113.26 331.301 113.218 331 113.218C330.455 113.218 329.967 113.355 329.536 113.629C329.108 113.903 328.77 114.304 328.521 114.834C328.274 115.363 328.151 116.009 328.151 116.773C328.151 117.542 328.274 118.192 328.521 118.721C328.77 119.25 329.11 119.65 329.541 119.921C329.972 120.192 330.456 120.327 330.995 120.327C331.294 120.327 331.577 120.287 331.844 120.207C332.115 120.124 332.36 120.003 332.578 119.843C332.797 119.683 332.982 119.487 333.132 119.256C333.286 119.022 333.393 118.755 333.451 118.453L334.891 118.458C334.814 118.922 334.665 119.35 334.444 119.741C334.225 120.129 333.943 120.464 333.599 120.748C333.257 121.028 332.866 121.245 332.426 121.398C331.986 121.552 331.506 121.629 330.986 121.629C330.167 121.629 329.438 121.435 328.798 121.048C328.157 120.657 327.653 120.098 327.283 119.372C326.917 118.645 326.734 117.779 326.734 116.773C326.734 115.763 326.919 114.897 327.288 114.174C327.657 113.447 328.162 112.89 328.802 112.502C329.442 112.112 330.17 111.916 330.986 111.916C331.487 111.916 331.955 111.989 332.389 112.133C332.826 112.275 333.219 112.484 333.566 112.761C333.914 113.035 334.202 113.37 334.43 113.767C334.657 114.161 334.811 114.612 334.891 115.12ZM338.421 121.657C337.972 121.657 337.565 121.574 337.202 121.408C336.839 121.238 336.551 120.994 336.339 120.674C336.13 120.354 336.025 119.961 336.025 119.496C336.025 119.096 336.102 118.767 336.256 118.509C336.41 118.25 336.618 118.045 336.879 117.895C337.141 117.744 337.433 117.63 337.756 117.553C338.079 117.476 338.409 117.417 338.744 117.377C339.169 117.328 339.514 117.288 339.778 117.257C340.043 117.224 340.235 117.17 340.355 117.096C340.475 117.022 340.535 116.902 340.535 116.736V116.703C340.535 116.3 340.422 115.988 340.194 115.766C339.969 115.545 339.634 115.434 339.187 115.434C338.723 115.434 338.356 115.537 338.089 115.743C337.824 115.946 337.641 116.173 337.539 116.422L336.242 116.126C336.396 115.696 336.621 115.348 336.916 115.083C337.215 114.815 337.558 114.621 337.946 114.501C338.333 114.378 338.741 114.317 339.169 114.317C339.452 114.317 339.752 114.351 340.069 114.418C340.389 114.483 340.688 114.603 340.965 114.778C341.245 114.954 341.474 115.205 341.653 115.531C341.831 115.854 341.92 116.274 341.92 116.791V121.5H340.572V120.531H340.517C340.428 120.709 340.294 120.884 340.115 121.057C339.937 121.229 339.708 121.372 339.427 121.486C339.147 121.6 338.812 121.657 338.421 121.657ZM338.721 120.549C339.103 120.549 339.429 120.474 339.7 120.323C339.974 120.172 340.181 119.975 340.323 119.732C340.468 119.486 340.54 119.223 340.54 118.942V118.028C340.491 118.078 340.395 118.124 340.254 118.167C340.115 118.207 339.957 118.242 339.778 118.273C339.6 118.301 339.426 118.327 339.257 118.352C339.087 118.373 338.946 118.392 338.832 118.407C338.564 118.441 338.319 118.498 338.098 118.578C337.879 118.658 337.704 118.773 337.572 118.924C337.442 119.072 337.378 119.269 337.378 119.515C337.378 119.857 337.504 120.115 337.756 120.29C338.009 120.463 338.33 120.549 338.721 120.549ZM343.629 121.5V114.409H344.963V115.536H345.037C345.166 115.154 345.394 114.854 345.72 114.635C346.049 114.414 346.422 114.303 346.837 114.303C346.923 114.303 347.025 114.306 347.142 114.312C347.262 114.318 347.356 114.326 347.424 114.335V115.656C347.368 115.64 347.27 115.623 347.128 115.605C346.987 115.583 346.845 115.572 346.703 115.572C346.377 115.572 346.086 115.642 345.831 115.78C345.579 115.916 345.378 116.105 345.231 116.348C345.083 116.588 345.009 116.862 345.009 117.17V121.5H343.629ZM352.217 114.409V115.517H348.344V114.409H352.217ZM349.383 112.71H350.763V119.418C350.763 119.686 350.803 119.887 350.883 120.023C350.963 120.155 351.066 120.246 351.192 120.295C351.321 120.341 351.462 120.364 351.612 120.364C351.723 120.364 351.82 120.357 351.903 120.341C351.986 120.326 352.051 120.314 352.097 120.304L352.346 121.445C352.266 121.475 352.152 121.506 352.005 121.537C351.857 121.571 351.672 121.589 351.451 121.592C351.088 121.598 350.749 121.534 350.435 121.398C350.121 121.263 349.867 121.054 349.673 120.771C349.479 120.487 349.383 120.132 349.383 119.704V112.71ZM357.035 121.5V112.045H362.963V113.273H358.462V116.154H362.653V117.377H358.462V120.272H363.018V121.5H357.035ZM364.627 121.5V114.409H365.962V115.536H366.035C366.165 115.154 366.392 114.854 366.719 114.635C367.048 114.414 367.42 114.303 367.836 114.303C367.922 114.303 368.024 114.306 368.141 114.312C368.261 114.318 368.354 114.326 368.422 114.335V115.656C368.367 115.64 368.268 115.623 368.127 115.605C367.985 115.583 367.844 115.572 367.702 115.572C367.376 115.572 367.085 115.642 366.829 115.78C366.577 115.916 366.377 116.105 366.229 116.348C366.082 116.588 366.008 116.862 366.008 117.17V121.5H364.627ZM369.487 121.5V114.409H370.821V115.536H370.895C371.024 115.154 371.252 114.854 371.578 114.635C371.907 114.414 372.28 114.303 372.695 114.303C372.781 114.303 372.883 114.306 373 114.312C373.12 114.318 373.214 114.326 373.281 114.335V115.656C373.226 115.64 373.128 115.623 372.986 115.605C372.844 115.583 372.703 115.572 372.561 115.572C372.235 115.572 371.944 115.642 371.689 115.78C371.436 115.916 371.236 116.105 371.089 116.348C370.941 116.588 370.867 116.862 370.867 117.17V121.5H369.487ZM377.079 121.643C376.414 121.643 375.834 121.491 375.338 121.186C374.843 120.881 374.458 120.455 374.184 119.907C373.91 119.359 373.773 118.719 373.773 117.987C373.773 117.251 373.91 116.608 374.184 116.057C374.458 115.506 374.843 115.078 375.338 114.774C375.834 114.469 376.414 114.317 377.079 114.317C377.744 114.317 378.324 114.469 378.819 114.774C379.315 115.078 379.699 115.506 379.973 116.057C380.247 116.608 380.384 117.251 380.384 117.987C380.384 118.719 380.247 119.359 379.973 119.907C379.699 120.455 379.315 120.881 378.819 121.186C378.324 121.491 377.744 121.643 377.079 121.643ZM377.083 120.484C377.514 120.484 377.871 120.371 378.155 120.143C378.438 119.915 378.647 119.612 378.782 119.233C378.921 118.855 378.99 118.438 378.99 117.982C378.99 117.53 378.921 117.114 378.782 116.736C378.647 116.354 378.438 116.048 378.155 115.817C377.871 115.586 377.514 115.471 377.083 115.471C376.65 115.471 376.289 115.586 376.003 115.817C375.72 116.048 375.509 116.354 375.371 116.736C375.235 117.114 375.168 117.53 375.168 117.982C375.168 118.438 375.235 118.855 375.371 119.233C375.509 119.612 375.72 119.915 376.003 120.143C376.289 120.371 376.65 120.484 377.083 120.484ZM381.795 121.5V114.409H383.129V115.536H383.203C383.332 115.154 383.56 114.854 383.886 114.635C384.216 114.414 384.588 114.303 385.003 114.303C385.09 114.303 385.191 114.306 385.308 114.312C385.428 114.318 385.522 114.326 385.59 114.335V115.656C385.534 115.64 385.436 115.623 385.294 115.605C385.153 115.583 385.011 115.572 384.87 115.572C384.543 115.572 384.253 115.642 383.997 115.78C383.745 115.916 383.545 116.105 383.397 116.348C383.249 116.588 383.175 116.862 383.175 117.17V121.5H381.795Z" fill="#2C2C2C"/>
<path d="M442.255 111.818V122H440.102V113.862H440.043L437.711 115.323V113.414L440.232 111.818H442.255ZM445.246 122.129C444.918 122.129 444.636 122.013 444.401 121.781C444.169 121.546 444.053 121.264 444.053 120.936C444.053 120.611 444.169 120.333 444.401 120.101C444.636 119.869 444.918 119.753 445.246 119.753C445.564 119.753 445.842 119.869 446.081 120.101C446.32 120.333 446.439 120.611 446.439 120.936C446.439 121.155 446.383 121.355 446.27 121.538C446.161 121.717 446.016 121.861 445.837 121.97C445.658 122.076 445.461 122.129 445.246 122.129ZM451.176 111.818V122H449.023V113.862H448.964L446.632 115.323V113.414L449.153 111.818H451.176ZM453.516 122V111.818H455.668V116.308H455.803L459.467 111.818H462.047L458.269 116.377L462.092 122H459.516L456.727 117.814L455.668 119.107V122H453.516Z" fill="#007AFF"/>
</g>
<rect x="308" y="16" width="16" height="16" rx="8" fill="#B8E8FF"/>
<path d="M321.594 23.875C321.594 21.707 320.422 19.7148 318.547 18.6016C316.643 17.5176 314.328 17.5176 312.453 18.6016C310.549 19.7148 309.406 21.707 309.406 23.875C309.406 26.0723 310.549 28.0645 312.453 29.1777C314.328 30.2617 316.643 30.2617 318.547 29.1777C320.422 28.0645 321.594 26.0723 321.594 23.875ZM308 23.875C308 21.209 309.406 18.748 311.75 17.4004C314.064 16.0527 316.906 16.0527 319.25 17.4004C321.564 18.748 323 21.209 323 23.875C323 26.5703 321.564 29.0312 319.25 30.3789C316.906 31.7266 314.064 31.7266 311.75 30.3789C309.406 29.0312 308 26.5703 308 23.875ZM315.5 21.0625C316.496 21.0625 317.404 21.6191 317.932 22.4688C318.43 23.3477 318.43 24.4316 317.932 25.2812C317.404 26.1602 316.496 26.6875 315.5 26.6875C314.475 26.6875 313.566 26.1602 313.039 25.2812C312.541 24.4316 312.541 23.3477 313.039 22.4688C313.566 21.6191 314.475 21.0625 315.5 21.0625Z" fill="#007AFF"/>
<path d="M20.5937 319V318.265L23.3543 315.243C23.6783 314.889 23.9451 314.581 24.1548 314.32C24.3644 314.056 24.5196 313.808 24.6203 313.577C24.7238 313.343 24.7755 313.098 24.7755 312.842C24.7755 312.548 24.7047 312.293 24.5631 312.078C24.4243 311.863 24.2337 311.697 23.9914 311.58C23.7491 311.463 23.4769 311.404 23.1747 311.404C22.8534 311.404 22.573 311.471 22.3334 311.604C22.0965 311.735 21.9128 311.919 21.7821 312.156C21.6541 312.392 21.5901 312.67 21.5901 312.989H20.6264C20.6264 312.499 20.7393 312.068 20.9653 311.698C21.1913 311.328 21.4989 311.039 21.8883 310.832C22.2803 310.625 22.72 310.522 23.2073 310.522C23.6974 310.522 24.1316 310.625 24.5101 310.832C24.8885 311.039 25.1852 311.318 25.4003 311.67C25.6154 312.021 25.7229 312.411 25.7229 312.842C25.7229 313.149 25.6671 313.45 25.5555 313.744C25.4466 314.035 25.256 314.361 24.9838 314.72C24.7142 315.077 24.3399 315.512 23.8607 316.027L21.9822 318.036V318.102H25.87V319H20.5937ZM30.1702 319.114C29.691 319.114 29.2595 319.019 28.8756 318.828C28.4918 318.638 28.1841 318.377 27.9527 318.044C27.7213 317.712 27.5947 317.334 27.5729 316.909H28.553C28.5911 317.288 28.7627 317.601 29.0676 317.848C29.3752 318.093 29.7428 318.216 30.1702 318.216C30.5133 318.216 30.8182 318.136 31.085 317.975C31.3545 317.814 31.5655 317.594 31.718 317.313C31.8732 317.03 31.9508 316.71 31.9508 316.354C31.9508 315.989 31.8704 315.664 31.7098 315.378C31.5519 315.089 31.3341 314.862 31.0564 314.696C30.7787 314.53 30.4615 314.445 30.1049 314.442C29.849 314.44 29.5862 314.479 29.3167 314.561C29.0472 314.64 28.8253 314.742 28.651 314.867L27.7036 314.753L28.21 310.636H32.5552V311.535H29.0594L28.7654 314.001H28.8144C28.9859 313.865 29.201 313.752 29.4596 313.662C29.7183 313.573 29.9878 313.528 30.2682 313.528C30.7801 313.528 31.2361 313.65 31.6363 313.895C32.0392 314.138 32.355 314.47 32.5837 314.892C32.8152 315.314 32.9309 315.796 32.9309 316.337C32.9309 316.871 32.8111 317.347 32.5715 317.767C32.3346 318.183 32.0079 318.513 31.5914 318.755C31.1748 318.995 30.7011 319.114 30.1702 319.114ZM38.2776 319H37.2158L40.2868 310.636H41.3323L44.4033 319H43.3415L40.8422 311.96H40.7769L38.2776 319ZM38.6696 315.733H42.9495V316.631H38.6696V315.733ZM49.5285 316.435V312.727H50.4923V319H49.5285V317.938H49.4631C49.3161 318.257 49.0874 318.528 48.7771 318.751C48.4667 318.971 48.0746 319.082 47.6009 319.082C47.2089 319.082 46.8604 318.996 46.5555 318.824C46.2505 318.65 46.011 318.389 45.8367 318.04C45.6625 317.689 45.5754 317.247 45.5754 316.713V312.727H46.5391V316.648C46.5391 317.105 46.6671 317.47 46.923 317.742C47.1817 318.014 47.5111 318.151 47.9113 318.151C48.1509 318.151 48.3945 318.089 48.6423 317.967C48.8928 317.844 49.1024 317.656 49.2712 317.403C49.4427 317.15 49.5285 316.827 49.5285 316.435ZM54.7894 321.483C54.3239 321.483 53.9237 321.423 53.5888 321.303C53.2539 321.186 52.9749 321.031 52.7516 320.838C52.5311 320.647 52.3555 320.443 52.2248 320.225L52.9926 319.686C53.0797 319.8 53.19 319.931 53.3234 320.078C53.4568 320.228 53.6392 320.357 53.8706 320.466C54.1047 320.578 54.411 320.634 54.7894 320.634C55.2958 320.634 55.7137 320.511 56.0432 320.266C56.3726 320.021 56.5373 319.637 56.5373 319.114V317.84H56.4556C56.3849 317.955 56.2841 318.096 56.1534 318.265C56.0255 318.431 55.8403 318.579 55.598 318.71C55.3585 318.838 55.0345 318.902 54.6261 318.902C54.1197 318.902 53.665 318.782 53.2621 318.543C52.8619 318.303 52.5447 317.955 52.3106 317.497C52.0792 317.04 51.9634 316.484 51.9634 315.831C51.9634 315.188 52.0764 314.629 52.3024 314.153C52.5284 313.673 52.8428 313.303 53.2458 313.042C53.6487 312.778 54.1143 312.646 54.6424 312.646C55.0508 312.646 55.3748 312.714 55.6144 312.85C55.8567 312.983 56.0418 313.136 56.1698 313.307C56.3005 313.476 56.4012 313.615 56.472 313.724H56.57V312.727H57.5011V319.18C57.5011 319.719 57.3786 320.157 57.1335 320.495C56.8912 320.835 56.5645 321.084 56.1534 321.242C55.7451 321.403 55.2904 321.483 54.7894 321.483ZM54.7568 318.036C55.1434 318.036 55.4701 317.948 55.7369 317.771C56.0037 317.594 56.2065 317.339 56.3454 317.007C56.4842 316.675 56.5536 316.277 56.5536 315.815C56.5536 315.363 56.4856 314.964 56.3495 314.618C56.2133 314.272 56.0119 314.001 55.7451 313.805C55.4782 313.609 55.1488 313.511 54.7568 313.511C54.3484 313.511 54.0081 313.615 53.7358 313.822C53.4663 314.029 53.2635 314.306 53.1273 314.655C52.9939 315.003 52.9272 315.39 52.9272 315.815C52.9272 316.25 52.9953 316.635 53.1314 316.97C53.2703 317.302 53.4745 317.564 53.744 317.754C54.0162 317.942 54.3538 318.036 54.7568 318.036Z" fill="black" fill-opacity="0.5"/>
<path d="M82.6152 319V318.265L85.3758 315.243C85.6998 314.889 85.9666 314.581 86.1762 314.32C86.3859 314.056 86.5411 313.808 86.6418 313.577C86.7453 313.343 86.797 313.098 86.797 312.842C86.797 312.548 86.7262 312.293 86.5846 312.078C86.4458 311.863 86.2552 311.697 86.0129 311.58C85.7706 311.463 85.4983 311.404 85.1961 311.404C84.8749 311.404 84.5945 311.471 84.3549 311.604C84.118 311.735 83.9342 311.919 83.8036 312.156C83.6756 312.392 83.6116 312.67 83.6116 312.989H82.6478C82.6478 312.499 82.7608 312.068 82.9868 311.698C83.2128 311.328 83.5204 311.039 83.9097 310.832C84.3018 310.625 84.7415 310.522 85.2288 310.522C85.7189 310.522 86.1531 310.625 86.5315 310.832C86.91 311.039 87.2067 311.318 87.4218 311.67C87.6369 312.021 87.7444 312.411 87.7444 312.842C87.7444 313.149 87.6886 313.45 87.577 313.744C87.4681 314.035 87.2775 314.361 87.0053 314.72C86.7357 315.077 86.3614 315.512 85.8822 316.027L84.0037 318.036V318.102H87.8914V319H82.6152ZM92.355 319.114C92.012 319.109 91.669 319.044 91.3259 318.918C90.9829 318.793 90.6698 318.582 90.3867 318.285C90.1035 317.986 89.8762 317.582 89.7047 317.072C89.5331 316.561 89.4474 315.918 89.4474 315.145C89.4474 314.404 89.5168 313.748 89.6557 313.176C89.7945 312.602 89.996 312.119 90.2601 311.727C90.5241 311.332 90.8427 311.032 91.2157 310.828C91.5914 310.624 92.0147 310.522 92.4857 310.522C92.954 310.522 93.3706 310.616 93.7354 310.804C94.1029 310.989 94.4024 311.248 94.6338 311.58C94.8652 311.912 95.015 312.294 95.083 312.727H94.0866C93.994 312.352 93.8143 312.04 93.5475 311.792C93.2807 311.544 92.9268 311.42 92.4857 311.42C91.8378 311.42 91.3273 311.702 90.9543 312.266C90.584 312.829 90.3975 313.62 90.3948 314.638H90.4602C90.6126 314.407 90.7937 314.21 91.0033 314.046C91.2157 313.88 91.4498 313.752 91.7057 313.662C91.9616 313.573 92.2325 313.528 92.5184 313.528C92.9976 313.528 93.4359 313.647 93.8334 313.887C94.2309 314.124 94.5494 314.452 94.789 314.871C95.0286 315.288 95.1484 315.766 95.1484 316.305C95.1484 316.822 95.0327 317.296 94.8012 317.726C94.5698 318.153 94.2445 318.494 93.8252 318.747C93.4087 318.997 92.9186 319.12 92.355 319.114ZM92.355 318.216C92.6981 318.216 93.0057 318.13 93.278 317.959C93.553 317.787 93.7694 317.557 93.9273 317.268C94.0879 316.98 94.1683 316.659 94.1683 316.305C94.1683 315.959 94.0907 315.644 93.9355 315.361C93.783 315.075 93.572 314.848 93.3025 314.679C93.0357 314.511 92.7308 314.426 92.3877 314.426C92.1291 314.426 91.8881 314.478 91.6649 314.581C91.4416 314.682 91.2456 314.821 91.0768 314.998C90.9107 315.175 90.7801 315.378 90.6848 315.606C90.5895 315.832 90.5418 316.071 90.5418 316.321C90.5418 316.653 90.6194 316.964 90.7746 317.252C90.9325 317.541 91.1476 317.773 91.4199 317.95C91.6948 318.127 92.0066 318.216 92.355 318.216ZM100.479 319H99.417L102.488 310.636H103.533L106.604 319H105.543L103.043 311.96H102.978L100.479 319ZM100.871 315.733H105.151V316.631H100.871V315.733ZM111.73 316.435V312.727H112.693V319H111.73V317.938H111.664C111.517 318.257 111.289 318.528 110.978 318.751C110.668 318.971 110.276 319.082 109.802 319.082C109.41 319.082 109.062 318.996 108.757 318.824C108.452 318.65 108.212 318.389 108.038 318.04C107.864 317.689 107.777 317.247 107.777 316.713V312.727H108.74V316.648C108.74 317.105 108.868 317.47 109.124 317.742C109.383 318.014 109.712 318.151 110.112 318.151C110.352 318.151 110.596 318.089 110.843 317.967C111.094 317.844 111.304 317.656 111.472 317.403C111.644 317.15 111.73 316.827 111.73 316.435ZM116.991 321.483C116.525 321.483 116.125 321.423 115.79 321.303C115.455 321.186 115.176 321.031 114.953 320.838C114.732 320.647 114.557 320.443 114.426 320.225L115.194 319.686C115.281 319.8 115.391 319.931 115.525 320.078C115.658 320.228 115.84 320.357 116.072 320.466C116.306 320.578 116.612 320.634 116.991 320.634C117.497 320.634 117.915 320.511 118.244 320.266C118.574 320.021 118.738 319.637 118.738 319.114V317.84H118.657C118.586 317.955 118.485 318.096 118.355 318.265C118.227 318.431 118.042 318.579 117.799 318.71C117.56 318.838 117.236 318.902 116.827 318.902C116.321 318.902 115.866 318.782 115.463 318.543C115.063 318.303 114.746 317.955 114.512 317.497C114.28 317.04 114.165 316.484 114.165 315.831C114.165 315.188 114.278 314.629 114.504 314.153C114.73 313.673 115.044 313.303 115.447 313.042C115.85 312.778 116.315 312.646 116.844 312.646C117.252 312.646 117.576 312.714 117.816 312.85C118.058 312.983 118.243 313.136 118.371 313.307C118.502 313.476 118.602 313.615 118.673 313.724H118.771V312.727H119.702V319.18C119.702 319.719 119.58 320.157 119.335 320.495C119.092 320.835 118.766 321.084 118.355 321.242C117.946 321.403 117.492 321.483 116.991 321.483ZM116.958 318.036C117.345 318.036 117.671 317.948 117.938 317.771C118.205 317.594 118.408 317.339 118.547 317.007C118.685 316.675 118.755 316.277 118.755 315.815C118.755 315.363 118.687 314.964 118.551 314.618C118.415 314.272 118.213 314.001 117.946 313.805C117.679 313.609 117.35 313.511 116.958 313.511C116.55 313.511 116.209 313.615 115.937 313.822C115.667 314.029 115.465 314.306 115.329 314.655C115.195 315.003 115.128 315.39 115.128 315.815C115.128 316.25 115.196 316.635 115.333 316.97C115.471 317.302 115.676 317.564 115.945 317.754C116.217 317.942 116.555 318.036 116.958 318.036Z" fill="black" fill-opacity="0.5"/>
<path d="M145.029 319V318.265L147.79 315.243C148.114 314.889 148.381 314.581 148.59 314.32C148.8 314.056 148.955 313.808 149.056 313.577C149.159 313.343 149.211 313.098 149.211 312.842C149.211 312.548 149.14 312.293 148.999 312.078C148.86 311.863 148.669 311.697 148.427 311.58C148.185 311.463 147.912 311.404 147.61 311.404C147.289 311.404 147.009 311.471 146.769 311.604C146.532 311.735 146.348 311.919 146.218 312.156C146.09 312.392 146.026 312.67 146.026 312.989H145.062C145.062 312.499 145.175 312.068 145.401 311.698C145.627 311.328 145.934 311.039 146.324 310.832C146.716 310.625 147.156 310.522 147.643 310.522C148.133 310.522 148.567 310.625 148.946 310.832C149.324 311.039 149.621 311.318 149.836 311.67C150.051 312.021 150.158 312.411 150.158 312.842C150.158 313.149 150.103 313.45 149.991 313.744C149.882 314.035 149.692 314.361 149.419 314.72C149.15 315.077 148.775 315.512 148.296 316.027L146.418 318.036V318.102H150.306V319H145.029ZM152.253 319L155.994 311.6V311.535H151.682V310.636H157.04V311.584L153.315 319H152.253ZM162.286 319H161.225L164.296 310.636H165.341L168.412 319H167.35L164.851 311.96H164.786L162.286 319ZM162.678 315.733H166.958V316.631H162.678V315.733ZM173.537 316.435V312.727H174.501V319H173.537V317.938H173.472C173.325 318.257 173.096 318.528 172.786 318.751C172.475 318.971 172.083 319.082 171.61 319.082C171.218 319.082 170.869 318.996 170.564 318.824C170.259 318.65 170.02 318.389 169.846 318.04C169.671 317.689 169.584 317.247 169.584 316.713V312.727H170.548V316.648C170.548 317.105 170.676 317.47 170.932 317.742C171.19 318.014 171.52 318.151 171.92 318.151C172.16 318.151 172.403 318.089 172.651 317.967C172.902 317.844 173.111 317.656 173.28 317.403C173.452 317.15 173.537 316.827 173.537 316.435ZM178.798 321.483C178.333 321.483 177.932 321.423 177.598 321.303C177.263 321.186 176.984 321.031 176.76 320.838C176.54 320.647 176.364 320.443 176.234 320.225L177.001 319.686C177.088 319.8 177.199 319.931 177.332 320.078C177.466 320.228 177.648 320.357 177.879 320.466C178.114 320.578 178.42 320.634 178.798 320.634C179.305 320.634 179.723 320.511 180.052 320.266C180.381 320.021 180.546 319.637 180.546 319.114V317.84H180.464C180.394 317.955 180.293 318.096 180.162 318.265C180.034 318.431 179.849 318.579 179.607 318.71C179.367 318.838 179.043 318.902 178.635 318.902C178.128 318.902 177.674 318.782 177.271 318.543C176.871 318.303 176.554 317.955 176.319 317.497C176.088 317.04 175.972 316.484 175.972 315.831C175.972 315.188 176.085 314.629 176.311 314.153C176.537 313.673 176.852 313.303 177.255 313.042C177.657 312.778 178.123 312.646 178.651 312.646C179.06 312.646 179.384 312.714 179.623 312.85C179.865 312.983 180.051 313.136 180.179 313.307C180.309 313.476 180.41 313.615 180.481 313.724H180.579V312.727H181.51V319.18C181.51 319.719 181.387 320.157 181.142 320.495C180.9 320.835 180.573 321.084 180.162 321.242C179.754 321.403 179.299 321.483 178.798 321.483ZM178.766 318.036C179.152 318.036 179.479 317.948 179.746 317.771C180.012 317.594 180.215 317.339 180.354 317.007C180.493 316.675 180.562 316.277 180.562 315.815C180.562 315.363 180.494 314.964 180.358 314.618C180.222 314.272 180.021 314.001 179.754 313.805C179.487 313.609 179.158 313.511 178.766 313.511C178.357 313.511 178.017 313.615 177.745 313.822C177.475 314.029 177.272 314.306 177.136 314.655C177.003 315.003 176.936 315.39 176.936 315.815C176.936 316.25 177.004 316.635 177.14 316.97C177.279 317.302 177.483 317.564 177.753 317.754C178.025 317.942 178.363 318.036 178.766 318.036Z" fill="black" fill-opacity="0.5"/>
<path d="M206.882 319V318.265L209.643 315.243C209.967 314.889 210.234 314.581 210.443 314.32C210.653 314.056 210.808 313.808 210.909 313.577C211.012 313.343 211.064 313.098 211.064 312.842C211.064 312.548 210.993 312.293 210.852 312.078C210.713 311.863 210.522 311.697 210.28 311.58C210.038 311.463 209.765 311.404 209.463 311.404C209.142 311.404 208.862 311.471 208.622 311.604C208.385 311.735 208.201 311.919 208.071 312.156C207.943 312.392 207.879 312.67 207.879 312.989H206.915C206.915 312.499 207.028 312.068 207.254 311.698C207.48 311.328 207.788 311.039 208.177 310.832C208.569 310.625 209.009 310.522 209.496 310.522C209.986 310.522 210.42 310.625 210.799 310.832C211.177 311.039 211.474 311.318 211.689 311.67C211.904 312.021 212.012 312.411 212.012 312.842C212.012 313.149 211.956 313.45 211.844 313.744C211.735 314.035 211.545 314.361 211.272 314.72C211.003 315.077 210.628 315.512 210.149 316.027L208.271 318.036V318.102H212.159V319H206.882ZM216.524 319.114C215.963 319.114 215.468 319.015 215.038 318.816C214.61 318.615 214.277 318.338 214.037 317.987C213.798 317.633 213.679 317.23 213.682 316.778C213.679 316.424 213.749 316.098 213.89 315.798C214.032 315.496 214.225 315.244 214.47 315.043C214.718 314.839 214.994 314.709 215.299 314.655V314.606C214.899 314.502 214.58 314.278 214.343 313.932C214.107 313.584 213.989 313.187 213.992 312.744C213.989 312.319 214.097 311.939 214.315 311.604C214.533 311.269 214.832 311.005 215.213 310.812C215.597 310.619 216.034 310.522 216.524 310.522C217.009 310.522 217.442 310.619 217.823 310.812C218.204 311.005 218.503 311.269 218.721 311.604C218.942 311.939 219.053 312.319 219.056 312.744C219.053 313.187 218.932 313.584 218.693 313.932C218.456 314.278 218.141 314.502 217.749 314.606V314.655C218.051 314.709 218.324 314.839 218.566 315.043C218.808 315.244 219.002 315.496 219.146 315.798C219.29 316.098 219.364 316.424 219.366 316.778C219.364 317.23 219.241 317.633 218.999 317.987C218.759 318.338 218.426 318.615 217.998 318.816C217.574 319.015 217.082 319.114 216.524 319.114ZM216.524 318.216C216.903 318.216 217.229 318.155 217.504 318.032C217.779 317.91 217.992 317.737 218.141 317.513C218.291 317.29 218.367 317.029 218.37 316.729C218.367 316.414 218.286 316.135 218.125 315.892C217.964 315.65 217.745 315.459 217.467 315.32C217.193 315.182 216.878 315.112 216.524 315.112C216.167 315.112 215.849 315.182 215.569 315.32C215.291 315.459 215.072 315.65 214.911 315.892C214.753 316.135 214.676 316.414 214.678 316.729C214.676 317.029 214.748 317.29 214.895 317.513C215.044 317.737 215.258 317.91 215.536 318.032C215.814 318.155 216.143 318.216 216.524 318.216ZM216.524 314.246C216.824 314.246 217.089 314.187 217.32 314.067C217.555 313.947 217.738 313.78 217.872 313.564C218.005 313.349 218.073 313.098 218.076 312.809C218.073 312.526 218.007 312.279 217.876 312.07C217.745 311.857 217.564 311.694 217.333 311.58C217.101 311.463 216.832 311.404 216.524 311.404C216.211 311.404 215.937 311.463 215.703 311.58C215.469 311.694 215.288 311.857 215.16 312.07C215.032 312.279 214.97 312.526 214.972 312.809C214.97 313.098 215.034 313.349 215.164 313.564C215.298 313.78 215.481 313.947 215.716 314.067C215.95 314.187 216.219 314.246 216.524 314.246ZM224.656 319H223.594L226.665 310.636H227.711L230.782 319H229.72L227.221 311.96H227.155L224.656 319ZM225.048 315.733H229.328V316.631H225.048V315.733ZM235.907 316.435V312.727H236.871V319H235.907V317.938H235.842C235.695 318.257 235.466 318.528 235.155 318.751C234.845 318.971 234.453 319.082 233.979 319.082C233.587 319.082 233.239 318.996 232.934 318.824C232.629 318.65 232.389 318.389 232.215 318.04C232.041 317.689 231.954 317.247 231.954 316.713V312.727H232.918V316.648C232.918 317.105 233.046 317.47 233.301 317.742C233.56 318.014 233.889 318.151 234.29 318.151C234.529 318.151 234.773 318.089 235.021 317.967C235.271 317.844 235.481 317.656 235.65 317.403C235.821 317.15 235.907 316.827 235.907 316.435ZM241.168 321.483C240.702 321.483 240.302 321.423 239.967 321.303C239.632 321.186 239.353 321.031 239.13 320.838C238.91 320.647 238.734 320.443 238.603 320.225L239.371 319.686C239.458 319.8 239.568 319.931 239.702 320.078C239.835 320.228 240.018 320.357 240.249 320.466C240.483 320.578 240.789 320.634 241.168 320.634C241.674 320.634 242.092 320.511 242.422 320.266C242.751 320.021 242.916 319.637 242.916 319.114V317.84H242.834C242.763 317.955 242.663 318.096 242.532 318.265C242.404 318.431 242.219 318.579 241.976 318.71C241.737 318.838 241.413 318.902 241.005 318.902C240.498 318.902 240.043 318.782 239.641 318.543C239.24 318.303 238.923 317.955 238.689 317.497C238.458 317.04 238.342 316.484 238.342 315.831C238.342 315.188 238.455 314.629 238.681 314.153C238.907 313.673 239.221 313.303 239.624 313.042C240.027 312.778 240.493 312.646 241.021 312.646C241.429 312.646 241.753 312.714 241.993 312.85C242.235 312.983 242.42 313.136 242.548 313.307C242.679 313.476 242.78 313.615 242.85 313.724H242.948V312.727H243.88V319.18C243.88 319.719 243.757 320.157 243.512 320.495C243.27 320.835 242.943 321.084 242.532 321.242C242.123 321.403 241.669 321.483 241.168 321.483ZM241.135 318.036C241.522 318.036 241.848 317.948 242.115 317.771C242.382 317.594 242.585 317.339 242.724 317.007C242.863 316.675 242.932 316.277 242.932 315.815C242.932 315.363 242.864 314.964 242.728 314.618C242.592 314.272 242.39 314.001 242.123 313.805C241.857 313.609 241.527 313.511 241.135 313.511C240.727 313.511 240.386 313.615 240.114 313.822C239.845 314.029 239.642 314.306 239.506 314.655C239.372 315.003 239.306 315.39 239.306 315.815C239.306 316.25 239.374 316.635 239.51 316.97C239.649 317.302 239.853 317.564 240.122 317.754C240.395 317.942 240.732 318.036 241.135 318.036Z" fill="black" fill-opacity="0.5"/>
<path d="M268.948 319V318.265L271.709 315.243C272.033 314.889 272.3 314.581 272.509 314.32C272.719 314.056 272.874 313.808 272.975 313.577C273.078 313.343 273.13 313.098 273.13 312.842C273.13 312.548 273.059 312.293 272.918 312.078C272.779 311.863 272.588 311.697 272.346 311.58C272.104 311.463 271.831 311.404 271.529 311.404C271.208 311.404 270.927 311.471 270.688 311.604C270.451 311.735 270.267 311.919 270.137 312.156C270.009 312.392 269.945 312.67 269.945 312.989H268.981C268.981 312.499 269.094 312.068 269.32 311.698C269.546 311.328 269.853 311.039 270.243 310.832C270.635 310.625 271.074 310.522 271.562 310.522C272.052 310.522 272.486 310.625 272.865 310.832C273.243 311.039 273.54 311.318 273.755 311.67C273.97 312.021 274.077 312.411 274.077 312.842C274.077 313.149 274.022 313.45 273.91 313.744C273.801 314.035 273.611 314.361 273.338 314.72C273.069 315.077 272.694 315.512 272.215 316.027L270.337 318.036V318.102H274.224V319H268.948ZM278.574 310.522C278.917 310.525 279.26 310.59 279.603 310.718C279.946 310.846 280.259 311.058 280.542 311.355C280.825 311.649 281.053 312.051 281.224 312.56C281.396 313.069 281.481 313.707 281.481 314.475C281.481 315.218 281.411 315.879 281.269 316.456C281.13 317.03 280.929 317.515 280.665 317.91C280.403 318.304 280.085 318.604 279.709 318.808C279.336 319.012 278.914 319.114 278.443 319.114C277.975 319.114 277.557 319.022 277.189 318.837C276.824 318.649 276.525 318.389 276.291 318.057C276.059 317.722 275.911 317.334 275.846 316.893H276.842C276.932 317.277 277.11 317.594 277.377 317.844C277.647 318.092 278.002 318.216 278.443 318.216C279.088 318.216 279.597 317.934 279.97 317.371C280.346 316.807 280.534 316.011 280.534 314.982H280.469C280.316 315.21 280.135 315.408 279.925 315.574C279.716 315.74 279.483 315.868 279.227 315.958C278.971 316.047 278.699 316.092 278.41 316.092C277.931 316.092 277.491 315.974 277.091 315.737C276.694 315.497 276.375 315.169 276.136 314.753C275.899 314.334 275.78 313.854 275.78 313.315C275.78 312.804 275.895 312.335 276.123 311.911C276.355 311.483 276.679 311.143 277.095 310.89C277.515 310.636 278.007 310.514 278.574 310.522ZM278.574 311.42C278.231 311.42 277.922 311.506 277.647 311.678C277.374 311.847 277.158 312.075 276.997 312.364C276.839 312.65 276.76 312.967 276.76 313.315C276.76 313.664 276.837 313.981 276.989 314.267C277.144 314.55 277.355 314.776 277.622 314.945C277.892 315.111 278.198 315.194 278.541 315.194C278.8 315.194 279.041 315.144 279.264 315.043C279.487 314.939 279.682 314.799 279.848 314.622C280.017 314.442 280.149 314.24 280.244 314.014C280.339 313.785 280.387 313.547 280.387 313.299C280.387 312.972 280.308 312.666 280.15 312.38C279.995 312.094 279.78 311.863 279.505 311.686C279.233 311.509 278.922 311.42 278.574 311.42ZM286.812 319H285.75L288.821 310.636H289.866L292.937 319H291.876L289.376 311.96H289.311L286.812 319ZM287.204 315.733H291.484V316.631H287.204V315.733ZM298.063 316.435V312.727H299.026V319H298.063V317.938H297.997C297.85 318.257 297.622 318.528 297.311 318.751C297.001 318.971 296.609 319.082 296.135 319.082C295.743 319.082 295.395 318.996 295.09 318.824C294.785 318.65 294.545 318.389 294.371 318.04C294.197 317.689 294.11 317.247 294.11 316.713V312.727H295.073V316.648C295.073 317.105 295.201 317.47 295.457 317.742C295.716 318.014 296.045 318.151 296.445 318.151C296.685 318.151 296.929 318.089 297.176 317.967C297.427 317.844 297.637 317.656 297.805 317.403C297.977 317.15 298.063 316.827 298.063 316.435ZM303.324 321.483C302.858 321.483 302.458 321.423 302.123 321.303C301.788 321.186 301.509 321.031 301.286 320.838C301.065 320.647 300.89 320.443 300.759 320.225L301.527 319.686C301.614 319.8 301.724 319.931 301.858 320.078C301.991 320.228 302.173 320.357 302.405 320.466C302.639 320.578 302.945 320.634 303.324 320.634C303.83 320.634 304.248 320.511 304.577 320.266C304.907 320.021 305.071 319.637 305.071 319.114V317.84H304.99C304.919 317.955 304.818 318.096 304.688 318.265C304.56 318.431 304.375 318.579 304.132 318.71C303.893 318.838 303.569 318.902 303.16 318.902C302.654 318.902 302.199 318.782 301.796 318.543C301.396 318.303 301.079 317.955 300.845 317.497C300.613 317.04 300.498 316.484 300.498 315.831C300.498 315.188 300.611 314.629 300.837 314.153C301.063 313.673 301.377 313.303 301.78 313.042C302.183 312.778 302.648 312.646 303.177 312.646C303.585 312.646 303.909 312.714 304.149 312.85C304.391 312.983 304.576 313.136 304.704 313.307C304.835 313.476 304.935 313.615 305.006 313.724H305.104V312.727H306.035V319.18C306.035 319.719 305.913 320.157 305.668 320.495C305.425 320.835 305.099 321.084 304.688 321.242C304.279 321.403 303.825 321.483 303.324 321.483ZM303.291 318.036C303.678 318.036 304.004 317.948 304.271 317.771C304.538 317.594 304.741 317.339 304.88 317.007C305.018 316.675 305.088 316.277 305.088 315.815C305.088 315.363 305.02 314.964 304.884 314.618C304.748 314.272 304.546 314.001 304.279 313.805C304.012 313.609 303.683 313.511 303.291 313.511C302.883 313.511 302.542 313.615 302.27 313.822C302 314.029 301.798 314.306 301.662 314.655C301.528 315.003 301.461 315.39 301.461 315.815C301.461 316.25 301.529 316.635 301.666 316.97C301.804 317.302 302.009 317.564 302.278 317.754C302.55 317.942 302.888 318.036 303.291 318.036Z" fill="black" fill-opacity="0.5"/>
<path d="M333.7 319.114C333.161 319.114 332.681 319.022 332.259 318.837C331.839 318.652 331.506 318.394 331.258 318.065C331.013 317.733 330.88 317.347 330.858 316.909H331.887C331.909 317.179 332.001 317.411 332.165 317.607C332.328 317.801 332.542 317.95 332.806 318.057C333.07 318.163 333.363 318.216 333.684 318.216C334.043 318.216 334.362 318.153 334.639 318.028C334.917 317.903 335.135 317.729 335.293 317.505C335.451 317.282 335.53 317.023 335.53 316.729C335.53 316.422 335.454 316.151 335.301 315.917C335.149 315.68 334.925 315.495 334.631 315.361C334.337 315.228 333.978 315.161 333.553 315.161H332.883V314.263H333.553C333.885 314.263 334.177 314.203 334.427 314.083C334.68 313.963 334.878 313.795 335.019 313.577C335.164 313.359 335.236 313.103 335.236 312.809C335.236 312.526 335.173 312.279 335.048 312.07C334.923 311.86 334.746 311.697 334.517 311.58C334.291 311.463 334.024 311.404 333.717 311.404C333.428 311.404 333.156 311.457 332.9 311.563C332.647 311.667 332.44 311.818 332.279 312.017C332.118 312.213 332.031 312.45 332.018 312.727H331.038C331.054 312.289 331.186 311.905 331.434 311.576C331.681 311.243 332.005 310.985 332.406 310.8C332.809 310.615 333.251 310.522 333.733 310.522C334.25 310.522 334.694 310.627 335.064 310.836C335.434 311.043 335.719 311.317 335.918 311.657C336.116 311.998 336.216 312.365 336.216 312.76C336.216 313.231 336.092 313.633 335.844 313.965C335.599 314.297 335.266 314.527 334.844 314.655V314.72C335.372 314.807 335.784 315.032 336.081 315.394C336.378 315.753 336.526 316.199 336.526 316.729C336.526 317.184 336.402 317.592 336.155 317.955C335.91 318.314 335.575 318.597 335.15 318.804C334.725 319.011 334.242 319.114 333.7 319.114ZM340.924 319.114C340.309 319.114 339.785 318.947 339.352 318.612C338.919 318.274 338.589 317.786 338.36 317.146C338.131 316.503 338.017 315.728 338.017 314.818C338.017 313.914 338.131 313.142 338.36 312.503C338.591 311.86 338.923 311.37 339.356 311.032C339.792 310.692 340.315 310.522 340.924 310.522C341.534 310.522 342.056 310.692 342.489 311.032C342.924 311.37 343.256 311.86 343.485 312.503C343.716 313.142 343.832 313.914 343.832 314.818C343.832 315.728 343.718 316.503 343.489 317.146C343.26 317.786 342.93 318.274 342.497 318.612C342.064 318.947 341.54 319.114 340.924 319.114ZM340.924 318.216C341.534 318.216 342.008 317.922 342.346 317.334C342.683 316.746 342.852 315.907 342.852 314.818C342.852 314.094 342.774 313.477 342.619 312.968C342.467 312.459 342.246 312.071 341.958 311.804C341.672 311.538 341.327 311.404 340.924 311.404C340.32 311.404 339.848 311.702 339.507 312.298C339.167 312.892 338.997 313.732 338.997 314.818C338.997 315.542 339.073 316.158 339.226 316.664C339.378 317.17 339.597 317.556 339.883 317.82C340.172 318.084 340.519 318.216 340.924 318.216ZM349.108 319H348.047L351.118 310.636H352.163L355.234 319H354.172L351.673 311.96H351.608L349.108 319ZM349.5 315.733H353.78V316.631H349.5V315.733ZM360.359 316.435V312.727H361.323V319H360.359V317.938H360.294C360.147 318.257 359.918 318.528 359.608 318.751C359.297 318.971 358.905 319.082 358.432 319.082C358.04 319.082 357.691 318.996 357.386 318.824C357.081 318.65 356.842 318.389 356.668 318.04C356.493 317.689 356.406 317.247 356.406 316.713V312.727H357.37V316.648C357.37 317.105 357.498 317.47 357.754 317.742C358.012 318.014 358.342 318.151 358.742 318.151C358.982 318.151 359.225 318.089 359.473 317.967C359.724 317.844 359.933 317.656 360.102 317.403C360.274 317.15 360.359 316.827 360.359 316.435ZM365.62 321.483C365.155 321.483 364.754 321.423 364.42 321.303C364.085 321.186 363.806 321.031 363.582 320.838C363.362 320.647 363.186 320.443 363.056 320.225L363.823 319.686C363.91 319.8 364.021 319.931 364.154 320.078C364.288 320.228 364.47 320.357 364.701 320.466C364.936 320.578 365.242 320.634 365.62 320.634C366.127 320.634 366.545 320.511 366.874 320.266C367.203 320.021 367.368 319.637 367.368 319.114V317.84H367.286C367.216 317.955 367.115 318.096 366.984 318.265C366.856 318.431 366.671 318.579 366.429 318.71C366.189 318.838 365.865 318.902 365.457 318.902C364.951 318.902 364.496 318.782 364.093 318.543C363.693 318.303 363.376 317.955 363.141 317.497C362.91 317.04 362.794 316.484 362.794 315.831C362.794 315.188 362.907 314.629 363.133 314.153C363.359 313.673 363.674 313.303 364.077 313.042C364.48 312.778 364.945 312.646 365.473 312.646C365.882 312.646 366.206 312.714 366.445 312.85C366.687 312.983 366.873 313.136 367.001 313.307C367.131 313.476 367.232 313.615 367.303 313.724H367.401V312.727H368.332V319.18C368.332 319.719 368.209 320.157 367.964 320.495C367.722 320.835 367.395 321.084 366.984 321.242C366.576 321.403 366.121 321.483 365.62 321.483ZM365.588 318.036C365.974 318.036 366.301 317.948 366.568 317.771C366.835 317.594 367.037 317.339 367.176 317.007C367.315 316.675 367.384 316.277 367.384 315.815C367.384 315.363 367.316 314.964 367.18 314.618C367.044 314.272 366.843 314.001 366.576 313.805C366.309 313.609 365.98 313.511 365.588 313.511C365.179 313.511 364.839 313.615 364.567 313.822C364.297 314.029 364.094 314.306 363.958 314.655C363.825 315.003 363.758 315.39 363.758 315.815C363.758 316.25 363.826 316.635 363.962 316.97C364.101 317.302 364.305 317.564 364.575 317.754C364.847 317.942 365.185 318.036 365.588 318.036Z" fill="black" fill-opacity="0.5"/>
<path d="M396.732 319.114C396.193 319.114 395.712 319.022 395.29 318.837C394.871 318.652 394.538 318.394 394.29 318.065C394.045 317.733 393.911 317.347 393.89 316.909H394.919C394.941 317.179 395.033 317.411 395.196 317.607C395.36 317.801 395.573 317.95 395.838 318.057C396.102 318.163 396.394 318.216 396.716 318.216C397.075 318.216 397.394 318.153 397.671 318.028C397.949 317.903 398.167 317.729 398.325 317.505C398.483 317.282 398.561 317.023 398.561 316.729C398.561 316.422 398.485 316.151 398.333 315.917C398.18 315.68 397.957 315.495 397.663 315.361C397.369 315.228 397.01 315.161 396.585 315.161H395.915V314.263H396.585C396.917 314.263 397.208 314.203 397.459 314.083C397.712 313.963 397.909 313.795 398.051 313.577C398.195 313.359 398.267 313.103 398.267 312.809C398.267 312.526 398.205 312.279 398.08 312.07C397.954 311.86 397.777 311.697 397.549 311.58C397.323 311.463 397.056 311.404 396.748 311.404C396.46 311.404 396.187 311.457 395.932 311.563C395.678 311.667 395.471 311.818 395.311 312.017C395.15 312.213 395.063 312.45 395.049 312.727H394.069C394.086 312.289 394.218 311.905 394.465 311.576C394.713 311.243 395.037 310.985 395.437 310.8C395.84 310.615 396.283 310.522 396.765 310.522C397.282 310.522 397.726 310.627 398.096 310.836C398.466 311.043 398.751 311.317 398.949 311.657C399.148 311.998 399.248 312.365 399.248 312.76C399.248 313.231 399.124 313.633 398.876 313.965C398.631 314.297 398.297 314.527 397.875 314.655V314.72C398.404 314.807 398.816 315.032 399.113 315.394C399.41 315.753 399.558 316.199 399.558 316.729C399.558 317.184 399.434 317.592 399.186 317.955C398.941 318.314 398.606 318.597 398.182 318.804C397.757 319.011 397.274 319.114 396.732 319.114ZM404.169 310.636V319H403.156V311.698H403.107L401.065 313.054V312.025L403.156 310.636H404.169ZM410.298 319H409.237L412.308 310.636H413.353L416.424 319H415.362L412.863 311.96H412.798L410.298 319ZM410.69 315.733H414.97V316.631H410.69V315.733ZM421.549 316.435V312.727H422.513V319H421.549V317.938H421.484C421.337 318.257 421.108 318.528 420.798 318.751C420.487 318.971 420.095 319.082 419.622 319.082C419.23 319.082 418.881 318.996 418.576 318.824C418.271 318.65 418.032 318.389 417.857 318.04C417.683 317.689 417.596 317.247 417.596 316.713V312.727H418.56V316.648C418.56 317.105 418.688 317.47 418.944 317.742C419.202 318.014 419.532 318.151 419.932 318.151C420.172 318.151 420.415 318.089 420.663 317.967C420.914 317.844 421.123 317.656 421.292 317.403C421.463 317.15 421.549 316.827 421.549 316.435ZM426.81 321.483C426.345 321.483 425.944 321.423 425.61 321.303C425.275 321.186 424.996 321.031 424.772 320.838C424.552 320.647 424.376 320.443 424.246 320.225L425.013 319.686C425.1 319.8 425.211 319.931 425.344 320.078C425.478 320.228 425.66 320.357 425.891 320.466C426.125 320.578 426.432 320.634 426.81 320.634C427.317 320.634 427.734 320.511 428.064 320.266C428.393 320.021 428.558 319.637 428.558 319.114V317.84H428.476C428.406 317.955 428.305 318.096 428.174 318.265C428.046 318.431 427.861 318.579 427.619 318.71C427.379 318.838 427.055 318.902 426.647 318.902C426.14 318.902 425.686 318.782 425.283 318.543C424.883 318.303 424.565 317.955 424.331 317.497C424.1 317.04 423.984 316.484 423.984 315.831C423.984 315.188 424.097 314.629 424.323 314.153C424.549 313.673 424.864 313.303 425.267 313.042C425.669 312.778 426.135 312.646 426.663 312.646C427.072 312.646 427.396 312.714 427.635 312.85C427.877 312.983 428.063 313.136 428.191 313.307C428.321 313.476 428.422 313.615 428.493 313.724H428.591V312.727H429.522V319.18C429.522 319.719 429.399 320.157 429.154 320.495C428.912 320.835 428.585 321.084 428.174 321.242C427.766 321.403 427.311 321.483 426.81 321.483ZM426.778 318.036C427.164 318.036 427.491 317.948 427.758 317.771C428.024 317.594 428.227 317.339 428.366 317.007C428.505 316.675 428.574 316.277 428.574 315.815C428.574 315.363 428.506 314.964 428.37 314.618C428.234 314.272 428.033 314.001 427.766 313.805C427.499 313.609 427.17 313.511 426.778 313.511C426.369 313.511 426.029 313.615 425.757 313.822C425.487 314.029 425.284 314.306 425.148 314.655C425.015 315.003 424.948 315.39 424.948 315.815C424.948 316.25 425.016 316.635 425.152 316.97C425.291 317.302 425.495 317.564 425.765 317.754C426.037 317.942 426.375 318.036 426.778 318.036Z" fill="black" fill-opacity="0.5"/>
<path d="M462.832 310.636V319H461.819V311.698H461.77L459.728 313.054V312.025L461.819 310.636H462.832ZM473.193 312.727C473.144 312.313 472.945 311.992 472.597 311.763C472.248 311.535 471.821 311.42 471.314 311.42C470.944 311.42 470.62 311.48 470.342 311.6C470.067 311.72 469.852 311.885 469.697 312.094C469.545 312.304 469.468 312.542 469.468 312.809C469.468 313.032 469.521 313.224 469.628 313.385C469.736 313.543 469.875 313.675 470.044 313.781C470.213 313.884 470.39 313.97 470.575 314.038C470.76 314.104 470.93 314.157 471.085 314.197L471.935 314.426C472.153 314.483 472.395 314.562 472.662 314.663C472.931 314.764 473.189 314.901 473.434 315.075C473.681 315.247 473.886 315.468 474.046 315.737C474.207 316.007 474.287 316.337 474.287 316.729C474.287 317.181 474.169 317.59 473.932 317.955C473.698 318.319 473.355 318.609 472.903 318.824C472.454 319.039 471.908 319.147 471.265 319.147C470.666 319.147 470.148 319.05 469.709 318.857C469.274 318.664 468.931 318.394 468.68 318.048C468.432 317.703 468.292 317.301 468.259 316.844H469.305C469.332 317.16 469.438 317.421 469.623 317.628C469.811 317.832 470.048 317.984 470.334 318.085C470.623 318.183 470.933 318.232 471.265 318.232C471.652 318.232 471.999 318.17 472.307 318.044C472.614 317.916 472.858 317.739 473.038 317.513C473.217 317.285 473.307 317.018 473.307 316.713C473.307 316.435 473.229 316.209 473.074 316.035C472.919 315.861 472.715 315.719 472.462 315.61C472.209 315.502 471.935 315.406 471.641 315.325L470.612 315.031C469.958 314.843 469.441 314.575 469.06 314.226C468.679 313.878 468.488 313.422 468.488 312.858C468.488 312.39 468.615 311.981 468.868 311.633C469.124 311.282 469.467 311.009 469.897 310.816C470.33 310.62 470.813 310.522 471.347 310.522C471.886 310.522 472.365 310.619 472.784 310.812C473.204 311.003 473.536 311.264 473.781 311.596C474.029 311.928 474.159 312.305 474.173 312.727H473.193ZM478.452 319.131C477.847 319.131 477.326 318.997 476.888 318.73C476.452 318.461 476.116 318.085 475.879 317.603C475.645 317.119 475.528 316.555 475.528 315.913C475.528 315.27 475.645 314.704 475.879 314.214C476.116 313.721 476.445 313.337 476.867 313.062C477.292 312.784 477.787 312.646 478.354 312.646C478.68 312.646 479.003 312.7 479.322 312.809C479.64 312.918 479.93 313.095 480.191 313.34C480.453 313.582 480.661 313.903 480.816 314.304C480.971 314.704 481.049 315.197 481.049 315.782V316.19H476.214V315.357H480.069C480.069 315.003 479.998 314.687 479.856 314.41C479.718 314.132 479.519 313.913 479.26 313.752C479.004 313.592 478.702 313.511 478.354 313.511C477.97 313.511 477.638 313.607 477.357 313.797C477.08 313.985 476.866 314.23 476.716 314.532C476.566 314.835 476.491 315.158 476.491 315.504V316.06C476.491 316.533 476.573 316.935 476.736 317.264C476.903 317.591 477.133 317.84 477.427 318.012C477.721 318.181 478.062 318.265 478.452 318.265C478.705 318.265 478.934 318.23 479.138 318.159C479.345 318.085 479.523 317.976 479.673 317.832C479.822 317.685 479.938 317.503 480.02 317.285L480.951 317.546C480.853 317.862 480.688 318.14 480.457 318.379C480.225 318.616 479.94 318.801 479.599 318.935C479.259 319.065 478.876 319.131 478.452 319.131ZM482.515 321.352V312.727H483.446V313.724H483.561C483.631 313.615 483.729 313.476 483.855 313.307C483.982 313.136 484.165 312.983 484.402 312.85C484.641 312.714 484.965 312.646 485.374 312.646C485.902 312.646 486.367 312.778 486.77 313.042C487.173 313.306 487.488 313.68 487.714 314.165C487.94 314.649 488.053 315.221 488.053 315.88C488.053 316.544 487.94 317.12 487.714 317.607C487.488 318.092 487.175 318.468 486.774 318.735C486.374 318.999 485.913 319.131 485.39 319.131C484.987 319.131 484.664 319.064 484.422 318.931C484.18 318.794 483.993 318.641 483.863 318.469C483.732 318.295 483.631 318.151 483.561 318.036H483.479V321.352H482.515ZM483.462 315.864C483.462 316.337 483.532 316.755 483.671 317.117C483.81 317.477 484.012 317.759 484.279 317.963C484.546 318.164 484.873 318.265 485.259 318.265C485.662 318.265 485.999 318.159 486.268 317.946C486.54 317.731 486.745 317.443 486.881 317.081C487.019 316.716 487.089 316.31 487.089 315.864C487.089 315.423 487.021 315.025 486.885 314.671C486.751 314.315 486.548 314.033 486.276 313.826C486.007 313.616 485.668 313.511 485.259 313.511C484.867 313.511 484.538 313.611 484.271 313.809C484.004 314.006 483.803 314.28 483.667 314.634C483.531 314.986 483.462 315.395 483.462 315.864Z" fill="black" fill-opacity="0.5"/>
<path d="M521.194 319V318.265L523.955 315.243C524.279 314.889 524.545 314.581 524.755 314.32C524.965 314.056 525.12 313.808 525.221 313.577C525.324 313.343 525.376 313.098 525.376 312.842C525.376 312.548 525.305 312.293 525.163 312.078C525.025 311.863 524.834 311.697 524.592 311.58C524.349 311.463 524.077 311.404 523.775 311.404C523.454 311.404 523.173 311.471 522.934 311.604C522.697 311.735 522.513 311.919 522.382 312.156C522.254 312.392 522.19 312.67 522.19 312.989H521.227C521.227 312.499 521.34 312.068 521.566 311.698C521.792 311.328 522.099 311.039 522.489 310.832C522.881 310.625 523.32 310.522 523.808 310.522C524.298 310.522 524.732 310.625 525.11 310.832C525.489 311.039 525.786 311.318 526.001 311.67C526.216 312.021 526.323 312.411 526.323 312.842C526.323 313.149 526.267 313.45 526.156 313.744C526.047 314.035 525.856 314.361 525.584 314.72C525.315 315.077 524.94 315.512 524.461 316.027L522.583 318.036V318.102H526.47V319H521.194ZM536.112 312.727C536.063 312.313 535.864 311.992 535.516 311.763C535.167 311.535 534.74 311.42 534.234 311.42C533.863 311.42 533.539 311.48 533.262 311.6C532.987 311.72 532.772 311.885 532.616 312.094C532.464 312.304 532.388 312.542 532.388 312.809C532.388 313.032 532.441 313.224 532.547 313.385C532.656 313.543 532.795 313.675 532.964 313.781C533.132 313.884 533.309 313.97 533.494 314.038C533.68 314.104 533.85 314.157 534.005 314.197L534.854 314.426C535.072 314.483 535.314 314.562 535.581 314.663C535.851 314.764 536.108 314.901 536.353 315.075C536.601 315.247 536.805 315.468 536.966 315.737C537.126 316.007 537.207 316.337 537.207 316.729C537.207 317.181 537.088 317.59 536.851 317.955C536.617 318.319 536.274 318.609 535.822 318.824C535.373 319.039 534.827 319.147 534.185 319.147C533.586 319.147 533.067 319.05 532.629 318.857C532.193 318.664 531.85 318.394 531.6 318.048C531.352 317.703 531.212 317.301 531.179 316.844H532.224C532.252 317.16 532.358 317.421 532.543 317.628C532.731 317.832 532.968 317.984 533.254 318.085C533.542 318.183 533.852 318.232 534.185 318.232C534.571 318.232 534.918 318.17 535.226 318.044C535.534 317.916 535.777 317.739 535.957 317.513C536.137 317.285 536.227 317.018 536.227 316.713C536.227 316.435 536.149 316.209 535.994 316.035C535.839 315.861 535.634 315.719 535.381 315.61C535.128 315.502 534.854 315.406 534.56 315.325L533.531 315.031C532.878 314.843 532.361 314.575 531.979 314.226C531.598 313.878 531.408 313.422 531.408 312.858C531.408 312.39 531.534 311.981 531.787 311.633C532.043 311.282 532.386 311.009 532.817 310.816C533.249 310.62 533.733 310.522 534.266 310.522C534.805 310.522 535.285 310.619 535.704 310.812C536.123 311.003 536.455 311.264 536.7 311.596C536.948 311.928 537.079 312.305 537.092 312.727H536.112ZM541.371 319.131C540.767 319.131 540.245 318.997 539.807 318.73C539.371 318.461 539.035 318.085 538.798 317.603C538.564 317.119 538.447 316.555 538.447 315.913C538.447 315.27 538.564 314.704 538.798 314.214C539.035 313.721 539.365 313.337 539.787 313.062C540.211 312.784 540.707 312.646 541.273 312.646C541.6 312.646 541.922 312.7 542.241 312.809C542.559 312.918 542.849 313.095 543.111 313.34C543.372 313.582 543.58 313.903 543.736 314.304C543.891 314.704 543.968 315.197 543.968 315.782V316.19H539.133V315.357H542.988C542.988 315.003 542.917 314.687 542.776 314.41C542.637 314.132 542.438 313.913 542.18 313.752C541.924 313.592 541.622 313.511 541.273 313.511C540.889 313.511 540.557 313.607 540.277 313.797C539.999 313.985 539.785 314.23 539.635 314.532C539.486 314.835 539.411 315.158 539.411 315.504V316.06C539.411 316.533 539.493 316.935 539.656 317.264C539.822 317.591 540.052 317.84 540.346 318.012C540.64 318.181 540.982 318.265 541.371 318.265C541.624 318.265 541.853 318.23 542.057 318.159C542.264 318.085 542.442 317.976 542.592 317.832C542.742 317.685 542.858 317.503 542.939 317.285L543.87 317.546C543.772 317.862 543.608 318.14 543.376 318.379C543.145 318.616 542.859 318.801 542.519 318.935C542.178 319.065 541.796 319.131 541.371 319.131ZM545.434 321.352V312.727H546.366V313.724H546.48C546.551 313.615 546.649 313.476 546.774 313.307C546.902 313.136 547.084 312.983 547.321 312.85C547.561 312.714 547.885 312.646 548.293 312.646C548.821 312.646 549.287 312.778 549.69 313.042C550.093 313.306 550.407 313.68 550.633 314.165C550.859 314.649 550.972 315.221 550.972 315.88C550.972 316.544 550.859 317.12 550.633 317.607C550.407 318.092 550.094 318.468 549.694 318.735C549.294 318.999 548.832 319.131 548.309 319.131C547.907 319.131 547.584 319.064 547.342 318.931C547.099 318.794 546.913 318.641 546.782 318.469C546.651 318.295 546.551 318.151 546.48 318.036H546.398V321.352H545.434ZM546.382 315.864C546.382 316.337 546.451 316.755 546.59 317.117C546.729 317.477 546.932 317.759 547.199 317.963C547.465 318.164 547.792 318.265 548.179 318.265C548.582 318.265 548.918 318.159 549.188 317.946C549.46 317.731 549.664 317.443 549.8 317.081C549.939 316.716 550.008 316.31 550.008 315.864C550.008 315.423 549.94 315.025 549.804 314.671C549.671 314.315 549.468 314.033 549.196 313.826C548.926 313.616 548.587 313.511 548.179 313.511C547.787 313.511 547.457 313.611 547.191 313.809C546.924 314.006 546.722 314.28 546.586 314.634C546.45 314.986 546.382 315.395 546.382 315.864Z" fill="black" fill-opacity="0.5"/>
</g>
<defs>
<filter id="filter0_dd_292_93489" x="289" y="47" width="193" height="101" filterUnits="userSpaceOnUse" color-interpolation-filters="sRGB">
<feFlood flood-opacity="0" result="BackgroundImageFix"/>
<feColorMatrix in="SourceAlpha" type="matrix" values="0 0 0 0 0 0 0 0 0 0 0 0 0 0 0 0 0 0 127 0" result="hardAlpha"/>
<feMorphology radius="1" operator="erode" in="SourceAlpha" result="effect1_dropShadow_292_93489"/>
<feOffset dy="4"/>
<feGaussianBlur stdDeviation="2"/>
<feComposite in2="hardAlpha" operator="out"/>
<feColorMatrix type="matrix" values="0 0 0 0 0.0470588 0 0 0 0 0.0470588 0 0 0 0 0.0509804 0 0 0 0.05 0"/>
<feBlend mode="normal" in2="BackgroundImageFix" result="effect1_dropShadow_292_93489"/>
<feColorMatrix in="SourceAlpha" type="matrix" values="0 0 0 0 0 0 0 0 0 0 0 0 0 0 0 0 0 0 127 0" result="hardAlpha"/>
<feMorphology radius="1" operator="erode" in="SourceAlpha" result="effect2_dropShadow_292_93489"/>
<feOffset dy="4"/>
<feGaussianBlur stdDeviation="2"/>
<feComposite in2="hardAlpha" operator="out"/>
<feColorMatrix type="matrix" values="0 0 0 0 0.0470588 0 0 0 0 0.0470588 0 0 0 0 0.0509804 0 0 0 0.1 0"/>
<feBlend mode="normal" in2="effect1_dropShadow_292_93489" result="effect2_dropShadow_292_93489"/>
<feBlend mode="normal" in="SourceGraphic" in2="effect2_dropShadow_292_93489" result="shape"/>
</filter>
<clipPath id="clip0_292_93489">
<rect width="580" height="337" fill="white"/>
</clipPath>
</defs>
</svg>
