<svg width="580" height="338" viewBox="0 0 580 338" fill="none" xmlns="http://www.w3.org/2000/svg">
<g clip-path="url(#clip0_292_93488)">
<rect width="593" height="376" transform="translate(-19 -12)" fill="white"/>
<path d="M18.8061 20.6364V29H17.7933V21.6982H17.7443L15.7024 23.054V22.0249L17.7933 20.6364H18.8061ZM23.9395 29.1143C23.3242 29.1143 22.8001 28.9469 22.3672 28.612C21.9343 28.2744 21.6035 27.7857 21.3748 27.146C21.1461 26.5034 21.0318 25.7275 21.0318 24.8182C21.0318 23.9143 21.1461 23.1425 21.3748 22.5027C21.6062 21.8601 21.9384 21.3701 22.3713 21.0325C22.8069 20.6922 23.3296 20.522 23.9395 20.522C24.5493 20.522 25.0707 20.6922 25.5036 21.0325C25.9392 21.3701 26.2713 21.8601 26.5 22.5027C26.7314 23.1425 26.8471 23.9143 26.8471 24.8182C26.8471 25.7275 26.7328 26.5034 26.5041 27.146C26.2754 27.7857 25.9446 28.2744 25.5117 28.612C25.0788 28.9469 24.5547 29.1143 23.9395 29.1143ZM23.9395 28.2159C24.5493 28.2159 25.023 27.9219 25.3606 27.3338C25.6982 26.7457 25.867 25.9072 25.867 24.8182C25.867 24.094 25.7894 23.4773 25.6342 22.9682C25.4818 22.4591 25.2612 22.0711 24.9727 21.8043C24.6868 21.5375 24.3424 21.4041 23.9395 21.4041C23.335 21.4041 22.8627 21.7022 22.5224 22.2985C22.1821 22.892 22.0119 23.7319 22.0119 24.8182C22.0119 25.5424 22.0881 26.1577 22.2406 26.6641C22.3931 27.1705 22.6122 27.5557 22.8981 27.8198C23.1867 28.0839 23.5338 28.2159 23.9395 28.2159ZM31.127 29.1143C30.5117 29.1143 29.9876 28.9469 29.5547 28.612C29.1218 28.2744 28.791 27.7857 28.5623 27.146C28.3336 26.5034 28.2193 25.7275 28.2193 24.8182C28.2193 23.9143 28.3336 23.1425 28.5623 22.5027C28.7937 21.8601 29.1259 21.3701 29.5588 21.0325C29.9944 20.6922 30.5171 20.522 31.127 20.522C31.7368 20.522 32.2582 20.6922 32.6911 21.0325C33.1267 21.3701 33.4588 21.8601 33.6875 22.5027C33.9189 23.1425 34.0346 23.9143 34.0346 24.8182C34.0346 25.7275 33.9203 26.5034 33.6916 27.146C33.4629 27.7857 33.1321 28.2744 32.6992 28.612C32.2663 28.9469 31.7422 29.1143 31.127 29.1143ZM31.127 28.2159C31.7368 28.2159 32.2105 27.9219 32.5481 27.3338C32.8857 26.7457 33.0545 25.9072 33.0545 24.8182C33.0545 24.094 32.9769 23.4773 32.8217 22.9682C32.6693 22.4591 32.4487 22.0711 32.1602 21.8043C31.8743 21.5375 31.5299 21.4041 31.127 21.4041C30.5225 21.4041 30.0502 21.7022 29.7099 22.2985C29.3696 22.892 29.1994 23.7319 29.1994 24.8182C29.1994 25.5424 29.2756 26.1577 29.4281 26.6641C29.5806 27.1705 29.7997 27.5557 30.0856 27.8198C30.3742 28.0839 30.7213 28.2159 31.127 28.2159ZM36.5012 26.7131L36.4849 25.5206H36.6809L39.4252 22.7273H40.6177L37.6937 25.6839H37.612L36.5012 26.7131ZM35.6028 29V20.6364H36.5666V29H35.6028ZM39.5886 29L37.1383 25.8963L37.8244 25.2266L40.8137 29H39.5886Z" fill="black" fill-opacity="0.5"/>
<path d="M23.5447 80.3144C22.9839 80.3144 22.4884 80.215 22.0582 80.0162C21.6308 79.8148 21.2973 79.5384 21.0577 79.1872C20.8181 78.8333 20.6997 78.4304 20.7024 77.9784C20.6997 77.6245 20.7691 77.2978 20.9107 76.9983C21.0523 76.6961 21.2456 76.4443 21.4906 76.2428C21.7383 76.0386 22.0147 75.9093 22.3196 75.8548V75.8058C21.9194 75.7024 21.6009 75.4778 21.364 75.132C21.1271 74.7835 21.0101 74.3874 21.0128 73.9436C21.0101 73.5189 21.1176 73.1391 21.3354 72.8042C21.5532 72.4694 21.8527 72.2053 22.2338 72.012C22.6177 71.8187 23.0547 71.722 23.5447 71.722C24.0294 71.722 24.4622 71.8187 24.8434 72.012C25.2246 72.2053 25.524 72.4694 25.7418 72.8042C25.9624 73.1391 26.074 73.5189 26.0767 73.9436C26.074 74.3874 25.9528 74.7835 25.7132 75.132C25.4764 75.4778 25.1619 75.7024 24.7699 75.8058V75.8548C25.0721 75.9093 25.3443 76.0386 25.5866 76.2428C25.829 76.4443 26.0223 76.6961 26.1665 76.9983C26.3108 77.2978 26.3844 77.6245 26.3871 77.9784C26.3844 78.4304 26.2618 78.8333 26.0195 79.1872C25.7799 79.5384 25.4464 79.8148 25.019 80.0162C24.5943 80.215 24.1029 80.3144 23.5447 80.3144ZM23.5447 79.4159C23.9232 79.4159 24.2499 79.3547 24.5249 79.2321C24.7998 79.1096 25.0122 78.9368 25.1619 78.7135C25.3117 78.4903 25.3879 78.2289 25.3906 77.9294C25.3879 77.6136 25.3062 77.3345 25.1456 77.0922C24.985 76.8499 24.7658 76.6594 24.4881 76.5205C24.2131 76.3817 23.8987 76.3122 23.5447 76.3122C23.1881 76.3122 22.8696 76.3817 22.5891 76.5205C22.3114 76.6594 22.0923 76.8499 21.9316 77.0922C21.7737 77.3345 21.6961 77.6136 21.6989 77.9294C21.6961 78.2289 21.7683 78.4903 21.9153 78.7135C22.065 78.9368 22.2788 79.1096 22.5565 79.2321C22.8342 79.3547 23.1636 79.4159 23.5447 79.4159ZM23.5447 75.4465C23.8442 75.4465 24.1097 75.3866 24.3411 75.2668C24.5752 75.147 24.759 74.9795 24.8924 74.7645C25.0258 74.5494 25.0939 74.2975 25.0966 74.009C25.0939 73.7258 25.0272 73.4794 24.8965 73.2698C24.7658 73.0574 24.5848 72.8941 24.3533 72.7797C24.1219 72.6627 23.8524 72.6041 23.5447 72.6041C23.2317 72.6041 22.958 72.6627 22.7239 72.7797C22.4898 72.8941 22.3087 73.0574 22.1808 73.2698C22.0528 73.4794 21.9902 73.7258 21.9929 74.009C21.9902 74.2975 22.0542 74.5494 22.1848 74.7645C22.3182 74.9795 22.502 75.147 22.7362 75.2668C22.9703 75.3866 23.2398 75.4465 23.5447 75.4465ZM30.6802 80.3144C30.0649 80.3144 29.5408 80.1469 29.1079 79.8121C28.675 79.4745 28.3442 78.9858 28.1155 78.346C27.8869 77.7034 27.7725 76.9275 27.7725 76.0182C27.7725 75.1143 27.8869 74.3425 28.1155 73.7027C28.347 73.0602 28.6791 72.5701 29.112 72.2325C29.5476 71.8922 30.0703 71.722 30.6802 71.722C31.29 71.722 31.8114 71.8922 32.2443 72.2325C32.6799 72.5701 33.012 73.0602 33.2407 73.7027C33.4721 74.3425 33.5878 75.1143 33.5878 76.0182C33.5878 76.9275 33.4735 77.7034 33.2448 78.346C33.0161 78.9858 32.6853 79.4745 32.2524 79.8121C31.8196 80.1469 31.2955 80.3144 30.6802 80.3144ZM30.6802 79.4159C31.29 79.4159 31.7637 79.1219 32.1013 78.5338C32.4389 77.9458 32.6077 77.1072 32.6077 76.0182C32.6077 75.294 32.5301 74.6773 32.375 74.1682C32.2225 73.6591 32.002 73.2712 31.7134 73.0043C31.4275 72.7375 31.0831 72.6041 30.6802 72.6041C30.0758 72.6041 29.6034 72.9022 29.2631 73.4985C28.9228 74.092 28.7526 74.9319 28.7526 76.0182C28.7526 76.7424 28.8289 77.3577 28.9813 77.8641C29.1338 78.3705 29.3529 78.7557 29.6388 79.0198C29.9274 79.2839 30.2745 79.4159 30.6802 79.4159ZM36.0545 77.9131L36.0381 76.7206H36.2342L38.9785 73.9273H40.1709L37.2469 76.884H37.1653L36.0545 77.9131ZM35.156 80.2V71.8364H36.1198V80.2H35.156ZM39.1418 80.2L36.6915 77.0963L37.3776 76.4266L40.367 80.2H39.1418Z" fill="black" fill-opacity="0.5"/>
<path d="M23.6428 131.514C23.2997 131.509 22.9567 131.444 22.6136 131.318C22.2706 131.193 21.9575 130.982 21.6744 130.685C21.3912 130.386 21.1639 129.982 20.9924 129.472C20.8208 128.961 20.7351 128.318 20.7351 127.545C20.7351 126.804 20.8045 126.148 20.9434 125.577C21.0822 125.002 21.2837 124.519 21.5478 124.127C21.8118 123.732 22.1304 123.433 22.5034 123.228C22.8791 123.024 23.3024 122.922 23.7734 122.922C24.2417 122.922 24.6583 123.016 25.0231 123.204C25.3906 123.389 25.6901 123.648 25.9215 123.98C26.1529 124.312 26.3027 124.694 26.3707 125.127H25.3743C25.2817 124.752 25.102 124.44 24.8352 124.192C24.5684 123.944 24.2145 123.82 23.7734 123.82C23.1255 123.82 22.615 124.102 22.242 124.666C21.8717 125.229 21.6853 126.02 21.6825 127.039H21.7479C21.9003 126.807 22.0814 126.61 22.291 126.446C22.5034 126.28 22.7375 126.152 22.9934 126.062C23.2493 125.973 23.5202 125.928 23.8061 125.928C24.2853 125.928 24.7236 126.048 25.1211 126.287C25.5186 126.524 25.8371 126.852 26.0767 127.271C26.3163 127.688 26.4361 128.166 26.4361 128.705C26.4361 129.222 26.3204 129.696 26.089 130.126C25.8575 130.553 25.5322 130.894 25.1129 131.147C24.6964 131.397 24.2063 131.52 23.6428 131.514ZM23.6428 130.616C23.9858 130.616 24.2934 130.53 24.5657 130.359C24.8407 130.187 25.0571 129.957 25.215 129.668C25.3757 129.38 25.456 129.059 25.456 128.705C25.456 128.359 25.3784 128.044 25.2232 127.761C25.0707 127.475 24.8597 127.248 24.5902 127.079C24.3234 126.911 24.0185 126.826 23.6754 126.826C23.4168 126.826 23.1758 126.878 22.9526 126.981C22.7293 127.082 22.5333 127.221 22.3645 127.398C22.1984 127.575 22.0678 127.778 21.9725 128.006C21.8772 128.232 21.8295 128.471 21.8295 128.721C21.8295 129.053 21.9071 129.364 22.0623 129.652C22.2202 129.941 22.4353 130.174 22.7076 130.35C22.9825 130.527 23.2943 130.616 23.6428 130.616ZM30.77 131.514C30.1547 131.514 29.6306 131.347 29.1978 131.012C28.7649 130.674 28.4341 130.186 28.2054 129.546C27.9767 128.903 27.8623 128.128 27.8623 127.218C27.8623 126.314 27.9767 125.542 28.2054 124.903C28.4368 124.26 28.769 123.77 29.2018 123.433C29.6374 123.092 30.1602 122.922 30.77 122.922C31.3799 122.922 31.9012 123.092 32.3341 123.433C32.7697 123.77 33.1019 124.26 33.3306 124.903C33.562 125.542 33.6777 126.314 33.6777 127.218C33.6777 128.128 33.5633 128.903 33.3347 129.546C33.106 130.186 32.7752 130.674 32.3423 131.012C31.9094 131.347 31.3853 131.514 30.77 131.514ZM30.77 130.616C31.3799 130.616 31.8536 130.322 32.1912 129.734C32.5288 129.146 32.6976 128.307 32.6976 127.218C32.6976 126.494 32.62 125.877 32.4648 125.368C32.3123 124.859 32.0918 124.471 31.8032 124.204C31.5174 123.938 31.173 123.804 30.77 123.804C30.1656 123.804 29.6933 124.102 29.3529 124.698C29.0126 125.292 28.8425 126.132 28.8425 127.218C28.8425 127.942 28.9187 128.558 29.0712 129.064C29.2236 129.57 29.4428 129.956 29.7286 130.22C30.0172 130.484 30.3644 130.616 30.77 130.616ZM36.1443 129.113L36.128 127.921H36.324L39.0683 125.127H40.2608L37.3368 128.084H37.2551L36.1443 129.113ZM35.2459 131.4V123.036H36.2097V131.4H35.2459ZM39.2317 131.4L36.7814 128.296L37.4675 127.627L40.4568 131.4H39.2317Z" fill="black" fill-opacity="0.5"/>
<path d="M20.6697 180.885V180.052L24.3452 174.236H24.9496V175.527H24.5412L21.7642 179.921V179.986H26.7138V180.885H20.6697ZM24.6065 182.6V180.632V180.244V174.236H25.5703V182.6H24.6065ZM30.9722 182.714C30.3569 182.714 29.8328 182.547 29.3999 182.212C28.967 181.874 28.6362 181.386 28.4075 180.746C28.1788 180.103 28.0645 179.327 28.0645 178.418C28.0645 177.514 28.1788 176.742 28.4075 176.103C28.639 175.46 28.9711 174.97 29.404 174.632C29.8396 174.292 30.3623 174.122 30.9722 174.122C31.582 174.122 32.1034 174.292 32.5363 174.632C32.9719 174.97 33.304 175.46 33.5327 176.103C33.7641 176.742 33.8798 177.514 33.8798 178.418C33.8798 179.327 33.7655 180.103 33.5368 180.746C33.3081 181.386 32.9773 181.874 32.5444 182.212C32.1116 182.547 31.5875 182.714 30.9722 182.714ZM30.9722 181.816C31.582 181.816 32.0557 181.522 32.3933 180.934C32.7309 180.346 32.8997 179.507 32.8997 178.418C32.8997 177.694 32.8221 177.077 32.6669 176.568C32.5145 176.059 32.294 175.671 32.0054 175.404C31.7195 175.137 31.3751 175.004 30.9722 175.004C30.3678 175.004 29.8954 175.302 29.5551 175.898C29.2148 176.492 29.0446 177.332 29.0446 178.418C29.0446 179.142 29.1208 179.758 29.2733 180.264C29.4258 180.77 29.6449 181.156 29.9308 181.42C30.2194 181.684 30.5665 181.816 30.9722 181.816ZM36.3465 180.313L36.3301 179.121H36.5261L39.2705 176.327H40.4629L37.5389 179.284H37.4573L36.3465 180.313ZM35.448 182.6V174.236H36.4118V182.6H35.448ZM39.4338 182.6L36.9835 179.496L37.6696 178.827L40.659 182.6H39.4338Z" fill="black" fill-opacity="0.5"/>
<path d="M20.8658 233.8V233.065L23.6264 230.043C23.9504 229.689 24.2172 229.381 24.4268 229.12C24.6365 228.856 24.7917 228.608 24.8924 228.377C24.9959 228.143 25.0476 227.898 25.0476 227.642C25.0476 227.348 24.9768 227.093 24.8352 226.878C24.6964 226.663 24.5058 226.497 24.2635 226.38C24.0212 226.263 23.7489 226.204 23.4467 226.204C23.1255 226.204 22.8451 226.271 22.6055 226.404C22.3686 226.535 22.1848 226.719 22.0542 226.956C21.9262 227.192 21.8622 227.47 21.8622 227.789H20.8984C20.8984 227.299 21.0114 226.868 21.2374 226.498C21.4634 226.128 21.771 225.839 22.1603 225.632C22.5524 225.425 22.9921 225.322 23.4794 225.322C23.9695 225.322 24.4037 225.425 24.7821 225.632C25.1606 225.839 25.4573 226.118 25.6724 226.47C25.8875 226.821 25.995 227.211 25.995 227.642C25.995 227.949 25.9392 228.25 25.8276 228.544C25.7187 228.835 25.5281 229.161 25.2559 229.52C24.9863 229.877 24.612 230.312 24.1328 230.827L22.2543 232.836V232.902H26.142V233.8H20.8658ZM30.5566 233.914C29.9413 233.914 29.4173 233.747 28.9844 233.412C28.5515 233.074 28.2207 232.586 27.992 231.946C27.7633 231.303 27.649 230.527 27.649 229.618C27.649 228.714 27.7633 227.942 27.992 227.303C28.2234 226.66 28.5556 226.17 28.9885 225.832C29.4241 225.492 29.9468 225.322 30.5566 225.322C31.1665 225.322 31.6879 225.492 32.1207 225.832C32.5563 226.17 32.8885 226.66 33.1172 227.303C33.3486 227.942 33.4643 228.714 33.4643 229.618C33.4643 230.527 33.35 231.303 33.1213 231.946C32.8926 232.586 32.5618 233.074 32.1289 233.412C31.696 233.747 31.1719 233.914 30.5566 233.914ZM30.5566 233.016C31.1665 233.016 31.6402 232.722 31.9778 232.134C32.3154 231.546 32.4842 230.707 32.4842 229.618C32.4842 228.894 32.4066 228.277 32.2514 227.768C32.099 227.259 31.8784 226.871 31.5898 226.604C31.304 226.338 30.9596 226.204 30.5566 226.204C29.9522 226.204 29.4799 226.502 29.1396 227.098C28.7992 227.692 28.6291 228.532 28.6291 229.618C28.6291 230.342 28.7053 230.958 28.8578 231.464C29.0102 231.97 29.2294 232.356 29.5153 232.62C29.8039 232.884 30.151 233.016 30.5566 233.016ZM35.9309 231.513L35.9146 230.321H36.1106L38.8549 227.527H40.0474L37.1234 230.484H37.0417L35.9309 231.513ZM35.0325 233.8V225.436H35.9963V233.8H35.0325ZM39.0183 233.8L36.568 230.696L37.2541 230.027L40.2434 233.8H39.0183Z" fill="black" fill-opacity="0.5"/>
<path d="M36.5938 285.114C35.9785 285.114 35.4544 284.947 35.0215 284.612C34.5886 284.274 34.2578 283.786 34.0291 283.146C33.8004 282.503 33.6861 281.728 33.6861 280.818C33.6861 279.914 33.8004 279.142 34.0291 278.503C34.2605 277.86 34.5927 277.37 35.0256 277.032C35.4612 276.692 35.9839 276.522 36.5938 276.522C37.2036 276.522 37.725 276.692 38.1578 277.032C38.5935 277.37 38.9256 277.86 39.1543 278.503C39.3857 279.142 39.5014 279.914 39.5014 280.818C39.5014 281.728 39.3871 282.503 39.1584 283.146C38.9297 283.786 38.5989 284.274 38.166 284.612C37.7331 284.947 37.209 285.114 36.5938 285.114ZM36.5938 284.216C37.2036 284.216 37.6773 283.922 38.0149 283.334C38.3525 282.746 38.5213 281.907 38.5213 280.818C38.5213 280.094 38.4437 279.477 38.2885 278.968C38.1361 278.459 37.9155 278.071 37.627 277.804C37.3411 277.538 36.9967 277.404 36.5938 277.404C35.9893 277.404 35.517 277.702 35.1767 278.298C34.8364 278.892 34.6662 279.732 34.6662 280.818C34.6662 281.542 34.7424 282.158 34.8949 282.664C35.0473 283.17 35.2665 283.556 35.5524 283.82C35.841 284.084 36.1881 284.216 36.5938 284.216Z" fill="black" fill-opacity="0.5"/>
<line x1="46" y1="23.5" x2="543" y2="23.5" stroke="#00001A" stroke-opacity="0.15" stroke-dasharray="2"/>
<line x1="46" y1="75.1" x2="543" y2="75.1" stroke="#00001A" stroke-opacity="0.15" stroke-dasharray="2"/>
<line x1="46" y1="126.7" x2="543" y2="126.7" stroke="#00001A" stroke-opacity="0.15" stroke-dasharray="2"/>
<line x1="46" y1="178.3" x2="543" y2="178.3" stroke="#00001A" stroke-opacity="0.15" stroke-dasharray="2"/>
<line x1="46" y1="229.9" x2="543" y2="229.9" stroke="#00001A" stroke-opacity="0.15" stroke-dasharray="2"/>
<line x1="46" y1="281.5" x2="543" y2="281.5" stroke="#999999"/>
<line x1="45.5" y1="282" x2="45.5" y2="24" stroke="#00001A" stroke-opacity="0.15" stroke-dasharray="2"/>
<line x1="294" y1="282" x2="294" y2="24" stroke="#00001A" stroke-opacity="0.15" stroke-dasharray="2"/>
<line x1="542.5" y1="282" x2="542.5" y2="24" stroke="#00001A" stroke-opacity="0.15" stroke-dasharray="2"/>
<g opacity="0.2">
<rect opacity="0.8" x="65" y="25" width="41" height="256" fill="#00C7BE"/>
</g>
<rect opacity="0.8" x="65" y="145.881" width="41" height="134.683" fill="#00C7BE"/>
<g opacity="0.2">
<rect opacity="0.8" x="108.375" y="24" width="41" height="257" fill="#5856D6"/>
</g>
<rect opacity="0.8" x="108.375" y="123.465" width="41" height="157.719" fill="#5856D6"/>
<g opacity="0.2">
<rect opacity="0.8" x="189.75" y="42" width="41" height="239" fill="#00C7BE"/>
</g>
<rect opacity="0.8" x="189.55" y="203.687" width="41" height="76.9999" fill="#00C7BE"/>
<g opacity="0.2">
<rect opacity="0.8" x="233.125" y="32" width="41" height="249" fill="#5856D6"/>
</g>
<rect opacity="0.8" x="233.325" y="219.093" width="41" height="61.5151" fill="#5856D6"/>
<g opacity="0.2">
<rect opacity="0.8" x="314.5" y="49" width="41" height="232" fill="#00C7BE"/>
</g>
<rect opacity="0.8" x="314.5" y="222.687" width="41" height="57.8769" fill="#00C7BE"/>
<g opacity="0.2">
<rect opacity="0.8" x="357.875" y="44" width="41" height="237" fill="#5856D6"/>
</g>
<rect opacity="0.8" x="357.875" y="225.581" width="41" height="55.6025" fill="#5856D6"/>
<g opacity="0.2">
<rect opacity="0.8" x="439.25" y="27" width="41" height="254" fill="#00C7BE"/>
</g>
<rect opacity="0.8" x="439.25" y="190.157" width="41" height="90.4074" fill="#00C7BE"/>
<g opacity="0.2">
<rect opacity="0.8" x="482.625" y="40" width="41" height="241" fill="#5856D6"/>
</g>
<rect opacity="0.8" x="482.625" y="193.581" width="41" height="87.6025" fill="#5856D6"/>
<path d="M97.1063 288.636H98.3151L101.157 295.579H101.255L104.098 288.636H105.307V297H104.359V290.646H104.277L101.664 297H100.749L98.1354 290.646H98.0537V297H97.1063V288.636ZM107.827 299.352C107.664 299.352 107.518 299.339 107.39 299.311C107.262 299.287 107.174 299.262 107.125 299.238L107.37 298.388C107.604 298.448 107.811 298.47 107.991 298.454C108.17 298.438 108.33 298.357 108.468 298.213C108.61 298.071 108.739 297.841 108.856 297.523L109.036 297.033L106.717 290.727H107.762L109.493 295.726H109.559L111.29 290.727H112.336L109.673 297.915C109.553 298.239 109.405 298.507 109.228 298.719C109.051 298.934 108.846 299.094 108.611 299.197C108.38 299.301 108.119 299.352 107.827 299.352ZM123.703 291.25H122.69C122.63 290.959 122.526 290.703 122.376 290.482C122.229 290.262 122.049 290.077 121.837 289.927C121.627 289.774 121.394 289.66 121.138 289.584C120.883 289.508 120.616 289.469 120.338 289.469C119.832 289.469 119.373 289.597 118.962 289.853C118.553 290.109 118.228 290.486 117.986 290.985C117.746 291.483 117.626 292.094 117.626 292.818C117.626 293.542 117.746 294.154 117.986 294.652C118.228 295.15 118.553 295.527 118.962 295.783C119.373 296.039 119.832 296.167 120.338 296.167C120.616 296.167 120.883 296.129 121.138 296.053C121.394 295.976 121.627 295.863 121.837 295.714C122.049 295.561 122.229 295.375 122.376 295.154C122.526 294.931 122.63 294.675 122.69 294.386H123.703C123.627 294.814 123.488 295.196 123.287 295.534C123.085 295.872 122.835 296.159 122.535 296.396C122.236 296.63 121.899 296.808 121.526 296.931C121.156 297.053 120.76 297.114 120.338 297.114C119.625 297.114 118.99 296.94 118.435 296.592C117.88 296.243 117.443 295.748 117.124 295.105C116.806 294.463 116.646 293.7 116.646 292.818C116.646 291.936 116.806 291.174 117.124 290.531C117.443 289.889 117.88 289.393 118.435 289.045C118.99 288.696 119.625 288.522 120.338 288.522C120.76 288.522 121.156 288.583 121.526 288.706C121.899 288.828 122.236 289.008 122.535 289.245C122.835 289.479 123.085 289.765 123.287 290.102C123.488 290.437 123.627 290.82 123.703 291.25ZM127.055 297.147C126.657 297.147 126.297 297.072 125.973 296.922C125.649 296.77 125.391 296.551 125.201 296.265C125.01 295.976 124.915 295.628 124.915 295.219C124.915 294.86 124.986 294.569 125.127 294.346C125.269 294.12 125.458 293.943 125.695 293.815C125.932 293.687 126.193 293.591 126.479 293.529C126.768 293.463 127.058 293.412 127.349 293.374C127.73 293.325 128.039 293.288 128.276 293.263C128.516 293.236 128.69 293.191 128.799 293.129C128.91 293.066 128.966 292.957 128.966 292.802V292.769C128.966 292.366 128.856 292.053 128.635 291.83C128.418 291.607 128.087 291.495 127.643 291.495C127.183 291.495 126.822 291.596 126.561 291.797C126.299 291.999 126.116 292.214 126.009 292.442L125.095 292.116C125.258 291.735 125.476 291.438 125.748 291.225C126.023 291.01 126.323 290.861 126.647 290.776C126.973 290.689 127.294 290.646 127.61 290.646C127.812 290.646 128.043 290.67 128.305 290.719C128.569 290.765 128.823 290.862 129.068 291.009C129.316 291.156 129.522 291.378 129.685 291.675C129.848 291.971 129.93 292.369 129.93 292.867V297H128.966V296.151H128.917C128.852 296.287 128.743 296.432 128.59 296.588C128.438 296.743 128.235 296.875 127.982 296.984C127.729 297.093 127.42 297.147 127.055 297.147ZM127.202 296.281C127.583 296.281 127.904 296.206 128.166 296.057C128.43 295.907 128.629 295.714 128.762 295.477C128.898 295.24 128.966 294.991 128.966 294.729V293.847C128.925 293.896 128.835 293.941 128.697 293.982C128.56 294.02 128.403 294.054 128.223 294.084C128.046 294.111 127.873 294.136 127.704 294.158C127.538 294.177 127.403 294.193 127.3 294.207C127.049 294.239 126.815 294.292 126.598 294.366C126.382 294.437 126.208 294.544 126.075 294.689C125.944 294.83 125.879 295.023 125.879 295.268C125.879 295.603 126.003 295.857 126.25 296.028C126.501 296.197 126.818 296.281 127.202 296.281ZM131.689 297V290.727H132.62V291.675H132.685C132.8 291.364 133.007 291.113 133.306 290.919C133.606 290.726 133.943 290.629 134.319 290.629C134.39 290.629 134.478 290.631 134.584 290.633C134.691 290.636 134.771 290.64 134.825 290.646V291.626C134.793 291.618 134.718 291.605 134.601 291.589C134.486 291.57 134.365 291.56 134.237 291.56C133.932 291.56 133.66 291.624 133.421 291.752C133.184 291.878 132.996 292.052 132.857 292.275C132.721 292.496 132.653 292.747 132.653 293.031V297H131.689ZM139.089 290.727V291.544H135.838V290.727H139.089ZM136.786 289.224H137.749V295.203C137.749 295.475 137.789 295.68 137.868 295.816C137.949 295.949 138.053 296.039 138.178 296.085C138.306 296.129 138.441 296.151 138.582 296.151C138.689 296.151 138.776 296.145 138.844 296.134C138.912 296.121 138.966 296.11 139.007 296.102L139.203 296.967C139.138 296.992 139.047 297.016 138.93 297.041C138.813 297.068 138.664 297.082 138.484 297.082C138.212 297.082 137.945 297.023 137.684 296.906C137.425 296.789 137.21 296.611 137.039 296.371C136.87 296.132 136.786 295.829 136.786 295.464V289.224Z" fill="black" fill-opacity="0.5"/>
<path d="M221.543 290.727C221.494 290.313 221.296 289.992 220.947 289.763C220.599 289.535 220.171 289.42 219.665 289.42C219.295 289.42 218.971 289.48 218.693 289.6C218.418 289.72 218.203 289.885 218.048 290.094C217.895 290.304 217.819 290.542 217.819 290.809C217.819 291.032 217.872 291.224 217.978 291.385C218.087 291.543 218.226 291.675 218.395 291.781C218.564 291.884 218.741 291.97 218.926 292.038C219.111 292.104 219.281 292.157 219.436 292.197L220.286 292.426C220.503 292.483 220.746 292.562 221.013 292.663C221.282 292.764 221.539 292.901 221.784 293.075C222.032 293.247 222.236 293.468 222.397 293.737C222.558 294.007 222.638 294.337 222.638 294.729C222.638 295.181 222.519 295.59 222.283 295.955C222.048 296.319 221.705 296.609 221.253 296.824C220.804 297.039 220.258 297.147 219.616 297.147C219.017 297.147 218.498 297.05 218.06 296.857C217.624 296.664 217.281 296.394 217.031 296.048C216.783 295.703 216.643 295.301 216.61 294.844H217.656C217.683 295.16 217.789 295.421 217.974 295.628C218.162 295.832 218.399 295.984 218.685 296.085C218.973 296.183 219.284 296.232 219.616 296.232C220.002 296.232 220.35 296.17 220.657 296.044C220.965 295.916 221.209 295.739 221.388 295.513C221.568 295.285 221.658 295.018 221.658 294.713C221.658 294.435 221.58 294.209 221.425 294.035C221.27 293.861 221.066 293.719 220.812 293.61C220.559 293.502 220.286 293.406 219.992 293.325L218.962 293.031C218.309 292.843 217.792 292.575 217.411 292.226C217.029 291.878 216.839 291.422 216.839 290.858C216.839 290.39 216.965 289.981 217.219 289.633C217.475 289.282 217.818 289.009 218.248 288.816C218.681 288.62 219.164 288.522 219.698 288.522C220.237 288.522 220.716 288.619 221.135 288.812C221.554 289.003 221.886 289.264 222.132 289.596C222.379 289.928 222.51 290.305 222.524 290.727H221.543ZM225.136 293.227V297H224.172V288.636H225.136V291.707H225.218C225.365 291.383 225.585 291.126 225.879 290.936C226.176 290.742 226.571 290.646 227.064 290.646C227.491 290.646 227.866 290.731 228.187 290.903C228.508 291.072 228.757 291.332 228.934 291.683C229.114 292.031 229.204 292.475 229.204 293.014V297H228.24V293.08C228.24 292.581 228.111 292.196 227.852 291.924C227.596 291.649 227.241 291.511 226.786 291.511C226.47 291.511 226.187 291.578 225.937 291.711C225.689 291.845 225.493 292.04 225.349 292.295C225.207 292.551 225.136 292.862 225.136 293.227ZM230.967 297V290.727H231.931V297H230.967ZM231.457 289.682C231.269 289.682 231.107 289.618 230.971 289.49C230.837 289.362 230.771 289.208 230.771 289.028C230.771 288.849 230.837 288.695 230.971 288.567C231.107 288.439 231.269 288.375 231.457 288.375C231.645 288.375 231.805 288.439 231.939 288.567C232.075 288.695 232.143 288.849 232.143 289.028C232.143 289.208 232.075 289.362 231.939 289.49C231.805 289.618 231.645 289.682 231.457 289.682ZM233.696 299.352V290.727H234.627V291.724H234.741C234.812 291.615 234.91 291.476 235.035 291.307C235.163 291.136 235.346 290.983 235.583 290.85C235.822 290.714 236.146 290.646 236.554 290.646C237.083 290.646 237.548 290.778 237.951 291.042C238.354 291.306 238.669 291.68 238.895 292.165C239.12 292.649 239.233 293.221 239.233 293.88C239.233 294.544 239.12 295.12 238.895 295.607C238.669 296.092 238.355 296.468 237.955 296.735C237.555 296.999 237.094 297.131 236.571 297.131C236.168 297.131 235.845 297.064 235.603 296.931C235.361 296.794 235.174 296.641 235.043 296.469C234.913 296.295 234.812 296.151 234.741 296.036H234.66V299.352H233.696ZM234.643 293.864C234.643 294.337 234.713 294.755 234.852 295.117C234.99 295.477 235.193 295.759 235.46 295.963C235.727 296.164 236.054 296.265 236.44 296.265C236.843 296.265 237.179 296.159 237.449 295.946C237.721 295.731 237.925 295.443 238.061 295.081C238.2 294.716 238.27 294.31 238.27 293.864C238.27 293.423 238.202 293.025 238.065 292.671C237.932 292.315 237.729 292.033 237.457 291.826C237.187 291.616 236.849 291.511 236.44 291.511C236.048 291.511 235.719 291.611 235.452 291.809C235.185 292.006 234.984 292.28 234.847 292.634C234.711 292.986 234.643 293.395 234.643 293.864ZM240.704 299.352V290.727H241.635V291.724H241.749C241.82 291.615 241.918 291.476 242.043 291.307C242.171 291.136 242.353 290.983 242.59 290.85C242.83 290.714 243.154 290.646 243.562 290.646C244.09 290.646 244.556 290.778 244.959 291.042C245.362 291.306 245.676 291.68 245.902 292.165C246.128 292.649 246.241 293.221 246.241 293.88C246.241 294.544 246.128 295.12 245.902 295.607C245.676 296.092 245.363 296.468 244.963 296.735C244.563 296.999 244.101 297.131 243.579 297.131C243.176 297.131 242.853 297.064 242.611 296.931C242.368 296.794 242.182 296.641 242.051 296.469C241.921 296.295 241.82 296.151 241.749 296.036H241.667V299.352H240.704ZM241.651 293.864C241.651 294.337 241.721 294.755 241.859 295.117C241.998 295.477 242.201 295.759 242.468 295.963C242.735 296.164 243.061 296.265 243.448 296.265C243.851 296.265 244.187 296.159 244.457 295.946C244.729 295.731 244.933 295.443 245.069 295.081C245.208 294.716 245.277 294.31 245.277 293.864C245.277 293.423 245.209 293.025 245.073 292.671C244.94 292.315 244.737 292.033 244.465 291.826C244.195 291.616 243.856 291.511 243.448 291.511C243.056 291.511 242.726 291.611 242.46 291.809C242.193 292.006 241.991 292.28 241.855 292.634C241.719 292.986 241.651 293.395 241.651 293.864ZM247.711 297V290.727H248.675V297H247.711ZM248.202 289.682C248.014 289.682 247.852 289.618 247.716 289.49C247.582 289.362 247.515 289.208 247.515 289.028C247.515 288.849 247.582 288.695 247.716 288.567C247.852 288.439 248.014 288.375 248.202 288.375C248.389 288.375 248.55 288.439 248.683 288.567C248.82 288.695 248.888 288.849 248.888 289.028C248.888 289.208 248.82 289.362 248.683 289.49C248.55 289.618 248.389 289.682 248.202 289.682ZM251.404 293.227V297H250.44V290.727H251.372V291.707H251.453C251.6 291.389 251.824 291.133 252.123 290.94C252.422 290.744 252.809 290.646 253.283 290.646C253.707 290.646 254.079 290.733 254.398 290.907C254.716 291.078 254.964 291.34 255.141 291.691C255.318 292.04 255.406 292.481 255.406 293.014V297H254.443V293.08C254.443 292.587 254.315 292.203 254.059 291.928C253.803 291.65 253.452 291.511 253.005 291.511C252.697 291.511 252.422 291.578 252.18 291.711C251.941 291.845 251.751 292.04 251.613 292.295C251.474 292.551 251.404 292.862 251.404 293.227ZM259.699 299.483C259.234 299.483 258.834 299.423 258.499 299.303C258.164 299.186 257.885 299.031 257.662 298.838C257.441 298.647 257.266 298.443 257.135 298.225L257.903 297.686C257.99 297.8 258.1 297.931 258.233 298.078C258.367 298.228 258.549 298.357 258.781 298.466C259.015 298.578 259.321 298.634 259.699 298.634C260.206 298.634 260.624 298.511 260.953 298.266C261.283 298.021 261.447 297.637 261.447 297.114V295.84H261.366C261.295 295.955 261.194 296.096 261.063 296.265C260.935 296.431 260.75 296.579 260.508 296.71C260.268 296.838 259.944 296.902 259.536 296.902C259.03 296.902 258.575 296.782 258.172 296.543C257.772 296.303 257.455 295.955 257.221 295.497C256.989 295.04 256.873 294.484 256.873 293.831C256.873 293.188 256.986 292.629 257.212 292.153C257.438 291.673 257.753 291.303 258.156 291.042C258.559 290.778 259.024 290.646 259.552 290.646C259.961 290.646 260.285 290.714 260.524 290.85C260.767 290.983 260.952 291.136 261.08 291.307C261.21 291.476 261.311 291.615 261.382 291.724H261.48V290.727H262.411V297.18C262.411 297.719 262.289 298.157 262.044 298.495C261.801 298.835 261.475 299.084 261.063 299.242C260.655 299.403 260.2 299.483 259.699 299.483ZM259.667 296.036C260.053 296.036 260.38 295.948 260.647 295.771C260.914 295.594 261.117 295.339 261.255 295.007C261.394 294.675 261.464 294.277 261.464 293.815C261.464 293.363 261.396 292.964 261.259 292.618C261.123 292.272 260.922 292.001 260.655 291.805C260.388 291.609 260.059 291.511 259.667 291.511C259.258 291.511 258.918 291.615 258.646 291.822C258.376 292.029 258.173 292.306 258.037 292.655C257.904 293.003 257.837 293.39 257.837 293.815C257.837 294.25 257.905 294.635 258.041 294.97C258.18 295.302 258.384 295.564 258.654 295.754C258.926 295.942 259.264 296.036 259.667 296.036Z" fill="black" fill-opacity="0.5"/>
<path d="M347.567 291.25H346.554C346.494 290.959 346.389 290.703 346.239 290.482C346.092 290.262 345.913 290.077 345.7 289.927C345.491 289.774 345.258 289.66 345.002 289.584C344.746 289.508 344.479 289.469 344.202 289.469C343.695 289.469 343.236 289.597 342.825 289.853C342.417 290.109 342.092 290.486 341.849 290.985C341.61 291.483 341.49 292.094 341.49 292.818C341.49 293.542 341.61 294.154 341.849 294.652C342.092 295.15 342.417 295.527 342.825 295.783C343.236 296.039 343.695 296.167 344.202 296.167C344.479 296.167 344.746 296.129 345.002 296.053C345.258 295.976 345.491 295.863 345.7 295.714C345.913 295.561 346.092 295.375 346.239 295.154C346.389 294.931 346.494 294.675 346.554 294.386H347.567C347.49 294.814 347.352 295.196 347.15 295.534C346.949 295.872 346.698 296.159 346.399 296.396C346.099 296.63 345.763 296.808 345.39 296.931C345.02 297.053 344.624 297.114 344.202 297.114C343.488 297.114 342.854 296.94 342.299 296.592C341.743 296.243 341.306 295.748 340.988 295.105C340.669 294.463 340.51 293.7 340.51 292.818C340.51 291.936 340.669 291.174 340.988 290.531C341.306 289.889 341.743 289.393 342.299 289.045C342.854 288.696 343.488 288.522 344.202 288.522C344.624 288.522 345.02 288.583 345.39 288.706C345.763 288.828 346.099 289.008 346.399 289.245C346.698 289.479 346.949 289.765 347.15 290.102C347.352 290.437 347.49 290.82 347.567 291.25ZM351.621 297.131C351.055 297.131 350.558 296.996 350.13 296.726C349.706 296.457 349.373 296.08 349.134 295.595C348.897 295.111 348.778 294.544 348.778 293.896C348.778 293.243 348.897 292.673 349.134 292.185C349.373 291.698 349.706 291.319 350.13 291.05C350.558 290.78 351.055 290.646 351.621 290.646C352.187 290.646 352.683 290.78 353.107 291.05C353.535 291.319 353.867 291.698 354.104 292.185C354.343 292.673 354.463 293.243 354.463 293.896C354.463 294.544 354.343 295.111 354.104 295.595C353.867 296.08 353.535 296.457 353.107 296.726C352.683 296.996 352.187 297.131 351.621 297.131ZM351.621 296.265C352.051 296.265 352.405 296.155 352.683 295.934C352.96 295.714 353.166 295.424 353.299 295.064C353.433 294.705 353.499 294.316 353.499 293.896C353.499 293.477 353.433 293.086 353.299 292.724C353.166 292.362 352.96 292.069 352.683 291.846C352.405 291.623 352.051 291.511 351.621 291.511C351.191 291.511 350.837 291.623 350.559 291.846C350.281 292.069 350.076 292.362 349.942 292.724C349.809 293.086 349.742 293.477 349.742 293.896C349.742 294.316 349.809 294.705 349.942 295.064C350.076 295.424 350.281 295.714 350.559 295.934C350.837 296.155 351.191 296.265 351.621 296.265ZM356.898 293.227V297H355.934V290.727H356.865V291.707H356.947C357.094 291.389 357.317 291.133 357.617 290.94C357.916 290.744 358.303 290.646 358.777 290.646C359.201 290.646 359.573 290.733 359.892 290.907C360.21 291.078 360.458 291.34 360.635 291.691C360.812 292.04 360.9 292.481 360.9 293.014V297H359.936V293.08C359.936 292.587 359.809 292.203 359.553 291.928C359.297 291.65 358.945 291.511 358.499 291.511C358.191 291.511 357.916 291.578 357.674 291.711C357.434 291.845 357.245 292.04 357.106 292.295C356.968 292.551 356.898 292.862 356.898 293.227ZM365.455 290.727V291.544H362.073V290.727H365.455ZM363.086 297V289.862C363.086 289.502 363.171 289.203 363.339 288.963C363.508 288.723 363.727 288.544 363.997 288.424C364.266 288.304 364.551 288.244 364.85 288.244C365.087 288.244 365.28 288.263 365.43 288.301C365.58 288.34 365.692 288.375 365.765 288.408L365.487 289.241C365.438 289.224 365.37 289.204 365.283 289.18C365.199 289.155 365.087 289.143 364.948 289.143C364.63 289.143 364.4 289.223 364.258 289.384C364.119 289.544 364.05 289.78 364.05 290.09V297H363.086ZM366.805 297V290.727H367.769V297H366.805ZM367.295 289.682C367.108 289.682 366.946 289.618 366.81 289.49C366.676 289.362 366.609 289.208 366.609 289.028C366.609 288.849 366.676 288.695 366.81 288.567C366.946 288.439 367.108 288.375 367.295 288.375C367.483 288.375 367.644 288.439 367.777 288.567C367.914 288.695 367.982 288.849 367.982 289.028C367.982 289.208 367.914 289.362 367.777 289.49C367.644 289.618 367.483 289.682 367.295 289.682ZM369.534 297V290.727H370.466V291.675H370.531C370.645 291.364 370.852 291.113 371.152 290.919C371.451 290.726 371.789 290.629 372.164 290.629C372.235 290.629 372.324 290.631 372.43 290.633C372.536 290.636 372.616 290.64 372.671 290.646V291.626C372.638 291.618 372.563 291.605 372.446 291.589C372.332 291.57 372.211 291.56 372.083 291.56C371.778 291.56 371.506 291.624 371.266 291.752C371.029 291.878 370.841 292.052 370.702 292.275C370.566 292.496 370.498 292.747 370.498 293.031V297H369.534ZM373.813 297V290.727H374.744V291.707H374.826C374.957 291.373 375.168 291.113 375.459 290.927C375.75 290.74 376.1 290.646 376.509 290.646C376.922 290.646 377.267 290.74 377.542 290.927C377.819 291.113 378.036 291.373 378.191 291.707H378.256C378.417 291.383 378.658 291.126 378.979 290.936C379.301 290.742 379.686 290.646 380.135 290.646C380.696 290.646 381.155 290.821 381.511 291.172C381.868 291.521 382.046 292.064 382.046 292.802V297H381.082V292.802C381.082 292.339 380.956 292.008 380.703 291.809C380.449 291.611 380.151 291.511 379.808 291.511C379.367 291.511 379.026 291.645 378.783 291.912C378.541 292.176 378.42 292.511 378.42 292.916V297H377.44V292.704C377.44 292.347 377.324 292.06 377.093 291.842C376.861 291.622 376.563 291.511 376.198 291.511C375.948 291.511 375.714 291.578 375.496 291.711C375.281 291.845 375.106 292.03 374.973 292.267C374.842 292.501 374.777 292.772 374.777 293.08V297H373.813Z" fill="black" fill-opacity="0.5"/>
<path d="M468.073 297V288.636H470.997C471.579 288.636 472.06 288.737 472.438 288.939C472.817 289.137 473.098 289.405 473.284 289.743C473.469 290.078 473.561 290.45 473.561 290.858C473.561 291.217 473.497 291.514 473.369 291.748C473.244 291.982 473.078 292.167 472.871 292.304C472.667 292.44 472.445 292.54 472.205 292.606V292.688C472.461 292.704 472.719 292.794 472.977 292.957C473.236 293.12 473.452 293.355 473.627 293.659C473.801 293.964 473.888 294.337 473.888 294.778C473.888 295.198 473.793 295.575 473.602 295.91C473.411 296.244 473.111 296.51 472.7 296.706C472.288 296.902 471.753 297 471.095 297H468.073ZM469.085 296.102H471.095C471.756 296.102 472.226 295.974 472.504 295.718C472.784 295.459 472.924 295.146 472.924 294.778C472.924 294.495 472.852 294.234 472.708 293.994C472.563 293.752 472.358 293.559 472.091 293.414C471.824 293.267 471.508 293.194 471.144 293.194H469.085V296.102ZM469.085 292.312H470.964C471.269 292.312 471.544 292.252 471.789 292.132C472.037 292.012 472.233 291.844 472.377 291.626C472.524 291.408 472.597 291.152 472.597 290.858C472.597 290.49 472.469 290.179 472.214 289.923C471.958 289.664 471.552 289.535 470.997 289.535H469.085V292.312ZM475.421 297V290.727H476.385V297H475.421ZM475.911 289.682C475.724 289.682 475.562 289.618 475.425 289.49C475.292 289.362 475.225 289.208 475.225 289.028C475.225 288.849 475.292 288.695 475.425 288.567C475.562 288.439 475.724 288.375 475.911 288.375C476.099 288.375 476.26 288.439 476.393 288.567C476.529 288.695 476.598 288.849 476.598 289.028C476.598 289.208 476.529 289.362 476.393 289.49C476.26 289.618 476.099 289.682 475.911 289.682ZM479.114 288.636V297H478.15V288.636H479.114ZM481.843 288.636V297H480.879V288.636H481.843ZM483.608 297V290.727H484.572V297H483.608ZM484.098 289.682C483.911 289.682 483.749 289.618 483.613 289.49C483.479 289.362 483.412 289.208 483.412 289.028C483.412 288.849 483.479 288.695 483.613 288.567C483.749 288.439 483.911 288.375 484.098 288.375C484.286 288.375 484.447 288.439 484.58 288.567C484.716 288.695 484.785 288.849 484.785 289.028C484.785 289.208 484.716 289.362 484.58 289.49C484.447 289.618 484.286 289.682 484.098 289.682ZM487.301 293.227V297H486.337V290.727H487.269V291.707H487.35C487.497 291.389 487.72 291.133 488.02 290.94C488.319 290.744 488.706 290.646 489.18 290.646C489.604 290.646 489.976 290.733 490.295 290.907C490.613 291.078 490.861 291.34 491.038 291.691C491.215 292.04 491.303 292.481 491.303 293.014V297H490.34V293.08C490.34 292.587 490.212 292.203 489.956 291.928C489.7 291.65 489.349 291.511 488.902 291.511C488.594 291.511 488.319 291.578 488.077 291.711C487.838 291.845 487.648 292.04 487.509 292.295C487.371 292.551 487.301 292.862 487.301 293.227ZM495.596 299.483C495.131 299.483 494.731 299.423 494.396 299.303C494.061 299.186 493.782 299.031 493.559 298.838C493.338 298.647 493.162 298.443 493.032 298.225L493.8 297.686C493.887 297.8 493.997 297.931 494.13 298.078C494.264 298.228 494.446 298.357 494.678 298.466C494.912 298.578 495.218 298.634 495.596 298.634C496.103 298.634 496.521 298.511 496.85 298.266C497.18 298.021 497.344 297.637 497.344 297.114V295.84H497.263C497.192 295.955 497.091 296.096 496.96 296.265C496.832 296.431 496.647 296.579 496.405 296.71C496.165 296.838 495.841 296.902 495.433 296.902C494.927 296.902 494.472 296.782 494.069 296.543C493.669 296.303 493.352 295.955 493.118 295.497C492.886 295.04 492.77 294.484 492.77 293.831C492.77 293.188 492.883 292.629 493.109 292.153C493.335 291.673 493.65 291.303 494.053 291.042C494.456 290.778 494.921 290.646 495.449 290.646C495.858 290.646 496.182 290.714 496.421 290.85C496.664 290.983 496.849 291.136 496.977 291.307C497.107 291.476 497.208 291.615 497.279 291.724H497.377V290.727H498.308V297.18C498.308 297.719 498.186 298.157 497.941 298.495C497.698 298.835 497.372 299.084 496.96 299.242C496.552 299.403 496.097 299.483 495.596 299.483ZM495.564 296.036C495.95 296.036 496.277 295.948 496.544 295.771C496.811 295.594 497.014 295.339 497.152 295.007C497.291 294.675 497.361 294.277 497.361 293.815C497.361 293.363 497.293 292.964 497.156 292.618C497.02 292.272 496.819 292.001 496.552 291.805C496.285 291.609 495.956 291.511 495.564 291.511C495.155 291.511 494.815 291.615 494.543 291.822C494.273 292.029 494.07 292.306 493.934 292.655C493.801 293.003 493.734 293.39 493.734 293.815C493.734 294.25 493.802 294.635 493.938 294.97C494.077 295.302 494.281 295.564 494.551 295.754C494.823 295.942 495.161 296.036 495.564 296.036Z" fill="black" fill-opacity="0.5"/>
<rect x="208" y="308.5" width="11" height="11" rx="5.5" fill="#00C7BE" stroke="white"/>
<path d="M227.557 309.773H228.818L231.784 317.017H231.886L234.852 309.773H236.114V318.5H235.125V311.869H235.04L232.312 318.5H231.358L228.631 311.869H228.545V318.5H227.557V309.773ZM240.755 318.636C240.164 318.636 239.646 318.496 239.2 318.214C238.757 317.933 238.41 317.54 238.16 317.034C237.913 316.528 237.789 315.937 237.789 315.261C237.789 314.58 237.913 313.984 238.16 313.476C238.41 312.967 238.757 312.572 239.2 312.291C239.646 312.01 240.164 311.869 240.755 311.869C241.346 311.869 241.863 312.01 242.306 312.291C242.752 312.572 243.099 312.967 243.346 313.476C243.596 313.984 243.721 314.58 243.721 315.261C243.721 315.937 243.596 316.528 243.346 317.034C243.099 317.54 242.752 317.933 242.306 318.214C241.863 318.496 241.346 318.636 240.755 318.636ZM240.755 317.733C241.204 317.733 241.574 317.618 241.863 317.388C242.153 317.158 242.368 316.855 242.507 316.48C242.646 316.105 242.716 315.699 242.716 315.261C242.716 314.824 242.646 314.416 242.507 314.038C242.368 313.661 242.153 313.355 241.863 313.122C241.574 312.889 241.204 312.773 240.755 312.773C240.306 312.773 239.937 312.889 239.647 313.122C239.358 313.355 239.143 313.661 239.004 314.038C238.865 314.416 238.795 314.824 238.795 315.261C238.795 315.699 238.865 316.105 239.004 316.48C239.143 316.855 239.358 317.158 239.647 317.388C239.937 317.618 240.306 317.733 240.755 317.733ZM245.393 318.5V309.773H246.398V312.994H246.484C246.558 312.881 246.66 312.736 246.79 312.56C246.924 312.381 247.114 312.222 247.362 312.082C247.612 311.94 247.95 311.869 248.376 311.869C248.927 311.869 249.413 312.007 249.833 312.283C250.254 312.558 250.582 312.949 250.817 313.455C251.053 313.96 251.171 314.557 251.171 315.244C251.171 315.938 251.053 316.538 250.817 317.047C250.582 317.553 250.255 317.945 249.837 318.223C249.42 318.499 248.938 318.636 248.393 318.636C247.972 318.636 247.636 318.567 247.383 318.428C247.13 318.286 246.935 318.125 246.799 317.946C246.663 317.764 246.558 317.614 246.484 317.494H246.364V318.5H245.393ZM246.381 315.227C246.381 315.722 246.454 316.158 246.599 316.536C246.744 316.911 246.955 317.205 247.234 317.418C247.512 317.628 247.853 317.733 248.256 317.733C248.677 317.733 249.028 317.622 249.309 317.401C249.593 317.176 249.806 316.875 249.948 316.497C250.093 316.116 250.165 315.693 250.165 315.227C250.165 314.767 250.094 314.352 249.952 313.983C249.813 313.611 249.602 313.317 249.317 313.101C249.036 312.882 248.683 312.773 248.256 312.773C247.847 312.773 247.504 312.876 247.225 313.084C246.947 313.288 246.737 313.575 246.594 313.945C246.452 314.311 246.381 314.739 246.381 315.227ZM252.71 318.5V311.955H253.715V318.5H252.71ZM253.221 310.864C253.025 310.864 252.856 310.797 252.714 310.663C252.575 310.53 252.505 310.369 252.505 310.182C252.505 309.994 252.575 309.834 252.714 309.7C252.856 309.567 253.025 309.5 253.221 309.5C253.417 309.5 253.585 309.567 253.724 309.7C253.866 309.834 253.937 309.994 253.937 310.182C253.937 310.369 253.866 310.53 253.724 310.663C253.585 310.797 253.417 310.864 253.221 310.864ZM256.563 309.773V318.5H255.557V309.773H256.563ZM261.149 318.636C260.518 318.636 259.974 318.497 259.517 318.219C259.062 317.938 258.712 317.545 258.464 317.043C258.22 316.537 258.098 315.949 258.098 315.278C258.098 314.608 258.22 314.017 258.464 313.506C258.712 312.991 259.055 312.591 259.496 312.304C259.939 312.014 260.456 311.869 261.047 311.869C261.388 311.869 261.724 311.926 262.057 312.04C262.389 312.153 262.692 312.338 262.964 312.594C263.237 312.847 263.455 313.182 263.616 313.599C263.778 314.017 263.859 314.531 263.859 315.142V315.568H258.814V314.699H262.837C262.837 314.33 262.763 314 262.615 313.71C262.47 313.42 262.263 313.192 261.993 313.024C261.726 312.857 261.411 312.773 261.047 312.773C260.646 312.773 260.3 312.872 260.007 313.071C259.717 313.267 259.494 313.523 259.338 313.838C259.182 314.153 259.104 314.491 259.104 314.852V315.432C259.104 315.926 259.189 316.345 259.359 316.689C259.533 317.03 259.773 317.29 260.08 317.469C260.386 317.645 260.743 317.733 261.149 317.733C261.413 317.733 261.652 317.696 261.865 317.622C262.081 317.545 262.267 317.432 262.423 317.281C262.58 317.128 262.7 316.937 262.786 316.71L263.757 316.983C263.655 317.312 263.483 317.602 263.241 317.852C263 318.099 262.702 318.293 262.347 318.432C261.991 318.568 261.592 318.636 261.149 318.636Z" fill="black" fill-opacity="0.7"/>
<rect x="282" y="308.5" width="11" height="11" rx="5.5" fill="#5856D6" stroke="white"/>
<path d="M304.25 318.5H301.557V309.773H304.369C305.216 309.773 305.94 309.947 306.543 310.297C307.145 310.643 307.607 311.142 307.928 311.793C308.249 312.44 308.409 313.216 308.409 314.119C308.409 315.028 308.247 315.811 307.923 316.467C307.599 317.121 307.128 317.624 306.509 317.976C305.889 318.325 305.136 318.5 304.25 318.5ZM302.614 317.562H304.182C304.903 317.562 305.501 317.423 305.976 317.145C306.45 316.866 306.804 316.47 307.037 315.956C307.27 315.442 307.386 314.83 307.386 314.119C307.386 313.415 307.271 312.808 307.041 312.3C306.811 311.788 306.467 311.396 306.01 311.124C305.553 310.848 304.983 310.71 304.301 310.71H302.614V317.562ZM312.79 318.636C312.159 318.636 311.615 318.497 311.158 318.219C310.703 317.938 310.352 317.545 310.105 317.043C309.861 316.537 309.739 315.949 309.739 315.278C309.739 314.608 309.861 314.017 310.105 313.506C310.352 312.991 310.696 312.591 311.136 312.304C311.58 312.014 312.097 311.869 312.688 311.869C313.028 311.869 313.365 311.926 313.697 312.04C314.03 312.153 314.332 312.338 314.605 312.594C314.878 312.847 315.095 313.182 315.257 313.599C315.419 314.017 315.5 314.531 315.5 315.142V315.568H310.455V314.699H314.477C314.477 314.33 314.403 314 314.256 313.71C314.111 313.42 313.903 313.192 313.634 313.024C313.366 312.857 313.051 312.773 312.688 312.773C312.287 312.773 311.94 312.872 311.648 313.071C311.358 313.267 311.135 313.523 310.979 313.838C310.822 314.153 310.744 314.491 310.744 314.852V315.432C310.744 315.926 310.83 316.345 311 316.689C311.173 317.03 311.413 317.29 311.72 317.469C312.027 317.645 312.384 317.733 312.79 317.733C313.054 317.733 313.293 317.696 313.506 317.622C313.722 317.545 313.908 317.432 314.064 317.281C314.22 317.128 314.341 316.937 314.426 316.71L315.398 316.983C315.295 317.312 315.124 317.602 314.882 317.852C314.641 318.099 314.342 318.293 313.987 318.432C313.632 318.568 313.233 318.636 312.79 318.636ZM321.666 313.42L320.763 313.676C320.706 313.526 320.622 313.379 320.511 313.237C320.403 313.092 320.256 312.973 320.068 312.879C319.881 312.786 319.641 312.739 319.348 312.739C318.947 312.739 318.614 312.831 318.347 313.016C318.082 313.197 317.95 313.429 317.95 313.71C317.95 313.96 318.041 314.158 318.223 314.303C318.405 314.447 318.689 314.568 319.075 314.665L320.047 314.903C320.632 315.045 321.068 315.263 321.355 315.555C321.642 315.845 321.786 316.219 321.786 316.676C321.786 317.051 321.678 317.386 321.462 317.682C321.249 317.977 320.95 318.21 320.567 318.381C320.183 318.551 319.737 318.636 319.229 318.636C318.561 318.636 318.009 318.491 317.571 318.202C317.134 317.912 316.857 317.489 316.74 316.932L317.695 316.693C317.786 317.045 317.957 317.31 318.21 317.486C318.466 317.662 318.8 317.75 319.212 317.75C319.68 317.75 320.053 317.651 320.328 317.452C320.607 317.25 320.746 317.009 320.746 316.727C320.746 316.5 320.666 316.31 320.507 316.156C320.348 316 320.104 315.884 319.774 315.807L318.683 315.551C318.084 315.409 317.643 315.189 317.362 314.891C317.084 314.589 316.945 314.213 316.945 313.761C316.945 313.392 317.048 313.065 317.256 312.781C317.466 312.497 317.751 312.274 318.112 312.112C318.476 311.95 318.888 311.869 319.348 311.869C319.996 311.869 320.504 312.011 320.874 312.295C321.246 312.58 321.51 312.955 321.666 313.42ZM324.237 316.114L324.22 314.869H324.424L327.288 311.955H328.532L325.481 315.04H325.396L324.237 316.114ZM323.299 318.5V309.773H324.305V318.5H323.299ZM327.458 318.5L324.902 315.261L325.618 314.562L328.737 318.5H327.458ZM332.673 311.955V312.807H329.281V311.955H332.673ZM330.27 310.386H331.276V316.625C331.276 316.909 331.317 317.122 331.399 317.264C331.484 317.403 331.592 317.497 331.723 317.545C331.857 317.591 331.997 317.614 332.145 317.614C332.256 317.614 332.347 317.608 332.418 317.597C332.489 317.582 332.545 317.571 332.588 317.562L332.793 318.466C332.724 318.491 332.629 318.517 332.507 318.543C332.385 318.571 332.23 318.585 332.043 318.585C331.759 318.585 331.48 318.524 331.207 318.402C330.938 318.28 330.713 318.094 330.534 317.844C330.358 317.594 330.27 317.278 330.27 316.898V310.386ZM336.775 318.636C336.184 318.636 335.665 318.496 335.219 318.214C334.776 317.933 334.43 317.54 334.18 317.034C333.933 316.528 333.809 315.937 333.809 315.261C333.809 314.58 333.933 313.984 334.18 313.476C334.43 312.967 334.776 312.572 335.219 312.291C335.665 312.01 336.184 311.869 336.775 311.869C337.366 311.869 337.883 312.01 338.326 312.291C338.772 312.572 339.119 312.967 339.366 313.476C339.616 313.984 339.741 314.58 339.741 315.261C339.741 315.937 339.616 316.528 339.366 317.034C339.119 317.54 338.772 317.933 338.326 318.214C337.883 318.496 337.366 318.636 336.775 318.636ZM336.775 317.733C337.224 317.733 337.593 317.618 337.883 317.388C338.173 317.158 338.387 316.855 338.526 316.48C338.665 316.105 338.735 315.699 338.735 315.261C338.735 314.824 338.665 314.416 338.526 314.038C338.387 313.661 338.173 313.355 337.883 313.122C337.593 312.889 337.224 312.773 336.775 312.773C336.326 312.773 335.957 312.889 335.667 313.122C335.377 313.355 335.163 313.661 335.023 314.038C334.884 314.416 334.815 314.824 334.815 315.261C334.815 315.699 334.884 316.105 335.023 316.48C335.163 316.855 335.377 317.158 335.667 317.388C335.957 317.618 336.326 317.733 336.775 317.733ZM341.276 320.955V311.955H342.248V312.994H342.367C342.441 312.881 342.543 312.736 342.674 312.56C342.807 312.381 342.998 312.222 343.245 312.082C343.495 311.94 343.833 311.869 344.259 311.869C344.81 311.869 345.296 312.007 345.716 312.283C346.137 312.558 346.465 312.949 346.701 313.455C346.936 313.96 347.054 314.557 347.054 315.244C347.054 315.938 346.936 316.538 346.701 317.047C346.465 317.553 346.138 317.945 345.721 318.223C345.303 318.499 344.821 318.636 344.276 318.636C343.855 318.636 343.519 318.567 343.266 318.428C343.013 318.286 342.819 318.125 342.682 317.946C342.546 317.764 342.441 317.614 342.367 317.494H342.282V320.955H341.276ZM342.265 315.227C342.265 315.722 342.337 316.158 342.482 316.536C342.627 316.911 342.838 317.205 343.117 317.418C343.395 317.628 343.736 317.733 344.14 317.733C344.56 317.733 344.911 317.622 345.192 317.401C345.476 317.176 345.689 316.875 345.831 316.497C345.976 316.116 346.049 315.693 346.049 315.227C346.049 314.767 345.978 314.352 345.836 313.983C345.696 313.611 345.485 313.317 345.201 313.101C344.919 312.882 344.566 312.773 344.14 312.773C343.73 312.773 343.387 312.876 343.108 313.084C342.83 313.288 342.62 313.575 342.478 313.945C342.336 314.311 342.265 314.739 342.265 315.227Z" fill="black" fill-opacity="0.7"/>
</g>
<defs>
<clipPath id="clip0_292_93488">
<rect width="580" height="338" fill="white"/>
</clipPath>
</defs>
</svg>
