<svg width="20" height="20" viewBox="0 0 20 20" fill="none" xmlns="http://www.w3.org/2000/svg">
<path d="M14.0078 8.49219C14.0078 6.55469 12.9453 4.74219 11.2578 3.74219C9.53906 2.77344 7.44531 2.77344 5.75781 3.74219C4.03906 4.74219 3.00781 6.55469 3.00781 8.49219C3.00781 10.4609 4.03906 12.2734 5.75781 13.2734C7.44531 14.2422 9.53906 14.2422 11.2578 13.2734C12.9453 12.2734 14.0078 10.4609 14.0078 8.49219ZM12.7266 13.4297C11.6016 14.4297 10.1016 14.9922 8.50781 14.9922C4.91406 14.9922 2.00781 12.0859 2.00781 8.49219C2.00781 4.92969 4.91406 1.99219 8.50781 1.99219C12.0703 1.99219 15.0078 4.92969 15.0078 8.49219C15.0078 10.1172 14.4141 11.5859 13.4453 12.7422L17.8516 17.1484C18.0391 17.3359 18.0391 17.6797 17.8516 17.8672C17.6641 18.0547 17.3203 18.0547 17.1328 17.8672L12.7266 13.4297Z" fill="#FA4D4D"/>
</svg>
