<svg width="20" height="20" viewBox="0 0 20 20" fill="none" xmlns="http://www.w3.org/2000/svg">
<path d="M5 4C4.4375 4 4 4.46875 4 5V15C4 15.5625 4.4375 16 5 16H15C15.5312 16 16 15.5625 16 15V5C16 4.46875 15.5312 4 15 4H5ZM3 5C3 3.90625 3.875 3 5 3H15C16.0938 3 17 3.90625 17 5V15C17 16.125 16.0938 17 15 17H5C3.875 17 3 16.125 3 15V5ZM7 9C7.25 9 7.5 9.25 7.5 9.5V13.5C7.5 13.7812 7.25 14 7 14C6.71875 14 6.5 13.7812 6.5 13.5V9.5C6.5 9.25 6.71875 9 7 9ZM9.5 6.5C9.5 6.25 9.71875 6 10 6C10.25 6 10.5 6.25 10.5 6.5V13.5C10.5 13.7812 10.25 14 10 14C9.71875 14 9.5 13.7812 9.5 13.5V6.5ZM13 11C13.25 11 13.5 11.25 13.5 11.5V13.5C13.5 13.7812 13.25 14 13 14C12.7188 14 12.5 13.7812 12.5 13.5V11.5C12.5 11.25 12.7188 11 13 11Z" fill="#FA4D4D"/>
</svg>
