<svg width="324" height="40" viewBox="0 0 324 40" fill="none" xmlns="http://www.w3.org/2000/svg">
<rect width="324" height="40" fill="white"/>
<rect x="1" y="5" width="57" height="30" fill="#75B2C5"/>
<rect x="1" y="5" width="57" height="30" stroke="#75B2C5" stroke-width="2"/>
<path d="M22.8965 25H21.2695V15.0059H26.916V16.3867H22.8965V19.5039H26.6562V20.8779H22.8965V25ZM30.1768 17.4326V25H28.5703V17.4326H30.1768ZM29.3838 14.5342C29.6299 14.5342 29.8418 14.6003 30.0195 14.7324C30.2018 14.8646 30.293 15.0924 30.293 15.416C30.293 15.735 30.2018 15.9629 30.0195 16.0996C29.8418 16.2318 29.6299 16.2979 29.3838 16.2979C29.1286 16.2979 28.9121 16.2318 28.7344 16.0996C28.5612 15.9629 28.4746 15.735 28.4746 15.416C28.4746 15.0924 28.5612 14.8646 28.7344 14.7324C28.9121 14.6003 29.1286 14.5342 29.3838 14.5342ZM34.1553 21.1309L31.626 17.4326H33.458L35.1875 20.0918L36.9238 17.4326H38.749L36.2061 21.1309L38.8789 25H37.04L35.1875 22.1631L33.3281 25H31.5029L34.1553 21.1309Z" fill="white"/>
<rect x="69" width="255" height="40" rx="3" fill="url(#paint0_radial_356_5666)"/>
<rect x="69" width="255" height="40" rx="3" fill="#7BAA64" fill-opacity="0.2"/>
<path d="M107.253 16.626C106.847 16.626 106.487 16.7057 106.173 16.8652C105.863 17.0202 105.601 17.2458 105.387 17.542C105.177 17.8382 105.018 18.196 104.908 18.6152C104.799 19.0345 104.744 19.5062 104.744 20.0303C104.744 20.7367 104.831 21.3405 105.004 21.8418C105.182 22.3385 105.455 22.7191 105.824 22.9834C106.193 23.2432 106.67 23.373 107.253 23.373C107.659 23.373 108.064 23.3275 108.47 23.2363C108.88 23.1452 109.324 23.0153 109.803 22.8467V24.624C109.361 24.8063 108.925 24.9362 108.497 25.0137C108.069 25.0957 107.588 25.1367 107.055 25.1367C106.025 25.1367 105.177 24.9248 104.512 24.501C103.851 24.0726 103.361 23.4756 103.042 22.71C102.723 21.9398 102.563 21.042 102.563 20.0166C102.563 19.2601 102.666 18.5674 102.871 17.9385C103.076 17.3096 103.377 16.765 103.773 16.3047C104.17 15.8444 104.66 15.4889 105.243 15.2383C105.826 14.9876 106.496 14.8623 107.253 14.8623C107.75 14.8623 108.246 14.9261 108.743 15.0537C109.244 15.1768 109.723 15.3477 110.179 15.5664L109.495 17.2891C109.121 17.1113 108.745 16.9564 108.367 16.8242C107.989 16.6921 107.618 16.626 107.253 16.626ZM120.867 19.9893C120.867 20.7594 120.771 21.4613 120.58 22.0947C120.388 22.7236 120.097 23.266 119.705 23.7217C119.317 24.1774 118.825 24.5283 118.228 24.7744C117.631 25.016 116.925 25.1367 116.109 25.1367C115.293 25.1367 114.587 25.016 113.99 24.7744C113.393 24.5283 112.898 24.1774 112.506 23.7217C112.119 23.266 111.83 22.7214 111.638 22.0879C111.447 21.4544 111.351 20.7503 111.351 19.9756C111.351 18.9411 111.52 18.041 111.857 17.2754C112.199 16.5052 112.723 15.9082 113.429 15.4844C114.136 15.0605 115.034 14.8486 116.123 14.8486C117.207 14.8486 118.098 15.0605 118.796 15.4844C119.497 15.9082 120.017 16.5052 120.354 17.2754C120.696 18.0456 120.867 18.9502 120.867 19.9893ZM113.573 19.9893C113.573 20.6865 113.659 21.2881 113.833 21.7939C114.01 22.2952 114.286 22.6826 114.66 22.9561C115.034 23.2249 115.517 23.3594 116.109 23.3594C116.711 23.3594 117.198 23.2249 117.572 22.9561C117.946 22.6826 118.217 22.2952 118.385 21.7939C118.559 21.2881 118.645 20.6865 118.645 19.9893C118.645 18.9411 118.449 18.1162 118.057 17.5146C117.665 16.9131 117.02 16.6123 116.123 16.6123C115.526 16.6123 115.038 16.749 114.66 17.0225C114.286 17.2913 114.01 17.6787 113.833 18.1846C113.659 18.6859 113.573 19.2874 113.573 19.9893ZM131.664 25H128.971L124.623 17.4395H124.562C124.58 17.7539 124.596 18.0706 124.61 18.3896C124.623 18.7087 124.637 19.0277 124.651 19.3467C124.664 19.6611 124.678 19.9779 124.692 20.2969V25H122.798V15.0059H125.471L129.812 22.4912H129.86C129.851 22.1813 129.839 21.8737 129.825 21.5684C129.812 21.263 129.798 20.9577 129.784 20.6523C129.775 20.347 129.766 20.0417 129.757 19.7363V15.0059H131.664V25ZM137.902 25H135.783V16.7695H133.069V15.0059H140.616V16.7695H137.902V25ZM142.014 25V15.0059H144.133V25H142.014ZM155.375 25H152.682L148.334 17.4395H148.273C148.291 17.7539 148.307 18.0706 148.321 18.3896C148.334 18.7087 148.348 19.0277 148.362 19.3467C148.375 19.6611 148.389 19.9779 148.403 20.2969V25H146.509V15.0059H149.182L153.523 22.4912H153.571C153.561 22.1813 153.55 21.8737 153.536 21.5684C153.523 21.263 153.509 20.9577 153.495 20.6523C153.486 20.347 153.477 20.0417 153.468 19.7363V15.0059H155.375V25ZM165.892 15.0059V21.4727C165.892 22.1608 165.74 22.7829 165.434 23.3389C165.134 23.8903 164.676 24.3278 164.06 24.6514C163.45 24.9749 162.68 25.1367 161.75 25.1367C160.428 25.1367 159.421 24.7995 158.728 24.125C158.036 23.4505 157.689 22.5573 157.689 21.4453V15.0059H159.802V21.124C159.802 21.9489 159.97 22.5277 160.307 22.8604C160.645 23.193 161.144 23.3594 161.805 23.3594C162.269 23.3594 162.645 23.2796 162.932 23.1201C163.224 22.9606 163.438 22.7145 163.575 22.3818C163.712 22.0492 163.78 21.6253 163.78 21.1104V15.0059H165.892ZM173.956 25H168.2V15.0059H173.956V16.7422H170.319V18.9365H173.703V20.6729H170.319V23.25H173.956V25ZM183.26 25H181.14V16.7695H178.427V15.0059H185.973V16.7695H183.26V25ZM196.443 19.9893C196.443 20.7594 196.347 21.4613 196.156 22.0947C195.964 22.7236 195.673 23.266 195.281 23.7217C194.893 24.1774 194.401 24.5283 193.804 24.7744C193.207 25.016 192.501 25.1367 191.685 25.1367C190.869 25.1367 190.163 25.016 189.566 24.7744C188.969 24.5283 188.474 24.1774 188.082 23.7217C187.695 23.266 187.406 22.7214 187.214 22.0879C187.023 21.4544 186.927 20.7503 186.927 19.9756C186.927 18.9411 187.096 18.041 187.433 17.2754C187.775 16.5052 188.299 15.9082 189.005 15.4844C189.712 15.0605 190.609 14.8486 191.699 14.8486C192.783 14.8486 193.674 15.0605 194.371 15.4844C195.073 15.9082 195.593 16.5052 195.93 17.2754C196.272 18.0456 196.443 18.9502 196.443 19.9893ZM189.149 19.9893C189.149 20.6865 189.235 21.2881 189.409 21.7939C189.586 22.2952 189.862 22.6826 190.236 22.9561C190.609 23.2249 191.093 23.3594 191.685 23.3594C192.287 23.3594 192.774 23.2249 193.148 22.9561C193.522 22.6826 193.793 22.2952 193.961 21.7939C194.135 21.2881 194.221 20.6865 194.221 19.9893C194.221 18.9411 194.025 18.1162 193.633 17.5146C193.241 16.9131 192.596 16.6123 191.699 16.6123C191.102 16.6123 190.614 16.749 190.236 17.0225C189.862 17.2913 189.586 17.6787 189.409 18.1846C189.235 18.6859 189.149 19.2874 189.149 19.9893ZM206.116 16.626C205.71 16.626 205.35 16.7057 205.036 16.8652C204.726 17.0202 204.464 17.2458 204.25 17.542C204.04 17.8382 203.881 18.196 203.771 18.6152C203.662 19.0345 203.607 19.5062 203.607 20.0303C203.607 20.7367 203.694 21.3405 203.867 21.8418C204.045 22.3385 204.318 22.7191 204.687 22.9834C205.056 23.2432 205.533 23.373 206.116 23.373C206.521 23.373 206.927 23.3275 207.333 23.2363C207.743 23.1452 208.187 23.0153 208.666 22.8467V24.624C208.224 24.8063 207.788 24.9362 207.36 25.0137C206.932 25.0957 206.451 25.1367 205.918 25.1367C204.888 25.1367 204.04 24.9248 203.375 24.501C202.714 24.0726 202.224 23.4756 201.905 22.71C201.586 21.9398 201.426 21.042 201.426 20.0166C201.426 19.2601 201.529 18.5674 201.734 17.9385C201.939 17.3096 202.24 16.765 202.636 16.3047C203.033 15.8444 203.523 15.4889 204.106 15.2383C204.689 14.9876 205.359 14.8623 206.116 14.8623C206.613 14.8623 207.109 14.9261 207.606 15.0537C208.107 15.1768 208.586 15.3477 209.042 15.5664L208.358 17.2891C207.984 17.1113 207.608 16.9564 207.23 16.8242C206.852 16.6921 206.48 16.626 206.116 16.626ZM218.848 25H216.736V20.6865H212.778V25H210.659V15.0059H212.778V18.9229H216.736V15.0059H218.848V25ZM226.993 25H221.237V15.0059H226.993V16.7422H223.356V18.9365H226.74V20.6729H223.356V23.25H226.993V25ZM233.19 16.626C232.784 16.626 232.424 16.7057 232.11 16.8652C231.8 17.0202 231.538 17.2458 231.324 17.542C231.114 17.8382 230.955 18.196 230.845 18.6152C230.736 19.0345 230.681 19.5062 230.681 20.0303C230.681 20.7367 230.768 21.3405 230.941 21.8418C231.119 22.3385 231.392 22.7191 231.761 22.9834C232.13 23.2432 232.607 23.373 233.19 23.373C233.596 23.373 234.001 23.3275 234.407 23.2363C234.817 23.1452 235.261 23.0153 235.74 22.8467V24.624C235.298 24.8063 234.863 24.9362 234.434 25.0137C234.006 25.0957 233.525 25.1367 232.992 25.1367C231.962 25.1367 231.114 24.9248 230.449 24.501C229.788 24.0726 229.298 23.4756 228.979 22.71C228.66 21.9398 228.501 21.042 228.501 20.0166C228.501 19.2601 228.603 18.5674 228.808 17.9385C229.013 17.3096 229.314 16.765 229.711 16.3047C230.107 15.8444 230.597 15.4889 231.18 15.2383C231.764 14.9876 232.434 14.8623 233.19 14.8623C233.687 14.8623 234.184 14.9261 234.68 15.0537C235.182 15.1768 235.66 15.3477 236.116 15.5664L235.432 17.2891C235.059 17.1113 234.683 16.9564 234.304 16.8242C233.926 16.6921 233.555 16.626 233.19 16.626ZM245.772 25H243.365L240.747 20.7891L239.852 21.4316V25H237.733V15.0059H239.852V19.5791C239.993 19.3831 240.132 19.1872 240.269 18.9912C240.406 18.7952 240.544 18.5993 240.686 18.4033L243.393 15.0059H245.744L242.258 19.4287L245.772 25ZM255.961 19.9893C255.961 20.7594 255.865 21.4613 255.674 22.0947C255.482 22.7236 255.191 23.266 254.799 23.7217C254.411 24.1774 253.919 24.5283 253.322 24.7744C252.725 25.016 252.019 25.1367 251.203 25.1367C250.387 25.1367 249.681 25.016 249.084 24.7744C248.487 24.5283 247.992 24.1774 247.6 23.7217C247.213 23.266 246.924 22.7214 246.732 22.0879C246.541 21.4544 246.445 20.7503 246.445 19.9756C246.445 18.9411 246.614 18.041 246.951 17.2754C247.293 16.5052 247.817 15.9082 248.523 15.4844C249.23 15.0605 250.127 14.8486 251.217 14.8486C252.301 14.8486 253.192 15.0605 253.89 15.4844C254.591 15.9082 255.111 16.5052 255.448 17.2754C255.79 18.0456 255.961 18.9502 255.961 19.9893ZM248.667 19.9893C248.667 20.6865 248.753 21.2881 248.927 21.7939C249.104 22.2952 249.38 22.6826 249.754 22.9561C250.127 23.2249 250.611 23.3594 251.203 23.3594C251.805 23.3594 252.292 23.2249 252.666 22.9561C253.04 22.6826 253.311 22.2952 253.479 21.7939C253.653 21.2881 253.739 20.6865 253.739 19.9893C253.739 18.9411 253.543 18.1162 253.151 17.5146C252.759 16.9131 252.114 16.6123 251.217 16.6123C250.62 16.6123 250.132 16.749 249.754 17.0225C249.38 17.2913 249.104 17.6787 248.927 18.1846C248.753 18.6859 248.667 19.2874 248.667 19.9893ZM266.027 15.0059V21.4727C266.027 22.1608 265.874 22.7829 265.569 23.3389C265.268 23.8903 264.81 24.3278 264.195 24.6514C263.584 24.9749 262.814 25.1367 261.884 25.1367C260.563 25.1367 259.556 24.7995 258.863 24.125C258.17 23.4505 257.824 22.5573 257.824 21.4453V15.0059H259.936V21.124C259.936 21.9489 260.105 22.5277 260.442 22.8604C260.779 23.193 261.278 23.3594 261.939 23.3594C262.404 23.3594 262.78 23.2796 263.067 23.1201C263.359 22.9606 263.573 22.7145 263.709 22.3818C263.846 22.0492 263.915 21.6253 263.915 21.1104V15.0059H266.027ZM272.19 25H270.07V16.7695H267.357V15.0059H274.903V16.7695H272.19V25Z" fill="white"/>
<path d="M291.25 20L282.625 24.9796L282.625 15.0204L291.25 20Z" fill="white"/>
<defs>
<radialGradient id="paint0_radial_356_5666" cx="0" cy="0" r="1" gradientUnits="userSpaceOnUse" gradientTransform="translate(192.363 17.1429) rotate(1.14526) scale(171.539 38.9095)">
<stop stop-color="#7EAD66"/>
<stop offset="1" stop-color="#70985B"/>
</radialGradient>
</defs>
</svg>
