<svg width="393" height="80" viewBox="0 0 393 80" fill="none" xmlns="http://www.w3.org/2000/svg">
<path d="M7.48925 32.5472C7.48925 33.2361 7.31717 33.8243 6.97302 34.3119C6.63416 34.7941 6.15765 35.1624 5.54347 35.4168C4.9293 35.6712 4.20659 35.7984 3.37532 35.7984C2.93588 35.7984 2.52024 35.7772 2.12844 35.7348C1.73664 35.6924 1.3766 35.6315 1.04833 35.552C0.720071 35.4724 0.431512 35.3744 0.182664 35.2579V33.9621C0.579761 34.1264 1.06422 34.2802 1.63604 34.4232C2.20786 34.561 2.80615 34.6298 3.43091 34.6298C4.01332 34.6298 4.50572 34.5531 4.90812 34.3993C5.31051 34.2404 5.61494 34.0151 5.82144 33.7236C6.03322 33.4269 6.13912 33.0718 6.13912 32.6584C6.13912 32.261 6.05176 31.9298 5.87703 31.6648C5.70231 31.3945 5.41111 31.1508 5.00342 30.9335C4.60103 30.7109 4.05039 30.4751 3.35149 30.226C2.85909 30.0511 2.42494 29.8604 2.04902 29.6536C1.6731 29.4417 1.35807 29.2033 1.10393 28.9383C0.849785 28.6732 0.656532 28.3659 0.524169 28.0161C0.397097 27.6664 0.333561 27.2663 0.333561 26.8158C0.333561 26.1958 0.489752 25.6659 0.80214 25.226C1.11981 24.7809 1.55662 24.4417 2.11256 24.2085C2.67379 23.97 3.31708 23.8508 4.04245 23.8508C4.66191 23.8508 5.23374 23.9091 5.7579 24.0257C6.28737 24.1423 6.77182 24.2986 7.21128 24.4947L6.79035 25.6553C6.37208 25.4804 5.92733 25.3346 5.45612 25.2181C4.99018 25.1015 4.50837 25.0432 4.01068 25.0432C3.51298 25.0432 3.09207 25.1174 2.74791 25.2657C2.40905 25.4088 2.14962 25.6129 1.9696 25.8778C1.78958 26.1428 1.69958 26.4581 1.69958 26.8238C1.69958 27.2318 1.78428 27.571 1.95372 27.8412C2.12844 28.1116 2.40376 28.3526 2.77967 28.5646C3.16089 28.7714 3.66388 28.9886 4.28864 29.2165C4.97165 29.4656 5.55142 29.7305 6.02793 30.0115C6.50445 30.2869 6.86712 30.6261 7.11598 31.0289C7.36482 31.4264 7.48925 31.9325 7.48925 32.5472ZM13.1519 35.7984C12.3683 35.7984 11.6773 35.6367 11.079 35.3135C10.4807 34.9902 10.0148 34.4974 9.68122 33.8349C9.34767 33.1725 9.18088 32.3378 9.18088 31.3309C9.18088 30.2763 9.3556 29.4153 9.70504 28.7474C10.0598 28.0745 10.5469 27.5763 11.1664 27.253C11.7859 26.9298 12.49 26.7681 13.2789 26.7681C13.713 26.7681 14.1314 26.8132 14.5337 26.9033C14.9414 26.9881 15.275 27.0967 15.5344 27.2292L15.1373 28.3342C14.8726 28.2281 14.5656 28.1328 14.2161 28.048C13.872 27.9632 13.549 27.9208 13.2472 27.9208C12.6436 27.9208 12.1406 28.0507 11.7382 28.3103C11.3411 28.57 11.042 28.9515 10.8407 29.4549C10.6448 29.9584 10.5469 30.5785 10.5469 31.315C10.5469 32.0199 10.6422 32.6214 10.8328 33.1195C11.0287 33.6177 11.3173 33.9992 11.6985 34.2642C12.085 34.5239 12.5668 34.6537 13.1439 34.6537C13.6045 34.6537 14.0202 34.606 14.3908 34.5106C14.7614 34.4099 15.0977 34.2933 15.3994 34.1608V35.3373C15.1082 35.4857 14.7826 35.5996 14.4225 35.6792C14.0679 35.7586 13.6443 35.7984 13.1519 35.7984ZM21.4194 26.7681C21.5942 26.7681 21.7768 26.7787 21.9675 26.7999C22.158 26.8158 22.3274 26.8397 22.4756 26.8715L22.3089 28.0957C22.1659 28.0586 22.0071 28.0294 21.8323 28.0082C21.6576 27.987 21.4936 27.9765 21.34 27.9765C20.9905 27.9765 20.6596 28.048 20.3472 28.191C20.0402 28.3288 19.7702 28.5302 19.5372 28.7952C19.3042 29.0549 19.1215 29.3701 18.9892 29.7411C18.8568 30.1068 18.7907 30.5148 18.7907 30.9653V35.6394H17.4644V26.9271H18.5603L18.7033 28.5329H18.7588C18.9389 28.2096 19.1559 27.9154 19.4101 27.6505C19.6642 27.3802 19.9581 27.1656 20.2917 27.0066C20.6305 26.8476 21.0064 26.7681 21.4194 26.7681ZM27.3758 26.784C28.4137 26.784 29.1839 27.0172 29.687 27.4836C30.1899 27.95 30.4415 28.6945 30.4415 29.7173V35.6394H29.4804L29.2263 34.3517H29.1628C28.9193 34.6696 28.6651 34.9373 28.4004 35.1545C28.1356 35.3665 27.8286 35.5281 27.4791 35.6394C27.135 35.7453 26.7114 35.7984 26.2083 35.7984C25.6789 35.7984 25.2077 35.7057 24.7947 35.5202C24.387 35.3347 24.064 35.0538 23.8259 34.6776C23.5928 34.3013 23.4764 33.8243 23.4764 33.2467C23.4764 32.3776 23.8205 31.7099 24.5088 31.2435C25.1971 30.7772 26.2454 30.5228 27.6538 30.4804L29.1549 30.4168V29.8842C29.1549 29.1316 28.9934 28.6044 28.6704 28.3023C28.3474 28.0003 27.8921 27.8493 27.3044 27.8493C26.8491 27.8493 26.4149 27.9154 26.0019 28.048C25.5889 28.1804 25.1971 28.3368 24.8265 28.517L24.4215 27.5154C24.8133 27.314 25.2633 27.1417 25.7716 26.9987C26.2799 26.8556 26.8147 26.784 27.3758 26.784ZM29.139 31.3469L27.8127 31.4025C26.7273 31.4449 25.9622 31.6225 25.5174 31.9352C25.0727 32.2477 24.8503 32.6903 24.8503 33.2627C24.8503 33.7607 25.0012 34.1291 25.303 34.3675C25.6048 34.606 26.0046 34.7253 26.5023 34.7253C27.2752 34.7253 27.9079 34.5106 28.4004 34.0814C28.8928 33.6521 29.139 33.0082 29.139 32.1497V31.3469ZM37.2477 26.7681C38.333 26.7681 39.1988 27.1417 39.8446 27.889C40.4906 28.6362 40.8136 29.7597 40.8136 31.2594C40.8136 32.2504 40.6653 33.0824 40.3688 33.7555C40.0724 34.4285 39.6541 34.9373 39.114 35.2817C38.5793 35.6262 37.9466 35.7984 37.216 35.7984C36.7553 35.7984 36.3502 35.7374 36.0009 35.6156C35.6514 35.4937 35.3522 35.3294 35.1034 35.1228C34.8545 34.916 34.6481 34.6908 34.4839 34.447H34.3886C34.4044 34.6537 34.423 34.9027 34.4442 35.1943C34.4707 35.4857 34.4839 35.7401 34.4839 35.9573V39.5345H33.1576V26.9271H34.2456L34.4204 28.2148H34.4839C34.6533 27.95 34.8599 27.7088 35.1034 27.4915C35.3469 27.2689 35.6434 27.0941 35.9928 26.9669C36.3477 26.8344 36.7659 26.7681 37.2477 26.7681ZM37.0174 27.881C36.4138 27.881 35.9266 27.9976 35.556 28.2308C35.1907 28.4639 34.9233 28.8137 34.7539 29.28C34.5845 29.7411 34.4945 30.3215 34.4839 31.0209V31.2754C34.4839 32.0119 34.5633 32.6346 34.7222 33.1434C34.8862 33.6521 35.1537 34.039 35.5243 34.304C35.9002 34.5689 36.4032 34.7015 37.0332 34.7015C37.5733 34.7015 38.0233 34.5556 38.3833 34.2642C38.7434 33.9727 39.0108 33.5673 39.1856 33.048C39.3655 32.5233 39.4556 31.9219 39.4556 31.2435C39.4556 30.2154 39.2543 29.3993 38.852 28.7952C38.4549 28.1858 37.8433 27.881 37.0174 27.881ZM44.4351 23.2705V26.3627C44.4351 26.7178 44.4245 27.0623 44.4034 27.3961C44.3875 27.7299 44.3742 27.9896 44.3637 28.1752H44.4351C44.6734 27.783 45.0175 27.4518 45.4676 27.1815C45.9177 26.9112 46.4921 26.7761 47.191 26.7761C48.2817 26.7761 49.15 27.155 49.796 27.9129C50.4472 28.6653 50.7728 29.7862 50.7728 31.2754C50.7728 32.2558 50.6246 33.0824 50.3281 33.7555C50.0316 34.4285 49.6132 34.9373 49.0732 35.2817C48.5332 35.6262 47.8952 35.7984 47.1592 35.7984C46.4709 35.7984 45.9044 35.6712 45.4597 35.4168C45.0202 35.1572 44.6813 34.8418 44.4431 34.4709H44.3399L44.0699 35.6394H43.1168V23.2705H44.4351ZM46.9765 27.881C46.3465 27.881 45.8461 28.0055 45.4755 28.2546C45.1049 28.4984 44.8376 28.8694 44.6734 29.3675C44.5146 29.8604 44.4351 30.4857 44.4351 31.2435V31.315C44.4351 32.412 44.6178 33.252 44.9831 33.8349C45.3485 34.4126 46.0129 34.7015 46.9765 34.7015C47.7867 34.7015 48.3929 34.4047 48.7952 33.8111C49.203 33.2175 49.4068 32.3697 49.4068 31.2673C49.4068 30.1439 49.2056 29.2986 48.8032 28.7316C48.4061 28.1645 47.7972 27.881 46.9765 27.881ZM60.5811 31.2673C60.5811 31.9828 60.4884 32.6213 60.3031 33.1831C60.1178 33.7449 59.8505 34.2191 59.501 34.606C59.1515 34.9929 58.728 35.2896 58.2302 35.4964C57.7379 35.6977 57.1793 35.7984 56.5546 35.7984C55.9722 35.7984 55.4374 35.6977 54.9503 35.4964C54.4685 35.2896 54.0502 34.9929 53.6954 34.606C53.346 34.2191 53.0733 33.7449 52.8774 33.1831C52.6869 32.6213 52.5915 31.9828 52.5915 31.2673C52.5915 30.3134 52.753 29.5027 53.0759 28.8349C53.3989 28.1619 53.8596 27.6505 54.4579 27.3007C55.0615 26.9457 55.7789 26.7681 56.6101 26.7681C57.4043 26.7681 58.0979 26.9457 58.6909 27.3007C59.2892 27.6558 59.7525 28.1698 60.0807 28.8429C60.4143 29.5106 60.5811 30.3188 60.5811 31.2673ZM53.9575 31.2673C53.9575 31.9669 54.0502 32.5737 54.2355 33.0878C54.4208 33.6017 54.7068 33.9992 55.0932 34.2802C55.4797 34.561 55.9774 34.7015 56.5863 34.7015C57.1899 34.7015 57.6849 34.561 58.0714 34.2802C58.4633 33.9992 58.7518 33.6017 58.9371 33.0878C59.1224 32.5737 59.2151 31.9669 59.2151 31.2673C59.2151 30.5731 59.1224 29.9744 58.9371 29.4708C58.7518 28.9621 58.4659 28.57 58.0794 28.2944C57.6929 28.0188 57.1925 27.881 56.5784 27.881C55.673 27.881 55.0085 28.1804 54.5849 28.7793C54.1666 29.3782 53.9575 30.2075 53.9575 31.2673ZM70.3656 31.2673C70.3656 31.9828 70.2729 32.6213 70.0876 33.1831C69.9023 33.7449 69.6349 34.2191 69.2855 34.606C68.936 34.9929 68.5124 35.2896 68.0147 35.4964C67.5224 35.6977 66.9638 35.7984 66.339 35.7984C65.7566 35.7984 65.2218 35.6977 64.7348 35.4964C64.253 35.2896 63.8346 34.9929 63.4799 34.606C63.1304 34.2191 62.8578 33.7449 62.6619 33.1831C62.4712 32.6213 62.376 31.9828 62.376 31.2673C62.376 30.3134 62.5375 29.5027 62.8604 28.8349C63.1834 28.1619 63.6441 27.6505 64.2423 27.3007C64.8459 26.9457 65.5634 26.7681 66.3946 26.7681C67.1888 26.7681 67.8824 26.9457 68.4754 27.3007C69.0737 27.6558 69.5369 28.1698 69.8652 28.8429C70.1988 29.5106 70.3656 30.3188 70.3656 31.2673ZM63.742 31.2673C63.742 31.9669 63.8346 32.5737 64.0199 33.0878C64.2052 33.6017 64.4911 33.9992 64.8777 34.2802C65.2642 34.561 65.7619 34.7015 66.3708 34.7015C66.9744 34.7015 67.4694 34.561 67.8559 34.2802C68.2477 33.9992 68.5363 33.6017 68.7216 33.0878C68.9069 32.5737 68.9996 31.9669 68.9996 31.2673C68.9996 30.5731 68.9069 29.9744 68.7216 29.4708C68.5363 28.9621 68.2503 28.57 67.8638 28.2944C67.4774 28.0188 66.977 27.881 66.3628 27.881C65.4574 27.881 64.793 28.1804 64.3694 28.7793C63.9511 29.3782 63.742 30.2075 63.742 31.2673ZM73.9553 23.2705V29.6934C73.9553 29.9054 73.9474 30.1651 73.9315 30.4724C73.9156 30.7745 73.9024 31.0421 73.8918 31.2754H73.9474C74.0586 31.1376 74.2201 30.9335 74.4319 30.6632C74.6489 30.393 74.8316 30.1756 74.9798 30.0115L77.8707 26.9271H79.4194L75.917 30.6473L79.6736 35.6394H78.0851L75.0116 31.5137L73.9553 32.4836V35.6394H72.6449V23.2705H73.9553ZM80.9918 34.8127C80.9918 34.4418 81.0819 34.1795 81.262 34.0257C81.4419 33.8668 81.6616 33.7872 81.921 33.7872C82.1912 33.7872 82.4188 33.8668 82.6041 34.0257C82.7894 34.1795 82.8821 34.4418 82.8821 34.8127C82.8821 35.1783 82.7894 35.446 82.6041 35.6156C82.4188 35.7799 82.1912 35.862 81.921 35.862C81.6616 35.862 81.4419 35.7799 81.262 35.6156C81.0819 35.446 80.9918 35.1783 80.9918 34.8127ZM90.6254 25.0432C89.9848 25.0432 89.4077 25.1545 88.8941 25.377C88.3858 25.5943 87.9517 25.9123 87.5916 26.3309C87.2369 26.7443 86.9643 27.2451 86.7736 27.8333C86.583 28.4216 86.4877 29.084 86.4877 29.8206C86.4877 30.7957 86.6386 31.6436 86.9404 32.3644C87.2475 33.0797 87.7028 33.6336 88.3064 34.0257C88.9153 34.4178 89.6751 34.614 90.5857 34.614C91.1047 34.614 91.5917 34.5716 92.0471 34.4868C92.5076 34.3967 92.955 34.2854 93.3892 34.1529V35.3294C92.9657 35.4884 92.5209 35.605 92.055 35.6792C91.5891 35.7586 91.0358 35.7984 90.3952 35.7984C89.2144 35.7984 88.227 35.5546 87.4328 35.0671C86.6438 34.5742 86.0509 33.88 85.6538 32.9844C85.262 32.0888 85.0661 31.0315 85.0661 29.8127C85.0661 28.9329 85.1879 28.1301 85.4314 27.4041C85.6803 26.6727 86.0403 26.0421 86.5115 25.5122C86.9881 24.9822 87.5705 24.5742 88.2587 24.288C88.9523 23.9965 89.7465 23.8508 90.6413 23.8508C91.2291 23.8508 91.7956 23.9091 92.3409 24.0257C92.8863 24.1423 93.3786 24.3092 93.8181 24.5265L93.278 25.6712C92.9074 25.5016 92.4997 25.3558 92.055 25.234C91.6155 25.1068 91.139 25.0432 90.6254 25.0432ZM103.213 31.2673C103.213 31.9828 103.121 32.6213 102.935 33.1831C102.75 33.7449 102.483 34.2191 102.133 34.606C101.784 34.9929 101.36 35.2896 100.863 35.4964C100.37 35.6977 99.8116 35.7984 99.1869 35.7984C98.6045 35.7984 98.0697 35.6977 97.5826 35.4964C97.1008 35.2896 96.6825 34.9929 96.3277 34.606C95.9784 34.2191 95.7057 33.7449 95.5097 33.1831C95.3192 32.6213 95.2238 31.9828 95.2238 31.2673C95.2238 30.3134 95.3853 29.5027 95.7083 28.8349C96.0312 28.1619 96.4919 27.6505 97.0902 27.3007C97.6938 26.9457 98.4112 26.7681 99.2424 26.7681C100.037 26.7681 100.73 26.9457 101.323 27.3007C101.922 27.6558 102.385 28.1698 102.713 28.8429C103.047 29.5106 103.213 30.3188 103.213 31.2673ZM96.5898 31.2673C96.5898 31.9669 96.6825 32.5737 96.8678 33.0878C97.0531 33.6017 97.3391 33.9992 97.7256 34.2802C98.112 34.561 98.6097 34.7015 99.2186 34.7015C99.8222 34.7015 100.317 34.561 100.704 34.2802C101.096 33.9992 101.384 33.6017 101.569 33.0878C101.755 32.5737 101.847 31.9669 101.847 31.2673C101.847 30.5731 101.755 29.9744 101.569 29.4708C101.384 28.9621 101.098 28.57 100.712 28.2944C100.325 28.0188 99.8248 27.881 99.2107 27.881C98.3053 27.881 97.6408 28.1804 97.2173 28.7793C96.799 29.3782 96.5898 30.2075 96.5898 31.2673ZM114.944 26.7681C115.902 26.7681 116.625 27.0199 117.111 27.5233C117.599 28.0215 117.842 28.8243 117.842 29.9319V35.6394H116.54V29.9955C116.54 29.2907 116.387 28.7634 116.08 28.4136C115.778 28.0586 115.328 27.881 114.729 27.881C113.887 27.881 113.276 28.1248 112.895 28.6123C112.513 29.0999 112.323 29.818 112.323 30.7666V35.6394H111.012V29.9955C111.012 29.5239 110.944 29.1316 110.806 28.8191C110.674 28.5064 110.472 28.2732 110.202 28.1195C109.938 27.9605 109.601 27.881 109.194 27.881C108.617 27.881 108.153 28.0003 107.804 28.2387C107.454 28.4772 107.2 28.8323 107.041 29.304C106.888 29.7703 106.811 30.3453 106.811 31.0289V35.6394H105.493V26.9271H106.557L106.756 28.1593H106.827C107.002 27.8572 107.222 27.6028 107.486 27.3961C107.751 27.1894 108.047 27.0331 108.376 26.9271C108.704 26.8211 109.053 26.7681 109.424 26.7681C110.086 26.7681 110.639 26.8927 111.084 27.1417C111.534 27.3855 111.859 27.7591 112.061 28.2625H112.132C112.418 27.7591 112.81 27.3855 113.308 27.1417C113.805 26.8927 114.351 26.7681 114.944 26.7681ZM124.037 31.8556V30.6792H127.977V31.8556H124.037ZM143.662 29.7173C143.662 31.0263 143.424 32.1206 142.947 33.0003C142.47 33.8747 141.78 34.5345 140.874 34.9796C139.974 35.4195 138.881 35.6394 137.594 35.6394H134.441V24.0177H137.944C139.124 24.0177 140.141 24.235 140.993 24.6696C141.846 25.0988 142.502 25.7374 142.963 26.5853C143.428 27.4279 143.662 28.472 143.662 29.7173ZM142.24 29.7649C142.24 28.721 142.066 27.8598 141.716 27.1815C141.372 26.5032 140.863 25.9997 140.192 25.6712C139.524 25.3373 138.706 25.1704 137.737 25.1704H135.791V34.4789H137.435C139.035 34.4789 140.233 34.084 141.033 33.2944C141.838 32.5048 142.24 31.3283 142.24 29.7649ZM149.395 26.7681C150.137 26.7681 150.772 26.9324 151.302 27.261C151.832 27.5896 152.236 28.0507 152.517 28.6442C152.797 29.2323 152.938 29.9213 152.938 30.7109V31.5297H146.925C146.942 32.5525 147.196 33.3315 147.689 33.8668C148.18 34.402 148.874 34.6696 149.769 34.6696C150.32 34.6696 150.807 34.6192 151.23 34.5185C151.654 34.4178 152.093 34.2695 152.548 34.0734V35.234C152.109 35.4301 151.672 35.5731 151.238 35.6632C150.809 35.7534 150.302 35.7984 149.714 35.7984C148.877 35.7984 148.146 35.6288 147.521 35.2896C146.902 34.9452 146.42 34.4418 146.076 33.7793C145.732 33.1168 145.56 32.3061 145.56 31.3469C145.56 30.4089 145.716 29.5981 146.028 28.9144C146.346 28.2254 146.791 27.6955 147.362 27.3246C147.94 26.9536 148.617 26.7681 149.395 26.7681ZM149.38 27.8493C148.676 27.8493 148.115 28.0797 147.696 28.5408C147.277 29.0019 147.029 29.6457 146.95 30.4724H151.556C151.55 29.9531 151.469 29.4974 151.31 29.1052C151.157 28.7078 150.921 28.4003 150.602 28.1831C150.285 27.9605 149.878 27.8493 149.38 27.8493ZM158.664 35.7984C157.88 35.7984 157.19 35.6367 156.592 35.3135C155.993 34.9902 155.527 34.4974 155.194 33.8349C154.859 33.1725 154.693 32.3378 154.693 31.3309C154.693 30.2763 154.867 29.4153 155.217 28.7474C155.571 28.0745 156.059 27.5763 156.679 27.253C157.298 26.9298 158.002 26.7681 158.791 26.7681C159.225 26.7681 159.644 26.8132 160.046 26.9033C160.453 26.9881 160.787 27.0967 161.047 27.2292L160.65 28.3342C160.385 28.2281 160.078 28.1328 159.728 28.048C159.384 27.9632 159.061 27.9208 158.759 27.9208C158.155 27.9208 157.652 28.0507 157.25 28.3103C156.853 28.57 156.554 28.9515 156.353 29.4549C156.157 29.9584 156.059 30.5785 156.059 31.315C156.059 32.0199 156.155 32.6214 156.345 33.1195C156.54 33.6177 156.83 33.9992 157.211 34.2642C157.598 34.5239 158.079 34.6537 158.656 34.6537C159.117 34.6537 159.532 34.606 159.903 34.5106C160.273 34.4099 160.61 34.2933 160.911 34.1608V35.3373C160.621 35.4857 160.295 35.5996 159.935 35.6792C159.58 35.7586 159.157 35.7984 158.664 35.7984ZM170.482 31.2673C170.482 31.9828 170.389 32.6213 170.204 33.1831C170.018 33.7449 169.751 34.2191 169.401 34.606C169.052 34.9929 168.629 35.2896 168.13 35.4964C167.639 35.6977 167.08 35.7984 166.455 35.7984C165.873 35.7984 165.337 35.6977 164.851 35.4964C164.369 35.2896 163.95 34.9929 163.596 34.606C163.246 34.2191 162.974 33.7449 162.778 33.1831C162.588 32.6213 162.492 31.9828 162.492 31.2673C162.492 30.3134 162.654 29.5027 162.977 28.8349C163.3 28.1619 163.76 27.6505 164.358 27.3007C164.962 26.9457 165.679 26.7681 166.511 26.7681C167.304 26.7681 167.998 26.9457 168.592 27.3007C169.19 27.6558 169.654 28.1698 169.981 28.8429C170.315 29.5106 170.482 30.3188 170.482 31.2673ZM163.859 31.2673C163.859 31.9669 163.95 32.5737 164.136 33.0878C164.321 33.6017 164.607 33.9992 164.994 34.2802C165.38 34.561 165.878 34.7015 166.486 34.7015C167.091 34.7015 167.586 34.561 167.972 34.2802C168.364 33.9992 168.652 33.6017 168.838 33.0878C169.023 32.5737 169.116 31.9669 169.116 31.2673C169.116 30.5731 169.023 29.9744 168.838 29.4708C168.652 28.9621 168.366 28.57 167.979 28.2944C167.594 28.0188 167.093 27.881 166.478 27.881C165.573 27.881 164.909 28.1804 164.486 28.7793C164.068 29.3782 163.859 30.2075 163.859 31.2673ZM176.716 26.7681C176.89 26.7681 177.074 26.7787 177.264 26.7999C177.455 26.8158 177.625 26.8397 177.772 26.8715L177.606 28.0957C177.463 28.0586 177.304 28.0294 177.129 28.0082C176.954 27.987 176.79 27.9765 176.637 27.9765C176.287 27.9765 175.956 28.048 175.644 28.191C175.337 28.3288 175.066 28.5302 174.834 28.7952C174.6 29.0549 174.418 29.3701 174.286 29.7411C174.153 30.1068 174.087 30.5148 174.087 30.9653V35.6394H172.761V26.9271H173.857L174 28.5329H174.056C174.236 28.2096 174.453 27.9154 174.707 27.6505C174.961 27.3802 175.255 27.1656 175.588 27.0066C175.927 26.8476 176.304 26.7681 176.716 26.7681ZM182.673 26.784C183.71 26.784 184.48 27.0172 184.983 27.4836C185.486 27.95 185.739 28.6945 185.739 29.7173V35.6394H184.777L184.523 34.3517H184.459C184.215 34.6696 183.962 34.9373 183.697 35.1545C183.432 35.3665 183.126 35.5281 182.776 35.6394C182.432 35.7453 182.008 35.7984 181.505 35.7984C180.975 35.7984 180.505 35.7057 180.091 35.5202C179.683 35.3347 179.36 35.0538 179.122 34.6776C178.89 34.3013 178.774 33.8243 178.774 33.2467C178.774 32.3776 179.117 31.7099 179.805 31.2435C180.494 30.7772 181.542 30.5228 182.95 30.4804L184.451 30.4168V29.8842C184.451 29.1316 184.29 28.6044 183.967 28.3023C183.644 28.0003 183.188 27.8493 182.601 27.8493C182.145 27.8493 181.712 27.9154 181.298 28.048C180.886 28.1804 180.494 28.3368 180.124 28.517L179.718 27.5154C180.11 27.314 180.56 27.1417 181.068 26.9987C181.577 26.8556 182.111 26.784 182.673 26.784ZM184.436 31.3469L183.109 31.4025C182.024 31.4449 181.259 31.6225 180.814 31.9352C180.37 32.2477 180.147 32.6903 180.147 33.2627C180.147 33.7607 180.298 34.1291 180.6 34.3675C180.902 34.606 181.302 34.7253 181.799 34.7253C182.572 34.7253 183.205 34.5106 183.697 34.0814C184.19 33.6521 184.436 33.0082 184.436 32.1497V31.3469ZM191.265 34.7173C191.482 34.7173 191.706 34.6988 191.933 34.6617C192.161 34.6246 192.346 34.5795 192.489 34.5266V35.552C192.335 35.6208 192.12 35.6792 191.845 35.7269C191.575 35.7745 191.31 35.7984 191.051 35.7984C190.59 35.7984 190.172 35.7189 189.797 35.5599C189.42 35.3957 189.118 35.1201 188.89 34.7332C188.669 34.3463 188.557 33.8111 188.557 33.1274V27.9605H187.319V27.3166L188.565 26.7999L189.089 24.908H189.884V26.9271H192.433V27.9605H189.884V33.0878C189.884 33.6336 190.008 34.0417 190.257 34.3119C190.511 34.5821 190.847 34.7173 191.265 34.7173ZM195.571 26.9271V35.6394H194.252V26.9271H195.571ZM194.927 23.668C195.144 23.668 195.329 23.7395 195.483 23.8826C195.642 24.0204 195.721 24.2377 195.721 24.5344C195.721 24.8259 195.642 25.0432 195.483 25.1863C195.329 25.3293 195.144 25.4009 194.927 25.4009C194.699 25.4009 194.509 25.3293 194.356 25.1863C194.207 25.0432 194.132 24.8259 194.132 24.5344C194.132 24.2377 194.207 24.0204 194.356 23.8826C194.509 23.7395 194.699 23.668 194.927 23.668ZM200.28 35.6394L196.975 26.9271H198.389L200.304 32.1974C200.436 32.5577 200.571 32.9552 200.708 33.3898C200.846 33.8243 200.942 34.1741 200.994 34.4391H201.05C201.114 34.1741 201.219 33.8243 201.368 33.3898C201.516 32.95 201.652 32.5525 201.772 32.1974L203.687 26.9271H205.101L201.789 35.6394H200.28ZM209.85 26.7681C210.592 26.7681 211.226 26.9324 211.756 27.261C212.285 27.5896 212.691 28.0507 212.971 28.6442C213.252 29.2323 213.392 29.9213 213.392 30.7109V31.5297H207.38C207.396 32.5525 207.65 33.3315 208.143 33.8668C208.635 34.402 209.329 34.6696 210.223 34.6696C210.774 34.6696 211.261 34.6192 211.685 34.5185C212.108 34.4178 212.547 34.2695 213.002 34.0734V35.234C212.563 35.4301 212.126 35.5731 211.692 35.6632C211.263 35.7534 210.755 35.7984 210.168 35.7984C209.331 35.7984 208.6 35.6288 207.975 35.2896C207.356 34.9452 206.874 34.4418 206.53 33.7793C206.186 33.1168 206.014 32.3061 206.014 31.3469C206.014 30.4089 206.17 29.5981 206.482 28.9144C206.801 28.2254 207.244 27.6955 207.817 27.3246C208.393 26.9536 209.072 26.7681 209.85 26.7681ZM209.834 27.8493C209.13 27.8493 208.569 28.0797 208.151 28.5408C207.732 29.0019 207.483 29.6457 207.404 30.4724H212.01C212.004 29.9531 211.923 29.4974 211.764 29.1052C211.61 28.7078 211.375 28.4003 211.057 28.1831C210.739 27.9605 210.331 27.8493 209.834 27.8493ZM229.276 29.7173C229.276 31.0263 229.037 32.1206 228.561 33.0003C228.085 33.8747 227.393 34.5345 226.488 34.9796C225.588 35.4195 224.495 35.6394 223.209 35.6394H220.056V24.0177H223.557C224.739 24.0177 225.755 24.235 226.607 24.6696C227.46 25.0988 228.116 25.7374 228.577 26.5853C229.043 27.4279 229.276 28.472 229.276 29.7173ZM227.855 29.7649C227.855 28.721 227.679 27.8598 227.33 27.1815C226.986 26.5032 226.478 25.9997 225.805 25.6712C225.138 25.3373 224.32 25.1704 223.352 25.1704H221.406V34.4789H223.049C224.648 34.4789 225.847 34.084 226.648 33.2944C227.452 32.5048 227.855 31.3283 227.855 29.7649ZM232.977 26.9271V35.6394H231.658V26.9271H232.977ZM232.333 23.668C232.551 23.668 232.735 23.7395 232.89 23.8826C233.048 24.0204 233.128 24.2377 233.128 24.5344C233.128 24.8259 233.048 25.0432 232.89 25.1863C232.735 25.3293 232.551 25.4009 232.333 25.4009C232.106 25.4009 231.915 25.3293 231.762 25.1863C231.613 25.0432 231.539 24.8259 231.539 24.5344C231.539 24.2377 231.613 24.0204 231.762 23.8826C231.915 23.7395 232.106 23.668 232.333 23.668ZM239.124 26.7681C239.865 26.7681 240.501 26.9324 241.029 27.261C241.559 27.5896 241.965 28.0507 242.245 28.6442C242.526 29.2323 242.666 29.9213 242.666 30.7109V31.5297H236.654C236.669 32.5525 236.924 33.3315 237.416 33.8668C237.909 34.402 238.602 34.6696 239.497 34.6696C240.048 34.6696 240.534 34.6192 240.959 34.5185C241.381 34.4178 241.822 34.2695 242.277 34.0734V35.234C241.837 35.4301 241.4 35.5731 240.967 35.6632C240.538 35.7534 240.029 35.7984 239.441 35.7984C238.605 35.7984 237.874 35.6288 237.25 35.2896C236.63 34.9452 236.149 34.4418 235.804 33.7793C235.46 33.1168 235.288 32.3061 235.288 31.3469C235.288 30.4089 235.443 29.5981 235.756 28.9144C236.074 28.2254 236.519 27.6955 237.091 27.3246C237.668 26.9536 238.346 26.7681 239.124 26.7681ZM239.108 27.8493C238.404 27.8493 237.843 28.0797 237.424 28.5408C237.006 29.0019 236.757 29.6457 236.677 30.4724H241.284C241.279 29.9531 241.197 29.4974 241.038 29.1052C240.884 28.7078 240.648 28.4003 240.331 28.1831C240.013 27.9605 239.606 27.8493 239.108 27.8493ZM255.882 32.5472C255.882 33.2361 255.71 33.8243 255.365 34.3119C255.027 34.7941 254.549 35.1624 253.936 35.4168C253.321 35.6712 252.599 35.7984 251.768 35.7984C251.328 35.7984 250.913 35.7772 250.52 35.7348C250.129 35.6924 249.768 35.6315 249.441 35.552C249.112 35.4724 248.824 35.3744 248.575 35.2579V33.9621C248.971 34.1264 249.456 34.2802 250.029 34.4232C250.6 34.561 251.199 34.6298 251.822 34.6298C252.406 34.6298 252.898 34.5531 253.3 34.3993C253.702 34.2404 254.007 34.0151 254.213 33.7236C254.425 33.4269 254.532 33.0718 254.532 32.6584C254.532 32.261 254.443 31.9298 254.269 31.6648C254.095 31.3945 253.803 31.1508 253.396 30.9335C252.994 30.7109 252.443 30.4751 251.743 30.226C251.251 30.0511 250.817 29.8604 250.441 29.6536C250.065 29.4417 249.75 29.2033 249.497 28.9383C249.242 28.6732 249.048 28.3659 248.916 28.0161C248.789 27.6664 248.725 27.2663 248.725 26.8158C248.725 26.1958 248.882 25.6659 249.194 25.226C249.512 24.7809 249.948 24.4417 250.505 24.2085C251.066 23.97 251.709 23.8508 252.435 23.8508C253.054 23.8508 253.626 23.9091 254.15 24.0257C254.679 24.1423 255.164 24.2986 255.603 24.4947L255.182 25.6553C254.764 25.4804 254.319 25.3346 253.849 25.2181C253.383 25.1015 252.901 25.0432 252.402 25.0432C251.905 25.0432 251.484 25.1174 251.14 25.2657C250.801 25.4088 250.542 25.6129 250.362 25.8778C250.182 26.1428 250.091 26.4581 250.091 26.8238C250.091 27.2318 250.176 27.571 250.346 27.8412C250.52 28.1116 250.795 28.3526 251.172 28.5646C251.553 28.7714 252.056 28.9886 252.681 29.2165C253.364 29.4656 253.944 29.7305 254.42 30.0115C254.897 30.2869 255.259 30.6261 255.508 31.0289C255.757 31.4264 255.882 31.9325 255.882 32.5472ZM261.408 26.7681C262.15 26.7681 262.785 26.9324 263.315 27.261C263.845 27.5896 264.249 28.0507 264.53 28.6442C264.81 29.2323 264.951 29.9213 264.951 30.7109V31.5297H258.938C258.955 32.5525 259.209 33.3315 259.702 33.8668C260.194 34.402 260.888 34.6696 261.782 34.6696C262.333 34.6696 262.82 34.6192 263.244 34.5185C263.667 34.4178 264.106 34.2695 264.561 34.0734V35.234C264.122 35.4301 263.685 35.5731 263.251 35.6632C262.822 35.7534 262.315 35.7984 261.727 35.7984C260.89 35.7984 260.159 35.6288 259.534 35.2896C258.915 34.9452 258.433 34.4418 258.089 33.7793C257.745 33.1168 257.573 32.3061 257.573 31.3469C257.573 30.4089 257.729 29.5981 258.042 28.9144C258.359 28.2254 258.804 27.6955 259.375 27.3246C259.953 26.9536 260.631 26.7681 261.408 26.7681ZM261.393 27.8493C260.689 27.8493 260.128 28.0797 259.71 28.5408C259.292 29.0019 259.042 29.6457 258.963 30.4724H263.569C263.564 29.9531 263.482 29.4974 263.323 29.1052C263.17 28.7078 262.934 28.4003 262.615 28.1831C262.298 27.9605 261.891 27.8493 261.393 27.8493ZM270.002 34.7173C270.219 34.7173 270.441 34.6988 270.669 34.6617C270.897 34.6246 271.083 34.5795 271.226 34.5266V35.552C271.071 35.6208 270.857 35.6792 270.582 35.7269C270.312 35.7745 270.047 35.7984 269.787 35.7984C269.327 35.7984 268.909 35.7189 268.532 35.5599C268.157 35.3957 267.855 35.1201 267.627 34.7332C267.406 34.3463 267.294 33.8111 267.294 33.1274V27.9605H266.054V27.3166L267.302 26.7999L267.826 24.908H268.62V26.9271H271.17V27.9605H268.62V33.0878C268.62 33.6336 268.745 34.0417 268.994 34.3119C269.247 34.5821 269.584 34.7173 270.002 34.7173ZM0 52.7869V51.6104H3.9392V52.7869H0ZM15.3677 50.4817H19.4259V56.1177C18.8171 56.3243 18.1897 56.4779 17.5437 56.5786C16.9031 56.6793 16.1857 56.7297 15.3915 56.7297C14.1843 56.7297 13.1651 56.4886 12.3339 56.0062C11.5078 55.524 10.8805 54.8378 10.4516 53.9474C10.0227 53.0519 9.80829 51.9893 9.80829 50.7598C9.80829 49.5569 10.0439 48.5076 10.5151 47.612C10.9917 46.7164 11.6773 46.0221 12.572 45.5293C13.4722 45.0312 14.5523 44.7821 15.8124 44.7821C16.4584 44.7821 17.0699 44.843 17.647 44.9649C18.2294 45.0815 18.7694 45.2484 19.2671 45.4657L18.7509 46.6422C18.3221 46.4567 17.8482 46.2977 17.3294 46.1653C16.8157 46.0327 16.2836 45.9666 15.7329 45.9666C14.7853 45.9666 13.9725 46.1626 13.2948 46.5547C12.6224 46.947 12.1062 47.5007 11.7461 48.2161C11.3914 48.9316 11.214 49.7794 11.214 50.7598C11.214 51.7296 11.3702 52.5749 11.6826 53.2956C11.995 54.011 12.4821 54.5675 13.1439 54.9649C13.8058 55.3624 14.6582 55.5611 15.7012 55.5611C16.2254 55.5611 16.6754 55.532 17.0513 55.4737C17.4273 55.4102 17.7687 55.336 18.0758 55.2511V51.6899H15.3677V50.4817ZM25.994 47.6994C26.1687 47.6994 26.3514 47.71 26.5419 47.7312C26.7325 47.7471 26.9019 47.7709 27.0503 47.8028L26.8835 49.0269C26.7404 48.9898 26.5816 48.9607 26.4069 48.9395C26.2322 48.9183 26.0681 48.9078 25.9145 48.9078C25.5651 48.9078 25.2342 48.9793 24.9218 49.1223C24.6147 49.2601 24.3447 49.4615 24.1118 49.7265C23.8787 49.9862 23.6961 50.3014 23.5638 50.6724C23.4313 51.0381 23.3652 51.4461 23.3652 51.8966V56.5707H22.0389V47.8584H23.1348L23.2778 49.4642H23.3334C23.5135 49.1409 23.7305 48.8467 23.9847 48.5818C24.2388 48.3116 24.5327 48.0969 24.8662 47.9379C25.205 47.779 25.581 47.6994 25.994 47.6994ZM31.9504 47.7154C32.9882 47.7154 33.7585 47.9485 34.2615 48.4148C34.7645 48.8812 35.016 49.6258 35.016 50.6485V56.5707H34.055L33.8009 55.283H33.7373C33.4938 55.6009 33.2396 55.8686 32.975 56.0858C32.7102 56.2978 32.4031 56.4594 32.0537 56.5707C31.7095 56.6766 31.286 56.7297 30.7829 56.7297C30.2535 56.7297 29.7823 56.637 29.3692 56.4515C28.9616 56.266 28.6386 55.9851 28.4004 55.6089C28.1674 55.2326 28.0509 54.7556 28.0509 54.178C28.0509 53.3089 28.3951 52.6412 29.0834 52.1748C29.7717 51.7085 30.82 51.454 32.2284 51.4117L33.7294 51.3481V50.8155C33.7294 50.0629 33.568 49.5357 33.245 49.2336C32.922 48.9316 32.4667 48.7805 31.8789 48.7805C31.4236 48.7805 30.9895 48.8467 30.5765 48.9793C30.1634 49.1117 29.7717 49.2681 29.4011 49.4482L28.9961 48.4467C29.3878 48.2453 29.8379 48.0731 30.3462 47.9299C30.8545 47.7869 31.3892 47.7154 31.9504 47.7154ZM33.7135 52.2782L32.3872 52.3337C31.3019 52.3762 30.5367 52.5537 30.092 52.8664C29.6473 53.179 29.4249 53.6216 29.4249 54.1939C29.4249 54.692 29.5758 55.0604 29.8775 55.2988C30.1794 55.5373 30.5791 55.6566 31.0768 55.6566C31.8498 55.6566 32.4825 55.4419 32.975 55.0127C33.4673 54.5834 33.7135 53.9395 33.7135 53.081V52.2782ZM40.5436 55.6486C40.7607 55.6486 40.9831 55.6301 41.2107 55.593C41.4384 55.5559 41.6237 55.5108 41.7666 55.4578V56.4832C41.6131 56.5521 41.3987 56.6105 41.1233 56.6581C40.8533 56.7058 40.5885 56.7297 40.3291 56.7297C39.8686 56.7297 39.4502 56.6502 39.0744 56.4912C38.6984 56.327 38.3966 56.0514 38.169 55.6645C37.9466 55.2776 37.8354 54.7423 37.8354 54.0587V48.8918H36.5964V48.248L37.8433 47.7312L38.3675 45.8393H39.1617V47.8584H41.7111V48.8918H39.1617V54.0191C39.1617 54.5649 39.2862 54.9729 39.5349 55.2432C39.7891 55.5134 40.1253 55.6486 40.5436 55.6486ZM46.8813 47.6994C47.6225 47.6994 48.2579 47.8637 48.7873 48.1923C49.3167 48.5209 49.7219 48.9819 50.0024 49.5755C50.283 50.1636 50.4233 50.8526 50.4233 51.6422V52.461H44.4113C44.4272 53.4838 44.6813 54.2628 45.1738 54.798C45.6662 55.3333 46.3597 55.6009 47.2546 55.6009C47.8051 55.6009 48.2923 55.5505 48.7159 55.4498C49.1394 55.3491 49.5788 55.2007 50.0343 55.0047V56.1653C49.5948 56.3614 49.1579 56.5044 48.7238 56.5945C48.2949 56.6847 47.7867 56.7297 47.1989 56.7297C46.3624 56.7297 45.6318 56.5601 45.007 56.2209C44.3875 55.8765 43.9057 55.3731 43.5616 54.7106C43.2173 54.0481 43.0453 53.2374 43.0453 52.2782C43.0453 51.3402 43.2015 50.5293 43.5138 49.8457C43.8316 49.1567 44.2763 48.6268 44.8481 48.2559C45.4252 47.8849 46.103 47.6994 46.8813 47.6994ZM46.8654 48.7805C46.1612 48.7805 45.5999 49.011 45.1817 49.4721C44.7634 49.9332 44.5146 50.577 44.4351 51.4037H49.0415C49.0362 50.8844 48.9541 50.4286 48.7952 50.0365C48.6417 49.6391 48.4061 49.3316 48.0884 49.1144C47.7707 48.8918 47.3631 48.7805 46.8654 48.7805ZM56.5387 48.8918H54.3705V56.5707H53.0521V48.8918H51.5114V48.2559L53.0521 47.8186V47.2384C53.0521 46.507 53.1606 45.9135 53.3778 45.4578C53.5948 44.9967 53.9099 44.6575 54.3229 44.4403C54.7358 44.223 55.2389 44.1144 55.8318 44.1144C56.1654 44.1144 56.4698 44.1436 56.7451 44.2018C57.0258 44.2601 57.272 44.3264 57.4838 44.4005L57.1422 45.4419C56.9623 45.3836 56.7584 45.3306 56.5308 45.2829C56.3083 45.2299 56.0807 45.2034 55.8478 45.2034C55.3447 45.2034 54.9714 45.3677 54.7279 45.6962C54.4896 46.0195 54.3705 46.5282 54.3705 47.2224V47.8584H56.5387V48.8918ZM65.3304 47.8584V56.5707H64.2503L64.0596 55.3466H63.9882C63.8081 55.6486 63.5752 55.903 63.2893 56.1096C63.0033 56.3163 62.6804 56.47 62.3203 56.5707C61.9656 56.6766 61.5871 56.7297 61.1847 56.7297C60.4964 56.7297 59.9193 56.6184 59.4534 56.3958C58.9874 56.1732 58.6354 55.8288 58.3971 55.3624C58.1641 54.8961 58.0476 54.2972 58.0476 53.5659V47.8584H59.3819V53.4705C59.3819 54.1965 59.546 54.7398 59.8743 55.1002C60.2025 55.4552 60.7029 55.6327 61.3753 55.6327C62.0213 55.6327 62.5348 55.5108 62.916 55.267C63.3025 55.0233 63.5805 54.6656 63.7499 54.1939C63.9194 53.7169 64.0041 53.134 64.0041 52.445V47.8584H65.3304ZM69.4443 56.5707H68.118V44.2018H69.4443V56.5707ZM80.2216 56.5707H78.8634V46.1413H75.2102V44.9491H83.8589V46.1413H80.2216V56.5707ZM86.7339 44.2018V47.8982C86.7339 48.1102 86.7287 48.3248 86.718 48.542C86.7074 48.754 86.6889 48.9501 86.6624 49.1303H86.7498C86.9298 48.8229 87.1575 48.5659 87.4328 48.3592C87.7134 48.1472 88.0311 47.9883 88.3858 47.8822C88.7405 47.7709 89.1165 47.7154 89.5136 47.7154C90.2125 47.7154 90.7949 47.8267 91.2608 48.0492C91.732 48.2718 92.0842 48.6162 92.3171 49.0825C92.5554 49.5489 92.6745 50.153 92.6745 50.8949V56.5707H91.372V50.9824C91.372 50.2564 91.2053 49.7133 90.8716 49.3529C90.5434 48.9925 90.0378 48.8123 89.3548 48.8123C88.7088 48.8123 88.1926 48.9368 87.8061 49.1859C87.4248 49.4296 87.1496 49.79 86.9801 50.267C86.816 50.744 86.7339 51.3269 86.7339 52.0158V56.5707H85.4156V44.2018H86.7339ZM98.6468 47.7154C99.6846 47.7154 100.455 47.9485 100.958 48.4148C101.461 48.8812 101.712 49.6258 101.712 50.6485V56.5707H100.751L100.497 55.283H100.434C100.19 55.6009 99.936 55.8686 99.6714 56.0858C99.4066 56.2978 99.0995 56.4594 98.7501 56.5707C98.4059 56.6766 97.9823 56.7297 97.4793 56.7297C96.9499 56.7297 96.4786 56.637 96.0656 56.4515C95.658 56.266 95.335 55.9851 95.0968 55.6089C94.8638 55.2326 94.7473 54.7556 94.7473 54.178C94.7473 53.3089 95.0915 52.6412 95.7798 52.1748C96.4681 51.7085 97.5164 51.454 98.9248 51.4117L100.426 51.3481V50.8155C100.426 50.0629 100.264 49.5357 99.9414 49.2336C99.6184 48.9316 99.1631 48.7805 98.5753 48.7805C98.12 48.7805 97.6859 48.8467 97.2728 48.9793C96.8598 49.1117 96.4681 49.2681 96.0975 49.4482L95.6925 48.4467C96.0842 48.2453 96.5343 48.0731 97.0426 47.9299C97.5509 47.7869 98.0856 47.7154 98.6468 47.7154ZM100.41 52.2782L99.0836 52.3337C97.9983 52.3762 97.2331 52.5537 96.7884 52.8664C96.3436 53.179 96.1213 53.6216 96.1213 54.1939C96.1213 54.692 96.2722 55.0604 96.5739 55.2988C96.8757 55.5373 97.2755 55.6566 97.7732 55.6566C98.5462 55.6566 99.1789 55.4419 99.6714 55.0127C100.164 54.5834 100.41 53.9395 100.41 53.081V52.2782ZM108.55 47.6994C109.583 47.6994 110.364 47.9537 110.893 48.4625C111.423 48.966 111.687 49.7769 111.687 50.8949V56.5707H110.385V50.9824C110.385 50.2564 110.218 49.7133 109.885 49.3529C109.556 48.9925 109.051 48.8123 108.368 48.8123C107.404 48.8123 106.726 49.0852 106.335 49.631C105.943 50.1769 105.747 50.9691 105.747 52.0079V56.5707H104.429V47.8584H105.493L105.691 49.1144H105.763C105.948 48.807 106.184 48.5499 106.47 48.3433C106.756 48.1313 107.076 47.9724 107.431 47.8663C107.785 47.755 108.159 47.6994 108.55 47.6994ZM115.714 44.2018V50.6247C115.714 50.8367 115.706 51.0964 115.691 51.4037C115.674 51.7058 115.662 51.9734 115.65 52.2066H115.706C115.817 52.0688 115.979 51.8648 116.19 51.5945C116.407 51.3243 116.59 51.1069 116.739 50.9427L119.629 47.8584H121.178L117.676 51.5786L121.432 56.5707H119.844L116.77 52.445L115.714 53.4148V56.5707H114.404V44.2018H115.714ZM126.825 48.8918H124.656V56.5707H123.339V48.8918H121.797V48.2559L123.339 47.8186V47.2384C123.339 46.507 123.447 45.9135 123.664 45.4578C123.881 44.9967 124.196 44.6575 124.609 44.4403C125.022 44.223 125.525 44.1144 126.118 44.1144C126.451 44.1144 126.756 44.1436 127.031 44.2018C127.312 44.2601 127.558 44.3264 127.77 44.4005L127.428 45.4419C127.248 45.3836 127.045 45.3306 126.817 45.2829C126.594 45.2299 126.366 45.2034 126.134 45.2034C125.631 45.2034 125.258 45.3677 125.014 45.6962C124.776 46.0195 124.656 46.5282 124.656 47.2224V47.8584H126.825V48.8918ZM135.617 47.8584V56.5707H134.536L134.346 55.3466H134.275C134.095 55.6486 133.861 55.903 133.575 56.1096C133.289 56.3163 132.966 56.47 132.606 56.5707C132.252 56.6766 131.873 56.7297 131.471 56.7297C130.782 56.7297 130.205 56.6184 129.739 56.3958C129.273 56.1732 128.921 55.8288 128.683 55.3624C128.451 54.8961 128.333 54.2972 128.333 53.5659V47.8584H129.668V53.4705C129.668 54.1965 129.832 54.7398 130.161 55.1002C130.488 55.4552 130.989 55.6327 131.662 55.6327C132.308 55.6327 132.821 55.5108 133.202 55.267C133.589 55.0233 133.867 54.6656 134.036 54.1939C134.205 53.7169 134.29 53.134 134.29 52.445V47.8584H135.617ZM139.73 56.5707H138.404V44.2018H139.73V56.5707ZM146.942 44.9491H150.23C151.681 44.9491 152.772 45.1663 153.502 45.6008C154.232 46.0354 154.598 46.7746 154.598 47.8186C154.598 48.2691 154.511 48.6745 154.335 49.0349C154.166 49.39 153.917 49.6841 153.589 49.9172C153.261 50.1504 152.856 50.312 152.374 50.4021V50.4817C152.882 50.5611 153.333 50.7069 153.724 50.9188C154.116 51.1308 154.424 51.4275 154.646 51.8092C154.867 52.1907 154.979 52.6756 154.979 53.2638C154.979 53.9793 154.812 54.5834 154.478 55.0762C154.151 55.5691 153.685 55.9428 153.081 56.1971C152.478 56.4462 151.762 56.5707 150.937 56.5707H146.942V44.9491ZM148.292 49.9332H150.515C151.527 49.9332 152.225 49.7662 152.612 49.4323C153.004 49.0985 153.2 48.6109 153.2 47.9697C153.2 47.3073 152.967 46.8303 152.501 46.5388C152.041 46.2474 151.304 46.1017 150.293 46.1017H148.292V49.9332ZM148.292 51.0698V55.4181H150.706C151.739 55.4181 152.469 55.2167 152.898 54.814C153.327 54.4058 153.542 53.8574 153.542 53.1684C153.542 52.7286 153.443 52.3523 153.248 52.0397C153.057 51.727 152.745 51.4886 152.31 51.3243C151.882 51.1546 151.308 51.0698 150.587 51.0698H148.292ZM158.585 56.5707H157.258V44.2018H158.585V56.5707ZM164.724 47.6994C165.465 47.6994 166.101 47.8637 166.629 48.1923C167.159 48.5209 167.565 48.9819 167.845 49.5755C168.126 50.1636 168.266 50.8526 168.266 51.6422V52.461H162.254C162.269 53.4838 162.524 54.2628 163.016 54.798C163.509 55.3333 164.202 55.6009 165.097 55.6009C165.648 55.6009 166.134 55.5505 166.559 55.4498C166.981 55.3491 167.422 55.2007 167.877 55.0047V56.1653C167.437 56.3614 167 56.5044 166.567 56.5945C166.138 56.6847 165.629 56.7297 165.041 56.7297C164.205 56.7297 163.474 56.5601 162.849 56.2209C162.23 55.8765 161.749 55.3731 161.404 54.7106C161.06 54.0481 160.888 53.2374 160.888 52.2782C160.888 51.3402 161.043 50.5293 161.356 49.8457C161.674 49.1567 162.119 48.6268 162.691 48.2559C163.267 47.8849 163.946 47.6994 164.724 47.6994ZM164.708 48.7805C164.004 48.7805 163.443 49.011 163.024 49.4721C162.606 49.9332 162.357 50.577 162.277 51.4037H166.884C166.879 50.8844 166.797 50.4286 166.638 50.0365C166.484 49.6391 166.248 49.3316 165.931 49.1144C165.613 48.8918 165.205 48.7805 164.708 48.7805ZM176.136 54.1859C176.136 54.7423 175.996 55.2114 175.716 55.593C175.44 55.9692 175.043 56.2528 174.524 56.4435C174.01 56.6343 173.397 56.7297 172.681 56.7297C172.072 56.7297 171.546 56.682 171.101 56.5866C170.656 56.4912 170.267 56.356 169.934 56.1811V54.9649C170.288 55.1398 170.712 55.2988 171.205 55.4419C171.697 55.5849 172.2 55.6566 172.714 55.6566C173.465 55.6566 174.01 55.5346 174.35 55.2909C174.689 55.0471 174.857 54.7158 174.857 54.2972C174.857 54.0587 174.789 53.8494 174.652 53.6693C174.519 53.4838 174.294 53.3062 173.977 53.1367C173.658 52.9618 173.219 52.771 172.658 52.5643C172.101 52.3523 171.62 52.143 171.213 51.9363C170.81 51.7244 170.497 51.4673 170.275 51.1653C170.058 50.8632 169.95 50.4711 169.95 49.9887C169.95 49.2522 170.246 48.6877 170.839 48.2956C171.437 47.8982 172.221 47.6994 173.19 47.6994C173.714 47.6994 174.204 47.7525 174.659 47.8584C175.12 47.9591 175.548 48.0969 175.946 48.2718L175.501 49.3291C175.141 49.1753 174.757 49.0454 174.35 48.9395C173.942 48.8336 173.526 48.7805 173.103 48.7805C172.494 48.7805 172.025 48.8812 171.697 49.0825C171.374 49.2839 171.213 49.5595 171.213 49.9093C171.213 50.1796 171.286 50.4021 171.435 50.577C171.588 50.7519 171.832 50.9162 172.165 51.0698C172.499 51.2236 172.938 51.4037 173.484 51.6104C174.029 51.8119 174.501 52.0212 174.898 52.2384C175.294 52.4504 175.598 52.71 175.811 53.0174C176.028 53.3195 176.136 53.709 176.136 54.1859ZM183.888 54.1859C183.888 54.7423 183.747 55.2114 183.467 55.593C183.192 55.9692 182.795 56.2528 182.275 56.4435C181.762 56.6343 181.147 56.7297 180.433 56.7297C179.824 56.7297 179.298 56.682 178.853 56.5866C178.408 56.4912 178.018 56.356 177.685 56.1811V54.9649C178.039 55.1398 178.463 55.2988 178.956 55.4419C179.449 55.5849 179.95 55.6566 180.465 55.6566C181.217 55.6566 181.762 55.5346 182.101 55.2909C182.439 55.0471 182.609 54.7158 182.609 54.2972C182.609 54.0587 182.54 53.8494 182.403 53.6693C182.271 53.4838 182.045 53.3062 181.727 53.1367C181.41 52.9618 180.971 52.771 180.409 52.5643C179.853 52.3523 179.371 52.143 178.964 51.9363C178.561 51.7244 178.248 51.4673 178.027 51.1653C177.809 50.8632 177.701 50.4711 177.701 49.9887C177.701 49.2522 177.998 48.6877 178.59 48.2956C179.188 47.8982 179.973 47.6994 180.942 47.6994C181.465 47.6994 181.955 47.7525 182.41 47.8584C182.871 47.9591 183.3 48.0969 183.697 48.2718L183.252 49.3291C182.892 49.1753 182.509 49.0454 182.101 48.9395C181.693 48.8336 181.277 48.7805 180.854 48.7805C180.244 48.7805 179.776 48.8812 179.449 49.0825C179.126 49.2839 178.964 49.5595 178.964 49.9093C178.964 50.1796 179.037 50.4021 179.186 50.577C179.339 50.7519 179.583 50.9162 179.917 51.0698C180.25 51.2236 180.689 51.4037 181.235 51.6104C181.78 51.8119 182.252 52.0212 182.648 52.2384C183.046 52.4504 183.35 52.71 183.563 53.0174C183.779 53.3195 183.888 53.709 183.888 54.1859ZM189.36 47.6994C190.101 47.6994 190.737 47.8637 191.265 48.1923C191.795 48.5209 192.2 48.9819 192.48 49.5755C192.762 50.1636 192.902 50.8526 192.902 51.6422V52.461H186.89C186.906 53.4838 187.159 54.2628 187.652 54.798C188.145 55.3333 188.838 55.6009 189.733 55.6009C190.283 55.6009 190.77 55.5505 191.194 55.4498C191.617 55.3491 192.058 55.2007 192.513 55.0047V56.1653C192.073 56.3614 191.636 56.5044 191.202 56.5945C190.774 56.6847 190.265 56.7297 189.677 56.7297C188.841 56.7297 188.11 56.5601 187.486 56.2209C186.865 55.8765 186.385 55.3731 186.039 54.7106C185.696 54.0481 185.524 53.2374 185.524 52.2782C185.524 51.3402 185.679 50.5293 185.992 49.8457C186.31 49.1567 186.755 48.6268 187.327 48.2559C187.904 47.8849 188.581 47.6994 189.36 47.6994ZM189.344 48.7805C188.64 48.7805 188.078 49.011 187.66 49.4721C187.242 49.9332 186.993 50.577 186.913 51.4037H191.52C191.515 50.8844 191.432 50.4286 191.273 50.0365C191.12 49.6391 190.884 49.3316 190.567 49.1144C190.249 48.8918 189.842 48.7805 189.344 48.7805ZM198.238 56.7297C197.137 56.7297 196.264 56.3535 195.618 55.6009C194.977 54.8484 194.656 53.7302 194.656 52.2463C194.656 50.7466 194.985 49.6152 195.642 48.8521C196.298 48.0836 197.172 47.6994 198.263 47.6994C198.723 47.6994 199.126 47.7604 199.47 47.8822C199.814 48.0041 200.11 48.1684 200.36 48.3751C200.608 48.5765 200.817 48.807 200.987 49.0667H201.082C201.06 48.9024 201.039 48.6772 201.018 48.391C200.998 48.1048 200.987 47.8717 200.987 47.6915V44.2018H202.305V56.5707H201.24L201.042 55.3306H200.987C200.822 55.5903 200.613 55.8261 200.36 56.0381C200.11 56.2501 199.811 56.4196 199.462 56.5469C199.118 56.6687 198.71 56.7297 198.238 56.7297ZM198.445 55.6327C199.377 55.6327 200.037 55.3677 200.422 54.8378C200.809 54.3078 201.002 53.5209 201.002 52.4769V52.2384C201.002 51.1308 200.817 50.2803 200.447 49.6867C200.081 49.0932 199.414 48.7965 198.445 48.7965C197.635 48.7965 197.029 49.109 196.627 49.7344C196.224 50.3545 196.023 51.2024 196.023 52.2782C196.023 53.3487 196.221 54.1753 196.619 54.7583C197.021 55.3412 197.629 55.6327 198.445 55.6327Z" fill="#A6A6A6"/>
<path d="M354.651 34.925V33.2556C354.042 33.245 353.46 33.192 352.904 33.0966C352.354 33.0013 351.904 32.8767 351.554 32.723V31.4352C351.92 31.6048 352.388 31.7532 352.96 31.8804C353.532 32.0076 354.096 32.0764 354.651 32.087V28.5894C353.953 28.3934 353.373 28.1708 352.912 27.9217C352.457 27.6674 352.115 27.3573 351.888 26.9917C351.661 26.626 351.547 26.1835 351.547 25.6642C351.547 25.1236 351.673 24.6626 351.928 24.281C352.187 23.8941 352.549 23.5921 353.015 23.3748C353.481 23.1575 354.027 23.033 354.651 23.0012V21.626H355.62V22.9853C356.187 23.0012 356.703 23.0648 357.169 23.1761C357.635 23.2821 358.067 23.4198 358.464 23.5894L358.051 24.6944C357.69 24.5513 357.301 24.4294 356.883 24.3287C356.465 24.228 356.044 24.1591 355.62 24.122V27.5958C356.33 27.8025 356.922 28.0224 357.4 28.2556C357.881 28.4888 358.245 28.7776 358.487 29.122C358.731 29.4665 358.853 29.9117 358.853 30.4575C358.853 31.2312 358.57 31.8566 358.003 32.3336C357.437 32.8052 356.642 33.0914 355.62 33.192V34.925H354.651ZM355.62 32.0155C356.272 31.9519 356.756 31.7956 357.074 31.5465C357.396 31.2922 357.558 30.9582 357.558 30.545C357.558 30.2482 357.495 30.0044 357.367 29.8137C357.245 29.6228 357.044 29.4585 356.764 29.3208C356.483 29.1777 356.102 29.0425 355.62 28.9154V32.0155ZM354.651 27.2619V24.1538C354.255 24.1803 353.922 24.2545 353.651 24.3764C353.381 24.4983 353.177 24.6573 353.04 24.8533C352.907 25.0494 352.841 25.2826 352.841 25.5529C352.841 25.8655 352.899 26.1279 353.015 26.3398C353.137 26.5465 353.33 26.724 353.595 26.8724C353.866 27.0155 354.218 27.1453 354.651 27.2619ZM368.32 28.1522C368.32 29.0956 368.249 29.9382 368.105 30.6801C367.962 31.422 367.738 32.0499 367.43 32.564C367.123 33.0781 366.726 33.4702 366.239 33.7405C365.752 34.0055 365.167 34.1379 364.483 34.1379C363.62 34.1379 362.906 33.9021 362.34 33.4305C361.779 32.9588 361.357 32.2778 361.077 31.3876C360.802 30.4919 360.663 29.4135 360.663 28.1522C360.663 26.9122 360.788 25.847 361.036 24.9567C361.291 24.0611 361.699 23.3748 362.26 22.8978C362.821 22.4156 363.562 22.1745 364.483 22.1745C365.357 22.1745 366.077 22.4129 366.644 22.8899C367.21 23.3616 367.632 24.0452 367.907 24.9408C368.183 25.8311 368.32 26.9016 368.32 28.1522ZM361.99 28.1522C361.99 29.2333 362.072 30.1343 362.237 30.855C362.4 31.5757 362.665 32.1162 363.03 32.4766C363.401 32.8316 363.885 33.0092 364.483 33.0092C365.082 33.0092 365.564 32.8316 365.929 32.4766C366.299 32.1216 366.568 31.5836 366.731 30.8629C366.901 30.1422 366.986 29.2386 366.986 28.1522C366.986 27.0871 366.903 26.1968 366.74 25.4813C366.575 24.7606 366.311 24.2201 365.945 23.8597C365.58 23.494 365.092 23.3112 364.483 23.3112C363.875 23.3112 363.388 23.494 363.022 23.8597C362.657 24.2201 362.392 24.7606 362.228 25.4813C362.069 26.1968 361.99 27.0871 361.99 28.1522ZM370.345 33.1523C370.345 32.7814 370.435 32.519 370.615 32.3653C370.795 32.2063 371.015 32.1268 371.274 32.1268C371.544 32.1268 371.771 32.2063 371.957 32.3653C372.142 32.519 372.235 32.7814 372.235 33.1523C372.235 33.5179 372.142 33.7856 371.957 33.9551C371.771 34.1195 371.544 34.2016 371.274 34.2016C371.015 34.2016 370.795 34.1195 370.615 33.9551C370.435 33.7856 370.345 33.5179 370.345 33.1523ZM381.901 28.1522C381.901 29.0956 381.829 29.9382 381.686 30.6801C381.543 31.422 381.318 32.0499 381.011 32.564C380.704 33.0781 380.307 33.4702 379.819 33.7405C379.332 34.0055 378.748 34.1379 378.065 34.1379C377.202 34.1379 376.487 33.9021 375.92 33.4305C375.359 32.9588 374.938 32.2778 374.657 31.3876C374.382 30.4919 374.245 29.4135 374.245 28.1522C374.245 26.9122 374.369 25.847 374.618 24.9567C374.872 24.0611 375.28 23.3748 375.841 22.8978C376.402 22.4156 377.143 22.1745 378.065 22.1745C378.938 22.1745 379.658 22.4129 380.225 22.8899C380.791 23.3616 381.212 24.0452 381.487 24.9408C381.763 25.8311 381.901 26.9016 381.901 28.1522ZM375.57 28.1522C375.57 29.2333 375.653 30.1343 375.817 30.855C375.981 31.5757 376.245 32.1162 376.611 32.4766C376.982 32.8316 377.466 33.0092 378.065 33.0092C378.663 33.0092 379.144 32.8316 379.51 32.4766C379.881 32.1216 380.148 31.5836 380.312 30.8629C380.481 30.1422 380.566 29.2386 380.566 28.1522C380.566 27.0871 380.484 26.1968 380.32 25.4813C380.156 24.7606 379.891 24.2201 379.526 23.8597C379.16 23.494 378.674 23.3112 378.065 23.3112C377.456 23.3112 376.968 23.494 376.603 23.8597C376.237 24.2201 375.974 24.7606 375.809 25.4813C375.651 26.1968 375.57 27.0871 375.57 28.1522ZM391.208 28.1522C391.208 29.0956 391.137 29.9382 390.994 30.6801C390.851 31.422 390.626 32.0499 390.319 32.564C390.011 33.0781 389.614 33.4702 389.127 33.7405C388.641 34.0055 388.055 34.1379 387.372 34.1379C386.51 34.1379 385.794 33.9021 385.228 33.4305C384.667 32.9588 384.246 32.2778 383.966 31.3876C383.69 30.4919 383.552 29.4135 383.552 28.1522C383.552 26.9122 383.676 25.847 383.926 24.9567C384.179 24.0611 384.587 23.3748 385.148 22.8978C385.709 22.4156 386.452 22.1745 387.372 22.1745C388.246 22.1745 388.966 22.4129 389.533 22.8899C390.099 23.3616 390.52 24.0452 390.796 24.9408C391.071 25.8311 391.208 26.9016 391.208 28.1522ZM384.879 28.1522C384.879 29.2333 384.961 30.1343 385.125 30.855C385.289 31.5757 385.554 32.1162 385.918 32.4766C386.29 32.8316 386.774 33.0092 387.372 33.0092C387.97 33.0092 388.452 32.8316 388.818 32.4766C389.189 32.1216 389.456 31.5836 389.62 30.8629C389.79 30.1422 389.874 29.2386 389.874 28.1522C389.874 27.0871 389.792 26.1968 389.628 25.4813C389.464 24.7606 389.199 24.2201 388.833 23.8597C388.469 23.494 387.982 23.3112 387.372 23.3112C386.763 23.3112 386.276 23.494 385.911 23.8597C385.546 24.2201 385.281 24.7606 385.117 25.4813C384.958 26.1968 384.879 27.0871 384.879 28.1522Z" fill="#A6A6A6"/>
<path d="M345.348 59.0001V57.3307C344.739 57.3201 344.156 57.2671 343.6 57.1717C343.05 57.0764 342.599 56.9519 342.25 56.7981V55.5104C342.615 55.6799 343.083 55.8283 343.656 55.9555C344.228 56.0827 344.791 56.1516 345.348 56.1622V52.6645C344.648 52.4685 344.069 52.2459 343.608 51.9968C343.153 51.7425 342.811 51.4325 342.584 51.0668C342.356 50.7012 342.242 50.2586 342.242 49.7393C342.242 49.1988 342.369 48.7377 342.623 48.3562C342.882 47.9693 343.245 47.6672 343.711 47.45C344.178 47.2326 344.723 47.1081 345.348 47.0764V45.7012H346.317V47.0604C346.882 47.0764 347.399 47.14 347.865 47.2512C348.331 47.3572 348.762 47.495 349.16 47.6645L348.746 48.7695C348.387 48.6264 347.998 48.5046 347.579 48.4039C347.161 48.3032 346.74 48.2342 346.317 48.1971V51.6709C347.025 51.8776 347.619 52.0975 348.095 52.3307C348.577 52.5638 348.94 52.8527 349.183 53.1971C349.427 53.5417 349.549 53.9868 349.549 54.5327C349.549 55.3063 349.265 55.9317 348.698 56.4087C348.132 56.8803 347.338 57.1665 346.317 57.2671V59.0001H345.348ZM346.317 56.0906C346.967 56.027 347.452 55.8708 347.77 55.6217C348.093 55.3674 348.254 55.0334 348.254 54.6201C348.254 54.3234 348.191 54.0795 348.064 53.8888C347.942 53.698 347.741 53.5337 347.46 53.3959C347.18 53.2528 346.798 53.1177 346.317 52.9905V56.0906ZM345.348 51.337V48.229C344.95 48.2555 344.617 48.3297 344.346 48.4515C344.077 48.5734 343.872 48.7324 343.735 48.9284C343.603 49.1246 343.536 49.3578 343.536 49.628C343.536 49.9407 343.595 50.203 343.711 50.415C343.833 50.6217 344.027 50.7992 344.292 50.9476C344.561 51.0906 344.913 51.2205 345.348 51.337ZM356.251 58.0541H354.965V49.8188C354.965 49.5061 354.965 49.2384 354.965 49.0159C354.971 48.7881 354.975 48.5813 354.981 48.3958C354.992 48.2051 355.005 48.0116 355.021 47.8156C354.857 47.9851 354.702 48.1309 354.56 48.2528C354.417 48.3693 354.24 48.5151 354.027 48.69L352.702 49.7552L352.011 48.8569L355.156 46.4325H356.251V58.0541ZM364.321 50.9476C365.11 50.9476 365.795 51.0827 366.377 51.353C366.96 51.618 367.41 52.0049 367.727 52.5136C368.05 53.0224 368.212 53.6397 368.212 54.3657C368.212 55.1606 368.04 55.8469 367.696 56.4245C367.352 56.9969 366.857 57.4394 366.211 57.752C365.565 58.0595 364.791 58.2131 363.892 58.2131C363.288 58.2131 362.727 58.1601 362.208 58.0541C361.689 57.9482 361.253 57.7891 360.897 57.5771V56.3212C361.284 56.5544 361.752 56.7399 362.303 56.8777C362.854 57.0155 363.389 57.0843 363.907 57.0843C364.495 57.0843 365.009 56.9916 365.448 56.8061C365.893 56.6153 366.237 56.3291 366.481 55.9476C366.729 55.5607 366.854 55.0758 366.854 54.4929C366.854 53.7191 366.615 53.1229 366.139 52.7043C365.669 52.2803 364.922 52.0684 363.899 52.0684C363.572 52.0684 363.211 52.0949 362.82 52.1479C362.428 52.2009 362.105 52.2592 361.851 52.3228L361.184 51.8856L361.628 46.4325H367.402V47.6407H362.756L362.462 51.1463C362.663 51.1039 362.923 51.0616 363.24 51.0191C363.558 50.9714 363.918 50.9476 364.321 50.9476ZM370.348 57.2275C370.348 56.8565 370.439 56.5942 370.619 56.4404C370.799 56.2815 371.019 56.2019 371.278 56.2019C371.547 56.2019 371.775 56.2815 371.961 56.4404C372.146 56.5942 372.238 56.8565 372.238 57.2275C372.238 57.5931 372.146 57.8607 371.961 58.0303C371.775 58.1946 371.547 58.2767 371.278 58.2767C371.019 58.2767 370.799 58.1946 370.619 58.0303C370.439 57.8607 370.348 57.5931 370.348 57.2275ZM381.856 51.3847C381.856 52.0896 381.806 52.7758 381.706 53.4437C381.611 54.1114 381.443 54.7341 381.205 55.3117C380.972 55.8892 380.655 56.3954 380.253 56.83C379.849 57.2645 379.344 57.6063 378.735 57.8554C378.131 58.0991 377.408 58.2211 376.567 58.2211C376.34 58.2211 376.079 58.2052 375.789 58.1733C375.497 58.1469 375.259 58.1071 375.074 58.0541V56.9094C375.27 56.9784 375.5 57.0339 375.765 57.0764C376.029 57.1135 376.29 57.132 376.543 57.132C377.533 57.132 378.311 56.92 378.878 56.4961C379.445 56.0668 379.853 55.4865 380.102 54.7552C380.35 54.0186 380.491 53.1919 380.522 52.2751H380.427C380.268 52.5294 380.059 52.7652 379.799 52.9826C379.545 53.1946 379.236 53.3668 378.87 53.4992C378.505 53.6265 378.079 53.6901 377.592 53.6901C376.919 53.6901 376.331 53.5523 375.828 53.2767C375.331 53.0011 374.942 52.6009 374.661 52.0764C374.386 51.5517 374.248 50.9184 374.248 50.1765C374.248 49.3762 374.399 48.6847 374.7 48.1018C375.008 47.5135 375.437 47.0604 375.988 46.7425C376.538 46.4245 377.187 46.2655 377.934 46.2655C378.505 46.2655 379.029 46.3741 379.506 46.5914C379.982 46.8087 380.395 47.1346 380.744 47.5692C381.1 47.9984 381.371 48.531 381.563 49.1669C381.758 49.8029 381.856 50.5421 381.856 51.3847ZM377.934 47.3864C377.228 47.3864 376.657 47.6168 376.218 48.0779C375.783 48.539 375.566 49.2332 375.566 50.1606C375.566 50.929 375.754 51.5358 376.131 51.9809C376.506 52.4262 377.086 52.6487 377.87 52.6487C378.41 52.6487 378.876 52.54 379.267 52.3228C379.665 52.1054 379.969 51.83 380.181 51.4961C380.398 51.1621 380.506 50.8204 380.506 50.4706C380.506 50.1208 380.454 49.7658 380.348 49.4054C380.247 49.0451 380.091 48.7139 379.878 48.4118C379.667 48.1044 379.4 47.858 379.077 47.6725C378.754 47.4817 378.373 47.3864 377.934 47.3864ZM391.164 51.3847C391.164 52.0896 391.114 52.7758 391.013 53.4437C390.918 54.1114 390.752 54.7341 390.514 55.3117C390.28 55.8892 389.963 56.3954 389.56 56.83C389.158 57.2645 388.652 57.6063 388.044 57.8554C387.439 58.0991 386.717 58.2211 385.874 58.2211C385.648 58.2211 385.388 58.2052 385.097 58.1733C384.806 58.1469 384.567 58.1071 384.382 58.0541V56.9094C384.578 56.9784 384.808 57.0339 385.073 57.0764C385.338 57.1135 385.597 57.132 385.851 57.132C386.841 57.132 387.619 56.92 388.186 56.4961C388.752 56.0668 389.16 55.4865 389.409 54.7552C389.658 54.0186 389.798 53.1919 389.83 52.2751H389.735C389.576 52.5294 389.367 52.7652 389.108 52.9826C388.853 53.1946 388.543 53.3668 388.178 53.4992C387.812 53.6265 387.387 53.6901 386.899 53.6901C386.228 53.6901 385.64 53.5523 385.137 53.2767C384.638 53.0011 384.249 52.6009 383.969 52.0764C383.694 51.5517 383.556 50.9184 383.556 50.1765C383.556 49.3762 383.707 48.6847 384.009 48.1018C384.315 47.5135 384.744 47.0604 385.295 46.7425C385.845 46.4245 386.495 46.2655 387.241 46.2655C387.812 46.2655 388.337 46.3741 388.814 46.5914C389.29 46.8087 389.703 47.1346 390.052 47.5692C390.408 47.9984 390.68 48.531 390.87 49.1669C391.067 49.8029 391.164 50.5421 391.164 51.3847ZM387.241 47.3864C386.537 47.3864 385.965 47.6168 385.526 48.0779C385.091 48.539 384.874 49.2332 384.874 50.1606C384.874 50.929 385.062 51.5358 385.438 51.9809C385.814 52.4262 386.394 52.6487 387.178 52.6487C387.717 52.6487 388.183 52.54 388.576 52.3228C388.972 52.1054 389.277 51.83 389.489 51.4961C389.706 51.1621 389.814 50.8204 389.814 50.4706C389.814 50.1208 389.762 49.7658 389.655 49.4054C389.555 49.0451 389.398 48.7139 389.187 48.4118C388.975 48.1044 388.708 47.858 388.385 47.6725C388.062 47.4817 387.681 47.3864 387.241 47.3864Z" fill="#A6A6A6"/>
<path d="M341.234 52.8237H392.038V53.2212H341.234V52.8237Z" fill="#A6A6A6"/>
</svg>
