<svg width="324" height="50" viewBox="0 0 324 50" fill="none" xmlns="http://www.w3.org/2000/svg">
<rect width="324" height="50" fill="white"/>
<path d="M5.73155 18.4396C5.73155 18.9921 5.60007 19.4639 5.33633 19.8549C5.07725 20.2417 4.71237 20.537 4.24246 20.741C3.77254 20.945 3.21938 21.047 2.58297 21.047C2.24687 21.047 1.92867 21.03 1.62836 20.9961C1.32883 20.962 1.05342 20.9132 0.80212 20.8494C0.550825 20.7856 0.329874 20.707 0.139263 20.6135V19.5744C0.443463 19.7061 0.814571 19.8294 1.25181 19.9442C1.68905 20.0546 2.14729 20.1099 2.62576 20.1099C3.07156 20.1099 3.44811 20.0483 3.7562 19.925C4.06429 19.7975 4.29691 19.6169 4.45485 19.3831C4.61745 19.1451 4.69836 18.8604 4.69836 18.5289C4.69836 18.2101 4.63145 17.9445 4.49764 17.732C4.36382 17.5152 4.14131 17.3197 3.82855 17.1455C3.52124 16.967 3.09957 16.7779 2.56508 16.5781C2.18775 16.4379 1.85554 16.2849 1.56768 16.1191C1.27982 15.9492 1.03941 15.7579 0.844911 15.5454C0.65041 15.3328 0.501812 15.0864 0.400671 14.8058C0.303421 14.5254 0.255187 14.2045 0.255187 13.8432C0.255187 13.346 0.374221 12.921 0.613846 12.5682C0.856583 12.2112 1.19113 11.9392 1.61669 11.7522C2.04615 11.5609 2.53862 11.4654 3.09334 11.4654C3.56792 11.4654 4.00516 11.5121 4.40661 11.6056C4.81195 11.6991 5.18228 11.8245 5.51838 11.9817L5.19629 12.9125C4.87653 12.7722 4.53576 12.6553 4.17555 12.5618C3.81844 12.4683 3.45045 12.4216 3.06922 12.4216C2.688 12.4216 2.36591 12.4811 2.10295 12.6001C1.84309 12.7148 1.6447 12.8784 1.507 13.0909C1.36929 13.3035 1.30004 13.5564 1.30004 13.8496C1.30004 14.1769 1.36539 14.4488 1.49454 14.6656C1.62836 14.8824 1.8392 15.0757 2.12706 15.2458C2.41881 15.4115 2.80393 15.5857 3.28162 15.7685C3.80444 15.9682 4.24868 16.1807 4.61278 16.406C4.97767 16.627 5.25541 16.899 5.44602 17.222C5.63586 17.5408 5.73155 17.9467 5.73155 18.4396ZM10.065 21.047C9.46519 21.047 8.93693 20.9174 8.47868 20.6582C8.02122 20.3989 7.66411 20.0036 7.40893 19.4724C7.15374 18.9411 7.02615 18.2717 7.02615 17.4642C7.02615 16.6185 7.15997 15.9279 7.4276 15.3924C7.69835 14.8526 8.07179 14.4531 8.54559 14.1938C9.01939 13.9346 9.55855 13.8049 10.1623 13.8049C10.4945 13.8049 10.815 13.8411 11.1231 13.9134C11.4351 13.9814 11.6903 14.0685 11.8887 14.1747L11.5845 15.0608C11.3822 14.9758 11.1472 14.8994 10.8796 14.8314C10.6159 14.7633 10.3692 14.7294 10.1382 14.7294C9.67603 14.7294 9.29092 14.8335 8.98361 15.0418C8.67941 15.25 8.45067 15.556 8.29663 15.9598C8.14648 16.3635 8.07179 16.8607 8.07179 17.4515C8.07179 18.0167 8.14414 18.4992 8.2904 18.8986C8.44056 19.2981 8.66074 19.6041 8.95249 19.8166C9.24891 20.0249 9.61768 20.129 10.0588 20.129C10.4112 20.129 10.7294 20.0908 11.0134 20.0142C11.2966 19.9335 11.5541 19.84 11.7852 19.7338V20.6773C11.5627 20.7963 11.313 20.8876 11.0375 20.9514C10.766 21.0152 10.4416 21.047 10.065 21.047ZM16.3925 13.8049C16.5263 13.8049 16.6656 13.8135 16.8119 13.8305C16.9581 13.8432 17.0873 13.8624 17.2009 13.8878L17.0733 14.8696C16.9636 14.8399 16.8422 14.8165 16.7084 14.7995C16.5746 14.7825 16.4493 14.774 16.3318 14.774C16.0642 14.774 15.8114 14.8314 15.5717 14.9461C15.3368 15.0566 15.1306 15.2181 14.9517 15.4306C14.7735 15.6388 14.6343 15.8917 14.5323 16.1892C14.4312 16.4825 14.3806 16.8097 14.3806 17.171V20.9195H13.3653V13.9325H14.204L14.3137 15.2202H14.3565C14.4942 14.961 14.6599 14.7251 14.8544 14.5126C15.0489 14.2958 15.2738 14.1237 15.5297 13.9962C15.7888 13.8687 16.0767 13.8049 16.3925 13.8049ZM20.9509 13.8177C21.7452 13.8177 22.3349 14.0047 22.72 14.3788C23.1051 14.7527 23.2973 15.3499 23.2973 16.1701V20.9195H22.5621L22.3676 19.8868H22.3186C22.1326 20.1418 21.9381 20.3564 21.7351 20.5306C21.5328 20.7007 21.2978 20.8303 21.0302 20.9195C20.7665 21.0046 20.4428 21.047 20.0577 21.047C19.6524 21.047 19.2922 20.9726 18.9755 20.8239C18.6635 20.6751 18.4161 20.4499 18.2341 20.1482C18.0559 19.8464 17.9664 19.4639 17.9664 19.0006C17.9664 18.3037 18.2302 17.7681 18.7569 17.3941C19.2836 17.0202 20.0857 16.8162 21.164 16.7821L22.3124 16.7311V16.304C22.3124 15.7005 22.1887 15.2776 21.942 15.0354C21.6946 14.7931 21.3461 14.672 20.8964 14.672C20.5479 14.672 20.2156 14.7251 19.8998 14.8314C19.5831 14.9376 19.2836 15.063 18.9996 15.2075L18.69 14.4042C18.9895 14.2427 19.3342 14.1046 19.7232 13.9898C20.1122 13.8751 20.5214 13.8177 20.9509 13.8177ZM22.3007 17.477L21.2854 17.5216C20.4545 17.5556 19.8694 17.698 19.5287 17.9488C19.1887 18.1995 19.0183 18.5544 19.0183 19.0134C19.0183 19.4129 19.1334 19.7082 19.3645 19.8995C19.5956 20.0908 19.9013 20.1864 20.2825 20.1864C20.8738 20.1864 21.3585 20.0142 21.7351 19.6701C22.1116 19.3258 22.3007 18.8094 22.3007 18.1209V17.477ZM28.5061 13.8049C29.337 13.8049 29.9998 14.1046 30.4938 14.7038C30.9879 15.3031 31.2353 16.2042 31.2353 17.4069C31.2353 18.2017 31.1217 18.8689 30.8953 19.4086C30.6681 19.9484 30.3476 20.3564 29.9345 20.6326C29.5252 20.9089 29.0413 21.047 28.4819 21.047C28.1295 21.047 27.8191 20.9982 27.5522 20.9004C27.2846 20.8027 27.0558 20.6709 26.8652 20.5052C26.6746 20.3394 26.5167 20.1588 26.3907 19.9632H26.3183C26.33 20.129 26.3447 20.3287 26.3603 20.5625C26.3805 20.7963 26.3907 21.0003 26.3907 21.1745V24.0433H25.3761V13.9325H26.2086L26.3424 14.9652H26.3907C26.5206 14.7527 26.6785 14.5593 26.8652 14.3851C27.0512 14.2066 27.2784 14.0664 27.546 13.9644C27.8175 13.8581 28.1373 13.8049 28.5061 13.8049ZM28.3302 14.6975C27.8681 14.6975 27.4954 14.791 27.2115 14.978C26.9321 15.165 26.7275 15.4455 26.5976 15.8195C26.4677 16.1892 26.3992 16.6546 26.3907 17.2156V17.4196C26.3907 18.0104 26.4521 18.5098 26.5735 18.9178C26.6987 19.3258 26.9034 19.636 27.1873 19.8485C27.4752 20.061 27.8603 20.1672 28.3419 20.1672C28.7558 20.1672 29.0997 20.0504 29.3751 19.8166C29.6513 19.5829 29.8559 19.2577 29.9897 18.8412C30.1274 18.4205 30.1959 17.9382 30.1959 17.3941C30.1959 16.5696 30.0418 15.9151 29.7337 15.4306C29.4303 14.9419 28.962 14.6975 28.3302 14.6975ZM34.0073 11V13.4798C34.0073 13.7646 33.9988 14.0408 33.9824 14.3086C33.9707 14.5764 33.9606 14.7846 33.9521 14.9334H34.0073C34.1894 14.6188 34.4523 14.3532 34.797 14.1365C35.1416 13.9197 35.5812 13.8114 36.1157 13.8114C36.9505 13.8114 37.6157 14.1153 38.1097 14.7229C38.6084 15.3265 38.8574 16.2254 38.8574 17.4196C38.8574 18.2059 38.7438 18.8689 38.5166 19.4086C38.2902 19.9484 37.9697 20.3564 37.5566 20.6326C37.1434 20.9089 36.6549 21.047 36.0916 21.047C35.5649 21.047 35.1315 20.945 34.7908 20.741C34.4547 20.5327 34.1956 20.2799 34.0128 19.9824H33.9342L33.7272 20.9195H32.9982V11H34.0073ZM35.9523 14.6975C35.47 14.6975 35.0872 14.7974 34.8032 14.9971C34.5192 15.1926 34.3146 15.4901 34.1894 15.8896C34.068 16.2849 34.0073 16.7864 34.0073 17.3941V17.4515C34.0073 18.3312 34.1466 19.0048 34.4267 19.4724C34.706 19.9357 35.2148 20.1672 35.9523 20.1672C36.5716 20.1672 37.0361 19.9293 37.3442 19.4532C37.6562 18.9773 37.8118 18.2973 37.8118 17.4132C37.8118 16.5123 37.6577 15.8343 37.3496 15.3796C37.0462 14.9248 36.5802 14.6975 35.9523 14.6975ZM46.3636 17.4132C46.3636 17.987 46.2928 18.4992 46.1512 18.9496C46.0096 19.4001 45.805 19.7805 45.5373 20.0908C45.2697 20.401 44.9453 20.639 44.5648 20.8048C44.1883 20.9663 43.7604 21.047 43.2819 21.047C42.8369 21.047 42.4269 20.9663 42.0542 20.8048C41.6854 20.639 41.3657 20.401 41.0941 20.0908C40.8265 19.7805 40.618 19.4001 40.4679 18.9496C40.3224 18.4992 40.2492 17.987 40.2492 17.4132C40.2492 16.6482 40.3729 15.998 40.6203 15.4625C40.867 14.9227 41.2194 14.5126 41.6776 14.2321C42.1398 13.9473 42.6883 13.8049 43.3247 13.8049C43.9323 13.8049 44.4637 13.9473 44.9173 14.2321C45.3755 14.5168 45.7295 14.9291 45.9808 15.4689C46.236 16.0044 46.3636 16.6525 46.3636 17.4132ZM41.2949 17.4132C41.2949 17.9742 41.3657 18.4609 41.5073 18.8731C41.6489 19.2854 41.8683 19.6041 42.1639 19.8294C42.4595 20.0546 42.8408 20.1672 43.3068 20.1672C43.7681 20.1672 44.147 20.0546 44.4435 19.8294C44.743 19.6041 44.9639 19.2854 45.1055 18.8731C45.2471 18.4609 45.3187 17.9742 45.3187 17.4132C45.3187 16.8565 45.2471 16.3763 45.1055 15.9725C44.9639 15.5645 44.7453 15.25 44.4489 15.0289C44.1532 14.808 43.7705 14.6975 43.3006 14.6975C42.6074 14.6975 42.0993 14.9376 41.7749 15.4179C41.4544 15.8982 41.2949 16.5633 41.2949 17.4132ZM53.8518 17.4132C53.8518 17.987 53.781 18.4992 53.6394 18.9496C53.4979 19.4001 53.2932 19.7805 53.0256 20.0908C52.758 20.401 52.4335 20.639 52.0531 20.8048C51.6758 20.9663 51.2486 21.047 50.7702 21.047C50.3252 21.047 49.9152 20.9663 49.5425 20.8048C49.1737 20.639 48.8539 20.401 48.5824 20.0908C48.3148 19.7805 48.1063 19.4001 47.9561 18.9496C47.8107 18.4992 47.7375 17.987 47.7375 17.4132C47.7375 16.6482 47.8612 15.998 48.1086 15.4625C48.3553 14.9227 48.7077 14.5126 49.1659 14.2321C49.6281 13.9473 50.1766 13.8049 50.813 13.8049C51.4206 13.8049 51.952 13.9473 52.4055 14.2321C52.8638 14.5168 53.2178 14.9291 53.4691 15.4689C53.7243 16.0044 53.8518 16.6525 53.8518 17.4132ZM48.7831 17.4132C48.7831 17.9742 48.854 18.4609 48.9955 18.8731C49.1371 19.2854 49.3565 19.6041 49.6522 19.8294C49.9478 20.0546 50.329 20.1672 50.7951 20.1672C51.2564 20.1672 51.6353 20.0546 51.9317 19.8294C52.2313 19.6041 52.4522 19.2854 52.5938 18.8731C52.7354 18.4609 52.807 17.9742 52.807 17.4132C52.807 16.8565 52.7354 16.3763 52.5938 15.9725C52.4522 15.5645 52.2336 15.25 51.9372 15.0289C51.6415 14.808 51.2588 14.6975 50.7888 14.6975C50.0956 14.6975 49.5876 14.9376 49.2632 15.4179C48.9426 15.8982 48.7831 16.5633 48.7831 17.4132ZM56.5998 11V16.151C56.5998 16.321 56.5935 16.5293 56.5811 16.7758C56.5694 17.018 56.5593 17.2326 56.5507 17.4196H56.5935C56.6783 17.3091 56.802 17.1455 56.9639 16.9288C57.1303 16.712 57.2704 16.5377 57.3832 16.406L59.5958 13.9325H60.7815L58.1005 16.916L60.976 20.9195H59.76L57.4081 17.6109L56.5998 18.3886V20.9195H55.5969V11H56.5998ZM61.9843 20.2565C61.9843 19.959 62.0536 19.7486 62.1913 19.6254C62.329 19.4979 62.497 19.4341 62.6962 19.4341C62.9024 19.4341 63.0766 19.4979 63.2182 19.6254C63.3606 19.7486 63.4314 19.959 63.4314 20.2565C63.4314 20.5498 63.3606 20.7644 63.2182 20.9004C63.0766 21.0321 62.9024 21.0981 62.6962 21.0981C62.497 21.0981 62.329 21.0321 62.1913 20.9004C62.0536 20.7644 61.9843 20.5498 61.9843 20.2565ZM69.3575 12.4216C68.8673 12.4216 68.4254 12.5108 68.0325 12.6894C67.6435 12.8636 67.3113 13.1186 67.0359 13.4544C66.7644 13.7858 66.5559 14.1875 66.4096 14.6592C66.2633 15.1309 66.191 15.6622 66.191 16.253C66.191 17.035 66.3061 17.715 66.5372 18.293C66.7721 18.8668 67.1207 19.3109 67.5828 19.6254C68.0488 19.9399 68.63 20.0972 69.3271 20.0972C69.7239 20.0972 70.0973 20.0631 70.4459 19.9952C70.7983 19.9229 71.1406 19.8337 71.4728 19.7274V20.6709C71.1484 20.7984 70.8084 20.8919 70.4513 20.9514C70.095 21.0152 69.6718 21.047 69.1808 21.047C68.2776 21.047 67.5221 20.8515 66.9137 20.4605C66.31 20.0652 65.8564 19.5085 65.5522 18.7902C65.2527 18.072 65.1026 17.2242 65.1026 16.2466C65.1026 15.5412 65.1959 14.8972 65.3826 14.3149C65.5725 13.7285 65.8487 13.2227 66.2089 12.7977C66.5738 12.3727 67.0196 12.0455 67.5463 11.816C68.0769 11.5822 68.6845 11.4654 69.3699 11.4654C69.8196 11.4654 70.2529 11.5121 70.6707 11.6056C71.0877 11.6991 71.4643 11.833 71.8012 12.0072L71.3873 12.9252C71.1041 12.7893 70.7921 12.6723 70.4513 12.5746C70.1152 12.4726 69.7503 12.4216 69.3575 12.4216ZM78.9915 17.4132C78.9915 17.987 78.9207 18.4992 78.7783 18.9496C78.6367 19.4001 78.4321 19.7805 78.1644 20.0908C77.8976 20.401 77.5732 20.639 77.1919 20.8048C76.8154 20.9663 76.3883 21.047 75.9098 21.047C75.464 21.047 75.0548 20.9663 74.6821 20.8048C74.3133 20.639 73.9928 20.401 73.7213 20.0908C73.4544 19.7805 73.2451 19.4001 73.0958 18.9496C72.9495 18.4992 72.8764 17.987 72.8764 17.4132C72.8764 16.6482 73.0001 15.998 73.2475 15.4625C73.4949 14.9227 73.8473 14.5126 74.3048 14.2321C74.7669 13.9473 75.3162 13.8049 75.9526 13.8049C76.5602 13.8049 77.0908 13.9473 77.5444 14.2321C78.0026 14.5168 78.3574 14.9291 78.6087 15.4689C78.8639 16.0044 78.9915 16.6525 78.9915 17.4132ZM73.922 17.4132C73.922 17.9742 73.9928 18.4609 74.1352 18.8731C74.2768 19.2854 74.4954 19.6041 74.791 19.8294C75.0874 20.0546 75.4679 20.1672 75.9339 20.1672C76.3961 20.1672 76.7749 20.0546 77.0706 19.8294C77.3709 19.6041 77.5911 19.2854 77.7334 18.8731C77.875 18.4609 77.9458 17.9742 77.9458 17.4132C77.9458 16.8565 77.875 16.3763 77.7334 15.9725C77.5911 15.5645 77.3724 15.25 77.0768 15.0289C76.7812 14.808 76.3984 14.6975 75.9277 14.6975C75.2353 14.6975 74.7265 14.9376 74.402 15.4179C74.0823 15.8982 73.922 16.5633 73.922 17.4132ZM87.9689 13.8049C88.7025 13.8049 89.2557 14.0068 89.6283 14.4106C90.001 14.8101 90.1869 15.454 90.1869 16.3422V20.9195H89.1903V16.3932C89.1903 15.828 89.0728 15.4051 88.8379 15.1246C88.6068 14.8399 88.2629 14.6975 87.8047 14.6975C87.1605 14.6975 86.6922 14.893 86.4004 15.284C86.1087 15.675 85.9632 16.2508 85.9632 17.0116V20.9195H84.9603V16.3932C84.9603 16.015 84.9074 15.7005 84.8024 15.4498C84.7005 15.199 84.5464 15.012 84.3402 14.8888C84.1372 14.7612 83.8804 14.6975 83.5685 14.6975C83.1266 14.6975 82.7718 14.7931 82.5049 14.9844C82.2373 15.1756 82.0428 15.4604 81.9214 15.8386C81.8032 16.2126 81.7448 16.6738 81.7448 17.222V20.9195H80.7358V13.9325H81.5503L81.702 14.9206H81.7573C81.8903 14.6784 82.0591 14.4744 82.2614 14.3086C82.4637 14.1428 82.6909 14.0175 82.9422 13.9325C83.1935 13.8475 83.4611 13.8049 83.7443 13.8049C84.2508 13.8049 84.6748 13.9048 85.0148 14.1046C85.3594 14.3001 85.6084 14.5997 85.7624 15.0035H85.8169C86.0363 14.5997 86.3358 14.3001 86.717 14.1046C87.0975 13.9048 87.5153 13.8049 87.9689 13.8049ZM94.9281 17.885V16.9415H97.9429V17.885H94.9281ZM109.947 16.1701C109.947 17.2198 109.765 18.0975 109.401 18.803C109.036 19.5042 108.507 20.0334 107.814 20.3904C107.125 20.7432 106.289 20.9195 105.304 20.9195H102.891V11.5992H105.571C106.474 11.5992 107.252 11.7735 107.905 12.122C108.557 12.4662 109.06 12.9783 109.412 13.6584C109.769 14.3341 109.947 15.1713 109.947 16.1701ZM108.859 16.2084C108.859 15.3711 108.726 14.6805 108.458 14.1365C108.195 13.5924 107.806 13.1887 107.291 12.9252C106.781 12.6575 106.155 12.5236 105.413 12.5236H103.924V19.9888H105.182C106.406 19.9888 107.324 19.6722 107.936 19.0389C108.552 18.4057 108.859 17.4621 108.859 16.2084ZM114.336 13.8049C114.903 13.8049 115.39 13.9367 115.795 14.2002C116.199 14.4637 116.51 14.8335 116.725 15.3095C116.939 15.7812 117.047 16.3337 117.047 16.967V17.6236H112.446C112.458 18.4438 112.653 19.0687 113.029 19.4979C113.406 19.9272 113.937 20.1418 114.622 20.1418C115.043 20.1418 115.416 20.1014 115.74 20.0206C116.064 19.9399 116.4 19.8209 116.749 19.6636V20.5944C116.413 20.7517 116.078 20.8664 115.746 20.9386C115.418 21.0109 115.029 21.047 114.579 21.047C113.939 21.047 113.379 20.911 112.902 20.639C112.427 20.3628 112.058 19.959 111.795 19.4278C111.531 18.8965 111.4 18.2463 111.4 17.477C111.4 16.7248 111.52 16.0745 111.759 15.5262C112.002 14.9737 112.342 14.5487 112.78 14.2512C113.221 13.9537 113.74 13.8049 114.336 13.8049ZM114.324 14.672C113.785 14.672 113.355 14.8568 113.035 15.2266C112.715 15.5964 112.524 16.1128 112.464 16.7758H115.989C115.985 16.3593 115.923 15.9937 115.8 15.6792C115.683 15.3605 115.503 15.114 115.26 14.9398C115.017 14.7612 114.705 14.672 114.324 14.672ZM121.429 21.047C120.829 21.047 120.3 20.9174 119.843 20.6582C119.385 20.3989 119.028 20.0036 118.773 19.4724C118.518 18.9411 118.39 18.2717 118.39 17.4642C118.39 16.6185 118.523 15.9279 118.791 15.3924C119.063 14.8526 119.435 14.4531 119.91 14.1938C120.384 13.9346 120.923 13.8049 121.526 13.8049C121.859 13.8049 122.178 13.8411 122.487 13.9134C122.799 13.9814 123.054 14.0685 123.252 14.1747L122.949 15.0608C122.746 14.9758 122.511 14.8994 122.244 14.8314C121.98 14.7633 121.733 14.7294 121.502 14.7294C121.04 14.7294 120.655 14.8335 120.347 15.0418C120.044 15.25 119.814 15.556 119.66 15.9598C119.511 16.3635 119.435 16.8607 119.435 17.4515C119.435 18.0167 119.508 18.4992 119.655 18.8986C119.804 19.2981 120.025 19.6041 120.317 19.8166C120.612 20.0249 120.981 20.129 121.423 20.129C121.775 20.129 122.094 20.0908 122.378 20.0142C122.661 19.9335 122.918 19.84 123.149 19.7338V20.6773C122.926 20.7963 122.677 20.8876 122.402 20.9514C122.13 21.0152 121.806 21.047 121.429 21.047ZM130.474 17.4132C130.474 17.987 130.403 18.4992 130.26 18.9496C130.119 19.4001 129.914 19.7805 129.647 20.0908C129.38 20.401 129.055 20.639 128.674 20.8048C128.297 20.9663 127.87 21.047 127.392 21.047C126.946 21.047 126.537 20.9663 126.164 20.8048C125.795 20.639 125.475 20.401 125.203 20.0908C124.936 19.7805 124.727 19.4001 124.578 18.9496C124.432 18.4992 124.358 17.987 124.358 17.4132C124.358 16.6482 124.482 15.998 124.73 15.4625C124.977 14.9227 125.329 14.5126 125.787 14.2321C126.249 13.9473 126.798 13.8049 127.435 13.8049C128.042 13.8049 128.573 13.9473 129.026 14.2321C129.485 14.5168 129.839 14.9291 130.091 15.4689C130.346 16.0044 130.474 16.6525 130.474 17.4132ZM125.404 17.4132C125.404 17.9742 125.475 18.4609 125.617 18.8731C125.759 19.2854 125.977 19.6041 126.273 19.8294C126.57 20.0546 126.95 20.1672 127.416 20.1672C127.878 20.1672 128.257 20.0546 128.553 19.8294C128.852 19.6041 129.073 19.2854 129.215 18.8731C129.357 18.4609 129.428 17.9742 129.428 17.4132C129.428 16.8565 129.357 16.3763 129.215 15.9725C129.073 15.5645 128.854 15.25 128.559 15.0289C128.263 14.808 127.88 14.6975 127.41 14.6975C126.717 14.6975 126.209 14.9376 125.884 15.4179C125.564 15.8982 125.404 16.5633 125.404 17.4132ZM135.245 13.8049C135.378 13.8049 135.518 13.8135 135.664 13.8305C135.81 13.8432 135.94 13.8624 136.053 13.8878L135.926 14.8696C135.816 14.8399 135.695 14.8165 135.561 14.7995C135.427 14.7825 135.301 14.774 135.184 14.774C134.917 14.774 134.663 14.8314 134.424 14.9461C134.189 15.0566 133.982 15.2181 133.804 15.4306C133.626 15.6388 133.486 15.8917 133.385 16.1892C133.284 16.4825 133.233 16.8097 133.233 17.171V20.9195H132.218V13.9325H133.056L133.166 15.2202H133.208C133.346 14.961 133.512 14.7251 133.707 14.5126C133.901 14.2958 134.126 14.1237 134.381 13.9962C134.641 13.8687 134.928 13.8049 135.245 13.8049ZM139.803 13.8177C140.598 13.8177 141.187 14.0047 141.572 14.3788C141.957 14.7527 142.15 15.3499 142.15 16.1701V20.9195H141.414L141.219 19.8868H141.171C140.984 20.1418 140.79 20.3564 140.588 20.5306C140.385 20.7007 140.15 20.8303 139.883 20.9195C139.619 21.0046 139.295 21.047 138.91 21.047C138.505 21.047 138.144 20.9726 137.828 20.8239C137.516 20.6751 137.269 20.4499 137.087 20.1482C136.908 19.8464 136.819 19.4639 136.819 19.0006C136.819 18.3037 137.083 17.7681 137.609 17.3941C138.136 17.0202 138.938 16.8162 140.016 16.7821L141.165 16.7311V16.304C141.165 15.7005 141.041 15.2776 140.794 15.0354C140.547 14.7931 140.199 14.672 139.749 14.672C139.4 14.672 139.068 14.7251 138.751 14.8314C138.436 14.9376 138.136 15.063 137.852 15.2075L137.542 14.4042C137.842 14.2427 138.187 14.1046 138.576 13.9898C138.965 13.8751 139.374 13.8177 139.803 13.8177ZM141.152 17.477L140.138 17.5216C139.307 17.5556 138.721 17.698 138.381 17.9488C138.04 18.1995 137.871 18.5544 137.871 19.0134C137.871 19.4129 137.986 19.7082 138.217 19.8995C138.448 20.0908 138.754 20.1864 139.135 20.1864C139.726 20.1864 140.21 20.0142 140.588 19.6701C140.964 19.3258 141.152 18.8094 141.152 18.1209V17.477ZM146.38 20.1801C146.546 20.1801 146.716 20.1651 146.89 20.1354C147.064 20.1056 147.207 20.0695 147.316 20.027V20.8494C147.198 20.9047 147.034 20.9514 146.823 20.9896C146.617 21.0279 146.414 21.047 146.216 21.047C145.863 21.047 145.543 20.9833 145.256 20.8558C144.968 20.724 144.737 20.503 144.562 20.1928C144.392 19.8825 144.307 19.4532 144.307 18.905V14.7612H143.359V14.2448L144.313 13.8305L144.714 12.3132H145.322V13.9325H147.274V14.7612H145.322V18.8731C145.322 19.3109 145.417 19.6381 145.608 19.8549C145.803 20.0716 146.06 20.1801 146.38 20.1801ZM149.674 13.9325V20.9195H148.666V13.9325H149.674ZM149.182 11.3187C149.348 11.3187 149.489 11.3761 149.608 11.4908C149.729 11.6013 149.79 11.7756 149.79 12.0136C149.79 12.2473 149.729 12.4216 149.608 12.5364C149.489 12.6511 149.348 12.7085 149.182 12.7085C149.008 12.7085 148.862 12.6511 148.744 12.5364C148.631 12.4216 148.574 12.2473 148.574 12.0136C148.574 11.7756 148.631 11.6013 148.744 11.4908C148.862 11.3761 149.008 11.3187 149.182 11.3187ZM153.278 20.9195L150.75 13.9325H151.832L153.297 18.1591C153.398 18.4482 153.502 18.7669 153.607 19.1154C153.712 19.4639 153.785 19.7444 153.825 19.9569H153.868C153.917 19.7444 153.998 19.4639 154.112 19.1154C154.224 18.7627 154.328 18.4438 154.421 18.1591L155.886 13.9325H156.968L154.434 20.9195H153.278ZM160.602 13.8049C161.17 13.8049 161.656 13.9367 162.061 14.2002C162.467 14.4637 162.777 14.8335 162.992 15.3095C163.206 15.7812 163.314 16.3337 163.314 16.967V17.6236H158.713C158.724 18.4438 158.919 19.0687 159.296 19.4979C159.673 19.9272 160.203 20.1418 160.889 20.1418C161.31 20.1418 161.682 20.1014 162.007 20.0206C162.331 19.9399 162.667 19.8209 163.016 19.6636V20.5944C162.68 20.7517 162.345 20.8664 162.013 20.9386C161.685 21.0109 161.296 21.047 160.846 21.047C160.206 21.047 159.646 20.911 159.169 20.639C158.694 20.3628 158.325 19.959 158.062 19.4278C157.799 18.8965 157.667 18.2463 157.667 17.477C157.667 16.7248 157.787 16.0745 158.026 15.5262C158.268 14.9737 158.609 14.5487 159.046 14.2512C159.488 13.9537 160.007 13.8049 160.602 13.8049ZM160.591 14.672C160.052 14.672 159.622 14.8568 159.302 15.2266C158.982 15.5964 158.791 16.1128 158.731 16.7758H162.256C162.252 16.3593 162.189 15.9937 162.067 15.6792C161.95 15.3605 161.769 15.114 161.527 14.9398C161.283 14.7612 160.971 14.672 160.591 14.672ZM175.47 16.1701C175.47 17.2198 175.287 18.0975 174.923 18.803C174.558 19.5042 174.029 20.0334 173.337 20.3904C172.648 20.7432 171.811 20.9195 170.826 20.9195H168.413V11.5992H171.094C171.997 11.5992 172.775 11.7735 173.428 12.122C174.08 12.4662 174.582 12.9783 174.935 13.6584C175.292 14.3341 175.47 15.1713 175.47 16.1701ZM174.382 16.2084C174.382 15.3711 174.248 14.6805 173.981 14.1365C173.717 13.5924 173.328 13.1887 172.814 12.9252C172.303 12.6575 171.677 12.5236 170.936 12.5236H169.447V19.9888H170.705C171.929 19.9888 172.846 19.6722 173.458 19.0389C174.074 18.4057 174.382 17.4621 174.382 16.2084ZM178.302 13.9325V20.9195H177.293V13.9325H178.302ZM177.81 11.3187C177.976 11.3187 178.118 11.3761 178.235 11.4908C178.357 11.6013 178.418 11.7756 178.418 12.0136C178.418 12.2473 178.357 12.4216 178.235 12.5364C178.118 12.6511 177.976 12.7085 177.81 12.7085C177.636 12.7085 177.49 12.6511 177.372 12.5364C177.259 12.4216 177.202 12.2473 177.202 12.0136C177.202 11.7756 177.259 11.6013 177.372 11.4908C177.49 11.3761 177.636 11.3187 177.81 11.3187ZM183.007 13.8049C183.574 13.8049 184.06 13.9367 184.465 14.2002C184.871 14.4637 185.18 14.8335 185.396 15.3095C185.611 15.7812 185.718 16.3337 185.718 16.967V17.6236H181.117C181.129 18.4438 181.323 19.0687 181.7 19.4979C182.077 19.9272 182.608 20.1418 183.292 20.1418C183.714 20.1418 184.087 20.1014 184.411 20.0206C184.735 19.9399 185.071 19.8209 185.42 19.6636V20.5944C185.083 20.7517 184.749 20.8664 184.417 20.9386C184.089 21.0109 183.7 21.047 183.25 21.047C182.61 21.047 182.05 20.911 181.572 20.639C181.098 20.3628 180.729 19.959 180.466 19.4278C180.203 18.8965 180.071 18.2463 180.071 17.477C180.071 16.7248 180.19 16.0745 180.43 15.5262C180.673 14.9737 181.013 14.5487 181.451 14.2512C181.893 13.9537 182.411 13.8049 183.007 13.8049ZM182.995 14.672C182.456 14.672 182.026 14.8568 181.706 15.2266C181.386 15.5964 181.195 16.1128 181.135 16.7758H184.66C184.656 16.3593 184.593 15.9937 184.472 15.6792C184.354 15.3605 184.174 15.114 183.931 14.9398C183.687 14.7612 183.375 14.672 182.995 14.672ZM195.832 18.4396C195.832 18.9921 195.7 19.4639 195.437 19.8549C195.177 20.2417 194.813 20.537 194.343 20.741C193.872 20.945 193.319 21.047 192.683 21.047C192.347 21.047 192.029 21.03 191.729 20.9961C191.429 20.962 191.154 20.9132 190.903 20.8494C190.651 20.7856 190.43 20.707 190.24 20.6135V19.5744C190.544 19.7061 190.914 19.8294 191.352 19.9442C191.79 20.0546 192.248 20.1099 192.725 20.1099C193.171 20.1099 193.549 20.0483 193.856 19.925C194.164 19.7975 194.397 19.6169 194.555 19.3831C194.717 19.1451 194.798 18.8604 194.798 18.5289C194.798 18.2101 194.732 17.9445 194.598 17.732C194.464 17.5152 194.241 17.3197 193.929 17.1455C193.621 16.967 193.2 16.7779 192.665 16.5781C192.288 16.4379 191.956 16.2849 191.668 16.1191C191.38 15.9492 191.139 15.7579 190.945 15.5454C190.75 15.3328 190.602 15.0864 190.501 14.8058C190.404 14.5254 190.355 14.2045 190.355 13.8432C190.355 13.346 190.475 12.921 190.714 12.5682C190.957 12.2112 191.292 11.9392 191.716 11.7522C192.147 11.5609 192.638 11.4654 193.194 11.4654C193.668 11.4654 194.106 11.5121 194.506 11.6056C194.912 11.6991 195.283 11.8245 195.619 11.9817L195.297 12.9125C194.977 12.7722 194.636 12.6553 194.276 12.5618C193.919 12.4683 193.55 12.4216 193.17 12.4216C192.788 12.4216 192.466 12.4811 192.203 12.6001C191.944 12.7148 191.745 12.8784 191.607 13.0909C191.47 13.3035 191.401 13.5564 191.401 13.8496C191.401 14.1769 191.466 14.4488 191.595 14.6656C191.729 14.8824 191.94 15.0757 192.228 15.2458C192.519 15.4115 192.904 15.5857 193.382 15.7685C193.905 15.9682 194.348 16.1807 194.713 16.406C195.078 16.627 195.356 16.899 195.546 17.222C195.736 17.5408 195.832 17.9467 195.832 18.4396ZM200.062 13.8049C200.629 13.8049 201.115 13.9367 201.521 14.2002C201.926 14.4637 202.236 14.8335 202.451 15.3095C202.665 15.7812 202.773 16.3337 202.773 16.967V17.6236H198.171C198.184 18.4438 198.378 19.0687 198.755 19.4979C199.132 19.9272 199.663 20.1418 200.348 20.1418C200.769 20.1418 201.142 20.1014 201.466 20.0206C201.79 19.9399 202.127 19.8209 202.475 19.6636V20.5944C202.139 20.7517 201.805 20.8664 201.473 20.9386C201.144 21.0109 200.755 21.047 200.306 21.047C199.665 21.047 199.106 20.911 198.627 20.639C198.154 20.3628 197.785 19.959 197.521 19.4278C197.258 18.8965 197.127 18.2463 197.127 17.477C197.127 16.7248 197.246 16.0745 197.485 15.5262C197.728 14.9737 198.069 14.5487 198.506 14.2512C198.948 13.9537 199.466 13.8049 200.062 13.8049ZM200.05 14.672C199.511 14.672 199.082 14.8568 198.761 15.2266C198.441 15.5964 198.251 16.1128 198.19 16.7758H201.715C201.711 16.3593 201.648 15.9937 201.527 15.6792C201.41 15.3605 201.229 15.114 200.986 14.9398C200.743 14.7612 200.431 14.672 200.05 14.672ZM206.639 20.1801C206.805 20.1801 206.975 20.1651 207.149 20.1354C207.323 20.1056 207.466 20.0695 207.574 20.027V20.8494C207.457 20.9047 207.293 20.9514 207.082 20.9896C206.876 21.0279 206.673 21.047 206.474 21.047C206.122 21.047 205.802 20.9833 205.514 20.8558C205.226 20.724 204.995 20.503 204.821 20.1928C204.651 19.8825 204.566 19.4532 204.566 18.905V14.7612H203.618V14.2448L204.572 13.8305L204.974 12.3132H205.581V13.9325H207.532V14.7612H205.581V18.8731C205.581 19.3109 205.676 19.6381 205.867 19.8549C206.061 20.0716 206.319 20.1801 206.639 20.1801ZM0 35.8371V34.8936H3.01476V35.8371H0ZM11.7611 33.9883H14.8669V38.5083C14.4008 38.674 13.9208 38.7973 13.426 38.878C12.9359 38.9588 12.3866 38.9991 11.779 38.9991C10.8555 38.9991 10.0751 38.8058 9.43874 38.419C8.807 38.0323 8.32697 37.4819 7.99865 36.7679C7.67033 36.0496 7.50618 35.1975 7.50618 34.2115C7.50618 33.2467 7.68668 32.4052 8.04689 31.687C8.41178 30.9687 8.93693 30.4119 9.62157 30.0167C10.3101 29.6172 11.1371 29.4175 12.1011 29.4175C12.5959 29.4175 13.0635 29.4664 13.5054 29.5641C13.9512 29.6576 14.3643 29.7915 14.7455 29.9657L14.3503 30.9092C14.022 30.7605 13.6594 30.6329 13.2626 30.5267C12.869 30.4204 12.4621 30.3673 12.0404 30.3673C11.3153 30.3673 10.6929 30.5246 10.1747 30.839C9.65969 31.1536 9.26447 31.5977 8.98905 32.1715C8.71753 32.7452 8.58215 33.4252 8.58215 34.2115C8.58215 34.9892 8.70197 35.6671 8.94082 36.2451C9.17967 36.8189 9.55233 37.2651 10.0588 37.5839C10.5653 37.9026 11.218 38.062 12.0163 38.062C12.4177 38.062 12.7616 38.0387 13.0495 37.9919C13.3373 37.9409 13.5987 37.8814 13.8337 37.8134V34.9573H11.7611V33.9883ZM19.8935 31.7571C20.0274 31.7571 20.1666 31.7656 20.3129 31.7826C20.4592 31.7953 20.5883 31.8145 20.7019 31.84L20.5743 32.8217C20.4646 32.792 20.3432 32.7686 20.2094 32.7516C20.0756 32.7346 19.9503 32.7261 19.8329 32.7261C19.5652 32.7261 19.3124 32.7835 19.0728 32.8982C18.8378 33.0087 18.6316 33.1702 18.4527 33.3827C18.2745 33.5909 18.1353 33.8438 18.0333 34.1413C17.9322 34.4346 17.8816 34.7618 17.8816 35.1231V38.8716H16.8663V31.8846H17.705L17.8147 33.1723H17.8575C17.9952 32.9131 18.1609 32.6773 18.3554 32.4647C18.5499 32.248 18.7748 32.0759 19.0307 31.9483C19.2898 31.8209 19.5777 31.7571 19.8935 31.7571ZM24.4519 31.7699C25.2462 31.7699 25.8359 31.9568 26.221 32.3309C26.6062 32.7048 26.7983 33.302 26.7983 34.1222V38.8716H26.0631L25.8686 37.8389H25.8196C25.6337 38.0939 25.4392 38.3085 25.2361 38.4827C25.0338 38.6528 24.7989 38.7824 24.5312 38.8716C24.2675 38.9567 23.9438 38.9991 23.5587 38.9991C23.1534 38.9991 22.7932 38.9248 22.4765 38.776C22.1645 38.6272 21.9171 38.402 21.7351 38.1003C21.5569 37.7985 21.4674 37.416 21.4674 36.9527C21.4674 36.2558 21.7312 35.7202 22.2579 35.3462C22.7846 34.9723 23.5867 34.7683 24.665 34.7342L25.8134 34.6832V34.2561C25.8134 33.6526 25.6897 33.2297 25.443 32.9875C25.1956 32.7452 24.8471 32.6241 24.3974 32.6241C24.0489 32.6241 23.7167 32.6773 23.4008 32.7835C23.0841 32.8897 22.7846 33.0151 22.5006 33.1596L22.191 32.3563C22.4905 32.1948 22.8352 32.0567 23.2242 31.942C23.6132 31.8272 24.0224 31.7699 24.4519 31.7699ZM25.8017 35.4291L24.7864 35.4737C23.9555 35.5077 23.3705 35.6501 23.0297 35.9009C22.6897 36.1516 22.5193 36.5065 22.5193 36.9655C22.5193 37.365 22.6345 37.6604 22.8655 37.8516C23.0966 38.0429 23.4023 38.1385 23.7836 38.1385C24.3748 38.1385 24.8595 37.9664 25.2361 37.6222C25.6127 37.2779 25.8017 36.7615 25.8017 36.073V35.4291ZM31.0283 38.1322C31.1948 38.1322 31.3652 38.1172 31.5395 38.0875C31.7138 38.0578 31.8554 38.0216 31.9651 37.9791V38.8015C31.8476 38.8568 31.6834 38.9035 31.4726 38.9417C31.2656 38.98 31.0633 38.9991 30.8642 38.9991C30.5117 38.9991 30.192 38.9354 29.9041 38.8079C29.6163 38.6761 29.3852 38.4551 29.2117 38.1449C29.0413 37.8347 28.9557 37.4054 28.9557 36.8571V32.7133H28.0081V32.197L28.962 31.7826L29.3634 30.2653H29.971V31.8846H31.9223V32.7133H29.971V36.8253C29.971 37.263 30.0659 37.5903 30.2566 37.807C30.4511 38.0237 30.7086 38.1322 31.0283 38.1322ZM35.8792 31.7571C36.4463 31.7571 36.9326 31.8888 37.3379 32.1523C37.7433 32.4158 38.0529 32.7856 38.2677 33.2616C38.4824 33.7333 38.5898 34.2859 38.5898 34.9191V35.5757H33.9886C34.0011 36.396 34.1956 37.0208 34.5721 37.45C34.9487 37.8793 35.4801 38.0939 36.1647 38.0939C36.5864 38.0939 36.9591 38.0535 37.2827 37.9727C37.6071 37.892 37.9432 37.773 38.2918 37.6157V38.5465C37.9557 38.7038 37.6211 38.8185 37.2889 38.8907C36.9606 38.963 36.5716 38.9991 36.1219 38.9991C35.4816 38.9991 34.923 38.8632 34.4445 38.5911C33.9707 38.3149 33.602 37.9111 33.3382 37.3799C33.0753 36.8486 32.943 36.1984 32.943 35.4291C32.943 34.6769 33.0628 34.0266 33.3017 33.4783C33.5452 32.9258 33.8852 32.5008 34.3232 32.2033C34.7651 31.9058 35.2832 31.7571 35.8792 31.7571ZM35.8667 32.6241C35.3276 32.6241 34.8981 32.809 34.5784 33.1787C34.2578 33.5485 34.068 34.0649 34.0073 34.7279H37.5324C37.5286 34.3114 37.4655 33.9458 37.3442 33.6313C37.2267 33.3126 37.0462 33.0661 36.8027 32.8919C36.5599 32.7133 36.248 32.6241 35.8667 32.6241ZM43.2702 32.7133H41.6107V38.8716H40.6017V32.7133H39.4222V32.2033L40.6017 31.8527V31.3873C40.6017 30.8009 40.6849 30.3248 40.8506 29.9593C41.0171 29.5896 41.2583 29.3176 41.5742 29.1433C41.89 28.9691 42.2751 28.8819 42.7287 28.8819C42.9847 28.8819 43.2173 28.9054 43.4282 28.9521C43.6429 28.9988 43.8312 29.0519 43.9938 29.1115L43.7324 29.9466C43.5939 29.8998 43.4383 29.8573 43.264 29.819C43.0936 29.7766 42.9193 29.7553 42.7412 29.7553C42.3561 29.7553 42.0705 29.8871 41.8846 30.1506C41.7018 30.4098 41.6107 30.8178 41.6107 31.3746V31.8846H43.2702V32.7133ZM49.9984 31.8846V38.8716H49.1721L49.0259 37.8899H48.9714C48.8337 38.1322 48.6556 38.3362 48.4362 38.5019C48.2175 38.6676 47.9701 38.7909 47.6947 38.8716C47.4232 38.9567 47.1338 38.9991 46.8257 38.9991C46.299 38.9991 45.8571 38.9099 45.5008 38.7314C45.1444 38.5529 44.8745 38.2766 44.6924 37.9026C44.5142 37.5287 44.4248 37.0484 44.4248 36.4619V31.8846H45.4463V36.3853C45.4463 36.9676 45.5716 37.4032 45.8228 37.6923C46.0741 37.977 46.4569 38.1194 46.972 38.1194C47.466 38.1194 47.8589 38.0216 48.1506 37.8262C48.4463 37.6307 48.6595 37.3437 48.7894 36.9655C48.9185 36.583 48.9839 36.1155 48.9839 35.563V31.8846H49.9984ZM53.147 38.8716H52.1317V28.9521H53.147V38.8716ZM61.3954 38.8716H60.3559V30.5076H57.5598V29.5513H64.1791V30.5076H61.3954V38.8716ZM66.3793 28.9521V31.9165C66.3793 32.0865 66.3754 32.2586 66.3668 32.4329C66.359 32.6028 66.345 32.7601 66.3248 32.9046H66.3917C66.5294 32.6581 66.7037 32.452 66.9137 32.2862C67.1285 32.1163 67.372 31.9887 67.6435 31.9037C67.915 31.8145 68.2029 31.7699 68.5063 31.7699C69.0416 31.7699 69.4874 31.8591 69.8437 32.0376C70.2047 32.2161 70.4739 32.4924 70.6521 32.8663C70.8349 33.2404 70.9259 33.7248 70.9259 34.3199V38.8716H69.9285V34.39C69.9285 33.8078 69.8009 33.3721 69.5457 33.0831C69.2944 32.7941 68.9078 32.6496 68.3849 32.6496C67.8909 32.6496 67.4957 32.7495 67.2001 32.9492C66.9083 33.1447 66.6975 33.4337 66.5675 33.8162C66.4423 34.1987 66.3793 34.6663 66.3793 35.2187V38.8716H65.3702V28.9521H66.3793ZM75.4967 31.7699C76.291 31.7699 76.88 31.9568 77.2651 32.3309C77.6502 32.7048 77.8424 33.302 77.8424 34.1222V38.8716H77.1071L76.9126 37.8389H76.8644C76.6777 38.0939 76.4832 38.3085 76.2809 38.4827C76.0778 38.6528 75.8429 38.7824 75.5753 38.8716C75.3123 38.9567 74.9879 38.9991 74.6028 38.9991C74.1974 38.9991 73.8372 38.9248 73.5213 38.776C73.2094 38.6272 72.9619 38.402 72.7799 38.1003C72.601 37.7985 72.5123 37.416 72.5123 36.9527C72.5123 36.2558 72.7752 35.7202 73.3019 35.3462C73.8286 34.9723 74.6315 34.7683 75.7091 34.7342L76.8582 34.6832V34.2561C76.8582 33.6526 76.7345 33.2297 76.4871 32.9875C76.2397 32.7452 75.8919 32.6241 75.4414 32.6241C75.0929 32.6241 74.7607 32.6773 74.4448 32.7835C74.129 32.8897 73.8286 33.0151 73.5454 33.1596L73.235 32.3563C73.5353 32.1948 73.88 32.0567 74.269 31.942C74.658 31.8272 75.0672 31.7699 75.4967 31.7699ZM76.8457 35.4291L75.8304 35.4737C75.0003 35.5077 74.4145 35.6501 74.0745 35.9009C73.7337 36.1516 73.5633 36.5065 73.5633 36.9655C73.5633 37.365 73.6793 37.6604 73.9103 37.8516C74.1414 38.0429 74.4472 38.1385 74.8276 38.1385C75.4197 38.1385 75.9036 37.9664 76.2809 37.6222C76.6575 37.2779 76.8457 36.7615 76.8457 36.073V35.4291ZM83.076 31.7571C83.8664 31.7571 84.4639 31.9611 84.8693 32.3691C85.2739 32.7728 85.4769 33.4231 85.4769 34.3199V38.8716H84.4803V34.39C84.4803 33.8078 84.3519 33.3721 84.0967 33.0831C83.8454 32.7941 83.4588 32.6496 82.936 32.6496C82.1984 32.6496 81.6803 32.8684 81.3799 33.3062C81.0804 33.7439 80.9303 34.3794 80.9303 35.2123V38.8716H79.9212V31.8846H80.7358L80.8875 32.8919H80.9427C81.0843 32.6454 81.2648 32.4392 81.4834 32.2735C81.702 32.1034 81.9471 31.976 82.2186 31.891C82.4902 31.8017 82.7757 31.7571 83.076 31.7571ZM88.5586 28.9521V34.1031C88.5586 34.2731 88.5524 34.4814 88.5399 34.7279C88.5282 34.9702 88.5181 35.1848 88.5096 35.3717H88.5524C88.6372 35.2612 88.7609 35.0976 88.9235 34.8809C89.0892 34.6642 89.2292 34.4899 89.3428 34.3581L91.5547 31.8846H92.7403L90.0593 34.8682L92.9348 38.8716H91.7188L89.3669 35.563L88.5586 36.3407V38.8716H87.5557V28.9521H88.5586ZM97.0614 32.7133H95.4027V38.8716H94.3936V32.7133H93.2142V32.2033L94.3936 31.8527V31.3873C94.3936 30.8009 94.4769 30.3248 94.6426 29.9593C94.8091 29.5896 95.0495 29.3176 95.3661 29.1433C95.682 28.9691 96.0671 28.8819 96.5207 28.8819C96.7759 28.8819 97.0093 28.9054 97.2201 28.9521C97.4348 28.9988 97.6231 29.0519 97.7849 29.1115L97.5235 29.9466C97.3858 29.8998 97.2302 29.8573 97.0559 29.819C96.8856 29.7766 96.7113 29.7553 96.5331 29.7553C96.148 29.7553 95.8625 29.8871 95.6758 30.1506C95.4937 30.4098 95.4027 30.8178 95.4027 31.3746V31.8846H97.0614V32.7133ZM103.79 31.8846V38.8716H102.963L102.818 37.8899H102.763C102.625 38.1322 102.447 38.3362 102.228 38.5019C102.009 38.6676 101.762 38.7909 101.487 38.8716C101.215 38.9567 100.926 38.9991 100.618 38.9991C100.091 38.9991 99.649 38.9099 99.2927 38.7314C98.9356 38.5529 98.6664 38.2766 98.4844 37.9026C98.3054 37.5287 98.2167 37.0484 98.2167 36.4619V31.8846H99.2375V36.3853C99.2375 36.9676 99.3635 37.4032 99.6148 37.6923C99.8661 37.977 100.249 38.1194 100.763 38.1194C101.258 38.1194 101.651 38.0216 101.943 37.8262C102.238 37.6307 102.451 37.3437 102.581 36.9655C102.71 36.583 102.775 36.1155 102.775 35.563V31.8846H103.79ZM106.939 38.8716H105.924V28.9521H106.939V38.8716ZM112.458 29.5513H114.974C116.084 29.5513 116.919 29.7256 117.479 30.0741C118.037 30.4226 118.317 31.0155 118.317 31.8527C118.317 32.2139 118.25 32.5391 118.116 32.8281C117.987 33.1128 117.796 33.3487 117.545 33.5357C117.294 33.7227 116.984 33.8524 116.615 33.9246V33.9883C117.004 34.0521 117.349 34.169 117.648 34.339C117.948 34.5089 118.183 34.747 118.354 35.053C118.523 35.359 118.609 35.7479 118.609 36.2196C118.609 36.7934 118.481 37.2779 118.226 37.6731C117.975 38.0684 117.618 38.368 117.156 38.572C116.694 38.7718 116.147 38.8716 115.515 38.8716H112.458V29.5513ZM113.491 33.5485H115.193C115.967 33.5485 116.501 33.4146 116.798 33.1469C117.097 32.8791 117.247 32.4881 117.247 31.9739C117.247 31.4426 117.069 31.0601 116.712 30.8263C116.36 30.5926 115.796 30.4757 115.022 30.4757H113.491V33.5485ZM113.491 34.4601V37.9473H115.339C116.129 37.9473 116.688 37.7858 117.016 37.4627C117.345 37.1355 117.509 36.6956 117.509 36.1431C117.509 35.7904 117.433 35.4886 117.284 35.2379C117.138 34.9871 116.899 34.7959 116.567 34.6641C116.238 34.5281 115.799 34.4601 115.247 34.4601H113.491ZM121.369 38.8716H120.353V28.9521H121.369V38.8716ZM126.067 31.7571C126.634 31.7571 127.12 31.8888 127.526 32.1523C127.931 32.4158 128.241 32.7856 128.455 33.2616C128.67 33.7333 128.777 34.2859 128.777 34.9191V35.5757H124.176C124.189 36.396 124.383 37.0208 124.76 37.45C125.136 37.8793 125.668 38.0939 126.352 38.0939C126.774 38.0939 127.147 38.0535 127.47 37.9727C127.795 37.892 128.131 37.773 128.48 37.6157V38.5465C128.143 38.7038 127.809 38.8185 127.477 38.8907C127.148 38.963 126.759 38.9991 126.31 38.9991C125.669 38.9991 125.111 38.8632 124.632 38.5911C124.158 38.3149 123.79 37.9111 123.526 37.3799C123.263 36.8486 123.131 36.1984 123.131 35.4291C123.131 34.6769 123.251 34.0266 123.489 33.4783C123.733 32.9258 124.073 32.5008 124.511 32.2033C124.952 31.9058 125.471 31.7571 126.067 31.7571ZM126.054 32.6241C125.515 32.6241 125.086 32.809 124.766 33.1787C124.446 33.5485 124.256 34.0649 124.194 34.7279H127.72C127.715 34.3114 127.653 33.9458 127.531 33.6313C127.414 33.3126 127.234 33.0661 126.99 32.8919C126.748 32.7133 126.436 32.6241 126.054 32.6241ZM134.801 36.9591C134.801 37.4054 134.693 37.7815 134.479 38.0875C134.268 38.3893 133.964 38.6166 133.567 38.7696C133.174 38.9226 132.704 38.9991 132.157 38.9991C131.691 38.9991 131.288 38.9609 130.947 38.8844C130.607 38.8079 130.309 38.6995 130.054 38.5593V37.5839C130.326 37.7242 130.649 37.8516 131.027 37.9664C131.403 38.0811 131.788 38.1385 132.181 38.1385C132.757 38.1385 133.174 38.0408 133.433 37.8453C133.693 37.6497 133.822 37.3841 133.822 37.0484C133.822 36.8571 133.77 36.6892 133.664 36.5447C133.563 36.396 133.391 36.2536 133.148 36.1176C132.905 35.9773 132.568 35.8243 132.138 35.6586C131.714 35.4886 131.345 35.3207 131.032 35.155C130.725 34.985 130.485 34.7789 130.316 34.5366C130.149 34.2943 130.066 33.9798 130.066 33.5931C130.066 33.0024 130.293 32.5497 130.747 32.2352C131.205 31.9165 131.805 31.7571 132.546 31.7571C132.947 31.7571 133.322 31.7996 133.67 31.8846C134.023 31.9654 134.351 32.0759 134.655 32.2161L134.315 33.064C134.039 32.9407 133.745 32.8366 133.433 32.7516C133.121 32.6666 132.804 32.6241 132.479 32.6241C132.013 32.6241 131.655 32.7048 131.403 32.8663C131.156 33.0278 131.032 33.2489 131.032 33.5293C131.032 33.7461 131.089 33.9246 131.203 34.0649C131.32 34.2051 131.507 34.3369 131.762 34.4601C132.017 34.5834 132.353 34.7279 132.771 34.8936C133.188 35.0551 133.549 35.2229 133.853 35.3972C134.157 35.5672 134.39 35.7755 134.552 36.022C134.718 36.2643 134.801 36.5766 134.801 36.9591ZM140.733 36.9591C140.733 37.4054 140.626 37.7815 140.411 38.0875C140.2 38.3893 139.897 38.6166 139.499 38.7696C139.106 38.9226 138.636 38.9991 138.089 38.9991C137.623 38.9991 137.22 38.9609 136.88 38.8844C136.54 38.8079 136.242 38.6995 135.986 38.5593V37.5839C136.258 37.7242 136.582 37.8516 136.959 37.9664C137.336 38.0811 137.721 38.1385 138.114 38.1385C138.689 38.1385 139.106 38.0408 139.365 37.8453C139.625 37.6497 139.754 37.3841 139.754 37.0484C139.754 36.8571 139.702 36.6892 139.596 36.5447C139.495 36.396 139.323 36.2536 139.08 36.1176C138.837 35.9773 138.5 35.8243 138.071 35.6586C137.645 35.4886 137.277 35.3207 136.965 35.155C136.657 34.985 136.417 34.7789 136.248 34.5366C136.081 34.2943 135.998 33.9798 135.998 33.5931C135.998 33.0024 136.225 32.5497 136.679 32.2352C137.137 31.9165 137.737 31.7571 138.478 31.7571C138.879 31.7571 139.254 31.7996 139.603 31.8846C139.955 31.9654 140.283 32.0759 140.588 32.2161L140.247 33.064C139.971 32.9407 139.677 32.8366 139.365 32.7516C139.053 32.6666 138.736 32.6241 138.411 32.6241C137.945 32.6241 137.587 32.7048 137.336 32.8663C137.088 33.0278 136.965 33.2489 136.965 33.5293C136.965 33.7461 137.021 33.9246 137.135 34.0649C137.252 34.2051 137.439 34.3369 137.694 34.4601C137.949 34.5834 138.285 34.7279 138.703 34.8936C139.12 35.0551 139.481 35.2229 139.785 35.3972C140.089 35.5672 140.322 35.7755 140.484 36.022C140.65 36.2643 140.733 36.5766 140.733 36.9591ZM144.921 31.7571C145.488 31.7571 145.974 31.8888 146.38 32.1523C146.785 32.4158 147.095 32.7856 147.31 33.2616C147.524 33.7333 147.632 34.2859 147.632 34.9191V35.5757H143.031C143.043 36.396 143.237 37.0208 143.614 37.45C143.991 37.8793 144.522 38.0939 145.207 38.0939C145.628 38.0939 146.001 38.0535 146.325 37.9727C146.649 37.892 146.986 37.773 147.334 37.6157V38.5465C146.998 38.7038 146.664 38.8185 146.332 38.8907C146.003 38.963 145.614 38.9991 145.165 38.9991C144.524 38.9991 143.965 38.8632 143.486 38.5911C143.013 38.3149 142.644 37.9111 142.38 37.3799C142.117 36.8486 141.986 36.1984 141.986 35.4291C141.986 34.6769 142.105 34.0266 142.344 33.4783C142.587 32.9258 142.928 32.5008 143.365 32.2033C143.807 31.9058 144.325 31.7571 144.921 31.7571ZM144.909 32.6241C144.37 32.6241 143.941 32.809 143.62 33.1787C143.3 33.5485 143.11 34.0649 143.049 34.7279H146.574C146.57 34.3114 146.507 33.9458 146.386 33.6313C146.269 33.3126 146.088 33.0661 145.845 32.8919C145.602 32.7133 145.29 32.6241 144.909 32.6241ZM151.716 38.9991C150.874 38.9991 150.205 38.6974 149.71 38.0939C149.22 37.4904 148.975 36.5936 148.975 35.4036C148.975 34.2008 149.227 33.2935 149.729 32.6815C150.232 32.0653 150.9 31.7571 151.735 31.7571C152.087 31.7571 152.395 31.8059 152.658 31.9037C152.922 32.0014 153.149 32.1332 153.339 32.299C153.53 32.4604 153.69 32.6454 153.82 32.8536H153.892C153.876 32.7218 153.86 32.5412 153.844 32.3117C153.828 32.0822 153.82 31.8952 153.82 31.7507V28.9521H154.828V38.8716H154.014L153.862 37.8771H153.82C153.694 38.0854 153.534 38.2745 153.339 38.4445C153.149 38.6145 152.92 38.7505 152.653 38.8525C152.389 38.9503 152.077 38.9991 151.716 38.9991ZM151.875 38.1194C152.587 38.1194 153.092 37.9069 153.388 37.4819C153.684 37.0568 153.832 36.4257 153.832 35.5885V35.3972C153.832 34.5089 153.69 33.8268 153.406 33.3509C153.127 32.8748 152.616 32.6369 151.875 32.6369C151.255 32.6369 150.79 32.8876 150.482 33.3891C150.175 33.8863 150.021 34.5664 150.021 35.4291C150.021 36.2876 150.173 36.9506 150.477 37.4182C150.785 37.8857 151.25 38.1194 151.875 38.1194Z" fill="#909090"/>
<path d="M297.035 21.2158V19.9507C296.595 19.9426 296.174 19.9025 295.771 19.8302C295.373 19.7579 295.048 19.6635 294.795 19.547V18.571C295.059 18.6996 295.398 18.812 295.812 18.9084C296.225 19.0048 296.633 19.057 297.035 19.065V16.4142C296.529 16.2656 296.11 16.097 295.777 15.9082C295.448 15.7154 295.201 15.4804 295.036 15.2033C294.871 14.9261 294.789 14.5908 294.789 14.1972C294.789 13.7875 294.881 13.4381 295.065 13.1489C295.252 12.8557 295.515 12.6268 295.852 12.4621C296.189 12.2974 296.583 12.2031 297.035 12.1789V11.1367H297.736V12.1669C298.145 12.1789 298.519 12.2271 298.856 12.3115C299.193 12.3918 299.505 12.4963 299.792 12.6248L299.494 13.4622C299.233 13.3538 298.952 13.2614 298.649 13.185C298.347 13.1088 298.042 13.0566 297.736 13.0284V15.6612C298.249 15.8178 298.678 15.9845 299.023 16.1612C299.371 16.3379 299.634 16.5568 299.809 16.8179C299.986 17.0789 300.074 17.4163 300.074 17.83C300.074 18.4164 299.869 18.8904 299.459 19.2518C299.049 19.6093 298.475 19.8262 297.736 19.9025V21.2158H297.035ZM297.736 19.0108C298.207 18.9626 298.557 18.8442 298.787 18.6554C299.02 18.4626 299.137 18.2095 299.137 17.8963C299.137 17.6713 299.092 17.4866 299 17.342C298.912 17.1975 298.766 17.0729 298.563 16.9685C298.36 16.86 298.084 16.7576 297.736 16.6612V19.0108ZM297.035 15.4081V13.0526C296.748 13.0726 296.507 13.1288 296.311 13.2212C296.116 13.3136 295.968 13.434 295.869 13.5826C295.774 13.7313 295.726 13.908 295.726 14.1129C295.726 14.3498 295.768 14.5487 295.852 14.7093C295.94 14.8659 296.079 15.0005 296.271 15.1129C296.466 15.2213 296.721 15.3198 297.035 15.4081ZM306.92 16.0829C306.92 16.7978 306.869 17.4364 306.765 17.9987C306.662 18.561 306.499 19.037 306.277 19.4265C306.055 19.8161 305.768 20.1133 305.415 20.3181C305.063 20.519 304.64 20.6194 304.146 20.6194C303.522 20.6194 303.005 20.4407 302.595 20.0832C302.189 19.7257 301.885 19.2096 301.682 18.5349C301.483 17.8561 301.383 17.0388 301.383 16.0829C301.383 15.1431 301.473 14.3357 301.653 13.661C301.837 12.9822 302.132 12.4621 302.538 12.1007C302.944 11.7351 303.48 11.5524 304.146 11.5524C304.778 11.5524 305.298 11.7331 305.709 12.0946C306.118 12.4521 306.423 12.9702 306.622 13.649C306.821 14.3237 306.92 15.135 306.92 16.0829ZM302.343 16.0829C302.343 16.9022 302.402 17.585 302.521 18.1313C302.639 18.6775 302.831 19.0872 303.095 19.3602C303.363 19.6294 303.713 19.7639 304.146 19.7639C304.579 19.7639 304.927 19.6294 305.192 19.3602C305.46 19.0912 305.653 18.6835 305.772 18.1373C305.894 17.5911 305.956 16.9062 305.956 16.0829C305.956 15.2756 305.896 14.6009 305.778 14.0586C305.659 13.5124 305.468 13.1028 305.203 12.8296C304.939 12.5525 304.587 12.4139 304.146 12.4139C303.706 12.4139 303.354 12.5525 303.089 12.8296C302.825 13.1028 302.633 13.5124 302.515 14.0586C302.4 14.6009 302.343 15.2756 302.343 16.0829ZM308.385 19.8723C308.385 19.5912 308.45 19.3924 308.581 19.2759C308.711 19.1554 308.87 19.0952 309.057 19.0952C309.253 19.0952 309.417 19.1554 309.551 19.2759C309.686 19.3924 309.753 19.5912 309.753 19.8723C309.753 20.1495 309.686 20.3523 309.551 20.4809C309.417 20.6053 309.253 20.6676 309.057 20.6676C308.87 20.6676 308.711 20.6053 308.581 20.4809C308.45 20.3523 308.385 20.1495 308.385 19.8723ZM316.743 16.0829C316.743 16.7978 316.691 17.4364 316.588 17.9987C316.484 18.561 316.322 19.037 316.1 19.4265C315.877 19.8161 315.59 20.1133 315.238 20.3181C314.886 20.519 314.462 20.6194 313.968 20.6194C313.344 20.6194 312.827 20.4407 312.418 20.0832C312.012 19.7257 311.708 19.2096 311.505 18.5349C311.305 17.8561 311.205 17.0388 311.205 16.0829C311.205 15.1431 311.296 14.3357 311.476 13.661C311.66 12.9822 311.955 12.4621 312.36 12.1007C312.766 11.7351 313.302 11.5524 313.968 11.5524C314.601 11.5524 315.121 11.7331 315.531 12.0946C315.94 12.4521 316.245 12.9702 316.444 13.649C316.643 14.3237 316.743 15.135 316.743 16.0829ZM312.165 16.0829C312.165 16.9022 312.224 17.585 312.343 18.1313C312.462 18.6775 312.653 19.0872 312.917 19.3602C313.185 19.6294 313.536 19.7639 313.968 19.7639C314.401 19.7639 314.75 19.6294 315.014 19.3602C315.282 19.0912 315.476 18.6835 315.594 18.1373C315.717 17.5911 315.778 16.9062 315.778 16.0829C315.778 15.2756 315.718 14.6009 315.6 14.0586C315.481 13.5124 315.29 13.1028 315.026 12.8296C314.761 12.5525 314.409 12.4139 313.968 12.4139C313.528 12.4139 313.176 12.5525 312.912 12.8296C312.647 13.1028 312.456 13.5124 312.337 14.0586C312.222 14.6009 312.165 15.2756 312.165 16.0829ZM323.475 16.0829C323.475 16.7978 323.423 17.4364 323.32 17.9987C323.216 18.561 323.054 19.037 322.832 19.4265C322.61 19.8161 322.322 20.1133 321.97 20.3181C321.618 20.519 321.194 20.6194 320.7 20.6194C320.076 20.6194 319.559 20.4407 319.15 20.0832C318.744 19.7257 318.439 19.2096 318.236 18.5349C318.037 17.8561 317.938 17.0388 317.938 16.0829C317.938 15.1431 318.028 14.3357 318.208 13.661C318.392 12.9822 318.686 12.4621 319.092 12.1007C319.498 11.7351 320.034 11.5524 320.7 11.5524C321.332 11.5524 321.853 11.7331 322.263 12.0946C322.673 12.4521 322.977 12.9702 323.176 13.649C323.375 14.3237 323.475 15.135 323.475 16.0829ZM318.897 16.0829C318.897 16.9022 318.956 17.585 319.075 18.1313C319.194 18.6775 319.385 19.0872 319.65 19.3602C319.917 19.6294 320.268 19.7639 320.7 19.7639C321.133 19.7639 321.482 19.6294 321.746 19.3602C322.014 19.0912 322.207 18.6835 322.326 18.1373C322.449 17.5911 322.51 16.9062 322.51 16.0829C322.51 15.2756 322.451 14.6009 322.332 14.0586C322.213 13.5124 322.021 13.1028 321.757 12.8296C321.493 12.5525 321.141 12.4139 320.7 12.4139C320.26 12.4139 319.908 12.5525 319.644 12.8296C319.38 13.1028 319.188 13.5124 319.069 14.0586C318.954 14.6009 318.897 15.2756 318.897 16.0829Z" fill="#7E7E7E"/>
<path d="M294.457 38.8632V37.7561C294.072 37.7491 293.704 37.7139 293.352 37.6507C293.003 37.5875 292.719 37.5049 292.497 37.4029V36.549C292.728 36.6614 293.025 36.7598 293.387 36.8441C293.749 36.9285 294.105 36.9742 294.457 36.9812V34.6617C294.015 34.5317 293.648 34.3841 293.357 34.2189C293.069 34.0503 292.852 33.8447 292.708 33.6022C292.564 33.3597 292.492 33.0662 292.492 32.7218C292.492 32.3634 292.573 32.0576 292.733 31.8046C292.898 31.5481 293.127 31.3477 293.422 31.2037C293.717 31.0595 294.062 30.977 294.457 30.9559V30.0439H295.071V30.9453C295.429 30.9559 295.756 30.9981 296.051 31.0719C296.346 31.1421 296.618 31.2335 296.87 31.3459L296.609 32.0787C296.381 31.9838 296.135 31.903 295.87 31.8362C295.605 31.7695 295.339 31.7237 295.071 31.6991V34.0028C295.52 34.1399 295.895 34.2857 296.196 34.4403C296.501 34.5949 296.731 34.7865 296.885 35.0149C297.039 35.2434 297.116 35.5386 297.116 35.9006C297.116 36.4136 296.937 36.8283 296.579 37.1447C296.22 37.4574 295.718 37.6472 295.071 37.7139V38.8632H294.457ZM295.071 36.9338C295.483 36.8916 295.79 36.7879 295.99 36.6228C296.195 36.4541 296.297 36.2326 296.297 35.9586C296.297 35.7618 296.257 35.6001 296.176 35.4736C296.099 35.347 295.972 35.2381 295.794 35.1467C295.617 35.0518 295.376 34.9622 295.071 34.8779V36.9338ZM294.457 33.7814V31.7203C294.206 31.7378 293.995 31.787 293.824 31.8679C293.653 31.9487 293.524 32.0541 293.437 32.1841C293.353 32.3142 293.311 32.4688 293.311 32.648C293.311 32.8554 293.349 33.0294 293.422 33.1699C293.499 33.307 293.621 33.4247 293.789 33.5231C293.96 33.618 294.182 33.7041 294.457 33.7814ZM301.358 38.2358H300.544V32.7746C300.544 32.5672 300.544 32.3897 300.544 32.2421C300.547 32.091 300.55 31.9539 300.554 31.8309C300.561 31.7045 300.569 31.5761 300.579 31.4461C300.475 31.5586 300.378 31.6553 300.288 31.7361C300.197 31.8133 300.085 31.91 299.951 32.026L299.111 32.7324L298.674 32.1367L300.664 30.5289H301.358V38.2358ZM306.465 33.5231C306.964 33.5231 307.398 33.6127 307.767 33.792C308.135 33.9677 308.42 34.2243 308.621 34.5616C308.825 34.899 308.928 35.3084 308.928 35.7898C308.928 36.317 308.819 36.7721 308.6 37.1551C308.383 37.5347 308.07 37.8282 307.661 38.0355C307.252 38.2394 306.763 38.3413 306.193 38.3413C305.811 38.3413 305.456 38.3061 305.128 38.2358C304.799 38.1656 304.523 38.0601 304.299 37.9195V37.0867C304.543 37.2413 304.84 37.3643 305.188 37.4557C305.537 37.547 305.875 37.5927 306.204 37.5927C306.575 37.5927 306.901 37.5312 307.178 37.4082C307.46 37.2817 307.678 37.0919 307.831 36.8389C307.989 36.5823 308.068 36.2608 308.068 35.8742C308.068 35.3611 307.917 34.9657 307.616 34.6881C307.317 34.4069 306.845 34.2664 306.198 34.2664C305.99 34.2664 305.762 34.2839 305.515 34.3191C305.267 34.3543 305.062 34.3929 304.901 34.4351L304.479 34.1451L304.761 30.5289H308.414V31.3301H305.474L305.288 33.6549C305.416 33.6268 305.58 33.5987 305.781 33.5706C305.982 33.5389 306.21 33.5231 306.465 33.5231ZM310.28 37.6876C310.28 37.4416 310.336 37.2677 310.45 37.1657C310.564 37.0603 310.703 37.0076 310.867 37.0076C311.038 37.0076 311.183 37.0603 311.299 37.1657C311.417 37.2677 311.476 37.4416 311.476 37.6876C311.476 37.9301 311.417 38.1076 311.299 38.22C311.183 38.329 311.038 38.3834 310.867 38.3834C310.703 38.3834 310.564 38.329 310.45 38.22C310.336 38.1076 310.28 37.9301 310.28 37.6876ZM317.562 33.813C317.562 34.2805 317.531 34.7355 317.467 35.1784C317.406 35.6212 317.3 36.0341 317.15 36.4172C317.003 36.8002 316.801 37.1359 316.547 37.424C316.292 37.7122 315.972 37.9389 315.587 38.104C315.205 38.2657 314.748 38.3466 314.215 38.3466C314.071 38.3466 313.907 38.336 313.722 38.3149C313.538 38.2974 313.387 38.271 313.27 38.2358V37.4767C313.394 37.5224 313.54 37.5593 313.707 37.5875C313.875 37.6121 314.039 37.6243 314.2 37.6243C314.826 37.6243 315.319 37.4837 315.677 37.2027C316.036 36.9179 316.294 36.5331 316.451 36.0482C316.609 35.5596 316.698 35.0114 316.717 34.4035H316.657C316.557 34.5721 316.425 34.7285 316.26 34.8726C316.1 35.0132 315.903 35.1274 315.673 35.2153C315.441 35.2996 315.171 35.3418 314.863 35.3418C314.437 35.3418 314.065 35.2504 313.747 35.0677C313.432 34.8849 313.186 34.6195 313.008 34.2717C312.834 33.9237 312.747 33.5038 312.747 33.0118C312.747 32.4811 312.843 32.0225 313.034 31.6359C313.228 31.2458 313.499 30.9453 313.848 30.7345C314.196 30.5236 314.607 30.4182 315.079 30.4182C315.441 30.4182 315.773 30.4902 316.074 30.6343C316.376 30.7784 316.637 30.9945 316.859 31.2827C317.083 31.5673 317.256 31.9205 317.376 32.3423C317.5 32.764 317.562 33.2542 317.562 33.813ZM315.079 31.1615C314.634 31.1615 314.272 31.3143 313.993 31.6201C313.719 31.9259 313.582 32.3862 313.582 33.0012C313.582 33.5108 313.701 33.9132 313.938 34.2084C314.176 34.5036 314.543 34.6512 315.039 34.6512C315.381 34.6512 315.676 34.5791 315.923 34.4351C316.175 34.291 316.367 34.1083 316.501 33.8869C316.639 33.6654 316.708 33.4388 316.708 33.2068C316.708 32.9748 316.674 32.7394 316.607 32.5004C316.543 32.2615 316.445 32.0418 316.311 31.8415C316.176 31.6377 316.007 31.4743 315.803 31.3513C315.598 31.2247 315.357 31.1615 315.079 31.1615ZM323.453 33.813C323.453 34.2805 323.421 34.7355 323.357 35.1784C323.297 35.6212 323.191 36.0341 323.04 36.4172C322.893 36.8002 322.692 37.1359 322.438 37.424C322.182 37.7122 321.863 37.9389 321.477 38.104C321.095 38.2657 320.638 38.3466 320.105 38.3466C319.961 38.3466 319.797 38.336 319.613 38.3149C319.428 38.2974 319.277 38.271 319.161 38.2358V37.4767C319.284 37.5224 319.43 37.5593 319.597 37.5875C319.765 37.6121 319.93 37.6243 320.09 37.6243C320.717 37.6243 321.209 37.4837 321.568 37.2027C321.927 36.9179 322.185 36.5331 322.342 36.0482C322.499 35.5596 322.588 35.0114 322.608 34.4035H322.548C322.447 34.5721 322.315 34.7285 322.151 34.8726C321.99 35.0132 321.794 35.1274 321.563 35.2153C321.332 35.2996 321.062 35.3418 320.754 35.3418C320.328 35.3418 319.956 35.2504 319.638 35.0677C319.323 34.8849 319.077 34.6195 318.899 34.2717C318.725 33.9237 318.638 33.5038 318.638 33.0118C318.638 32.4811 318.733 32.0225 318.924 31.6359C319.119 31.2458 319.39 30.9453 319.738 30.7345C320.087 30.5236 320.497 30.4182 320.97 30.4182C321.332 30.4182 321.663 30.4902 321.965 30.6343C322.266 30.7784 322.528 30.9945 322.749 31.2827C322.974 31.5673 323.146 31.9205 323.267 32.3423C323.39 32.764 323.453 33.2542 323.453 33.813ZM320.97 31.1615C320.524 31.1615 320.162 31.3143 319.884 31.6201C319.609 31.9259 319.472 32.3862 319.472 33.0012C319.472 33.5108 319.591 33.9132 319.829 34.2084C320.066 34.5036 320.433 34.6512 320.93 34.6512C321.271 34.6512 321.566 34.5791 321.814 34.4351C322.065 34.291 322.258 34.1083 322.392 33.8869C322.529 33.6654 322.598 33.4388 322.598 33.2068C322.598 32.9748 322.565 32.7394 322.498 32.5004C322.434 32.2615 322.335 32.0418 322.201 31.8415C322.067 31.6377 321.898 31.4743 321.693 31.3513C321.489 31.2247 321.248 31.1615 320.97 31.1615Z" fill="#B5B5B5"/>
<path d="M291.852 34.7666H324.003V35.0302H291.852V34.7666Z" fill="#B5B5B5"/>
</svg>
