<svg width="332" height="56" viewBox="0 0 332 56" fill="none" xmlns="http://www.w3.org/2000/svg">
<rect width="324" height="40" transform="translate(0 6)" fill="white"/>
<rect x="1" y="11" width="57" height="30" fill="#75B2C5"/>
<rect x="1" y="11" width="57" height="30" stroke="#75B2C5" stroke-width="2"/>
<path d="M22.8965 31H21.2695V21.0059H26.916V22.3867H22.8965V25.5039H26.6562V26.8779H22.8965V31ZM30.1768 23.4326V31H28.5703V23.4326H30.1768ZM29.3838 20.5342C29.6299 20.5342 29.8418 20.6003 30.0195 20.7324C30.2018 20.8646 30.293 21.0924 30.293 21.416C30.293 21.735 30.2018 21.9629 30.0195 22.0996C29.8418 22.2318 29.6299 22.2979 29.3838 22.2979C29.1286 22.2979 28.9121 22.2318 28.7344 22.0996C28.5612 21.9629 28.4746 21.735 28.4746 21.416C28.4746 21.0924 28.5612 20.8646 28.7344 20.7324C28.9121 20.6003 29.1286 20.5342 29.3838 20.5342ZM34.1553 27.1309L31.626 23.4326H33.458L35.1875 26.0918L36.9238 23.4326H38.749L36.2061 27.1309L38.8789 31H37.04L35.1875 28.1631L33.3281 31H31.5029L34.1553 27.1309Z" fill="white"/>
<g filter="url(#filter0_dd_356_5651)">
<rect x="69" y="6" width="255" height="40" rx="3" fill="url(#paint0_radial_356_5651)"/>
<rect x="69" y="6" width="255" height="40" rx="3" fill="#7BAA64" fill-opacity="0.2"/>
<path d="M107.253 22.626C106.847 22.626 106.487 22.7057 106.173 22.8652C105.863 23.0202 105.601 23.2458 105.387 23.542C105.177 23.8382 105.018 24.196 104.908 24.6152C104.799 25.0345 104.744 25.5062 104.744 26.0303C104.744 26.7367 104.831 27.3405 105.004 27.8418C105.182 28.3385 105.455 28.7191 105.824 28.9834C106.193 29.2432 106.67 29.373 107.253 29.373C107.659 29.373 108.064 29.3275 108.47 29.2363C108.88 29.1452 109.324 29.0153 109.803 28.8467V30.624C109.361 30.8063 108.925 30.9362 108.497 31.0137C108.069 31.0957 107.588 31.1367 107.055 31.1367C106.025 31.1367 105.177 30.9248 104.512 30.501C103.851 30.0726 103.361 29.4756 103.042 28.71C102.723 27.9398 102.563 27.042 102.563 26.0166C102.563 25.2601 102.666 24.5674 102.871 23.9385C103.076 23.3096 103.377 22.765 103.773 22.3047C104.17 21.8444 104.66 21.4889 105.243 21.2383C105.826 20.9876 106.496 20.8623 107.253 20.8623C107.75 20.8623 108.246 20.9261 108.743 21.0537C109.244 21.1768 109.723 21.3477 110.179 21.5664L109.495 23.2891C109.121 23.1113 108.745 22.9564 108.367 22.8242C107.989 22.6921 107.618 22.626 107.253 22.626ZM120.867 25.9893C120.867 26.7594 120.771 27.4613 120.58 28.0947C120.388 28.7236 120.097 29.266 119.705 29.7217C119.317 30.1774 118.825 30.5283 118.228 30.7744C117.631 31.016 116.925 31.1367 116.109 31.1367C115.293 31.1367 114.587 31.016 113.99 30.7744C113.393 30.5283 112.898 30.1774 112.506 29.7217C112.119 29.266 111.83 28.7214 111.638 28.0879C111.447 27.4544 111.351 26.7503 111.351 25.9756C111.351 24.9411 111.52 24.041 111.857 23.2754C112.199 22.5052 112.723 21.9082 113.429 21.4844C114.136 21.0605 115.034 20.8486 116.123 20.8486C117.207 20.8486 118.098 21.0605 118.796 21.4844C119.497 21.9082 120.017 22.5052 120.354 23.2754C120.696 24.0456 120.867 24.9502 120.867 25.9893ZM113.573 25.9893C113.573 26.6865 113.659 27.2881 113.833 27.7939C114.01 28.2952 114.286 28.6826 114.66 28.9561C115.034 29.2249 115.517 29.3594 116.109 29.3594C116.711 29.3594 117.198 29.2249 117.572 28.9561C117.946 28.6826 118.217 28.2952 118.385 27.7939C118.559 27.2881 118.645 26.6865 118.645 25.9893C118.645 24.9411 118.449 24.1162 118.057 23.5146C117.665 22.9131 117.02 22.6123 116.123 22.6123C115.526 22.6123 115.038 22.749 114.66 23.0225C114.286 23.2913 114.01 23.6787 113.833 24.1846C113.659 24.6859 113.573 25.2874 113.573 25.9893ZM131.664 31H128.971L124.623 23.4395H124.562C124.58 23.7539 124.596 24.0706 124.61 24.3896C124.623 24.7087 124.637 25.0277 124.651 25.3467C124.664 25.6611 124.678 25.9779 124.692 26.2969V31H122.798V21.0059H125.471L129.812 28.4912H129.86C129.851 28.1813 129.839 27.8737 129.825 27.5684C129.812 27.263 129.798 26.9577 129.784 26.6523C129.775 26.347 129.766 26.0417 129.757 25.7363V21.0059H131.664V31ZM137.902 31H135.783V22.7695H133.069V21.0059H140.616V22.7695H137.902V31ZM142.014 31V21.0059H144.133V31H142.014ZM155.375 31H152.682L148.334 23.4395H148.273C148.291 23.7539 148.307 24.0706 148.321 24.3896C148.334 24.7087 148.348 25.0277 148.362 25.3467C148.375 25.6611 148.389 25.9779 148.403 26.2969V31H146.509V21.0059H149.182L153.523 28.4912H153.571C153.561 28.1813 153.55 27.8737 153.536 27.5684C153.523 27.263 153.509 26.9577 153.495 26.6523C153.486 26.347 153.477 26.0417 153.468 25.7363V21.0059H155.375V31ZM165.892 21.0059V27.4727C165.892 28.1608 165.74 28.7829 165.434 29.3389C165.134 29.8903 164.676 30.3278 164.06 30.6514C163.45 30.9749 162.68 31.1367 161.75 31.1367C160.428 31.1367 159.421 30.7995 158.728 30.125C158.036 29.4505 157.689 28.5573 157.689 27.4453V21.0059H159.802V27.124C159.802 27.9489 159.97 28.5277 160.307 28.8604C160.645 29.193 161.144 29.3594 161.805 29.3594C162.269 29.3594 162.645 29.2796 162.932 29.1201C163.224 28.9606 163.438 28.7145 163.575 28.3818C163.712 28.0492 163.78 27.6253 163.78 27.1104V21.0059H165.892ZM173.956 31H168.2V21.0059H173.956V22.7422H170.319V24.9365H173.703V26.6729H170.319V29.25H173.956V31ZM183.26 31H181.14V22.7695H178.427V21.0059H185.973V22.7695H183.26V31ZM196.443 25.9893C196.443 26.7594 196.347 27.4613 196.156 28.0947C195.964 28.7236 195.673 29.266 195.281 29.7217C194.893 30.1774 194.401 30.5283 193.804 30.7744C193.207 31.016 192.501 31.1367 191.685 31.1367C190.869 31.1367 190.163 31.016 189.566 30.7744C188.969 30.5283 188.474 30.1774 188.082 29.7217C187.695 29.266 187.406 28.7214 187.214 28.0879C187.023 27.4544 186.927 26.7503 186.927 25.9756C186.927 24.9411 187.096 24.041 187.433 23.2754C187.775 22.5052 188.299 21.9082 189.005 21.4844C189.712 21.0605 190.609 20.8486 191.699 20.8486C192.783 20.8486 193.674 21.0605 194.371 21.4844C195.073 21.9082 195.593 22.5052 195.93 23.2754C196.272 24.0456 196.443 24.9502 196.443 25.9893ZM189.149 25.9893C189.149 26.6865 189.235 27.2881 189.409 27.7939C189.586 28.2952 189.862 28.6826 190.236 28.9561C190.609 29.2249 191.093 29.3594 191.685 29.3594C192.287 29.3594 192.774 29.2249 193.148 28.9561C193.522 28.6826 193.793 28.2952 193.961 27.7939C194.135 27.2881 194.221 26.6865 194.221 25.9893C194.221 24.9411 194.025 24.1162 193.633 23.5146C193.241 22.9131 192.596 22.6123 191.699 22.6123C191.102 22.6123 190.614 22.749 190.236 23.0225C189.862 23.2913 189.586 23.6787 189.409 24.1846C189.235 24.6859 189.149 25.2874 189.149 25.9893ZM206.116 22.626C205.71 22.626 205.35 22.7057 205.036 22.8652C204.726 23.0202 204.464 23.2458 204.25 23.542C204.04 23.8382 203.881 24.196 203.771 24.6152C203.662 25.0345 203.607 25.5062 203.607 26.0303C203.607 26.7367 203.694 27.3405 203.867 27.8418C204.045 28.3385 204.318 28.7191 204.687 28.9834C205.056 29.2432 205.533 29.373 206.116 29.373C206.521 29.373 206.927 29.3275 207.333 29.2363C207.743 29.1452 208.187 29.0153 208.666 28.8467V30.624C208.224 30.8063 207.788 30.9362 207.36 31.0137C206.932 31.0957 206.451 31.1367 205.918 31.1367C204.888 31.1367 204.04 30.9248 203.375 30.501C202.714 30.0726 202.224 29.4756 201.905 28.71C201.586 27.9398 201.426 27.042 201.426 26.0166C201.426 25.2601 201.529 24.5674 201.734 23.9385C201.939 23.3096 202.24 22.765 202.636 22.3047C203.033 21.8444 203.523 21.4889 204.106 21.2383C204.689 20.9876 205.359 20.8623 206.116 20.8623C206.613 20.8623 207.109 20.9261 207.606 21.0537C208.107 21.1768 208.586 21.3477 209.042 21.5664L208.358 23.2891C207.984 23.1113 207.608 22.9564 207.23 22.8242C206.852 22.6921 206.48 22.626 206.116 22.626ZM218.848 31H216.736V26.6865H212.778V31H210.659V21.0059H212.778V24.9229H216.736V21.0059H218.848V31ZM226.993 31H221.237V21.0059H226.993V22.7422H223.356V24.9365H226.74V26.6729H223.356V29.25H226.993V31ZM233.19 22.626C232.784 22.626 232.424 22.7057 232.11 22.8652C231.8 23.0202 231.538 23.2458 231.324 23.542C231.114 23.8382 230.955 24.196 230.845 24.6152C230.736 25.0345 230.681 25.5062 230.681 26.0303C230.681 26.7367 230.768 27.3405 230.941 27.8418C231.119 28.3385 231.392 28.7191 231.761 28.9834C232.13 29.2432 232.607 29.373 233.19 29.373C233.596 29.373 234.001 29.3275 234.407 29.2363C234.817 29.1452 235.261 29.0153 235.74 28.8467V30.624C235.298 30.8063 234.863 30.9362 234.434 31.0137C234.006 31.0957 233.525 31.1367 232.992 31.1367C231.962 31.1367 231.114 30.9248 230.449 30.501C229.788 30.0726 229.298 29.4756 228.979 28.71C228.66 27.9398 228.501 27.042 228.501 26.0166C228.501 25.2601 228.603 24.5674 228.808 23.9385C229.013 23.3096 229.314 22.765 229.711 22.3047C230.107 21.8444 230.597 21.4889 231.18 21.2383C231.764 20.9876 232.434 20.8623 233.19 20.8623C233.687 20.8623 234.184 20.9261 234.68 21.0537C235.182 21.1768 235.66 21.3477 236.116 21.5664L235.432 23.2891C235.059 23.1113 234.683 22.9564 234.304 22.8242C233.926 22.6921 233.555 22.626 233.19 22.626ZM245.772 31H243.365L240.747 26.7891L239.852 27.4316V31H237.733V21.0059H239.852V25.5791C239.993 25.3831 240.132 25.1872 240.269 24.9912C240.406 24.7952 240.544 24.5993 240.686 24.4033L243.393 21.0059H245.744L242.258 25.4287L245.772 31ZM255.961 25.9893C255.961 26.7594 255.865 27.4613 255.674 28.0947C255.482 28.7236 255.191 29.266 254.799 29.7217C254.411 30.1774 253.919 30.5283 253.322 30.7744C252.725 31.016 252.019 31.1367 251.203 31.1367C250.387 31.1367 249.681 31.016 249.084 30.7744C248.487 30.5283 247.992 30.1774 247.6 29.7217C247.213 29.266 246.924 28.7214 246.732 28.0879C246.541 27.4544 246.445 26.7503 246.445 25.9756C246.445 24.9411 246.614 24.041 246.951 23.2754C247.293 22.5052 247.817 21.9082 248.523 21.4844C249.23 21.0605 250.127 20.8486 251.217 20.8486C252.301 20.8486 253.192 21.0605 253.89 21.4844C254.591 21.9082 255.111 22.5052 255.448 23.2754C255.79 24.0456 255.961 24.9502 255.961 25.9893ZM248.667 25.9893C248.667 26.6865 248.753 27.2881 248.927 27.7939C249.104 28.2952 249.38 28.6826 249.754 28.9561C250.127 29.2249 250.611 29.3594 251.203 29.3594C251.805 29.3594 252.292 29.2249 252.666 28.9561C253.04 28.6826 253.311 28.2952 253.479 27.7939C253.653 27.2881 253.739 26.6865 253.739 25.9893C253.739 24.9411 253.543 24.1162 253.151 23.5146C252.759 22.9131 252.114 22.6123 251.217 22.6123C250.62 22.6123 250.132 22.749 249.754 23.0225C249.38 23.2913 249.104 23.6787 248.927 24.1846C248.753 24.6859 248.667 25.2874 248.667 25.9893ZM266.027 21.0059V27.4727C266.027 28.1608 265.874 28.7829 265.569 29.3389C265.268 29.8903 264.81 30.3278 264.195 30.6514C263.584 30.9749 262.814 31.1367 261.884 31.1367C260.563 31.1367 259.556 30.7995 258.863 30.125C258.17 29.4505 257.824 28.5573 257.824 27.4453V21.0059H259.936V27.124C259.936 27.9489 260.105 28.5277 260.442 28.8604C260.779 29.193 261.278 29.3594 261.939 29.3594C262.404 29.3594 262.78 29.2796 263.067 29.1201C263.359 28.9606 263.573 28.7145 263.709 28.3818C263.846 28.0492 263.915 27.6253 263.915 27.1104V21.0059H266.027ZM272.19 31H270.07V22.7695H267.357V21.0059H274.903V22.7695H272.19V31Z" fill="white"/>
<path d="M291.25 26L282.625 30.9796L282.625 21.0204L291.25 26Z" fill="white"/>
</g>
<defs>
<filter id="filter0_dd_356_5651" x="61" y="0" width="271" height="56" filterUnits="userSpaceOnUse" color-interpolation-filters="sRGB">
<feFlood flood-opacity="0" result="BackgroundImageFix"/>
<feColorMatrix in="SourceAlpha" type="matrix" values="0 0 0 0 0 0 0 0 0 0 0 0 0 0 0 0 0 0 127 0" result="hardAlpha"/>
<feMorphology radius="2" operator="dilate" in="SourceAlpha" result="effect1_dropShadow_356_5651"/>
<feOffset dy="2"/>
<feGaussianBlur stdDeviation="3"/>
<feColorMatrix type="matrix" values="0 0 0 0 0 0 0 0 0 0 0 0 0 0 0 0 0 0 0.15 0"/>
<feBlend mode="normal" in2="BackgroundImageFix" result="effect1_dropShadow_356_5651"/>
<feColorMatrix in="SourceAlpha" type="matrix" values="0 0 0 0 0 0 0 0 0 0 0 0 0 0 0 0 0 0 127 0" result="hardAlpha"/>
<feOffset dy="1"/>
<feGaussianBlur stdDeviation="1"/>
<feColorMatrix type="matrix" values="0 0 0 0 0 0 0 0 0 0 0 0 0 0 0 0 0 0 0.3 0"/>
<feBlend mode="normal" in2="effect1_dropShadow_356_5651" result="effect2_dropShadow_356_5651"/>
<feBlend mode="normal" in="SourceGraphic" in2="effect2_dropShadow_356_5651" result="shape"/>
</filter>
<radialGradient id="paint0_radial_356_5651" cx="0" cy="0" r="1" gradientUnits="userSpaceOnUse" gradientTransform="translate(192.363 23.1429) rotate(1.14526) scale(171.539 38.9095)">
<stop stop-color="#7EAD66"/>
<stop offset="1" stop-color="#70985B"/>
</radialGradient>
</defs>
</svg>
