<svg width="324" height="40" viewBox="0 0 324 40" fill="none" xmlns="http://www.w3.org/2000/svg">
<rect width="324" height="40" fill="white"/>
<rect x="1" y="5" width="57" height="30" fill="white"/>
<rect x="1" y="5" width="57" height="30" stroke="#ABC9DF" stroke-width="2"/>
<path d="M22.8965 25H21.2695V15.0059H26.916V16.3867H22.8965V19.5039H26.6562V20.8779H22.8965V25ZM30.1768 17.4326V25H28.5703V17.4326H30.1768ZM29.3838 14.5342C29.6299 14.5342 29.8418 14.6003 30.0195 14.7324C30.2018 14.8646 30.293 15.0924 30.293 15.416C30.293 15.735 30.2018 15.9629 30.0195 16.0996C29.8418 16.2318 29.6299 16.2979 29.3838 16.2979C29.1286 16.2979 28.9121 16.2318 28.7344 16.0996C28.5612 15.9629 28.4746 15.735 28.4746 15.416C28.4746 15.0924 28.5612 14.8646 28.7344 14.7324C28.9121 14.6003 29.1286 14.5342 29.3838 14.5342ZM34.1553 21.1309L31.626 17.4326H33.458L35.1875 20.0918L36.9238 17.4326H38.749L36.2061 21.1309L38.8789 25H37.04L35.1875 22.1631L33.3281 25H31.5029L34.1553 21.1309Z" fill="#246D95"/>
<rect width="255" height="40" transform="translate(69)" fill="#2E853F"/>
<path d="M108.219 16.6323C107.707 16.6323 107.248 16.7251 106.842 16.9106C106.442 17.0962 106.103 17.3647 105.824 17.7163C105.546 18.063 105.333 18.4854 105.187 18.9834C105.041 19.4766 104.967 20.0332 104.967 20.6533C104.967 21.4834 105.084 22.1987 105.319 22.7993C105.553 23.395 105.91 23.854 106.388 24.1763C106.867 24.4937 107.472 24.6523 108.205 24.6523C108.659 24.6523 109.101 24.6084 109.53 24.5205C109.96 24.4326 110.404 24.313 110.863 24.1616V25.6558C110.429 25.8267 109.989 25.9512 109.545 26.0293C109.101 26.1074 108.588 26.1465 108.007 26.1465C106.913 26.1465 106.005 25.9194 105.282 25.4653C104.564 25.0112 104.027 24.3716 103.671 23.5464C103.319 22.7212 103.144 21.7544 103.144 20.646C103.144 19.8354 103.256 19.0933 103.48 18.4194C103.705 17.7456 104.032 17.1646 104.462 16.6763C104.892 16.1831 105.421 15.8047 106.051 15.541C106.686 15.2725 107.411 15.1382 108.227 15.1382C108.764 15.1382 109.291 15.1992 109.809 15.3213C110.331 15.4385 110.814 15.6069 111.259 15.8267L110.644 17.2769C110.272 17.1011 109.884 16.9497 109.479 16.8228C109.074 16.6958 108.654 16.6323 108.219 16.6323ZM120.015 21.9277C120.015 22.6016 119.927 23.1997 119.751 23.7222C119.576 24.2446 119.319 24.6865 118.982 25.0479C118.645 25.4043 118.24 25.6777 117.767 25.8682C117.293 26.0537 116.758 26.1465 116.163 26.1465C115.606 26.1465 115.096 26.0537 114.632 25.8682C114.168 25.6777 113.765 25.4043 113.423 25.0479C113.086 24.6865 112.825 24.2446 112.64 23.7222C112.454 23.1997 112.361 22.6016 112.361 21.9277C112.361 21.0342 112.515 20.2773 112.823 19.6572C113.135 19.0322 113.579 18.5562 114.156 18.229C114.732 17.9019 115.418 17.7383 116.214 17.7383C116.961 17.7383 117.62 17.9019 118.191 18.229C118.763 18.5562 119.209 19.0322 119.532 19.6572C119.854 20.2822 120.015 21.0391 120.015 21.9277ZM114.134 21.9277C114.134 22.5186 114.204 23.0239 114.346 23.4438C114.493 23.8638 114.717 24.186 115.02 24.4106C115.323 24.6304 115.713 24.7402 116.192 24.7402C116.67 24.7402 117.061 24.6304 117.364 24.4106C117.666 24.186 117.889 23.8638 118.03 23.4438C118.172 23.0239 118.243 22.5186 118.243 21.9277C118.243 21.3369 118.172 20.8364 118.03 20.4263C117.889 20.0112 117.666 19.6963 117.364 19.4814C117.061 19.2617 116.668 19.1519 116.184 19.1519C115.472 19.1519 114.952 19.3911 114.624 19.8696C114.297 20.3481 114.134 21.0342 114.134 21.9277ZM126.069 17.7383C126.982 17.7383 127.692 17.9751 128.2 18.4487C128.713 18.9175 128.969 19.6719 128.969 20.7119V26H127.248V21.0342C127.248 20.4043 127.118 19.9331 126.86 19.6206C126.601 19.3032 126.2 19.1445 125.658 19.1445C124.872 19.1445 124.325 19.3862 124.018 19.8696C123.715 20.353 123.564 21.0537 123.564 21.9717V26H121.843V17.8921H123.183L123.425 18.9907H123.52C123.696 18.7075 123.913 18.4756 124.172 18.2949C124.435 18.1094 124.728 17.9702 125.051 17.8774C125.378 17.7847 125.717 17.7383 126.069 17.7383ZM134.246 24.7549C134.471 24.7549 134.693 24.7354 134.913 24.6963C135.133 24.6523 135.333 24.6011 135.513 24.5425V25.8462C135.323 25.9292 135.076 26 134.774 26.0586C134.471 26.1172 134.156 26.1465 133.829 26.1465C133.37 26.1465 132.957 26.0708 132.591 25.9194C132.225 25.7632 131.934 25.4971 131.719 25.1211C131.505 24.7451 131.397 24.2251 131.397 23.561V19.2031H130.291V18.4341L131.478 17.8262L132.042 16.0903H133.126V17.8921H135.447V19.2031H133.126V23.5391C133.126 23.9492 133.228 24.2544 133.433 24.4546C133.638 24.6548 133.909 24.7549 134.246 24.7549ZM138.733 17.8921V26H137.011V17.8921H138.733ZM137.883 14.7866C138.147 14.7866 138.374 14.8574 138.564 14.999C138.759 15.1406 138.857 15.3848 138.857 15.7314C138.857 16.0732 138.759 16.3174 138.564 16.4639C138.374 16.6055 138.147 16.6763 137.883 16.6763C137.609 16.6763 137.378 16.6055 137.187 16.4639C137.002 16.3174 136.909 16.0732 136.909 15.7314C136.909 15.3848 137.002 15.1406 137.187 14.999C137.378 14.8574 137.609 14.7866 137.883 14.7866ZM145.277 17.7383C146.19 17.7383 146.9 17.9751 147.408 18.4487C147.921 18.9175 148.177 19.6719 148.177 20.7119V26H146.456V21.0342C146.456 20.4043 146.327 19.9331 146.068 19.6206C145.809 19.3032 145.409 19.1445 144.867 19.1445C144.081 19.1445 143.534 19.3862 143.226 19.8696C142.923 20.353 142.772 21.0537 142.772 21.9717V26H141.051V17.8921H142.391L142.633 18.9907H142.728C142.904 18.7075 143.121 18.4756 143.38 18.2949C143.644 18.1094 143.937 17.9702 144.259 17.8774C144.586 17.7847 144.925 17.7383 145.277 17.7383ZM157.505 17.8921V26H156.15L155.915 24.9087H155.82C155.649 25.187 155.432 25.4189 155.168 25.6045C154.905 25.7852 154.612 25.9194 154.289 26.0073C153.967 26.1001 153.628 26.1465 153.271 26.1465C152.661 26.1465 152.139 26.0439 151.704 25.8389C151.274 25.6289 150.945 25.3066 150.715 24.8721C150.486 24.4375 150.371 23.876 150.371 23.1875V17.8921H152.1V22.8652C152.1 23.4951 152.226 23.9663 152.48 24.2788C152.739 24.5913 153.14 24.7476 153.682 24.7476C154.204 24.7476 154.619 24.6401 154.927 24.4253C155.234 24.2104 155.452 23.8931 155.579 23.4731C155.71 23.0532 155.776 22.5381 155.776 21.9277V17.8921H157.505ZM163.053 17.7383C163.776 17.7383 164.396 17.8872 164.913 18.1851C165.431 18.4829 165.829 18.9053 166.107 19.4521C166.386 19.999 166.525 20.6533 166.525 21.415V22.3379H161.112C161.132 23.124 161.342 23.7295 161.742 24.1543C162.147 24.5791 162.714 24.7915 163.441 24.7915C163.959 24.7915 164.423 24.7427 164.833 24.645C165.248 24.5425 165.675 24.3936 166.115 24.1982V25.5972C165.709 25.7876 165.297 25.9268 164.877 26.0146C164.457 26.1025 163.954 26.1465 163.368 26.1465C162.572 26.1465 161.871 25.9927 161.266 25.6851C160.665 25.3726 160.194 24.9087 159.852 24.2935C159.515 23.6782 159.347 22.9141 159.347 22.001C159.347 21.0928 159.501 20.3213 159.808 19.6865C160.116 19.0518 160.548 18.5684 161.105 18.2363C161.661 17.9043 162.311 17.7383 163.053 17.7383ZM163.053 19.0347C162.511 19.0347 162.072 19.2104 161.735 19.562C161.403 19.9136 161.207 20.4287 161.149 21.1074H164.84C164.835 20.7021 164.767 20.3433 164.635 20.0308C164.508 19.7183 164.313 19.4741 164.049 19.2983C163.79 19.1226 163.458 19.0347 163.053 19.0347ZM175.08 24.7549C175.304 24.7549 175.526 24.7354 175.746 24.6963C175.966 24.6523 176.166 24.6011 176.347 24.5425V25.8462C176.156 25.9292 175.91 26 175.607 26.0586C175.304 26.1172 174.989 26.1465 174.662 26.1465C174.203 26.1465 173.791 26.0708 173.424 25.9194C173.058 25.7632 172.768 25.4971 172.553 25.1211C172.338 24.7451 172.231 24.2251 172.231 23.561V19.2031H171.125V18.4341L172.311 17.8262L172.875 16.0903H173.959V17.8921H176.281V19.2031H173.959V23.5391C173.959 23.9492 174.062 24.2544 174.267 24.4546C174.472 24.6548 174.743 24.7549 175.08 24.7549ZM185.022 21.9277C185.022 22.6016 184.935 23.1997 184.759 23.7222C184.583 24.2446 184.327 24.6865 183.99 25.0479C183.653 25.4043 183.248 25.6777 182.774 25.8682C182.3 26.0537 181.766 26.1465 181.17 26.1465C180.613 26.1465 180.103 26.0537 179.639 25.8682C179.175 25.6777 178.772 25.4043 178.431 25.0479C178.094 24.6865 177.833 24.2446 177.647 23.7222C177.461 23.1997 177.369 22.6016 177.369 21.9277C177.369 21.0342 177.522 20.2773 177.83 19.6572C178.143 19.0322 178.587 18.5562 179.163 18.229C179.739 17.9019 180.425 17.7383 181.221 17.7383C181.968 17.7383 182.627 17.9019 183.199 18.229C183.77 18.5562 184.217 19.0322 184.539 19.6572C184.861 20.2822 185.022 21.0391 185.022 21.9277ZM179.141 21.9277C179.141 22.5186 179.212 23.0239 179.354 23.4438C179.5 23.8638 179.725 24.186 180.027 24.4106C180.33 24.6304 180.721 24.7402 181.199 24.7402C181.678 24.7402 182.068 24.6304 182.371 24.4106C182.674 24.186 182.896 23.8638 183.038 23.4438C183.179 23.0239 183.25 22.5186 183.25 21.9277C183.25 21.3369 183.179 20.8364 183.038 20.4263C182.896 20.0112 182.674 19.6963 182.371 19.4814C182.068 19.2617 181.675 19.1519 181.192 19.1519C180.479 19.1519 179.959 19.3911 179.632 19.8696C179.305 20.3481 179.141 21.0342 179.141 21.9277ZM195.335 16.6323C194.823 16.6323 194.364 16.7251 193.958 16.9106C193.558 17.0962 193.219 17.3647 192.94 17.7163C192.662 18.063 192.45 18.4854 192.303 18.9834C192.157 19.4766 192.083 20.0332 192.083 20.6533C192.083 21.4834 192.2 22.1987 192.435 22.7993C192.669 23.395 193.026 23.854 193.504 24.1763C193.983 24.4937 194.588 24.6523 195.321 24.6523C195.775 24.6523 196.217 24.6084 196.646 24.5205C197.076 24.4326 197.52 24.313 197.979 24.1616V25.6558C197.545 25.8267 197.105 25.9512 196.661 26.0293C196.217 26.1074 195.704 26.1465 195.123 26.1465C194.029 26.1465 193.121 25.9194 192.398 25.4653C191.68 25.0112 191.143 24.3716 190.787 23.5464C190.435 22.7212 190.26 21.7544 190.26 20.646C190.26 19.8354 190.372 19.0933 190.596 18.4194C190.821 17.7456 191.148 17.1646 191.578 16.6763C192.008 16.1831 192.537 15.8047 193.167 15.541C193.802 15.2725 194.527 15.1382 195.343 15.1382C195.88 15.1382 196.407 15.1992 196.925 15.3213C197.447 15.4385 197.93 15.6069 198.375 15.8267L197.76 17.2769C197.388 17.1011 197 16.9497 196.595 16.8228C196.19 16.6958 195.77 16.6323 195.335 16.6323ZM201.675 14.6035V17.4673C201.675 17.7651 201.665 18.0557 201.645 18.3389C201.631 18.6221 201.613 18.8418 201.594 18.998H201.689C201.86 18.7148 202.07 18.4829 202.319 18.3022C202.568 18.1167 202.846 17.9775 203.154 17.8848C203.467 17.792 203.799 17.7456 204.15 17.7456C204.77 17.7456 205.298 17.8506 205.732 18.0605C206.167 18.2656 206.499 18.5854 206.728 19.02C206.963 19.4546 207.08 20.0186 207.08 20.7119V26H205.359V21.0342C205.359 20.4043 205.229 19.9331 204.97 19.6206C204.712 19.3032 204.311 19.1445 203.769 19.1445C203.247 19.1445 202.832 19.2544 202.524 19.4741C202.221 19.689 202.004 20.0088 201.872 20.4336C201.74 20.8535 201.675 21.3662 201.675 21.9717V26H199.953V14.6035H201.675ZM212.569 17.7383C213.292 17.7383 213.912 17.8872 214.43 18.1851C214.947 18.4829 215.345 18.9053 215.624 19.4521C215.902 19.999 216.041 20.6533 216.041 21.415V22.3379H210.629C210.648 23.124 210.858 23.7295 211.258 24.1543C211.664 24.5791 212.23 24.7915 212.958 24.7915C213.475 24.7915 213.939 24.7427 214.349 24.645C214.764 24.5425 215.192 24.3936 215.631 24.1982V25.5972C215.226 25.7876 214.813 25.9268 214.393 26.0146C213.973 26.1025 213.47 26.1465 212.884 26.1465C212.088 26.1465 211.388 25.9927 210.782 25.6851C210.182 25.3726 209.711 24.9087 209.369 24.2935C209.032 23.6782 208.863 22.9141 208.863 22.001C208.863 21.0928 209.017 20.3213 209.325 19.6865C209.632 19.0518 210.065 18.5684 210.621 18.2363C211.178 17.9043 211.827 17.7383 212.569 17.7383ZM212.569 19.0347C212.027 19.0347 211.588 19.2104 211.251 19.562C210.919 19.9136 210.724 20.4287 210.665 21.1074H214.357C214.352 20.7021 214.283 20.3433 214.151 20.0308C214.025 19.7183 213.829 19.4741 213.566 19.2983C213.307 19.1226 212.975 19.0347 212.569 19.0347ZM221.099 26.1465C220.332 26.1465 219.668 25.9976 219.106 25.6997C218.545 25.4019 218.113 24.9453 217.81 24.3301C217.507 23.7148 217.356 22.9336 217.356 21.9863C217.356 21 217.522 20.1943 217.854 19.5693C218.186 18.9443 218.645 18.4829 219.231 18.1851C219.822 17.8872 220.498 17.7383 221.26 17.7383C221.743 17.7383 222.18 17.7871 222.571 17.8848C222.966 17.9775 223.301 18.0923 223.574 18.229L223.062 19.606C222.764 19.4839 222.458 19.3813 222.146 19.2983C221.833 19.2153 221.533 19.1738 221.245 19.1738C220.771 19.1738 220.376 19.2788 220.059 19.4888C219.746 19.6987 219.512 20.0112 219.355 20.4263C219.204 20.8413 219.128 21.3564 219.128 21.9717C219.128 22.5674 219.207 23.0703 219.363 23.4805C219.519 23.8857 219.751 24.1934 220.059 24.4033C220.366 24.6084 220.745 24.7109 221.194 24.7109C221.638 24.7109 222.036 24.6572 222.388 24.5498C222.739 24.4424 223.071 24.3032 223.384 24.1323V25.6265C223.076 25.8022 222.747 25.9316 222.395 26.0146C222.043 26.1025 221.611 26.1465 221.099 26.1465ZM226.859 14.6035V20.1113C226.859 20.3604 226.85 20.6338 226.83 20.9316C226.81 21.2246 226.791 21.5005 226.771 21.7593H226.808C226.935 21.5884 227.086 21.3882 227.262 21.1587C227.443 20.9292 227.614 20.729 227.775 20.5581L230.25 17.8921H232.228L228.983 21.3784L232.44 26H230.419L227.826 22.4404L226.859 23.2681V26H225.138V14.6035H226.859ZM240.764 21.9277C240.764 22.6016 240.677 23.1997 240.501 23.7222C240.325 24.2446 240.069 24.6865 239.732 25.0479C239.395 25.4043 238.99 25.6777 238.516 25.8682C238.042 26.0537 237.508 26.1465 236.912 26.1465C236.355 26.1465 235.845 26.0537 235.381 25.8682C234.917 25.6777 234.514 25.4043 234.173 25.0479C233.836 24.6865 233.575 24.2446 233.389 23.7222C233.203 23.1997 233.111 22.6016 233.111 21.9277C233.111 21.0342 233.264 20.2773 233.572 19.6572C233.885 19.0322 234.329 18.5562 234.905 18.229C235.481 17.9019 236.167 17.7383 236.963 17.7383C237.71 17.7383 238.369 17.9019 238.941 18.229C239.512 18.5562 239.959 19.0322 240.281 19.6572C240.603 20.2822 240.764 21.0391 240.764 21.9277ZM234.883 21.9277C234.883 22.5186 234.954 23.0239 235.096 23.4438C235.242 23.8638 235.467 24.186 235.769 24.4106C236.072 24.6304 236.463 24.7402 236.941 24.7402C237.42 24.7402 237.81 24.6304 238.113 24.4106C238.416 24.186 238.638 23.8638 238.78 23.4438C238.921 23.0239 238.992 22.5186 238.992 21.9277C238.992 21.3369 238.921 20.8364 238.78 20.4263C238.638 20.0112 238.416 19.6963 238.113 19.4814C237.81 19.2617 237.417 19.1519 236.934 19.1519C236.221 19.1519 235.701 19.3911 235.374 19.8696C235.047 20.3481 234.883 21.0342 234.883 21.9277ZM249.66 17.8921V26H248.305L248.071 24.9087H247.975C247.804 25.187 247.587 25.4189 247.323 25.6045C247.06 25.7852 246.767 25.9194 246.445 26.0073C246.122 26.1001 245.783 26.1465 245.426 26.1465C244.816 26.1465 244.294 26.0439 243.859 25.8389C243.429 25.6289 243.1 25.3066 242.87 24.8721C242.641 24.4375 242.526 23.876 242.526 23.1875V17.8921H244.255V22.8652C244.255 23.4951 244.382 23.9663 244.635 24.2788C244.894 24.5913 245.295 24.7476 245.837 24.7476C246.359 24.7476 246.774 24.6401 247.082 24.4253C247.389 24.2104 247.607 23.8931 247.734 23.4731C247.865 23.0532 247.931 22.5381 247.931 21.9277V17.8921H249.66ZM254.996 24.7549C255.22 24.7549 255.442 24.7354 255.662 24.6963C255.882 24.6523 256.082 24.6011 256.263 24.5425V25.8462C256.072 25.9292 255.826 26 255.523 26.0586C255.22 26.1172 254.905 26.1465 254.578 26.1465C254.119 26.1465 253.707 26.0708 253.34 25.9194C252.974 25.7632 252.684 25.4971 252.469 25.1211C252.254 24.7451 252.147 24.2251 252.147 23.561V19.2031H251.041V18.4341L252.227 17.8262L252.791 16.0903H253.875V17.8921H256.197V19.2031H253.875V23.5391C253.875 23.9492 253.978 24.2544 254.183 24.4546C254.388 24.6548 254.659 24.7549 254.996 24.7549Z" fill="white"/>
<path d="M274.141 20.9023L268.984 25.8242C268.691 26.0879 268.252 26.0879 267.988 25.7949C267.725 25.502 267.725 25.0625 268.018 24.7988L271.914 21.0781H261.953C261.543 21.0781 261.25 20.7852 261.25 20.375C261.25 19.9941 261.543 19.6719 261.953 19.6719H271.914L268.018 15.9805C267.725 15.7168 267.725 15.248 267.988 14.9844C268.252 14.6914 268.721 14.6914 268.984 14.9551L274.141 19.877C274.287 20.0234 274.375 20.1992 274.375 20.375C274.375 20.5801 274.287 20.7559 274.141 20.9023Z" fill="white"/>
</svg>
