<svg width="390" height="80" viewBox="0 0 390 80" fill="none" xmlns="http://www.w3.org/2000/svg">
<g clip-path="url(#clip0_351_5495)">
<path d="M225 11H0V36H225V11Z" fill="#D3E8E0"/>
<g style="mix-blend-mode:luminosity">
<path d="M9.04058 24.0845L11.1207 20.1475H12.0993L9.4951 24.9546V28H8.58605V24.9976L5.97656 20.1475H6.97116L9.04058 24.0845ZM18.0936 25.0459C18.0936 25.5293 18.0312 25.9608 17.9064 26.3403C17.7817 26.7199 17.6017 27.0404 17.3663 27.3018C17.1311 27.5632 16.8459 27.7637 16.5108 27.9033C16.1792 28.0394 15.8032 28.1074 15.3826 28.1074C14.9904 28.1074 14.6303 28.0394 14.3024 27.9033C13.9779 27.7637 13.6964 27.5632 13.4575 27.3018C13.2222 27.0404 13.0386 26.7199 12.9067 26.3403C12.7783 25.9608 12.7142 25.5293 12.7142 25.0459C12.7142 24.4014 12.8229 23.8535 13.0404 23.4023C13.2578 22.9476 13.568 22.6021 13.9708 22.3657C14.3772 22.1258 14.8603 22.0059 15.42 22.0059C15.9547 22.0059 16.4216 22.1258 16.821 22.3657C17.2238 22.6056 17.5357 22.953 17.7567 23.4077C17.9813 23.8589 18.0936 24.4049 18.0936 25.0459ZM13.6339 25.0459C13.6339 25.5186 13.6964 25.9285 13.8211 26.2759C13.9458 26.6232 14.1384 26.8918 14.3986 27.0815C14.6589 27.2713 14.994 27.3662 15.4039 27.3662C15.8103 27.3662 16.1436 27.2713 16.4038 27.0815C16.6676 26.8918 16.862 26.6232 16.9867 26.2759C17.1115 25.9285 17.1739 25.5186 17.1739 25.0459C17.1739 24.5768 17.1115 24.1722 16.9867 23.832C16.862 23.4883 16.6694 23.2233 16.4092 23.0371C16.149 22.8509 15.812 22.7578 15.3986 22.7578C14.789 22.7578 14.3416 22.9601 14.0564 23.3647C13.7747 23.7694 13.6339 24.3298 13.6339 25.0459ZM24.4676 22.1133V28H23.7404L23.6121 27.1729H23.5639C23.4427 27.377 23.2858 27.5488 23.0934 27.6885C22.9008 27.8281 22.6834 27.932 22.441 28C22.2021 28.0716 21.9473 28.1074 21.6763 28.1074C21.2128 28.1074 20.8243 28.0322 20.5106 27.8818C20.1969 27.7314 19.9598 27.4987 19.7994 27.1836C19.6425 26.8685 19.5641 26.4639 19.5641 25.9697V22.1133H20.4625V25.9053C20.4625 26.3958 20.573 26.7629 20.794 27.0063C21.015 27.2463 21.3519 27.3662 21.8046 27.3662C22.2396 27.3662 22.5853 27.2839 22.842 27.1191C23.1022 26.9544 23.2894 26.7127 23.4035 26.394C23.5176 26.0718 23.5746 25.6779 23.5746 25.2124V22.1133H24.4676ZM33.7345 25.9106C33.7345 26.3761 33.6187 26.7736 33.3869 27.103C33.1588 27.4289 32.838 27.6777 32.4244 27.8496C32.011 28.0215 31.5243 28.1074 30.9646 28.1074C30.6687 28.1074 30.3889 28.0931 30.1251 28.0645C29.8613 28.0358 29.6189 27.9946 29.3979 27.9409C29.1768 27.8872 28.9825 27.821 28.815 27.7422V26.8667C29.0824 26.9777 29.4085 27.0815 29.7936 27.1782C30.1786 27.2713 30.5814 27.3179 31.002 27.3179C31.3942 27.3179 31.7257 27.266 31.9966 27.1621C32.2676 27.0547 32.4726 26.9025 32.6116 26.7056C32.7541 26.505 32.8255 26.2651 32.8255 25.9858C32.8255 25.7173 32.7667 25.4935 32.649 25.3145C32.5314 25.1318 32.3353 24.9671 32.0608 24.8203C31.7899 24.6699 31.4192 24.5106 30.9486 24.3423C30.617 24.2241 30.3247 24.0952 30.0716 23.9556C29.8185 23.8123 29.6064 23.6512 29.4353 23.4722C29.2642 23.2931 29.134 23.0854 29.0449 22.8491C28.9594 22.6128 28.9166 22.3424 28.9166 22.0381C28.9166 21.6191 29.0217 21.2611 29.2321 20.9639C29.446 20.6631 29.74 20.4339 30.1144 20.2764C30.4923 20.1152 30.9254 20.0347 31.4138 20.0347C31.8309 20.0347 32.2159 20.0741 32.5688 20.1528C32.9253 20.2316 33.2515 20.3372 33.5474 20.4697L33.264 21.2539C32.9823 21.1357 32.6829 21.0373 32.3656 20.9585C32.0519 20.8797 31.7275 20.8403 31.3924 20.8403C31.0573 20.8403 30.774 20.8905 30.5422 20.9907C30.314 21.0874 30.1394 21.2253 30.0181 21.4043C29.8969 21.5833 29.8363 21.7964 29.8363 22.0435C29.8363 22.3192 29.8934 22.5483 30.0075 22.731C30.1251 22.9136 30.3105 23.0765 30.5636 23.2197C30.8202 23.3594 31.1589 23.5062 31.5796 23.6602C32.0394 23.8285 32.4298 24.0075 32.7507 24.1973C33.0714 24.3835 33.3157 24.6126 33.4832 24.8848C33.6508 25.1533 33.7345 25.4953 33.7345 25.9106ZM37.3921 22.0166C38.0908 22.0166 38.6095 22.1742 38.9482 22.4893C39.2868 22.8044 39.4562 23.3075 39.4562 23.9985V28H38.8091L38.638 27.1299H38.5953C38.4313 27.3447 38.2602 27.5256 38.0819 27.6724C37.9037 27.8156 37.6969 27.9248 37.4616 28C37.23 28.0716 36.9447 28.1074 36.606 28.1074C36.2496 28.1074 35.9323 28.0448 35.6543 27.9194C35.3798 27.7941 35.1622 27.6043 35.0019 27.3501C34.845 27.0959 34.7666 26.7736 34.7666 26.3833C34.7666 25.7961 34.9983 25.3449 35.4617 25.0298C35.9252 24.7147 36.631 24.5428 37.5793 24.5142L38.5899 24.4712V24.1113C38.5899 23.6029 38.4812 23.2466 38.2638 23.0425C38.0462 22.8384 37.7397 22.7363 37.344 22.7363C37.0374 22.7363 36.7451 22.7811 36.467 22.8706C36.189 22.9601 35.9252 23.0658 35.6757 23.1875L35.4029 22.5107C35.6667 22.3747 35.9698 22.2583 36.3119 22.1616C36.6542 22.0649 37.0142 22.0166 37.3921 22.0166ZM38.5793 25.0996L37.6862 25.1372C36.9554 25.1659 36.4403 25.2858 36.1408 25.4971C35.8414 25.7083 35.6917 26.0073 35.6917 26.394C35.6917 26.7306 35.7932 26.9795 35.9964 27.1406C36.1996 27.3018 36.4688 27.3823 36.804 27.3823C37.3243 27.3823 37.7503 27.2373 38.0819 26.9473C38.4135 26.6572 38.5793 26.2222 38.5793 25.6421V25.0996ZM42.5737 28L40.3492 22.1133H41.301L42.5897 25.6743C42.6788 25.9178 42.7697 26.1864 42.8624 26.48C42.9551 26.7736 43.0193 27.0099 43.055 27.189H43.0924C43.1351 27.0099 43.2064 26.7736 43.3063 26.48C43.4061 26.1828 43.497 25.9142 43.5789 25.6743L44.8677 22.1133H45.8195L43.5897 28H42.5737ZM49.0172 22.0059C49.5162 22.0059 49.944 22.1169 50.3006 22.3389C50.6571 22.5609 50.9298 22.8724 51.1187 23.2734C51.3077 23.6709 51.4021 24.1364 51.4021 24.6699V25.2231H47.3542C47.3649 25.9142 47.5359 26.4406 47.8675 26.8022C48.1991 27.1639 48.666 27.3447 49.2686 27.3447C49.6393 27.3447 49.9672 27.3107 50.2525 27.2427C50.5376 27.1746 50.8335 27.0744 51.1401 26.9419V27.7261C50.8442 27.8586 50.5501 27.9552 50.2578 28.0161C49.969 28.077 49.6268 28.1074 49.2311 28.1074C48.6678 28.1074 48.1759 27.9928 47.7553 27.7637C47.3381 27.5309 47.0138 27.1908 46.782 26.7432C46.5503 26.2956 46.4344 25.7477 46.4344 25.0996C46.4344 24.4658 46.5396 23.918 46.7499 23.4561C46.9638 22.9906 47.2633 22.6325 47.6483 22.3818C48.0368 22.1312 48.4932 22.0059 49.0172 22.0059ZM49.0065 22.7363C48.5324 22.7363 48.1545 22.8921 47.8729 23.2036C47.5912 23.5151 47.4236 23.9502 47.3702 24.5088H50.4717C50.4681 24.1579 50.4129 23.8499 50.3059 23.585C50.2025 23.3164 50.0439 23.1087 49.83 22.9619C49.6161 22.8115 49.3416 22.7363 49.0065 22.7363ZM54.9955 28.1074C54.254 28.1074 53.6658 27.8532 53.2309 27.3447C52.7996 26.8363 52.5839 26.0807 52.5839 25.0781C52.5839 24.0648 52.8049 23.3003 53.247 22.7847C53.689 22.2655 54.2772 22.0059 55.0115 22.0059C55.3217 22.0059 55.5926 22.047 55.8243 22.1294C56.0561 22.2118 56.2557 22.3228 56.4232 22.4624C56.5908 22.5985 56.7316 22.7542 56.8457 22.9297H56.9099C56.8955 22.8187 56.8813 22.6665 56.8671 22.4731C56.8528 22.2798 56.8457 22.1222 56.8457 22.0005V19.6426H57.7333V28H57.0168L56.8831 27.1621H56.8457C56.7352 27.3376 56.5944 27.4969 56.4232 27.6401C56.2557 27.7834 56.0543 27.8979 55.819 27.9839C55.5873 28.0662 55.3128 28.1074 54.9955 28.1074ZM55.1346 27.3662C55.762 27.3662 56.2058 27.1872 56.4661 26.8291C56.7263 26.471 56.8564 25.9393 56.8564 25.2339V25.0728C56.8564 24.3244 56.7316 23.7497 56.4821 23.3486C56.2361 22.9476 55.7869 22.7471 55.1346 22.7471C54.5891 22.7471 54.1809 22.9583 53.91 23.3809C53.639 23.7998 53.5036 24.3727 53.5036 25.0996C53.5036 25.8229 53.6373 26.3815 53.9046 26.7754C54.1755 27.1693 54.5855 27.3662 55.1346 27.3662ZM69.3745 24.063C69.3745 24.6681 69.2978 25.2196 69.1445 25.7173C68.9913 26.2114 68.7631 26.6375 68.4601 26.9956C68.1606 27.3501 67.7881 27.624 67.3425 27.8174C66.8969 28.0107 66.38 28.1074 65.7918 28.1074C65.1857 28.1074 64.6564 28.0107 64.2036 27.8174C63.7545 27.624 63.3801 27.3483 63.0807 26.9902C62.7848 26.6322 62.562 26.2043 62.4122 25.7065C62.2661 25.2088 62.193 24.6574 62.193 24.0522C62.193 23.2502 62.3249 22.5465 62.5887 21.9414C62.8525 21.3363 63.2518 20.8654 63.7865 20.5288C64.3248 20.1922 64.9985 20.0239 65.8078 20.0239C66.5814 20.0239 67.232 20.1904 67.7596 20.5234C68.2907 20.8564 68.6918 21.3255 68.9627 21.9307C69.2372 22.5322 69.3745 23.243 69.3745 24.063ZM63.1502 24.063C63.1502 24.729 63.2446 25.3055 63.4336 25.7925C63.6226 26.2795 63.9113 26.6554 64.2998 26.9204C64.692 27.1854 65.1893 27.3179 65.7918 27.3179C66.3978 27.3179 66.8933 27.1854 67.2783 26.9204C67.6669 26.6554 67.9539 26.2795 68.1393 25.7925C68.3247 25.3055 68.4173 24.729 68.4173 24.063C68.4173 23.0496 68.2052 22.2583 67.781 21.689C67.3603 21.116 66.7026 20.8296 65.8078 20.8296C65.2017 20.8296 64.7027 20.9603 64.3106 21.2217C63.9184 21.4831 63.6261 21.8555 63.4336 22.3389C63.2446 22.8187 63.1502 23.3934 63.1502 24.063ZM73.7593 22.0059C74.4544 22.0059 74.9803 22.1777 75.3368 22.5215C75.6932 22.8617 75.8715 23.4095 75.8715 24.165V28H74.9945V24.2241C74.9945 23.7336 74.8822 23.3665 74.6576 23.123C74.4366 22.8796 74.0962 22.7578 73.6362 22.7578C72.9875 22.7578 72.5312 22.9422 72.2673 23.311C72.0036 23.6799 71.8717 24.2152 71.8717 24.917V28H70.984V22.1133H71.7005L71.8343 22.9619H71.8823C72.0072 22.7542 72.1658 22.5806 72.3583 22.4409C72.5508 22.2977 72.7665 22.1903 73.0053 22.1187C73.2442 22.0435 73.4955 22.0059 73.7593 22.0059ZM86.8869 23.9985C86.8869 24.883 86.7266 25.6224 86.4057 26.2168C86.0849 26.8076 85.6197 27.2534 85.0101 27.5542C84.404 27.8514 83.6679 28 82.8016 28H80.6787V20.1475H83.0369C83.8318 20.1475 84.5163 20.2943 85.0902 20.5879C85.6642 20.8779 86.1062 21.3094 86.4164 21.8823C86.7302 22.4517 86.8869 23.1571 86.8869 23.9985ZM85.9298 24.0308C85.9298 23.3254 85.8121 22.7435 85.5769 22.2852C85.3452 21.8268 85.0029 21.4867 84.5502 21.2646C84.101 21.0391 83.5503 20.9263 82.8979 20.9263H81.5878V27.2158H82.6947C83.7713 27.2158 84.5787 26.9491 85.117 26.4155C85.6589 25.882 85.9298 25.0871 85.9298 24.0308ZM89.3788 22.1133V28H88.4911V22.1133H89.3788ZM88.9457 19.9111C89.0919 19.9111 89.2166 19.9595 89.32 20.0561C89.427 20.1492 89.4804 20.2961 89.4804 20.4966C89.4804 20.6935 89.427 20.8403 89.32 20.937C89.2166 21.0337 89.0919 21.082 88.9457 21.082C88.7924 21.082 88.6641 21.0337 88.5607 20.937C88.4609 20.8403 88.411 20.6935 88.411 20.4966C88.411 20.2961 88.4609 20.1492 88.5607 20.0561C88.6641 19.9595 88.7924 19.9111 88.9457 19.9111ZM93.5177 22.0059C94.0168 22.0059 94.4446 22.1169 94.801 22.3389C95.1575 22.5609 95.4302 22.8724 95.6191 23.2734C95.8081 23.6709 95.9026 24.1364 95.9026 24.6699V25.2231H91.8547C91.8653 25.9142 92.0365 26.4406 92.368 26.8022C92.6995 27.1639 93.1665 27.3447 93.769 27.3447C94.1397 27.3447 94.4677 27.3107 94.7529 27.2427C95.0381 27.1746 95.334 27.0744 95.6405 26.9419V27.7261C95.3447 27.8586 95.0506 27.9552 94.7583 28.0161C94.4695 28.077 94.1273 28.1074 93.7315 28.1074C93.1683 28.1074 92.6763 27.9928 92.2557 27.7637C91.8386 27.5309 91.5142 27.1908 91.2825 26.7432C91.0507 26.2956 90.9349 25.7477 90.9349 25.0996C90.9349 24.4658 91.0401 23.918 91.2504 23.4561C91.4643 22.9906 91.7638 22.6325 92.1488 22.3818C92.5373 22.1312 92.9936 22.0059 93.5177 22.0059ZM93.5069 22.7363C93.0328 22.7363 92.6549 22.8921 92.3734 23.2036C92.0917 23.5151 91.9242 23.9502 91.8707 24.5088H94.9721C94.9685 24.1579 94.9133 23.8499 94.8064 23.585C94.703 23.3164 94.5443 23.1087 94.3305 22.9619C94.1165 22.8115 93.842 22.7363 93.5069 22.7363ZM103.731 20.8403C103.3 20.8403 102.911 20.9155 102.565 21.0659C102.223 21.2127 101.931 21.4276 101.688 21.7104C101.449 21.9897 101.266 22.3281 101.138 22.7256C101.009 23.123 100.945 23.5706 100.945 24.0684C100.945 24.7272 101.047 25.3001 101.25 25.7871C101.456 26.2705 101.763 26.6447 102.17 26.9097C102.579 27.1746 103.091 27.3071 103.704 27.3071C104.054 27.3071 104.381 27.2785 104.688 27.2212C104.998 27.1603 105.299 27.0851 105.592 26.9956V27.7905C105.307 27.8979 105.007 27.9767 104.694 28.0269C104.38 28.0806 104.007 28.1074 103.576 28.1074C102.781 28.1074 102.116 27.9427 101.582 27.6133C101.05 27.2803 100.651 26.8112 100.384 26.2061C100.12 25.6009 99.9877 24.8866 99.9877 24.063C99.9877 23.4686 100.07 22.9261 100.234 22.4355C100.402 21.9414 100.644 21.5153 100.961 21.1572C101.282 20.7991 101.674 20.5234 102.137 20.3301C102.604 20.1331 103.14 20.0347 103.742 20.0347C104.137 20.0347 104.519 20.0741 104.886 20.1528C105.253 20.2316 105.585 20.3444 105.881 20.4912L105.517 21.2646C105.267 21.1501 104.993 21.0516 104.694 20.9692C104.398 20.8833 104.077 20.8403 103.731 20.8403ZM111.992 22.1133V28H111.266L111.137 27.1729H111.089C110.968 27.377 110.811 27.5488 110.618 27.6885C110.426 27.8281 110.208 27.932 109.966 28C109.727 28.0716 109.473 28.1074 109.202 28.1074C108.738 28.1074 108.35 28.0322 108.036 27.8818C107.722 27.7314 107.484 27.4987 107.324 27.1836C107.168 26.8685 107.089 26.4639 107.089 25.9697V22.1133H107.987V25.9053C107.987 26.3958 108.098 26.7629 108.319 27.0063C108.54 27.2463 108.877 27.3662 109.329 27.3662C109.764 27.3662 110.111 27.2839 110.367 27.1191C110.627 26.9544 110.815 26.7127 110.928 26.394C111.043 26.0718 111.099 25.6779 111.099 25.2124V22.1133H111.992ZM115.763 27.377C115.909 27.377 116.058 27.3644 116.212 27.3394C116.365 27.3143 116.489 27.2839 116.586 27.248V27.9409C116.482 27.9875 116.338 28.0269 116.153 28.0591C115.971 28.0913 115.792 28.1074 115.618 28.1074C115.308 28.1074 115.027 28.0537 114.773 27.9463C114.52 27.8353 114.317 27.6491 114.164 27.3877C114.014 27.1263 113.939 26.7646 113.939 26.3027V22.8115H113.104V22.3765L113.945 22.0273L114.297 20.749H114.832V22.1133H116.548V22.8115H114.832V26.2759C114.832 26.6447 114.916 26.9204 115.084 27.103C115.255 27.2856 115.481 27.377 115.763 27.377ZM119.666 27.377C119.813 27.377 119.962 27.3644 120.115 27.3394C120.269 27.3143 120.393 27.2839 120.49 27.248V27.9409C120.386 27.9875 120.242 28.0269 120.057 28.0591C119.874 28.0913 119.696 28.1074 119.522 28.1074C119.211 28.1074 118.93 28.0537 118.677 27.9463C118.424 27.8353 118.221 27.6491 118.067 27.3877C117.917 27.1263 117.842 26.7646 117.842 26.3027V22.8115H117.008V22.3765L117.848 22.0273L118.201 20.749H118.735V22.1133H120.452V22.8115H118.735V26.2759C118.735 26.6447 118.819 26.9204 118.987 27.103C119.159 27.2856 119.385 27.377 119.666 27.377ZM122.564 22.1133V28H121.676V22.1133H122.564ZM122.131 19.9111C122.278 19.9111 122.402 19.9595 122.506 20.0561C122.612 20.1492 122.666 20.2961 122.666 20.4966C122.666 20.6935 122.612 20.8403 122.506 20.937C122.402 21.0337 122.278 21.082 122.131 21.082C121.978 21.082 121.85 21.0337 121.746 20.937C121.646 20.8403 121.597 20.6935 121.597 20.4966C121.597 20.2961 121.646 20.1492 121.746 20.0561C121.85 19.9595 121.978 19.9111 122.131 19.9111ZM127.222 22.0059C127.917 22.0059 128.443 22.1777 128.8 22.5215C129.156 22.8617 129.334 23.4095 129.334 24.165V28H128.457V24.2241C128.457 23.7336 128.345 23.3665 128.121 23.123C127.9 22.8796 127.559 22.7578 127.099 22.7578C126.45 22.7578 125.994 22.9422 125.73 23.311C125.466 23.6799 125.334 24.2152 125.334 24.917V28H124.447V22.1133H125.163L125.297 22.9619H125.345C125.469 22.7542 125.629 22.5806 125.821 22.4409C126.013 22.2977 126.229 22.1903 126.468 22.1187C126.707 22.0435 126.958 22.0059 127.222 22.0059ZM132.799 30.6426C132.029 30.6426 131.436 30.4976 131.019 30.2075C130.602 29.9211 130.393 29.5182 130.393 28.999C130.393 28.6302 130.509 28.3151 130.74 28.0537C130.976 27.7923 131.301 27.6187 131.714 27.5327C131.56 27.4611 131.428 27.3537 131.317 27.2104C131.211 27.0672 131.157 26.9025 131.157 26.7163C131.157 26.5015 131.216 26.3135 131.334 26.1523C131.455 25.9876 131.639 25.8301 131.885 25.6797C131.578 25.5544 131.328 25.3431 131.136 25.0459C130.947 24.7451 130.853 24.396 130.853 23.9985C130.853 23.576 130.94 23.2161 131.114 22.9189C131.29 22.6182 131.542 22.389 131.874 22.2314C132.206 22.0739 132.607 21.9951 133.078 21.9951C133.18 21.9951 133.284 22.0005 133.387 22.0112C133.494 22.0184 133.596 22.0309 133.692 22.0488C133.789 22.0632 133.872 22.0811 133.944 22.1025H135.954V22.6772L134.874 22.8115C134.981 22.9512 135.07 23.1195 135.141 23.3164C135.212 23.5133 135.248 23.7318 135.248 23.9717C135.248 24.5589 135.05 25.0262 134.655 25.3735C134.259 25.7173 133.715 25.8892 133.024 25.8892C132.86 25.8892 132.692 25.8748 132.521 25.8462C132.346 25.9429 132.212 26.0503 132.12 26.1685C132.031 26.2866 131.987 26.4227 131.987 26.5767C131.987 26.6912 132.02 26.7826 132.088 26.8506C132.159 26.9186 132.261 26.9688 132.393 27.001C132.525 27.0296 132.683 27.0439 132.869 27.0439H133.901C134.539 27.0439 135.027 27.1782 135.365 27.4468C135.708 27.7153 135.879 28.1074 135.879 28.623C135.879 29.2747 135.615 29.7743 135.088 30.1216C134.56 30.4689 133.797 30.6426 132.799 30.6426ZM132.826 29.9443C133.311 29.9443 133.712 29.8942 134.029 29.7939C134.35 29.6973 134.589 29.5558 134.745 29.3696C134.906 29.187 134.986 28.9686 134.986 28.7144C134.986 28.478 134.932 28.299 134.826 28.1772C134.718 28.0591 134.562 27.9803 134.355 27.9409C134.149 27.8979 133.895 27.8765 133.596 27.8765H132.58C132.316 27.8765 132.086 27.9176 131.89 28C131.694 28.0824 131.542 28.2041 131.436 28.3652C131.332 28.5264 131.281 28.7269 131.281 28.9668C131.281 29.2855 131.414 29.5272 131.682 29.6919C131.949 29.8602 132.33 29.9443 132.826 29.9443ZM133.056 25.2393C133.48 25.2393 133.799 25.1318 134.012 24.917C134.227 24.7021 134.334 24.3888 134.334 23.9771C134.334 23.5366 134.226 23.2072 134.008 22.9888C133.79 22.7668 133.469 22.6558 133.045 22.6558C132.639 22.6558 132.325 22.7703 132.104 22.9995C131.887 23.2251 131.777 23.5563 131.777 23.9932C131.777 24.3942 131.888 24.7021 132.109 24.917C132.33 25.1318 132.646 25.2393 133.056 25.2393ZM144.499 25.9106C144.499 26.3761 144.383 26.7736 144.151 27.103C143.923 27.4289 143.603 27.6777 143.189 27.8496C142.776 28.0215 142.289 28.1074 141.729 28.1074C141.434 28.1074 141.154 28.0931 140.89 28.0645C140.626 28.0358 140.383 27.9946 140.162 27.9409C139.941 27.8872 139.747 27.821 139.58 27.7422V26.8667C139.847 26.9777 140.173 27.0815 140.558 27.1782C140.943 27.2713 141.346 27.3179 141.767 27.3179C142.158 27.3179 142.49 27.266 142.762 27.1621C143.032 27.0547 143.237 26.9025 143.376 26.7056C143.518 26.505 143.59 26.2651 143.59 25.9858C143.59 25.7173 143.531 25.4935 143.414 25.3145C143.296 25.1318 143.1 24.9671 142.825 24.8203C142.555 24.6699 142.183 24.5106 141.713 24.3423C141.382 24.2241 141.089 24.0952 140.836 23.9556C140.583 23.8123 140.371 23.6512 140.2 23.4722C140.029 23.2931 139.898 23.0854 139.81 22.8491C139.724 22.6128 139.681 22.3424 139.681 22.0381C139.681 21.6191 139.786 21.2611 139.997 20.9639C140.211 20.6631 140.505 20.4339 140.879 20.2764C141.257 20.1152 141.69 20.0347 142.178 20.0347C142.595 20.0347 142.981 20.0741 143.333 20.1528C143.689 20.2316 144.016 20.3372 144.312 20.4697L144.029 21.2539C143.747 21.1357 143.448 21.0373 143.13 20.9585C142.816 20.8797 142.492 20.8403 142.157 20.8403C141.822 20.8403 141.538 20.8905 141.307 20.9907C141.078 21.0874 140.904 21.2253 140.782 21.4043C140.662 21.5833 140.601 21.7964 140.601 22.0435C140.601 22.3192 140.658 22.5483 140.772 22.731C140.89 22.9136 141.075 23.0765 141.328 23.2197C141.585 23.3594 141.923 23.5062 142.344 23.6602C142.804 23.8285 143.195 24.0075 143.515 24.1973C143.836 24.3835 144.08 24.6126 144.248 24.8848C144.415 25.1533 144.499 25.4953 144.499 25.9106ZM150.804 22.1133V28H150.076L149.948 27.1729H149.9C149.778 27.377 149.622 27.5488 149.429 27.6885C149.237 27.8281 149.02 27.932 148.777 28C148.538 28.0716 148.283 28.1074 148.012 28.1074C147.548 28.1074 147.16 28.0322 146.846 27.8818C146.533 27.7314 146.296 27.4987 146.136 27.1836C145.978 26.8685 145.9 26.4639 145.9 25.9697V22.1133H146.799V25.9053C146.799 26.3958 146.909 26.7629 147.13 27.0063C147.351 27.2463 147.688 27.3662 148.141 27.3662C148.576 27.3662 148.921 27.2839 149.178 27.1191C149.438 26.9544 149.625 26.7127 149.74 26.394C149.853 26.0718 149.911 25.6779 149.911 25.2124V22.1133H150.804ZM155.434 22.0059C156.165 22.0059 156.748 22.2583 157.183 22.7632C157.618 23.2681 157.836 24.0272 157.836 25.0405C157.836 25.7101 157.735 26.2723 157.536 26.7271C157.336 27.1818 157.055 27.5256 156.691 27.7583C156.331 27.991 155.905 28.1074 155.413 28.1074C155.103 28.1074 154.83 28.0662 154.595 27.9839C154.359 27.9015 154.158 27.7905 153.991 27.6509C153.823 27.5112 153.684 27.359 153.574 27.1943H153.509C153.52 27.334 153.533 27.5023 153.547 27.6992C153.565 27.8962 153.574 28.068 153.574 28.2148V30.6318H152.681V22.1133H153.413L153.531 22.9834H153.574C153.688 22.8044 153.826 22.6414 153.991 22.4946C154.155 22.3442 154.354 22.2261 154.589 22.1401C154.828 22.0506 155.11 22.0059 155.434 22.0059ZM155.279 22.7578C154.873 22.7578 154.545 22.8366 154.295 22.9941C154.049 23.1517 153.869 23.388 153.756 23.7031C153.641 24.0146 153.581 24.4067 153.574 24.8794V25.0513C153.574 25.549 153.627 25.9697 153.734 26.3135C153.844 26.6572 154.025 26.9186 154.274 27.0977C154.527 27.2767 154.866 27.3662 155.29 27.3662C155.653 27.3662 155.957 27.2677 156.199 27.0708C156.442 26.8739 156.621 26.5999 156.739 26.249C156.86 25.8945 156.921 25.4881 156.921 25.0298C156.921 24.3351 156.785 23.7837 156.514 23.3755C156.247 22.9637 155.836 22.7578 155.279 22.7578ZM162.139 22.0059C162.87 22.0059 163.454 22.2583 163.889 22.7632C164.324 23.2681 164.541 24.0272 164.541 25.0405C164.541 25.7101 164.441 26.2723 164.241 26.7271C164.042 27.1818 163.76 27.5256 163.397 27.7583C163.036 27.991 162.61 28.1074 162.119 28.1074C161.808 28.1074 161.535 28.0662 161.3 27.9839C161.065 27.9015 160.864 27.7905 160.696 27.6509C160.529 27.5112 160.389 27.359 160.279 27.1943H160.215C160.226 27.334 160.238 27.5023 160.252 27.6992C160.27 27.8962 160.279 28.068 160.279 28.2148V30.6318H159.386V22.1133H160.118L160.236 22.9834H160.279C160.393 22.8044 160.533 22.6414 160.696 22.4946C160.86 22.3442 161.059 22.2261 161.295 22.1401C161.534 22.0506 161.816 22.0059 162.139 22.0059ZM161.985 22.7578C161.578 22.7578 161.25 22.8366 161.001 22.9941C160.755 23.1517 160.574 23.388 160.461 23.7031C160.346 24.0146 160.286 24.4067 160.279 24.8794V25.0513C160.279 25.549 160.333 25.9697 160.439 26.3135C160.55 26.6572 160.73 26.9186 160.98 27.0977C161.233 27.2767 161.571 27.3662 161.995 27.3662C162.36 27.3662 162.662 27.2677 162.904 27.0708C163.147 26.8739 163.327 26.5999 163.445 26.249C163.566 25.8945 163.627 25.4881 163.627 25.0298C163.627 24.3351 163.491 23.7837 163.22 23.3755C162.953 22.9637 162.541 22.7578 161.985 22.7578ZM166.985 28H166.092V19.6426H166.985V28ZM169.749 22.1133V28H168.862V22.1133H169.749ZM169.316 19.9111C169.462 19.9111 169.587 19.9595 169.69 20.0561C169.797 20.1492 169.851 20.2961 169.851 20.4966C169.851 20.6935 169.797 20.8403 169.69 20.937C169.587 21.0337 169.462 21.082 169.316 21.082C169.162 21.082 169.035 21.0337 168.931 20.937C168.831 20.8403 168.781 20.6935 168.781 20.4966C168.781 20.2961 168.831 20.1492 168.931 20.0561C169.035 19.9595 169.162 19.9111 169.316 19.9111ZM173.888 22.0059C174.387 22.0059 174.815 22.1169 175.172 22.3389C175.528 22.5609 175.801 22.8724 175.99 23.2734C176.178 23.6709 176.273 24.1364 176.273 24.6699V25.2231H172.225C172.236 25.9142 172.407 26.4406 172.738 26.8022C173.07 27.1639 173.537 27.3447 174.139 27.3447C174.511 27.3447 174.838 27.3107 175.123 27.2427C175.409 27.1746 175.704 27.0744 176.011 26.9419V27.7261C175.715 27.8586 175.42 27.9552 175.129 28.0161C174.84 28.077 174.498 28.1074 174.102 28.1074C173.539 28.1074 173.047 27.9928 172.626 27.7637C172.209 27.5309 171.884 27.1908 171.653 26.7432C171.421 26.2956 171.305 25.7477 171.305 25.0996C171.305 24.4658 171.41 23.918 171.62 23.4561C171.834 22.9906 172.134 22.6325 172.519 22.3818C172.908 22.1312 173.364 22.0059 173.888 22.0059ZM173.877 22.7363C173.403 22.7363 173.025 22.8921 172.743 23.2036C172.462 23.5151 172.294 23.9502 172.241 24.5088H175.343C175.339 24.1579 175.284 23.8499 175.177 23.585C175.073 23.3164 174.915 23.1087 174.701 22.9619C174.487 22.8115 174.213 22.7363 173.877 22.7363ZM181.572 26.3887C181.572 26.7646 181.478 27.0815 181.288 27.3394C181.103 27.5936 180.836 27.7852 180.487 27.9141C180.14 28.043 179.727 28.1074 179.246 28.1074C178.836 28.1074 178.481 28.0752 178.182 28.0107C177.883 27.9463 177.621 27.855 177.396 27.7368V26.915C177.635 27.0332 177.92 27.1406 178.252 27.2373C178.583 27.334 178.922 27.3823 179.267 27.3823C179.773 27.3823 180.14 27.3 180.368 27.1353C180.597 26.9705 180.711 26.7467 180.711 26.4639C180.711 26.3027 180.665 26.1613 180.573 26.0396C180.483 25.9142 180.332 25.7943 180.118 25.6797C179.904 25.5615 179.608 25.4326 179.23 25.293C178.855 25.1497 178.532 25.0083 178.257 24.8687C177.986 24.7254 177.775 24.5518 177.626 24.3477C177.479 24.1436 177.407 23.8786 177.407 23.5527C177.407 23.055 177.606 22.6737 178.005 22.4087C178.408 22.1401 178.936 22.0059 179.588 22.0059C179.941 22.0059 180.271 22.0417 180.578 22.1133C180.887 22.1813 181.177 22.2744 181.444 22.3926L181.144 23.1069C180.902 23.0031 180.643 22.9154 180.368 22.8438C180.095 22.7721 179.815 22.7363 179.529 22.7363C179.119 22.7363 178.804 22.8044 178.583 22.9404C178.365 23.0765 178.257 23.2627 178.257 23.499C178.257 23.6816 178.307 23.832 178.406 23.9502C178.51 24.0684 178.674 24.1794 178.898 24.2832C179.123 24.387 179.419 24.5088 179.786 24.6484C180.153 24.7845 180.471 24.9259 180.738 25.0728C181.006 25.216 181.211 25.3914 181.353 25.5991C181.499 25.8032 181.572 26.0664 181.572 26.3887ZM188.379 28H187.465V20.9531H185.005V20.1475H190.828V20.9531H188.379V28ZM196.93 25.0459C196.93 25.5293 196.867 25.9608 196.743 26.3403C196.617 26.7199 196.438 27.0404 196.202 27.3018C195.967 27.5632 195.682 27.7637 195.347 27.9033C195.015 28.0394 194.639 28.1074 194.219 28.1074C193.827 28.1074 193.466 28.0394 193.139 27.9033C192.814 27.7637 192.532 27.5632 192.293 27.3018C192.059 27.0404 191.874 26.7199 191.743 26.3403C191.614 25.9608 191.55 25.5293 191.55 25.0459C191.55 24.4014 191.659 23.8535 191.876 23.4023C192.093 22.9476 192.404 22.6021 192.807 22.3657C193.213 22.1258 193.696 22.0059 194.256 22.0059C194.79 22.0059 195.257 22.1258 195.657 22.3657C196.06 22.6056 196.371 22.953 196.592 23.4077C196.817 23.8589 196.93 24.4049 196.93 25.0459ZM192.47 25.0459C192.47 25.5186 192.532 25.9285 192.657 26.2759C192.782 26.6232 192.974 26.8918 193.234 27.0815C193.495 27.2713 193.83 27.3662 194.24 27.3662C194.646 27.3662 194.98 27.2713 195.239 27.0815C195.503 26.8918 195.698 26.6232 195.823 26.2759C195.947 25.9285 196.01 25.5186 196.01 25.0459C196.01 24.5768 195.947 24.1722 195.823 23.832C195.698 23.4883 195.505 23.2233 195.245 23.0371C194.985 22.8509 194.648 22.7578 194.235 22.7578C193.625 22.7578 193.178 22.9601 192.893 23.3647C192.611 23.7694 192.47 24.3298 192.47 25.0459ZM200.55 28.1074C199.808 28.1074 199.22 27.8532 198.786 27.3447C198.354 26.8363 198.138 26.0807 198.138 25.0781C198.138 24.0648 198.36 23.3003 198.802 22.7847C199.244 22.2655 199.831 22.0059 200.566 22.0059C200.876 22.0059 201.147 22.047 201.379 22.1294C201.61 22.2118 201.81 22.3228 201.977 22.4624C202.145 22.5985 202.286 22.7542 202.4 22.9297H202.464C202.45 22.8187 202.435 22.6665 202.421 22.4731C202.408 22.2798 202.4 22.1222 202.4 22.0005V19.6426H203.288V28H202.571L202.437 27.1621H202.4C202.289 27.3376 202.149 27.4969 201.977 27.6401C201.81 27.7834 201.608 27.8979 201.373 27.9839C201.141 28.0662 200.867 28.1074 200.55 28.1074ZM200.689 27.3662C201.316 27.3662 201.76 27.1872 202.02 26.8291C202.28 26.471 202.411 25.9393 202.411 25.2339V25.0728C202.411 24.3244 202.286 23.7497 202.036 23.3486C201.79 22.9476 201.341 22.7471 200.689 22.7471C200.144 22.7471 199.735 22.9583 199.465 23.3809C199.194 23.7998 199.057 24.3727 199.057 25.0996C199.057 25.8229 199.192 26.3815 199.459 26.7754C199.729 27.1693 200.14 27.3662 200.689 27.3662ZM207.363 22.0166C208.061 22.0166 208.58 22.1742 208.919 22.4893C209.257 22.8044 209.426 23.3075 209.426 23.9985V28H208.779L208.608 27.1299H208.565C208.402 27.3447 208.231 27.5256 208.052 27.6724C207.874 27.8156 207.667 27.9248 207.432 28C207.2 28.0716 206.914 28.1074 206.576 28.1074C206.22 28.1074 205.902 28.0448 205.624 27.9194C205.349 27.7941 205.132 27.6043 204.972 27.3501C204.815 27.0959 204.737 26.7736 204.737 26.3833C204.737 25.7961 204.968 25.3449 205.432 25.0298C205.895 24.7147 206.601 24.5428 207.55 24.5142L208.56 24.4712V24.1113C208.56 23.6029 208.452 23.2466 208.234 23.0425C208.017 22.8384 207.71 22.7363 207.314 22.7363C207.007 22.7363 206.715 22.7811 206.438 22.8706C206.159 22.9601 205.895 23.0658 205.646 23.1875L205.373 22.5107C205.637 22.3747 205.94 22.2583 206.282 22.1616C206.625 22.0649 206.984 22.0166 207.363 22.0166ZM208.549 25.0996L207.656 25.1372C206.925 25.1659 206.411 25.2858 206.111 25.4971C205.811 25.7083 205.662 26.0073 205.662 26.394C205.662 26.7306 205.764 26.9795 205.967 27.1406C206.17 27.3018 206.439 27.3823 206.774 27.3823C207.295 27.3823 207.721 27.2373 208.052 26.9473C208.384 26.6572 208.549 26.2222 208.549 25.6421V25.0996ZM210.33 22.1133H211.282L212.576 25.5293C212.651 25.7298 212.721 25.9232 212.784 26.1094C212.849 26.292 212.906 26.4674 212.956 26.6357C213.005 26.804 213.044 26.967 213.073 27.1245H213.111C213.161 26.9455 213.231 26.7109 213.325 26.4209C213.418 26.1273 213.517 25.8283 213.624 25.5239L214.848 22.1133H215.806L213.255 28.8647C213.12 29.2264 212.961 29.5415 212.779 29.8101C212.601 30.0786 212.383 30.2845 212.126 30.4277C211.87 30.5745 211.56 30.6479 211.196 30.6479C211.029 30.6479 210.881 30.6372 210.752 30.6157C210.624 30.5978 210.513 30.5763 210.421 30.5513V29.8369C210.5 29.8548 210.594 29.8709 210.705 29.8853C210.818 29.8996 210.936 29.9067 211.057 29.9067C211.278 29.9067 211.469 29.8638 211.63 29.7778C211.794 29.6955 211.934 29.5737 212.052 29.4126C212.169 29.2515 212.271 29.0599 212.356 28.8379L212.678 28.0107L210.33 22.1133ZM217.543 25.8193H216.961L216.715 20.1475H217.789L217.543 25.8193ZM216.607 27.4414C216.607 27.1908 216.668 27.0135 216.79 26.9097C216.911 26.8022 217.062 26.7485 217.245 26.7485C217.423 26.7485 217.572 26.8022 217.694 26.9097C217.818 27.0135 217.881 27.1908 217.881 27.4414C217.881 27.6885 217.818 27.8693 217.694 27.9839C217.572 28.0949 217.423 28.1504 217.245 28.1504C217.062 28.1504 216.911 28.0949 216.79 27.9839C216.668 27.8693 216.607 27.6885 216.607 27.4414Z" fill="#7F7F7F" fill-opacity="0.7"/>
</g>
<g style="mix-blend-mode:overlay">
<path d="M9.04058 24.0845L11.1207 20.1475H12.0993L9.4951 24.9546V28H8.58605V24.9976L5.97656 20.1475H6.97116L9.04058 24.0845ZM18.0936 25.0459C18.0936 25.5293 18.0312 25.9608 17.9064 26.3403C17.7817 26.7199 17.6017 27.0404 17.3663 27.3018C17.1311 27.5632 16.8459 27.7637 16.5108 27.9033C16.1792 28.0394 15.8032 28.1074 15.3826 28.1074C14.9904 28.1074 14.6303 28.0394 14.3024 27.9033C13.9779 27.7637 13.6964 27.5632 13.4575 27.3018C13.2222 27.0404 13.0386 26.7199 12.9067 26.3403C12.7783 25.9608 12.7142 25.5293 12.7142 25.0459C12.7142 24.4014 12.8229 23.8535 13.0404 23.4023C13.2578 22.9476 13.568 22.6021 13.9708 22.3657C14.3772 22.1258 14.8603 22.0059 15.42 22.0059C15.9547 22.0059 16.4216 22.1258 16.821 22.3657C17.2238 22.6056 17.5357 22.953 17.7567 23.4077C17.9813 23.8589 18.0936 24.4049 18.0936 25.0459ZM13.6339 25.0459C13.6339 25.5186 13.6964 25.9285 13.8211 26.2759C13.9458 26.6232 14.1384 26.8918 14.3986 27.0815C14.6589 27.2713 14.994 27.3662 15.4039 27.3662C15.8103 27.3662 16.1436 27.2713 16.4038 27.0815C16.6676 26.8918 16.862 26.6232 16.9867 26.2759C17.1115 25.9285 17.1739 25.5186 17.1739 25.0459C17.1739 24.5768 17.1115 24.1722 16.9867 23.832C16.862 23.4883 16.6694 23.2233 16.4092 23.0371C16.149 22.8509 15.812 22.7578 15.3986 22.7578C14.789 22.7578 14.3416 22.9601 14.0564 23.3647C13.7747 23.7694 13.6339 24.3298 13.6339 25.0459ZM24.4676 22.1133V28H23.7404L23.6121 27.1729H23.5639C23.4427 27.377 23.2858 27.5488 23.0934 27.6885C22.9008 27.8281 22.6834 27.932 22.441 28C22.2021 28.0716 21.9473 28.1074 21.6763 28.1074C21.2128 28.1074 20.8243 28.0322 20.5106 27.8818C20.1969 27.7314 19.9598 27.4987 19.7994 27.1836C19.6425 26.8685 19.5641 26.4639 19.5641 25.9697V22.1133H20.4625V25.9053C20.4625 26.3958 20.573 26.7629 20.794 27.0063C21.015 27.2463 21.3519 27.3662 21.8046 27.3662C22.2396 27.3662 22.5853 27.2839 22.842 27.1191C23.1022 26.9544 23.2894 26.7127 23.4035 26.394C23.5176 26.0718 23.5746 25.6779 23.5746 25.2124V22.1133H24.4676ZM33.7345 25.9106C33.7345 26.3761 33.6187 26.7736 33.3869 27.103C33.1588 27.4289 32.838 27.6777 32.4244 27.8496C32.011 28.0215 31.5243 28.1074 30.9646 28.1074C30.6687 28.1074 30.3889 28.0931 30.1251 28.0645C29.8613 28.0358 29.6189 27.9946 29.3979 27.9409C29.1768 27.8872 28.9825 27.821 28.815 27.7422V26.8667C29.0824 26.9777 29.4085 27.0815 29.7936 27.1782C30.1786 27.2713 30.5814 27.3179 31.002 27.3179C31.3942 27.3179 31.7257 27.266 31.9966 27.1621C32.2676 27.0547 32.4726 26.9025 32.6116 26.7056C32.7541 26.505 32.8255 26.2651 32.8255 25.9858C32.8255 25.7173 32.7667 25.4935 32.649 25.3145C32.5314 25.1318 32.3353 24.9671 32.0608 24.8203C31.7899 24.6699 31.4192 24.5106 30.9486 24.3423C30.617 24.2241 30.3247 24.0952 30.0716 23.9556C29.8185 23.8123 29.6064 23.6512 29.4353 23.4722C29.2642 23.2931 29.134 23.0854 29.0449 22.8491C28.9594 22.6128 28.9166 22.3424 28.9166 22.0381C28.9166 21.6191 29.0217 21.2611 29.2321 20.9639C29.446 20.6631 29.74 20.4339 30.1144 20.2764C30.4923 20.1152 30.9254 20.0347 31.4138 20.0347C31.8309 20.0347 32.2159 20.0741 32.5688 20.1528C32.9253 20.2316 33.2515 20.3372 33.5474 20.4697L33.264 21.2539C32.9823 21.1357 32.6829 21.0373 32.3656 20.9585C32.0519 20.8797 31.7275 20.8403 31.3924 20.8403C31.0573 20.8403 30.774 20.8905 30.5422 20.9907C30.314 21.0874 30.1394 21.2253 30.0181 21.4043C29.8969 21.5833 29.8363 21.7964 29.8363 22.0435C29.8363 22.3192 29.8934 22.5483 30.0075 22.731C30.1251 22.9136 30.3105 23.0765 30.5636 23.2197C30.8202 23.3594 31.1589 23.5062 31.5796 23.6602C32.0394 23.8285 32.4298 24.0075 32.7507 24.1973C33.0714 24.3835 33.3157 24.6126 33.4832 24.8848C33.6508 25.1533 33.7345 25.4953 33.7345 25.9106ZM37.3921 22.0166C38.0908 22.0166 38.6095 22.1742 38.9482 22.4893C39.2868 22.8044 39.4562 23.3075 39.4562 23.9985V28H38.8091L38.638 27.1299H38.5953C38.4313 27.3447 38.2602 27.5256 38.0819 27.6724C37.9037 27.8156 37.6969 27.9248 37.4616 28C37.23 28.0716 36.9447 28.1074 36.606 28.1074C36.2496 28.1074 35.9323 28.0448 35.6543 27.9194C35.3798 27.7941 35.1622 27.6043 35.0019 27.3501C34.845 27.0959 34.7666 26.7736 34.7666 26.3833C34.7666 25.7961 34.9983 25.3449 35.4617 25.0298C35.9252 24.7147 36.631 24.5428 37.5793 24.5142L38.5899 24.4712V24.1113C38.5899 23.6029 38.4812 23.2466 38.2638 23.0425C38.0462 22.8384 37.7397 22.7363 37.344 22.7363C37.0374 22.7363 36.7451 22.7811 36.467 22.8706C36.189 22.9601 35.9252 23.0658 35.6757 23.1875L35.4029 22.5107C35.6667 22.3747 35.9698 22.2583 36.3119 22.1616C36.6542 22.0649 37.0142 22.0166 37.3921 22.0166ZM38.5793 25.0996L37.6862 25.1372C36.9554 25.1659 36.4403 25.2858 36.1408 25.4971C35.8414 25.7083 35.6917 26.0073 35.6917 26.394C35.6917 26.7306 35.7932 26.9795 35.9964 27.1406C36.1996 27.3018 36.4688 27.3823 36.804 27.3823C37.3243 27.3823 37.7503 27.2373 38.0819 26.9473C38.4135 26.6572 38.5793 26.2222 38.5793 25.6421V25.0996ZM42.5737 28L40.3492 22.1133H41.301L42.5897 25.6743C42.6788 25.9178 42.7697 26.1864 42.8624 26.48C42.9551 26.7736 43.0193 27.0099 43.055 27.189H43.0924C43.1351 27.0099 43.2064 26.7736 43.3063 26.48C43.4061 26.1828 43.497 25.9142 43.5789 25.6743L44.8677 22.1133H45.8195L43.5897 28H42.5737ZM49.0172 22.0059C49.5162 22.0059 49.944 22.1169 50.3006 22.3389C50.6571 22.5609 50.9298 22.8724 51.1187 23.2734C51.3077 23.6709 51.4021 24.1364 51.4021 24.6699V25.2231H47.3542C47.3649 25.9142 47.5359 26.4406 47.8675 26.8022C48.1991 27.1639 48.666 27.3447 49.2686 27.3447C49.6393 27.3447 49.9672 27.3107 50.2525 27.2427C50.5376 27.1746 50.8335 27.0744 51.1401 26.9419V27.7261C50.8442 27.8586 50.5501 27.9552 50.2578 28.0161C49.969 28.077 49.6268 28.1074 49.2311 28.1074C48.6678 28.1074 48.1759 27.9928 47.7553 27.7637C47.3381 27.5309 47.0138 27.1908 46.782 26.7432C46.5503 26.2956 46.4344 25.7477 46.4344 25.0996C46.4344 24.4658 46.5396 23.918 46.7499 23.4561C46.9638 22.9906 47.2633 22.6325 47.6483 22.3818C48.0368 22.1312 48.4932 22.0059 49.0172 22.0059ZM49.0065 22.7363C48.5324 22.7363 48.1545 22.8921 47.8729 23.2036C47.5912 23.5151 47.4236 23.9502 47.3702 24.5088H50.4717C50.4681 24.1579 50.4129 23.8499 50.3059 23.585C50.2025 23.3164 50.0439 23.1087 49.83 22.9619C49.6161 22.8115 49.3416 22.7363 49.0065 22.7363ZM54.9955 28.1074C54.254 28.1074 53.6658 27.8532 53.2309 27.3447C52.7996 26.8363 52.5839 26.0807 52.5839 25.0781C52.5839 24.0648 52.8049 23.3003 53.247 22.7847C53.689 22.2655 54.2772 22.0059 55.0115 22.0059C55.3217 22.0059 55.5926 22.047 55.8243 22.1294C56.0561 22.2118 56.2557 22.3228 56.4232 22.4624C56.5908 22.5985 56.7316 22.7542 56.8457 22.9297H56.9099C56.8955 22.8187 56.8813 22.6665 56.8671 22.4731C56.8528 22.2798 56.8457 22.1222 56.8457 22.0005V19.6426H57.7333V28H57.0168L56.8831 27.1621H56.8457C56.7352 27.3376 56.5944 27.4969 56.4232 27.6401C56.2557 27.7834 56.0543 27.8979 55.819 27.9839C55.5873 28.0662 55.3128 28.1074 54.9955 28.1074ZM55.1346 27.3662C55.762 27.3662 56.2058 27.1872 56.4661 26.8291C56.7263 26.471 56.8564 25.9393 56.8564 25.2339V25.0728C56.8564 24.3244 56.7316 23.7497 56.4821 23.3486C56.2361 22.9476 55.7869 22.7471 55.1346 22.7471C54.5891 22.7471 54.1809 22.9583 53.91 23.3809C53.639 23.7998 53.5036 24.3727 53.5036 25.0996C53.5036 25.8229 53.6373 26.3815 53.9046 26.7754C54.1755 27.1693 54.5855 27.3662 55.1346 27.3662ZM69.3745 24.063C69.3745 24.6681 69.2978 25.2196 69.1445 25.7173C68.9913 26.2114 68.7631 26.6375 68.4601 26.9956C68.1606 27.3501 67.7881 27.624 67.3425 27.8174C66.8969 28.0107 66.38 28.1074 65.7918 28.1074C65.1857 28.1074 64.6564 28.0107 64.2036 27.8174C63.7545 27.624 63.3801 27.3483 63.0807 26.9902C62.7848 26.6322 62.562 26.2043 62.4122 25.7065C62.2661 25.2088 62.193 24.6574 62.193 24.0522C62.193 23.2502 62.3249 22.5465 62.5887 21.9414C62.8525 21.3363 63.2518 20.8654 63.7865 20.5288C64.3248 20.1922 64.9985 20.0239 65.8078 20.0239C66.5814 20.0239 67.232 20.1904 67.7596 20.5234C68.2907 20.8564 68.6918 21.3255 68.9627 21.9307C69.2372 22.5322 69.3745 23.243 69.3745 24.063ZM63.1502 24.063C63.1502 24.729 63.2446 25.3055 63.4336 25.7925C63.6226 26.2795 63.9113 26.6554 64.2998 26.9204C64.692 27.1854 65.1893 27.3179 65.7918 27.3179C66.3978 27.3179 66.8933 27.1854 67.2783 26.9204C67.6669 26.6554 67.9539 26.2795 68.1393 25.7925C68.3247 25.3055 68.4173 24.729 68.4173 24.063C68.4173 23.0496 68.2052 22.2583 67.781 21.689C67.3603 21.116 66.7026 20.8296 65.8078 20.8296C65.2017 20.8296 64.7027 20.9603 64.3106 21.2217C63.9184 21.4831 63.6261 21.8555 63.4336 22.3389C63.2446 22.8187 63.1502 23.3934 63.1502 24.063ZM73.7593 22.0059C74.4544 22.0059 74.9803 22.1777 75.3368 22.5215C75.6932 22.8617 75.8715 23.4095 75.8715 24.165V28H74.9945V24.2241C74.9945 23.7336 74.8822 23.3665 74.6576 23.123C74.4366 22.8796 74.0962 22.7578 73.6362 22.7578C72.9875 22.7578 72.5312 22.9422 72.2673 23.311C72.0036 23.6799 71.8717 24.2152 71.8717 24.917V28H70.984V22.1133H71.7005L71.8343 22.9619H71.8823C72.0072 22.7542 72.1658 22.5806 72.3583 22.4409C72.5508 22.2977 72.7665 22.1903 73.0053 22.1187C73.2442 22.0435 73.4955 22.0059 73.7593 22.0059ZM86.8869 23.9985C86.8869 24.883 86.7266 25.6224 86.4057 26.2168C86.0849 26.8076 85.6197 27.2534 85.0101 27.5542C84.404 27.8514 83.6679 28 82.8016 28H80.6787V20.1475H83.0369C83.8318 20.1475 84.5163 20.2943 85.0902 20.5879C85.6642 20.8779 86.1062 21.3094 86.4164 21.8823C86.7302 22.4517 86.8869 23.1571 86.8869 23.9985ZM85.9298 24.0308C85.9298 23.3254 85.8121 22.7435 85.5769 22.2852C85.3452 21.8268 85.0029 21.4867 84.5502 21.2646C84.101 21.0391 83.5503 20.9263 82.8979 20.9263H81.5878V27.2158H82.6947C83.7713 27.2158 84.5787 26.9491 85.117 26.4155C85.6589 25.882 85.9298 25.0871 85.9298 24.0308ZM89.3788 22.1133V28H88.4911V22.1133H89.3788ZM88.9457 19.9111C89.0919 19.9111 89.2166 19.9595 89.32 20.0561C89.427 20.1492 89.4804 20.2961 89.4804 20.4966C89.4804 20.6935 89.427 20.8403 89.32 20.937C89.2166 21.0337 89.0919 21.082 88.9457 21.082C88.7924 21.082 88.6641 21.0337 88.5607 20.937C88.4609 20.8403 88.411 20.6935 88.411 20.4966C88.411 20.2961 88.4609 20.1492 88.5607 20.0561C88.6641 19.9595 88.7924 19.9111 88.9457 19.9111ZM93.5177 22.0059C94.0168 22.0059 94.4446 22.1169 94.801 22.3389C95.1575 22.5609 95.4302 22.8724 95.6191 23.2734C95.8081 23.6709 95.9026 24.1364 95.9026 24.6699V25.2231H91.8547C91.8653 25.9142 92.0365 26.4406 92.368 26.8022C92.6995 27.1639 93.1665 27.3447 93.769 27.3447C94.1397 27.3447 94.4677 27.3107 94.7529 27.2427C95.0381 27.1746 95.334 27.0744 95.6405 26.9419V27.7261C95.3447 27.8586 95.0506 27.9552 94.7583 28.0161C94.4695 28.077 94.1273 28.1074 93.7315 28.1074C93.1683 28.1074 92.6763 27.9928 92.2557 27.7637C91.8386 27.5309 91.5142 27.1908 91.2825 26.7432C91.0507 26.2956 90.9349 25.7477 90.9349 25.0996C90.9349 24.4658 91.0401 23.918 91.2504 23.4561C91.4643 22.9906 91.7638 22.6325 92.1488 22.3818C92.5373 22.1312 92.9936 22.0059 93.5177 22.0059ZM93.5069 22.7363C93.0328 22.7363 92.6549 22.8921 92.3734 23.2036C92.0917 23.5151 91.9242 23.9502 91.8707 24.5088H94.9721C94.9685 24.1579 94.9133 23.8499 94.8064 23.585C94.703 23.3164 94.5443 23.1087 94.3305 22.9619C94.1165 22.8115 93.842 22.7363 93.5069 22.7363ZM103.731 20.8403C103.3 20.8403 102.911 20.9155 102.565 21.0659C102.223 21.2127 101.931 21.4276 101.688 21.7104C101.449 21.9897 101.266 22.3281 101.138 22.7256C101.009 23.123 100.945 23.5706 100.945 24.0684C100.945 24.7272 101.047 25.3001 101.25 25.7871C101.456 26.2705 101.763 26.6447 102.17 26.9097C102.579 27.1746 103.091 27.3071 103.704 27.3071C104.054 27.3071 104.381 27.2785 104.688 27.2212C104.998 27.1603 105.299 27.0851 105.592 26.9956V27.7905C105.307 27.8979 105.007 27.9767 104.694 28.0269C104.38 28.0806 104.007 28.1074 103.576 28.1074C102.781 28.1074 102.116 27.9427 101.582 27.6133C101.05 27.2803 100.651 26.8112 100.384 26.2061C100.12 25.6009 99.9877 24.8866 99.9877 24.063C99.9877 23.4686 100.07 22.9261 100.234 22.4355C100.402 21.9414 100.644 21.5153 100.961 21.1572C101.282 20.7991 101.674 20.5234 102.137 20.3301C102.604 20.1331 103.14 20.0347 103.742 20.0347C104.137 20.0347 104.519 20.0741 104.886 20.1528C105.253 20.2316 105.585 20.3444 105.881 20.4912L105.517 21.2646C105.267 21.1501 104.993 21.0516 104.694 20.9692C104.398 20.8833 104.077 20.8403 103.731 20.8403ZM111.992 22.1133V28H111.266L111.137 27.1729H111.089C110.968 27.377 110.811 27.5488 110.618 27.6885C110.426 27.8281 110.208 27.932 109.966 28C109.727 28.0716 109.473 28.1074 109.202 28.1074C108.738 28.1074 108.35 28.0322 108.036 27.8818C107.722 27.7314 107.484 27.4987 107.324 27.1836C107.168 26.8685 107.089 26.4639 107.089 25.9697V22.1133H107.987V25.9053C107.987 26.3958 108.098 26.7629 108.319 27.0063C108.54 27.2463 108.877 27.3662 109.329 27.3662C109.764 27.3662 110.111 27.2839 110.367 27.1191C110.627 26.9544 110.815 26.7127 110.928 26.394C111.043 26.0718 111.099 25.6779 111.099 25.2124V22.1133H111.992ZM115.763 27.377C115.909 27.377 116.058 27.3644 116.212 27.3394C116.365 27.3143 116.489 27.2839 116.586 27.248V27.9409C116.482 27.9875 116.338 28.0269 116.153 28.0591C115.971 28.0913 115.792 28.1074 115.618 28.1074C115.308 28.1074 115.027 28.0537 114.773 27.9463C114.52 27.8353 114.317 27.6491 114.164 27.3877C114.014 27.1263 113.939 26.7646 113.939 26.3027V22.8115H113.104V22.3765L113.945 22.0273L114.297 20.749H114.832V22.1133H116.548V22.8115H114.832V26.2759C114.832 26.6447 114.916 26.9204 115.084 27.103C115.255 27.2856 115.481 27.377 115.763 27.377ZM119.666 27.377C119.813 27.377 119.962 27.3644 120.115 27.3394C120.269 27.3143 120.393 27.2839 120.49 27.248V27.9409C120.386 27.9875 120.242 28.0269 120.057 28.0591C119.874 28.0913 119.696 28.1074 119.522 28.1074C119.211 28.1074 118.93 28.0537 118.677 27.9463C118.424 27.8353 118.221 27.6491 118.067 27.3877C117.917 27.1263 117.842 26.7646 117.842 26.3027V22.8115H117.008V22.3765L117.848 22.0273L118.201 20.749H118.735V22.1133H120.452V22.8115H118.735V26.2759C118.735 26.6447 118.819 26.9204 118.987 27.103C119.159 27.2856 119.385 27.377 119.666 27.377ZM122.564 22.1133V28H121.676V22.1133H122.564ZM122.131 19.9111C122.278 19.9111 122.402 19.9595 122.506 20.0561C122.612 20.1492 122.666 20.2961 122.666 20.4966C122.666 20.6935 122.612 20.8403 122.506 20.937C122.402 21.0337 122.278 21.082 122.131 21.082C121.978 21.082 121.85 21.0337 121.746 20.937C121.646 20.8403 121.597 20.6935 121.597 20.4966C121.597 20.2961 121.646 20.1492 121.746 20.0561C121.85 19.9595 121.978 19.9111 122.131 19.9111ZM127.222 22.0059C127.917 22.0059 128.443 22.1777 128.8 22.5215C129.156 22.8617 129.334 23.4095 129.334 24.165V28H128.457V24.2241C128.457 23.7336 128.345 23.3665 128.121 23.123C127.9 22.8796 127.559 22.7578 127.099 22.7578C126.45 22.7578 125.994 22.9422 125.73 23.311C125.466 23.6799 125.334 24.2152 125.334 24.917V28H124.447V22.1133H125.163L125.297 22.9619H125.345C125.469 22.7542 125.629 22.5806 125.821 22.4409C126.013 22.2977 126.229 22.1903 126.468 22.1187C126.707 22.0435 126.958 22.0059 127.222 22.0059ZM132.799 30.6426C132.029 30.6426 131.436 30.4976 131.019 30.2075C130.602 29.9211 130.393 29.5182 130.393 28.999C130.393 28.6302 130.509 28.3151 130.74 28.0537C130.976 27.7923 131.301 27.6187 131.714 27.5327C131.56 27.4611 131.428 27.3537 131.317 27.2104C131.211 27.0672 131.157 26.9025 131.157 26.7163C131.157 26.5015 131.216 26.3135 131.334 26.1523C131.455 25.9876 131.639 25.8301 131.885 25.6797C131.578 25.5544 131.328 25.3431 131.136 25.0459C130.947 24.7451 130.853 24.396 130.853 23.9985C130.853 23.576 130.94 23.2161 131.114 22.9189C131.29 22.6182 131.542 22.389 131.874 22.2314C132.206 22.0739 132.607 21.9951 133.078 21.9951C133.18 21.9951 133.284 22.0005 133.387 22.0112C133.494 22.0184 133.596 22.0309 133.692 22.0488C133.789 22.0632 133.872 22.0811 133.944 22.1025H135.954V22.6772L134.874 22.8115C134.981 22.9512 135.07 23.1195 135.141 23.3164C135.212 23.5133 135.248 23.7318 135.248 23.9717C135.248 24.5589 135.05 25.0262 134.655 25.3735C134.259 25.7173 133.715 25.8892 133.024 25.8892C132.86 25.8892 132.692 25.8748 132.521 25.8462C132.346 25.9429 132.212 26.0503 132.12 26.1685C132.031 26.2866 131.987 26.4227 131.987 26.5767C131.987 26.6912 132.02 26.7826 132.088 26.8506C132.159 26.9186 132.261 26.9688 132.393 27.001C132.525 27.0296 132.683 27.0439 132.869 27.0439H133.901C134.539 27.0439 135.027 27.1782 135.365 27.4468C135.708 27.7153 135.879 28.1074 135.879 28.623C135.879 29.2747 135.615 29.7743 135.088 30.1216C134.56 30.4689 133.797 30.6426 132.799 30.6426ZM132.826 29.9443C133.311 29.9443 133.712 29.8942 134.029 29.7939C134.35 29.6973 134.589 29.5558 134.745 29.3696C134.906 29.187 134.986 28.9686 134.986 28.7144C134.986 28.478 134.932 28.299 134.826 28.1772C134.718 28.0591 134.562 27.9803 134.355 27.9409C134.149 27.8979 133.895 27.8765 133.596 27.8765H132.58C132.316 27.8765 132.086 27.9176 131.89 28C131.694 28.0824 131.542 28.2041 131.436 28.3652C131.332 28.5264 131.281 28.7269 131.281 28.9668C131.281 29.2855 131.414 29.5272 131.682 29.6919C131.949 29.8602 132.33 29.9443 132.826 29.9443ZM133.056 25.2393C133.48 25.2393 133.799 25.1318 134.012 24.917C134.227 24.7021 134.334 24.3888 134.334 23.9771C134.334 23.5366 134.226 23.2072 134.008 22.9888C133.79 22.7668 133.469 22.6558 133.045 22.6558C132.639 22.6558 132.325 22.7703 132.104 22.9995C131.887 23.2251 131.777 23.5563 131.777 23.9932C131.777 24.3942 131.888 24.7021 132.109 24.917C132.33 25.1318 132.646 25.2393 133.056 25.2393ZM144.499 25.9106C144.499 26.3761 144.383 26.7736 144.151 27.103C143.923 27.4289 143.603 27.6777 143.189 27.8496C142.776 28.0215 142.289 28.1074 141.729 28.1074C141.434 28.1074 141.154 28.0931 140.89 28.0645C140.626 28.0358 140.383 27.9946 140.162 27.9409C139.941 27.8872 139.747 27.821 139.58 27.7422V26.8667C139.847 26.9777 140.173 27.0815 140.558 27.1782C140.943 27.2713 141.346 27.3179 141.767 27.3179C142.158 27.3179 142.49 27.266 142.762 27.1621C143.032 27.0547 143.237 26.9025 143.376 26.7056C143.518 26.505 143.59 26.2651 143.59 25.9858C143.59 25.7173 143.531 25.4935 143.414 25.3145C143.296 25.1318 143.1 24.9671 142.825 24.8203C142.555 24.6699 142.183 24.5106 141.713 24.3423C141.382 24.2241 141.089 24.0952 140.836 23.9556C140.583 23.8123 140.371 23.6512 140.2 23.4722C140.029 23.2931 139.898 23.0854 139.81 22.8491C139.724 22.6128 139.681 22.3424 139.681 22.0381C139.681 21.6191 139.786 21.2611 139.997 20.9639C140.211 20.6631 140.505 20.4339 140.879 20.2764C141.257 20.1152 141.69 20.0347 142.178 20.0347C142.595 20.0347 142.981 20.0741 143.333 20.1528C143.689 20.2316 144.016 20.3372 144.312 20.4697L144.029 21.2539C143.747 21.1357 143.448 21.0373 143.13 20.9585C142.816 20.8797 142.492 20.8403 142.157 20.8403C141.822 20.8403 141.538 20.8905 141.307 20.9907C141.078 21.0874 140.904 21.2253 140.782 21.4043C140.662 21.5833 140.601 21.7964 140.601 22.0435C140.601 22.3192 140.658 22.5483 140.772 22.731C140.89 22.9136 141.075 23.0765 141.328 23.2197C141.585 23.3594 141.923 23.5062 142.344 23.6602C142.804 23.8285 143.195 24.0075 143.515 24.1973C143.836 24.3835 144.08 24.6126 144.248 24.8848C144.415 25.1533 144.499 25.4953 144.499 25.9106ZM150.804 22.1133V28H150.076L149.948 27.1729H149.9C149.778 27.377 149.622 27.5488 149.429 27.6885C149.237 27.8281 149.02 27.932 148.777 28C148.538 28.0716 148.283 28.1074 148.012 28.1074C147.548 28.1074 147.16 28.0322 146.846 27.8818C146.533 27.7314 146.296 27.4987 146.136 27.1836C145.978 26.8685 145.9 26.4639 145.9 25.9697V22.1133H146.799V25.9053C146.799 26.3958 146.909 26.7629 147.13 27.0063C147.351 27.2463 147.688 27.3662 148.141 27.3662C148.576 27.3662 148.921 27.2839 149.178 27.1191C149.438 26.9544 149.625 26.7127 149.74 26.394C149.853 26.0718 149.911 25.6779 149.911 25.2124V22.1133H150.804ZM155.434 22.0059C156.165 22.0059 156.748 22.2583 157.183 22.7632C157.618 23.2681 157.836 24.0272 157.836 25.0405C157.836 25.7101 157.735 26.2723 157.536 26.7271C157.336 27.1818 157.055 27.5256 156.691 27.7583C156.331 27.991 155.905 28.1074 155.413 28.1074C155.103 28.1074 154.83 28.0662 154.595 27.9839C154.359 27.9015 154.158 27.7905 153.991 27.6509C153.823 27.5112 153.684 27.359 153.574 27.1943H153.509C153.52 27.334 153.533 27.5023 153.547 27.6992C153.565 27.8962 153.574 28.068 153.574 28.2148V30.6318H152.681V22.1133H153.413L153.531 22.9834H153.574C153.688 22.8044 153.826 22.6414 153.991 22.4946C154.155 22.3442 154.354 22.2261 154.589 22.1401C154.828 22.0506 155.11 22.0059 155.434 22.0059ZM155.279 22.7578C154.873 22.7578 154.545 22.8366 154.295 22.9941C154.049 23.1517 153.869 23.388 153.756 23.7031C153.641 24.0146 153.581 24.4067 153.574 24.8794V25.0513C153.574 25.549 153.627 25.9697 153.734 26.3135C153.844 26.6572 154.025 26.9186 154.274 27.0977C154.527 27.2767 154.866 27.3662 155.29 27.3662C155.653 27.3662 155.957 27.2677 156.199 27.0708C156.442 26.8739 156.621 26.5999 156.739 26.249C156.86 25.8945 156.921 25.4881 156.921 25.0298C156.921 24.3351 156.785 23.7837 156.514 23.3755C156.247 22.9637 155.836 22.7578 155.279 22.7578ZM162.139 22.0059C162.87 22.0059 163.454 22.2583 163.889 22.7632C164.324 23.2681 164.541 24.0272 164.541 25.0405C164.541 25.7101 164.441 26.2723 164.241 26.7271C164.042 27.1818 163.76 27.5256 163.397 27.7583C163.036 27.991 162.61 28.1074 162.119 28.1074C161.808 28.1074 161.535 28.0662 161.3 27.9839C161.065 27.9015 160.864 27.7905 160.696 27.6509C160.529 27.5112 160.389 27.359 160.279 27.1943H160.215C160.226 27.334 160.238 27.5023 160.252 27.6992C160.27 27.8962 160.279 28.068 160.279 28.2148V30.6318H159.386V22.1133H160.118L160.236 22.9834H160.279C160.393 22.8044 160.533 22.6414 160.696 22.4946C160.86 22.3442 161.059 22.2261 161.295 22.1401C161.534 22.0506 161.816 22.0059 162.139 22.0059ZM161.985 22.7578C161.578 22.7578 161.25 22.8366 161.001 22.9941C160.755 23.1517 160.574 23.388 160.461 23.7031C160.346 24.0146 160.286 24.4067 160.279 24.8794V25.0513C160.279 25.549 160.333 25.9697 160.439 26.3135C160.55 26.6572 160.73 26.9186 160.98 27.0977C161.233 27.2767 161.571 27.3662 161.995 27.3662C162.36 27.3662 162.662 27.2677 162.904 27.0708C163.147 26.8739 163.327 26.5999 163.445 26.249C163.566 25.8945 163.627 25.4881 163.627 25.0298C163.627 24.3351 163.491 23.7837 163.22 23.3755C162.953 22.9637 162.541 22.7578 161.985 22.7578ZM166.985 28H166.092V19.6426H166.985V28ZM169.749 22.1133V28H168.862V22.1133H169.749ZM169.316 19.9111C169.462 19.9111 169.587 19.9595 169.69 20.0561C169.797 20.1492 169.851 20.2961 169.851 20.4966C169.851 20.6935 169.797 20.8403 169.69 20.937C169.587 21.0337 169.462 21.082 169.316 21.082C169.162 21.082 169.035 21.0337 168.931 20.937C168.831 20.8403 168.781 20.6935 168.781 20.4966C168.781 20.2961 168.831 20.1492 168.931 20.0561C169.035 19.9595 169.162 19.9111 169.316 19.9111ZM173.888 22.0059C174.387 22.0059 174.815 22.1169 175.172 22.3389C175.528 22.5609 175.801 22.8724 175.99 23.2734C176.178 23.6709 176.273 24.1364 176.273 24.6699V25.2231H172.225C172.236 25.9142 172.407 26.4406 172.738 26.8022C173.07 27.1639 173.537 27.3447 174.139 27.3447C174.511 27.3447 174.838 27.3107 175.123 27.2427C175.409 27.1746 175.704 27.0744 176.011 26.9419V27.7261C175.715 27.8586 175.42 27.9552 175.129 28.0161C174.84 28.077 174.498 28.1074 174.102 28.1074C173.539 28.1074 173.047 27.9928 172.626 27.7637C172.209 27.5309 171.884 27.1908 171.653 26.7432C171.421 26.2956 171.305 25.7477 171.305 25.0996C171.305 24.4658 171.41 23.918 171.62 23.4561C171.834 22.9906 172.134 22.6325 172.519 22.3818C172.908 22.1312 173.364 22.0059 173.888 22.0059ZM173.877 22.7363C173.403 22.7363 173.025 22.8921 172.743 23.2036C172.462 23.5151 172.294 23.9502 172.241 24.5088H175.343C175.339 24.1579 175.284 23.8499 175.177 23.585C175.073 23.3164 174.915 23.1087 174.701 22.9619C174.487 22.8115 174.213 22.7363 173.877 22.7363ZM181.572 26.3887C181.572 26.7646 181.478 27.0815 181.288 27.3394C181.103 27.5936 180.836 27.7852 180.487 27.9141C180.14 28.043 179.727 28.1074 179.246 28.1074C178.836 28.1074 178.481 28.0752 178.182 28.0107C177.883 27.9463 177.621 27.855 177.396 27.7368V26.915C177.635 27.0332 177.92 27.1406 178.252 27.2373C178.583 27.334 178.922 27.3823 179.267 27.3823C179.773 27.3823 180.14 27.3 180.368 27.1353C180.597 26.9705 180.711 26.7467 180.711 26.4639C180.711 26.3027 180.665 26.1613 180.573 26.0396C180.483 25.9142 180.332 25.7943 180.118 25.6797C179.904 25.5615 179.608 25.4326 179.23 25.293C178.855 25.1497 178.532 25.0083 178.257 24.8687C177.986 24.7254 177.775 24.5518 177.626 24.3477C177.479 24.1436 177.407 23.8786 177.407 23.5527C177.407 23.055 177.606 22.6737 178.005 22.4087C178.408 22.1401 178.936 22.0059 179.588 22.0059C179.941 22.0059 180.271 22.0417 180.578 22.1133C180.887 22.1813 181.177 22.2744 181.444 22.3926L181.144 23.1069C180.902 23.0031 180.643 22.9154 180.368 22.8438C180.095 22.7721 179.815 22.7363 179.529 22.7363C179.119 22.7363 178.804 22.8044 178.583 22.9404C178.365 23.0765 178.257 23.2627 178.257 23.499C178.257 23.6816 178.307 23.832 178.406 23.9502C178.51 24.0684 178.674 24.1794 178.898 24.2832C179.123 24.387 179.419 24.5088 179.786 24.6484C180.153 24.7845 180.471 24.9259 180.738 25.0728C181.006 25.216 181.211 25.3914 181.353 25.5991C181.499 25.8032 181.572 26.0664 181.572 26.3887ZM188.379 28H187.465V20.9531H185.005V20.1475H190.828V20.9531H188.379V28ZM196.93 25.0459C196.93 25.5293 196.867 25.9608 196.743 26.3403C196.617 26.7199 196.438 27.0404 196.202 27.3018C195.967 27.5632 195.682 27.7637 195.347 27.9033C195.015 28.0394 194.639 28.1074 194.219 28.1074C193.827 28.1074 193.466 28.0394 193.139 27.9033C192.814 27.7637 192.532 27.5632 192.293 27.3018C192.059 27.0404 191.874 26.7199 191.743 26.3403C191.614 25.9608 191.55 25.5293 191.55 25.0459C191.55 24.4014 191.659 23.8535 191.876 23.4023C192.093 22.9476 192.404 22.6021 192.807 22.3657C193.213 22.1258 193.696 22.0059 194.256 22.0059C194.79 22.0059 195.257 22.1258 195.657 22.3657C196.06 22.6056 196.371 22.953 196.592 23.4077C196.817 23.8589 196.93 24.4049 196.93 25.0459ZM192.47 25.0459C192.47 25.5186 192.532 25.9285 192.657 26.2759C192.782 26.6232 192.974 26.8918 193.234 27.0815C193.495 27.2713 193.83 27.3662 194.24 27.3662C194.646 27.3662 194.98 27.2713 195.239 27.0815C195.503 26.8918 195.698 26.6232 195.823 26.2759C195.947 25.9285 196.01 25.5186 196.01 25.0459C196.01 24.5768 195.947 24.1722 195.823 23.832C195.698 23.4883 195.505 23.2233 195.245 23.0371C194.985 22.8509 194.648 22.7578 194.235 22.7578C193.625 22.7578 193.178 22.9601 192.893 23.3647C192.611 23.7694 192.47 24.3298 192.47 25.0459ZM200.55 28.1074C199.808 28.1074 199.22 27.8532 198.786 27.3447C198.354 26.8363 198.138 26.0807 198.138 25.0781C198.138 24.0648 198.36 23.3003 198.802 22.7847C199.244 22.2655 199.831 22.0059 200.566 22.0059C200.876 22.0059 201.147 22.047 201.379 22.1294C201.61 22.2118 201.81 22.3228 201.977 22.4624C202.145 22.5985 202.286 22.7542 202.4 22.9297H202.464C202.45 22.8187 202.435 22.6665 202.421 22.4731C202.408 22.2798 202.4 22.1222 202.4 22.0005V19.6426H203.288V28H202.571L202.437 27.1621H202.4C202.289 27.3376 202.149 27.4969 201.977 27.6401C201.81 27.7834 201.608 27.8979 201.373 27.9839C201.141 28.0662 200.867 28.1074 200.55 28.1074ZM200.689 27.3662C201.316 27.3662 201.76 27.1872 202.02 26.8291C202.28 26.471 202.411 25.9393 202.411 25.2339V25.0728C202.411 24.3244 202.286 23.7497 202.036 23.3486C201.79 22.9476 201.341 22.7471 200.689 22.7471C200.144 22.7471 199.735 22.9583 199.465 23.3809C199.194 23.7998 199.057 24.3727 199.057 25.0996C199.057 25.8229 199.192 26.3815 199.459 26.7754C199.729 27.1693 200.14 27.3662 200.689 27.3662ZM207.363 22.0166C208.061 22.0166 208.58 22.1742 208.919 22.4893C209.257 22.8044 209.426 23.3075 209.426 23.9985V28H208.779L208.608 27.1299H208.565C208.402 27.3447 208.231 27.5256 208.052 27.6724C207.874 27.8156 207.667 27.9248 207.432 28C207.2 28.0716 206.914 28.1074 206.576 28.1074C206.22 28.1074 205.902 28.0448 205.624 27.9194C205.349 27.7941 205.132 27.6043 204.972 27.3501C204.815 27.0959 204.737 26.7736 204.737 26.3833C204.737 25.7961 204.968 25.3449 205.432 25.0298C205.895 24.7147 206.601 24.5428 207.55 24.5142L208.56 24.4712V24.1113C208.56 23.6029 208.452 23.2466 208.234 23.0425C208.017 22.8384 207.71 22.7363 207.314 22.7363C207.007 22.7363 206.715 22.7811 206.438 22.8706C206.159 22.9601 205.895 23.0658 205.646 23.1875L205.373 22.5107C205.637 22.3747 205.94 22.2583 206.282 22.1616C206.625 22.0649 206.984 22.0166 207.363 22.0166ZM208.549 25.0996L207.656 25.1372C206.925 25.1659 206.411 25.2858 206.111 25.4971C205.811 25.7083 205.662 26.0073 205.662 26.394C205.662 26.7306 205.764 26.9795 205.967 27.1406C206.17 27.3018 206.439 27.3823 206.774 27.3823C207.295 27.3823 207.721 27.2373 208.052 26.9473C208.384 26.6572 208.549 26.2222 208.549 25.6421V25.0996ZM210.33 22.1133H211.282L212.576 25.5293C212.651 25.7298 212.721 25.9232 212.784 26.1094C212.849 26.292 212.906 26.4674 212.956 26.6357C213.005 26.804 213.044 26.967 213.073 27.1245H213.111C213.161 26.9455 213.231 26.7109 213.325 26.4209C213.418 26.1273 213.517 25.8283 213.624 25.5239L214.848 22.1133H215.806L213.255 28.8647C213.12 29.2264 212.961 29.5415 212.779 29.8101C212.601 30.0786 212.383 30.2845 212.126 30.4277C211.87 30.5745 211.56 30.6479 211.196 30.6479C211.029 30.6479 210.881 30.6372 210.752 30.6157C210.624 30.5978 210.513 30.5763 210.421 30.5513V29.8369C210.5 29.8548 210.594 29.8709 210.705 29.8853C210.818 29.8996 210.936 29.9067 211.057 29.9067C211.278 29.9067 211.469 29.8638 211.63 29.7778C211.794 29.6955 211.934 29.5737 212.052 29.4126C212.169 29.2515 212.271 29.0599 212.356 28.8379L212.678 28.0107L210.33 22.1133ZM217.543 25.8193H216.961L216.715 20.1475H217.789L217.543 25.8193ZM216.607 27.4414C216.607 27.1908 216.668 27.0135 216.79 26.9097C216.911 26.8022 217.062 26.7485 217.245 26.7485C217.423 26.7485 217.572 26.8022 217.694 26.9097C217.818 27.0135 217.881 27.1908 217.881 27.4414C217.881 27.6885 217.818 27.8693 217.694 27.9839C217.572 28.0949 217.423 28.1504 217.245 28.1504C217.062 28.1504 216.911 28.0949 216.79 27.9839C216.668 27.8693 216.607 27.6885 216.607 27.4414Z" fill="#292929"/>
</g>
</g>
<g clip-path="url(#clip1_351_5495)">
<path d="M320 11H233V36H320V11Z" fill="#FFF1C0"/>
<path d="M246.885 24.063C246.885 24.6681 246.808 25.2196 246.654 25.7173C246.5 26.2114 246.271 26.6375 245.967 26.9956C245.666 27.3501 245.292 27.624 244.844 27.8174C244.397 28.0107 243.877 28.1074 243.287 28.1074C242.678 28.1074 242.146 28.0107 241.691 27.8174C241.24 27.624 240.864 27.3483 240.563 26.9902C240.266 26.6322 240.042 26.2043 239.892 25.7065C239.745 25.2088 239.672 24.6574 239.672 24.0522C239.672 23.2502 239.804 22.5465 240.069 21.9414C240.334 21.3363 240.735 20.8654 241.272 20.5288C241.813 20.1922 242.49 20.0239 243.303 20.0239C244.08 20.0239 244.733 20.1904 245.263 20.5234C245.797 20.8564 246.2 21.3255 246.472 21.9307C246.747 22.5322 246.885 23.243 246.885 24.063ZM240.633 24.063C240.633 24.729 240.728 25.3055 240.918 25.7925C241.108 26.2795 241.398 26.6554 241.788 26.9204C242.182 27.1854 242.681 27.3179 243.287 27.3179C243.895 27.3179 244.393 27.1854 244.78 26.9204C245.17 26.6554 245.458 26.2795 245.644 25.7925C245.831 25.3055 245.924 24.729 245.924 24.063C245.924 23.0496 245.711 22.2583 245.285 21.689C244.862 21.116 244.201 20.8296 243.303 20.8296C242.694 20.8296 242.193 20.9603 241.799 21.2217C241.405 21.4831 241.111 21.8555 240.918 22.3389C240.728 22.8187 240.633 23.3934 240.633 24.063ZM251.29 22.0059C251.988 22.0059 252.516 22.1777 252.874 22.5215C253.232 22.8617 253.411 23.4095 253.411 24.165V28H252.53V24.2241C252.53 23.7336 252.417 23.3665 252.192 23.123C251.97 22.8796 251.628 22.7578 251.166 22.7578C250.514 22.7578 250.056 22.9422 249.791 23.311C249.526 23.6799 249.394 24.2152 249.394 24.917V28H248.502V22.1133H249.222L249.356 22.9619H249.404C249.53 22.7542 249.689 22.5806 249.882 22.4409C250.076 22.2977 250.292 22.1903 250.532 22.1187C250.772 22.0435 251.025 22.0059 251.29 22.0059ZM256.145 28H255.248V19.6426H256.145V28ZM257.101 22.1133H258.057L259.357 25.5293C259.432 25.7298 259.502 25.9232 259.566 26.1094C259.631 26.292 259.688 26.4674 259.738 26.6357C259.788 26.804 259.828 26.967 259.856 27.1245H259.894C259.944 26.9455 260.016 26.7109 260.109 26.4209C260.202 26.1273 260.302 25.8283 260.41 25.5239L261.64 22.1133H262.601L260.039 28.8647C259.903 29.2264 259.744 29.5415 259.561 29.8101C259.382 30.0786 259.164 30.2845 258.906 30.4277C258.648 30.5745 258.336 30.6479 257.971 30.6479C257.803 30.6479 257.654 30.6372 257.525 30.6157C257.396 30.5978 257.285 30.5763 257.192 30.5513V29.8369C257.271 29.8548 257.366 29.8709 257.477 29.8853C257.592 29.8996 257.71 29.9067 257.832 29.9067C258.054 29.9067 258.245 29.8638 258.406 29.7778C258.571 29.6955 258.712 29.5737 258.831 29.4126C258.949 29.2515 259.051 29.0599 259.137 28.8379L259.459 28.0107L257.101 22.1133ZM269.32 28H268.45V22.4355C268.45 22.2243 268.45 22.0435 268.45 21.8931C268.454 21.7391 268.457 21.5994 268.461 21.4741C268.468 21.3452 268.477 21.2145 268.488 21.082C268.377 21.1966 268.273 21.2951 268.176 21.3774C268.08 21.4562 267.96 21.5547 267.816 21.6729L266.919 22.3926L266.452 21.7856L268.579 20.1475H269.32V28ZM277.807 20.1475C278.451 20.1475 278.983 20.228 279.402 20.3892C279.824 20.5467 280.139 20.7884 280.347 21.1143C280.555 21.4401 280.659 21.8555 280.659 22.3604C280.659 22.7757 280.583 23.123 280.433 23.4023C280.283 23.6781 280.086 23.9019 279.842 24.0737C279.599 24.2456 279.339 24.3781 279.063 24.4712L281.217 28H280.154L278.231 24.7236H276.598V28H275.685V20.1475H277.807ZM277.753 20.937H276.598V23.9502H277.844C278.485 23.9502 278.956 23.8195 279.257 23.5581C279.561 23.2967 279.713 22.9118 279.713 22.4033C279.713 21.8698 279.552 21.492 279.23 21.27C278.911 21.048 278.419 20.937 277.753 20.937ZM284.606 22.0059C285.108 22.0059 285.537 22.1169 285.895 22.3389C286.254 22.5609 286.527 22.8724 286.717 23.2734C286.907 23.6709 287.002 24.1364 287.002 24.6699V25.2231H282.936C282.947 25.9142 283.119 26.4406 283.452 26.8022C283.785 27.1639 284.254 27.3447 284.859 27.3447C285.231 27.3447 285.561 27.3107 285.847 27.2427C286.134 27.1746 286.431 27.0744 286.739 26.9419V27.7261C286.442 27.8586 286.146 27.9552 285.853 28.0161C285.562 28.077 285.219 28.1074 284.821 28.1074C284.255 28.1074 283.761 27.9928 283.339 27.7637C282.92 27.5309 282.594 27.1908 282.361 26.7432C282.129 26.2956 282.012 25.7477 282.012 25.0996C282.012 24.4658 282.118 23.918 282.329 23.4561C282.544 22.9906 282.845 22.6325 283.231 22.3818C283.622 22.1312 284.08 22.0059 284.606 22.0059ZM284.596 22.7363C284.119 22.7363 283.74 22.8921 283.457 23.2036C283.174 23.5151 283.006 23.9502 282.952 24.5088H286.067C286.064 24.1579 286.008 23.8499 285.901 23.585C285.797 23.3164 285.638 23.1087 285.423 22.9619C285.208 22.8115 284.932 22.7363 284.596 22.7363ZM294.908 22.0059C295.556 22.0059 296.045 22.1759 296.374 22.5161C296.704 22.8527 296.869 23.3952 296.869 24.1436V28H295.988V24.1865C295.988 23.7103 295.884 23.354 295.676 23.1177C295.472 22.8778 295.168 22.7578 294.763 22.7578C294.194 22.7578 293.78 22.9225 293.522 23.252C293.265 23.5814 293.136 24.0666 293.136 24.7075V28H292.249V24.1865C292.249 23.8678 292.203 23.6029 292.11 23.3916C292.02 23.1803 291.884 23.0228 291.702 22.9189C291.523 22.8115 291.295 22.7578 291.019 22.7578C290.629 22.7578 290.316 22.8384 290.08 22.9995C289.843 23.1606 289.671 23.4006 289.564 23.7192C289.46 24.0343 289.408 24.4229 289.408 24.8848V28H288.517V22.1133H289.236L289.371 22.9458H289.419C289.537 22.7417 289.686 22.5698 289.865 22.4302C290.044 22.2905 290.244 22.1849 290.466 22.1133C290.688 22.0417 290.925 22.0059 291.175 22.0059C291.623 22.0059 291.997 22.09 292.298 22.2583C292.602 22.423 292.822 22.6755 292.958 23.0156H293.007C293.2 22.6755 293.465 22.423 293.802 22.2583C294.138 22.09 294.507 22.0059 294.908 22.0059ZM300.902 22.0166C301.604 22.0166 302.125 22.1742 302.465 22.4893C302.805 22.8044 302.976 23.3075 302.976 23.9985V28H302.326L302.154 27.1299H302.111C301.946 27.3447 301.774 27.5256 301.595 27.6724C301.416 27.8156 301.208 27.9248 300.972 28C300.739 28.0716 300.453 28.1074 300.113 28.1074C299.755 28.1074 299.436 28.0448 299.157 27.9194C298.881 27.7941 298.663 27.6043 298.501 27.3501C298.344 27.0959 298.265 26.7736 298.265 26.3833C298.265 25.7961 298.498 25.3449 298.963 25.0298C299.429 24.7147 300.138 24.5428 301.09 24.5142L302.105 24.4712V24.1113C302.105 23.6029 301.996 23.2466 301.778 23.0425C301.559 22.8384 301.251 22.7363 300.854 22.7363C300.546 22.7363 300.252 22.7811 299.973 22.8706C299.694 22.9601 299.429 23.0658 299.178 23.1875L298.904 22.5107C299.169 22.3747 299.474 22.2583 299.817 22.1616C300.161 22.0649 300.523 22.0166 300.902 22.0166ZM302.095 25.0996L301.198 25.1372C300.464 25.1659 299.946 25.2858 299.645 25.4971C299.345 25.7083 299.194 26.0073 299.194 26.394C299.194 26.7306 299.296 26.9795 299.5 27.1406C299.705 27.3018 299.975 27.3823 300.311 27.3823C300.834 27.3823 301.262 27.2373 301.595 26.9473C301.928 26.6572 302.095 26.2222 302.095 25.6421V25.0996ZM305.704 22.1133V28H304.812V22.1133H305.704ZM305.269 19.9111C305.416 19.9111 305.541 19.9595 305.645 20.0561C305.752 20.1492 305.806 20.2961 305.806 20.4966C305.806 20.6935 305.752 20.8403 305.645 20.937C305.541 21.0337 305.416 21.082 305.269 21.082C305.115 21.082 304.986 21.0337 304.882 20.937C304.782 20.8403 304.732 20.6935 304.732 20.4966C304.732 20.2961 304.782 20.1492 304.882 20.0561C304.986 19.9595 305.115 19.9111 305.269 19.9111ZM310.382 22.0059C311.081 22.0059 311.609 22.1777 311.967 22.5215C312.325 22.8617 312.504 23.4095 312.504 24.165V28H311.623V24.2241C311.623 23.7336 311.51 23.3665 311.285 23.123C311.063 22.8796 310.721 22.7578 310.259 22.7578C309.607 22.7578 309.149 22.9422 308.884 23.311C308.619 23.6799 308.486 24.2152 308.486 24.917V28H307.595V22.1133H308.314L308.449 22.9619H308.497C308.622 22.7542 308.782 22.5806 308.975 22.4409C309.168 22.2977 309.385 22.1903 309.625 22.1187C309.865 22.0435 310.117 22.0059 310.382 22.0059Z" fill="#AB7221"/>
</g>
<g clip-path="url(#clip2_351_5495)">
<path d="M184 44H0V69H184V44Z" fill="#D14646"/>
<path d="M13.9638 57.063C13.9638 57.6681 13.8863 58.2196 13.7315 58.7173C13.5767 59.2114 13.3463 59.6375 13.0402 59.9956C12.7378 60.3501 12.3616 60.624 11.9116 60.8174C11.4616 61.0107 10.9395 61.1074 10.3454 61.1074C9.73338 61.1074 9.19874 61.0107 8.7415 60.8174C8.28787 60.624 7.90983 60.3483 7.60741 59.9902C7.30859 59.6322 7.08356 59.2043 6.93235 58.7065C6.78474 58.2088 6.71094 57.6574 6.71094 57.0522C6.71094 56.2502 6.84414 55.5465 7.11057 54.9414C7.37699 54.3363 7.78022 53.8654 8.32026 53.5288C8.86391 53.1922 9.54437 53.0239 10.3616 53.0239C11.1429 53.0239 11.7999 53.1904 12.3328 53.5234C12.8692 53.8564 13.2743 54.3255 13.5479 54.9307C13.8251 55.5322 13.9638 56.243 13.9638 57.063ZM7.67761 57.063C7.67761 57.729 7.77302 58.3055 7.96384 58.7925C8.15465 59.2795 8.44628 59.6554 8.83871 59.9204C9.23474 60.1854 9.73698 60.3179 10.3454 60.3179C10.9575 60.3179 11.4579 60.1854 11.8468 59.9204C12.2392 59.6554 12.529 59.2795 12.7162 58.7925C12.9034 58.3055 12.997 57.729 12.997 57.063C12.997 56.0496 12.7828 55.2583 12.3544 54.689C11.9296 54.116 11.2653 53.8296 10.3616 53.8296C9.74958 53.8296 9.24554 53.9603 8.84951 54.2217C8.45348 54.4831 8.15825 54.8555 7.96384 55.3389C7.77302 55.8187 7.67761 56.3934 7.67761 57.063ZM18.3921 55.0059C19.0941 55.0059 19.6252 55.1777 19.9852 55.5215C20.3452 55.8617 20.5252 56.4095 20.5252 57.165V61H19.6396V57.2241C19.6396 56.7336 19.5262 56.3665 19.2994 56.123C19.0761 55.8796 18.7323 55.7578 18.2679 55.7578C17.6126 55.7578 17.1518 55.9422 16.8853 56.311C16.619 56.6799 16.4858 57.2152 16.4858 57.917V61H15.5893V55.1133H16.3129L16.448 55.9619H16.4965C16.6225 55.7542 16.7828 55.5806 16.9771 55.4409C17.1716 55.2977 17.3894 55.1903 17.6306 55.1187C17.8718 55.0435 18.1257 55.0059 18.3921 55.0059ZM23.2741 61H22.3723V52.6426H23.2741V61ZM24.2354 55.1133H25.1966L26.5035 58.5293C26.5791 58.7298 26.6494 58.9232 26.7142 59.1094C26.779 59.292 26.8366 59.4674 26.887 59.6357C26.9374 59.804 26.977 59.967 27.0058 60.1245H27.0437C27.094 59.9455 27.166 59.7109 27.2596 59.4209C27.3532 59.1273 27.4541 58.8283 27.5621 58.5239L28.7988 55.1133H29.7654L27.1894 61.8647C27.0526 62.2264 26.8924 62.5415 26.7087 62.8101C26.5288 63.0786 26.3092 63.2845 26.0499 63.4277C25.7907 63.5745 25.4774 63.6479 25.1102 63.6479C24.941 63.6479 24.7916 63.6372 24.662 63.6157C24.5324 63.5978 24.4208 63.5763 24.3272 63.5513V62.8369C24.4064 62.8548 24.5018 62.8709 24.6134 62.8853C24.7286 62.8996 24.8474 62.9067 24.9699 62.9067C25.1931 62.9067 25.3856 62.8638 25.5477 62.7778C25.7133 62.6955 25.8555 62.5737 25.9743 62.4126C26.0931 62.2515 26.1957 62.0599 26.2821 61.8379L26.6062 61.0107L24.2354 55.1133ZM36.5214 61H35.6465V55.4355C35.6465 55.2243 35.6465 55.0435 35.6465 54.8931C35.6501 54.7391 35.6537 54.5994 35.6573 54.4741C35.6645 54.3452 35.6736 54.2145 35.6843 54.082C35.5727 54.1966 35.4683 54.2951 35.3711 54.3774C35.2739 54.4562 35.1532 54.5547 35.0092 54.6729L34.1073 55.3926L33.6376 54.7856L35.7761 53.1475H36.5214V61ZM42.9209 61V53.1475H43.839V61H42.9209ZM48.6778 55.0059C49.3798 55.0059 49.9109 55.1777 50.2709 55.5215C50.6309 55.8617 50.8109 56.4095 50.8109 57.165V61H49.9253V57.2241C49.9253 56.7336 49.8119 56.3665 49.5851 56.123C49.3618 55.8796 49.018 55.7578 48.5535 55.7578C47.8983 55.7578 47.4375 55.9422 47.171 56.311C46.9046 56.6799 46.7715 57.2152 46.7715 57.917V61H45.875V55.1133H46.5986L46.7337 55.9619H46.7822C46.9082 55.7542 47.0685 55.5806 47.2628 55.4409C47.4573 55.2977 47.6751 55.1903 47.9163 55.1187C48.1575 55.0435 48.4114 55.0059 48.6778 55.0059ZM60.1213 58.9106C60.1213 59.3761 60.0043 59.7736 59.7703 60.103C59.5399 60.4289 59.2159 60.6777 58.7982 60.8496C58.3806 61.0215 57.8892 61.1074 57.3239 61.1074C57.0251 61.1074 56.7425 61.0931 56.476 61.0645C56.2096 61.0358 55.9648 60.9946 55.7415 60.9409C55.5183 60.8872 55.3221 60.821 55.1529 60.7422V59.8667C55.423 59.9777 55.7524 60.0815 56.1412 60.1782C56.53 60.2713 56.9368 60.3179 57.3617 60.3179C57.7578 60.3179 58.0926 60.266 58.3662 60.1621C58.6398 60.0547 58.8468 59.9025 58.9873 59.7056C59.1312 59.505 59.2032 59.2651 59.2032 58.9858C59.2032 58.7173 59.1438 58.4935 59.0251 58.3145C58.9062 58.1318 58.7082 57.9671 58.431 57.8203C58.1573 57.6699 57.7829 57.5106 57.3077 57.3423C56.9729 57.2241 56.6776 57.0952 56.422 56.9556C56.1664 56.8123 55.9522 56.6512 55.7793 56.4722C55.6066 56.2931 55.4752 56.0854 55.3852 55.8491C55.2987 55.6128 55.2555 55.3424 55.2555 55.0381C55.2555 54.6191 55.3618 54.2611 55.5741 53.9639C55.7902 53.6631 56.0872 53.4339 56.4652 53.2764C56.8468 53.1152 57.2843 53.0347 57.7775 53.0347C58.1988 53.0347 58.5876 53.0741 58.944 53.1528C59.3041 53.2316 59.6335 53.3372 59.9323 53.4697L59.646 54.2539C59.3617 54.1357 59.0592 54.0373 58.7388 53.9585C58.422 53.8797 58.0944 53.8403 57.756 53.8403C57.4175 53.8403 57.1313 53.8905 56.8973 53.9907C56.6668 54.0874 56.4904 54.2253 56.368 54.4043C56.2456 54.5833 56.1844 54.7964 56.1844 55.0435C56.1844 55.3192 56.242 55.5483 56.3573 55.731C56.476 55.9136 56.6632 56.0765 56.9188 56.2197C57.1781 56.3594 57.5201 56.5062 57.945 56.6602C58.4094 56.8285 58.8037 57.0075 59.1276 57.1973C59.4517 57.3835 59.6983 57.6126 59.8675 57.8848C60.0368 58.1533 60.1213 58.4953 60.1213 58.9106ZM63.5129 60.377C63.6605 60.377 63.8117 60.3644 63.9664 60.3394C64.1213 60.3143 64.2472 60.2839 64.3445 60.248V60.9409C64.2401 60.9875 64.0942 61.0269 63.907 61.0591C63.7234 61.0913 63.5434 61.1074 63.367 61.1074C63.0538 61.1074 62.7693 61.0537 62.5137 60.9463C62.2581 60.8353 62.0529 60.6491 61.8981 60.3877C61.7469 60.1263 61.6712 59.7646 61.6712 59.3027V55.8115H60.8288V55.3765L61.6767 55.0273L62.0331 53.749H62.5731V55.1133H64.3067V55.8115H62.5731V59.2759C62.5731 59.6447 62.6577 59.9204 62.8269 60.103C62.9998 60.2856 63.2284 60.377 63.5129 60.377ZM70.6468 58.0459C70.6468 58.5293 70.5838 58.9608 70.4578 59.3403C70.3318 59.7199 70.1499 60.0404 69.9123 60.3018C69.6747 60.5632 69.3867 60.7637 69.0482 60.9033C68.7134 61.0394 68.3335 61.1074 67.9087 61.1074C67.5127 61.1074 67.1491 61.0394 66.8179 60.9033C66.4902 60.7637 66.2058 60.5632 65.9646 60.3018C65.727 60.0404 65.5416 59.7199 65.4083 59.3403C65.2787 58.9608 65.2139 58.5293 65.2139 58.0459C65.2139 57.4014 65.3238 56.8535 65.5434 56.4023C65.763 55.9476 66.0762 55.6021 66.4831 55.3657C66.8935 55.1258 67.3813 55.0059 67.9465 55.0059C68.4866 55.0059 68.9582 55.1258 69.3614 55.3657C69.7683 55.6056 70.0834 55.953 70.3066 56.4077C70.5334 56.8589 70.6468 57.4049 70.6468 58.0459ZM66.1428 58.0459C66.1428 58.5186 66.2058 58.9285 66.3319 59.2759C66.4579 59.6232 66.6522 59.8918 66.915 60.0815C67.1779 60.2713 67.5163 60.3662 67.9304 60.3662C68.3408 60.3662 68.6774 60.2713 68.9402 60.0815C69.2067 59.8918 69.4029 59.6232 69.5288 59.2759C69.6549 58.9285 69.7179 58.5186 69.7179 58.0459C69.7179 57.5768 69.6549 57.1722 69.5288 56.832C69.4029 56.4883 69.2085 56.2233 68.9457 56.0371C68.6828 55.8509 68.3426 55.7578 67.9249 55.7578C67.3093 55.7578 66.8574 55.9601 66.5695 56.3647C66.285 56.7694 66.1428 57.3298 66.1428 58.0459ZM74.5675 61.1074C74.0346 61.1074 73.5648 60.9982 73.158 60.7798C72.7512 60.5614 72.4343 60.2284 72.2075 59.7808C71.9807 59.3332 71.8673 58.7692 71.8673 58.0889C71.8673 57.3763 71.9861 56.7944 72.2237 56.3433C72.4649 55.8885 72.7962 55.5519 73.2174 55.3335C73.6387 55.1151 74.1175 55.0059 74.6539 55.0059C74.9491 55.0059 75.2336 55.0363 75.5072 55.0972C75.7845 55.1545 76.0113 55.2279 76.1876 55.3174L75.9177 56.064C75.7376 55.9924 75.5288 55.9279 75.2912 55.8706C75.0572 55.8133 74.8375 55.7847 74.6323 55.7847C74.2219 55.7847 73.8799 55.8724 73.6062 56.0479C73.3362 56.2233 73.1328 56.4811 72.996 56.8213C72.8628 57.1615 72.7962 57.5804 72.7962 58.0781C72.7962 58.5544 72.861 58.9608 72.9906 59.2974C73.1238 59.634 73.3201 59.8918 73.5793 60.0708C73.8421 60.2463 74.1697 60.334 74.5621 60.334C74.8753 60.334 75.1579 60.3018 75.41 60.2373C75.662 60.1693 75.8906 60.0905 76.0958 60.001V60.7959C75.8979 60.8962 75.6764 60.9731 75.4316 61.0269C75.1903 61.0806 74.9024 61.1074 74.5675 61.1074ZM78.391 52.6426V56.9824C78.391 57.1257 78.3856 57.3011 78.3748 57.5088C78.3641 57.7129 78.355 57.8937 78.3478 58.0513H78.3856C78.4612 57.9582 78.5711 57.8203 78.7151 57.6377C78.8627 57.4551 78.9869 57.3083 79.0877 57.1973L81.0535 55.1133H82.1065L79.725 57.627L82.2793 61H81.1993L79.1093 58.2124L78.391 58.8677V61H77.5V52.6426H78.391ZM83.1758 60.4414C83.1758 60.1908 83.237 60.0135 83.3594 59.9097C83.4819 59.8022 83.6313 59.7485 83.8076 59.7485C83.9912 59.7485 84.1461 59.8022 84.2721 59.9097C84.3982 60.0135 84.4611 60.1908 84.4611 60.4414C84.4611 60.6885 84.3982 60.8693 84.2721 60.9839C84.1461 61.0949 83.9912 61.1504 83.8076 61.1504C83.6313 61.1504 83.4819 61.0949 83.3594 60.9839C83.237 60.8693 83.1758 60.6885 83.1758 60.4414ZM91.2386 57.0845L93.3395 53.1475H94.3277L91.6977 57.9546V61H90.7796V57.9976L88.1442 53.1475H89.1487L91.2386 57.0845ZM100.382 58.0459C100.382 58.5293 100.319 58.9608 100.193 59.3403C100.067 59.7199 99.8848 60.0404 99.6471 60.3018C99.4095 60.5632 99.1216 60.7637 98.7831 60.9033C98.4483 61.0394 98.0685 61.1074 97.6436 61.1074C97.2476 61.1074 96.8839 61.0394 96.5527 60.9033C96.2251 60.7637 95.9407 60.5632 95.6995 60.3018C95.4618 60.0404 95.2764 59.7199 95.1432 59.3403C95.0136 58.9608 94.9488 58.5293 94.9488 58.0459C94.9488 57.4014 95.0586 56.8535 95.2782 56.4023C95.4978 55.9476 95.8111 55.6021 96.2179 55.3657C96.6283 55.1258 97.1162 55.0059 97.6815 55.0059C98.2215 55.0059 98.6931 55.1258 99.0963 55.3657C99.5032 55.6056 99.8182 55.953 100.041 56.4077C100.268 56.8589 100.382 57.4049 100.382 58.0459ZM95.8776 58.0459C95.8776 58.5186 95.9407 58.9285 96.0667 59.2759C96.1927 59.6232 96.3871 59.8918 96.6499 60.0815C96.9128 60.2713 97.2512 60.3662 97.6652 60.3662C98.0757 60.3662 98.4122 60.2713 98.675 60.0815C98.9415 59.8918 99.1378 59.6232 99.2637 59.2759C99.3897 58.9285 99.4528 58.5186 99.4528 58.0459C99.4528 57.5768 99.3897 57.1722 99.2637 56.832C99.1378 56.4883 98.9433 56.2233 98.6805 56.0371C98.4177 55.8509 98.0774 55.7578 97.6598 55.7578C97.0442 55.7578 96.5923 55.9601 96.3043 56.3647C96.0199 56.7694 95.8776 57.3298 95.8776 58.0459ZM106.819 55.1133V61H106.085L105.955 60.1729H105.907C105.784 60.377 105.625 60.5488 105.431 60.6885C105.237 60.8281 105.017 60.932 104.772 61C104.531 61.0716 104.274 61.1074 104 61.1074C103.532 61.1074 103.14 61.0322 102.823 60.8818C102.506 60.7314 102.267 60.4987 102.104 60.1836C101.946 59.8685 101.867 59.4639 101.867 58.9697V55.1133H102.774V58.9053C102.774 59.3958 102.885 59.7629 103.108 60.0063C103.332 60.2463 103.673 60.3662 104.13 60.3662C104.568 60.3662 104.918 60.2839 105.178 60.1191C105.44 59.9544 105.629 59.7127 105.745 59.394C105.859 59.0718 105.917 58.6779 105.917 58.2124V55.1133H106.819ZM113.856 53.1475C114.503 53.1475 115.038 53.228 115.46 53.3892C115.885 53.5467 116.202 53.7884 116.41 54.1143C116.619 54.4401 116.723 54.8555 116.723 55.3604C116.723 55.7757 116.648 56.123 116.496 56.4023C116.345 56.6781 116.147 56.9019 115.903 57.0737C115.658 57.2456 115.396 57.3781 115.12 57.4712L117.285 61H116.216L114.282 57.7236H112.64V61H111.722V53.1475H113.856ZM113.802 53.937H112.64V56.9502H113.893C114.538 56.9502 115.011 56.8195 115.314 56.5581C115.619 56.2967 115.773 55.9118 115.773 55.4033C115.773 54.8698 115.61 54.492 115.287 54.27C114.967 54.048 114.471 53.937 113.802 53.937ZM120.693 55.0059C121.197 55.0059 121.629 55.1169 121.989 55.3389C122.349 55.5609 122.625 55.8724 122.816 56.2734C123.006 56.6709 123.101 57.1364 123.101 57.6699V58.2231H119.013C119.024 58.9142 119.197 59.4406 119.532 59.8022C119.867 60.1639 120.338 60.3447 120.946 60.3447C121.321 60.3447 121.652 60.3107 121.94 60.2427C122.228 60.1746 122.527 60.0744 122.837 59.9419V60.7261C122.538 60.8586 122.24 60.9552 121.946 61.0161C121.654 61.077 121.308 61.1074 120.909 61.1074C120.34 61.1074 119.843 60.9928 119.418 60.7637C118.997 60.5309 118.669 60.1908 118.436 59.7432C118.201 59.2956 118.084 58.7477 118.084 58.0996C118.084 57.4658 118.19 56.918 118.403 56.4561C118.619 55.9906 118.921 55.6325 119.31 55.3818C119.703 55.1312 120.163 55.0059 120.693 55.0059ZM120.682 55.7363C120.203 55.7363 119.821 55.8921 119.537 56.2036C119.252 56.5151 119.083 56.9502 119.029 57.5088H122.162C122.158 57.1579 122.103 56.8499 121.994 56.585C121.89 56.3164 121.73 56.1087 121.513 55.9619C121.297 55.8115 121.021 55.7363 120.682 55.7363ZM128.594 63.6318V61.1074C128.594 60.9678 128.597 60.8066 128.604 60.624C128.612 60.4414 128.624 60.2839 128.642 60.1514H128.583C128.417 60.4235 128.182 60.6509 127.875 60.8335C127.569 61.0161 127.175 61.1074 126.693 61.1074C125.969 61.1074 125.388 60.8532 124.948 60.3447C124.509 59.8363 124.29 59.0771 124.29 58.0674C124.29 57.4049 124.39 56.8464 124.592 56.3916C124.793 55.9368 125.078 55.5931 125.445 55.3604C125.816 55.124 126.248 55.0059 126.741 55.0059C127.212 55.0059 127.599 55.099 127.897 55.2852C128.196 55.4678 128.43 55.6916 128.599 55.9565H128.642L128.777 55.1133H129.49V63.6318H128.594ZM126.86 60.3662C127.278 60.3662 127.613 60.2892 127.865 60.1353C128.116 59.9777 128.3 59.7414 128.415 59.4263C128.535 59.1112 128.597 58.7191 128.604 58.25V58.062C128.604 57.3029 128.474 56.7282 128.216 56.3379C127.956 55.944 127.504 55.7471 126.86 55.7471C126.306 55.7471 125.893 55.9583 125.624 56.3809C125.353 56.7998 125.219 57.3691 125.219 58.0889C125.219 58.8086 125.353 59.369 125.624 59.77C125.893 60.1675 126.306 60.3662 126.86 60.3662ZM136.284 55.1133V61H135.55L135.42 60.1729H135.371C135.249 60.377 135.09 60.5488 134.896 60.6885C134.701 60.8281 134.482 60.932 134.237 61C133.995 61.0716 133.738 61.1074 133.464 61.1074C132.997 61.1074 132.605 61.0322 132.287 60.8818C131.97 60.7314 131.731 60.4987 131.569 60.1836C131.411 59.8685 131.332 59.4639 131.332 58.9697V55.1133H132.239V58.9053C132.239 59.3958 132.35 59.7629 132.574 60.0063C132.797 60.2463 133.137 60.3662 133.594 60.3662C134.034 60.3662 134.382 60.2839 134.642 60.1191C134.905 59.9544 135.094 59.7127 135.209 59.394C135.325 59.0718 135.382 58.6779 135.382 58.2124V55.1133H136.284ZM140.458 55.0059C140.962 55.0059 141.395 55.1169 141.754 55.3389C142.114 55.5609 142.39 55.8724 142.581 56.2734C142.772 56.6709 142.867 57.1364 142.867 57.6699V58.2231H138.778C138.789 58.9142 138.962 59.4406 139.297 59.8022C139.632 60.1639 140.104 60.3447 140.712 60.3447C141.087 60.3447 141.418 60.3107 141.706 60.2427C141.994 60.1746 142.292 60.0744 142.602 59.9419V60.7261C142.303 60.8586 142.007 60.9552 141.711 61.0161C141.42 61.077 141.074 61.1074 140.675 61.1074C140.106 61.1074 139.609 60.9928 139.184 60.7637C138.762 60.5309 138.435 60.1908 138.201 59.7432C137.967 59.2956 137.85 58.7477 137.85 58.0996C137.85 57.4658 137.956 56.918 138.169 56.4561C138.384 55.9906 138.687 55.6325 139.076 55.3818C139.468 55.1312 139.93 55.0059 140.458 55.0059ZM140.447 55.7363C139.969 55.7363 139.587 55.8921 139.302 56.2036C139.019 56.5151 138.849 56.9502 138.795 57.5088H141.927C141.923 57.1579 141.868 56.8499 141.759 56.585C141.655 56.3164 141.495 56.1087 141.279 55.9619C141.063 55.8115 140.786 55.7363 140.447 55.7363ZM148.219 59.3887C148.219 59.7646 148.123 60.0815 147.932 60.3394C147.745 60.5936 147.476 60.7852 147.123 60.9141C146.773 61.043 146.355 61.1074 145.87 61.1074C145.456 61.1074 145.098 61.0752 144.795 61.0107C144.492 60.9463 144.228 60.855 144.001 60.7368V59.915C144.242 60.0332 144.531 60.1406 144.865 60.2373C145.2 60.334 145.542 60.3823 145.891 60.3823C146.403 60.3823 146.773 60.3 147.004 60.1353C147.234 59.9705 147.349 59.7467 147.349 59.4639C147.349 59.3027 147.303 59.1613 147.209 59.0396C147.119 58.9142 146.966 58.7943 146.75 58.6797C146.533 58.5615 146.235 58.4326 145.854 58.293C145.476 58.1497 145.148 58.0083 144.87 57.8687C144.597 57.7254 144.385 57.5518 144.233 57.3477C144.085 57.1436 144.012 56.8786 144.012 56.5527C144.012 56.055 144.214 55.6737 144.617 55.4087C145.023 55.1401 145.556 55.0059 146.215 55.0059C146.572 55.0059 146.904 55.0417 147.214 55.1133C147.528 55.1813 147.819 55.2744 148.089 55.3926L147.786 56.1069C147.542 56.0031 147.281 55.9154 147.004 55.8438C146.726 55.7721 146.444 55.7363 146.155 55.7363C145.742 55.7363 145.423 55.8044 145.2 55.9404C144.98 56.0765 144.87 56.2627 144.87 56.499C144.87 56.6816 144.921 56.832 145.021 56.9502C145.126 57.0684 145.292 57.1794 145.519 57.2832C145.745 57.387 146.044 57.5088 146.415 57.6484C146.786 57.7845 147.107 57.9259 147.376 58.0728C147.647 58.216 147.854 58.3914 147.997 58.5991C148.145 58.8032 148.219 59.0664 148.219 59.3887ZM151.573 60.377C151.72 60.377 151.871 60.3644 152.026 60.3394C152.181 60.3143 152.307 60.2839 152.404 60.248V60.9409C152.3 60.9875 152.154 61.0269 151.967 61.0591C151.783 61.0913 151.603 61.1074 151.427 61.1074C151.113 61.1074 150.829 61.0537 150.573 60.9463C150.318 60.8353 150.113 60.6491 149.958 60.3877C149.806 60.1263 149.731 59.7646 149.731 59.3027V55.8115H148.888V55.3765L149.736 55.0273L150.093 53.749H150.633V55.1133H152.366V55.8115H150.633V59.2759C150.633 59.6447 150.717 59.9204 150.886 60.103C151.059 60.2856 151.288 60.377 151.573 60.377ZM155.882 55.0059C156.386 55.0059 156.818 55.1169 157.178 55.3389C157.538 55.5609 157.814 55.8724 158.005 56.2734C158.195 56.6709 158.29 57.1364 158.29 57.6699V58.2231H154.202C154.213 58.9142 154.386 59.4406 154.721 59.8022C155.056 60.1639 155.527 60.3447 156.136 60.3447C156.511 60.3447 156.841 60.3107 157.129 60.2427C157.418 60.1746 157.716 60.0744 158.026 59.9419V60.7261C157.727 60.8586 157.43 60.9552 157.135 61.0161C156.843 61.077 156.498 61.1074 156.098 61.1074C155.529 61.1074 155.033 60.9928 154.607 60.7637C154.186 60.5309 153.858 60.1908 153.625 59.7432C153.391 59.2956 153.274 58.7477 153.274 58.0996C153.274 57.4658 153.38 56.918 153.592 56.4561C153.808 55.9906 154.111 55.6325 154.5 55.3818C154.892 55.1312 155.352 55.0059 155.882 55.0059ZM155.871 55.7363C155.393 55.7363 155.011 55.8921 154.726 56.2036C154.441 56.5151 154.273 56.9502 154.218 57.5088H157.351C157.347 57.1579 157.292 56.8499 157.183 56.585C157.079 56.3164 156.919 56.1087 156.703 55.9619C156.487 55.8115 156.21 55.7363 155.871 55.7363ZM161.92 61.1074C161.171 61.1074 160.577 60.8532 160.137 60.3447C159.702 59.8363 159.484 59.0807 159.484 58.0781C159.484 57.0648 159.707 56.3003 160.153 55.7847C160.6 55.2655 161.194 55.0059 161.936 55.0059C162.249 55.0059 162.522 55.047 162.757 55.1294C162.991 55.2118 163.192 55.3228 163.362 55.4624C163.531 55.5985 163.673 55.7542 163.788 55.9297H163.853C163.838 55.8187 163.824 55.6665 163.81 55.4731C163.795 55.2798 163.788 55.1222 163.788 55.0005V52.6426H164.685V61H163.961L163.826 60.1621H163.788C163.677 60.3376 163.535 60.4969 163.362 60.6401C163.192 60.7834 162.989 60.8979 162.752 60.9839C162.517 61.0662 162.24 61.1074 161.92 61.1074ZM162.06 60.3662C162.693 60.3662 163.142 60.1872 163.405 59.8291C163.668 59.471 163.799 58.9393 163.799 58.2339V58.0728C163.799 57.3244 163.673 56.7497 163.421 56.3486C163.173 55.9476 162.719 55.7471 162.06 55.7471C161.509 55.7471 161.097 55.9583 160.823 56.3809C160.55 56.7998 160.413 57.3727 160.413 58.0996C160.413 58.8229 160.548 59.3815 160.818 59.7754C161.092 60.1693 161.506 60.3662 162.06 60.3662ZM174.233 61H169.059V60.2534L171.17 58.1211C171.563 57.7272 171.892 57.3763 172.159 57.0684C172.429 56.7604 172.634 56.4578 172.775 56.1606C172.915 55.8599 172.985 55.5304 172.985 55.1724C172.985 54.7284 172.852 54.39 172.586 54.1572C172.323 53.9209 171.976 53.8027 171.543 53.8027C171.165 53.8027 170.83 53.8672 170.539 53.9961C170.247 54.125 169.949 54.3076 169.642 54.5439L169.161 53.9424C169.371 53.7669 169.598 53.6112 169.842 53.4751C170.09 53.339 170.355 53.2316 170.636 53.1528C170.92 53.0741 171.223 53.0347 171.543 53.0347C172.029 53.0347 172.448 53.1188 172.801 53.2871C173.154 53.4554 173.427 53.6953 173.617 54.0068C173.812 54.3184 173.908 54.689 173.908 55.1187C173.908 55.534 173.826 55.9207 173.66 56.2788C173.495 56.6333 173.263 56.986 172.964 57.3369C172.664 57.6842 172.316 58.0531 171.916 58.4434L170.199 60.146V60.1836H174.233V61ZM175.653 60.4414C175.653 60.1908 175.714 60.0135 175.837 59.9097C175.959 59.8022 176.108 59.7485 176.285 59.7485C176.468 59.7485 176.623 59.8022 176.75 59.9097C176.875 60.0135 176.939 60.1908 176.939 60.4414C176.939 60.6885 176.875 60.8693 176.75 60.9839C176.623 61.0949 176.468 61.1504 176.285 61.1504C176.108 61.1504 175.959 61.0949 175.837 60.9839C175.714 60.8693 175.653 60.6885 175.653 60.4414Z" fill="#F5F5F5"/>
</g>
<defs>
<clipPath id="clip0_351_5495">
<rect width="225" height="25" fill="white" transform="translate(0 11)"/>
</clipPath>
<clipPath id="clip1_351_5495">
<rect width="87" height="25" fill="white" transform="translate(233 11)"/>
</clipPath>
<clipPath id="clip2_351_5495">
<rect width="184" height="25" fill="white" transform="translate(0 44)"/>
</clipPath>
</defs>
</svg>
