<svg width="324" height="54" viewBox="0 0 324 54" fill="none" xmlns="http://www.w3.org/2000/svg">
<rect width="324" height="50" transform="translate(0 2)" fill="white"/>
<rect width="199" height="25" transform="translate(0 0.5)" fill="#D14646"/>
<path d="M14.6016 13.7051C14.6016 14.3652 14.5176 14.9668 14.3496 15.5098C14.1816 16.0488 13.9316 16.5137 13.5996 16.9043C13.2715 17.291 12.8633 17.5898 12.375 17.8008C11.8867 18.0117 11.3203 18.1172 10.6758 18.1172C10.0117 18.1172 9.43164 18.0117 8.93555 17.8008C8.44336 17.5898 8.0332 17.2891 7.70508 16.8984C7.38086 16.5078 7.13672 16.041 6.97266 15.498C6.8125 14.9551 6.73242 14.3535 6.73242 13.6934C6.73242 12.8184 6.87695 12.0508 7.16602 11.3906C7.45508 10.7305 7.89258 10.2168 8.47852 9.84961C9.06836 9.48242 9.80664 9.29883 10.6934 9.29883C11.541 9.29883 12.2539 9.48047 12.832 9.84375C13.4141 10.207 13.8535 10.7188 14.1504 11.3789C14.4512 12.0352 14.6016 12.8105 14.6016 13.7051ZM7.78125 13.7051C7.78125 14.4316 7.88477 15.0605 8.0918 15.5918C8.29883 16.123 8.61523 16.5332 9.04102 16.8223C9.4707 17.1113 10.0156 17.2559 10.6758 17.2559C11.3398 17.2559 11.8828 17.1113 12.3047 16.8223C12.7305 16.5332 13.0449 16.123 13.248 15.5918C13.4512 15.0605 13.5527 14.4316 13.5527 13.7051C13.5527 12.5996 13.3203 11.7363 12.8555 11.1152C12.3945 10.4902 11.6738 10.1777 10.6934 10.1777C10.0293 10.1777 9.48242 10.3203 9.05273 10.6055C8.62305 10.8906 8.30273 11.2969 8.0918 11.8242C7.88477 12.3477 7.78125 12.9746 7.78125 13.7051ZM19.4062 11.4609C20.168 11.4609 20.7441 11.6484 21.1348 12.0234C21.5254 12.3945 21.7207 12.9922 21.7207 13.8164V18H20.7598V13.8809C20.7598 13.3457 20.6367 12.9453 20.3906 12.6797C20.1484 12.4141 19.7754 12.2812 19.2715 12.2812C18.5605 12.2812 18.0605 12.4824 17.7715 12.8848C17.4824 13.2871 17.3379 13.8711 17.3379 14.6367V18H16.3652V11.5781H17.1504L17.2969 12.5039H17.3496C17.4863 12.2773 17.6602 12.0879 17.8711 11.9355C18.082 11.7793 18.3184 11.6621 18.5801 11.584C18.8418 11.502 19.1172 11.4609 19.4062 11.4609ZM24.7031 18H23.7246V8.88281H24.7031V18ZM25.7461 11.5781H26.7891L28.207 15.3047C28.2891 15.5234 28.3652 15.7344 28.4355 15.9375C28.5059 16.1367 28.5684 16.3281 28.623 16.5117C28.6777 16.6953 28.7207 16.873 28.752 17.0449H28.793C28.8477 16.8496 28.9258 16.5938 29.0273 16.2773C29.1289 15.957 29.2383 15.6309 29.3555 15.2988L30.6973 11.5781H31.7461L28.9512 18.9434C28.8027 19.3379 28.6289 19.6816 28.4297 19.9746C28.2344 20.2676 27.9961 20.4922 27.7148 20.6484C27.4336 20.8086 27.0938 20.8887 26.6953 20.8887C26.5117 20.8887 26.3496 20.877 26.209 20.8535C26.0684 20.834 25.9473 20.8105 25.8457 20.7832V20.0039C25.9316 20.0234 26.0352 20.041 26.1562 20.0566C26.2812 20.0723 26.4102 20.0801 26.543 20.0801C26.7852 20.0801 26.9941 20.0332 27.1699 19.9395C27.3496 19.8496 27.5039 19.7168 27.6328 19.541C27.7617 19.3652 27.873 19.1562 27.9668 18.9141L28.3184 18.0117L25.7461 11.5781ZM39.0762 18H38.127V11.9297C38.127 11.6992 38.127 11.502 38.127 11.3379C38.1309 11.1699 38.1348 11.0176 38.1387 10.8809C38.1465 10.7402 38.1562 10.5977 38.168 10.4531C38.0469 10.5781 37.9336 10.6855 37.8281 10.7754C37.7227 10.8613 37.5918 10.9688 37.4355 11.0977L36.457 11.8828L35.9473 11.2207L38.2676 9.43359H39.0762V18ZM46.0195 18V9.43359H47.0156V18H46.0195ZM52.2656 11.4609C53.0273 11.4609 53.6035 11.6484 53.9941 12.0234C54.3848 12.3945 54.5801 12.9922 54.5801 13.8164V18H53.6191V13.8809C53.6191 13.3457 53.4961 12.9453 53.25 12.6797C53.0078 12.4141 52.6348 12.2812 52.1309 12.2812C51.4199 12.2812 50.9199 12.4824 50.6309 12.8848C50.3418 13.2871 50.1973 13.8711 50.1973 14.6367V18H49.2246V11.5781H50.0098L50.1562 12.5039H50.209C50.3457 12.2773 50.5195 12.0879 50.7305 11.9355C50.9414 11.7793 51.1777 11.6621 51.4395 11.584C51.7012 11.502 51.9766 11.4609 52.2656 11.4609ZM64.6816 15.7207C64.6816 16.2285 64.5547 16.6621 64.3008 17.0215C64.0508 17.377 63.6992 17.6484 63.2461 17.8359C62.793 18.0234 62.2598 18.1172 61.6465 18.1172C61.3223 18.1172 61.0156 18.1016 60.7266 18.0703C60.4375 18.0391 60.1719 17.9941 59.9297 17.9355C59.6875 17.877 59.4746 17.8047 59.291 17.7188V16.7637C59.584 16.8848 59.9414 16.998 60.3633 17.1035C60.7852 17.2051 61.2266 17.2559 61.6875 17.2559C62.1172 17.2559 62.4805 17.1992 62.7773 17.0859C63.0742 16.9688 63.2988 16.8027 63.4512 16.5879C63.6074 16.3691 63.6855 16.1074 63.6855 15.8027C63.6855 15.5098 63.6211 15.2656 63.4922 15.0703C63.3633 14.8711 63.1484 14.6914 62.8477 14.5312C62.5508 14.3672 62.1445 14.1934 61.6289 14.0098C61.2656 13.8809 60.9453 13.7402 60.668 13.5879C60.3906 13.4316 60.1582 13.2559 59.9707 13.0605C59.7832 12.8652 59.6406 12.6387 59.543 12.3809C59.4492 12.123 59.4023 11.8281 59.4023 11.4961C59.4023 11.0391 59.5176 10.6484 59.748 10.3242C59.9824 9.99609 60.3047 9.74609 60.7148 9.57422C61.1289 9.39844 61.6035 9.31055 62.1387 9.31055C62.5957 9.31055 63.0176 9.35352 63.4043 9.43945C63.7949 9.52539 64.1523 9.64062 64.4766 9.78516L64.166 10.6406C63.8574 10.5117 63.5293 10.4043 63.1816 10.3184C62.8379 10.2324 62.4824 10.1895 62.1152 10.1895C61.748 10.1895 61.4375 10.2441 61.1836 10.3535C60.9336 10.459 60.7422 10.6094 60.6094 10.8047C60.4766 11 60.4102 11.2324 60.4102 11.502C60.4102 11.8027 60.4727 12.0527 60.5977 12.252C60.7266 12.4512 60.9297 12.6289 61.207 12.7852C61.4883 12.9375 61.8594 13.0977 62.3203 13.2656C62.8242 13.4492 63.252 13.6445 63.6035 13.8516C63.9551 14.0547 64.2227 14.3047 64.4062 14.6016C64.5898 14.8945 64.6816 15.2676 64.6816 15.7207ZM68.3613 17.3203C68.5215 17.3203 68.6855 17.3066 68.8535 17.2793C69.0215 17.252 69.1582 17.2188 69.2637 17.1797V17.9355C69.1504 17.9863 68.9922 18.0293 68.7891 18.0645C68.5898 18.0996 68.3945 18.1172 68.2031 18.1172C67.8633 18.1172 67.5547 18.0586 67.2773 17.9414C67 17.8203 66.7773 17.6172 66.6094 17.332C66.4453 17.0469 66.3633 16.6523 66.3633 16.1484V12.3398H65.4492V11.8652L66.3691 11.4844L66.7559 10.0898H67.3418V11.5781H69.2227V12.3398H67.3418V16.1191C67.3418 16.5215 67.4336 16.8223 67.6172 17.0215C67.8047 17.2207 68.0527 17.3203 68.3613 17.3203ZM76.1016 14.7773C76.1016 15.3047 76.0332 15.7754 75.8965 16.1895C75.7598 16.6035 75.5625 16.9531 75.3047 17.2383C75.0469 17.5234 74.7344 17.7422 74.3672 17.8945C74.0039 18.043 73.5918 18.1172 73.1309 18.1172C72.7012 18.1172 72.3066 18.043 71.9473 17.8945C71.5918 17.7422 71.2832 17.5234 71.0215 17.2383C70.7637 16.9531 70.5625 16.6035 70.418 16.1895C70.2773 15.7754 70.207 15.3047 70.207 14.7773C70.207 14.0742 70.3262 13.4766 70.5645 12.9844C70.8027 12.4883 71.1426 12.1113 71.584 11.8535C72.0293 11.5918 72.5586 11.4609 73.1719 11.4609C73.7578 11.4609 74.2695 11.5918 74.707 11.8535C75.1484 12.1152 75.4902 12.4941 75.7324 12.9902C75.9785 13.4824 76.1016 14.0781 76.1016 14.7773ZM71.2148 14.7773C71.2148 15.293 71.2832 15.7402 71.4199 16.1191C71.5566 16.498 71.7676 16.791 72.0527 16.998C72.3379 17.2051 72.7051 17.3086 73.1543 17.3086C73.5996 17.3086 73.9648 17.2051 74.25 16.998C74.5391 16.791 74.752 16.498 74.8887 16.1191C75.0254 15.7402 75.0938 15.293 75.0938 14.7773C75.0938 14.2656 75.0254 13.8242 74.8887 13.4531C74.752 13.0781 74.541 12.7891 74.2559 12.5859C73.9707 12.3828 73.6016 12.2812 73.1484 12.2812C72.4805 12.2812 71.9902 12.502 71.6777 12.9434C71.3691 13.3848 71.2148 13.9961 71.2148 14.7773ZM80.3555 18.1172C79.7773 18.1172 79.2676 17.998 78.8262 17.7598C78.3848 17.5215 78.041 17.1582 77.7949 16.6699C77.5488 16.1816 77.4258 15.5664 77.4258 14.8242C77.4258 14.0469 77.5547 13.4121 77.8125 12.9199C78.0742 12.4238 78.4336 12.0566 78.8906 11.8184C79.3477 11.5801 79.8672 11.4609 80.4492 11.4609C80.7695 11.4609 81.0781 11.4941 81.375 11.5605C81.6758 11.623 81.9219 11.7031 82.1133 11.8008L81.8203 12.6152C81.625 12.5371 81.3984 12.4668 81.1406 12.4043C80.8867 12.3418 80.6484 12.3105 80.4258 12.3105C79.9805 12.3105 79.6094 12.4062 79.3125 12.5977C79.0195 12.7891 78.7988 13.0703 78.6504 13.4414C78.5059 13.8125 78.4336 14.2695 78.4336 14.8125C78.4336 15.332 78.5039 15.7754 78.6445 16.1426C78.7891 16.5098 79.002 16.791 79.2832 16.9863C79.5684 17.1777 79.9238 17.2734 80.3496 17.2734C80.6895 17.2734 80.9961 17.2383 81.2695 17.168C81.543 17.0938 81.791 17.0078 82.0137 16.9102V17.7773C81.7988 17.8867 81.5586 17.9707 81.293 18.0293C81.0312 18.0879 80.7188 18.1172 80.3555 18.1172ZM84.5039 8.88281V13.6172C84.5039 13.7734 84.498 13.9648 84.4863 14.1914C84.4746 14.4141 84.4648 14.6113 84.457 14.7832H84.498C84.5801 14.6816 84.6992 14.5312 84.8555 14.332C85.0156 14.1328 85.1504 13.9727 85.2598 13.8516L87.3926 11.5781H88.5352L85.9512 14.3203L88.7227 18H87.5508L85.2832 14.959L84.5039 15.6738V18H83.5371V8.88281H84.5039ZM89.6953 17.3906C89.6953 17.1172 89.7617 16.9238 89.8945 16.8105C90.0273 16.6934 90.1895 16.6348 90.3809 16.6348C90.5801 16.6348 90.748 16.6934 90.8848 16.8105C91.0215 16.9238 91.0898 17.1172 91.0898 17.3906C91.0898 17.6602 91.0215 17.8574 90.8848 17.9824C90.748 18.1035 90.5801 18.1641 90.3809 18.1641C90.1895 18.1641 90.0273 18.1035 89.8945 17.9824C89.7617 17.8574 89.6953 17.6602 89.6953 17.3906ZM98.4434 13.7285L100.723 9.43359H101.795L98.9414 14.6777V18H97.9453V14.7246L95.0859 9.43359H96.1758L98.4434 13.7285ZM108.363 14.7773C108.363 15.3047 108.295 15.7754 108.158 16.1895C108.021 16.6035 107.824 16.9531 107.566 17.2383C107.309 17.5234 106.996 17.7422 106.629 17.8945C106.266 18.043 105.854 18.1172 105.393 18.1172C104.963 18.1172 104.568 18.043 104.209 17.8945C103.854 17.7422 103.545 17.5234 103.283 17.2383C103.025 16.9531 102.824 16.6035 102.68 16.1895C102.539 15.7754 102.469 15.3047 102.469 14.7773C102.469 14.0742 102.588 13.4766 102.826 12.9844C103.064 12.4883 103.404 12.1113 103.846 11.8535C104.291 11.5918 104.82 11.4609 105.434 11.4609C106.02 11.4609 106.531 11.5918 106.969 11.8535C107.41 12.1152 107.752 12.4941 107.994 12.9902C108.24 13.4824 108.363 14.0781 108.363 14.7773ZM103.477 14.7773C103.477 15.293 103.545 15.7402 103.682 16.1191C103.818 16.498 104.029 16.791 104.314 16.998C104.6 17.2051 104.967 17.3086 105.416 17.3086C105.861 17.3086 106.227 17.2051 106.512 16.998C106.801 16.791 107.014 16.498 107.15 16.1191C107.287 15.7402 107.355 15.293 107.355 14.7773C107.355 14.2656 107.287 13.8242 107.15 13.4531C107.014 13.0781 106.803 12.7891 106.518 12.5859C106.232 12.3828 105.863 12.2812 105.41 12.2812C104.742 12.2812 104.252 12.502 103.939 12.9434C103.631 13.3848 103.477 13.9961 103.477 14.7773ZM115.348 11.5781V18H114.551L114.41 17.0977H114.357C114.225 17.3203 114.053 17.5078 113.842 17.6602C113.631 17.8125 113.393 17.9258 113.127 18C112.865 18.0781 112.586 18.1172 112.289 18.1172C111.781 18.1172 111.355 18.0352 111.012 17.8711C110.668 17.707 110.408 17.4531 110.232 17.1094C110.061 16.7656 109.975 16.3242 109.975 15.7852V11.5781H110.959V15.7148C110.959 16.25 111.08 16.6504 111.322 16.916C111.564 17.1777 111.934 17.3086 112.43 17.3086C112.906 17.3086 113.285 17.2188 113.566 17.0391C113.852 16.8594 114.057 16.5957 114.182 16.248C114.307 15.8965 114.369 15.4668 114.369 14.959V11.5781H115.348ZM122.982 9.43359C123.686 9.43359 124.266 9.52148 124.723 9.69727C125.184 9.86914 125.527 10.1328 125.754 10.4883C125.98 10.8438 126.094 11.2969 126.094 11.8477C126.094 12.3008 126.012 12.6797 125.848 12.9844C125.684 13.2852 125.469 13.5293 125.203 13.7168C124.938 13.9043 124.654 14.0488 124.354 14.1504L126.703 18H125.543L123.445 14.4258H121.664V18H120.668V9.43359H122.982ZM122.924 10.2949H121.664V13.582H123.023C123.723 13.582 124.236 13.4395 124.564 13.1543C124.896 12.8691 125.062 12.4492 125.062 11.8945C125.062 11.3125 124.887 10.9004 124.535 10.6582C124.188 10.416 123.65 10.2949 122.924 10.2949ZM130.4 11.4609C130.947 11.4609 131.416 11.582 131.807 11.8242C132.197 12.0664 132.496 12.4062 132.703 12.8438C132.91 13.2773 133.014 13.7852 133.014 14.3672V14.9707H128.578C128.59 15.7246 128.777 16.2988 129.141 16.6934C129.504 17.0879 130.016 17.2852 130.676 17.2852C131.082 17.2852 131.441 17.248 131.754 17.1738C132.066 17.0996 132.391 16.9902 132.727 16.8457V17.7012C132.402 17.8457 132.08 17.9512 131.76 18.0176C131.443 18.084 131.068 18.1172 130.635 18.1172C130.018 18.1172 129.479 17.9922 129.018 17.7422C128.561 17.4883 128.205 17.1172 127.951 16.6289C127.697 16.1406 127.57 15.543 127.57 14.8359C127.57 14.1445 127.686 13.5469 127.916 13.043C128.15 12.5352 128.479 12.1445 128.9 11.8711C129.326 11.5977 129.826 11.4609 130.4 11.4609ZM130.389 12.2578C129.869 12.2578 129.455 12.4277 129.146 12.7676C128.838 13.1074 128.654 13.582 128.596 14.1914H131.994C131.99 13.8086 131.93 13.4727 131.812 13.1836C131.699 12.8906 131.525 12.6641 131.291 12.5039C131.057 12.3398 130.756 12.2578 130.389 12.2578ZM138.973 20.8711V18.1172C138.973 17.9648 138.977 17.7891 138.984 17.5898C138.992 17.3906 139.006 17.2188 139.025 17.0742H138.961C138.781 17.3711 138.525 17.6191 138.193 17.8184C137.861 18.0176 137.434 18.1172 136.91 18.1172C136.125 18.1172 135.494 17.8398 135.018 17.2852C134.541 16.7305 134.303 15.9023 134.303 14.8008C134.303 14.0781 134.412 13.4688 134.631 12.9727C134.85 12.4766 135.158 12.1016 135.557 11.8477C135.959 11.5898 136.428 11.4609 136.963 11.4609C137.475 11.4609 137.893 11.5625 138.217 11.7656C138.541 11.9648 138.795 12.209 138.979 12.498H139.025L139.172 11.5781H139.945V20.8711H138.973ZM137.092 17.3086C137.545 17.3086 137.908 17.2246 138.182 17.0566C138.455 16.8848 138.654 16.627 138.779 16.2832C138.908 15.9395 138.977 15.5117 138.984 15V14.7949C138.984 13.9668 138.844 13.3398 138.562 12.9141C138.281 12.4844 137.791 12.2695 137.092 12.2695C136.49 12.2695 136.043 12.5 135.75 12.9609C135.457 13.418 135.311 14.0391 135.311 14.8242C135.311 15.6094 135.457 16.2207 135.75 16.6582C136.043 17.0918 136.49 17.3086 137.092 17.3086ZM147.316 11.5781V18H146.52L146.379 17.0977H146.326C146.193 17.3203 146.021 17.5078 145.811 17.6602C145.6 17.8125 145.361 17.9258 145.096 18C144.834 18.0781 144.555 18.1172 144.258 18.1172C143.75 18.1172 143.324 18.0352 142.98 17.8711C142.637 17.707 142.377 17.4531 142.201 17.1094C142.029 16.7656 141.943 16.3242 141.943 15.7852V11.5781H142.928V15.7148C142.928 16.25 143.049 16.6504 143.291 16.916C143.533 17.1777 143.902 17.3086 144.398 17.3086C144.875 17.3086 145.254 17.2188 145.535 17.0391C145.82 16.8594 146.025 16.5957 146.15 16.248C146.275 15.8965 146.338 15.4668 146.338 14.959V11.5781H147.316ZM151.846 11.4609C152.393 11.4609 152.861 11.582 153.252 11.8242C153.643 12.0664 153.941 12.4062 154.148 12.8438C154.355 13.2773 154.459 13.7852 154.459 14.3672V14.9707H150.023C150.035 15.7246 150.223 16.2988 150.586 16.6934C150.949 17.0879 151.461 17.2852 152.121 17.2852C152.527 17.2852 152.887 17.248 153.199 17.1738C153.512 17.0996 153.836 16.9902 154.172 16.8457V17.7012C153.848 17.8457 153.525 17.9512 153.205 18.0176C152.889 18.084 152.514 18.1172 152.08 18.1172C151.463 18.1172 150.924 17.9922 150.463 17.7422C150.006 17.4883 149.65 17.1172 149.396 16.6289C149.143 16.1406 149.016 15.543 149.016 14.8359C149.016 14.1445 149.131 13.5469 149.361 13.043C149.596 12.5352 149.924 12.1445 150.346 11.8711C150.771 11.5977 151.271 11.4609 151.846 11.4609ZM151.834 12.2578C151.314 12.2578 150.9 12.4277 150.592 12.7676C150.283 13.1074 150.1 13.582 150.041 14.1914H153.439C153.436 13.8086 153.375 13.4727 153.258 13.1836C153.145 12.8906 152.971 12.6641 152.736 12.5039C152.502 12.3398 152.201 12.2578 151.834 12.2578ZM160.266 16.2422C160.266 16.6523 160.162 16.998 159.955 17.2793C159.752 17.5566 159.459 17.7656 159.076 17.9062C158.697 18.0469 158.244 18.1172 157.717 18.1172C157.268 18.1172 156.879 18.082 156.551 18.0117C156.223 17.9414 155.936 17.8418 155.689 17.7129V16.8164C155.951 16.9453 156.264 17.0625 156.627 17.168C156.99 17.2734 157.361 17.3262 157.74 17.3262C158.295 17.3262 158.697 17.2363 158.947 17.0566C159.197 16.877 159.322 16.6328 159.322 16.3242C159.322 16.1484 159.271 15.9941 159.17 15.8613C159.072 15.7246 158.906 15.5938 158.672 15.4688C158.438 15.3398 158.113 15.1992 157.699 15.0469C157.289 14.8906 156.934 14.7363 156.633 14.584C156.336 14.4277 156.105 14.2383 155.941 14.0156C155.781 13.793 155.701 13.5039 155.701 13.1484C155.701 12.6055 155.92 12.1895 156.357 11.9004C156.799 11.6074 157.377 11.4609 158.092 11.4609C158.479 11.4609 158.84 11.5 159.176 11.5781C159.516 11.6523 159.832 11.7539 160.125 11.8828L159.797 12.6621C159.531 12.5488 159.248 12.4531 158.947 12.375C158.646 12.2969 158.34 12.2578 158.027 12.2578C157.578 12.2578 157.232 12.332 156.99 12.4805C156.752 12.6289 156.633 12.832 156.633 13.0898C156.633 13.2891 156.688 13.4531 156.797 13.582C156.91 13.7109 157.09 13.832 157.336 13.9453C157.582 14.0586 157.906 14.1914 158.309 14.3438C158.711 14.4922 159.059 14.6465 159.352 14.8066C159.645 14.9629 159.869 15.1543 160.025 15.3809C160.186 15.6035 160.266 15.8906 160.266 16.2422ZM163.904 17.3203C164.064 17.3203 164.229 17.3066 164.396 17.2793C164.564 17.252 164.701 17.2188 164.807 17.1797V17.9355C164.693 17.9863 164.535 18.0293 164.332 18.0645C164.133 18.0996 163.938 18.1172 163.746 18.1172C163.406 18.1172 163.098 18.0586 162.82 17.9414C162.543 17.8203 162.32 17.6172 162.152 17.332C161.988 17.0469 161.906 16.6523 161.906 16.1484V12.3398H160.992V11.8652L161.912 11.4844L162.299 10.0898H162.885V11.5781H164.766V12.3398H162.885V16.1191C162.885 16.5215 162.977 16.8223 163.16 17.0215C163.348 17.2207 163.596 17.3203 163.904 17.3203ZM168.58 11.4609C169.127 11.4609 169.596 11.582 169.986 11.8242C170.377 12.0664 170.676 12.4062 170.883 12.8438C171.09 13.2773 171.193 13.7852 171.193 14.3672V14.9707H166.758C166.77 15.7246 166.957 16.2988 167.32 16.6934C167.684 17.0879 168.195 17.2852 168.855 17.2852C169.262 17.2852 169.621 17.248 169.934 17.1738C170.246 17.0996 170.57 16.9902 170.906 16.8457V17.7012C170.582 17.8457 170.26 17.9512 169.939 18.0176C169.623 18.084 169.248 18.1172 168.814 18.1172C168.197 18.1172 167.658 17.9922 167.197 17.7422C166.74 17.4883 166.385 17.1172 166.131 16.6289C165.877 16.1406 165.75 15.543 165.75 14.8359C165.75 14.1445 165.865 13.5469 166.096 13.043C166.33 12.5352 166.658 12.1445 167.08 11.8711C167.506 11.5977 168.006 11.4609 168.58 11.4609ZM168.568 12.2578C168.049 12.2578 167.635 12.4277 167.326 12.7676C167.018 13.1074 166.834 13.582 166.775 14.1914H170.174C170.17 13.8086 170.109 13.4727 169.992 13.1836C169.879 12.8906 169.705 12.6641 169.471 12.5039C169.236 12.3398 168.936 12.2578 168.568 12.2578ZM175.131 18.1172C174.318 18.1172 173.674 17.8398 173.197 17.2852C172.725 16.7305 172.488 15.9062 172.488 14.8125C172.488 13.707 172.73 12.873 173.215 12.3105C173.699 11.7441 174.344 11.4609 175.148 11.4609C175.488 11.4609 175.785 11.5059 176.039 11.5957C176.293 11.6855 176.512 11.8066 176.695 11.959C176.879 12.1074 177.033 12.2773 177.158 12.4688H177.229C177.213 12.3477 177.197 12.1816 177.182 11.9707C177.166 11.7598 177.158 11.5879 177.158 11.4551V8.88281H178.131V18H177.346L177.199 17.0859H177.158C177.037 17.2773 176.883 17.4512 176.695 17.6074C176.512 17.7637 176.291 17.8887 176.033 17.9824C175.779 18.0723 175.479 18.1172 175.131 18.1172ZM175.283 17.3086C175.971 17.3086 176.457 17.1133 176.742 16.7227C177.027 16.332 177.17 15.752 177.17 14.9824V14.8066C177.17 13.9902 177.033 13.3633 176.76 12.9258C176.49 12.4883 175.998 12.2695 175.283 12.2695C174.686 12.2695 174.238 12.5 173.941 12.9609C173.645 13.418 173.496 14.043 173.496 14.8359C173.496 15.625 173.643 16.2344 173.936 16.6641C174.232 17.0938 174.682 17.3086 175.283 17.3086ZM188.49 18H182.877V17.1855L185.168 14.8594C185.594 14.4297 185.951 14.0469 186.24 13.7109C186.533 13.375 186.756 13.0449 186.908 12.7207C187.061 12.3926 187.137 12.0332 187.137 11.6426C187.137 11.1582 186.992 10.7891 186.703 10.5352C186.418 10.2773 186.041 10.1484 185.572 10.1484C185.162 10.1484 184.799 10.2188 184.482 10.3594C184.166 10.5 183.842 10.6992 183.51 10.957L182.988 10.3008C183.215 10.1094 183.461 9.93945 183.727 9.79102C183.996 9.64258 184.283 9.52539 184.588 9.43945C184.896 9.35352 185.225 9.31055 185.572 9.31055C186.1 9.31055 186.555 9.40234 186.938 9.58594C187.32 9.76953 187.615 10.0312 187.822 10.3711C188.033 10.7109 188.139 11.1152 188.139 11.584C188.139 12.0371 188.049 12.459 187.869 12.8496C187.689 13.2363 187.438 13.6211 187.113 14.0039C186.789 14.3828 186.41 14.7852 185.977 15.2109L184.113 17.0684V17.1094H188.49V18ZM190.031 17.3906C190.031 17.1172 190.098 16.9238 190.23 16.8105C190.363 16.6934 190.525 16.6348 190.717 16.6348C190.916 16.6348 191.084 16.6934 191.221 16.8105C191.357 16.9238 191.426 17.1172 191.426 17.3906C191.426 17.6602 191.357 17.8574 191.221 17.9824C191.084 18.1035 190.916 18.1641 190.717 18.1641C190.525 18.1641 190.363 18.1035 190.23 17.9824C190.098 17.8574 190.031 17.6602 190.031 17.3906Z" fill="#F5F5F5"/>
<rect width="94" height="24" transform="translate(203 1)" fill="#FFF1C0"/>
<path d="M217.602 13.7051C217.602 14.3652 217.518 14.9668 217.35 15.5098C217.182 16.0488 216.932 16.5137 216.6 16.9043C216.271 17.291 215.863 17.5898 215.375 17.8008C214.887 18.0117 214.32 18.1172 213.676 18.1172C213.012 18.1172 212.432 18.0117 211.936 17.8008C211.443 17.5898 211.033 17.2891 210.705 16.8984C210.381 16.5078 210.137 16.041 209.973 15.498C209.812 14.9551 209.732 14.3535 209.732 13.6934C209.732 12.8184 209.877 12.0508 210.166 11.3906C210.455 10.7305 210.893 10.2168 211.479 9.84961C212.068 9.48242 212.807 9.29883 213.693 9.29883C214.541 9.29883 215.254 9.48047 215.832 9.84375C216.414 10.207 216.854 10.7188 217.15 11.3789C217.451 12.0352 217.602 12.8105 217.602 13.7051ZM210.781 13.7051C210.781 14.4316 210.885 15.0605 211.092 15.5918C211.299 16.123 211.615 16.5332 212.041 16.8223C212.471 17.1113 213.016 17.2559 213.676 17.2559C214.34 17.2559 214.883 17.1113 215.305 16.8223C215.73 16.5332 216.045 16.123 216.248 15.5918C216.451 15.0605 216.553 14.4316 216.553 13.7051C216.553 12.5996 216.32 11.7363 215.855 11.1152C215.395 10.4902 214.674 10.1777 213.693 10.1777C213.029 10.1777 212.482 10.3203 212.053 10.6055C211.623 10.8906 211.303 11.2969 211.092 11.8242C210.885 12.3477 210.781 12.9746 210.781 13.7051ZM222.406 11.4609C223.168 11.4609 223.744 11.6484 224.135 12.0234C224.525 12.3945 224.721 12.9922 224.721 13.8164V18H223.76V13.8809C223.76 13.3457 223.637 12.9453 223.391 12.6797C223.148 12.4141 222.775 12.2812 222.271 12.2812C221.561 12.2812 221.061 12.4824 220.771 12.8848C220.482 13.2871 220.338 13.8711 220.338 14.6367V18H219.365V11.5781H220.15L220.297 12.5039H220.35C220.486 12.2773 220.66 12.0879 220.871 11.9355C221.082 11.7793 221.318 11.6621 221.58 11.584C221.842 11.502 222.117 11.4609 222.406 11.4609ZM227.703 18H226.725V8.88281H227.703V18ZM228.746 11.5781H229.789L231.207 15.3047C231.289 15.5234 231.365 15.7344 231.436 15.9375C231.506 16.1367 231.568 16.3281 231.623 16.5117C231.678 16.6953 231.721 16.873 231.752 17.0449H231.793C231.848 16.8496 231.926 16.5938 232.027 16.2773C232.129 15.957 232.238 15.6309 232.355 15.2988L233.697 11.5781H234.746L231.951 18.9434C231.803 19.3379 231.629 19.6816 231.43 19.9746C231.234 20.2676 230.996 20.4922 230.715 20.6484C230.434 20.8086 230.094 20.8887 229.695 20.8887C229.512 20.8887 229.35 20.877 229.209 20.8535C229.068 20.834 228.947 20.8105 228.846 20.7832V20.0039C228.932 20.0234 229.035 20.041 229.156 20.0566C229.281 20.0723 229.41 20.0801 229.543 20.0801C229.785 20.0801 229.994 20.0332 230.17 19.9395C230.35 19.8496 230.504 19.7168 230.633 19.541C230.762 19.3652 230.873 19.1562 230.967 18.9141L231.318 18.0117L228.746 11.5781ZM242.076 18H241.127V11.9297C241.127 11.6992 241.127 11.502 241.127 11.3379C241.131 11.1699 241.135 11.0176 241.139 10.8809C241.146 10.7402 241.156 10.5977 241.168 10.4531C241.047 10.5781 240.934 10.6855 240.828 10.7754C240.723 10.8613 240.592 10.9688 240.436 11.0977L239.457 11.8828L238.947 11.2207L241.268 9.43359H242.076V18ZM251.334 9.43359C252.037 9.43359 252.617 9.52148 253.074 9.69727C253.535 9.86914 253.879 10.1328 254.105 10.4883C254.332 10.8438 254.445 11.2969 254.445 11.8477C254.445 12.3008 254.363 12.6797 254.199 12.9844C254.035 13.2852 253.82 13.5293 253.555 13.7168C253.289 13.9043 253.006 14.0488 252.705 14.1504L255.055 18H253.895L251.797 14.4258H250.016V18H249.02V9.43359H251.334ZM251.275 10.2949H250.016V13.582H251.375C252.074 13.582 252.588 13.4395 252.916 13.1543C253.248 12.8691 253.414 12.4492 253.414 11.8945C253.414 11.3125 253.238 10.9004 252.887 10.6582C252.539 10.416 252.002 10.2949 251.275 10.2949ZM258.752 11.4609C259.299 11.4609 259.768 11.582 260.158 11.8242C260.549 12.0664 260.848 12.4062 261.055 12.8438C261.262 13.2773 261.365 13.7852 261.365 14.3672V14.9707H256.93C256.941 15.7246 257.129 16.2988 257.492 16.6934C257.855 17.0879 258.367 17.2852 259.027 17.2852C259.434 17.2852 259.793 17.248 260.105 17.1738C260.418 17.0996 260.742 16.9902 261.078 16.8457V17.7012C260.754 17.8457 260.432 17.9512 260.111 18.0176C259.795 18.084 259.42 18.1172 258.986 18.1172C258.369 18.1172 257.83 17.9922 257.369 17.7422C256.912 17.4883 256.557 17.1172 256.303 16.6289C256.049 16.1406 255.922 15.543 255.922 14.8359C255.922 14.1445 256.037 13.5469 256.268 13.043C256.502 12.5352 256.83 12.1445 257.252 11.8711C257.678 11.5977 258.178 11.4609 258.752 11.4609ZM258.74 12.2578C258.221 12.2578 257.807 12.4277 257.498 12.7676C257.189 13.1074 257.006 13.582 256.947 14.1914H260.346C260.342 13.8086 260.281 13.4727 260.164 13.1836C260.051 12.8906 259.877 12.6641 259.643 12.5039C259.408 12.3398 259.107 12.2578 258.74 12.2578ZM269.99 11.4609C270.697 11.4609 271.23 11.6465 271.59 12.0176C271.949 12.3848 272.129 12.9766 272.129 13.793V18H271.168V13.8398C271.168 13.3203 271.055 12.9316 270.828 12.6738C270.605 12.4121 270.273 12.2812 269.832 12.2812C269.211 12.2812 268.76 12.4609 268.479 12.8203C268.197 13.1797 268.057 13.709 268.057 14.4082V18H267.09V13.8398C267.09 13.4922 267.039 13.2031 266.938 12.9727C266.84 12.7422 266.691 12.5703 266.492 12.457C266.297 12.3398 266.049 12.2812 265.748 12.2812C265.322 12.2812 264.98 12.3691 264.723 12.5449C264.465 12.7207 264.277 12.9824 264.16 13.3301C264.047 13.6738 263.99 14.0977 263.99 14.6016V18H263.018V11.5781H263.803L263.949 12.4863H264.002C264.131 12.2637 264.293 12.0762 264.488 11.9238C264.684 11.7715 264.902 11.6562 265.145 11.5781C265.387 11.5 265.645 11.4609 265.918 11.4609C266.406 11.4609 266.814 11.5527 267.143 11.7363C267.475 11.916 267.715 12.1914 267.863 12.5625H267.916C268.127 12.1914 268.416 11.916 268.783 11.7363C269.15 11.5527 269.553 11.4609 269.99 11.4609ZM276.529 11.4727C277.295 11.4727 277.863 11.6445 278.234 11.9883C278.605 12.332 278.791 12.8809 278.791 13.6348V18H278.082L277.895 17.0508H277.848C277.668 17.2852 277.48 17.4824 277.285 17.6426C277.09 17.7988 276.863 17.918 276.605 18C276.352 18.0781 276.039 18.1172 275.668 18.1172C275.277 18.1172 274.93 18.0488 274.625 17.9121C274.324 17.7754 274.086 17.5684 273.91 17.291C273.738 17.0137 273.652 16.6621 273.652 16.2363C273.652 15.5957 273.906 15.1035 274.414 14.7598C274.922 14.416 275.695 14.2285 276.734 14.1973L277.842 14.1504V13.7578C277.842 13.2031 277.723 12.8145 277.484 12.5918C277.246 12.3691 276.91 12.2578 276.477 12.2578C276.141 12.2578 275.82 12.3066 275.516 12.4043C275.211 12.502 274.922 12.6172 274.648 12.75L274.35 12.0117C274.639 11.8633 274.971 11.7363 275.346 11.6309C275.721 11.5254 276.115 11.4727 276.529 11.4727ZM277.83 14.8359L276.852 14.877C276.051 14.9082 275.486 15.0391 275.158 15.2695C274.83 15.5 274.666 15.8262 274.666 16.248C274.666 16.6152 274.777 16.8867 275 17.0625C275.223 17.2383 275.518 17.3262 275.885 17.3262C276.455 17.3262 276.922 17.168 277.285 16.8516C277.648 16.5352 277.83 16.0605 277.83 15.4277V14.8359ZM281.768 11.5781V18H280.795V11.5781H281.768ZM281.293 9.17578C281.453 9.17578 281.59 9.22852 281.703 9.33398C281.82 9.43555 281.879 9.5957 281.879 9.81445C281.879 10.0293 281.82 10.1895 281.703 10.2949C281.59 10.4004 281.453 10.4531 281.293 10.4531C281.125 10.4531 280.984 10.4004 280.871 10.2949C280.762 10.1895 280.707 10.0293 280.707 9.81445C280.707 9.5957 280.762 9.43555 280.871 9.33398C280.984 9.22852 281.125 9.17578 281.293 9.17578ZM286.871 11.4609C287.633 11.4609 288.209 11.6484 288.6 12.0234C288.99 12.3945 289.186 12.9922 289.186 13.8164V18H288.225V13.8809C288.225 13.3457 288.102 12.9453 287.855 12.6797C287.613 12.4141 287.24 12.2812 286.736 12.2812C286.025 12.2812 285.525 12.4824 285.236 12.8848C284.947 13.2871 284.803 13.8711 284.803 14.6367V18H283.83V11.5781H284.615L284.762 12.5039H284.814C284.951 12.2773 285.125 12.0879 285.336 11.9355C285.547 11.7793 285.783 11.6621 286.045 11.584C286.307 11.502 286.582 11.4609 286.871 11.4609Z" fill="#AB7221"/>
<rect width="246" height="24" transform="translate(0 29.5)" fill="#D3E8E0"/>
<path d="M9.35742 42.2285L11.6367 37.9336H12.709L9.85547 43.1777V46.5H8.85938V43.2246L6 37.9336H7.08984L9.35742 42.2285ZM19.2773 43.2773C19.2773 43.8047 19.209 44.2754 19.0723 44.6895C18.9355 45.1035 18.7383 45.4531 18.4805 45.7383C18.2227 46.0234 17.9102 46.2422 17.543 46.3945C17.1797 46.543 16.7676 46.6172 16.3066 46.6172C15.877 46.6172 15.4824 46.543 15.123 46.3945C14.7676 46.2422 14.459 46.0234 14.1973 45.7383C13.9395 45.4531 13.7383 45.1035 13.5938 44.6895C13.4531 44.2754 13.3828 43.8047 13.3828 43.2773C13.3828 42.5742 13.502 41.9766 13.7402 41.4844C13.9785 40.9883 14.3184 40.6113 14.7598 40.3535C15.2051 40.0918 15.7344 39.9609 16.3477 39.9609C16.9336 39.9609 17.4453 40.0918 17.8828 40.3535C18.3242 40.6152 18.666 40.9941 18.9082 41.4902C19.1543 41.9824 19.2773 42.5781 19.2773 43.2773ZM14.3906 43.2773C14.3906 43.793 14.459 44.2402 14.5957 44.6191C14.7324 44.998 14.9434 45.291 15.2285 45.498C15.5137 45.7051 15.8809 45.8086 16.3301 45.8086C16.7754 45.8086 17.1406 45.7051 17.4258 45.498C17.7148 45.291 17.9277 44.998 18.0645 44.6191C18.2012 44.2402 18.2695 43.793 18.2695 43.2773C18.2695 42.7656 18.2012 42.3242 18.0645 41.9531C17.9277 41.5781 17.7168 41.2891 17.4316 41.0859C17.1465 40.8828 16.7773 40.7812 16.3242 40.7812C15.6562 40.7812 15.166 41.002 14.8535 41.4434C14.5449 41.8848 14.3906 42.4961 14.3906 43.2773ZM26.2617 40.0781V46.5H25.4648L25.3242 45.5977H25.2715C25.1387 45.8203 24.9668 46.0078 24.7559 46.1602C24.5449 46.3125 24.3066 46.4258 24.041 46.5C23.7793 46.5781 23.5 46.6172 23.2031 46.6172C22.6953 46.6172 22.2695 46.5352 21.9258 46.3711C21.582 46.207 21.3223 45.9531 21.1465 45.6094C20.9746 45.2656 20.8887 44.8242 20.8887 44.2852V40.0781H21.873V44.2148C21.873 44.75 21.9941 45.1504 22.2363 45.416C22.4785 45.6777 22.8477 45.8086 23.3438 45.8086C23.8203 45.8086 24.1992 45.7188 24.4805 45.5391C24.7656 45.3594 24.9707 45.0957 25.0957 44.748C25.2207 44.3965 25.2832 43.9668 25.2832 43.459V40.0781H26.2617ZM36.416 44.2207C36.416 44.7285 36.2891 45.1621 36.0352 45.5215C35.7852 45.877 35.4336 46.1484 34.9805 46.3359C34.5273 46.5234 33.9941 46.6172 33.3809 46.6172C33.0566 46.6172 32.75 46.6016 32.4609 46.5703C32.1719 46.5391 31.9062 46.4941 31.6641 46.4355C31.4219 46.377 31.209 46.3047 31.0254 46.2188V45.2637C31.3184 45.3848 31.6758 45.498 32.0977 45.6035C32.5195 45.7051 32.9609 45.7559 33.4219 45.7559C33.8516 45.7559 34.2148 45.6992 34.5117 45.5859C34.8086 45.4688 35.0332 45.3027 35.1855 45.0879C35.3418 44.8691 35.4199 44.6074 35.4199 44.3027C35.4199 44.0098 35.3555 43.7656 35.2266 43.5703C35.0977 43.3711 34.8828 43.1914 34.582 43.0312C34.2852 42.8672 33.8789 42.6934 33.3633 42.5098C33 42.3809 32.6797 42.2402 32.4023 42.0879C32.125 41.9316 31.8926 41.7559 31.7051 41.5605C31.5176 41.3652 31.375 41.1387 31.2773 40.8809C31.1836 40.623 31.1367 40.3281 31.1367 39.9961C31.1367 39.5391 31.252 39.1484 31.4824 38.8242C31.7168 38.4961 32.0391 38.2461 32.4492 38.0742C32.8633 37.8984 33.3379 37.8105 33.873 37.8105C34.3301 37.8105 34.752 37.8535 35.1387 37.9395C35.5293 38.0254 35.8867 38.1406 36.2109 38.2852L35.9004 39.1406C35.5918 39.0117 35.2637 38.9043 34.916 38.8184C34.5723 38.7324 34.2168 38.6895 33.8496 38.6895C33.4824 38.6895 33.1719 38.7441 32.918 38.8535C32.668 38.959 32.4766 39.1094 32.3438 39.3047C32.2109 39.5 32.1445 39.7324 32.1445 40.002C32.1445 40.3027 32.207 40.5527 32.332 40.752C32.4609 40.9512 32.6641 41.1289 32.9414 41.2852C33.2227 41.4375 33.5938 41.5977 34.0547 41.7656C34.5586 41.9492 34.9863 42.1445 35.3379 42.3516C35.6895 42.5547 35.957 42.8047 36.1406 43.1016C36.3242 43.3945 36.416 43.7676 36.416 44.2207ZM40.4238 39.9727C41.1895 39.9727 41.7578 40.1445 42.1289 40.4883C42.5 40.832 42.6855 41.3809 42.6855 42.1348V46.5H41.9766L41.7891 45.5508H41.7422C41.5625 45.7852 41.375 45.9824 41.1797 46.1426C40.9844 46.2988 40.7578 46.418 40.5 46.5C40.2461 46.5781 39.9336 46.6172 39.5625 46.6172C39.1719 46.6172 38.8242 46.5488 38.5195 46.4121C38.2188 46.2754 37.9805 46.0684 37.8047 45.791C37.6328 45.5137 37.5469 45.1621 37.5469 44.7363C37.5469 44.0957 37.8008 43.6035 38.3086 43.2598C38.8164 42.916 39.5898 42.7285 40.6289 42.6973L41.7363 42.6504V42.2578C41.7363 41.7031 41.6172 41.3145 41.3789 41.0918C41.1406 40.8691 40.8047 40.7578 40.3711 40.7578C40.0352 40.7578 39.7148 40.8066 39.4102 40.9043C39.1055 41.002 38.8164 41.1172 38.543 41.25L38.2441 40.5117C38.5332 40.3633 38.8652 40.2363 39.2402 40.1309C39.6152 40.0254 40.0098 39.9727 40.4238 39.9727ZM41.7246 43.3359L40.7461 43.377C39.9453 43.4082 39.3809 43.5391 39.0527 43.7695C38.7246 44 38.5605 44.3262 38.5605 44.748C38.5605 45.1152 38.6719 45.3867 38.8945 45.5625C39.1172 45.7383 39.4121 45.8262 39.7793 45.8262C40.3496 45.8262 40.8164 45.668 41.1797 45.3516C41.543 45.0352 41.7246 44.5605 41.7246 43.9277V43.3359ZM46.1016 46.5L43.6641 40.0781H44.707L46.1191 43.9629C46.2168 44.2285 46.3164 44.5215 46.418 44.8418C46.5195 45.1621 46.5898 45.4199 46.6289 45.6152H46.6699C46.7168 45.4199 46.7949 45.1621 46.9043 44.8418C47.0137 44.5176 47.1133 44.2246 47.2031 43.9629L48.6152 40.0781H49.6582L47.2148 46.5H46.1016ZM53.1621 39.9609C53.709 39.9609 54.1777 40.082 54.5684 40.3242C54.959 40.5664 55.2578 40.9062 55.4648 41.3438C55.6719 41.7773 55.7754 42.2852 55.7754 42.8672V43.4707H51.3398C51.3516 44.2246 51.5391 44.7988 51.9023 45.1934C52.2656 45.5879 52.7773 45.7852 53.4375 45.7852C53.8438 45.7852 54.2031 45.748 54.5156 45.6738C54.8281 45.5996 55.1523 45.4902 55.4883 45.3457V46.2012C55.1641 46.3457 54.8418 46.4512 54.5215 46.5176C54.2051 46.584 53.8301 46.6172 53.3965 46.6172C52.7793 46.6172 52.2402 46.4922 51.7793 46.2422C51.3223 45.9883 50.9668 45.6172 50.7129 45.1289C50.459 44.6406 50.332 44.043 50.332 43.3359C50.332 42.6445 50.4473 42.0469 50.6777 41.543C50.9121 41.0352 51.2402 40.6445 51.6621 40.3711C52.0879 40.0977 52.5879 39.9609 53.1621 39.9609ZM53.1504 40.7578C52.6309 40.7578 52.2168 40.9277 51.9082 41.2676C51.5996 41.6074 51.416 42.082 51.3574 42.6914H54.7559C54.752 42.3086 54.6914 41.9727 54.5742 41.6836C54.4609 41.3906 54.2871 41.1641 54.0527 41.0039C53.8184 40.8398 53.5176 40.7578 53.1504 40.7578ZM59.7129 46.6172C58.9004 46.6172 58.2559 46.3398 57.7793 45.7852C57.3066 45.2305 57.0703 44.4062 57.0703 43.3125C57.0703 42.207 57.3125 41.373 57.7969 40.8105C58.2812 40.2441 58.9258 39.9609 59.7305 39.9609C60.0703 39.9609 60.3672 40.0059 60.6211 40.0957C60.875 40.1855 61.0938 40.3066 61.2773 40.459C61.4609 40.6074 61.6152 40.7773 61.7402 40.9688H61.8105C61.7949 40.8477 61.7793 40.6816 61.7637 40.4707C61.748 40.2598 61.7402 40.0879 61.7402 39.9551V37.3828H62.7129V46.5H61.9277L61.7812 45.5859H61.7402C61.6191 45.7773 61.4648 45.9512 61.2773 46.1074C61.0938 46.2637 60.873 46.3887 60.6152 46.4824C60.3613 46.5723 60.0605 46.6172 59.7129 46.6172ZM59.8652 45.8086C60.5527 45.8086 61.0391 45.6133 61.3242 45.2227C61.6094 44.832 61.752 44.252 61.752 43.4824V43.3066C61.752 42.4902 61.6152 41.8633 61.3418 41.4258C61.0723 40.9883 60.5801 40.7695 59.8652 40.7695C59.2676 40.7695 58.8203 41 58.5234 41.4609C58.2266 41.918 58.0781 42.543 58.0781 43.3359C58.0781 44.125 58.2246 44.7344 58.5176 45.1641C58.8145 45.5938 59.2637 45.8086 59.8652 45.8086ZM75.4688 42.2051C75.4688 42.8652 75.3848 43.4668 75.2168 44.0098C75.0488 44.5488 74.7988 45.0137 74.4668 45.4043C74.1387 45.791 73.7305 46.0898 73.2422 46.3008C72.7539 46.5117 72.1875 46.6172 71.543 46.6172C70.8789 46.6172 70.2988 46.5117 69.8027 46.3008C69.3105 46.0898 68.9004 45.7891 68.5723 45.3984C68.248 45.0078 68.0039 44.541 67.8398 43.998C67.6797 43.4551 67.5996 42.8535 67.5996 42.1934C67.5996 41.3184 67.7441 40.5508 68.0332 39.8906C68.3223 39.2305 68.7598 38.7168 69.3457 38.3496C69.9355 37.9824 70.6738 37.7988 71.5605 37.7988C72.4082 37.7988 73.1211 37.9805 73.6992 38.3438C74.2812 38.707 74.7207 39.2188 75.0176 39.8789C75.3184 40.5352 75.4688 41.3105 75.4688 42.2051ZM68.6484 42.2051C68.6484 42.9316 68.752 43.5605 68.959 44.0918C69.166 44.623 69.4824 45.0332 69.9082 45.3223C70.3379 45.6113 70.8828 45.7559 71.543 45.7559C72.207 45.7559 72.75 45.6113 73.1719 45.3223C73.5977 45.0332 73.9121 44.623 74.1152 44.0918C74.3184 43.5605 74.4199 42.9316 74.4199 42.2051C74.4199 41.0996 74.1875 40.2363 73.7227 39.6152C73.2617 38.9902 72.541 38.6777 71.5605 38.6777C70.8965 38.6777 70.3496 38.8203 69.9199 39.1055C69.4902 39.3906 69.1699 39.7969 68.959 40.3242C68.752 40.8477 68.6484 41.4746 68.6484 42.2051ZM80.2734 39.9609C81.0352 39.9609 81.6113 40.1484 82.002 40.5234C82.3926 40.8945 82.5879 41.4922 82.5879 42.3164V46.5H81.627V42.3809C81.627 41.8457 81.5039 41.4453 81.2578 41.1797C81.0156 40.9141 80.6426 40.7812 80.1387 40.7812C79.4277 40.7812 78.9277 40.9824 78.6387 41.3848C78.3496 41.7871 78.2051 42.3711 78.2051 43.1367V46.5H77.2324V40.0781H78.0176L78.1641 41.0039H78.2168C78.3535 40.7773 78.5273 40.5879 78.7383 40.4355C78.9492 40.2793 79.1855 40.1621 79.4473 40.084C79.709 40.002 79.9844 39.9609 80.2734 39.9609ZM94.6582 42.1348C94.6582 43.0996 94.4824 43.9062 94.1309 44.5547C93.7793 45.1992 93.2695 45.6855 92.6016 46.0137C91.9375 46.3379 91.1309 46.5 90.1816 46.5H87.8555V37.9336H90.4395C91.3105 37.9336 92.0605 38.0938 92.6895 38.4141C93.3184 38.7305 93.8027 39.2012 94.1426 39.8262C94.4863 40.4473 94.6582 41.2168 94.6582 42.1348ZM93.6094 42.1699C93.6094 41.4004 93.4805 40.7656 93.2227 40.2656C92.9688 39.7656 92.5938 39.3945 92.0977 39.1523C91.6055 38.9062 91.002 38.7832 90.2871 38.7832H88.8516V45.6445H90.0645C91.2441 45.6445 92.1289 45.3535 92.7188 44.7715C93.3125 44.1895 93.6094 43.3223 93.6094 42.1699ZM97.3887 40.0781V46.5H96.416V40.0781H97.3887ZM96.9141 37.6758C97.0742 37.6758 97.2109 37.7285 97.3242 37.834C97.4414 37.9355 97.5 38.0957 97.5 38.3145C97.5 38.5293 97.4414 38.6895 97.3242 38.7949C97.2109 38.9004 97.0742 38.9531 96.9141 38.9531C96.7461 38.9531 96.6055 38.9004 96.4922 38.7949C96.3828 38.6895 96.3281 38.5293 96.3281 38.3145C96.3281 38.0957 96.3828 37.9355 96.4922 37.834C96.6055 37.7285 96.7461 37.6758 96.9141 37.6758ZM101.924 39.9609C102.471 39.9609 102.939 40.082 103.33 40.3242C103.721 40.5664 104.02 40.9062 104.227 41.3438C104.434 41.7773 104.537 42.2852 104.537 42.8672V43.4707H100.102C100.113 44.2246 100.301 44.7988 100.664 45.1934C101.027 45.5879 101.539 45.7852 102.199 45.7852C102.605 45.7852 102.965 45.748 103.277 45.6738C103.59 45.5996 103.914 45.4902 104.25 45.3457V46.2012C103.926 46.3457 103.604 46.4512 103.283 46.5176C102.967 46.584 102.592 46.6172 102.158 46.6172C101.541 46.6172 101.002 46.4922 100.541 46.2422C100.084 45.9883 99.7285 45.6172 99.4746 45.1289C99.2207 44.6406 99.0938 44.043 99.0938 43.3359C99.0938 42.6445 99.209 42.0469 99.4395 41.543C99.6738 41.0352 100.002 40.6445 100.424 40.3711C100.85 40.0977 101.35 39.9609 101.924 39.9609ZM101.912 40.7578C101.393 40.7578 100.979 40.9277 100.67 41.2676C100.361 41.6074 100.178 42.082 100.119 42.6914H103.518C103.514 42.3086 103.453 41.9727 103.336 41.6836C103.223 41.3906 103.049 41.1641 102.814 41.0039C102.58 40.8398 102.279 40.7578 101.912 40.7578ZM113.115 38.6895C112.643 38.6895 112.217 38.7715 111.838 38.9355C111.463 39.0957 111.143 39.3301 110.877 39.6387C110.615 39.9434 110.414 40.3125 110.273 40.7461C110.133 41.1797 110.062 41.668 110.062 42.2109C110.062 42.9297 110.174 43.5547 110.396 44.0859C110.623 44.6133 110.959 45.0215 111.404 45.3105C111.854 45.5996 112.414 45.7441 113.086 45.7441C113.469 45.7441 113.828 45.7129 114.164 45.6504C114.504 45.584 114.834 45.502 115.154 45.4043V46.2715C114.842 46.3887 114.514 46.4746 114.17 46.5293C113.826 46.5879 113.418 46.6172 112.945 46.6172C112.074 46.6172 111.346 46.4375 110.76 46.0781C110.178 45.7148 109.74 45.2031 109.447 44.543C109.158 43.8828 109.014 43.1035 109.014 42.2051C109.014 41.5566 109.104 40.9648 109.283 40.4297C109.467 39.8906 109.732 39.4258 110.08 39.0352C110.432 38.6445 110.861 38.3438 111.369 38.1328C111.881 37.918 112.467 37.8105 113.127 37.8105C113.561 37.8105 113.979 37.8535 114.381 37.9395C114.783 38.0254 115.146 38.1484 115.471 38.3086L115.072 39.1523C114.799 39.0273 114.498 38.9199 114.17 38.8301C113.846 38.7363 113.494 38.6895 113.115 38.6895ZM122.168 40.0781V46.5H121.371L121.23 45.5977H121.178C121.045 45.8203 120.873 46.0078 120.662 46.1602C120.451 46.3125 120.213 46.4258 119.947 46.5C119.686 46.5781 119.406 46.6172 119.109 46.6172C118.602 46.6172 118.176 46.5352 117.832 46.3711C117.488 46.207 117.229 45.9531 117.053 45.6094C116.881 45.2656 116.795 44.8242 116.795 44.2852V40.0781H117.779V44.2148C117.779 44.75 117.9 45.1504 118.143 45.416C118.385 45.6777 118.754 45.8086 119.25 45.8086C119.727 45.8086 120.105 45.7188 120.387 45.5391C120.672 45.3594 120.877 45.0957 121.002 44.748C121.127 44.3965 121.189 43.9668 121.189 43.459V40.0781H122.168ZM126.299 45.8203C126.459 45.8203 126.623 45.8066 126.791 45.7793C126.959 45.752 127.096 45.7188 127.201 45.6797V46.4355C127.088 46.4863 126.93 46.5293 126.727 46.5645C126.527 46.5996 126.332 46.6172 126.141 46.6172C125.801 46.6172 125.492 46.5586 125.215 46.4414C124.938 46.3203 124.715 46.1172 124.547 45.832C124.383 45.5469 124.301 45.1523 124.301 44.6484V40.8398H123.387V40.3652L124.307 39.9844L124.693 38.5898H125.279V40.0781H127.16V40.8398H125.279V44.6191C125.279 45.0215 125.371 45.3223 125.555 45.5215C125.742 45.7207 125.99 45.8203 126.299 45.8203ZM130.576 45.8203C130.736 45.8203 130.9 45.8066 131.068 45.7793C131.236 45.752 131.373 45.7188 131.479 45.6797V46.4355C131.365 46.4863 131.207 46.5293 131.004 46.5645C130.805 46.5996 130.609 46.6172 130.418 46.6172C130.078 46.6172 129.77 46.5586 129.492 46.4414C129.215 46.3203 128.992 46.1172 128.824 45.832C128.66 45.5469 128.578 45.1523 128.578 44.6484V40.8398H127.664V40.3652L128.584 39.9844L128.971 38.5898H129.557V40.0781H131.438V40.8398H129.557V44.6191C129.557 45.0215 129.648 45.3223 129.832 45.5215C130.02 45.7207 130.268 45.8203 130.576 45.8203ZM133.752 40.0781V46.5H132.779V40.0781H133.752ZM133.277 37.6758C133.438 37.6758 133.574 37.7285 133.688 37.834C133.805 37.9355 133.863 38.0957 133.863 38.3145C133.863 38.5293 133.805 38.6895 133.688 38.7949C133.574 38.9004 133.438 38.9531 133.277 38.9531C133.109 38.9531 132.969 38.9004 132.855 38.7949C132.746 38.6895 132.691 38.5293 132.691 38.3145C132.691 38.0957 132.746 37.9355 132.855 37.834C132.969 37.7285 133.109 37.6758 133.277 37.6758ZM138.855 39.9609C139.617 39.9609 140.193 40.1484 140.584 40.5234C140.975 40.8945 141.17 41.4922 141.17 42.3164V46.5H140.209V42.3809C140.209 41.8457 140.086 41.4453 139.84 41.1797C139.598 40.9141 139.225 40.7812 138.721 40.7812C138.01 40.7812 137.51 40.9824 137.221 41.3848C136.932 41.7871 136.787 42.3711 136.787 43.1367V46.5H135.814V40.0781H136.6L136.746 41.0039H136.799C136.936 40.7773 137.109 40.5879 137.32 40.4355C137.531 40.2793 137.768 40.1621 138.029 40.084C138.291 40.002 138.566 39.9609 138.855 39.9609ZM144.967 49.3828C144.123 49.3828 143.473 49.2246 143.016 48.9082C142.559 48.5957 142.33 48.1562 142.33 47.5898C142.33 47.1875 142.457 46.8438 142.711 46.5586C142.969 46.2734 143.324 46.084 143.777 45.9902C143.609 45.9121 143.465 45.7949 143.344 45.6387C143.227 45.4824 143.168 45.3027 143.168 45.0996C143.168 44.8652 143.232 44.6602 143.361 44.4844C143.494 44.3047 143.695 44.1328 143.965 43.9688C143.629 43.832 143.355 43.6016 143.145 43.2773C142.938 42.9492 142.834 42.5684 142.834 42.1348C142.834 41.6738 142.93 41.2812 143.121 40.957C143.312 40.6289 143.59 40.3789 143.953 40.207C144.316 40.0352 144.756 39.9492 145.271 39.9492C145.385 39.9492 145.498 39.9551 145.611 39.9668C145.729 39.9746 145.84 39.9883 145.945 40.0078C146.051 40.0234 146.143 40.043 146.221 40.0664H148.424V40.6934L147.24 40.8398C147.357 40.9922 147.455 41.1758 147.533 41.3906C147.611 41.6055 147.65 41.8438 147.65 42.1055C147.65 42.7461 147.434 43.2559 147 43.6348C146.566 44.0098 145.971 44.1973 145.213 44.1973C145.033 44.1973 144.85 44.1816 144.662 44.1504C144.471 44.2559 144.324 44.373 144.223 44.502C144.125 44.6309 144.076 44.7793 144.076 44.9473C144.076 45.0723 144.113 45.1719 144.188 45.2461C144.266 45.3203 144.377 45.375 144.521 45.4102C144.666 45.4414 144.84 45.457 145.043 45.457H146.174C146.873 45.457 147.408 45.6035 147.779 45.8965C148.154 46.1895 148.342 46.6172 148.342 47.1797C148.342 47.8906 148.053 48.4355 147.475 48.8145C146.896 49.1934 146.061 49.3828 144.967 49.3828ZM144.996 48.6211C145.527 48.6211 145.967 48.5664 146.314 48.457C146.666 48.3516 146.928 48.1973 147.1 47.9941C147.275 47.7949 147.363 47.5566 147.363 47.2793C147.363 47.0215 147.305 46.8262 147.188 46.6934C147.07 46.5645 146.898 46.4785 146.672 46.4355C146.445 46.3887 146.168 46.3652 145.84 46.3652H144.727C144.438 46.3652 144.186 46.4102 143.971 46.5C143.756 46.5898 143.59 46.7227 143.473 46.8984C143.359 47.0742 143.303 47.293 143.303 47.5547C143.303 47.9023 143.449 48.166 143.742 48.3457C144.035 48.5293 144.453 48.6211 144.996 48.6211ZM145.248 43.4883C145.713 43.4883 146.062 43.3711 146.297 43.1367C146.531 42.9023 146.648 42.5605 146.648 42.1113C146.648 41.6309 146.529 41.2715 146.291 41.0332C146.053 40.791 145.701 40.6699 145.236 40.6699C144.791 40.6699 144.447 40.7949 144.205 41.0449C143.967 41.291 143.848 41.6523 143.848 42.1289C143.848 42.5664 143.969 42.9023 144.211 43.1367C144.453 43.3711 144.799 43.4883 145.248 43.4883ZM157.787 44.2207C157.787 44.7285 157.66 45.1621 157.406 45.5215C157.156 45.877 156.805 46.1484 156.352 46.3359C155.898 46.5234 155.365 46.6172 154.752 46.6172C154.428 46.6172 154.121 46.6016 153.832 46.5703C153.543 46.5391 153.277 46.4941 153.035 46.4355C152.793 46.377 152.58 46.3047 152.396 46.2188V45.2637C152.689 45.3848 153.047 45.498 153.469 45.6035C153.891 45.7051 154.332 45.7559 154.793 45.7559C155.223 45.7559 155.586 45.6992 155.883 45.5859C156.18 45.4688 156.404 45.3027 156.557 45.0879C156.713 44.8691 156.791 44.6074 156.791 44.3027C156.791 44.0098 156.727 43.7656 156.598 43.5703C156.469 43.3711 156.254 43.1914 155.953 43.0312C155.656 42.8672 155.25 42.6934 154.734 42.5098C154.371 42.3809 154.051 42.2402 153.773 42.0879C153.496 41.9316 153.264 41.7559 153.076 41.5605C152.889 41.3652 152.746 41.1387 152.648 40.8809C152.555 40.623 152.508 40.3281 152.508 39.9961C152.508 39.5391 152.623 39.1484 152.854 38.8242C153.088 38.4961 153.41 38.2461 153.82 38.0742C154.234 37.8984 154.709 37.8105 155.244 37.8105C155.701 37.8105 156.123 37.8535 156.51 37.9395C156.9 38.0254 157.258 38.1406 157.582 38.2852L157.271 39.1406C156.963 39.0117 156.635 38.9043 156.287 38.8184C155.943 38.7324 155.588 38.6895 155.221 38.6895C154.854 38.6895 154.543 38.7441 154.289 38.8535C154.039 38.959 153.848 39.1094 153.715 39.3047C153.582 39.5 153.516 39.7324 153.516 40.002C153.516 40.3027 153.578 40.5527 153.703 40.752C153.832 40.9512 154.035 41.1289 154.312 41.2852C154.594 41.4375 154.965 41.5977 155.426 41.7656C155.93 41.9492 156.357 42.1445 156.709 42.3516C157.061 42.5547 157.328 42.8047 157.512 43.1016C157.695 43.3945 157.787 43.7676 157.787 44.2207ZM164.695 40.0781V46.5H163.898L163.758 45.5977H163.705C163.572 45.8203 163.4 46.0078 163.189 46.1602C162.979 46.3125 162.74 46.4258 162.475 46.5C162.213 46.5781 161.934 46.6172 161.637 46.6172C161.129 46.6172 160.703 46.5352 160.359 46.3711C160.016 46.207 159.756 45.9531 159.58 45.6094C159.408 45.2656 159.322 44.8242 159.322 44.2852V40.0781H160.307V44.2148C160.307 44.75 160.428 45.1504 160.67 45.416C160.912 45.6777 161.281 45.8086 161.777 45.8086C162.254 45.8086 162.633 45.7188 162.914 45.5391C163.199 45.3594 163.404 45.0957 163.529 44.748C163.654 44.3965 163.717 43.9668 163.717 43.459V40.0781H164.695ZM169.77 39.9609C170.57 39.9609 171.209 40.2363 171.686 40.7871C172.162 41.3379 172.4 42.166 172.4 43.2715C172.4 44.002 172.291 44.6152 172.072 45.1113C171.854 45.6074 171.545 45.9824 171.146 46.2363C170.752 46.4902 170.285 46.6172 169.746 46.6172C169.406 46.6172 169.107 46.5723 168.85 46.4824C168.592 46.3926 168.371 46.2715 168.188 46.1191C168.004 45.9668 167.852 45.8008 167.73 45.6211H167.66C167.672 45.7734 167.686 45.957 167.701 46.1719C167.721 46.3867 167.73 46.5742 167.73 46.7344V49.3711H166.752V40.0781H167.555L167.684 41.0273H167.73C167.855 40.832 168.008 40.6543 168.188 40.4941C168.367 40.3301 168.586 40.2012 168.844 40.1074C169.105 40.0098 169.414 39.9609 169.77 39.9609ZM169.6 40.7812C169.154 40.7812 168.795 40.8672 168.521 41.0391C168.252 41.2109 168.055 41.4688 167.93 41.8125C167.805 42.1523 167.738 42.5801 167.73 43.0957V43.2832C167.73 43.8262 167.789 44.2852 167.906 44.6602C168.027 45.0352 168.225 45.3203 168.498 45.5156C168.775 45.7109 169.146 45.8086 169.611 45.8086C170.01 45.8086 170.342 45.7012 170.607 45.4863C170.873 45.2715 171.07 44.9727 171.199 44.5898C171.332 44.2031 171.398 43.7598 171.398 43.2598C171.398 42.502 171.25 41.9004 170.953 41.4551C170.66 41.0059 170.209 40.7812 169.6 40.7812ZM177.117 39.9609C177.918 39.9609 178.557 40.2363 179.033 40.7871C179.51 41.3379 179.748 42.166 179.748 43.2715C179.748 44.002 179.639 44.6152 179.42 45.1113C179.201 45.6074 178.893 45.9824 178.494 46.2363C178.1 46.4902 177.633 46.6172 177.094 46.6172C176.754 46.6172 176.455 46.5723 176.197 46.4824C175.939 46.3926 175.719 46.2715 175.535 46.1191C175.352 45.9668 175.199 45.8008 175.078 45.6211H175.008C175.02 45.7734 175.033 45.957 175.049 46.1719C175.068 46.3867 175.078 46.5742 175.078 46.7344V49.3711H174.1V40.0781H174.902L175.031 41.0273H175.078C175.203 40.832 175.355 40.6543 175.535 40.4941C175.715 40.3301 175.934 40.2012 176.191 40.1074C176.453 40.0098 176.762 39.9609 177.117 39.9609ZM176.947 40.7812C176.502 40.7812 176.143 40.8672 175.869 41.0391C175.6 41.2109 175.402 41.4688 175.277 41.8125C175.152 42.1523 175.086 42.5801 175.078 43.0957V43.2832C175.078 43.8262 175.137 44.2852 175.254 44.6602C175.375 45.0352 175.572 45.3203 175.846 45.5156C176.123 45.7109 176.494 45.8086 176.959 45.8086C177.357 45.8086 177.689 45.7012 177.955 45.4863C178.221 45.2715 178.418 44.9727 178.547 44.5898C178.68 44.2031 178.746 43.7598 178.746 43.2598C178.746 42.502 178.598 41.9004 178.301 41.4551C178.008 41.0059 177.557 40.7812 176.947 40.7812ZM182.426 46.5H181.447V37.3828H182.426V46.5ZM185.455 40.0781V46.5H184.482V40.0781H185.455ZM184.98 37.6758C185.141 37.6758 185.277 37.7285 185.391 37.834C185.508 37.9355 185.566 38.0957 185.566 38.3145C185.566 38.5293 185.508 38.6895 185.391 38.7949C185.277 38.9004 185.141 38.9531 184.98 38.9531C184.812 38.9531 184.672 38.9004 184.559 38.7949C184.449 38.6895 184.395 38.5293 184.395 38.3145C184.395 38.0957 184.449 37.9355 184.559 37.834C184.672 37.7285 184.812 37.6758 184.98 37.6758ZM189.99 39.9609C190.537 39.9609 191.006 40.082 191.396 40.3242C191.787 40.5664 192.086 40.9062 192.293 41.3438C192.5 41.7773 192.604 42.2852 192.604 42.8672V43.4707H188.168C188.18 44.2246 188.367 44.7988 188.73 45.1934C189.094 45.5879 189.605 45.7852 190.266 45.7852C190.672 45.7852 191.031 45.748 191.344 45.6738C191.656 45.5996 191.98 45.4902 192.316 45.3457V46.2012C191.992 46.3457 191.67 46.4512 191.35 46.5176C191.033 46.584 190.658 46.6172 190.225 46.6172C189.607 46.6172 189.068 46.4922 188.607 46.2422C188.15 45.9883 187.795 45.6172 187.541 45.1289C187.287 44.6406 187.16 44.043 187.16 43.3359C187.16 42.6445 187.275 42.0469 187.506 41.543C187.74 41.0352 188.068 40.6445 188.49 40.3711C188.916 40.0977 189.416 39.9609 189.99 39.9609ZM189.979 40.7578C189.459 40.7578 189.045 40.9277 188.736 41.2676C188.428 41.6074 188.244 42.082 188.186 42.6914H191.584C191.58 42.3086 191.52 41.9727 191.402 41.6836C191.289 41.3906 191.115 41.1641 190.881 41.0039C190.646 40.8398 190.346 40.7578 189.979 40.7578ZM198.41 44.7422C198.41 45.1523 198.307 45.498 198.1 45.7793C197.896 46.0566 197.604 46.2656 197.221 46.4062C196.842 46.5469 196.389 46.6172 195.861 46.6172C195.412 46.6172 195.023 46.582 194.695 46.5117C194.367 46.4414 194.08 46.3418 193.834 46.2129V45.3164C194.096 45.4453 194.408 45.5625 194.771 45.668C195.135 45.7734 195.506 45.8262 195.885 45.8262C196.439 45.8262 196.842 45.7363 197.092 45.5566C197.342 45.377 197.467 45.1328 197.467 44.8242C197.467 44.6484 197.416 44.4941 197.314 44.3613C197.217 44.2246 197.051 44.0938 196.816 43.9688C196.582 43.8398 196.258 43.6992 195.844 43.5469C195.434 43.3906 195.078 43.2363 194.777 43.084C194.48 42.9277 194.25 42.7383 194.086 42.5156C193.926 42.293 193.846 42.0039 193.846 41.6484C193.846 41.1055 194.064 40.6895 194.502 40.4004C194.943 40.1074 195.521 39.9609 196.236 39.9609C196.623 39.9609 196.984 40 197.32 40.0781C197.66 40.1523 197.977 40.2539 198.27 40.3828L197.941 41.1621C197.676 41.0488 197.393 40.9531 197.092 40.875C196.791 40.7969 196.484 40.7578 196.172 40.7578C195.723 40.7578 195.377 40.832 195.135 40.9805C194.896 41.1289 194.777 41.332 194.777 41.5898C194.777 41.7891 194.832 41.9531 194.941 42.082C195.055 42.2109 195.234 42.332 195.48 42.4453C195.727 42.5586 196.051 42.6914 196.453 42.8438C196.855 42.9922 197.203 43.1465 197.496 43.3066C197.789 43.4629 198.014 43.6543 198.17 43.8809C198.33 44.1035 198.41 44.3906 198.41 44.7422ZM205.869 46.5H204.867V38.8125H202.172V37.9336H208.553V38.8125H205.869V46.5ZM215.238 43.2773C215.238 43.8047 215.17 44.2754 215.033 44.6895C214.896 45.1035 214.699 45.4531 214.441 45.7383C214.184 46.0234 213.871 46.2422 213.504 46.3945C213.141 46.543 212.729 46.6172 212.268 46.6172C211.838 46.6172 211.443 46.543 211.084 46.3945C210.729 46.2422 210.42 46.0234 210.158 45.7383C209.9 45.4531 209.699 45.1035 209.555 44.6895C209.414 44.2754 209.344 43.8047 209.344 43.2773C209.344 42.5742 209.463 41.9766 209.701 41.4844C209.939 40.9883 210.279 40.6113 210.721 40.3535C211.166 40.0918 211.695 39.9609 212.309 39.9609C212.895 39.9609 213.406 40.0918 213.844 40.3535C214.285 40.6152 214.627 40.9941 214.869 41.4902C215.115 41.9824 215.238 42.5781 215.238 43.2773ZM210.352 43.2773C210.352 43.793 210.42 44.2402 210.557 44.6191C210.693 44.998 210.904 45.291 211.189 45.498C211.475 45.7051 211.842 45.8086 212.291 45.8086C212.736 45.8086 213.102 45.7051 213.387 45.498C213.676 45.291 213.889 44.998 214.025 44.6191C214.162 44.2402 214.23 43.793 214.23 43.2773C214.23 42.7656 214.162 42.3242 214.025 41.9531C213.889 41.5781 213.678 41.2891 213.393 41.0859C213.107 40.8828 212.738 40.7812 212.285 40.7812C211.617 40.7812 211.127 41.002 210.814 41.4434C210.506 41.8848 210.352 42.4961 210.352 43.2773ZM219.205 46.6172C218.393 46.6172 217.748 46.3398 217.271 45.7852C216.799 45.2305 216.562 44.4062 216.562 43.3125C216.562 42.207 216.805 41.373 217.289 40.8105C217.773 40.2441 218.418 39.9609 219.223 39.9609C219.562 39.9609 219.859 40.0059 220.113 40.0957C220.367 40.1855 220.586 40.3066 220.77 40.459C220.953 40.6074 221.107 40.7773 221.232 40.9688H221.303C221.287 40.8477 221.271 40.6816 221.256 40.4707C221.24 40.2598 221.232 40.0879 221.232 39.9551V37.3828H222.205V46.5H221.42L221.273 45.5859H221.232C221.111 45.7773 220.957 45.9512 220.77 46.1074C220.586 46.2637 220.365 46.3887 220.107 46.4824C219.854 46.5723 219.553 46.6172 219.205 46.6172ZM219.357 45.8086C220.045 45.8086 220.531 45.6133 220.816 45.2227C221.102 44.832 221.244 44.252 221.244 43.4824V43.3066C221.244 42.4902 221.107 41.8633 220.834 41.4258C220.564 40.9883 220.072 40.7695 219.357 40.7695C218.76 40.7695 218.312 41 218.016 41.4609C217.719 41.918 217.57 42.543 217.57 43.3359C217.57 44.125 217.717 44.7344 218.01 45.1641C218.307 45.5938 218.756 45.8086 219.357 45.8086ZM226.67 39.9727C227.436 39.9727 228.004 40.1445 228.375 40.4883C228.746 40.832 228.932 41.3809 228.932 42.1348V46.5H228.223L228.035 45.5508H227.988C227.809 45.7852 227.621 45.9824 227.426 46.1426C227.23 46.2988 227.004 46.418 226.746 46.5C226.492 46.5781 226.18 46.6172 225.809 46.6172C225.418 46.6172 225.07 46.5488 224.766 46.4121C224.465 46.2754 224.227 46.0684 224.051 45.791C223.879 45.5137 223.793 45.1621 223.793 44.7363C223.793 44.0957 224.047 43.6035 224.555 43.2598C225.062 42.916 225.836 42.7285 226.875 42.6973L227.982 42.6504V42.2578C227.982 41.7031 227.863 41.3145 227.625 41.0918C227.387 40.8691 227.051 40.7578 226.617 40.7578C226.281 40.7578 225.961 40.8066 225.656 40.9043C225.352 41.002 225.062 41.1172 224.789 41.25L224.49 40.5117C224.779 40.3633 225.111 40.2363 225.486 40.1309C225.861 40.0254 226.256 39.9727 226.67 39.9727ZM227.971 43.3359L226.992 43.377C226.191 43.4082 225.627 43.5391 225.299 43.7695C224.971 44 224.807 44.3262 224.807 44.748C224.807 45.1152 224.918 45.3867 225.141 45.5625C225.363 45.7383 225.658 45.8262 226.025 45.8262C226.596 45.8262 227.062 45.668 227.426 45.3516C227.789 45.0352 227.971 44.5605 227.971 43.9277V43.3359ZM229.922 40.0781H230.965L232.383 43.8047C232.465 44.0234 232.541 44.2344 232.611 44.4375C232.682 44.6367 232.744 44.8281 232.799 45.0117C232.854 45.1953 232.896 45.373 232.928 45.5449H232.969C233.023 45.3496 233.102 45.0938 233.203 44.7773C233.305 44.457 233.414 44.1309 233.531 43.7988L234.873 40.0781H235.922L233.127 47.4434C232.979 47.8379 232.805 48.1816 232.605 48.4746C232.41 48.7676 232.172 48.9922 231.891 49.1484C231.609 49.3086 231.27 49.3887 230.871 49.3887C230.688 49.3887 230.525 49.377 230.385 49.3535C230.244 49.334 230.123 49.3105 230.021 49.2832V48.5039C230.107 48.5234 230.211 48.541 230.332 48.5566C230.457 48.5723 230.586 48.5801 230.719 48.5801C230.961 48.5801 231.17 48.5332 231.346 48.4395C231.525 48.3496 231.68 48.2168 231.809 48.041C231.938 47.8652 232.049 47.6562 232.143 47.4141L232.494 46.5117L229.922 40.0781ZM237.826 44.1211H237.188L236.918 37.9336H238.096L237.826 44.1211ZM236.801 45.8906C236.801 45.6172 236.867 45.4238 237 45.3105C237.133 45.1934 237.299 45.1348 237.498 45.1348C237.693 45.1348 237.857 45.1934 237.99 45.3105C238.127 45.4238 238.195 45.6172 238.195 45.8906C238.195 46.1602 238.127 46.3574 237.99 46.4824C237.857 46.6035 237.693 46.6641 237.498 46.6641C237.299 46.6641 237.133 46.6035 237 46.4824C236.867 46.3574 236.801 46.1602 236.801 45.8906Z" fill="#7F7F7F" fill-opacity="0.7" style="mix-blend-mode:luminosity"/>
<path d="M9.35742 42.2285L11.6367 37.9336H12.709L9.85547 43.1777V46.5H8.85938V43.2246L6 37.9336H7.08984L9.35742 42.2285ZM19.2773 43.2773C19.2773 43.8047 19.209 44.2754 19.0723 44.6895C18.9355 45.1035 18.7383 45.4531 18.4805 45.7383C18.2227 46.0234 17.9102 46.2422 17.543 46.3945C17.1797 46.543 16.7676 46.6172 16.3066 46.6172C15.877 46.6172 15.4824 46.543 15.123 46.3945C14.7676 46.2422 14.459 46.0234 14.1973 45.7383C13.9395 45.4531 13.7383 45.1035 13.5938 44.6895C13.4531 44.2754 13.3828 43.8047 13.3828 43.2773C13.3828 42.5742 13.502 41.9766 13.7402 41.4844C13.9785 40.9883 14.3184 40.6113 14.7598 40.3535C15.2051 40.0918 15.7344 39.9609 16.3477 39.9609C16.9336 39.9609 17.4453 40.0918 17.8828 40.3535C18.3242 40.6152 18.666 40.9941 18.9082 41.4902C19.1543 41.9824 19.2773 42.5781 19.2773 43.2773ZM14.3906 43.2773C14.3906 43.793 14.459 44.2402 14.5957 44.6191C14.7324 44.998 14.9434 45.291 15.2285 45.498C15.5137 45.7051 15.8809 45.8086 16.3301 45.8086C16.7754 45.8086 17.1406 45.7051 17.4258 45.498C17.7148 45.291 17.9277 44.998 18.0645 44.6191C18.2012 44.2402 18.2695 43.793 18.2695 43.2773C18.2695 42.7656 18.2012 42.3242 18.0645 41.9531C17.9277 41.5781 17.7168 41.2891 17.4316 41.0859C17.1465 40.8828 16.7773 40.7812 16.3242 40.7812C15.6562 40.7812 15.166 41.002 14.8535 41.4434C14.5449 41.8848 14.3906 42.4961 14.3906 43.2773ZM26.2617 40.0781V46.5H25.4648L25.3242 45.5977H25.2715C25.1387 45.8203 24.9668 46.0078 24.7559 46.1602C24.5449 46.3125 24.3066 46.4258 24.041 46.5C23.7793 46.5781 23.5 46.6172 23.2031 46.6172C22.6953 46.6172 22.2695 46.5352 21.9258 46.3711C21.582 46.207 21.3223 45.9531 21.1465 45.6094C20.9746 45.2656 20.8887 44.8242 20.8887 44.2852V40.0781H21.873V44.2148C21.873 44.75 21.9941 45.1504 22.2363 45.416C22.4785 45.6777 22.8477 45.8086 23.3438 45.8086C23.8203 45.8086 24.1992 45.7188 24.4805 45.5391C24.7656 45.3594 24.9707 45.0957 25.0957 44.748C25.2207 44.3965 25.2832 43.9668 25.2832 43.459V40.0781H26.2617ZM36.416 44.2207C36.416 44.7285 36.2891 45.1621 36.0352 45.5215C35.7852 45.877 35.4336 46.1484 34.9805 46.3359C34.5273 46.5234 33.9941 46.6172 33.3809 46.6172C33.0566 46.6172 32.75 46.6016 32.4609 46.5703C32.1719 46.5391 31.9062 46.4941 31.6641 46.4355C31.4219 46.377 31.209 46.3047 31.0254 46.2188V45.2637C31.3184 45.3848 31.6758 45.498 32.0977 45.6035C32.5195 45.7051 32.9609 45.7559 33.4219 45.7559C33.8516 45.7559 34.2148 45.6992 34.5117 45.5859C34.8086 45.4688 35.0332 45.3027 35.1855 45.0879C35.3418 44.8691 35.4199 44.6074 35.4199 44.3027C35.4199 44.0098 35.3555 43.7656 35.2266 43.5703C35.0977 43.3711 34.8828 43.1914 34.582 43.0312C34.2852 42.8672 33.8789 42.6934 33.3633 42.5098C33 42.3809 32.6797 42.2402 32.4023 42.0879C32.125 41.9316 31.8926 41.7559 31.7051 41.5605C31.5176 41.3652 31.375 41.1387 31.2773 40.8809C31.1836 40.623 31.1367 40.3281 31.1367 39.9961C31.1367 39.5391 31.252 39.1484 31.4824 38.8242C31.7168 38.4961 32.0391 38.2461 32.4492 38.0742C32.8633 37.8984 33.3379 37.8105 33.873 37.8105C34.3301 37.8105 34.752 37.8535 35.1387 37.9395C35.5293 38.0254 35.8867 38.1406 36.2109 38.2852L35.9004 39.1406C35.5918 39.0117 35.2637 38.9043 34.916 38.8184C34.5723 38.7324 34.2168 38.6895 33.8496 38.6895C33.4824 38.6895 33.1719 38.7441 32.918 38.8535C32.668 38.959 32.4766 39.1094 32.3438 39.3047C32.2109 39.5 32.1445 39.7324 32.1445 40.002C32.1445 40.3027 32.207 40.5527 32.332 40.752C32.4609 40.9512 32.6641 41.1289 32.9414 41.2852C33.2227 41.4375 33.5938 41.5977 34.0547 41.7656C34.5586 41.9492 34.9863 42.1445 35.3379 42.3516C35.6895 42.5547 35.957 42.8047 36.1406 43.1016C36.3242 43.3945 36.416 43.7676 36.416 44.2207ZM40.4238 39.9727C41.1895 39.9727 41.7578 40.1445 42.1289 40.4883C42.5 40.832 42.6855 41.3809 42.6855 42.1348V46.5H41.9766L41.7891 45.5508H41.7422C41.5625 45.7852 41.375 45.9824 41.1797 46.1426C40.9844 46.2988 40.7578 46.418 40.5 46.5C40.2461 46.5781 39.9336 46.6172 39.5625 46.6172C39.1719 46.6172 38.8242 46.5488 38.5195 46.4121C38.2188 46.2754 37.9805 46.0684 37.8047 45.791C37.6328 45.5137 37.5469 45.1621 37.5469 44.7363C37.5469 44.0957 37.8008 43.6035 38.3086 43.2598C38.8164 42.916 39.5898 42.7285 40.6289 42.6973L41.7363 42.6504V42.2578C41.7363 41.7031 41.6172 41.3145 41.3789 41.0918C41.1406 40.8691 40.8047 40.7578 40.3711 40.7578C40.0352 40.7578 39.7148 40.8066 39.4102 40.9043C39.1055 41.002 38.8164 41.1172 38.543 41.25L38.2441 40.5117C38.5332 40.3633 38.8652 40.2363 39.2402 40.1309C39.6152 40.0254 40.0098 39.9727 40.4238 39.9727ZM41.7246 43.3359L40.7461 43.377C39.9453 43.4082 39.3809 43.5391 39.0527 43.7695C38.7246 44 38.5605 44.3262 38.5605 44.748C38.5605 45.1152 38.6719 45.3867 38.8945 45.5625C39.1172 45.7383 39.4121 45.8262 39.7793 45.8262C40.3496 45.8262 40.8164 45.668 41.1797 45.3516C41.543 45.0352 41.7246 44.5605 41.7246 43.9277V43.3359ZM46.1016 46.5L43.6641 40.0781H44.707L46.1191 43.9629C46.2168 44.2285 46.3164 44.5215 46.418 44.8418C46.5195 45.1621 46.5898 45.4199 46.6289 45.6152H46.6699C46.7168 45.4199 46.7949 45.1621 46.9043 44.8418C47.0137 44.5176 47.1133 44.2246 47.2031 43.9629L48.6152 40.0781H49.6582L47.2148 46.5H46.1016ZM53.1621 39.9609C53.709 39.9609 54.1777 40.082 54.5684 40.3242C54.959 40.5664 55.2578 40.9062 55.4648 41.3438C55.6719 41.7773 55.7754 42.2852 55.7754 42.8672V43.4707H51.3398C51.3516 44.2246 51.5391 44.7988 51.9023 45.1934C52.2656 45.5879 52.7773 45.7852 53.4375 45.7852C53.8438 45.7852 54.2031 45.748 54.5156 45.6738C54.8281 45.5996 55.1523 45.4902 55.4883 45.3457V46.2012C55.1641 46.3457 54.8418 46.4512 54.5215 46.5176C54.2051 46.584 53.8301 46.6172 53.3965 46.6172C52.7793 46.6172 52.2402 46.4922 51.7793 46.2422C51.3223 45.9883 50.9668 45.6172 50.7129 45.1289C50.459 44.6406 50.332 44.043 50.332 43.3359C50.332 42.6445 50.4473 42.0469 50.6777 41.543C50.9121 41.0352 51.2402 40.6445 51.6621 40.3711C52.0879 40.0977 52.5879 39.9609 53.1621 39.9609ZM53.1504 40.7578C52.6309 40.7578 52.2168 40.9277 51.9082 41.2676C51.5996 41.6074 51.416 42.082 51.3574 42.6914H54.7559C54.752 42.3086 54.6914 41.9727 54.5742 41.6836C54.4609 41.3906 54.2871 41.1641 54.0527 41.0039C53.8184 40.8398 53.5176 40.7578 53.1504 40.7578ZM59.7129 46.6172C58.9004 46.6172 58.2559 46.3398 57.7793 45.7852C57.3066 45.2305 57.0703 44.4062 57.0703 43.3125C57.0703 42.207 57.3125 41.373 57.7969 40.8105C58.2812 40.2441 58.9258 39.9609 59.7305 39.9609C60.0703 39.9609 60.3672 40.0059 60.6211 40.0957C60.875 40.1855 61.0938 40.3066 61.2773 40.459C61.4609 40.6074 61.6152 40.7773 61.7402 40.9688H61.8105C61.7949 40.8477 61.7793 40.6816 61.7637 40.4707C61.748 40.2598 61.7402 40.0879 61.7402 39.9551V37.3828H62.7129V46.5H61.9277L61.7812 45.5859H61.7402C61.6191 45.7773 61.4648 45.9512 61.2773 46.1074C61.0938 46.2637 60.873 46.3887 60.6152 46.4824C60.3613 46.5723 60.0605 46.6172 59.7129 46.6172ZM59.8652 45.8086C60.5527 45.8086 61.0391 45.6133 61.3242 45.2227C61.6094 44.832 61.752 44.252 61.752 43.4824V43.3066C61.752 42.4902 61.6152 41.8633 61.3418 41.4258C61.0723 40.9883 60.5801 40.7695 59.8652 40.7695C59.2676 40.7695 58.8203 41 58.5234 41.4609C58.2266 41.918 58.0781 42.543 58.0781 43.3359C58.0781 44.125 58.2246 44.7344 58.5176 45.1641C58.8145 45.5938 59.2637 45.8086 59.8652 45.8086ZM75.4688 42.2051C75.4688 42.8652 75.3848 43.4668 75.2168 44.0098C75.0488 44.5488 74.7988 45.0137 74.4668 45.4043C74.1387 45.791 73.7305 46.0898 73.2422 46.3008C72.7539 46.5117 72.1875 46.6172 71.543 46.6172C70.8789 46.6172 70.2988 46.5117 69.8027 46.3008C69.3105 46.0898 68.9004 45.7891 68.5723 45.3984C68.248 45.0078 68.0039 44.541 67.8398 43.998C67.6797 43.4551 67.5996 42.8535 67.5996 42.1934C67.5996 41.3184 67.7441 40.5508 68.0332 39.8906C68.3223 39.2305 68.7598 38.7168 69.3457 38.3496C69.9355 37.9824 70.6738 37.7988 71.5605 37.7988C72.4082 37.7988 73.1211 37.9805 73.6992 38.3438C74.2812 38.707 74.7207 39.2188 75.0176 39.8789C75.3184 40.5352 75.4688 41.3105 75.4688 42.2051ZM68.6484 42.2051C68.6484 42.9316 68.752 43.5605 68.959 44.0918C69.166 44.623 69.4824 45.0332 69.9082 45.3223C70.3379 45.6113 70.8828 45.7559 71.543 45.7559C72.207 45.7559 72.75 45.6113 73.1719 45.3223C73.5977 45.0332 73.9121 44.623 74.1152 44.0918C74.3184 43.5605 74.4199 42.9316 74.4199 42.2051C74.4199 41.0996 74.1875 40.2363 73.7227 39.6152C73.2617 38.9902 72.541 38.6777 71.5605 38.6777C70.8965 38.6777 70.3496 38.8203 69.9199 39.1055C69.4902 39.3906 69.1699 39.7969 68.959 40.3242C68.752 40.8477 68.6484 41.4746 68.6484 42.2051ZM80.2734 39.9609C81.0352 39.9609 81.6113 40.1484 82.002 40.5234C82.3926 40.8945 82.5879 41.4922 82.5879 42.3164V46.5H81.627V42.3809C81.627 41.8457 81.5039 41.4453 81.2578 41.1797C81.0156 40.9141 80.6426 40.7812 80.1387 40.7812C79.4277 40.7812 78.9277 40.9824 78.6387 41.3848C78.3496 41.7871 78.2051 42.3711 78.2051 43.1367V46.5H77.2324V40.0781H78.0176L78.1641 41.0039H78.2168C78.3535 40.7773 78.5273 40.5879 78.7383 40.4355C78.9492 40.2793 79.1855 40.1621 79.4473 40.084C79.709 40.002 79.9844 39.9609 80.2734 39.9609ZM94.6582 42.1348C94.6582 43.0996 94.4824 43.9062 94.1309 44.5547C93.7793 45.1992 93.2695 45.6855 92.6016 46.0137C91.9375 46.3379 91.1309 46.5 90.1816 46.5H87.8555V37.9336H90.4395C91.3105 37.9336 92.0605 38.0938 92.6895 38.4141C93.3184 38.7305 93.8027 39.2012 94.1426 39.8262C94.4863 40.4473 94.6582 41.2168 94.6582 42.1348ZM93.6094 42.1699C93.6094 41.4004 93.4805 40.7656 93.2227 40.2656C92.9688 39.7656 92.5938 39.3945 92.0977 39.1523C91.6055 38.9062 91.002 38.7832 90.2871 38.7832H88.8516V45.6445H90.0645C91.2441 45.6445 92.1289 45.3535 92.7188 44.7715C93.3125 44.1895 93.6094 43.3223 93.6094 42.1699ZM97.3887 40.0781V46.5H96.416V40.0781H97.3887ZM96.9141 37.6758C97.0742 37.6758 97.2109 37.7285 97.3242 37.834C97.4414 37.9355 97.5 38.0957 97.5 38.3145C97.5 38.5293 97.4414 38.6895 97.3242 38.7949C97.2109 38.9004 97.0742 38.9531 96.9141 38.9531C96.7461 38.9531 96.6055 38.9004 96.4922 38.7949C96.3828 38.6895 96.3281 38.5293 96.3281 38.3145C96.3281 38.0957 96.3828 37.9355 96.4922 37.834C96.6055 37.7285 96.7461 37.6758 96.9141 37.6758ZM101.924 39.9609C102.471 39.9609 102.939 40.082 103.33 40.3242C103.721 40.5664 104.02 40.9062 104.227 41.3438C104.434 41.7773 104.537 42.2852 104.537 42.8672V43.4707H100.102C100.113 44.2246 100.301 44.7988 100.664 45.1934C101.027 45.5879 101.539 45.7852 102.199 45.7852C102.605 45.7852 102.965 45.748 103.277 45.6738C103.59 45.5996 103.914 45.4902 104.25 45.3457V46.2012C103.926 46.3457 103.604 46.4512 103.283 46.5176C102.967 46.584 102.592 46.6172 102.158 46.6172C101.541 46.6172 101.002 46.4922 100.541 46.2422C100.084 45.9883 99.7285 45.6172 99.4746 45.1289C99.2207 44.6406 99.0938 44.043 99.0938 43.3359C99.0938 42.6445 99.209 42.0469 99.4395 41.543C99.6738 41.0352 100.002 40.6445 100.424 40.3711C100.85 40.0977 101.35 39.9609 101.924 39.9609ZM101.912 40.7578C101.393 40.7578 100.979 40.9277 100.67 41.2676C100.361 41.6074 100.178 42.082 100.119 42.6914H103.518C103.514 42.3086 103.453 41.9727 103.336 41.6836C103.223 41.3906 103.049 41.1641 102.814 41.0039C102.58 40.8398 102.279 40.7578 101.912 40.7578ZM113.115 38.6895C112.643 38.6895 112.217 38.7715 111.838 38.9355C111.463 39.0957 111.143 39.3301 110.877 39.6387C110.615 39.9434 110.414 40.3125 110.273 40.7461C110.133 41.1797 110.062 41.668 110.062 42.2109C110.062 42.9297 110.174 43.5547 110.396 44.0859C110.623 44.6133 110.959 45.0215 111.404 45.3105C111.854 45.5996 112.414 45.7441 113.086 45.7441C113.469 45.7441 113.828 45.7129 114.164 45.6504C114.504 45.584 114.834 45.502 115.154 45.4043V46.2715C114.842 46.3887 114.514 46.4746 114.17 46.5293C113.826 46.5879 113.418 46.6172 112.945 46.6172C112.074 46.6172 111.346 46.4375 110.76 46.0781C110.178 45.7148 109.74 45.2031 109.447 44.543C109.158 43.8828 109.014 43.1035 109.014 42.2051C109.014 41.5566 109.104 40.9648 109.283 40.4297C109.467 39.8906 109.732 39.4258 110.08 39.0352C110.432 38.6445 110.861 38.3438 111.369 38.1328C111.881 37.918 112.467 37.8105 113.127 37.8105C113.561 37.8105 113.979 37.8535 114.381 37.9395C114.783 38.0254 115.146 38.1484 115.471 38.3086L115.072 39.1523C114.799 39.0273 114.498 38.9199 114.17 38.8301C113.846 38.7363 113.494 38.6895 113.115 38.6895ZM122.168 40.0781V46.5H121.371L121.23 45.5977H121.178C121.045 45.8203 120.873 46.0078 120.662 46.1602C120.451 46.3125 120.213 46.4258 119.947 46.5C119.686 46.5781 119.406 46.6172 119.109 46.6172C118.602 46.6172 118.176 46.5352 117.832 46.3711C117.488 46.207 117.229 45.9531 117.053 45.6094C116.881 45.2656 116.795 44.8242 116.795 44.2852V40.0781H117.779V44.2148C117.779 44.75 117.9 45.1504 118.143 45.416C118.385 45.6777 118.754 45.8086 119.25 45.8086C119.727 45.8086 120.105 45.7188 120.387 45.5391C120.672 45.3594 120.877 45.0957 121.002 44.748C121.127 44.3965 121.189 43.9668 121.189 43.459V40.0781H122.168ZM126.299 45.8203C126.459 45.8203 126.623 45.8066 126.791 45.7793C126.959 45.752 127.096 45.7188 127.201 45.6797V46.4355C127.088 46.4863 126.93 46.5293 126.727 46.5645C126.527 46.5996 126.332 46.6172 126.141 46.6172C125.801 46.6172 125.492 46.5586 125.215 46.4414C124.938 46.3203 124.715 46.1172 124.547 45.832C124.383 45.5469 124.301 45.1523 124.301 44.6484V40.8398H123.387V40.3652L124.307 39.9844L124.693 38.5898H125.279V40.0781H127.16V40.8398H125.279V44.6191C125.279 45.0215 125.371 45.3223 125.555 45.5215C125.742 45.7207 125.99 45.8203 126.299 45.8203ZM130.576 45.8203C130.736 45.8203 130.9 45.8066 131.068 45.7793C131.236 45.752 131.373 45.7188 131.479 45.6797V46.4355C131.365 46.4863 131.207 46.5293 131.004 46.5645C130.805 46.5996 130.609 46.6172 130.418 46.6172C130.078 46.6172 129.77 46.5586 129.492 46.4414C129.215 46.3203 128.992 46.1172 128.824 45.832C128.66 45.5469 128.578 45.1523 128.578 44.6484V40.8398H127.664V40.3652L128.584 39.9844L128.971 38.5898H129.557V40.0781H131.438V40.8398H129.557V44.6191C129.557 45.0215 129.648 45.3223 129.832 45.5215C130.02 45.7207 130.268 45.8203 130.576 45.8203ZM133.752 40.0781V46.5H132.779V40.0781H133.752ZM133.277 37.6758C133.438 37.6758 133.574 37.7285 133.688 37.834C133.805 37.9355 133.863 38.0957 133.863 38.3145C133.863 38.5293 133.805 38.6895 133.688 38.7949C133.574 38.9004 133.438 38.9531 133.277 38.9531C133.109 38.9531 132.969 38.9004 132.855 38.7949C132.746 38.6895 132.691 38.5293 132.691 38.3145C132.691 38.0957 132.746 37.9355 132.855 37.834C132.969 37.7285 133.109 37.6758 133.277 37.6758ZM138.855 39.9609C139.617 39.9609 140.193 40.1484 140.584 40.5234C140.975 40.8945 141.17 41.4922 141.17 42.3164V46.5H140.209V42.3809C140.209 41.8457 140.086 41.4453 139.84 41.1797C139.598 40.9141 139.225 40.7812 138.721 40.7812C138.01 40.7812 137.51 40.9824 137.221 41.3848C136.932 41.7871 136.787 42.3711 136.787 43.1367V46.5H135.814V40.0781H136.6L136.746 41.0039H136.799C136.936 40.7773 137.109 40.5879 137.32 40.4355C137.531 40.2793 137.768 40.1621 138.029 40.084C138.291 40.002 138.566 39.9609 138.855 39.9609ZM144.967 49.3828C144.123 49.3828 143.473 49.2246 143.016 48.9082C142.559 48.5957 142.33 48.1562 142.33 47.5898C142.33 47.1875 142.457 46.8438 142.711 46.5586C142.969 46.2734 143.324 46.084 143.777 45.9902C143.609 45.9121 143.465 45.7949 143.344 45.6387C143.227 45.4824 143.168 45.3027 143.168 45.0996C143.168 44.8652 143.232 44.6602 143.361 44.4844C143.494 44.3047 143.695 44.1328 143.965 43.9688C143.629 43.832 143.355 43.6016 143.145 43.2773C142.938 42.9492 142.834 42.5684 142.834 42.1348C142.834 41.6738 142.93 41.2812 143.121 40.957C143.312 40.6289 143.59 40.3789 143.953 40.207C144.316 40.0352 144.756 39.9492 145.271 39.9492C145.385 39.9492 145.498 39.9551 145.611 39.9668C145.729 39.9746 145.84 39.9883 145.945 40.0078C146.051 40.0234 146.143 40.043 146.221 40.0664H148.424V40.6934L147.24 40.8398C147.357 40.9922 147.455 41.1758 147.533 41.3906C147.611 41.6055 147.65 41.8438 147.65 42.1055C147.65 42.7461 147.434 43.2559 147 43.6348C146.566 44.0098 145.971 44.1973 145.213 44.1973C145.033 44.1973 144.85 44.1816 144.662 44.1504C144.471 44.2559 144.324 44.373 144.223 44.502C144.125 44.6309 144.076 44.7793 144.076 44.9473C144.076 45.0723 144.113 45.1719 144.188 45.2461C144.266 45.3203 144.377 45.375 144.521 45.4102C144.666 45.4414 144.84 45.457 145.043 45.457H146.174C146.873 45.457 147.408 45.6035 147.779 45.8965C148.154 46.1895 148.342 46.6172 148.342 47.1797C148.342 47.8906 148.053 48.4355 147.475 48.8145C146.896 49.1934 146.061 49.3828 144.967 49.3828ZM144.996 48.6211C145.527 48.6211 145.967 48.5664 146.314 48.457C146.666 48.3516 146.928 48.1973 147.1 47.9941C147.275 47.7949 147.363 47.5566 147.363 47.2793C147.363 47.0215 147.305 46.8262 147.188 46.6934C147.07 46.5645 146.898 46.4785 146.672 46.4355C146.445 46.3887 146.168 46.3652 145.84 46.3652H144.727C144.438 46.3652 144.186 46.4102 143.971 46.5C143.756 46.5898 143.59 46.7227 143.473 46.8984C143.359 47.0742 143.303 47.293 143.303 47.5547C143.303 47.9023 143.449 48.166 143.742 48.3457C144.035 48.5293 144.453 48.6211 144.996 48.6211ZM145.248 43.4883C145.713 43.4883 146.062 43.3711 146.297 43.1367C146.531 42.9023 146.648 42.5605 146.648 42.1113C146.648 41.6309 146.529 41.2715 146.291 41.0332C146.053 40.791 145.701 40.6699 145.236 40.6699C144.791 40.6699 144.447 40.7949 144.205 41.0449C143.967 41.291 143.848 41.6523 143.848 42.1289C143.848 42.5664 143.969 42.9023 144.211 43.1367C144.453 43.3711 144.799 43.4883 145.248 43.4883ZM157.787 44.2207C157.787 44.7285 157.66 45.1621 157.406 45.5215C157.156 45.877 156.805 46.1484 156.352 46.3359C155.898 46.5234 155.365 46.6172 154.752 46.6172C154.428 46.6172 154.121 46.6016 153.832 46.5703C153.543 46.5391 153.277 46.4941 153.035 46.4355C152.793 46.377 152.58 46.3047 152.396 46.2188V45.2637C152.689 45.3848 153.047 45.498 153.469 45.6035C153.891 45.7051 154.332 45.7559 154.793 45.7559C155.223 45.7559 155.586 45.6992 155.883 45.5859C156.18 45.4688 156.404 45.3027 156.557 45.0879C156.713 44.8691 156.791 44.6074 156.791 44.3027C156.791 44.0098 156.727 43.7656 156.598 43.5703C156.469 43.3711 156.254 43.1914 155.953 43.0312C155.656 42.8672 155.25 42.6934 154.734 42.5098C154.371 42.3809 154.051 42.2402 153.773 42.0879C153.496 41.9316 153.264 41.7559 153.076 41.5605C152.889 41.3652 152.746 41.1387 152.648 40.8809C152.555 40.623 152.508 40.3281 152.508 39.9961C152.508 39.5391 152.623 39.1484 152.854 38.8242C153.088 38.4961 153.41 38.2461 153.82 38.0742C154.234 37.8984 154.709 37.8105 155.244 37.8105C155.701 37.8105 156.123 37.8535 156.51 37.9395C156.9 38.0254 157.258 38.1406 157.582 38.2852L157.271 39.1406C156.963 39.0117 156.635 38.9043 156.287 38.8184C155.943 38.7324 155.588 38.6895 155.221 38.6895C154.854 38.6895 154.543 38.7441 154.289 38.8535C154.039 38.959 153.848 39.1094 153.715 39.3047C153.582 39.5 153.516 39.7324 153.516 40.002C153.516 40.3027 153.578 40.5527 153.703 40.752C153.832 40.9512 154.035 41.1289 154.312 41.2852C154.594 41.4375 154.965 41.5977 155.426 41.7656C155.93 41.9492 156.357 42.1445 156.709 42.3516C157.061 42.5547 157.328 42.8047 157.512 43.1016C157.695 43.3945 157.787 43.7676 157.787 44.2207ZM164.695 40.0781V46.5H163.898L163.758 45.5977H163.705C163.572 45.8203 163.4 46.0078 163.189 46.1602C162.979 46.3125 162.74 46.4258 162.475 46.5C162.213 46.5781 161.934 46.6172 161.637 46.6172C161.129 46.6172 160.703 46.5352 160.359 46.3711C160.016 46.207 159.756 45.9531 159.58 45.6094C159.408 45.2656 159.322 44.8242 159.322 44.2852V40.0781H160.307V44.2148C160.307 44.75 160.428 45.1504 160.67 45.416C160.912 45.6777 161.281 45.8086 161.777 45.8086C162.254 45.8086 162.633 45.7188 162.914 45.5391C163.199 45.3594 163.404 45.0957 163.529 44.748C163.654 44.3965 163.717 43.9668 163.717 43.459V40.0781H164.695ZM169.77 39.9609C170.57 39.9609 171.209 40.2363 171.686 40.7871C172.162 41.3379 172.4 42.166 172.4 43.2715C172.4 44.002 172.291 44.6152 172.072 45.1113C171.854 45.6074 171.545 45.9824 171.146 46.2363C170.752 46.4902 170.285 46.6172 169.746 46.6172C169.406 46.6172 169.107 46.5723 168.85 46.4824C168.592 46.3926 168.371 46.2715 168.188 46.1191C168.004 45.9668 167.852 45.8008 167.73 45.6211H167.66C167.672 45.7734 167.686 45.957 167.701 46.1719C167.721 46.3867 167.73 46.5742 167.73 46.7344V49.3711H166.752V40.0781H167.555L167.684 41.0273H167.73C167.855 40.832 168.008 40.6543 168.188 40.4941C168.367 40.3301 168.586 40.2012 168.844 40.1074C169.105 40.0098 169.414 39.9609 169.77 39.9609ZM169.6 40.7812C169.154 40.7812 168.795 40.8672 168.521 41.0391C168.252 41.2109 168.055 41.4688 167.93 41.8125C167.805 42.1523 167.738 42.5801 167.73 43.0957V43.2832C167.73 43.8262 167.789 44.2852 167.906 44.6602C168.027 45.0352 168.225 45.3203 168.498 45.5156C168.775 45.7109 169.146 45.8086 169.611 45.8086C170.01 45.8086 170.342 45.7012 170.607 45.4863C170.873 45.2715 171.07 44.9727 171.199 44.5898C171.332 44.2031 171.398 43.7598 171.398 43.2598C171.398 42.502 171.25 41.9004 170.953 41.4551C170.66 41.0059 170.209 40.7812 169.6 40.7812ZM177.117 39.9609C177.918 39.9609 178.557 40.2363 179.033 40.7871C179.51 41.3379 179.748 42.166 179.748 43.2715C179.748 44.002 179.639 44.6152 179.42 45.1113C179.201 45.6074 178.893 45.9824 178.494 46.2363C178.1 46.4902 177.633 46.6172 177.094 46.6172C176.754 46.6172 176.455 46.5723 176.197 46.4824C175.939 46.3926 175.719 46.2715 175.535 46.1191C175.352 45.9668 175.199 45.8008 175.078 45.6211H175.008C175.02 45.7734 175.033 45.957 175.049 46.1719C175.068 46.3867 175.078 46.5742 175.078 46.7344V49.3711H174.1V40.0781H174.902L175.031 41.0273H175.078C175.203 40.832 175.355 40.6543 175.535 40.4941C175.715 40.3301 175.934 40.2012 176.191 40.1074C176.453 40.0098 176.762 39.9609 177.117 39.9609ZM176.947 40.7812C176.502 40.7812 176.143 40.8672 175.869 41.0391C175.6 41.2109 175.402 41.4688 175.277 41.8125C175.152 42.1523 175.086 42.5801 175.078 43.0957V43.2832C175.078 43.8262 175.137 44.2852 175.254 44.6602C175.375 45.0352 175.572 45.3203 175.846 45.5156C176.123 45.7109 176.494 45.8086 176.959 45.8086C177.357 45.8086 177.689 45.7012 177.955 45.4863C178.221 45.2715 178.418 44.9727 178.547 44.5898C178.68 44.2031 178.746 43.7598 178.746 43.2598C178.746 42.502 178.598 41.9004 178.301 41.4551C178.008 41.0059 177.557 40.7812 176.947 40.7812ZM182.426 46.5H181.447V37.3828H182.426V46.5ZM185.455 40.0781V46.5H184.482V40.0781H185.455ZM184.98 37.6758C185.141 37.6758 185.277 37.7285 185.391 37.834C185.508 37.9355 185.566 38.0957 185.566 38.3145C185.566 38.5293 185.508 38.6895 185.391 38.7949C185.277 38.9004 185.141 38.9531 184.98 38.9531C184.812 38.9531 184.672 38.9004 184.559 38.7949C184.449 38.6895 184.395 38.5293 184.395 38.3145C184.395 38.0957 184.449 37.9355 184.559 37.834C184.672 37.7285 184.812 37.6758 184.98 37.6758ZM189.99 39.9609C190.537 39.9609 191.006 40.082 191.396 40.3242C191.787 40.5664 192.086 40.9062 192.293 41.3438C192.5 41.7773 192.604 42.2852 192.604 42.8672V43.4707H188.168C188.18 44.2246 188.367 44.7988 188.73 45.1934C189.094 45.5879 189.605 45.7852 190.266 45.7852C190.672 45.7852 191.031 45.748 191.344 45.6738C191.656 45.5996 191.98 45.4902 192.316 45.3457V46.2012C191.992 46.3457 191.67 46.4512 191.35 46.5176C191.033 46.584 190.658 46.6172 190.225 46.6172C189.607 46.6172 189.068 46.4922 188.607 46.2422C188.15 45.9883 187.795 45.6172 187.541 45.1289C187.287 44.6406 187.16 44.043 187.16 43.3359C187.16 42.6445 187.275 42.0469 187.506 41.543C187.74 41.0352 188.068 40.6445 188.49 40.3711C188.916 40.0977 189.416 39.9609 189.99 39.9609ZM189.979 40.7578C189.459 40.7578 189.045 40.9277 188.736 41.2676C188.428 41.6074 188.244 42.082 188.186 42.6914H191.584C191.58 42.3086 191.52 41.9727 191.402 41.6836C191.289 41.3906 191.115 41.1641 190.881 41.0039C190.646 40.8398 190.346 40.7578 189.979 40.7578ZM198.41 44.7422C198.41 45.1523 198.307 45.498 198.1 45.7793C197.896 46.0566 197.604 46.2656 197.221 46.4062C196.842 46.5469 196.389 46.6172 195.861 46.6172C195.412 46.6172 195.023 46.582 194.695 46.5117C194.367 46.4414 194.08 46.3418 193.834 46.2129V45.3164C194.096 45.4453 194.408 45.5625 194.771 45.668C195.135 45.7734 195.506 45.8262 195.885 45.8262C196.439 45.8262 196.842 45.7363 197.092 45.5566C197.342 45.377 197.467 45.1328 197.467 44.8242C197.467 44.6484 197.416 44.4941 197.314 44.3613C197.217 44.2246 197.051 44.0938 196.816 43.9688C196.582 43.8398 196.258 43.6992 195.844 43.5469C195.434 43.3906 195.078 43.2363 194.777 43.084C194.48 42.9277 194.25 42.7383 194.086 42.5156C193.926 42.293 193.846 42.0039 193.846 41.6484C193.846 41.1055 194.064 40.6895 194.502 40.4004C194.943 40.1074 195.521 39.9609 196.236 39.9609C196.623 39.9609 196.984 40 197.32 40.0781C197.66 40.1523 197.977 40.2539 198.27 40.3828L197.941 41.1621C197.676 41.0488 197.393 40.9531 197.092 40.875C196.791 40.7969 196.484 40.7578 196.172 40.7578C195.723 40.7578 195.377 40.832 195.135 40.9805C194.896 41.1289 194.777 41.332 194.777 41.5898C194.777 41.7891 194.832 41.9531 194.941 42.082C195.055 42.2109 195.234 42.332 195.48 42.4453C195.727 42.5586 196.051 42.6914 196.453 42.8438C196.855 42.9922 197.203 43.1465 197.496 43.3066C197.789 43.4629 198.014 43.6543 198.17 43.8809C198.33 44.1035 198.41 44.3906 198.41 44.7422ZM205.869 46.5H204.867V38.8125H202.172V37.9336H208.553V38.8125H205.869V46.5ZM215.238 43.2773C215.238 43.8047 215.17 44.2754 215.033 44.6895C214.896 45.1035 214.699 45.4531 214.441 45.7383C214.184 46.0234 213.871 46.2422 213.504 46.3945C213.141 46.543 212.729 46.6172 212.268 46.6172C211.838 46.6172 211.443 46.543 211.084 46.3945C210.729 46.2422 210.42 46.0234 210.158 45.7383C209.9 45.4531 209.699 45.1035 209.555 44.6895C209.414 44.2754 209.344 43.8047 209.344 43.2773C209.344 42.5742 209.463 41.9766 209.701 41.4844C209.939 40.9883 210.279 40.6113 210.721 40.3535C211.166 40.0918 211.695 39.9609 212.309 39.9609C212.895 39.9609 213.406 40.0918 213.844 40.3535C214.285 40.6152 214.627 40.9941 214.869 41.4902C215.115 41.9824 215.238 42.5781 215.238 43.2773ZM210.352 43.2773C210.352 43.793 210.42 44.2402 210.557 44.6191C210.693 44.998 210.904 45.291 211.189 45.498C211.475 45.7051 211.842 45.8086 212.291 45.8086C212.736 45.8086 213.102 45.7051 213.387 45.498C213.676 45.291 213.889 44.998 214.025 44.6191C214.162 44.2402 214.23 43.793 214.23 43.2773C214.23 42.7656 214.162 42.3242 214.025 41.9531C213.889 41.5781 213.678 41.2891 213.393 41.0859C213.107 40.8828 212.738 40.7812 212.285 40.7812C211.617 40.7812 211.127 41.002 210.814 41.4434C210.506 41.8848 210.352 42.4961 210.352 43.2773ZM219.205 46.6172C218.393 46.6172 217.748 46.3398 217.271 45.7852C216.799 45.2305 216.562 44.4062 216.562 43.3125C216.562 42.207 216.805 41.373 217.289 40.8105C217.773 40.2441 218.418 39.9609 219.223 39.9609C219.562 39.9609 219.859 40.0059 220.113 40.0957C220.367 40.1855 220.586 40.3066 220.77 40.459C220.953 40.6074 221.107 40.7773 221.232 40.9688H221.303C221.287 40.8477 221.271 40.6816 221.256 40.4707C221.24 40.2598 221.232 40.0879 221.232 39.9551V37.3828H222.205V46.5H221.42L221.273 45.5859H221.232C221.111 45.7773 220.957 45.9512 220.77 46.1074C220.586 46.2637 220.365 46.3887 220.107 46.4824C219.854 46.5723 219.553 46.6172 219.205 46.6172ZM219.357 45.8086C220.045 45.8086 220.531 45.6133 220.816 45.2227C221.102 44.832 221.244 44.252 221.244 43.4824V43.3066C221.244 42.4902 221.107 41.8633 220.834 41.4258C220.564 40.9883 220.072 40.7695 219.357 40.7695C218.76 40.7695 218.312 41 218.016 41.4609C217.719 41.918 217.57 42.543 217.57 43.3359C217.57 44.125 217.717 44.7344 218.01 45.1641C218.307 45.5938 218.756 45.8086 219.357 45.8086ZM226.67 39.9727C227.436 39.9727 228.004 40.1445 228.375 40.4883C228.746 40.832 228.932 41.3809 228.932 42.1348V46.5H228.223L228.035 45.5508H227.988C227.809 45.7852 227.621 45.9824 227.426 46.1426C227.23 46.2988 227.004 46.418 226.746 46.5C226.492 46.5781 226.18 46.6172 225.809 46.6172C225.418 46.6172 225.07 46.5488 224.766 46.4121C224.465 46.2754 224.227 46.0684 224.051 45.791C223.879 45.5137 223.793 45.1621 223.793 44.7363C223.793 44.0957 224.047 43.6035 224.555 43.2598C225.062 42.916 225.836 42.7285 226.875 42.6973L227.982 42.6504V42.2578C227.982 41.7031 227.863 41.3145 227.625 41.0918C227.387 40.8691 227.051 40.7578 226.617 40.7578C226.281 40.7578 225.961 40.8066 225.656 40.9043C225.352 41.002 225.062 41.1172 224.789 41.25L224.49 40.5117C224.779 40.3633 225.111 40.2363 225.486 40.1309C225.861 40.0254 226.256 39.9727 226.67 39.9727ZM227.971 43.3359L226.992 43.377C226.191 43.4082 225.627 43.5391 225.299 43.7695C224.971 44 224.807 44.3262 224.807 44.748C224.807 45.1152 224.918 45.3867 225.141 45.5625C225.363 45.7383 225.658 45.8262 226.025 45.8262C226.596 45.8262 227.062 45.668 227.426 45.3516C227.789 45.0352 227.971 44.5605 227.971 43.9277V43.3359ZM229.922 40.0781H230.965L232.383 43.8047C232.465 44.0234 232.541 44.2344 232.611 44.4375C232.682 44.6367 232.744 44.8281 232.799 45.0117C232.854 45.1953 232.896 45.373 232.928 45.5449H232.969C233.023 45.3496 233.102 45.0938 233.203 44.7773C233.305 44.457 233.414 44.1309 233.531 43.7988L234.873 40.0781H235.922L233.127 47.4434C232.979 47.8379 232.805 48.1816 232.605 48.4746C232.41 48.7676 232.172 48.9922 231.891 49.1484C231.609 49.3086 231.27 49.3887 230.871 49.3887C230.688 49.3887 230.525 49.377 230.385 49.3535C230.244 49.334 230.123 49.3105 230.021 49.2832V48.5039C230.107 48.5234 230.211 48.541 230.332 48.5566C230.457 48.5723 230.586 48.5801 230.719 48.5801C230.961 48.5801 231.17 48.5332 231.346 48.4395C231.525 48.3496 231.68 48.2168 231.809 48.041C231.938 47.8652 232.049 47.6562 232.143 47.4141L232.494 46.5117L229.922 40.0781ZM237.826 44.1211H237.188L236.918 37.9336H238.096L237.826 44.1211ZM236.801 45.8906C236.801 45.6172 236.867 45.4238 237 45.3105C237.133 45.1934 237.299 45.1348 237.498 45.1348C237.693 45.1348 237.857 45.1934 237.99 45.3105C238.127 45.4238 238.195 45.6172 238.195 45.8906C238.195 46.1602 238.127 46.3574 237.99 46.4824C237.857 46.6035 237.693 46.6641 237.498 46.6641C237.299 46.6641 237.133 46.6035 237 46.4824C236.867 46.3574 236.801 46.1602 236.801 45.8906Z" fill="#292929" style="mix-blend-mode:overlay"/>
</svg>
