<svg width="390" height="80" viewBox="0 0 390 80" fill="none" xmlns="http://www.w3.org/2000/svg">
<path d="M73.1852 22.5H2.81481C1.26024 22.5 0 23.7054 0 25.1923V54.8077C0 56.2946 1.26024 57.5 2.81481 57.5H73.1852C74.7398 57.5 76 56.2946 76 54.8077V25.1923C76 23.7054 74.7398 22.5 73.1852 22.5Z" fill="#75B2C5"/>
<path d="M30.6977 46.0579H28.8984V35.4872H35.1425V36.9477H30.6977V40.2447H34.8553V41.698H30.6977V46.0579ZM38.7483 38.0539V46.0579H36.9719V38.0539H38.7483ZM37.8714 34.9883C38.1436 34.9883 38.3779 35.0582 38.5744 35.198C38.776 35.3377 38.8768 35.5787 38.8768 35.921C38.8768 36.2584 38.776 36.4994 38.5744 36.644C38.3779 36.7838 38.1436 36.8537 37.8714 36.8537C37.5892 36.8537 37.3498 36.7838 37.1533 36.644C36.9618 36.4994 36.8661 36.2584 36.8661 35.921C36.8661 35.5787 36.9618 35.3377 37.1533 35.198C37.3498 35.0582 37.5892 34.9883 37.8714 34.9883ZM43.1479 41.9656L40.3509 38.0539H42.3768L44.2893 40.8666L46.2094 38.0539H48.2276L45.4156 41.9656L48.3713 46.0579H46.3379L44.2893 43.0573L42.2332 46.0579H40.2148L43.1479 41.9656Z" fill="white"/>
<path d="M190.612 41.6414C190.612 42.2799 190.464 42.83 190.168 43.2917C189.877 43.7535 189.457 44.107 188.907 44.3526C188.362 44.5982 187.71 44.721 186.953 44.721C186.583 44.721 186.23 44.6989 185.892 44.6548C185.555 44.6105 185.236 44.5466 184.936 44.4631C184.64 44.3747 184.37 44.2691 184.125 44.1464V42.4812C184.536 42.6728 184.996 42.8472 185.504 43.0044C186.012 43.1566 186.53 43.2328 187.057 43.2328C187.486 43.2328 187.842 43.1738 188.124 43.056C188.41 42.9331 188.623 42.7612 188.761 42.5402C188.9 42.3142 188.969 42.0514 188.969 41.7519C188.969 41.4327 188.889 41.1624 188.727 40.9414C188.565 40.7203 188.32 40.519 187.992 40.3373C187.669 40.1506 187.262 39.9517 186.772 39.7404C186.44 39.5981 186.121 39.436 185.816 39.2542C185.516 39.0725 185.248 38.8589 185.012 38.6133C184.776 38.3677 184.589 38.0779 184.451 37.7439C184.317 37.4049 184.25 37.0071 184.25 36.5503C184.25 35.9413 184.386 35.4206 184.659 34.9884C184.936 34.5561 185.324 34.2246 185.823 33.9937C186.327 33.7629 186.913 33.6475 187.583 33.6475C188.115 33.6475 188.614 33.7064 189.08 33.8243C189.551 33.9422 190.014 34.1092 190.466 34.3253L189.94 35.7473C189.524 35.5655 189.12 35.4206 188.727 35.3126C188.339 35.2045 187.941 35.1505 187.535 35.1505C187.184 35.1505 186.886 35.207 186.641 35.3199C186.396 35.4329 186.209 35.5925 186.079 35.7988C185.955 36.0001 185.892 36.2408 185.892 36.5208C185.892 36.8352 185.964 37.1004 186.107 37.3165C186.255 37.5278 186.481 37.7218 186.786 37.8986C187.096 38.0754 187.493 38.2719 187.978 38.4881C188.537 38.7336 189.011 38.9914 189.399 39.2616C189.792 39.5317 190.092 39.8559 190.3 40.2341C190.508 40.6074 190.612 41.0766 190.612 41.6414ZM195.408 36.2629C196.378 36.2629 197.11 36.4914 197.605 36.9481C198.104 37.4049 198.353 38.1171 198.353 39.0848V44.5737H197.196L196.884 43.417H196.828C196.611 43.7117 196.387 43.9548 196.156 44.1464C195.925 44.3379 195.657 44.4804 195.352 44.5737C195.052 44.6719 194.685 44.721 194.25 44.721C193.793 44.721 193.384 44.6326 193.024 44.4557C192.663 44.274 192.379 43.999 192.171 43.6306C191.963 43.2622 191.859 42.7956 191.859 42.2307C191.859 41.3909 192.153 40.7597 192.739 40.3373C193.331 39.9148 194.222 39.6816 195.415 39.6373L196.745 39.5858V39.1585C196.745 38.5936 196.62 38.1908 196.371 37.9501C196.126 37.7095 195.78 37.5891 195.331 37.5891C194.948 37.5891 194.576 37.6481 194.216 37.7659C193.855 37.8839 193.504 38.0287 193.162 38.2006L192.635 36.9777C193.01 36.7664 193.435 36.5945 193.911 36.4619C194.391 36.3293 194.89 36.2629 195.408 36.2629ZM196.738 40.6762L195.747 40.713C194.934 40.7425 194.363 40.8898 194.035 41.155C193.707 41.4203 193.543 41.7837 193.543 42.2455C193.543 42.6483 193.657 42.9429 193.883 43.1297C194.109 43.3114 194.407 43.4023 194.777 43.4023C195.341 43.4023 195.807 43.2328 196.177 42.8939C196.551 42.55 196.738 42.0465 196.738 41.3835V40.6762ZM202.386 44.5737L199.469 36.4177H201.194L202.775 41.2067C202.876 41.5112 202.969 41.8403 203.052 42.1939C203.135 42.5476 203.193 42.8447 203.225 43.0854H203.28C203.313 42.8349 203.375 42.5353 203.468 42.1866C203.56 41.8329 203.655 41.5062 203.752 41.2067L205.332 36.4177H207.051L204.133 44.5737H202.386ZM211.271 36.2629C211.955 36.2629 212.542 36.4128 213.031 36.7123C213.521 37.012 213.898 37.4369 214.161 37.987C214.424 38.5371 214.556 39.1953 214.556 39.9615V40.8898H209.435C209.453 41.6806 209.652 42.2897 210.031 42.717C210.414 43.1444 210.95 43.358 211.639 43.358C212.128 43.358 212.567 43.3088 212.955 43.2106C213.348 43.1075 213.752 42.9576 214.168 42.7612V44.1684C213.785 44.36 213.394 44.5 212.997 44.5884C212.6 44.6768 212.124 44.721 211.569 44.721C210.816 44.721 210.153 44.5663 209.58 44.2568C209.012 43.9425 208.566 43.476 208.243 42.8571C207.924 42.2382 207.764 41.4694 207.764 40.551C207.764 39.6373 207.91 38.8613 208.201 38.2227C208.492 37.5842 208.901 37.098 209.428 36.764C209.954 36.4299 210.569 36.2629 211.271 36.2629ZM211.271 37.567C210.758 37.567 210.343 37.7439 210.024 38.0975C209.71 38.4512 209.525 38.9694 209.469 39.652H212.962C212.958 39.2444 212.893 38.8834 212.768 38.569C212.648 38.2547 212.463 38.0091 212.214 37.8323C211.969 37.6554 211.655 37.567 211.271 37.567ZM221.896 44.5737H220.246V33.8022H225.971V35.2905H221.896V38.6501H225.707V40.131H221.896V44.5737ZM234.439 40.4773C234.439 41.155 234.356 41.7568 234.19 42.2823C234.023 42.8079 233.78 43.2524 233.462 43.6159C233.143 43.9744 232.76 44.2495 232.311 44.441C231.863 44.6277 231.358 44.721 230.794 44.721C230.268 44.721 229.784 44.6277 229.345 44.441C228.906 44.2495 228.525 43.9744 228.202 43.6159C227.883 43.2524 227.636 42.8079 227.461 42.2823C227.285 41.7568 227.197 41.155 227.197 40.4773C227.197 39.5784 227.343 38.8171 227.634 38.1933C227.929 37.5646 228.35 37.0857 228.896 36.7566C229.44 36.4275 230.089 36.2629 230.842 36.2629C231.55 36.2629 232.173 36.4275 232.714 36.7566C233.254 37.0857 233.676 37.5646 233.982 38.1933C234.287 38.822 234.439 39.5833 234.439 40.4773ZM228.874 40.4773C228.874 41.0715 228.942 41.5799 229.075 42.0024C229.214 42.4248 229.427 42.7489 229.713 42.9749C229.999 43.1959 230.369 43.3065 230.821 43.3065C231.274 43.3065 231.644 43.1959 231.931 42.9749C232.217 42.7489 232.427 42.4248 232.561 42.0024C232.695 41.5799 232.762 41.0715 232.762 40.4773C232.762 39.8829 232.695 39.3794 232.561 38.9669C232.427 38.5494 232.217 38.2325 231.931 38.0165C231.644 37.7955 231.272 37.6849 230.815 37.6849C230.14 37.6849 229.648 37.9256 229.338 38.407C229.029 38.8883 228.874 39.5784 228.874 40.4773ZM240.198 36.2629C240.328 36.2629 240.469 36.2704 240.622 36.2851C240.773 36.2998 240.905 36.3194 241.017 36.344L240.864 37.9648C240.767 37.9354 240.646 37.9133 240.503 37.8986C240.365 37.8839 240.24 37.8764 240.13 37.8764C239.837 37.8764 239.561 37.928 239.297 38.0312C239.034 38.1294 238.8 38.2817 238.598 38.4881C238.394 38.6894 238.235 38.9424 238.119 39.2469C238.004 39.5514 237.946 39.905 237.946 40.3078V44.5737H236.31V36.4177H237.585L237.808 37.8543H237.883C238.036 37.5646 238.225 37.2993 238.452 37.0586C238.678 36.818 238.937 36.6265 239.228 36.484C239.524 36.3366 239.847 36.2629 240.198 36.2629ZM246.291 44.5737V33.8022H247.954V43.0707H252.257V44.5737H246.291ZM256.852 36.2629C257.823 36.2629 258.555 36.4914 259.049 36.9481C259.548 37.4049 259.797 38.1171 259.797 39.0848V44.5737H258.64L258.328 43.417H258.272C258.056 43.7117 257.831 43.9548 257.6 44.1464C257.37 44.3379 257.101 44.4804 256.796 44.5737C256.496 44.6719 256.129 44.721 255.695 44.721C255.237 44.721 254.828 44.6326 254.468 44.4557C254.108 44.274 253.824 43.999 253.616 43.6306C253.407 43.2622 253.303 42.7956 253.303 42.2307C253.303 41.3909 253.597 40.7597 254.183 40.3373C254.775 39.9148 255.667 39.6816 256.859 39.6373L258.189 39.5858V39.1585C258.189 38.5936 258.065 38.1908 257.816 37.9501C257.571 37.7095 257.224 37.5891 256.776 37.5891C256.393 37.5891 256.02 37.6481 255.659 37.7659C255.3 37.8839 254.949 38.0287 254.607 38.2006L254.079 36.9777C254.454 36.7664 254.879 36.5945 255.355 36.4619C255.836 36.3293 256.335 36.2629 256.852 36.2629ZM258.182 40.6762L257.191 40.713C256.379 40.7425 255.807 40.8898 255.48 41.155C255.152 41.4203 254.988 41.7837 254.988 42.2455C254.988 42.6483 255.101 42.9429 255.327 43.1297C255.554 43.3114 255.852 43.4023 256.221 43.4023C256.785 43.4023 257.251 43.2328 257.622 42.8939C257.995 42.55 258.182 42.0465 258.182 41.3835V40.6762ZM264.932 43.3212C265.145 43.3212 265.356 43.3016 265.563 43.2622C265.771 43.2181 265.96 43.1665 266.132 43.1075V44.419C265.952 44.5025 265.718 44.5737 265.432 44.6326C265.145 44.6916 264.847 44.721 264.537 44.721C264.103 44.721 263.713 44.6448 263.366 44.4926C263.02 44.3354 262.745 44.0678 262.542 43.6896C262.339 43.3114 262.237 42.7883 262.237 42.1202V37.7365H261.19V36.9629L262.313 36.3513L262.847 34.6053H263.873V36.4177H266.069V37.7365H263.873V42.0981C263.873 42.5108 263.97 42.8177 264.164 43.0191C264.358 43.2204 264.614 43.3212 264.932 43.3212ZM270.747 36.2629C271.431 36.2629 272.017 36.4128 272.508 36.7123C272.998 37.012 273.374 37.4369 273.638 37.987C273.9 38.5371 274.033 39.1953 274.033 39.9615V40.8898H268.911C268.929 41.6806 269.128 42.2897 269.506 42.717C269.891 43.1444 270.426 43.358 271.115 43.358C271.604 43.358 272.043 43.3088 272.431 43.2106C272.824 43.1075 273.228 42.9576 273.644 42.7612V44.1684C273.26 44.36 272.87 44.5 272.473 44.5884C272.075 44.6768 271.6 44.721 271.045 44.721C270.293 44.721 269.629 44.5663 269.057 44.2568C268.488 43.9425 268.042 43.476 267.719 42.8571C267.4 42.2382 267.24 41.4694 267.24 40.551C267.24 39.6373 267.385 38.8613 267.678 38.2227C267.969 37.5842 268.377 37.098 268.904 36.764C269.431 36.4299 270.046 36.2629 270.747 36.2629ZM270.747 37.567C270.235 37.567 269.818 37.7439 269.5 38.0975C269.186 38.4512 269.001 38.9694 268.946 39.652H272.438C272.434 39.2444 272.369 38.8834 272.244 38.569C272.124 38.2547 271.939 38.0091 271.69 37.8323C271.445 37.6554 271.13 37.567 270.747 37.567ZM279.756 36.2629C279.886 36.2629 280.027 36.2704 280.18 36.2851C280.332 36.2998 280.463 36.3194 280.575 36.344L280.422 37.9648C280.325 37.9354 280.204 37.9133 280.061 37.8986C279.923 37.8839 279.799 37.8764 279.688 37.8764C279.397 37.8764 279.119 37.928 278.856 38.0312C278.592 38.1294 278.359 38.2817 278.156 38.4881C277.952 38.6894 277.793 38.9424 277.678 39.2469C277.562 39.5514 277.504 39.905 277.504 40.3078V44.5737H275.868V36.4177H277.143L277.366 37.8543H277.441C277.594 37.5646 277.783 37.2993 278.01 37.0586C278.236 36.818 278.495 36.6265 278.786 36.484C279.082 36.3366 279.406 36.2629 279.756 36.2629Z" fill="#5D9BAE"/>
<path d="M181 45.4946H278.399V45.863H181V45.4946Z" fill="#5D9BAE"/>
<path d="M293.425 32C297.334 32 300.521 35.3891 300.521 39.5445C300.521 43.7293 297.334 47.0889 293.425 47.0889C289.489 47.0889 286.328 43.7293 286.328 39.5445C286.328 35.3891 289.489 32 293.425 32ZM293.425 43.7882C293.896 43.7882 294.312 43.3757 294.312 42.8452C294.312 42.3147 293.896 41.9021 293.425 41.9021C292.898 41.9021 292.538 42.3147 292.538 42.8452C292.538 43.3757 292.926 43.7882 293.425 43.7882ZM295.337 39.6034C295.948 39.2203 296.308 38.5424 296.308 37.8351C296.308 36.6859 295.449 35.7722 294.312 35.7722H292.898C291.845 35.7722 290.986 36.6859 290.986 37.8351C290.986 38.2183 291.29 38.5424 291.651 38.5424C292.011 38.5424 292.315 38.2183 292.315 37.8351C292.315 37.4816 292.565 37.1868 292.926 37.1868H294.339C294.673 37.1868 294.977 37.4816 294.977 37.8351C294.977 38.0709 294.867 38.2772 294.673 38.3951L293.092 39.3971C292.87 39.5445 292.76 39.7802 292.76 40.016V40.4875C292.76 40.8707 293.064 41.1948 293.425 41.1948C293.786 41.1948 294.09 40.8707 294.09 40.4875V40.4286L295.337 39.6034Z" fill="#D8D8D8"/>
<path d="M315.508 33.1543H317.025V48.0001H315.508V33.1543Z" fill="#999999"/>
<path d="M336.645 33.8027C337.518 33.8027 338.239 33.9157 338.807 34.1416C339.381 34.3676 339.805 34.7114 340.082 35.1731C340.365 35.6348 340.506 36.2218 340.506 36.934C340.506 37.4645 340.413 37.9164 340.228 38.2897C340.043 38.6629 339.801 38.9723 339.5 39.2179C339.2 39.4635 338.879 39.66 338.537 39.8074L341.413 44.5742H339.536L337.089 40.2568H335.46V44.5742H333.797V33.8027H336.645ZM336.534 35.2763H335.46V38.7979H336.611C337.382 38.7979 337.941 38.6458 338.288 38.3412C338.639 38.0367 338.814 37.5873 338.814 36.9929C338.814 36.3691 338.627 35.927 338.254 35.6667C337.883 35.4064 337.311 35.2763 336.534 35.2763ZM345.751 36.2635C346.436 36.2635 347.023 36.4134 347.512 36.7129C348.002 37.0125 348.378 37.4374 348.642 37.9875C348.904 38.5377 349.037 39.1959 349.037 39.962V40.8904H343.916C343.933 41.6812 344.132 42.2903 344.512 42.7175C344.895 43.1449 345.431 43.3586 346.119 43.3586C346.609 43.3586 347.048 43.3094 347.435 43.2112C347.828 43.1081 348.233 42.9582 348.649 42.7618V44.169C348.265 44.3606 347.874 44.5005 347.477 44.5889C347.079 44.6773 346.604 44.7216 346.049 44.7216C345.297 44.7216 344.633 44.5668 344.061 44.2574C343.492 43.943 343.046 43.4765 342.723 42.8576C342.404 42.2387 342.245 41.4699 342.245 40.5515C342.245 39.6379 342.391 38.8618 342.682 38.2233C342.973 37.5848 343.382 37.0985 343.908 36.7646C344.435 36.4305 345.05 36.2635 345.751 36.2635ZM345.751 37.5676C345.239 37.5676 344.823 37.7445 344.505 38.0981C344.19 38.4518 344.005 38.97 343.95 39.6526H347.443C347.438 39.2449 347.374 38.8839 347.249 38.5696C347.128 38.2552 346.943 38.0097 346.694 37.8329C346.449 37.656 346.136 37.5676 345.751 37.5676ZM359.544 36.2635C360.402 36.2635 361.049 36.4993 361.483 36.9708C361.922 37.4423 362.142 38.1988 362.142 39.24V44.5742H360.513V39.5495C360.513 38.9306 360.4 38.464 360.174 38.1496C359.947 37.8353 359.603 37.6781 359.141 37.6781C358.494 37.6781 358.027 37.8991 357.741 38.3412C357.46 38.7783 357.319 39.4144 357.319 40.2494V44.5742H355.69V39.5495C355.69 39.1369 355.639 38.793 355.537 38.518C355.44 38.238 355.29 38.0293 355.087 37.8917C354.883 37.7494 354.627 37.6781 354.318 37.6781C353.87 37.6781 353.511 37.7862 353.243 38.0022C352.98 38.2184 352.791 38.5377 352.675 38.9601C352.559 39.3776 352.501 39.8909 352.501 40.5V44.5742H350.873V36.4183H352.142L352.37 37.516H352.46C352.617 37.2312 352.811 36.9978 353.042 36.8161C353.278 36.6294 353.539 36.492 353.826 36.4036C354.112 36.3102 354.41 36.2635 354.719 36.2635C355.293 36.2635 355.775 36.3716 356.168 36.5877C356.561 36.7989 356.854 37.1231 357.048 37.5603H357.173C357.413 37.1182 357.748 36.7915 358.177 36.5804C358.608 36.3691 359.062 36.2635 359.544 36.2635ZM371.207 40.4778C371.207 41.1556 371.124 41.7574 370.957 42.2829C370.791 42.8085 370.548 43.2529 370.23 43.6165C369.911 43.975 369.527 44.2501 369.079 44.4416C368.631 44.6283 368.125 44.7216 367.562 44.7216C367.035 44.7216 366.552 44.6283 366.113 44.4416C365.674 44.2501 365.293 43.975 364.969 43.6165C364.651 43.2529 364.404 42.8085 364.229 42.2829C364.052 41.7574 363.965 41.1556 363.965 40.4778C363.965 39.5789 364.11 38.8177 364.401 38.1939C364.697 37.5652 365.117 37.0862 365.662 36.7572C366.207 36.4281 366.857 36.2635 367.61 36.2635C368.317 36.2635 368.941 36.4281 369.481 36.7572C370.022 37.0862 370.444 37.5652 370.749 38.1939C371.054 38.8226 371.207 39.5838 371.207 40.4778ZM365.642 40.4778C365.642 41.0721 365.708 41.5805 365.843 42.003C365.981 42.4253 366.194 42.7495 366.481 42.9754C366.767 43.1965 367.136 43.307 367.589 43.307C368.042 43.307 368.412 43.1965 368.698 42.9754C368.984 42.7495 369.195 42.4253 369.329 42.003C369.462 41.5805 369.53 41.0721 369.53 40.4778C369.53 39.8835 369.462 39.38 369.329 38.9674C369.195 38.55 368.984 38.2331 368.698 38.0171C368.412 37.796 368.039 37.6855 367.582 37.6855C366.908 37.6855 366.415 37.9262 366.106 38.4075C365.797 38.8888 365.642 39.5789 365.642 40.4778ZM374.831 44.5742L371.914 36.4183H373.64L375.219 41.2073C375.321 41.5118 375.414 41.8409 375.497 42.1945C375.58 42.5482 375.638 42.8453 375.67 43.086H375.725C375.758 42.8355 375.82 42.5358 375.912 42.1872C376.005 41.8335 376.1 41.5068 376.197 41.2073L377.777 36.4183H379.496L376.578 44.5742H374.831ZM383.716 36.2635C384.4 36.2635 384.986 36.4134 385.476 36.7129C385.966 37.0125 386.343 37.4374 386.605 37.9875C386.869 38.5377 387.001 39.1959 387.001 39.962V40.8904H381.879C381.898 41.6812 382.097 42.2903 382.475 42.7175C382.858 43.1449 383.395 43.3586 384.084 43.3586C384.573 43.3586 385.012 43.3094 385.4 43.2112C385.793 43.1081 386.197 42.9582 386.613 42.7618V44.169C386.229 44.3606 385.839 44.5005 385.442 44.5889C385.044 44.6773 384.569 44.7216 384.014 44.7216C383.261 44.7216 382.598 44.5668 382.025 44.2574C381.457 43.943 381.011 43.4765 380.688 42.8576C380.369 42.2387 380.209 41.4699 380.209 40.5515C380.209 39.6379 380.355 38.8618 380.645 38.2233C380.936 37.5848 381.346 37.0985 381.872 36.7646C382.4 36.4305 383.013 36.2635 383.716 36.2635ZM383.716 37.5676C383.203 37.5676 382.787 37.7445 382.468 38.0981C382.155 38.4518 381.97 38.97 381.915 39.6526H385.407C385.403 39.2449 385.338 38.8839 385.213 38.5696C385.093 38.2552 384.908 38.0097 384.659 37.8329C384.414 37.656 384.099 37.5676 383.716 37.5676Z" fill="#5D9BAE"/>
<path d="M330.023 45.4946H385.231V45.863H330.023V45.4946Z" fill="#5D9BAE"/>
</svg>
