<svg width="324" height="68" viewBox="0 0 324 68" fill="none" xmlns="http://www.w3.org/2000/svg">
<rect width="324" height="68" fill="white"/>
<rect width="126" height="32" fill="#FEF1F2"/>
<path d="M17 8.9375C14.3633 8.9375 11.9727 10.3438 10.6367 12.5938C9.33594 14.8789 9.33594 17.6562 10.6367 19.9062C11.9727 22.1914 14.3633 23.5625 17 23.5625C19.6016 23.5625 21.9922 22.1914 23.3281 19.9062C24.6289 17.6562 24.6289 14.8789 23.3281 12.5938C21.9922 10.3438 19.6016 8.9375 17 8.9375ZM17 25.25C13.7656 25.25 10.8125 23.5625 9.19531 20.75C7.57812 17.9727 7.57812 14.5625 9.19531 11.75C10.8125 8.97266 13.7656 7.25 17 7.25C20.1992 7.25 23.1523 8.97266 24.7695 11.75C26.3867 14.5625 26.3867 17.9727 24.7695 20.75C23.1523 23.5625 20.1992 25.25 17 25.25ZM17.8438 11.75V12.5938V16.5312V17.375H16.1562V16.5312V12.5938V11.75H17.8438ZM16.1562 20.1875V18.5H17.8438V20.1875H16.1562Z" fill="#991C1C"/>
<path d="M42.1855 15.9893C42.1855 16.7594 42.0876 17.4613 41.8916 18.0947C41.7002 18.7236 41.4108 19.266 41.0234 19.7217C40.6361 20.1729 40.1507 20.5215 39.5674 20.7676C38.984 21.0137 38.3005 21.1367 37.5166 21.1367C36.7191 21.1367 36.0264 21.0137 35.4385 20.7676C34.8551 20.5215 34.3698 20.1706 33.9824 19.7148C33.5996 19.2591 33.3125 18.7145 33.1211 18.0811C32.9297 17.4476 32.834 16.7458 32.834 15.9756C32.834 14.9456 33.0026 14.0479 33.3398 13.2822C33.6816 12.512 34.1989 11.915 34.8916 11.4912C35.5889 11.0628 36.4684 10.8486 37.5303 10.8486C38.5693 10.8486 39.4329 11.0605 40.1211 11.4844C40.8092 11.9082 41.3242 12.5052 41.666 13.2754C42.0124 14.041 42.1855 14.9456 42.1855 15.9893ZM34.5566 15.9893C34.5566 16.7594 34.6615 17.4271 34.8711 17.9922C35.0807 18.5527 35.402 18.9857 35.835 19.291C36.2725 19.5918 36.833 19.7422 37.5166 19.7422C38.2048 19.7422 38.7653 19.5918 39.1982 19.291C39.6312 18.9857 39.9502 18.5527 40.1553 17.9922C40.3604 17.4271 40.4629 16.7594 40.4629 15.9893C40.4629 14.818 40.2282 13.902 39.7588 13.2412C39.2939 12.5758 38.5511 12.2432 37.5303 12.2432C36.8467 12.2432 36.2839 12.3936 35.8418 12.6943C35.4043 12.9951 35.0807 13.4258 34.8711 13.9863C34.6615 14.5423 34.5566 15.21 34.5566 15.9893ZM50.7646 13.4326V21H49.5L49.2812 19.9814H49.1924C49.0329 20.2412 48.8301 20.4577 48.584 20.6309C48.3379 20.7995 48.0645 20.9248 47.7637 21.0068C47.4629 21.0934 47.1462 21.1367 46.8135 21.1367C46.2438 21.1367 45.7562 21.041 45.3506 20.8496C44.9495 20.6536 44.6419 20.3529 44.4277 19.9473C44.2135 19.5417 44.1064 19.0176 44.1064 18.375V13.4326H45.7197V18.0742C45.7197 18.6621 45.8382 19.1019 46.0752 19.3936C46.3167 19.6852 46.6904 19.8311 47.1963 19.8311C47.6839 19.8311 48.0713 19.7308 48.3584 19.5303C48.6455 19.3298 48.8483 19.0335 48.9668 18.6416C49.0898 18.2497 49.1514 17.7689 49.1514 17.1992V13.4326H50.7646ZM55.8848 19.8379C56.0944 19.8379 56.3018 19.8197 56.5068 19.7832C56.7119 19.7422 56.8988 19.6943 57.0674 19.6396V20.8564C56.8896 20.9339 56.6595 21 56.377 21.0547C56.0944 21.1094 55.8005 21.1367 55.4951 21.1367C55.0667 21.1367 54.6816 21.0661 54.3398 20.9248C53.998 20.779 53.7269 20.5306 53.5264 20.1797C53.3258 19.8288 53.2256 19.3434 53.2256 18.7236V14.6562H52.1934V13.9385L53.3008 13.3711L53.8271 11.751H54.8389V13.4326H57.0059V14.6562H54.8389V18.7031C54.8389 19.0859 54.9346 19.3708 55.126 19.5576C55.3174 19.7445 55.5703 19.8379 55.8848 19.8379ZM71.2793 15.9893C71.2793 16.7594 71.1813 17.4613 70.9854 18.0947C70.7939 18.7236 70.5046 19.266 70.1172 19.7217C69.7298 20.1729 69.2445 20.5215 68.6611 20.7676C68.0778 21.0137 67.3942 21.1367 66.6104 21.1367C65.8128 21.1367 65.1201 21.0137 64.5322 20.7676C63.9489 20.5215 63.4635 20.1706 63.0762 19.7148C62.6934 19.2591 62.4062 18.7145 62.2148 18.0811C62.0234 17.4476 61.9277 16.7458 61.9277 15.9756C61.9277 14.9456 62.0964 14.0479 62.4336 13.2822C62.7754 12.512 63.2926 11.915 63.9854 11.4912C64.6826 11.0628 65.5622 10.8486 66.624 10.8486C67.6631 10.8486 68.5267 11.0605 69.2148 11.4844C69.903 11.9082 70.418 12.5052 70.7598 13.2754C71.1061 14.041 71.2793 14.9456 71.2793 15.9893ZM63.6504 15.9893C63.6504 16.7594 63.7552 17.4271 63.9648 17.9922C64.1745 18.5527 64.4958 18.9857 64.9287 19.291C65.3662 19.5918 65.9268 19.7422 66.6104 19.7422C67.2985 19.7422 67.859 19.5918 68.292 19.291C68.7249 18.9857 69.0439 18.5527 69.249 17.9922C69.4541 17.4271 69.5566 16.7594 69.5566 15.9893C69.5566 14.818 69.3219 13.902 68.8525 13.2412C68.3877 12.5758 67.6449 12.2432 66.624 12.2432C65.9404 12.2432 65.3776 12.3936 64.9355 12.6943C64.498 12.9951 64.1745 13.4258 63.9648 13.9863C63.7552 14.5423 63.6504 15.21 63.6504 15.9893ZM77.042 14.6562H75.2031V21H73.5967V14.6562H72.3594V13.8838L73.5967 13.4121V12.8857C73.5967 12.2432 73.6969 11.7327 73.8975 11.3545C74.1025 10.9762 74.3942 10.7051 74.7725 10.541C75.1553 10.3724 75.611 10.2881 76.1396 10.2881C76.486 10.2881 76.8027 10.3177 77.0898 10.377C77.377 10.4316 77.6185 10.4954 77.8145 10.5684L77.3975 11.7852C77.2425 11.735 77.0693 11.6895 76.8779 11.6484C76.6865 11.6029 76.4814 11.5801 76.2627 11.5801C75.8981 11.5801 75.6292 11.694 75.4561 11.9219C75.2874 12.1497 75.2031 12.4824 75.2031 12.9199V13.4326H77.042V14.6562ZM87.9043 18.2793C87.9043 18.8717 87.7585 19.3822 87.4668 19.8105C87.1797 20.2389 86.765 20.5671 86.2227 20.7949C85.6849 21.0228 85.0423 21.1367 84.2949 21.1367C83.9303 21.1367 83.5817 21.1162 83.249 21.0752C82.9163 21.0342 82.6019 20.9749 82.3057 20.8975C82.014 20.8154 81.7474 20.7174 81.5059 20.6035V19.0586C81.9115 19.2363 82.3649 19.3981 82.8662 19.5439C83.3675 19.6852 83.8779 19.7559 84.3975 19.7559C84.8213 19.7559 85.1722 19.7012 85.4502 19.5918C85.7327 19.4779 85.9424 19.3184 86.0791 19.1133C86.2158 18.9036 86.2842 18.6598 86.2842 18.3818C86.2842 18.0856 86.2044 17.835 86.0449 17.6299C85.8854 17.4248 85.6439 17.238 85.3203 17.0693C85.0013 16.8962 84.6003 16.7116 84.1172 16.5156C83.7891 16.3835 83.4746 16.2331 83.1738 16.0645C82.8776 15.8958 82.6133 15.6976 82.3809 15.4697C82.1484 15.2419 81.9639 14.973 81.8271 14.6631C81.695 14.3486 81.6289 13.9795 81.6289 13.5557C81.6289 12.9906 81.7633 12.5075 82.0322 12.1064C82.3057 11.7054 82.6885 11.3978 83.1807 11.1836C83.6774 10.9694 84.2562 10.8623 84.917 10.8623C85.4411 10.8623 85.9333 10.917 86.3936 11.0264C86.8584 11.1357 87.3141 11.2907 87.7607 11.4912L87.2412 12.8105C86.8311 12.6419 86.4323 12.5075 86.0449 12.4072C85.6621 12.307 85.2702 12.2568 84.8691 12.2568C84.5228 12.2568 84.2288 12.3092 83.9873 12.4141C83.7458 12.5189 83.5612 12.667 83.4336 12.8584C83.3105 13.0452 83.249 13.2686 83.249 13.5283C83.249 13.82 83.3197 14.0661 83.4609 14.2666C83.6068 14.4626 83.8301 14.6426 84.1309 14.8066C84.4362 14.9707 84.8281 15.153 85.3066 15.3535C85.8581 15.5814 86.3252 15.8206 86.708 16.0713C87.0954 16.3219 87.3916 16.6227 87.5967 16.9736C87.8018 17.32 87.9043 17.7552 87.9043 18.2793ZM92.4844 19.8379C92.694 19.8379 92.9014 19.8197 93.1064 19.7832C93.3115 19.7422 93.4984 19.6943 93.667 19.6396V20.8564C93.4893 20.9339 93.2591 21 92.9766 21.0547C92.694 21.1094 92.4001 21.1367 92.0947 21.1367C91.6663 21.1367 91.2812 21.0661 90.9395 20.9248C90.5977 20.779 90.3265 20.5306 90.126 20.1797C89.9255 19.8288 89.8252 19.3434 89.8252 18.7236V14.6562H88.793V13.9385L89.9004 13.3711L90.4268 11.751H91.4385V13.4326H93.6055V14.6562H91.4385V18.7031C91.4385 19.0859 91.5342 19.3708 91.7256 19.5576C91.917 19.7445 92.1699 19.8379 92.4844 19.8379ZM101.904 17.1992C101.904 17.8281 101.822 18.3864 101.658 18.874C101.494 19.3617 101.255 19.7741 100.94 20.1113C100.626 20.444 100.248 20.6992 99.8057 20.877C99.3636 21.0501 98.8646 21.1367 98.3086 21.1367C97.7891 21.1367 97.3128 21.0501 96.8799 20.877C96.4469 20.6992 96.071 20.444 95.752 20.1113C95.4375 19.7741 95.1937 19.3617 95.0205 18.874C94.8473 18.3864 94.7607 17.8281 94.7607 17.1992C94.7607 16.3652 94.9043 15.6589 95.1914 15.0801C95.4831 14.4967 95.8978 14.0524 96.4355 13.7471C96.9733 13.4417 97.6136 13.2891 98.3564 13.2891C99.0537 13.2891 99.6689 13.4417 100.202 13.7471C100.735 14.0524 101.152 14.4967 101.453 15.0801C101.754 15.6634 101.904 16.3698 101.904 17.1992ZM96.415 17.1992C96.415 17.7507 96.4811 18.2223 96.6133 18.6143C96.75 19.0062 96.9596 19.307 97.2422 19.5166C97.5247 19.7217 97.8893 19.8242 98.3359 19.8242C98.7826 19.8242 99.1471 19.7217 99.4297 19.5166C99.7122 19.307 99.9196 19.0062 100.052 18.6143C100.184 18.2223 100.25 17.7507 100.25 17.1992C100.25 16.6478 100.184 16.1807 100.052 15.7979C99.9196 15.4105 99.7122 15.1165 99.4297 14.916C99.1471 14.7109 98.7803 14.6084 98.3291 14.6084C97.6637 14.6084 97.1784 14.8317 96.873 15.2783C96.5677 15.7249 96.415 16.3652 96.415 17.1992ZM106.799 21.1367C106.083 21.1367 105.464 20.9977 104.939 20.7197C104.415 20.4417 104.012 20.0156 103.729 19.4414C103.447 18.8672 103.306 18.138 103.306 17.2539C103.306 16.3333 103.461 15.5814 103.771 14.998C104.08 14.4147 104.509 13.984 105.056 13.7061C105.607 13.4281 106.238 13.2891 106.949 13.2891C107.4 13.2891 107.808 13.3346 108.173 13.4258C108.542 13.5124 108.854 13.6195 109.109 13.7471L108.631 15.0322C108.353 14.9183 108.068 14.8226 107.776 14.7451C107.485 14.6676 107.204 14.6289 106.936 14.6289C106.493 14.6289 106.124 14.7269 105.828 14.9229C105.536 15.1188 105.318 15.4105 105.172 15.7979C105.031 16.1852 104.96 16.666 104.96 17.2402C104.96 17.7962 105.033 18.2656 105.179 18.6484C105.325 19.0267 105.541 19.3138 105.828 19.5098C106.115 19.7012 106.468 19.7969 106.888 19.7969C107.302 19.7969 107.674 19.7467 108.002 19.6465C108.33 19.5462 108.64 19.4163 108.932 19.2568V20.6514C108.645 20.8154 108.337 20.9362 108.009 21.0137C107.681 21.0957 107.277 21.1367 106.799 21.1367ZM112.315 10.3633V15.5039C112.315 15.7363 112.306 15.9915 112.288 16.2695C112.27 16.543 112.252 16.8005 112.233 17.042H112.268C112.386 16.8825 112.527 16.6956 112.691 16.4814C112.86 16.2673 113.02 16.0804 113.17 15.9209L115.48 13.4326H117.326L114.298 16.6865L117.524 21H115.638L113.218 17.6777L112.315 18.4502V21H110.709V10.3633H112.315Z" fill="#991C1C"/>
<rect width="138" height="32" transform="translate(130)" fill="#FEF2CE"/>
<path d="M154.312 16.25C154.312 13.6484 152.906 11.2578 150.656 9.92188C148.371 8.62109 145.594 8.62109 143.344 9.92188C141.059 11.2578 139.688 13.6484 139.688 16.25C139.688 18.8867 141.059 21.2773 143.344 22.6133C145.594 23.9141 148.371 23.9141 150.656 22.6133C152.906 21.2773 154.312 18.8867 154.312 16.25ZM138 16.25C138 13.0508 139.688 10.0977 142.5 8.48047C145.277 6.86328 148.688 6.86328 151.5 8.48047C154.277 10.0977 156 13.0508 156 16.25C156 19.4844 154.277 22.4375 151.5 24.0547C148.688 25.6719 145.277 25.6719 142.5 24.0547C139.688 22.4375 138 19.4844 138 16.25ZM146.156 11.4688V10.625H147.844V11.4688V15.8281L150.832 17.7969L151.535 18.2891L150.586 19.6953L149.883 19.2031L146.508 16.9531L146.156 16.707V16.25V11.4688Z" fill="#7D5E04"/>
<path d="M172.186 15.9893C172.186 16.7594 172.088 17.4613 171.892 18.0947C171.7 18.7236 171.411 19.266 171.023 19.7217C170.636 20.1729 170.151 20.5215 169.567 20.7676C168.984 21.0137 168.3 21.1367 167.517 21.1367C166.719 21.1367 166.026 21.0137 165.438 20.7676C164.855 20.5215 164.37 20.1706 163.982 19.7148C163.6 19.2591 163.312 18.7145 163.121 18.0811C162.93 17.4476 162.834 16.7458 162.834 15.9756C162.834 14.9456 163.003 14.0479 163.34 13.2822C163.682 12.512 164.199 11.915 164.892 11.4912C165.589 11.0628 166.468 10.8486 167.53 10.8486C168.569 10.8486 169.433 11.0605 170.121 11.4844C170.809 11.9082 171.324 12.5052 171.666 13.2754C172.012 14.041 172.186 14.9456 172.186 15.9893ZM164.557 15.9893C164.557 16.7594 164.661 17.4271 164.871 17.9922C165.081 18.5527 165.402 18.9857 165.835 19.291C166.272 19.5918 166.833 19.7422 167.517 19.7422C168.205 19.7422 168.765 19.5918 169.198 19.291C169.631 18.9857 169.95 18.5527 170.155 17.9922C170.36 17.4271 170.463 16.7594 170.463 15.9893C170.463 14.818 170.228 13.902 169.759 13.2412C169.294 12.5758 168.551 12.2432 167.53 12.2432C166.847 12.2432 166.284 12.3936 165.842 12.6943C165.404 12.9951 165.081 13.4258 164.871 13.9863C164.661 14.5423 164.557 15.21 164.557 15.9893ZM178.112 13.2891C178.965 13.2891 179.628 13.5101 180.102 13.9521C180.58 14.3896 180.819 15.0938 180.819 16.0645V21H179.213V16.3652C179.213 15.7773 179.092 15.3376 178.851 15.0459C178.609 14.7497 178.235 14.6016 177.729 14.6016C176.996 14.6016 176.485 14.8271 176.198 15.2783C175.916 15.7295 175.774 16.3835 175.774 17.2402V21H174.168V13.4326H175.419L175.645 14.458H175.733C175.897 14.1937 176.1 13.9772 176.342 13.8086C176.588 13.6354 176.861 13.5055 177.162 13.4189C177.467 13.3324 177.784 13.2891 178.112 13.2891ZM184.682 21H183.068V10.3633H184.682V21ZM185.837 13.4326H187.587L189.139 17.7529C189.207 17.9489 189.269 18.1426 189.323 18.334C189.382 18.5208 189.433 18.7054 189.474 18.8877C189.519 19.07 189.556 19.2523 189.583 19.4346H189.624C189.67 19.1976 189.733 18.9333 189.815 18.6416C189.902 18.3454 189.998 18.0492 190.103 17.7529L191.593 13.4326H193.322L190.075 22.0391C189.888 22.5312 189.658 22.9505 189.385 23.2969C189.116 23.6478 188.797 23.9121 188.428 24.0898C188.059 24.2721 187.637 24.3633 187.163 24.3633C186.935 24.3633 186.737 24.3496 186.568 24.3223C186.4 24.2995 186.256 24.2744 186.138 24.2471V22.9619C186.233 22.9847 186.354 23.0052 186.5 23.0234C186.646 23.0417 186.796 23.0508 186.951 23.0508C187.238 23.0508 187.487 22.9938 187.696 22.8799C187.906 22.766 188.084 22.6042 188.229 22.3945C188.375 22.1895 188.496 21.9548 188.592 21.6904L188.858 20.9795L185.837 13.4326ZM204.355 21H197.588V19.79L200.179 17.165C200.68 16.6546 201.092 16.2148 201.416 15.8457C201.74 15.472 201.979 15.1188 202.134 14.7861C202.293 14.4535 202.373 14.0911 202.373 13.6992C202.373 13.2161 202.234 12.8516 201.956 12.6055C201.678 12.3548 201.311 12.2295 200.855 12.2295C200.423 12.2295 200.021 12.3161 199.652 12.4893C199.288 12.6579 198.91 12.8994 198.518 13.2139L197.636 12.1543C197.914 11.9173 198.21 11.7008 198.524 11.5049C198.843 11.3089 199.199 11.154 199.591 11.04C199.983 10.9215 200.429 10.8623 200.931 10.8623C201.564 10.8623 202.111 10.9762 202.571 11.2041C203.032 11.4274 203.385 11.7396 203.631 12.1406C203.882 12.5417 204.007 13.0088 204.007 13.542C204.007 14.0798 203.9 14.5765 203.686 15.0322C203.471 15.488 203.166 15.9391 202.77 16.3857C202.373 16.8278 201.901 17.3086 201.354 17.8281L199.625 19.5166V19.5918H204.355V21ZM212.729 11.0059C213.591 11.0059 214.302 11.1107 214.862 11.3203C215.427 11.5299 215.847 11.849 216.12 12.2773C216.398 12.7057 216.537 13.2503 216.537 13.9111C216.537 14.4033 216.446 14.8226 216.264 15.1689C216.081 15.5153 215.842 15.8024 215.546 16.0303C215.25 16.2581 214.933 16.4404 214.596 16.5771L217.433 21H215.58L213.167 16.9941H211.561V21H209.92V11.0059H212.729ZM212.62 12.373H211.561V15.6406H212.695C213.456 15.6406 214.008 15.4993 214.35 15.2168C214.696 14.9342 214.869 14.5173 214.869 13.9658C214.869 13.387 214.685 12.9769 214.315 12.7354C213.951 12.4938 213.386 12.373 212.62 12.373ZM221.712 13.2891C222.386 13.2891 222.965 13.4281 223.448 13.7061C223.931 13.984 224.303 14.3783 224.562 14.8887C224.822 15.3991 224.952 16.0098 224.952 16.7207V17.582H219.9C219.919 18.3158 220.115 18.8809 220.488 19.2773C220.867 19.6738 221.395 19.8721 222.074 19.8721C222.557 19.8721 222.99 19.8265 223.373 19.7354C223.76 19.6396 224.159 19.5007 224.569 19.3184V20.624C224.191 20.8018 223.806 20.9316 223.414 21.0137C223.022 21.0957 222.553 21.1367 222.006 21.1367C221.263 21.1367 220.609 20.9932 220.044 20.7061C219.483 20.4144 219.044 19.9814 218.725 19.4072C218.41 18.833 218.253 18.1198 218.253 17.2676C218.253 16.4199 218.396 15.6999 218.684 15.1074C218.971 14.515 219.374 14.0638 219.894 13.7539C220.413 13.444 221.019 13.2891 221.712 13.2891ZM221.712 14.499C221.206 14.499 220.796 14.6631 220.481 14.9912C220.172 15.3193 219.989 15.8001 219.935 16.4336H223.38C223.375 16.0553 223.312 15.7204 223.188 15.4287C223.07 15.137 222.888 14.9092 222.642 14.7451C222.4 14.5811 222.09 14.499 221.712 14.499ZM235.315 13.2891C236.163 13.2891 236.801 13.5078 237.229 13.9453C237.662 14.3828 237.879 15.0846 237.879 16.0508V21H236.272V16.3379C236.272 15.7637 236.161 15.3307 235.938 15.0391C235.714 14.7474 235.375 14.6016 234.919 14.6016C234.281 14.6016 233.821 14.8066 233.538 15.2168C233.26 15.6224 233.121 16.2126 233.121 16.9873V21H231.515V16.3379C231.515 15.9551 231.465 15.6361 231.364 15.3809C231.269 15.1211 231.12 14.9274 230.92 14.7998C230.719 14.6676 230.466 14.6016 230.161 14.6016C229.719 14.6016 229.366 14.7018 229.102 14.9023C228.842 15.1029 228.655 15.3991 228.541 15.791C228.427 16.1784 228.37 16.6546 228.37 17.2197V21H226.764V13.4326H228.015L228.24 14.4512H228.329C228.484 14.1868 228.675 13.9704 228.903 13.8018C229.136 13.6286 229.393 13.501 229.676 13.4189C229.958 13.3324 230.252 13.2891 230.558 13.2891C231.123 13.2891 231.599 13.3893 231.986 13.5898C232.374 13.7858 232.663 14.0866 232.854 14.4922H232.978C233.215 14.082 233.545 13.779 233.969 13.583C234.393 13.387 234.841 13.2891 235.315 13.2891ZM243.088 13.2891C244.045 13.2891 244.767 13.501 245.255 13.9248C245.747 14.3486 245.993 15.0094 245.993 15.9072V21H244.852L244.544 19.9268H244.489C244.275 20.2002 244.054 20.4258 243.826 20.6035C243.598 20.7812 243.334 20.9134 243.033 21C242.737 21.0911 242.375 21.1367 241.946 21.1367C241.495 21.1367 241.092 21.0547 240.736 20.8906C240.381 20.722 240.101 20.4668 239.896 20.125C239.69 19.7832 239.588 19.3503 239.588 18.8262C239.588 18.0469 239.877 17.4613 240.456 17.0693C241.039 16.6774 241.919 16.4609 243.095 16.4199L244.407 16.3721V15.9756C244.407 15.4515 244.284 15.0778 244.038 14.8545C243.797 14.6312 243.455 14.5195 243.013 14.5195C242.634 14.5195 242.268 14.5742 241.912 14.6836C241.557 14.793 241.21 14.9274 240.873 15.0869L240.354 13.9521C240.723 13.7562 241.142 13.5967 241.611 13.4736C242.085 13.3506 242.577 13.2891 243.088 13.2891ZM244.4 17.3838L243.423 17.418C242.621 17.4453 242.058 17.582 241.734 17.8281C241.411 18.0742 241.249 18.4115 241.249 18.8398C241.249 19.2135 241.361 19.487 241.584 19.6602C241.807 19.8288 242.101 19.9131 242.466 19.9131C243.022 19.9131 243.482 19.7559 243.847 19.4414C244.216 19.1224 244.4 18.6553 244.4 18.04V17.3838ZM249.849 13.4326V21H248.242V13.4326H249.849ZM249.056 10.5342C249.302 10.5342 249.514 10.6003 249.691 10.7324C249.874 10.8646 249.965 11.0924 249.965 11.416C249.965 11.735 249.874 11.9629 249.691 12.0996C249.514 12.2318 249.302 12.2979 249.056 12.2979C248.8 12.2979 248.584 12.2318 248.406 12.0996C248.233 11.9629 248.146 11.735 248.146 11.416C248.146 11.0924 248.233 10.8646 248.406 10.7324C248.584 10.6003 248.8 10.5342 249.056 10.5342ZM256.097 13.2891C256.949 13.2891 257.612 13.5101 258.086 13.9521C258.564 14.3896 258.804 15.0938 258.804 16.0645V21H257.197V16.3652C257.197 15.7773 257.076 15.3376 256.835 15.0459C256.593 14.7497 256.22 14.6016 255.714 14.6016C254.98 14.6016 254.47 14.8271 254.183 15.2783C253.9 15.7295 253.759 16.3835 253.759 17.2402V21H252.152V13.4326H253.403L253.629 14.458H253.718C253.882 14.1937 254.085 13.9772 254.326 13.8086C254.572 13.6354 254.846 13.5055 255.146 13.4189C255.452 13.3324 255.769 13.2891 256.097 13.2891Z" fill="#7D5E04"/>
<rect width="315" height="32" transform="translate(0 36)" fill="#F5F5F5"/>
<path d="M25.4023 49.9297L25.6484 50.1758V50.5273V54.0078V54.3594L25.4023 54.6055L19.8477 60.1602L18.6523 58.9648L23.9609 53.6562V50.8789L18.6523 45.5352L19.8477 44.3398L25.4023 49.9297ZM9.6875 51.582L15.875 57.7695L20.9375 52.707V51.8281L15.1719 46.0625H9.6875V51.582ZM15.875 44.375L22.625 51.125V53.375L17.0352 58.9648L15.875 60.125L14.6797 58.9648L8 52.25V46.0625V44.375H9.6875H15.875ZM10.8125 48.3125C10.8125 47.7148 11.3047 47.1875 11.9375 47.1875C12.5352 47.1875 13.0625 47.7148 13.0625 48.3125C13.0625 48.9453 12.5352 49.4375 11.9375 49.4375C11.3047 49.4375 10.8125 48.9453 10.8125 48.3125Z" fill="#444444"/>
<path d="M36.1426 51.5654L38.5146 47.0059H40.2852L36.9629 53.1172V57H35.3291V53.1787L32 47.0059H33.7842L36.1426 51.5654ZM48.1328 53.1992C48.1328 53.8281 48.0508 54.3864 47.8867 54.874C47.7227 55.3617 47.4834 55.7741 47.1689 56.1113C46.8545 56.444 46.4762 56.6992 46.0342 56.877C45.5921 57.0501 45.0931 57.1367 44.5371 57.1367C44.0176 57.1367 43.5413 57.0501 43.1084 56.877C42.6755 56.6992 42.2995 56.444 41.9805 56.1113C41.666 55.7741 41.4222 55.3617 41.249 54.874C41.0758 54.3864 40.9893 53.8281 40.9893 53.1992C40.9893 52.3652 41.1328 51.6589 41.4199 51.0801C41.7116 50.4967 42.1263 50.0524 42.6641 49.7471C43.2018 49.4417 43.8421 49.2891 44.585 49.2891C45.2822 49.2891 45.8975 49.4417 46.4307 49.7471C46.9639 50.0524 47.3809 50.4967 47.6816 51.0801C47.9824 51.6634 48.1328 52.3698 48.1328 53.1992ZM42.6436 53.1992C42.6436 53.7507 42.7096 54.2223 42.8418 54.6143C42.9785 55.0062 43.1882 55.307 43.4707 55.5166C43.7533 55.7217 44.1178 55.8242 44.5645 55.8242C45.0111 55.8242 45.3757 55.7217 45.6582 55.5166C45.9408 55.307 46.1481 55.0062 46.2803 54.6143C46.4124 54.2223 46.4785 53.7507 46.4785 53.1992C46.4785 52.6478 46.4124 52.1807 46.2803 51.7979C46.1481 51.4105 45.9408 51.1165 45.6582 50.916C45.3757 50.7109 45.0088 50.6084 44.5576 50.6084C43.8923 50.6084 43.4069 50.8317 43.1016 51.2783C42.7962 51.7249 42.6436 52.3652 42.6436 53.1992ZM56.5752 49.4326V57H55.3105L55.0918 55.9814H55.0029C54.8434 56.2412 54.6406 56.4577 54.3945 56.6309C54.1484 56.7995 53.875 56.9248 53.5742 57.0068C53.2734 57.0934 52.9567 57.1367 52.624 57.1367C52.0544 57.1367 51.5667 57.041 51.1611 56.8496C50.7601 56.6536 50.4525 56.3529 50.2383 55.9473C50.0241 55.5417 49.917 55.0176 49.917 54.375V49.4326H51.5303V54.0742C51.5303 54.6621 51.6488 55.1019 51.8857 55.3936C52.1273 55.6852 52.501 55.8311 53.0068 55.8311C53.4945 55.8311 53.8818 55.7308 54.1689 55.5303C54.4561 55.3298 54.6589 55.0335 54.7773 54.6416C54.9004 54.2497 54.9619 53.7689 54.9619 53.1992V49.4326H56.5752ZM68.4492 54.2793C68.4492 54.8717 68.3034 55.3822 68.0117 55.8105C67.7246 56.2389 67.3099 56.5671 66.7676 56.7949C66.2298 57.0228 65.5872 57.1367 64.8398 57.1367C64.4753 57.1367 64.1266 57.1162 63.7939 57.0752C63.4613 57.0342 63.1468 56.9749 62.8506 56.8975C62.5589 56.8154 62.2923 56.7174 62.0508 56.6035V55.0586C62.4564 55.2363 62.9098 55.3981 63.4111 55.5439C63.9124 55.6852 64.4229 55.7559 64.9424 55.7559C65.3662 55.7559 65.7171 55.7012 65.9951 55.5918C66.2777 55.4779 66.4873 55.3184 66.624 55.1133C66.7607 54.9036 66.8291 54.6598 66.8291 54.3818C66.8291 54.0856 66.7493 53.835 66.5898 53.6299C66.4303 53.4248 66.1888 53.238 65.8652 53.0693C65.5462 52.8962 65.1452 52.7116 64.6621 52.5156C64.334 52.3835 64.0195 52.2331 63.7188 52.0645C63.4225 51.8958 63.1582 51.6976 62.9258 51.4697C62.6934 51.2419 62.5088 50.973 62.3721 50.6631C62.2399 50.3486 62.1738 49.9795 62.1738 49.5557C62.1738 48.9906 62.3083 48.5075 62.5771 48.1064C62.8506 47.7054 63.2334 47.3978 63.7256 47.1836C64.2223 46.9694 64.8011 46.8623 65.4619 46.8623C65.986 46.8623 66.4782 46.917 66.9385 47.0264C67.4033 47.1357 67.859 47.2907 68.3057 47.4912L67.7861 48.8105C67.376 48.6419 66.9772 48.5075 66.5898 48.4072C66.207 48.307 65.8151 48.2568 65.4141 48.2568C65.0677 48.2568 64.7738 48.3092 64.5322 48.4141C64.2907 48.5189 64.1061 48.667 63.9785 48.8584C63.8555 49.0452 63.7939 49.2686 63.7939 49.5283C63.7939 49.82 63.8646 50.0661 64.0059 50.2666C64.1517 50.4626 64.375 50.6426 64.6758 50.8066C64.9811 50.9707 65.373 51.153 65.8516 51.3535C66.403 51.5814 66.8701 51.8206 67.2529 52.0713C67.6403 52.3219 67.9365 52.6227 68.1416 52.9736C68.3467 53.32 68.4492 53.7552 68.4492 54.2793ZM76.5703 57L75.5928 54.2246H71.7715L70.7939 57H69.0645L72.7832 46.9648H74.6016L78.3135 57H76.5703ZM75.1689 52.8164L74.2188 50.082C74.1823 49.9635 74.1299 49.7972 74.0615 49.583C73.9932 49.3643 73.9248 49.1432 73.8564 48.9199C73.7881 48.6921 73.7311 48.5007 73.6855 48.3457C73.64 48.5326 73.583 48.7422 73.5146 48.9746C73.4508 49.2025 73.387 49.4167 73.3232 49.6172C73.264 49.8177 73.2184 49.9727 73.1865 50.082L72.2295 52.8164H75.1689ZM87.043 47.0059L83.5498 57H81.8135L78.3203 47.0059H80.002L82.1074 53.2676C82.1712 53.4499 82.2396 53.6709 82.3125 53.9307C82.39 54.1904 82.4606 54.4525 82.5244 54.7168C82.5928 54.9811 82.6452 55.2158 82.6816 55.4209C82.7181 55.2158 82.7682 54.9811 82.832 54.7168C82.9004 54.4525 82.971 54.1904 83.0439 53.9307C83.1169 53.6709 83.1852 53.4476 83.249 53.2607L85.3613 47.0059H87.043ZM94.0156 57H88.3555V47.0059H94.0156V48.3867H89.9961V51.1006H93.7627V52.4746H89.9961V55.6123H94.0156V57ZM104.29 51.9072C104.29 53.0329 104.08 53.974 103.661 54.7305C103.242 55.4824 102.633 56.0498 101.836 56.4326C101.038 56.8109 100.077 57 98.9512 57H96.1758V47.0059H99.252C100.286 47.0059 101.18 47.1927 101.932 47.5664C102.684 47.9355 103.265 48.4847 103.675 49.2139C104.085 49.9385 104.29 50.8363 104.29 51.9072ZM102.581 51.9551C102.581 51.1348 102.451 50.4603 102.191 49.9316C101.936 49.403 101.558 49.0111 101.057 48.7559C100.56 48.4961 99.9469 48.3662 99.2178 48.3662H97.8164V55.626H98.9785C100.186 55.626 101.089 55.3184 101.686 54.7031C102.283 54.0879 102.581 53.1719 102.581 51.9551ZM110.08 47.0059H113.054C114.343 47.0059 115.316 47.1927 115.973 47.5664C116.629 47.9401 116.957 48.585 116.957 49.501C116.957 49.8838 116.889 50.2301 116.752 50.54C116.62 50.8454 116.426 51.0983 116.171 51.2988C115.916 51.4948 115.601 51.627 115.228 51.6953V51.7637C115.615 51.832 115.959 51.9528 116.26 52.126C116.565 52.2992 116.804 52.5475 116.978 52.8711C117.155 53.1947 117.244 53.6139 117.244 54.1289C117.244 54.7396 117.098 55.2591 116.807 55.6875C116.52 56.1159 116.107 56.4417 115.569 56.665C115.036 56.8883 114.403 57 113.669 57H110.08V47.0059ZM111.721 51.1279H113.293C114.036 51.1279 114.551 51.0072 114.838 50.7656C115.125 50.5241 115.269 50.1709 115.269 49.7061C115.269 49.2321 115.098 48.8903 114.756 48.6807C114.419 48.471 113.881 48.3662 113.143 48.3662H111.721V51.1279ZM111.721 52.4541V55.626H113.45C114.216 55.626 114.754 55.4779 115.063 55.1816C115.373 54.8854 115.528 54.4844 115.528 53.9785C115.528 53.6686 115.458 53.3997 115.316 53.1719C115.18 52.944 114.954 52.7686 114.64 52.6455C114.325 52.5179 113.901 52.4541 113.368 52.4541H111.721ZM119.309 57V47.0059H120.949V57H119.309ZM127.621 51.5723H131.354V56.5898C130.829 56.763 130.287 56.8975 129.727 56.9932C129.166 57.0889 128.537 57.1367 127.84 57.1367C126.824 57.1367 125.962 56.9362 125.256 56.5352C124.554 56.1296 124.021 55.5439 123.656 54.7783C123.292 54.0081 123.109 53.0807 123.109 51.9961C123.109 50.9525 123.312 50.0479 123.718 49.2822C124.123 48.512 124.714 47.9173 125.488 47.498C126.263 47.0742 127.202 46.8623 128.305 46.8623C128.847 46.8623 129.371 46.917 129.877 47.0264C130.387 47.1312 130.854 47.277 131.278 47.4639L130.704 48.8174C130.367 48.6579 129.989 48.5234 129.569 48.4141C129.15 48.3047 128.715 48.25 128.264 48.25C127.548 48.25 126.931 48.4049 126.411 48.7148C125.896 49.0247 125.5 49.4622 125.222 50.0273C124.944 50.5879 124.805 51.251 124.805 52.0166C124.805 52.7594 124.916 53.4111 125.14 53.9717C125.363 54.5322 125.712 54.9697 126.186 55.2842C126.664 55.5941 127.282 55.749 128.038 55.749C128.416 55.749 128.738 55.7285 129.002 55.6875C129.266 55.6465 129.51 55.6009 129.733 55.5508V52.9736H127.621V51.5723ZM146.256 51.9893C146.256 52.7594 146.158 53.4613 145.962 54.0947C145.771 54.7236 145.481 55.266 145.094 55.7217C144.706 56.1729 144.221 56.5215 143.638 56.7676C143.054 57.0137 142.371 57.1367 141.587 57.1367C140.789 57.1367 140.097 57.0137 139.509 56.7676C138.925 56.5215 138.44 56.1706 138.053 55.7148C137.67 55.2591 137.383 54.7145 137.191 54.0811C137 53.4476 136.904 52.7458 136.904 51.9756C136.904 50.9456 137.073 50.0479 137.41 49.2822C137.752 48.512 138.269 47.915 138.962 47.4912C139.659 47.0628 140.539 46.8486 141.601 46.8486C142.64 46.8486 143.503 47.0605 144.191 47.4844C144.88 47.9082 145.395 48.5052 145.736 49.2754C146.083 50.041 146.256 50.9456 146.256 51.9893ZM138.627 51.9893C138.627 52.7594 138.732 53.4271 138.941 53.9922C139.151 54.5527 139.472 54.9857 139.905 55.291C140.343 55.5918 140.903 55.7422 141.587 55.7422C142.275 55.7422 142.836 55.5918 143.269 55.291C143.701 54.9857 144.021 54.5527 144.226 53.9922C144.431 53.4271 144.533 52.7594 144.533 51.9893C144.533 50.818 144.299 49.902 143.829 49.2412C143.364 48.5758 142.621 48.2432 141.601 48.2432C140.917 48.2432 140.354 48.3936 139.912 48.6943C139.475 48.9951 139.151 49.4258 138.941 49.9863C138.732 50.5423 138.627 51.21 138.627 51.9893ZM152.183 49.2891C153.035 49.2891 153.698 49.5101 154.172 49.9521C154.65 50.3896 154.89 51.0938 154.89 52.0645V57H153.283V52.3652C153.283 51.7773 153.162 51.3376 152.921 51.0459C152.679 50.7497 152.306 50.6016 151.8 50.6016C151.066 50.6016 150.556 50.8271 150.269 51.2783C149.986 51.7295 149.845 52.3835 149.845 53.2402V57H148.238V49.4326H149.489L149.715 50.458H149.804C149.968 50.1937 150.171 49.9772 150.412 49.8086C150.658 49.6354 150.932 49.5055 151.232 49.4189C151.538 49.3324 151.854 49.2891 152.183 49.2891ZM166.709 54.2793C166.709 54.8717 166.563 55.3822 166.271 55.8105C165.984 56.2389 165.57 56.5671 165.027 56.7949C164.49 57.0228 163.847 57.1367 163.1 57.1367C162.735 57.1367 162.386 57.1162 162.054 57.0752C161.721 57.0342 161.407 56.9749 161.11 56.8975C160.819 56.8154 160.552 56.7174 160.311 56.6035V55.0586C160.716 55.2363 161.17 55.3981 161.671 55.5439C162.172 55.6852 162.683 55.7559 163.202 55.7559C163.626 55.7559 163.977 55.7012 164.255 55.5918C164.537 55.4779 164.747 55.3184 164.884 55.1133C165.021 54.9036 165.089 54.6598 165.089 54.3818C165.089 54.0856 165.009 53.835 164.85 53.6299C164.69 53.4248 164.449 53.238 164.125 53.0693C163.806 52.8962 163.405 52.7116 162.922 52.5156C162.594 52.3835 162.279 52.2331 161.979 52.0645C161.682 51.8958 161.418 51.6976 161.186 51.4697C160.953 51.2419 160.769 50.973 160.632 50.6631C160.5 50.3486 160.434 49.9795 160.434 49.5557C160.434 48.9906 160.568 48.5075 160.837 48.1064C161.11 47.7054 161.493 47.3978 161.985 47.1836C162.482 46.9694 163.061 46.8623 163.722 46.8623C164.246 46.8623 164.738 46.917 165.198 47.0264C165.663 47.1357 166.119 47.2907 166.565 47.4912L166.046 48.8105C165.636 48.6419 165.237 48.5075 164.85 48.4072C164.467 48.307 164.075 48.2568 163.674 48.2568C163.327 48.2568 163.034 48.3092 162.792 48.4141C162.55 48.5189 162.366 48.667 162.238 48.8584C162.115 49.0452 162.054 49.2686 162.054 49.5283C162.054 49.82 162.124 50.0661 162.266 50.2666C162.411 50.4626 162.635 50.6426 162.936 50.8066C163.241 50.9707 163.633 51.153 164.111 51.3535C164.663 51.5814 165.13 51.8206 165.513 52.0713C165.9 52.3219 166.196 52.6227 166.401 52.9736C166.606 53.32 166.709 53.7552 166.709 54.2793ZM171.521 57.1367C170.806 57.1367 170.186 56.9977 169.662 56.7197C169.138 56.4417 168.735 56.0156 168.452 55.4414C168.17 54.8672 168.028 54.138 168.028 53.2539C168.028 52.3333 168.183 51.5814 168.493 50.998C168.803 50.4147 169.231 49.984 169.778 49.7061C170.33 49.4281 170.961 49.2891 171.672 49.2891C172.123 49.2891 172.531 49.3346 172.896 49.4258C173.265 49.5124 173.577 49.6195 173.832 49.7471L173.354 51.0322C173.076 50.9183 172.791 50.8226 172.499 50.7451C172.207 50.6676 171.927 50.6289 171.658 50.6289C171.216 50.6289 170.847 50.7269 170.551 50.9229C170.259 51.1188 170.04 51.4105 169.895 51.7979C169.753 52.1852 169.683 52.666 169.683 53.2402C169.683 53.7962 169.756 54.2656 169.901 54.6484C170.047 55.0267 170.264 55.3138 170.551 55.5098C170.838 55.7012 171.191 55.7969 171.61 55.7969C172.025 55.7969 172.396 55.7467 172.725 55.6465C173.053 55.5462 173.363 55.4163 173.654 55.2568V56.6514C173.367 56.8154 173.06 56.9362 172.731 57.0137C172.403 57.0957 172 57.1367 171.521 57.1367ZM179.267 49.2891C179.394 49.2891 179.533 49.2959 179.684 49.3096C179.834 49.3232 179.964 49.3415 180.073 49.3643L179.923 50.8682C179.827 50.8408 179.709 50.8203 179.567 50.8066C179.431 50.793 179.308 50.7861 179.198 50.7861C178.911 50.7861 178.638 50.834 178.378 50.9297C178.118 51.0208 177.888 51.1621 177.688 51.3535C177.487 51.5404 177.33 51.7751 177.216 52.0576C177.102 52.3402 177.045 52.6683 177.045 53.042V57H175.432V49.4326H176.689L176.908 50.7656H176.983C177.134 50.4967 177.321 50.2507 177.544 50.0273C177.767 49.804 178.022 49.6263 178.31 49.4941C178.601 49.3574 178.92 49.2891 179.267 49.2891ZM184.441 49.2891C185.398 49.2891 186.121 49.501 186.608 49.9248C187.101 50.3486 187.347 51.0094 187.347 51.9072V57H186.205L185.897 55.9268H185.843C185.629 56.2002 185.408 56.4258 185.18 56.6035C184.952 56.7812 184.688 56.9134 184.387 57C184.09 57.0911 183.728 57.1367 183.3 57.1367C182.849 57.1367 182.445 57.0547 182.09 56.8906C181.734 56.722 181.454 56.4668 181.249 56.125C181.044 55.7832 180.941 55.3503 180.941 54.8262C180.941 54.0469 181.231 53.4613 181.81 53.0693C182.393 52.6774 183.272 52.4609 184.448 52.4199L185.761 52.3721V51.9756C185.761 51.4515 185.638 51.0778 185.392 50.8545C185.15 50.6312 184.808 50.5195 184.366 50.5195C183.988 50.5195 183.621 50.5742 183.266 50.6836C182.91 50.793 182.564 50.9274 182.227 51.0869L181.707 49.9521C182.076 49.7562 182.495 49.5967 182.965 49.4736C183.439 49.3506 183.931 49.2891 184.441 49.2891ZM185.754 53.3838L184.776 53.418C183.974 53.4453 183.411 53.582 183.088 53.8281C182.764 54.0742 182.603 54.4115 182.603 54.8398C182.603 55.2135 182.714 55.487 182.938 55.6602C183.161 55.8288 183.455 55.9131 183.819 55.9131C184.375 55.9131 184.836 55.7559 185.2 55.4414C185.569 55.1224 185.754 54.6553 185.754 54.04V53.3838ZM193.479 49.2891C194.376 49.2891 195.096 49.6172 195.639 50.2734C196.186 50.9297 196.459 51.9049 196.459 53.1992C196.459 54.056 196.331 54.7783 196.076 55.3662C195.826 55.9495 195.472 56.3916 195.017 56.6924C194.565 56.9886 194.039 57.1367 193.438 57.1367C193.055 57.1367 192.722 57.0866 192.439 56.9863C192.157 56.8861 191.915 56.7562 191.715 56.5967C191.514 56.4326 191.346 56.2549 191.209 56.0635H191.113C191.136 56.2458 191.157 56.4486 191.175 56.6719C191.198 56.8906 191.209 57.0911 191.209 57.2734V60.3564H189.596V49.4326H190.908L191.134 50.4785H191.209C191.35 50.2643 191.521 50.0661 191.722 49.8838C191.927 49.7015 192.173 49.5579 192.46 49.4531C192.752 49.3438 193.091 49.2891 193.479 49.2891ZM193.048 50.6016C192.606 50.6016 192.25 50.6904 191.981 50.8682C191.717 51.0413 191.523 51.3034 191.4 51.6543C191.282 52.0052 191.218 52.445 191.209 52.9736V53.1992C191.209 53.7598 191.266 54.236 191.38 54.6279C191.498 55.0153 191.692 55.3115 191.961 55.5166C192.234 55.7171 192.604 55.8174 193.068 55.8174C193.46 55.8174 193.784 55.7103 194.039 55.4961C194.299 55.2819 194.493 54.9766 194.62 54.5801C194.748 54.1836 194.812 53.7165 194.812 53.1787C194.812 52.363 194.666 51.7295 194.374 51.2783C194.087 50.8271 193.645 50.6016 193.048 50.6016ZM199.925 46.3633V48.9268C199.925 49.223 199.916 49.5146 199.897 49.8018C199.884 50.0843 199.87 50.3053 199.856 50.4648H199.925C200.13 50.1367 200.415 49.861 200.779 49.6377C201.148 49.4098 201.62 49.2959 202.194 49.2959C203.092 49.2959 203.814 49.6263 204.361 50.2871C204.908 50.9434 205.182 51.9163 205.182 53.2061C205.182 54.0628 205.056 54.7829 204.806 55.3662C204.555 55.9495 204.202 56.3916 203.746 56.6924C203.295 56.9886 202.764 57.1367 202.153 57.1367C201.579 57.1367 201.114 57.0319 200.759 56.8223C200.408 56.6081 200.132 56.3597 199.932 56.0771H199.815L199.521 57H198.318V46.3633H199.925ZM201.771 50.6016C201.315 50.6016 200.952 50.6927 200.684 50.875C200.419 51.0573 200.228 51.3307 200.109 51.6953C199.991 52.0553 199.929 52.5133 199.925 53.0693V53.2129C199.925 54.056 200.057 54.7008 200.321 55.1475C200.59 55.5941 201.078 55.8174 201.784 55.8174C202.345 55.8174 202.775 55.5918 203.076 55.1406C203.377 54.6849 203.527 54.0332 203.527 53.1855C203.527 52.3288 203.377 51.6839 203.076 51.251C202.78 50.818 202.345 50.6016 201.771 50.6016ZM213.74 53.1992C213.74 53.8281 213.658 54.3864 213.494 54.874C213.33 55.3617 213.091 55.7741 212.776 56.1113C212.462 56.444 212.084 56.6992 211.642 56.877C211.2 57.0501 210.701 57.1367 210.145 57.1367C209.625 57.1367 209.149 57.0501 208.716 56.877C208.283 56.6992 207.907 56.444 207.588 56.1113C207.273 55.7741 207.03 55.3617 206.856 54.874C206.683 54.3864 206.597 53.8281 206.597 53.1992C206.597 52.3652 206.74 51.6589 207.027 51.0801C207.319 50.4967 207.734 50.0524 208.271 49.7471C208.809 49.4417 209.45 49.2891 210.192 49.2891C210.89 49.2891 211.505 49.4417 212.038 49.7471C212.571 50.0524 212.988 50.4967 213.289 51.0801C213.59 51.6634 213.74 52.3698 213.74 53.1992ZM208.251 53.1992C208.251 53.7507 208.317 54.2223 208.449 54.6143C208.586 55.0062 208.796 55.307 209.078 55.5166C209.361 55.7217 209.725 55.8242 210.172 55.8242C210.618 55.8242 210.983 55.7217 211.266 55.5166C211.548 55.307 211.756 55.0062 211.888 54.6143C212.02 54.2223 212.086 53.7507 212.086 53.1992C212.086 52.6478 212.02 52.1807 211.888 51.7979C211.756 51.4105 211.548 51.1165 211.266 50.916C210.983 50.7109 210.616 50.6084 210.165 50.6084C209.5 50.6084 209.014 50.8317 208.709 51.2783C208.404 51.7249 208.251 52.3652 208.251 53.1992ZM222.285 53.1992C222.285 53.8281 222.203 54.3864 222.039 54.874C221.875 55.3617 221.636 55.7741 221.321 56.1113C221.007 56.444 220.629 56.6992 220.187 56.877C219.744 57.0501 219.245 57.1367 218.689 57.1367C218.17 57.1367 217.694 57.0501 217.261 56.877C216.828 56.6992 216.452 56.444 216.133 56.1113C215.818 55.7741 215.575 55.3617 215.401 54.874C215.228 54.3864 215.142 53.8281 215.142 53.1992C215.142 52.3652 215.285 51.6589 215.572 51.0801C215.864 50.4967 216.279 50.0524 216.816 49.7471C217.354 49.4417 217.994 49.2891 218.737 49.2891C219.435 49.2891 220.05 49.4417 220.583 49.7471C221.116 50.0524 221.533 50.4967 221.834 51.0801C222.135 51.6634 222.285 52.3698 222.285 53.1992ZM216.796 53.1992C216.796 53.7507 216.862 54.2223 216.994 54.6143C217.131 55.0062 217.34 55.307 217.623 55.5166C217.906 55.7217 218.27 55.8242 218.717 55.8242C219.163 55.8242 219.528 55.7217 219.811 55.5166C220.093 55.307 220.3 55.0062 220.433 54.6143C220.565 54.2223 220.631 53.7507 220.631 53.1992C220.631 52.6478 220.565 52.1807 220.433 51.7979C220.3 51.4105 220.093 51.1165 219.811 50.916C219.528 50.7109 219.161 50.6084 218.71 50.6084C218.045 50.6084 217.559 50.8317 217.254 51.2783C216.949 51.7249 216.796 52.3652 216.796 53.1992ZM225.737 46.3633V51.5039C225.737 51.7363 225.728 51.9915 225.71 52.2695C225.692 52.543 225.674 52.8005 225.655 53.042H225.689C225.808 52.8825 225.949 52.6956 226.113 52.4814C226.282 52.2673 226.441 52.0804 226.592 51.9209L228.902 49.4326H230.748L227.72 52.6865L230.946 57H229.06L226.64 53.6777L225.737 54.4502V57H224.131V46.3633H225.737ZM241.617 57H235.957V47.0059H241.617V48.3867H237.598V51.1006H241.364V52.4746H237.598V55.6123H241.617V57ZM245.288 53.1309L242.759 49.4326H244.591L246.32 52.0918L248.057 49.4326H249.882L247.339 53.1309L250.012 57H248.173L246.32 54.1631L244.461 57H242.636L245.288 53.1309ZM254.373 57.1367C253.658 57.1367 253.038 56.9977 252.514 56.7197C251.99 56.4417 251.586 56.0156 251.304 55.4414C251.021 54.8672 250.88 54.138 250.88 53.2539C250.88 52.3333 251.035 51.5814 251.345 50.998C251.655 50.4147 252.083 49.984 252.63 49.7061C253.181 49.4281 253.812 49.2891 254.523 49.2891C254.975 49.2891 255.382 49.3346 255.747 49.4258C256.116 49.5124 256.428 49.6195 256.684 49.7471L256.205 51.0322C255.927 50.9183 255.642 50.8226 255.351 50.7451C255.059 50.6676 254.779 50.6289 254.51 50.6289C254.068 50.6289 253.699 50.7269 253.402 50.9229C253.111 51.1188 252.892 51.4105 252.746 51.7979C252.605 52.1852 252.534 52.666 252.534 53.2402C252.534 53.7962 252.607 54.2656 252.753 54.6484C252.899 55.0267 253.115 55.3138 253.402 55.5098C253.689 55.7012 254.043 55.7969 254.462 55.7969C254.877 55.7969 255.248 55.7467 255.576 55.6465C255.904 55.5462 256.214 55.4163 256.506 55.2568V56.6514C256.219 56.8154 255.911 56.9362 255.583 57.0137C255.255 57.0957 254.852 57.1367 254.373 57.1367ZM259.896 57H258.283V46.3633H259.896V57ZM268.79 49.4326V57H267.525L267.307 55.9814H267.218C267.058 56.2412 266.855 56.4577 266.609 56.6309C266.363 56.7995 266.09 56.9248 265.789 57.0068C265.488 57.0934 265.172 57.1367 264.839 57.1367C264.269 57.1367 263.782 57.041 263.376 56.8496C262.975 56.6536 262.667 56.3529 262.453 55.9473C262.239 55.5417 262.132 55.0176 262.132 54.375V49.4326H263.745V54.0742C263.745 54.6621 263.864 55.1019 264.101 55.3936C264.342 55.6852 264.716 55.8311 265.222 55.8311C265.709 55.8311 266.097 55.7308 266.384 55.5303C266.671 55.3298 266.874 55.0335 266.992 54.6416C267.115 54.2497 267.177 53.7689 267.177 53.1992V49.4326H268.79ZM276.18 54.8398C276.18 55.3366 276.059 55.7559 275.817 56.0977C275.576 56.4395 275.223 56.6992 274.758 56.877C274.298 57.0501 273.732 57.1367 273.062 57.1367C272.534 57.1367 272.078 57.098 271.695 57.0205C271.317 56.9476 270.959 56.8337 270.622 56.6787V55.291C270.982 55.4596 271.385 55.6055 271.832 55.7285C272.283 55.8516 272.709 55.9131 273.11 55.9131C273.639 55.9131 274.02 55.8311 274.252 55.667C274.484 55.4984 274.601 55.2751 274.601 54.9971C274.601 54.833 274.553 54.6872 274.457 54.5596C274.366 54.4274 274.193 54.293 273.938 54.1562C273.687 54.015 273.318 53.8464 272.83 53.6504C272.352 53.459 271.948 53.2676 271.62 53.0762C271.292 52.8848 271.044 52.6546 270.875 52.3857C270.706 52.1123 270.622 51.7637 270.622 51.3398C270.622 50.6699 270.886 50.1618 271.415 49.8154C271.948 49.4645 272.652 49.2891 273.527 49.2891C273.992 49.2891 274.43 49.3369 274.84 49.4326C275.255 49.5238 275.66 49.6582 276.057 49.8359L275.551 51.0459C275.209 50.8955 274.865 50.7725 274.519 50.6768C274.177 50.5765 273.828 50.5264 273.473 50.5264C273.058 50.5264 272.741 50.5902 272.522 50.7178C272.308 50.8454 272.201 51.0277 272.201 51.2646C272.201 51.4424 272.254 51.5928 272.358 51.7158C272.463 51.8389 272.643 51.9619 272.898 52.085C273.158 52.208 273.518 52.3607 273.979 52.543C274.43 52.7161 274.819 52.8984 275.147 53.0898C275.48 53.2767 275.735 53.5068 275.913 53.7803C276.091 54.0537 276.18 54.4069 276.18 54.8398ZM279.522 49.4326V57H277.916V49.4326H279.522ZM278.729 46.5342C278.976 46.5342 279.188 46.6003 279.365 46.7324C279.548 46.8646 279.639 47.0924 279.639 47.416C279.639 47.735 279.548 47.9629 279.365 48.0996C279.188 48.2318 278.976 48.2979 278.729 48.2979C278.474 48.2979 278.258 48.2318 278.08 48.0996C277.907 47.9629 277.82 47.735 277.82 47.416C277.82 47.0924 277.907 46.8646 278.08 46.7324C278.258 46.6003 278.474 46.5342 278.729 46.5342ZM283.556 57L280.678 49.4326H282.38L283.938 53.876C284.039 54.1585 284.13 54.4639 284.212 54.792C284.294 55.1201 284.351 55.3958 284.383 55.6191H284.438C284.469 55.3867 284.531 55.1087 284.622 54.7852C284.713 54.457 284.807 54.154 284.902 53.876L286.461 49.4326H288.156L285.278 57H283.556ZM292.319 49.2891C292.994 49.2891 293.573 49.4281 294.056 49.7061C294.539 49.984 294.91 50.3783 295.17 50.8887C295.43 51.3991 295.56 52.0098 295.56 52.7207V53.582H290.508C290.526 54.3158 290.722 54.8809 291.096 55.2773C291.474 55.6738 292.003 55.8721 292.682 55.8721C293.165 55.8721 293.598 55.8265 293.98 55.7354C294.368 55.6396 294.767 55.5007 295.177 55.3184V56.624C294.799 56.8018 294.413 56.9316 294.021 57.0137C293.63 57.0957 293.16 57.1367 292.613 57.1367C291.87 57.1367 291.216 56.9932 290.651 56.7061C290.091 56.4144 289.651 55.9814 289.332 55.4072C289.018 54.833 288.86 54.1198 288.86 53.2676C288.86 52.4199 289.004 51.6999 289.291 51.1074C289.578 50.515 289.981 50.0638 290.501 49.7539C291.021 49.444 291.627 49.2891 292.319 49.2891ZM292.319 50.499C291.813 50.499 291.403 50.6631 291.089 50.9912C290.779 51.3193 290.597 51.8001 290.542 52.4336H293.987C293.983 52.0553 293.919 51.7204 293.796 51.4287C293.677 51.137 293.495 50.9092 293.249 50.7451C293.007 50.5811 292.698 50.499 292.319 50.499ZM302.457 54.8398C302.457 55.3366 302.336 55.7559 302.095 56.0977C301.853 56.4395 301.5 56.6992 301.035 56.877C300.575 57.0501 300.01 57.1367 299.34 57.1367C298.811 57.1367 298.355 57.098 297.973 57.0205C297.594 56.9476 297.237 56.8337 296.899 56.6787V55.291C297.259 55.4596 297.663 55.6055 298.109 55.7285C298.561 55.8516 298.987 55.9131 299.388 55.9131C299.916 55.9131 300.297 55.8311 300.529 55.667C300.762 55.4984 300.878 55.2751 300.878 54.9971C300.878 54.833 300.83 54.6872 300.734 54.5596C300.643 54.4274 300.47 54.293 300.215 54.1562C299.964 54.015 299.595 53.8464 299.107 53.6504C298.629 53.459 298.226 53.2676 297.897 53.0762C297.569 52.8848 297.321 52.6546 297.152 52.3857C296.984 52.1123 296.899 51.7637 296.899 51.3398C296.899 50.6699 297.164 50.1618 297.692 49.8154C298.226 49.4645 298.93 49.2891 299.805 49.2891C300.27 49.2891 300.707 49.3369 301.117 49.4326C301.532 49.5238 301.938 49.6582 302.334 49.8359L301.828 51.0459C301.486 50.8955 301.142 50.7725 300.796 50.6768C300.454 50.5765 300.105 50.5264 299.75 50.5264C299.335 50.5264 299.019 50.5902 298.8 50.7178C298.586 50.8454 298.479 51.0277 298.479 51.2646C298.479 51.4424 298.531 51.5928 298.636 51.7158C298.741 51.8389 298.921 51.9619 299.176 52.085C299.436 52.208 299.796 52.3607 300.256 52.543C300.707 52.7161 301.097 52.8984 301.425 53.0898C301.757 53.2767 302.013 53.5068 302.19 53.7803C302.368 54.0537 302.457 54.4069 302.457 54.8398ZM305.581 53.9512H304.371L304.043 47.0059H305.909L305.581 53.9512ZM303.961 56.1523C303.961 55.7786 304.057 55.5166 304.248 55.3662C304.444 55.2113 304.683 55.1338 304.966 55.1338C305.244 55.1338 305.481 55.2113 305.677 55.3662C305.873 55.5166 305.971 55.7786 305.971 56.1523C305.971 56.5169 305.873 56.7812 305.677 56.9453C305.481 57.1048 305.244 57.1846 304.966 57.1846C304.683 57.1846 304.444 57.1048 304.248 56.9453C304.057 56.7812 303.961 56.5169 303.961 56.1523Z" fill="#444444"/>
</svg>
