<svg width="26" height="24" viewBox="0 0 26 24" fill="none" xmlns="http://www.w3.org/2000/svg">
<path d="M2.9375 5.53125C2.5332 5.53125 2.21875 5.89062 2.21875 6.25V17.75C2.21875 18.1543 2.5332 18.4688 2.9375 18.4688H14.4375C14.7969 18.4688 15.1562 18.1543 15.1562 17.75V6.25C15.1562 5.89062 14.7969 5.53125 14.4375 5.53125H2.9375ZM0.0625 6.25C0.0625 4.67773 1.32031 3.375 2.9375 3.375H14.4375C16.0098 3.375 17.3125 4.67773 17.3125 6.25V7.73242V16.2676V17.75C17.3125 19.3672 16.0098 20.625 14.4375 20.625H2.9375C1.32031 20.625 0.0625 19.3672 0.0625 17.75V6.25ZM23.7812 16.8516V7.19336L18.75 9.43945V7.10352L23.4219 4.99219C23.6465 4.90234 23.8711 4.8125 24.1406 4.8125C25.1289 4.8125 25.9375 5.62109 25.9375 6.60938V17.4355C25.9375 18.4238 25.1289 19.1875 24.1406 19.1875C23.8711 19.1875 23.6465 19.1426 23.4219 19.0527L18.75 16.9414V14.5605L23.7812 16.8516Z" fill="#D6BFAF"/>
</svg>
