<svg width="26" height="23" viewBox="0 0 26 23" fill="none" xmlns="http://www.w3.org/2000/svg">
<path d="M1.77521 0H3.7088C4.65411 0 5.51349 0.558594 5.90021 1.375H23.5604C24.6776 1.375 25.494 2.44922 25.1932 3.56641L23.4315 10.0977C23.0877 11.4727 21.8416 12.375 20.4666 12.375H8.04865L8.30646 13.6211C8.3924 14.0938 8.82208 14.4375 9.29474 14.4375H21.7127C22.2713 14.4375 22.744 14.9102 22.744 15.4688C22.744 16.0703 22.2713 16.5 21.7127 16.5H9.29474C7.8338 16.5 6.54474 15.4688 6.28693 14.0078L4.05255 2.36328C4.00958 2.19141 3.88068 2.0625 3.7088 2.0625H1.77521C1.17365 2.0625 0.743958 1.63281 0.743958 1.03125C0.743958 0.472656 1.17365 0 1.77521 0ZM6.37286 3.4375L7.66193 10.3125H20.4666C20.9393 10.3125 21.326 10.0117 21.4549 9.58203L23.0877 3.4375H6.37286ZM8.30646 22C7.53302 22 6.88849 21.6133 6.50177 20.9688C6.11505 20.3672 6.11505 19.5508 6.50177 18.9062C6.88849 18.3047 7.53302 17.875 8.30646 17.875C9.03693 17.875 9.68146 18.3047 10.0682 18.9062C10.4549 19.5508 10.4549 20.3672 10.0682 20.9688C9.68146 21.6133 9.03693 22 8.30646 22ZM22.744 19.9375C22.744 20.7109 22.3143 21.3555 21.7127 21.7422C21.0682 22.1289 20.2518 22.1289 19.6502 21.7422C19.0057 21.3555 18.619 20.7109 18.619 19.9375C18.619 19.207 19.0057 18.5625 19.6502 18.1758C20.2518 17.7891 21.0682 17.7891 21.7127 18.1758C22.3143 18.5625 22.744 19.207 22.744 19.9375Z" fill="#D6BFAF"/>
</svg>
