<svg width="408" height="100" viewBox="0 0 408 100" fill="none" xmlns="http://www.w3.org/2000/svg">
<rect x="0.5" y="0.5" width="407" height="99" fill="white"/>
<rect x="0.5" y="0.5" width="407" height="99" stroke="#DBDBDB"/>
<rect width="161" height="17" transform="translate(13 13)" fill="white"/>
<path d="M18.5645 22.8623C18.5645 23.3278 18.4499 23.7288 18.2207 24.0654C17.9951 24.402 17.6693 24.6598 17.2432 24.8389C16.8206 25.0179 16.3158 25.1074 15.7285 25.1074C15.4421 25.1074 15.1681 25.0913 14.9067 25.0591C14.6453 25.0269 14.3983 24.9803 14.1655 24.9194C13.9364 24.855 13.7269 24.778 13.5371 24.6885V23.4746C13.8558 23.6143 14.2121 23.7414 14.606 23.856C14.9998 23.967 15.4009 24.0225 15.8091 24.0225C16.1421 24.0225 16.4178 23.9795 16.6362 23.8936C16.8582 23.804 17.0229 23.6787 17.1304 23.5176C17.2378 23.3529 17.2915 23.1613 17.2915 22.9429C17.2915 22.7101 17.2288 22.5132 17.1035 22.3521C16.9782 22.1909 16.7884 22.0441 16.5342 21.9116C16.2835 21.7756 15.9684 21.6305 15.5889 21.4766C15.3311 21.3727 15.084 21.2546 14.8477 21.1221C14.6149 20.9896 14.4072 20.8338 14.2246 20.6548C14.042 20.4757 13.897 20.2645 13.7896 20.021C13.6857 19.7739 13.6338 19.4839 13.6338 19.1509C13.6338 18.7069 13.7394 18.3273 13.9507 18.0122C14.1655 17.6971 14.4663 17.4554 14.853 17.2871C15.2433 17.1188 15.6981 17.0347 16.2173 17.0347C16.6291 17.0347 17.0158 17.0776 17.3774 17.1636C17.7427 17.2495 18.1007 17.3713 18.4517 17.5288L18.0435 18.5654C17.7212 18.4329 17.4079 18.3273 17.1035 18.2485C16.8027 18.1698 16.4948 18.1304 16.1797 18.1304C15.9076 18.1304 15.6766 18.1715 15.4868 18.2539C15.297 18.3363 15.152 18.4526 15.0518 18.603C14.9551 18.7498 14.9067 18.9253 14.9067 19.1294C14.9067 19.3586 14.9622 19.5519 15.0732 19.7095C15.1878 19.8634 15.3633 20.0049 15.5996 20.1338C15.8395 20.2627 16.1475 20.4059 16.5234 20.5635C16.9567 20.7425 17.3237 20.9305 17.6245 21.1274C17.9289 21.3244 18.1616 21.5607 18.3228 21.8364C18.4839 22.1086 18.5645 22.4505 18.5645 22.8623ZM22.2812 18.9414C23.0332 18.9414 23.6007 19.1079 23.9839 19.4409C24.3706 19.7739 24.564 20.2931 24.564 20.9985V25H23.667L23.4253 24.1567H23.3823C23.214 24.3716 23.0404 24.5488 22.8613 24.6885C22.6823 24.8281 22.4746 24.932 22.2383 25C22.0055 25.0716 21.7209 25.1074 21.3843 25.1074C21.0298 25.1074 20.7129 25.043 20.4336 24.9141C20.1543 24.7816 19.9341 24.5811 19.7729 24.3125C19.6118 24.0439 19.5312 23.7038 19.5312 23.292C19.5312 22.6797 19.7586 22.2196 20.2134 21.9116C20.6717 21.6037 21.3628 21.4336 22.2866 21.4014L23.3179 21.3638V21.0522C23.3179 20.6405 23.2212 20.3468 23.0278 20.1714C22.8381 19.9959 22.5695 19.9082 22.2222 19.9082C21.925 19.9082 21.6367 19.9512 21.3574 20.0371C21.0781 20.123 20.806 20.2287 20.541 20.354L20.1328 19.4624C20.4229 19.3084 20.7523 19.1831 21.1211 19.0864C21.4935 18.9897 21.8802 18.9414 22.2812 18.9414ZM23.3125 22.1587L22.5444 22.1855C21.9142 22.207 21.472 22.3145 21.2178 22.5078C20.9635 22.7012 20.8364 22.9661 20.8364 23.3027C20.8364 23.5964 20.9242 23.8112 21.0996 23.9473C21.2751 24.0798 21.506 24.146 21.7925 24.146C22.2293 24.146 22.591 24.0225 22.8774 23.7754C23.1675 23.5247 23.3125 23.1577 23.3125 22.6743V22.1587ZM27.6899 25L25.4287 19.0542H26.7661L27.9907 22.5454C28.0695 22.7674 28.1411 23.0073 28.2056 23.2651C28.27 23.5229 28.3148 23.7396 28.3398 23.915H28.3828C28.4079 23.7324 28.4562 23.514 28.5278 23.2598C28.5994 23.002 28.6729 22.7638 28.748 22.5454L29.9727 19.0542H31.3047L29.0435 25H27.6899ZM34.5757 18.9414C35.1056 18.9414 35.5604 19.0506 35.9399 19.269C36.3195 19.4875 36.6113 19.7972 36.8154 20.1982C37.0195 20.5993 37.1216 21.0791 37.1216 21.6377V22.3145H33.1523C33.1667 22.891 33.3206 23.335 33.6143 23.6465C33.9115 23.958 34.3268 24.1138 34.8604 24.1138C35.2399 24.1138 35.5801 24.078 35.8809 24.0063C36.1852 23.9312 36.4985 23.8219 36.8208 23.6787V24.7046C36.5236 24.8442 36.221 24.9463 35.9131 25.0107C35.6051 25.0752 35.2363 25.1074 34.8066 25.1074C34.223 25.1074 33.7091 24.9946 33.2651 24.769C32.8247 24.5399 32.4792 24.1997 32.2285 23.7485C31.9814 23.2974 31.8579 22.737 31.8579 22.0674C31.8579 21.4014 31.9707 20.8356 32.1963 20.3701C32.4219 19.9046 32.7388 19.5501 33.147 19.3066C33.5552 19.0632 34.0314 18.9414 34.5757 18.9414ZM34.5757 19.8921C34.1782 19.8921 33.856 20.021 33.6089 20.2788C33.3654 20.5366 33.2222 20.9144 33.1792 21.4121H35.8862C35.8826 21.1149 35.8325 20.8517 35.7358 20.6226C35.6427 20.3934 35.4995 20.2144 35.3062 20.0854C35.1164 19.9565 34.8729 19.8921 34.5757 19.8921ZM42.8096 25H41.5312V17.1475H45.9678V18.2324H42.8096V20.6816H45.7637V21.7612H42.8096V25ZM52.5312 22.0137C52.5312 22.5078 52.4668 22.9465 52.3379 23.3296C52.209 23.7127 52.021 24.0368 51.7739 24.3018C51.5269 24.5632 51.2297 24.7637 50.8823 24.9033C50.535 25.0394 50.1429 25.1074 49.7061 25.1074C49.2979 25.1074 48.9237 25.0394 48.5835 24.9033C48.2433 24.7637 47.9479 24.5632 47.6973 24.3018C47.4502 24.0368 47.2586 23.7127 47.1226 23.3296C46.9865 22.9465 46.9185 22.5078 46.9185 22.0137C46.9185 21.3584 47.0312 20.8034 47.2568 20.3486C47.486 19.8903 47.8118 19.5412 48.2344 19.3013C48.6569 19.0614 49.16 18.9414 49.7437 18.9414C50.2915 18.9414 50.7749 19.0614 51.1938 19.3013C51.6128 19.5412 51.9404 19.8903 52.1768 20.3486C52.4131 20.807 52.5312 21.362 52.5312 22.0137ZM48.2183 22.0137C48.2183 22.4469 48.2702 22.8175 48.374 23.1255C48.4814 23.4334 48.6462 23.6698 48.8682 23.8345C49.0902 23.9956 49.3766 24.0762 49.7275 24.0762C50.0785 24.0762 50.3649 23.9956 50.5869 23.8345C50.8089 23.6698 50.9718 23.4334 51.0757 23.1255C51.1795 22.8175 51.2314 22.4469 51.2314 22.0137C51.2314 21.5804 51.1795 21.2134 51.0757 20.9126C50.9718 20.6082 50.8089 20.3773 50.5869 20.2197C50.3649 20.0586 50.0767 19.978 49.7222 19.978C49.1994 19.978 48.818 20.1535 48.5781 20.5044C48.3382 20.8553 48.2183 21.3584 48.2183 22.0137ZM56.9946 18.9414C57.0949 18.9414 57.2041 18.9468 57.3223 18.9575C57.4404 18.9683 57.5425 18.9826 57.6284 19.0005L57.5103 20.1821C57.4351 20.1606 57.342 20.1445 57.231 20.1338C57.1235 20.123 57.0269 20.1177 56.9409 20.1177C56.7153 20.1177 56.5005 20.1553 56.2964 20.2305C56.0923 20.3021 55.9115 20.4131 55.7539 20.5635C55.5964 20.7103 55.4728 20.8947 55.3833 21.1167C55.2938 21.3387 55.249 21.5965 55.249 21.8901V25H53.9814V19.0542H54.9697L55.1416 20.1016H55.2007C55.3188 19.8903 55.4657 19.6969 55.6411 19.5215C55.8166 19.346 56.0171 19.2064 56.2427 19.1025C56.4718 18.9951 56.7225 18.9414 56.9946 18.9414ZM61.7158 25V17.1475H63.0049V23.9043H66.3403V25H61.7158ZM69.9014 18.9414C70.6533 18.9414 71.2209 19.1079 71.604 19.4409C71.9907 19.7739 72.1841 20.2931 72.1841 20.9985V25H71.2871L71.0454 24.1567H71.0024C70.8341 24.3716 70.6605 24.5488 70.4814 24.6885C70.3024 24.8281 70.0947 24.932 69.8584 25C69.6257 25.0716 69.341 25.1074 69.0044 25.1074C68.6499 25.1074 68.333 25.043 68.0537 24.9141C67.7744 24.7816 67.5542 24.5811 67.3931 24.3125C67.2319 24.0439 67.1514 23.7038 67.1514 23.292C67.1514 22.6797 67.3787 22.2196 67.8335 21.9116C68.2918 21.6037 68.9829 21.4336 69.9067 21.4014L70.938 21.3638V21.0522C70.938 20.6405 70.8413 20.3468 70.6479 20.1714C70.4582 19.9959 70.1896 19.9082 69.8423 19.9082C69.5451 19.9082 69.2568 19.9512 68.9775 20.0371C68.6982 20.123 68.4261 20.2287 68.1611 20.354L67.7529 19.4624C68.043 19.3084 68.3724 19.1831 68.7412 19.0864C69.1136 18.9897 69.5003 18.9414 69.9014 18.9414ZM70.9326 22.1587L70.1646 22.1855C69.5343 22.207 69.0921 22.3145 68.8379 22.5078C68.5837 22.7012 68.4565 22.9661 68.4565 23.3027C68.4565 23.5964 68.5443 23.8112 68.7197 23.9473C68.8952 24.0798 69.1261 24.146 69.4126 24.146C69.8494 24.146 70.2111 24.0225 70.4976 23.7754C70.7876 23.5247 70.9326 23.1577 70.9326 22.6743V22.1587ZM76.1641 24.0869C76.3288 24.0869 76.4917 24.0726 76.6528 24.0439C76.814 24.0117 76.9608 23.9741 77.0933 23.9312V24.8872C76.9536 24.9481 76.7728 25 76.5508 25.043C76.3288 25.0859 76.0978 25.1074 75.8579 25.1074C75.5213 25.1074 75.2188 25.0519 74.9502 24.9409C74.6816 24.8263 74.4686 24.6312 74.311 24.3555C74.1535 24.0798 74.0747 23.6984 74.0747 23.2114V20.0156H73.2637V19.4517L74.1338 19.0059L74.5474 17.7329H75.3423V19.0542H77.0449V20.0156H75.3423V23.1953C75.3423 23.4961 75.4175 23.7199 75.5679 23.8667C75.7183 24.0135 75.917 24.0869 76.1641 24.0869ZM80.6704 18.9414C81.2004 18.9414 81.6551 19.0506 82.0347 19.269C82.4142 19.4875 82.7061 19.7972 82.9102 20.1982C83.1143 20.5993 83.2163 21.0791 83.2163 21.6377V22.3145H79.2471C79.2614 22.891 79.4154 23.335 79.709 23.6465C80.0062 23.958 80.4215 24.1138 80.9551 24.1138C81.3346 24.1138 81.6748 24.078 81.9756 24.0063C82.2799 23.9312 82.5933 23.8219 82.9155 23.6787V24.7046C82.6183 24.8442 82.3158 24.9463 82.0078 25.0107C81.6999 25.0752 81.3311 25.1074 80.9014 25.1074C80.3177 25.1074 79.8039 24.9946 79.3599 24.769C78.9194 24.5399 78.5739 24.1997 78.3232 23.7485C78.0762 23.2974 77.9526 22.737 77.9526 22.0674C77.9526 21.4014 78.0654 20.8356 78.291 20.3701C78.5166 19.9046 78.8335 19.5501 79.2417 19.3066C79.6499 19.0632 80.1261 18.9414 80.6704 18.9414ZM80.6704 19.8921C80.2729 19.8921 79.9507 20.021 79.7036 20.2788C79.4601 20.5366 79.3169 20.9144 79.2739 21.4121H81.981C81.9774 21.1149 81.9272 20.8517 81.8306 20.6226C81.7375 20.3934 81.5942 20.2144 81.4009 20.0854C81.2111 19.9565 80.9676 19.8921 80.6704 19.8921ZM87.6528 18.9414C87.7531 18.9414 87.8623 18.9468 87.9805 18.9575C88.0986 18.9683 88.2007 18.9826 88.2866 19.0005L88.1685 20.1821C88.0933 20.1606 88.0002 20.1445 87.8892 20.1338C87.7817 20.123 87.6851 20.1177 87.5991 20.1177C87.3735 20.1177 87.1587 20.1553 86.9546 20.2305C86.7505 20.3021 86.5697 20.4131 86.4121 20.5635C86.2546 20.7103 86.131 20.8947 86.0415 21.1167C85.952 21.3387 85.9072 21.5965 85.9072 21.8901V25H84.6396V19.0542H85.6279L85.7998 20.1016H85.8589C85.9771 19.8903 86.1239 19.6969 86.2993 19.5215C86.4748 19.346 86.6753 19.2064 86.9009 19.1025C87.13 18.9951 87.3807 18.9414 87.6528 18.9414Z" fill="#5D9BAE"/>
<path d="M13 25.6714H88.4854V25.9399H13V25.6714Z" fill="#5D9BAE"/>
<path d="M98.5 15.375C101.529 15.375 104 17.8457 104 20.875C104 23.9258 101.529 26.375 98.5 26.375C95.4492 26.375 93 23.9258 93 20.875C93 17.8457 95.4492 15.375 98.5 15.375ZM98.5 23.9688C98.8652 23.9688 99.1875 23.668 99.1875 23.2812C99.1875 22.8945 98.8652 22.5938 98.5 22.5938C98.0918 22.5938 97.8125 22.8945 97.8125 23.2812C97.8125 23.668 98.1133 23.9688 98.5 23.9688ZM99.9824 20.918C100.455 20.6387 100.734 20.1445 100.734 19.6289C100.734 18.791 100.068 18.125 99.1875 18.125H98.0918C97.2754 18.125 96.6094 18.791 96.6094 19.6289C96.6094 19.9082 96.8457 20.1445 97.125 20.1445C97.4043 20.1445 97.6406 19.9082 97.6406 19.6289C97.6406 19.3711 97.834 19.1562 98.1133 19.1562H99.209C99.4668 19.1562 99.7031 19.3711 99.7031 19.6289C99.7031 19.8008 99.6172 19.9512 99.4668 20.0371L98.2422 20.7676C98.0703 20.875 97.9844 21.0469 97.9844 21.2188V21.5625C97.9844 21.8418 98.2207 22.0781 98.5 22.0781C98.7793 22.0781 99.0156 21.8418 99.0156 21.5625V21.5195L99.9824 20.918Z" fill="#D8D8D8"/>
<path d="M116.666 16.918H117.949V28.7246H116.666V16.918Z" fill="#AEAEB2"/>
<path d="M114 26.7324H120.609V27.0254H114V26.7324Z" fill="#AEAEB2"/>
<path d="M134.239 17.1475C134.916 17.1475 135.474 17.2298 135.915 17.3945C136.359 17.5592 136.688 17.8099 136.903 18.1465C137.121 18.4831 137.23 18.911 137.23 19.4302C137.23 19.8169 137.159 20.1463 137.016 20.4185C136.872 20.6906 136.684 20.9162 136.452 21.0952C136.219 21.2743 135.97 21.4175 135.705 21.5249L137.934 25H136.479L134.583 21.8525H133.32V25H132.031V17.1475H134.239ZM134.153 18.2217H133.32V20.7891H134.212C134.81 20.7891 135.243 20.6781 135.512 20.4561C135.784 20.234 135.92 19.9064 135.92 19.4731C135.92 19.0184 135.775 18.6961 135.485 18.5063C135.198 18.3166 134.754 18.2217 134.153 18.2217ZM141.296 18.9414C141.826 18.9414 142.281 19.0506 142.661 19.269C143.04 19.4875 143.332 19.7972 143.536 20.1982C143.74 20.5993 143.842 21.0791 143.842 21.6377V22.3145H139.873C139.887 22.891 140.041 23.335 140.335 23.6465C140.632 23.958 141.048 24.1138 141.581 24.1138C141.961 24.1138 142.301 24.078 142.602 24.0063C142.906 23.9312 143.219 23.8219 143.542 23.6787V24.7046C143.244 24.8442 142.942 24.9463 142.634 25.0107C142.326 25.0752 141.957 25.1074 141.527 25.1074C140.944 25.1074 140.43 24.9946 139.986 24.769C139.545 24.5399 139.2 24.1997 138.949 23.7485C138.702 23.2974 138.579 22.737 138.579 22.0674C138.579 21.4014 138.691 20.8356 138.917 20.3701C139.143 19.9046 139.459 19.5501 139.868 19.3066C140.276 19.0632 140.752 18.9414 141.296 18.9414ZM141.296 19.8921C140.899 19.8921 140.577 20.021 140.33 20.2788C140.086 20.5366 139.943 20.9144 139.9 21.4121H142.607C142.603 21.1149 142.553 20.8517 142.457 20.6226C142.363 20.3934 142.22 20.2144 142.027 20.0854C141.837 19.9565 141.594 19.8921 141.296 19.8921ZM151.985 18.9414C152.651 18.9414 153.152 19.1133 153.489 19.457C153.829 19.8008 153.999 20.3522 153.999 21.1113V25H152.737V21.3369C152.737 20.8857 152.649 20.5456 152.474 20.3164C152.298 20.0872 152.031 19.9727 151.673 19.9727C151.172 19.9727 150.81 20.1338 150.588 20.4561C150.37 20.7747 150.261 21.2384 150.261 21.8472V25H148.999V21.3369C148.999 21.0361 148.959 20.7855 148.88 20.585C148.805 20.3809 148.689 20.2287 148.531 20.1284C148.374 20.0246 148.175 19.9727 147.935 19.9727C147.588 19.9727 147.31 20.0514 147.103 20.209C146.898 20.3665 146.752 20.5993 146.662 20.9072C146.573 21.2116 146.528 21.5858 146.528 22.0298V25H145.266V19.0542H146.249L146.426 19.8545H146.496C146.617 19.6468 146.768 19.4767 146.947 19.3442C147.129 19.2082 147.332 19.1079 147.554 19.0435C147.776 18.9754 148.007 18.9414 148.247 18.9414C148.691 18.9414 149.065 19.0202 149.369 19.1777C149.674 19.3317 149.901 19.568 150.051 19.8867H150.148C150.334 19.5645 150.594 19.3263 150.927 19.1724C151.26 19.0184 151.612 18.9414 151.985 18.9414ZM161.024 22.0137C161.024 22.5078 160.96 22.9465 160.831 23.3296C160.702 23.7127 160.514 24.0368 160.267 24.3018C160.02 24.5632 159.723 24.7637 159.375 24.9033C159.028 25.0394 158.636 25.1074 158.199 25.1074C157.791 25.1074 157.417 25.0394 157.077 24.9033C156.736 24.7637 156.441 24.5632 156.19 24.3018C155.943 24.0368 155.752 23.7127 155.616 23.3296C155.48 22.9465 155.412 22.5078 155.412 22.0137C155.412 21.3584 155.524 20.8034 155.75 20.3486C155.979 19.8903 156.305 19.5412 156.728 19.3013C157.15 19.0614 157.653 18.9414 158.237 18.9414C158.785 18.9414 159.268 19.0614 159.687 19.3013C160.106 19.5412 160.434 19.8903 160.67 20.3486C160.906 20.807 161.024 21.362 161.024 22.0137ZM156.711 22.0137C156.711 22.4469 156.763 22.8175 156.867 23.1255C156.975 23.4334 157.139 23.6698 157.361 23.8345C157.583 23.9956 157.87 24.0762 158.221 24.0762C158.572 24.0762 158.858 23.9956 159.08 23.8345C159.302 23.6698 159.465 23.4334 159.569 23.1255C159.673 22.8175 159.725 22.4469 159.725 22.0137C159.725 21.5804 159.673 21.2134 159.569 20.9126C159.465 20.6082 159.302 20.3773 159.08 20.2197C158.858 20.0586 158.57 19.978 158.215 19.978C157.693 19.978 157.311 20.1535 157.071 20.5044C156.831 20.8553 156.711 21.3584 156.711 22.0137ZM163.833 25L161.572 19.0542H162.91L164.134 22.5454C164.213 22.7674 164.285 23.0073 164.349 23.2651C164.414 23.5229 164.458 23.7396 164.483 23.915H164.526C164.551 23.7324 164.6 23.514 164.671 23.2598C164.743 23.002 164.816 22.7638 164.892 22.5454L166.116 19.0542H167.448L165.187 25H163.833ZM170.719 18.9414C171.249 18.9414 171.704 19.0506 172.083 19.269C172.463 19.4875 172.755 19.7972 172.959 20.1982C173.163 20.5993 173.265 21.0791 173.265 21.6377V22.3145H169.296C169.31 22.891 169.464 23.335 169.758 23.6465C170.055 23.958 170.47 24.1138 171.004 24.1138C171.383 24.1138 171.724 24.078 172.024 24.0063C172.329 23.9312 172.642 23.8219 172.964 23.6787V24.7046C172.667 24.8442 172.365 24.9463 172.057 25.0107C171.749 25.0752 171.38 25.1074 170.95 25.1074C170.367 25.1074 169.853 24.9946 169.409 24.769C168.968 24.5399 168.623 24.1997 168.372 23.7485C168.125 23.2974 168.001 22.737 168.001 22.0674C168.001 21.4014 168.114 20.8356 168.34 20.3701C168.565 19.9046 168.882 19.5501 169.291 19.3066C169.699 19.0632 170.175 18.9414 170.719 18.9414ZM170.719 19.8921C170.322 19.8921 170 20.021 169.752 20.2788C169.509 20.5366 169.366 20.9144 169.323 21.4121H172.03C172.026 21.1149 171.976 20.8517 171.879 20.6226C171.786 20.3934 171.643 20.2144 171.45 20.0854C171.26 19.9565 171.016 19.8921 170.719 19.8921Z" fill="#5D9BAE"/>
<path d="M131 25.6714H173.786V25.9399H131V25.6714Z" fill="#5D9BAE"/>
<rect width="172" height="22" transform="translate(13 39)" fill="#E04B4B"/>
<path d="M28.168 50.4209C28.168 50.971 28.098 51.4723 27.958 51.9248C27.818 52.374 27.6097 52.7614 27.333 53.0869C27.0596 53.4092 26.7194 53.6582 26.3125 53.834C25.9056 54.0098 25.4336 54.0977 24.8965 54.0977C24.3431 54.0977 23.8597 54.0098 23.4463 53.834C23.0361 53.6582 22.6943 53.4076 22.4209 53.082C22.1507 52.7565 21.9473 52.3675 21.8105 51.915C21.6771 51.4626 21.6104 50.9613 21.6104 50.4111C21.6104 49.682 21.7308 49.0423 21.9717 48.4922C22.2126 47.9421 22.5771 47.514 23.0654 47.208C23.557 46.902 24.1722 46.749 24.9111 46.749C25.6175 46.749 26.2116 46.9004 26.6934 47.2031C27.1784 47.5059 27.5446 47.9323 27.792 48.4824C28.0426 49.0293 28.168 49.6755 28.168 50.4209ZM22.4844 50.4209C22.4844 51.0264 22.5706 51.5505 22.7432 51.9932C22.9157 52.4359 23.1794 52.7777 23.5342 53.0186C23.8923 53.2594 24.3464 53.3799 24.8965 53.3799C25.4499 53.3799 25.9023 53.2594 26.2539 53.0186C26.6087 52.7777 26.8708 52.4359 27.04 51.9932C27.2093 51.5505 27.2939 51.0264 27.2939 50.4209C27.2939 49.4997 27.1003 48.7803 26.7129 48.2627C26.3288 47.7419 25.7282 47.4814 24.9111 47.4814C24.3577 47.4814 23.902 47.6003 23.5439 47.8379C23.1859 48.0755 22.9189 48.4141 22.7432 48.8535C22.5706 49.2897 22.4844 49.8122 22.4844 50.4209ZM32.1719 48.5508C32.8066 48.5508 33.2868 48.707 33.6123 49.0195C33.9378 49.3288 34.1006 49.8268 34.1006 50.5137V54H33.2998V50.5674C33.2998 50.1214 33.1973 49.7878 32.9922 49.5664C32.7904 49.3451 32.4795 49.2344 32.0596 49.2344C31.4671 49.2344 31.0505 49.402 30.8096 49.7373C30.5687 50.0726 30.4482 50.5592 30.4482 51.1973V54H29.6377V48.6484H30.292L30.4141 49.4199H30.458C30.5719 49.2311 30.7168 49.0732 30.8926 48.9463C31.0684 48.8161 31.2653 48.7184 31.4834 48.6533C31.7015 48.585 31.931 48.5508 32.1719 48.5508ZM36.5859 54H35.7705V46.4023H36.5859V54ZM37.4551 48.6484H38.3242L39.5059 51.7539C39.5742 51.9362 39.6377 52.112 39.6963 52.2812C39.7549 52.4473 39.807 52.6068 39.8525 52.7598C39.8981 52.9128 39.9339 53.0609 39.96 53.2041H39.9941C40.0397 53.0413 40.1048 52.8281 40.1895 52.5645C40.2741 52.2975 40.3652 52.0257 40.4629 51.749L41.5811 48.6484H42.4551L40.126 54.7861C40.0023 55.1149 39.8574 55.4014 39.6914 55.6455C39.5286 55.8896 39.3301 56.0768 39.0957 56.207C38.8613 56.3405 38.5781 56.4072 38.2461 56.4072C38.0931 56.4072 37.958 56.3975 37.8408 56.3779C37.7236 56.3617 37.6227 56.3421 37.5381 56.3193V55.6699C37.6097 55.6862 37.696 55.7008 37.7969 55.7139C37.901 55.7269 38.0085 55.7334 38.1191 55.7334C38.321 55.7334 38.4951 55.6943 38.6416 55.6162C38.7913 55.5413 38.9199 55.4307 39.0273 55.2842C39.1348 55.1377 39.2275 54.9635 39.3057 54.7617L39.5986 54.0098L37.4551 48.6484ZM50.2236 54H45.5459V53.3213L47.4551 51.3828C47.8099 51.0247 48.1077 50.7057 48.3486 50.4258C48.5928 50.1458 48.7783 49.8708 48.9053 49.6006C49.0322 49.3271 49.0957 49.0277 49.0957 48.7021C49.0957 48.2985 48.9753 47.9909 48.7344 47.7793C48.4967 47.5645 48.1826 47.457 47.792 47.457C47.4502 47.457 47.1475 47.5156 46.8838 47.6328C46.6201 47.75 46.3499 47.916 46.0732 48.1309L45.6387 47.584C45.8275 47.4245 46.0326 47.2829 46.2539 47.1592C46.4785 47.0355 46.7178 46.9378 46.9717 46.8662C47.2288 46.7946 47.5023 46.7588 47.792 46.7588C48.2314 46.7588 48.6107 46.8353 48.9297 46.9883C49.2487 47.1413 49.4945 47.3594 49.667 47.6426C49.8428 47.9258 49.9307 48.2627 49.9307 48.6533C49.9307 49.0309 49.8558 49.3825 49.7061 49.708C49.5563 50.0303 49.3464 50.3509 49.0762 50.6699C48.806 50.9857 48.4902 51.321 48.1289 51.6758L46.5762 53.2236V53.2578H50.2236V54ZM54.3496 54V46.8613H55.1797V54H54.3496ZM59.5547 48.5508C60.1895 48.5508 60.6696 48.707 60.9951 49.0195C61.3206 49.3288 61.4834 49.8268 61.4834 50.5137V54H60.6826V50.5674C60.6826 50.1214 60.5801 49.7878 60.375 49.5664C60.1732 49.3451 59.8623 49.2344 59.4424 49.2344C58.8499 49.2344 58.4333 49.402 58.1924 49.7373C57.9515 50.0726 57.8311 50.5592 57.8311 51.1973V54H57.0205V48.6484H57.6748L57.7969 49.4199H57.8408C57.9548 49.2311 58.0996 49.0732 58.2754 48.9463C58.4512 48.8161 58.6481 48.7184 58.8662 48.6533C59.0843 48.585 59.3138 48.5508 59.5547 48.5508ZM69.9014 52.1006C69.9014 52.5238 69.7956 52.8851 69.584 53.1846C69.3757 53.4808 69.0827 53.707 68.7051 53.8633C68.3275 54.0195 67.8831 54.0977 67.3721 54.0977C67.1019 54.0977 66.8464 54.0846 66.6055 54.0586C66.3646 54.0326 66.1432 53.9951 65.9414 53.9463C65.7396 53.8975 65.5622 53.8372 65.4092 53.7656V52.9697C65.6533 53.0706 65.9512 53.165 66.3027 53.2529C66.6543 53.3376 67.0221 53.3799 67.4062 53.3799C67.7643 53.3799 68.0671 53.3327 68.3145 53.2383C68.5618 53.1406 68.749 53.0023 68.876 52.8232C69.0062 52.641 69.0713 52.4229 69.0713 52.1689C69.0713 51.9248 69.0176 51.7214 68.9102 51.5586C68.8027 51.3926 68.6237 51.2428 68.373 51.1094C68.1257 50.9727 67.7871 50.8278 67.3574 50.6748C67.0547 50.5674 66.7878 50.4502 66.5566 50.3232C66.3255 50.193 66.1318 50.0465 65.9756 49.8838C65.8193 49.721 65.7005 49.5322 65.6191 49.3174C65.541 49.1025 65.502 48.8568 65.502 48.5801C65.502 48.1992 65.598 47.8737 65.79 47.6035C65.9854 47.3301 66.2539 47.1217 66.5957 46.9785C66.9408 46.832 67.3363 46.7588 67.7822 46.7588C68.1631 46.7588 68.5146 46.7946 68.8369 46.8662C69.1624 46.9378 69.4603 47.0339 69.7305 47.1543L69.4717 47.8672C69.2145 47.7598 68.9411 47.6702 68.6514 47.5986C68.3649 47.527 68.0687 47.4912 67.7627 47.4912C67.4567 47.4912 67.1979 47.5368 66.9863 47.6279C66.778 47.7158 66.6185 47.8411 66.5078 48.0039C66.3971 48.1667 66.3418 48.3604 66.3418 48.585C66.3418 48.8356 66.3939 49.0439 66.498 49.21C66.6055 49.376 66.7747 49.5241 67.0059 49.6543C67.2402 49.7812 67.5495 49.9147 67.9336 50.0547C68.3535 50.2077 68.71 50.3704 69.0029 50.543C69.2959 50.7122 69.5189 50.9206 69.6719 51.168C69.8249 51.4121 69.9014 51.723 69.9014 52.1006ZM72.9678 53.4336C73.1012 53.4336 73.238 53.4222 73.3779 53.3994C73.5179 53.3766 73.6318 53.349 73.7197 53.3164V53.9463C73.6253 53.9886 73.4935 54.0244 73.3242 54.0537C73.1582 54.083 72.9954 54.0977 72.8359 54.0977C72.5527 54.0977 72.2956 54.0488 72.0645 53.9512C71.8333 53.8503 71.6478 53.681 71.5078 53.4434C71.3711 53.2057 71.3027 52.877 71.3027 52.457V49.2832H70.541V48.8877L71.3076 48.5703L71.6299 47.4082H72.1182V48.6484H73.6855V49.2832H72.1182V52.4326C72.1182 52.7679 72.1947 53.0186 72.3477 53.1846C72.5039 53.3506 72.7106 53.4336 72.9678 53.4336ZM79.418 51.3145C79.418 51.7539 79.361 52.1462 79.2471 52.4912C79.1331 52.8363 78.9688 53.1276 78.7539 53.3652C78.5391 53.6029 78.2786 53.7852 77.9727 53.9121C77.6699 54.0358 77.3265 54.0977 76.9424 54.0977C76.5843 54.0977 76.2555 54.0358 75.9561 53.9121C75.6598 53.7852 75.4027 53.6029 75.1846 53.3652C74.9697 53.1276 74.8021 52.8363 74.6816 52.4912C74.5645 52.1462 74.5059 51.7539 74.5059 51.3145C74.5059 50.7285 74.6051 50.2305 74.8037 49.8203C75.0023 49.4069 75.2855 49.0928 75.6533 48.8779C76.0244 48.6598 76.4655 48.5508 76.9766 48.5508C77.4648 48.5508 77.8913 48.6598 78.2559 48.8779C78.6237 49.096 78.9085 49.4118 79.1104 49.8252C79.3154 50.2354 79.418 50.7318 79.418 51.3145ZM75.3457 51.3145C75.3457 51.7441 75.4027 52.1169 75.5166 52.4326C75.6305 52.7484 75.8063 52.9925 76.0439 53.165C76.2816 53.3376 76.5876 53.4238 76.9619 53.4238C77.333 53.4238 77.6374 53.3376 77.875 53.165C78.1159 52.9925 78.2933 52.7484 78.4072 52.4326C78.5212 52.1169 78.5781 51.7441 78.5781 51.3145C78.5781 50.888 78.5212 50.5202 78.4072 50.2109C78.2933 49.8984 78.1175 49.6576 77.8799 49.4883C77.6423 49.319 77.3346 49.2344 76.957 49.2344C76.4004 49.2344 75.9919 49.4183 75.7314 49.7861C75.4743 50.154 75.3457 50.6634 75.3457 51.3145ZM82.9629 54.0977C82.4811 54.0977 82.0563 53.9984 81.6885 53.7998C81.3206 53.6012 81.0342 53.2985 80.8291 52.8916C80.624 52.4847 80.5215 51.972 80.5215 51.3535C80.5215 50.7057 80.6289 50.1768 80.8438 49.7666C81.0618 49.3532 81.3613 49.0472 81.7422 48.8486C82.123 48.6501 82.556 48.5508 83.041 48.5508C83.3079 48.5508 83.5651 48.5785 83.8125 48.6338C84.0632 48.6859 84.2682 48.7526 84.4277 48.834L84.1836 49.5127C84.0208 49.4476 83.832 49.389 83.6172 49.3369C83.4056 49.2848 83.207 49.2588 83.0215 49.2588C82.6504 49.2588 82.3411 49.3385 82.0938 49.498C81.8496 49.6576 81.6657 49.8919 81.542 50.2012C81.4215 50.5104 81.3613 50.8913 81.3613 51.3438C81.3613 51.7767 81.4199 52.1462 81.5371 52.4521C81.6576 52.7581 81.835 52.9925 82.0693 53.1553C82.307 53.3148 82.6032 53.3945 82.958 53.3945C83.2412 53.3945 83.4967 53.3652 83.7246 53.3066C83.9525 53.2448 84.1592 53.1732 84.3447 53.0918V53.8145C84.1657 53.9056 83.9655 53.9756 83.7441 54.0244C83.526 54.0732 83.2656 54.0977 82.9629 54.0977ZM86.4199 46.4023V50.3477C86.4199 50.4779 86.415 50.6374 86.4053 50.8262C86.3955 51.0117 86.3874 51.1761 86.3809 51.3193H86.415C86.4834 51.2347 86.5827 51.1094 86.7129 50.9434C86.8464 50.7773 86.9587 50.6439 87.0498 50.543L88.8271 48.6484H89.7793L87.626 50.9336L89.9355 54H88.959L87.0693 51.4658L86.4199 52.0615V54H85.6143V46.4023H86.4199ZM90.7461 53.4922C90.7461 53.2643 90.8014 53.1032 90.9121 53.0088C91.0228 52.9111 91.1579 52.8623 91.3174 52.8623C91.4834 52.8623 91.6234 52.9111 91.7373 53.0088C91.8512 53.1032 91.9082 53.2643 91.9082 53.4922C91.9082 53.7168 91.8512 53.8812 91.7373 53.9854C91.6234 54.0863 91.4834 54.1367 91.3174 54.1367C91.1579 54.1367 91.0228 54.0863 90.9121 53.9854C90.8014 53.8812 90.7461 53.7168 90.7461 53.4922ZM98.0361 50.4404L99.9355 46.8613H100.829L98.4512 51.2314V54H97.6211V51.2705L95.2383 46.8613H96.1465L98.0361 50.4404ZM106.303 51.3145C106.303 51.7539 106.246 52.1462 106.132 52.4912C106.018 52.8363 105.854 53.1276 105.639 53.3652C105.424 53.6029 105.163 53.7852 104.857 53.9121C104.555 54.0358 104.211 54.0977 103.827 54.0977C103.469 54.0977 103.14 54.0358 102.841 53.9121C102.545 53.7852 102.287 53.6029 102.069 53.3652C101.854 53.1276 101.687 52.8363 101.566 52.4912C101.449 52.1462 101.391 51.7539 101.391 51.3145C101.391 50.7285 101.49 50.2305 101.688 49.8203C101.887 49.4069 102.17 49.0928 102.538 48.8779C102.909 48.6598 103.35 48.5508 103.861 48.5508C104.35 48.5508 104.776 48.6598 105.141 48.8779C105.508 49.096 105.793 49.4118 105.995 49.8252C106.2 50.2354 106.303 50.7318 106.303 51.3145ZM102.23 51.3145C102.23 51.7441 102.287 52.1169 102.401 52.4326C102.515 52.7484 102.691 52.9925 102.929 53.165C103.166 53.3376 103.472 53.4238 103.847 53.4238C104.218 53.4238 104.522 53.3376 104.76 53.165C105.001 52.9925 105.178 52.7484 105.292 52.4326C105.406 52.1169 105.463 51.7441 105.463 51.3145C105.463 50.888 105.406 50.5202 105.292 50.2109C105.178 49.8984 105.002 49.6576 104.765 49.4883C104.527 49.319 104.219 49.2344 103.842 49.2344C103.285 49.2344 102.877 49.4183 102.616 49.7861C102.359 50.154 102.23 50.6634 102.23 51.3145ZM112.123 48.6484V54H111.459L111.342 53.248H111.298C111.187 53.4336 111.044 53.5898 110.868 53.7168C110.692 53.8438 110.494 53.9382 110.272 54C110.054 54.0651 109.822 54.0977 109.574 54.0977C109.151 54.0977 108.796 54.0293 108.51 53.8926C108.223 53.7559 108.007 53.5443 107.86 53.2578C107.717 52.9714 107.646 52.6035 107.646 52.1543V48.6484H108.466V52.0957C108.466 52.5417 108.567 52.8753 108.769 53.0967C108.97 53.3148 109.278 53.4238 109.691 53.4238C110.089 53.4238 110.404 53.349 110.639 53.1992C110.876 53.0495 111.047 52.8298 111.151 52.54C111.256 52.2471 111.308 51.889 111.308 51.4658V48.6484H112.123ZM118.485 46.8613C119.071 46.8613 119.555 46.9346 119.936 47.0811C120.32 47.2243 120.606 47.444 120.795 47.7402C120.984 48.0365 121.078 48.4141 121.078 48.873C121.078 49.2507 121.01 49.5664 120.873 49.8203C120.736 50.071 120.557 50.2744 120.336 50.4307C120.115 50.5869 119.879 50.7074 119.628 50.792L121.586 54H120.619L118.871 51.0215H117.387V54H116.557V46.8613H118.485ZM118.437 47.5791H117.387V50.3184H118.52C119.102 50.3184 119.53 50.1995 119.804 49.9619C120.08 49.7243 120.219 49.3743 120.219 48.9121C120.219 48.4271 120.072 48.0837 119.779 47.8818C119.49 47.68 119.042 47.5791 118.437 47.5791ZM124.667 48.5508C125.123 48.5508 125.513 48.6517 125.839 48.8535C126.164 49.0553 126.413 49.3385 126.586 49.7031C126.758 50.0645 126.845 50.4876 126.845 50.9727V51.4756H123.148C123.158 52.1038 123.314 52.5824 123.617 52.9111C123.92 53.2399 124.346 53.4043 124.896 53.4043C125.235 53.4043 125.535 53.3734 125.795 53.3115C126.055 53.2497 126.326 53.1585 126.605 53.0381V53.751C126.335 53.8714 126.067 53.9593 125.8 54.0146C125.536 54.07 125.224 54.0977 124.862 54.0977C124.348 54.0977 123.899 53.9935 123.515 53.7852C123.134 53.5736 122.838 53.2643 122.626 52.8574C122.414 52.4505 122.309 51.9525 122.309 51.3633C122.309 50.7871 122.405 50.2891 122.597 49.8691C122.792 49.446 123.065 49.1204 123.417 48.8926C123.772 48.6647 124.188 48.5508 124.667 48.5508ZM124.657 49.2148C124.224 49.2148 123.879 49.3564 123.622 49.6396C123.365 49.9229 123.212 50.3184 123.163 50.8262H125.995C125.992 50.5072 125.941 50.2272 125.844 49.9863C125.749 49.7422 125.604 49.5534 125.409 49.4199C125.214 49.2832 124.963 49.2148 124.657 49.2148ZM131.811 56.3926V54.0977C131.811 53.9707 131.814 53.8242 131.82 53.6582C131.827 53.4922 131.838 53.349 131.854 53.2285H131.801C131.651 53.4759 131.438 53.6826 131.161 53.8486C130.884 54.0146 130.528 54.0977 130.092 54.0977C129.438 54.0977 128.912 53.8665 128.515 53.4043C128.118 52.9421 127.919 52.252 127.919 51.334C127.919 50.7318 128.01 50.224 128.192 49.8105C128.375 49.3971 128.632 49.0846 128.964 48.873C129.299 48.6582 129.69 48.5508 130.136 48.5508C130.562 48.5508 130.91 48.6354 131.181 48.8047C131.451 48.9707 131.662 49.1742 131.815 49.415H131.854L131.977 48.6484H132.621V56.3926H131.811ZM130.243 53.4238C130.621 53.4238 130.924 53.3538 131.151 53.2139C131.379 53.0706 131.545 52.8558 131.649 52.5693C131.757 52.2829 131.814 51.9264 131.82 51.5V51.3291C131.82 50.639 131.703 50.1165 131.469 49.7617C131.234 49.4036 130.826 49.2246 130.243 49.2246C129.742 49.2246 129.369 49.4167 129.125 49.8008C128.881 50.1816 128.759 50.6992 128.759 51.3535C128.759 52.0078 128.881 52.5173 129.125 52.8818C129.369 53.2432 129.742 53.4238 130.243 53.4238ZM138.764 48.6484V54H138.1L137.982 53.248H137.938C137.828 53.4336 137.685 53.5898 137.509 53.7168C137.333 53.8438 137.134 53.9382 136.913 54C136.695 54.0651 136.462 54.0977 136.215 54.0977C135.792 54.0977 135.437 54.0293 135.15 53.8926C134.864 53.7559 134.647 53.5443 134.501 53.2578C134.358 52.9714 134.286 52.6035 134.286 52.1543V48.6484H135.106V52.0957C135.106 52.5417 135.207 52.8753 135.409 53.0967C135.611 53.3148 135.919 53.4238 136.332 53.4238C136.729 53.4238 137.045 53.349 137.279 53.1992C137.517 53.0495 137.688 52.8298 137.792 52.54C137.896 52.2471 137.948 51.889 137.948 51.4658V48.6484H138.764ZM142.538 48.5508C142.994 48.5508 143.384 48.6517 143.71 48.8535C144.035 49.0553 144.285 49.3385 144.457 49.7031C144.63 50.0645 144.716 50.4876 144.716 50.9727V51.4756H141.02C141.029 52.1038 141.186 52.5824 141.488 52.9111C141.791 53.2399 142.217 53.4043 142.768 53.4043C143.106 53.4043 143.406 53.3734 143.666 53.3115C143.926 53.2497 144.197 53.1585 144.477 53.0381V53.751C144.206 53.8714 143.938 53.9593 143.671 54.0146C143.407 54.07 143.095 54.0977 142.733 54.0977C142.219 54.0977 141.77 53.9935 141.386 53.7852C141.005 53.5736 140.709 53.2643 140.497 52.8574C140.285 52.4505 140.18 51.9525 140.18 51.3633C140.18 50.7871 140.276 50.2891 140.468 49.8691C140.663 49.446 140.937 49.1204 141.288 48.8926C141.643 48.6647 142.06 48.5508 142.538 48.5508ZM142.528 49.2148C142.095 49.2148 141.75 49.3564 141.493 49.6396C141.236 49.9229 141.083 50.3184 141.034 50.8262H143.866C143.863 50.5072 143.812 50.2272 143.715 49.9863C143.62 49.7422 143.476 49.5534 143.28 49.4199C143.085 49.2832 142.834 49.2148 142.528 49.2148ZM149.555 52.5352C149.555 52.877 149.468 53.165 149.296 53.3994C149.127 53.6305 148.882 53.8047 148.563 53.9219C148.248 54.0391 147.87 54.0977 147.431 54.0977C147.056 54.0977 146.732 54.0684 146.459 54.0098C146.186 53.9512 145.946 53.8682 145.741 53.7607V53.0137C145.959 53.1211 146.22 53.2188 146.522 53.3066C146.825 53.3945 147.134 53.4385 147.45 53.4385C147.912 53.4385 148.248 53.3636 148.456 53.2139C148.664 53.0641 148.769 52.8607 148.769 52.6035C148.769 52.457 148.726 52.3285 148.642 52.2178C148.56 52.1038 148.422 51.9948 148.227 51.8906C148.031 51.7832 147.761 51.666 147.416 51.5391C147.074 51.4089 146.778 51.2803 146.527 51.1533C146.28 51.0231 146.088 50.8652 145.951 50.6797C145.818 50.4941 145.751 50.2533 145.751 49.957C145.751 49.5046 145.933 49.1579 146.298 48.917C146.666 48.6729 147.147 48.5508 147.743 48.5508C148.065 48.5508 148.367 48.5833 148.646 48.6484C148.93 48.7103 149.193 48.7949 149.438 48.9023L149.164 49.5518C148.943 49.4574 148.707 49.3776 148.456 49.3125C148.205 49.2474 147.95 49.2148 147.689 49.2148C147.315 49.2148 147.027 49.2767 146.825 49.4004C146.627 49.5241 146.527 49.6934 146.527 49.9082C146.527 50.0742 146.573 50.2109 146.664 50.3184C146.758 50.4258 146.908 50.5267 147.113 50.6211C147.318 50.7155 147.589 50.8262 147.924 50.9531C148.259 51.0768 148.549 51.2054 148.793 51.3389C149.037 51.4691 149.224 51.6286 149.354 51.8174C149.488 52.0029 149.555 52.2422 149.555 52.5352ZM152.587 53.4336C152.72 53.4336 152.857 53.4222 152.997 53.3994C153.137 53.3766 153.251 53.349 153.339 53.3164V53.9463C153.244 53.9886 153.113 54.0244 152.943 54.0537C152.777 54.083 152.615 54.0977 152.455 54.0977C152.172 54.0977 151.915 54.0488 151.684 53.9512C151.452 53.8503 151.267 53.681 151.127 53.4434C150.99 53.2057 150.922 52.877 150.922 52.457V49.2832H150.16V48.8877L150.927 48.5703L151.249 47.4082H151.737V48.6484H153.305V49.2832H151.737V52.4326C151.737 52.7679 151.814 53.0186 151.967 53.1846C152.123 53.3506 152.33 53.4336 152.587 53.4336ZM156.483 48.5508C156.939 48.5508 157.33 48.6517 157.655 48.8535C157.981 49.0553 158.23 49.3385 158.402 49.7031C158.575 50.0645 158.661 50.4876 158.661 50.9727V51.4756H154.965C154.975 52.1038 155.131 52.5824 155.434 52.9111C155.736 53.2399 156.163 53.4043 156.713 53.4043C157.051 53.4043 157.351 53.3734 157.611 53.3115C157.872 53.2497 158.142 53.1585 158.422 53.0381V53.751C158.152 53.8714 157.883 53.9593 157.616 54.0146C157.353 54.07 157.04 54.0977 156.679 54.0977C156.164 54.0977 155.715 53.9935 155.331 53.7852C154.95 53.5736 154.654 53.2643 154.442 52.8574C154.231 52.4505 154.125 51.9525 154.125 51.3633C154.125 50.7871 154.221 50.2891 154.413 49.8691C154.608 49.446 154.882 49.1204 155.233 48.8926C155.588 48.6647 156.005 48.5508 156.483 48.5508ZM156.474 49.2148C156.041 49.2148 155.696 49.3564 155.438 49.6396C155.181 49.9229 155.028 50.3184 154.979 50.8262H157.812C157.808 50.5072 157.758 50.2272 157.66 49.9863C157.566 49.7422 157.421 49.5534 157.226 49.4199C157.03 49.2832 156.78 49.2148 156.474 49.2148ZM161.942 54.0977C161.265 54.0977 160.728 53.8665 160.331 53.4043C159.937 52.9421 159.74 52.2552 159.74 51.3438C159.74 50.4225 159.942 49.7275 160.346 49.2588C160.749 48.7868 161.286 48.5508 161.957 48.5508C162.24 48.5508 162.488 48.5882 162.699 48.6631C162.911 48.738 163.093 48.8389 163.246 48.9658C163.399 49.0895 163.528 49.2311 163.632 49.3906H163.69C163.677 49.2897 163.664 49.1514 163.651 48.9756C163.638 48.7998 163.632 48.6566 163.632 48.5459V46.4023H164.442V54H163.788L163.666 53.2383H163.632C163.531 53.3978 163.402 53.5426 163.246 53.6729C163.093 53.8031 162.909 53.9072 162.694 53.9854C162.483 54.0602 162.232 54.0977 161.942 54.0977ZM162.069 53.4238C162.642 53.4238 163.048 53.2611 163.285 52.9355C163.523 52.61 163.642 52.1266 163.642 51.4854V51.3389C163.642 50.6585 163.528 50.1361 163.3 49.7715C163.075 49.4069 162.665 49.2246 162.069 49.2246C161.571 49.2246 161.199 49.4167 160.951 49.8008C160.704 50.1816 160.58 50.7025 160.58 51.3633C160.58 52.0208 160.702 52.5286 160.946 52.8867C161.194 53.2448 161.568 53.4238 162.069 53.4238ZM173.432 52.3447H172.362V54H171.571V52.3447H168.119V51.6611L171.518 46.8223H172.362V51.6123H173.432V52.3447ZM171.571 51.6123V49.2783C171.571 49.0993 171.573 48.9382 171.576 48.7949C171.579 48.6484 171.584 48.5133 171.591 48.3896C171.597 48.2627 171.602 48.1423 171.605 48.0283C171.612 47.9144 171.617 47.8021 171.62 47.6914H171.581C171.519 47.8216 171.448 47.96 171.366 48.1064C171.288 48.2497 171.208 48.3783 171.127 48.4922L168.925 51.6123H171.571ZM174.359 53.4922C174.359 53.2643 174.415 53.1032 174.525 53.0088C174.636 52.9111 174.771 52.8623 174.931 52.8623C175.097 52.8623 175.237 52.9111 175.351 53.0088C175.465 53.1032 175.521 53.2643 175.521 53.4922C175.521 53.7168 175.465 53.8812 175.351 53.9854C175.237 54.0863 175.097 54.1367 174.931 54.1367C174.771 54.1367 174.636 54.0863 174.525 53.9854C174.415 53.8812 174.359 53.7168 174.359 53.4922Z" fill="#F5F5F5"/>
<rect width="80" height="22" transform="translate(13 65)" fill="#FFF1C0"/>
<path d="M26.168 76.4209C26.168 76.971 26.098 77.4723 25.958 77.9248C25.818 78.374 25.6097 78.7614 25.333 79.0869C25.0596 79.4092 24.7194 79.6582 24.3125 79.834C23.9056 80.0098 23.4336 80.0977 22.8965 80.0977C22.3431 80.0977 21.8597 80.0098 21.4463 79.834C21.0361 79.6582 20.6943 79.4076 20.4209 79.082C20.1507 78.7565 19.9473 78.3675 19.8105 77.915C19.6771 77.4626 19.6104 76.9613 19.6104 76.4111C19.6104 75.682 19.7308 75.0423 19.9717 74.4922C20.2126 73.9421 20.5771 73.514 21.0654 73.208C21.557 72.902 22.1722 72.749 22.9111 72.749C23.6175 72.749 24.2116 72.9004 24.6934 73.2031C25.1784 73.5059 25.5446 73.9323 25.792 74.4824C26.0426 75.0293 26.168 75.6755 26.168 76.4209ZM20.4844 76.4209C20.4844 77.0264 20.5706 77.5505 20.7432 77.9932C20.9157 78.4359 21.1794 78.7777 21.5342 79.0186C21.8923 79.2594 22.3464 79.3799 22.8965 79.3799C23.4499 79.3799 23.9023 79.2594 24.2539 79.0186C24.6087 78.7777 24.8708 78.4359 25.04 77.9932C25.2093 77.5505 25.2939 77.0264 25.2939 76.4209C25.2939 75.4997 25.1003 74.7803 24.7129 74.2627C24.3288 73.7419 23.7282 73.4814 22.9111 73.4814C22.3577 73.4814 21.902 73.6003 21.5439 73.8379C21.1859 74.0755 20.9189 74.4141 20.7432 74.8535C20.5706 75.2897 20.4844 75.8122 20.4844 76.4209ZM30.1719 74.5508C30.8066 74.5508 31.2868 74.707 31.6123 75.0195C31.9378 75.3288 32.1006 75.8268 32.1006 76.5137V80H31.2998V76.5674C31.2998 76.1214 31.1973 75.7878 30.9922 75.5664C30.7904 75.3451 30.4795 75.2344 30.0596 75.2344C29.4671 75.2344 29.0505 75.402 28.8096 75.7373C28.5687 76.0726 28.4482 76.5592 28.4482 77.1973V80H27.6377V74.6484H28.292L28.4141 75.4199H28.458C28.5719 75.2311 28.7168 75.0732 28.8926 74.9463C29.0684 74.8161 29.2653 74.7184 29.4834 74.6533C29.7015 74.585 29.931 74.5508 30.1719 74.5508ZM34.5859 80H33.7705V72.4023H34.5859V80ZM35.4551 74.6484H36.3242L37.5059 77.7539C37.5742 77.9362 37.6377 78.112 37.6963 78.2812C37.7549 78.4473 37.807 78.6068 37.8525 78.7598C37.8981 78.9128 37.9339 79.0609 37.96 79.2041H37.9941C38.0397 79.0413 38.1048 78.8281 38.1895 78.5645C38.2741 78.2975 38.3652 78.0257 38.4629 77.749L39.5811 74.6484H40.4551L38.126 80.7861C38.0023 81.1149 37.8574 81.4014 37.6914 81.6455C37.5286 81.8896 37.3301 82.0768 37.0957 82.207C36.8613 82.3405 36.5781 82.4072 36.2461 82.4072C36.0931 82.4072 35.958 82.3975 35.8408 82.3779C35.7236 82.3617 35.6227 82.3421 35.5381 82.3193V81.6699C35.6097 81.6862 35.696 81.7008 35.7969 81.7139C35.901 81.7269 36.0085 81.7334 36.1191 81.7334C36.321 81.7334 36.4951 81.6943 36.6416 81.6162C36.7913 81.5413 36.9199 81.4307 37.0273 81.2842C37.1348 81.1377 37.2275 80.9635 37.3057 80.7617L37.5986 80.0098L35.4551 74.6484ZM48.2236 80H43.5459V79.3213L45.4551 77.3828C45.8099 77.0247 46.1077 76.7057 46.3486 76.4258C46.5928 76.1458 46.7783 75.8708 46.9053 75.6006C47.0322 75.3271 47.0957 75.0277 47.0957 74.7021C47.0957 74.2985 46.9753 73.9909 46.7344 73.7793C46.4967 73.5645 46.1826 73.457 45.792 73.457C45.4502 73.457 45.1475 73.5156 44.8838 73.6328C44.6201 73.75 44.3499 73.916 44.0732 74.1309L43.6387 73.584C43.8275 73.4245 44.0326 73.2829 44.2539 73.1592C44.4785 73.0355 44.7178 72.9378 44.9717 72.8662C45.2288 72.7946 45.5023 72.7588 45.792 72.7588C46.2314 72.7588 46.6107 72.8353 46.9297 72.9883C47.2487 73.1413 47.4945 73.3594 47.667 73.6426C47.8428 73.9258 47.9307 74.2627 47.9307 74.6533C47.9307 75.0309 47.8558 75.3825 47.7061 75.708C47.5563 76.0303 47.3464 76.3509 47.0762 76.6699C46.806 76.9857 46.4902 77.321 46.1289 77.6758L44.5762 79.2236V79.2578H48.2236V80ZM54.2783 72.8613C54.8643 72.8613 55.3477 72.9346 55.7285 73.0811C56.1126 73.2243 56.3991 73.444 56.5879 73.7402C56.7767 74.0365 56.8711 74.4141 56.8711 74.873C56.8711 75.2507 56.8027 75.5664 56.666 75.8203C56.5293 76.071 56.3503 76.2744 56.1289 76.4307C55.9076 76.5869 55.6715 76.7074 55.4209 76.792L57.3789 80H56.4121L54.6641 77.0215H53.1797V80H52.3496V72.8613H54.2783ZM54.2295 73.5791H53.1797V76.3184H54.3125C54.8952 76.3184 55.3232 76.1995 55.5967 75.9619C55.8734 75.7243 56.0117 75.3743 56.0117 74.9121C56.0117 74.4271 55.8652 74.0837 55.5723 73.8818C55.2826 73.68 54.835 73.5791 54.2295 73.5791ZM60.46 74.5508C60.9157 74.5508 61.3063 74.6517 61.6318 74.8535C61.9574 75.0553 62.2064 75.3385 62.3789 75.7031C62.5514 76.0645 62.6377 76.4876 62.6377 76.9727V77.4756H58.9414C58.9512 78.1038 59.1074 78.5824 59.4102 78.9111C59.7129 79.2399 60.1393 79.4043 60.6895 79.4043C61.028 79.4043 61.3275 79.3734 61.5879 79.3115C61.8483 79.2497 62.1185 79.1585 62.3984 79.0381V79.751C62.1283 79.8714 61.8597 79.9593 61.5928 80.0146C61.3291 80.07 61.0166 80.0977 60.6553 80.0977C60.141 80.0977 59.6917 79.9935 59.3076 79.7852C58.9268 79.5736 58.6305 79.2643 58.4189 78.8574C58.2074 78.4505 58.1016 77.9525 58.1016 77.3633C58.1016 76.7871 58.1976 76.2891 58.3896 75.8691C58.585 75.446 58.8584 75.1204 59.21 74.8926C59.5648 74.6647 59.9814 74.5508 60.46 74.5508ZM60.4502 75.2148C60.0173 75.2148 59.6722 75.3564 59.415 75.6396C59.1579 75.9229 59.0049 76.3184 58.9561 76.8262H61.7881C61.7848 76.5072 61.7344 76.2272 61.6367 75.9863C61.5423 75.7422 61.3975 75.5534 61.2021 75.4199C61.0068 75.2832 60.7562 75.2148 60.4502 75.2148ZM69.8252 74.5508C70.4144 74.5508 70.8587 74.7054 71.1582 75.0146C71.4577 75.3206 71.6074 75.8138 71.6074 76.4941V80H70.8066V76.5332C70.8066 76.1003 70.7122 75.7764 70.5234 75.5615C70.3379 75.3434 70.0612 75.2344 69.6934 75.2344C69.1758 75.2344 68.7998 75.3841 68.5654 75.6836C68.3311 75.9831 68.2139 76.4242 68.2139 77.0068V80H67.4082V76.5332C67.4082 76.2435 67.3659 76.0026 67.2812 75.8105C67.1999 75.6185 67.0762 75.4753 66.9102 75.3809C66.7474 75.2832 66.5407 75.2344 66.29 75.2344C65.9352 75.2344 65.6504 75.3076 65.4355 75.4541C65.2207 75.6006 65.0645 75.8187 64.9668 76.1084C64.8724 76.3949 64.8252 76.748 64.8252 77.168V80H64.0146V74.6484H64.6689L64.791 75.4053H64.835C64.9424 75.2197 65.0775 75.0635 65.2402 74.9365C65.403 74.8096 65.5853 74.7135 65.7871 74.6484C65.9889 74.5833 66.2038 74.5508 66.4316 74.5508C66.8385 74.5508 67.1787 74.6273 67.4521 74.7803C67.7288 74.93 67.929 75.1595 68.0527 75.4688H68.0967C68.2725 75.1595 68.5133 74.93 68.8193 74.7803C69.1253 74.6273 69.4606 74.5508 69.8252 74.5508ZM75.2744 74.5605C75.9124 74.5605 76.3861 74.7038 76.6953 74.9902C77.0046 75.2767 77.1592 75.734 77.1592 76.3623V80H76.5684L76.4121 79.209H76.373C76.2233 79.4043 76.0671 79.5687 75.9043 79.7021C75.7415 79.8324 75.5527 79.9316 75.3379 80C75.1263 80.0651 74.8659 80.0977 74.5566 80.0977C74.2311 80.0977 73.9414 80.0407 73.6875 79.9268C73.4368 79.8128 73.2383 79.6403 73.0918 79.4092C72.9486 79.1781 72.877 78.8851 72.877 78.5303C72.877 77.9964 73.0885 77.5863 73.5117 77.2998C73.9349 77.0133 74.5794 76.8571 75.4453 76.8311L76.3682 76.792V76.4648C76.3682 76.0026 76.2689 75.6787 76.0703 75.4932C75.8717 75.3076 75.5918 75.2148 75.2305 75.2148C74.9505 75.2148 74.6836 75.2555 74.4297 75.3369C74.1758 75.4183 73.9349 75.5143 73.707 75.625L73.458 75.0098C73.6989 74.8861 73.9756 74.7803 74.2881 74.6924C74.6006 74.6045 74.9294 74.5605 75.2744 74.5605ZM76.3584 77.3633L75.543 77.3975C74.8757 77.4235 74.4053 77.5326 74.1318 77.7246C73.8584 77.9167 73.7217 78.1885 73.7217 78.54C73.7217 78.846 73.8145 79.0723 74 79.2188C74.1855 79.3652 74.4313 79.4385 74.7373 79.4385C75.2126 79.4385 75.6016 79.3066 75.9043 79.043C76.207 78.7793 76.3584 78.3838 76.3584 77.8564V77.3633ZM79.6396 74.6484V80H78.8291V74.6484H79.6396ZM79.2441 72.6465C79.3776 72.6465 79.4915 72.6904 79.5859 72.7783C79.6836 72.863 79.7324 72.9964 79.7324 73.1787C79.7324 73.3577 79.6836 73.4912 79.5859 73.5791C79.4915 73.667 79.3776 73.7109 79.2441 73.7109C79.1042 73.7109 78.987 73.667 78.8926 73.5791C78.8014 73.4912 78.7559 73.3577 78.7559 73.1787C78.7559 72.9964 78.8014 72.863 78.8926 72.7783C78.987 72.6904 79.1042 72.6465 79.2441 72.6465ZM83.8926 74.5508C84.5273 74.5508 85.0075 74.707 85.333 75.0195C85.6585 75.3288 85.8213 75.8268 85.8213 76.5137V80H85.0205V76.5674C85.0205 76.1214 84.918 75.7878 84.7129 75.5664C84.5111 75.3451 84.2002 75.2344 83.7803 75.2344C83.1878 75.2344 82.7712 75.402 82.5303 75.7373C82.2894 76.0726 82.1689 76.5592 82.1689 77.1973V80H81.3584V74.6484H82.0127L82.1348 75.4199H82.1787C82.2926 75.2311 82.4375 75.0732 82.6133 74.9463C82.7891 74.8161 82.986 74.7184 83.2041 74.6533C83.4222 74.585 83.6517 74.5508 83.8926 74.5508Z" fill="#AB7221"/>
<path d="M213.788 27.7554V26.4224C213.301 26.4139 212.836 26.3716 212.392 26.2954C211.951 26.2192 211.592 26.1198 211.312 25.9971V24.9688C211.604 25.1042 211.979 25.2227 212.436 25.3242C212.893 25.4258 213.344 25.4808 213.788 25.4893V22.6963C213.229 22.5397 212.766 22.362 212.398 22.1631C212.034 21.96 211.761 21.7124 211.579 21.4204C211.397 21.1284 211.306 20.7751 211.306 20.3604C211.306 19.9287 211.408 19.5605 211.611 19.2559C211.818 18.9469 212.108 18.7057 212.48 18.5322C212.853 18.3587 213.289 18.2593 213.788 18.2339V17.1357H214.562V18.2212C215.015 18.2339 215.428 18.2847 215.8 18.3735C216.173 18.4582 216.518 18.5682 216.835 18.7036L216.505 19.5859C216.217 19.4717 215.906 19.3743 215.572 19.2939C215.237 19.2135 214.901 19.1585 214.562 19.1289V21.9028C215.13 22.0679 215.604 22.2435 215.984 22.4297C216.369 22.6159 216.659 22.8465 216.854 23.1216C217.049 23.3966 217.146 23.7521 217.146 24.188C217.146 24.8058 216.92 25.3052 216.467 25.686C216.014 26.0627 215.379 26.2912 214.562 26.3716V27.7554H213.788ZM214.562 25.4321C215.083 25.3813 215.47 25.2565 215.724 25.0576C215.982 24.8545 216.111 24.5879 216.111 24.2578C216.111 24.0208 216.061 23.8262 215.959 23.6738C215.862 23.5215 215.701 23.3903 215.477 23.2803C215.252 23.166 214.948 23.0581 214.562 22.9565V25.4321ZM213.788 21.6362V19.1543C213.471 19.1755 213.204 19.2347 212.988 19.332C212.772 19.4294 212.61 19.5563 212.5 19.7129C212.394 19.8695 212.341 20.0557 212.341 20.2715C212.341 20.5212 212.387 20.7306 212.48 20.8999C212.578 21.0649 212.732 21.2067 212.944 21.3252C213.16 21.4395 213.441 21.5431 213.788 21.6362ZM224.712 22.3472C224.712 23.1004 224.655 23.7733 224.541 24.3657C224.427 24.9582 224.247 25.4596 224.001 25.8701C223.756 26.2806 223.439 26.5938 223.049 26.8096C222.66 27.0212 222.192 27.127 221.646 27.127C220.957 27.127 220.385 26.9386 219.933 26.562C219.484 26.1854 219.148 25.6416 218.923 24.9307C218.703 24.2155 218.593 23.3543 218.593 22.3472C218.593 21.3569 218.693 20.5063 218.892 19.7954C219.095 19.0802 219.421 18.5322 219.869 18.1514C220.318 17.7663 220.91 17.5737 221.646 17.5737C222.345 17.5737 222.92 17.7642 223.373 18.145C223.826 18.5216 224.162 19.0675 224.382 19.7827C224.602 20.4937 224.712 21.3485 224.712 22.3472ZM219.653 22.3472C219.653 23.2104 219.719 23.9299 219.85 24.5054C219.981 25.0809 220.193 25.5125 220.485 25.8003C220.781 26.0838 221.168 26.2256 221.646 26.2256C222.125 26.2256 222.51 26.0838 222.802 25.8003C223.098 25.5168 223.312 25.0872 223.443 24.5117C223.578 23.9362 223.646 23.2147 223.646 22.3472C223.646 21.4966 223.58 20.7856 223.449 20.2144C223.318 19.6388 223.106 19.2072 222.814 18.9194C222.522 18.6274 222.133 18.4814 221.646 18.4814C221.16 18.4814 220.771 18.6274 220.479 18.9194C220.187 19.2072 219.975 19.6388 219.844 20.2144C219.717 20.7856 219.653 21.4966 219.653 22.3472ZM226.331 26.3398C226.331 26.0436 226.403 25.8341 226.547 25.7114C226.691 25.5845 226.866 25.521 227.074 25.521C227.29 25.521 227.472 25.5845 227.62 25.7114C227.768 25.8341 227.842 26.0436 227.842 26.3398C227.842 26.6318 227.768 26.8455 227.62 26.981C227.472 27.1121 227.29 27.1777 227.074 27.1777C226.866 27.1777 226.691 27.1121 226.547 26.981C226.403 26.8455 226.331 26.6318 226.331 26.3398ZM235.567 22.3472C235.567 23.1004 235.51 23.7733 235.396 24.3657C235.281 24.9582 235.101 25.4596 234.856 25.8701C234.611 26.2806 234.293 26.5938 233.904 26.8096C233.514 27.0212 233.047 27.127 232.501 27.127C231.811 27.127 231.24 26.9386 230.787 26.562C230.339 26.1854 230.002 25.6416 229.778 24.9307C229.558 24.2155 229.448 23.3543 229.448 22.3472C229.448 21.3569 229.547 20.5063 229.746 19.7954C229.949 19.0802 230.275 18.5322 230.724 18.1514C231.172 17.7663 231.765 17.5737 232.501 17.5737C233.199 17.5737 233.775 17.7642 234.228 18.145C234.68 18.5216 235.017 19.0675 235.237 19.7827C235.457 20.4937 235.567 21.3485 235.567 22.3472ZM230.508 22.3472C230.508 23.2104 230.573 23.9299 230.705 24.5054C230.836 25.0809 231.047 25.5125 231.339 25.8003C231.636 26.0838 232.023 26.2256 232.501 26.2256C232.979 26.2256 233.364 26.0838 233.656 25.8003C233.952 25.5168 234.166 25.0872 234.297 24.5117C234.433 23.9362 234.5 23.2147 234.5 22.3472C234.5 21.4966 234.435 20.7856 234.304 20.2144C234.173 19.6388 233.961 19.2072 233.669 18.9194C233.377 18.6274 232.988 18.4814 232.501 18.4814C232.014 18.4814 231.625 18.6274 231.333 18.9194C231.041 19.2072 230.829 19.6388 230.698 20.2144C230.571 20.7856 230.508 21.4966 230.508 22.3472ZM243.006 22.3472C243.006 23.1004 242.949 23.7733 242.835 24.3657C242.721 24.9582 242.541 25.4596 242.295 25.8701C242.05 26.2806 241.733 26.5938 241.343 26.8096C240.954 27.0212 240.486 27.127 239.94 27.127C239.251 27.127 238.679 26.9386 238.227 26.562C237.778 26.1854 237.442 25.6416 237.217 24.9307C236.997 24.2155 236.887 23.3543 236.887 22.3472C236.887 21.3569 236.987 20.5063 237.186 19.7954C237.389 19.0802 237.715 18.5322 238.163 18.1514C238.612 17.7663 239.204 17.5737 239.94 17.5737C240.639 17.5737 241.214 17.7642 241.667 18.145C242.12 18.5216 242.456 19.0675 242.676 19.7827C242.896 20.4937 243.006 21.3485 243.006 22.3472ZM237.947 22.3472C237.947 23.2104 238.013 23.9299 238.144 24.5054C238.275 25.0809 238.487 25.5125 238.779 25.8003C239.075 26.0838 239.462 26.2256 239.94 26.2256C240.419 26.2256 240.804 26.0838 241.096 25.8003C241.392 25.5168 241.606 25.0872 241.737 24.5117C241.872 23.9362 241.94 23.2147 241.94 22.3472C241.94 21.4966 241.874 20.7856 241.743 20.2144C241.612 19.6388 241.4 19.2072 241.108 18.9194C240.816 18.6274 240.427 18.4814 239.94 18.4814C239.454 18.4814 239.064 18.6274 238.772 18.9194C238.48 19.2072 238.269 19.6388 238.138 20.2144C238.011 20.7856 237.947 21.4966 237.947 22.3472Z" fill="#7E7E7E"/>
<path d="M209.535 47.6973V46.4668C209.086 46.459 208.656 46.4199 208.246 46.3496C207.84 46.2793 207.508 46.1875 207.25 46.0742V45.125C207.52 45.25 207.865 45.3594 208.287 45.4531C208.709 45.5469 209.125 45.5977 209.535 45.6055V43.0273C209.02 42.8828 208.592 42.7188 208.252 42.5352C207.916 42.3477 207.664 42.1191 207.496 41.8496C207.328 41.5801 207.244 41.2539 207.244 40.8711C207.244 40.4727 207.338 40.1328 207.525 39.8516C207.717 39.5664 207.984 39.3438 208.328 39.1836C208.672 39.0234 209.074 38.9316 209.535 38.9082V37.8945H210.25V38.8965C210.668 38.9082 211.049 38.9551 211.393 39.0371C211.736 39.1152 212.055 39.2168 212.348 39.3418L212.043 40.1562C211.777 40.0508 211.49 39.9609 211.182 39.8867C210.873 39.8125 210.562 39.7617 210.25 39.7344V42.2949C210.773 42.4473 211.211 42.6094 211.562 42.7812C211.918 42.9531 212.186 43.166 212.365 43.4199C212.545 43.6738 212.635 44.002 212.635 44.4043C212.635 44.9746 212.426 45.4355 212.008 45.7871C211.59 46.1348 211.004 46.3457 210.25 46.4199V47.6973H209.535ZM210.25 45.5527C210.73 45.5059 211.088 45.3906 211.322 45.207C211.561 45.0195 211.68 44.7734 211.68 44.4688C211.68 44.25 211.633 44.0703 211.539 43.9297C211.449 43.7891 211.301 43.668 211.094 43.5664C210.887 43.4609 210.605 43.3613 210.25 43.2676V45.5527ZM209.535 42.0488V39.7578C209.242 39.7773 208.996 39.832 208.797 39.9219C208.598 40.0117 208.447 40.1289 208.346 40.2734C208.248 40.418 208.199 40.5898 208.199 40.7891C208.199 41.0195 208.242 41.2129 208.328 41.3691C208.418 41.5215 208.561 41.6523 208.756 41.7617C208.955 41.8672 209.215 41.9629 209.535 42.0488ZM220 45.0137H218.717V47H217.768V45.0137H213.625V44.1934L217.703 38.3867H218.717V44.1348H220V45.0137ZM217.768 44.1348V41.334C217.768 41.1191 217.77 40.9258 217.773 40.7539C217.777 40.5781 217.783 40.416 217.791 40.2676C217.799 40.1152 217.805 39.9707 217.809 39.834C217.816 39.6973 217.822 39.5625 217.826 39.4297H217.779C217.705 39.5859 217.619 39.752 217.521 39.9277C217.428 40.0996 217.332 40.2539 217.234 40.3906L214.592 44.1348H217.768ZM226.439 47H220.826V46.1855L223.117 43.8594C223.543 43.4297 223.9 43.0469 224.189 42.7109C224.482 42.375 224.705 42.0449 224.857 41.7207C225.01 41.3926 225.086 41.0332 225.086 40.6426C225.086 40.1582 224.941 39.7891 224.652 39.5352C224.367 39.2773 223.99 39.1484 223.521 39.1484C223.111 39.1484 222.748 39.2188 222.432 39.3594C222.115 39.5 221.791 39.6992 221.459 39.957L220.938 39.3008C221.164 39.1094 221.41 38.9395 221.676 38.791C221.945 38.6426 222.232 38.5254 222.537 38.4395C222.846 38.3535 223.174 38.3105 223.521 38.3105C224.049 38.3105 224.504 38.4023 224.887 38.5859C225.27 38.7695 225.564 39.0312 225.771 39.3711C225.982 39.7109 226.088 40.1152 226.088 40.584C226.088 41.0371 225.998 41.459 225.818 41.8496C225.639 42.2363 225.387 42.6211 225.062 43.0039C224.738 43.3828 224.359 43.7852 223.926 44.2109L222.062 46.0684V46.1094H226.439V47ZM227.98 46.3906C227.98 46.1172 228.047 45.9238 228.18 45.8105C228.312 45.6934 228.475 45.6348 228.666 45.6348C228.865 45.6348 229.033 45.6934 229.17 45.8105C229.307 45.9238 229.375 46.1172 229.375 46.3906C229.375 46.6602 229.307 46.8574 229.17 46.9824C229.033 47.1035 228.865 47.1641 228.666 47.1641C228.475 47.1641 228.312 47.1035 228.18 46.9824C228.047 46.8574 227.98 46.6602 227.98 46.3906ZM236.506 42.7051C236.506 43.4004 236.453 44.0215 236.348 44.5684C236.242 45.1152 236.076 45.5781 235.85 45.957C235.623 46.3359 235.33 46.625 234.971 46.8242C234.611 47.0195 234.18 47.1172 233.676 47.1172C233.039 47.1172 232.512 46.9434 232.094 46.5957C231.68 46.248 231.369 45.7461 231.162 45.0898C230.959 44.4297 230.857 43.6348 230.857 42.7051C230.857 41.791 230.949 41.0059 231.133 40.3496C231.32 39.6895 231.621 39.1836 232.035 38.832C232.449 38.4766 232.996 38.2988 233.676 38.2988C234.32 38.2988 234.852 38.4746 235.27 38.8262C235.688 39.1738 235.998 39.6777 236.201 40.3379C236.404 40.9941 236.506 41.7832 236.506 42.7051ZM231.836 42.7051C231.836 43.502 231.896 44.166 232.018 44.6973C232.139 45.2285 232.334 45.627 232.604 45.8926C232.877 46.1543 233.234 46.2852 233.676 46.2852C234.117 46.2852 234.473 46.1543 234.742 45.8926C235.016 45.6309 235.213 45.2344 235.334 44.7031C235.459 44.1719 235.521 43.5059 235.521 42.7051C235.521 41.9199 235.461 41.2637 235.34 40.7363C235.219 40.2051 235.023 39.8066 234.754 39.541C234.484 39.2715 234.125 39.1367 233.676 39.1367C233.227 39.1367 232.867 39.2715 232.598 39.541C232.328 39.8066 232.133 40.2051 232.012 40.7363C231.895 41.2637 231.836 41.9199 231.836 42.7051ZM243.373 42.7051C243.373 43.4004 243.32 44.0215 243.215 44.5684C243.109 45.1152 242.943 45.5781 242.717 45.957C242.49 46.3359 242.197 46.625 241.838 46.8242C241.479 47.0195 241.047 47.1172 240.543 47.1172C239.906 47.1172 239.379 46.9434 238.961 46.5957C238.547 46.248 238.236 45.7461 238.029 45.0898C237.826 44.4297 237.725 43.6348 237.725 42.7051C237.725 41.791 237.816 41.0059 238 40.3496C238.188 39.6895 238.488 39.1836 238.902 38.832C239.316 38.4766 239.863 38.2988 240.543 38.2988C241.188 38.2988 241.719 38.4746 242.137 38.8262C242.555 39.1738 242.865 39.6777 243.068 40.3379C243.271 40.9941 243.373 41.7832 243.373 42.7051ZM238.703 42.7051C238.703 43.502 238.764 44.166 238.885 44.6973C239.006 45.2285 239.201 45.627 239.471 45.8926C239.744 46.1543 240.102 46.2852 240.543 46.2852C240.984 46.2852 241.34 46.1543 241.609 45.8926C241.883 45.6309 242.08 45.2344 242.201 44.7031C242.326 44.1719 242.389 43.5059 242.389 42.7051C242.389 41.9199 242.328 41.2637 242.207 40.7363C242.086 40.2051 241.891 39.8066 241.621 39.541C241.352 39.2715 240.992 39.1367 240.543 39.1367C240.094 39.1367 239.734 39.2715 239.465 39.541C239.195 39.8066 239 40.2051 238.879 40.7363C238.762 41.2637 238.703 41.9199 238.703 42.7051Z" fill="#B5B5B5"/>
<path d="M206.5 43.1445H243.982V43.4375H206.5V43.1445Z" fill="#B5B5B5"/>
<rect x="264.5" y="13" width="65" height="30" fill="white"/>
<rect x="264.75" y="13.25" width="64.5" height="29.5" stroke="#7C7C7C" stroke-opacity="0.52" stroke-width="0.5"/>
<path d="M300.466 30.8481H299.076V33H298.047V30.8481H293.56V29.9595L297.978 23.6689H299.076V29.896H300.466V30.8481ZM298.047 29.896V26.8618C298.047 26.6291 298.049 26.4196 298.054 26.2334C298.058 26.043 298.064 25.8674 298.073 25.7065C298.081 25.5415 298.088 25.3849 298.092 25.2368C298.1 25.0887 298.107 24.9427 298.111 24.7988H298.06C297.98 24.9681 297.887 25.1479 297.781 25.3384C297.679 25.5246 297.576 25.6917 297.47 25.8398L294.607 29.896H298.047Z" fill="#888888"/>
<rect x="264.5" y="47" width="65" height="26" rx="2" fill="#75B2C5"/>
<path d="M292.1 64H290.938V56.8613H294.971V57.8477H292.1V60.0742H294.785V61.0557H292.1V64ZM297.3 58.5947V64H296.152V58.5947H297.3ZM296.733 56.5244C296.909 56.5244 297.061 56.5716 297.188 56.666C297.318 56.7604 297.383 56.9232 297.383 57.1543C297.383 57.3822 297.318 57.5449 297.188 57.6426C297.061 57.737 296.909 57.7842 296.733 57.7842C296.551 57.7842 296.396 57.737 296.27 57.6426C296.146 57.5449 296.084 57.3822 296.084 57.1543C296.084 56.9232 296.146 56.7604 296.27 56.666C296.396 56.5716 296.551 56.5244 296.733 56.5244ZM300.142 61.2363L298.335 58.5947H299.644L300.879 60.4941L302.119 58.5947H303.423L301.606 61.2363L303.516 64H302.202L300.879 61.9736L299.551 64H298.247L300.142 61.2363Z" fill="white"/>
<path d="M352.788 27.7554V26.4224C352.301 26.4139 351.836 26.3716 351.392 26.2954C350.951 26.2192 350.592 26.1198 350.312 25.9971V24.9688C350.604 25.1042 350.979 25.2227 351.436 25.3242C351.893 25.4258 352.344 25.4808 352.788 25.4893V22.6963C352.229 22.5397 351.766 22.362 351.398 22.1631C351.034 21.96 350.761 21.7124 350.579 21.4204C350.397 21.1284 350.306 20.7751 350.306 20.3604C350.306 19.9287 350.408 19.5605 350.611 19.2559C350.818 18.9469 351.108 18.7057 351.48 18.5322C351.853 18.3587 352.289 18.2593 352.788 18.2339V17.1357H353.562V18.2212C354.015 18.2339 354.428 18.2847 354.8 18.3735C355.173 18.4582 355.518 18.5682 355.835 18.7036L355.505 19.5859C355.217 19.4717 354.906 19.3743 354.572 19.2939C354.237 19.2135 353.901 19.1585 353.562 19.1289V21.9028C354.13 22.0679 354.604 22.2435 354.984 22.4297C355.369 22.6159 355.659 22.8465 355.854 23.1216C356.049 23.3966 356.146 23.7521 356.146 24.188C356.146 24.8058 355.92 25.3052 355.467 25.686C355.014 26.0627 354.379 26.2912 353.562 26.3716V27.7554H352.788ZM353.562 25.4321C354.083 25.3813 354.47 25.2565 354.724 25.0576C354.982 24.8545 355.111 24.5879 355.111 24.2578C355.111 24.0208 355.061 23.8262 354.959 23.6738C354.862 23.5215 354.701 23.3903 354.477 23.2803C354.252 23.166 353.948 23.0581 353.562 22.9565V25.4321ZM352.788 21.6362V19.1543C352.471 19.1755 352.204 19.2347 351.988 19.332C351.772 19.4294 351.61 19.5563 351.5 19.7129C351.394 19.8695 351.341 20.0557 351.341 20.2715C351.341 20.5212 351.387 20.7306 351.48 20.8999C351.578 21.0649 351.732 21.2067 351.944 21.3252C352.16 21.4395 352.441 21.5431 352.788 21.6362ZM363.712 22.3472C363.712 23.1004 363.655 23.7733 363.541 24.3657C363.427 24.9582 363.247 25.4596 363.001 25.8701C362.756 26.2806 362.439 26.5938 362.049 26.8096C361.66 27.0212 361.192 27.127 360.646 27.127C359.957 27.127 359.385 26.9386 358.933 26.562C358.484 26.1854 358.148 25.6416 357.923 24.9307C357.703 24.2155 357.593 23.3543 357.593 22.3472C357.593 21.3569 357.693 20.5063 357.892 19.7954C358.095 19.0802 358.421 18.5322 358.869 18.1514C359.318 17.7663 359.91 17.5737 360.646 17.5737C361.345 17.5737 361.92 17.7642 362.373 18.145C362.826 18.5216 363.162 19.0675 363.382 19.7827C363.602 20.4937 363.712 21.3485 363.712 22.3472ZM358.653 22.3472C358.653 23.2104 358.719 23.9299 358.85 24.5054C358.981 25.0809 359.193 25.5125 359.485 25.8003C359.781 26.0838 360.168 26.2256 360.646 26.2256C361.125 26.2256 361.51 26.0838 361.802 25.8003C362.098 25.5168 362.312 25.0872 362.443 24.5117C362.578 23.9362 362.646 23.2147 362.646 22.3472C362.646 21.4966 362.58 20.7856 362.449 20.2144C362.318 19.6388 362.106 19.2072 361.814 18.9194C361.522 18.6274 361.133 18.4814 360.646 18.4814C360.16 18.4814 359.771 18.6274 359.479 18.9194C359.187 19.2072 358.975 19.6388 358.844 20.2144C358.717 20.7856 358.653 21.4966 358.653 22.3472ZM365.331 26.3398C365.331 26.0436 365.403 25.8341 365.547 25.7114C365.691 25.5845 365.866 25.521 366.074 25.521C366.29 25.521 366.472 25.5845 366.62 25.7114C366.768 25.8341 366.842 26.0436 366.842 26.3398C366.842 26.6318 366.768 26.8455 366.62 26.981C366.472 27.1121 366.29 27.1777 366.074 27.1777C365.866 27.1777 365.691 27.1121 365.547 26.981C365.403 26.8455 365.331 26.6318 365.331 26.3398ZM374.567 22.3472C374.567 23.1004 374.51 23.7733 374.396 24.3657C374.281 24.9582 374.101 25.4596 373.856 25.8701C373.611 26.2806 373.293 26.5938 372.904 26.8096C372.514 27.0212 372.047 27.127 371.501 27.127C370.811 27.127 370.24 26.9386 369.787 26.562C369.339 26.1854 369.002 25.6416 368.778 24.9307C368.558 24.2155 368.448 23.3543 368.448 22.3472C368.448 21.3569 368.547 20.5063 368.746 19.7954C368.949 19.0802 369.275 18.5322 369.724 18.1514C370.172 17.7663 370.765 17.5737 371.501 17.5737C372.199 17.5737 372.775 17.7642 373.228 18.145C373.68 18.5216 374.017 19.0675 374.237 19.7827C374.457 20.4937 374.567 21.3485 374.567 22.3472ZM369.508 22.3472C369.508 23.2104 369.573 23.9299 369.705 24.5054C369.836 25.0809 370.047 25.5125 370.339 25.8003C370.636 26.0838 371.023 26.2256 371.501 26.2256C371.979 26.2256 372.364 26.0838 372.656 25.8003C372.952 25.5168 373.166 25.0872 373.297 24.5117C373.433 23.9362 373.5 23.2147 373.5 22.3472C373.5 21.4966 373.435 20.7856 373.304 20.2144C373.173 19.6388 372.961 19.2072 372.669 18.9194C372.377 18.6274 371.988 18.4814 371.501 18.4814C371.014 18.4814 370.625 18.6274 370.333 18.9194C370.041 19.2072 369.829 19.6388 369.698 20.2144C369.571 20.7856 369.508 21.4966 369.508 22.3472ZM382.006 22.3472C382.006 23.1004 381.949 23.7733 381.835 24.3657C381.721 24.9582 381.541 25.4596 381.295 25.8701C381.05 26.2806 380.733 26.5938 380.343 26.8096C379.954 27.0212 379.486 27.127 378.94 27.127C378.251 27.127 377.679 26.9386 377.227 26.562C376.778 26.1854 376.442 25.6416 376.217 24.9307C375.997 24.2155 375.887 23.3543 375.887 22.3472C375.887 21.3569 375.987 20.5063 376.186 19.7954C376.389 19.0802 376.715 18.5322 377.163 18.1514C377.612 17.7663 378.204 17.5737 378.94 17.5737C379.639 17.5737 380.214 17.7642 380.667 18.145C381.12 18.5216 381.456 19.0675 381.676 19.7827C381.896 20.4937 382.006 21.3485 382.006 22.3472ZM376.947 22.3472C376.947 23.2104 377.013 23.9299 377.144 24.5054C377.275 25.0809 377.487 25.5125 377.779 25.8003C378.075 26.0838 378.462 26.2256 378.94 26.2256C379.419 26.2256 379.804 26.0838 380.096 25.8003C380.392 25.5168 380.606 25.0872 380.737 24.5117C380.872 23.9362 380.94 23.2147 380.94 22.3472C380.94 21.4966 380.874 20.7856 380.743 20.2144C380.612 19.6388 380.4 19.2072 380.108 18.9194C379.816 18.6274 379.427 18.4814 378.94 18.4814C378.454 18.4814 378.064 18.6274 377.772 18.9194C377.48 19.2072 377.269 19.6388 377.138 20.2144C377.011 20.7856 376.947 21.4966 376.947 22.3472Z" fill="#7E7E7E"/>
</svg>
