<svg width="505" height="117" viewBox="0 0 505 117" fill="none" xmlns="http://www.w3.org/2000/svg">
<g clip-path="url(#clip0_351_6571)">
<path d="M197 10H-1V54H197V10Z" fill="#E04B4B"/>
<path d="M16.9531 40V25.7227H18.6133V38.5156H24.9512V40H16.9531ZM28.7792 29.2969V40H27.1582V29.2969H28.7792ZM27.9882 25.293C28.2552 25.293 28.483 25.3809 28.6718 25.5566C28.8672 25.7259 28.9648 25.9928 28.9648 26.3574C28.9648 26.7155 28.8672 26.9824 28.6718 27.1582C28.483 27.334 28.2552 27.4219 27.9882 27.4219C27.7084 27.4219 27.474 27.334 27.2852 27.1582C27.1028 26.9824 27.0118 26.7155 27.0118 26.3574C27.0118 25.9928 27.1028 25.7259 27.2852 25.5566C27.474 25.3809 27.7084 25.293 27.9882 25.293ZM43.8378 29.1016C45.0162 29.1016 45.905 29.4108 46.504 30.0292C47.1028 30.6412 47.4024 31.6276 47.4024 32.9882V40H45.8008V33.0664C45.8008 32.2006 45.612 31.5528 45.2344 31.123C44.8632 30.6868 44.3098 30.4688 43.5742 30.4688C42.539 30.4688 41.7872 30.7682 41.3184 31.3672C40.8496 31.9662 40.6152 32.8484 40.6152 34.0136V40H39.004V33.0664C39.004 32.487 38.9192 32.0052 38.75 31.621C38.5872 31.237 38.3398 30.9506 38.0078 30.7618C37.6822 30.5664 37.2688 30.4688 36.7676 30.4688C36.058 30.4688 35.4882 30.6152 35.0586 30.9082C34.629 31.2012 34.3164 31.6374 34.121 32.2168C33.9322 32.7898 33.8378 33.496 33.8378 34.336V40H32.2168V29.2969H33.5254L33.7696 30.8106H33.8574C34.0722 30.4394 34.3424 30.127 34.668 29.873C34.9934 29.6191 35.358 29.4271 35.7618 29.2969C36.1654 29.1667 36.595 29.1016 37.0508 29.1016C37.8646 29.1016 38.545 29.2546 39.0918 29.5605C39.6452 29.86 40.0456 30.319 40.293 30.9376H40.3808C40.7324 30.319 41.2142 29.86 41.8262 29.5605C42.4382 29.2546 43.1088 29.1016 43.8378 29.1016ZM52.3536 29.2969V40H50.7324V29.2969H52.3536ZM51.5624 25.293C51.8294 25.293 52.0572 25.3809 52.246 25.5566C52.4414 25.7259 52.539 25.9928 52.539 26.3574C52.539 26.7155 52.4414 26.9824 52.246 27.1582C52.0572 27.334 51.8294 27.4219 51.5624 27.4219C51.2826 27.4219 51.0482 27.334 50.8594 27.1582C50.677 26.9824 50.586 26.7155 50.586 26.3574C50.586 25.9928 50.677 25.7259 50.8594 25.5566C51.0482 25.3809 51.2826 25.293 51.5624 25.293ZM59.248 38.8672C59.515 38.8672 59.7884 38.8444 60.0684 38.7988C60.3484 38.7532 60.5762 38.698 60.752 38.6328V39.8926C60.5632 39.9772 60.2994 40.0488 59.961 40.1074C59.629 40.166 59.3034 40.1954 58.9844 40.1954C58.418 40.1954 57.9036 40.0976 57.4414 39.9024C56.9792 39.7006 56.608 39.362 56.3282 38.8868C56.0546 38.4114 55.918 37.754 55.918 36.914V30.5664H54.3946V29.7754L55.9278 29.1406L56.5722 26.8164H57.5488V29.2969H60.6836V30.5664H57.5488V36.8652C57.5488 37.5358 57.7018 38.0372 58.0078 38.3692C58.3204 38.7012 58.7338 38.8672 59.248 38.8672ZM73.4278 40H71.8458V29.8828C71.8458 29.4987 71.8458 29.1699 71.8458 28.8965C71.8522 28.6165 71.8588 28.3626 71.8652 28.1348C71.8782 27.9004 71.8946 27.6628 71.914 27.4219C71.7122 27.6302 71.5234 27.8092 71.3476 27.959C71.1718 28.1022 70.9538 28.2812 70.6934 28.4961L69.0624 29.8047L68.2128 28.7012L72.08 25.7227H73.4278V40ZM88.7304 25.7227C90.573 25.7227 91.9174 26.084 92.7636 26.8066C93.6166 27.5228 94.043 28.5514 94.043 29.8926C94.043 30.498 93.942 31.0742 93.7402 31.621C93.545 32.1614 93.226 32.64 92.7832 33.0566C92.3404 33.4668 91.7578 33.7924 91.0352 34.0332C90.319 34.2676 89.4402 34.3848 88.3984 34.3848H86.6602V40H85V25.7227H88.7304ZM88.5742 27.1387H86.6602V32.959H88.2128C89.1244 32.959 89.8828 32.8614 90.4882 32.666C91.1002 32.4708 91.5592 32.155 91.8652 31.7188C92.1712 31.276 92.3242 30.6902 92.3242 29.9609C92.3242 29.0104 92.0214 28.304 91.416 27.8418C90.8106 27.373 89.8632 27.1387 88.5742 27.1387ZM100.908 29.1016C101.82 29.1016 102.601 29.3034 103.252 29.707C103.903 30.1106 104.401 30.677 104.746 31.4062C105.091 32.129 105.264 32.9752 105.264 33.9454V34.9512H97.871C97.8906 36.2076 98.2032 37.1648 98.8086 37.8222C99.414 38.4798 100.267 38.8086 101.367 38.8086C102.044 38.8086 102.643 38.7468 103.164 38.623C103.685 38.4994 104.225 38.317 104.785 38.0762V39.502C104.245 39.7428 103.708 39.9186 103.174 40.0292C102.646 40.14 102.021 40.1954 101.299 40.1954C100.27 40.1954 99.3718 39.987 98.6036 39.5704C97.8418 39.1472 97.2494 38.5286 96.8262 37.7148C96.403 36.901 96.1914 35.905 96.1914 34.7266C96.1914 33.5742 96.3834 32.5782 96.7676 31.7382C97.1582 30.892 97.705 30.2408 98.4082 29.7852C99.1178 29.3294 99.9512 29.1016 100.908 29.1016ZM100.889 30.4296C100.023 30.4296 99.3326 30.7128 98.8184 31.2792C98.304 31.8458 97.998 32.6368 97.9004 33.6524H103.564C103.558 33.0144 103.457 32.4544 103.262 31.9726C103.073 31.4844 102.783 31.1068 102.393 30.8398C102.002 30.5664 101.501 30.4296 100.889 30.4296ZM112.881 29.1016C113.096 29.1016 113.32 29.1146 113.555 29.1406C113.789 29.1602 113.997 29.1895 114.18 29.2285L113.975 30.7324C113.799 30.6868 113.604 30.651 113.389 30.625C113.174 30.599 112.972 30.586 112.783 30.586C112.354 30.586 111.947 30.6738 111.562 30.8496C111.185 31.0188 110.853 31.2662 110.566 31.5918C110.28 31.9108 110.055 32.2982 109.893 32.754C109.73 33.2032 109.648 33.7044 109.648 34.2578V40H108.018V29.2969H109.365L109.541 31.2696H109.609C109.831 30.8724 110.098 30.511 110.41 30.1856C110.723 29.8535 111.084 29.5898 111.494 29.3945C111.911 29.1992 112.373 29.1016 112.881 29.1016ZM134.023 32.8418C134.023 33.942 133.883 34.9446 133.604 35.8496C133.324 36.748 132.907 37.5228 132.354 38.1738C131.807 38.8184 131.126 39.3164 130.312 39.668C129.499 40.0196 128.555 40.1954 127.48 40.1954C126.374 40.1954 125.407 40.0196 124.58 39.668C123.76 39.3164 123.076 38.8152 122.529 38.164C121.989 37.513 121.582 36.735 121.309 35.83C121.042 34.9252 120.908 33.9226 120.908 32.8222C120.908 31.364 121.149 30.0846 121.631 28.9844C122.113 27.8841 122.842 27.028 123.818 26.416C124.801 25.804 126.032 25.498 127.51 25.498C128.923 25.498 130.111 25.8008 131.074 26.4062C132.044 27.0117 132.777 27.8646 133.271 28.9648C133.773 30.0586 134.023 31.351 134.023 32.8418ZM122.656 32.8418C122.656 34.0528 122.829 35.101 123.174 35.9864C123.519 36.8718 124.046 37.5554 124.756 38.0372C125.472 38.5188 126.38 38.7598 127.48 38.7598C128.587 38.7598 129.492 38.5188 130.195 38.0372C130.905 37.5554 131.429 36.8718 131.768 35.9864C132.106 35.101 132.275 34.0528 132.275 32.8418C132.275 30.9994 131.888 29.5605 131.113 28.5254C130.345 27.4837 129.144 26.9629 127.51 26.9629C126.403 26.9629 125.492 27.2005 124.775 27.6758C124.059 28.151 123.525 28.8281 123.174 29.707C122.829 30.5794 122.656 31.6244 122.656 32.8418ZM141.826 29.1016C142.041 29.1016 142.266 29.1146 142.5 29.1406C142.734 29.1602 142.943 29.1895 143.125 29.2285L142.92 30.7324C142.744 30.6868 142.549 30.651 142.334 30.625C142.119 30.599 141.917 30.586 141.729 30.586C141.299 30.586 140.892 30.6738 140.508 30.8496C140.13 31.0188 139.798 31.2662 139.512 31.5918C139.225 31.9108 139.001 32.2982 138.838 32.754C138.675 33.2032 138.594 33.7044 138.594 34.2578V40H136.963V29.2969H138.311L138.486 31.2696H138.555C138.776 30.8724 139.043 30.511 139.355 30.1856C139.668 29.8535 140.029 29.5898 140.439 29.3945C140.856 29.1992 141.318 29.1016 141.826 29.1016ZM148.955 40.1954C147.601 40.1954 146.527 39.733 145.732 38.8086C144.945 37.8842 144.551 36.5104 144.551 34.6876C144.551 32.845 144.954 31.455 145.762 30.5176C146.569 29.5736 147.643 29.1016 148.984 29.1016C149.551 29.1016 150.046 29.1764 150.469 29.3262C150.892 29.4759 151.257 29.6777 151.562 29.9316C151.868 30.179 152.126 30.4622 152.334 30.7812H152.451C152.425 30.5794 152.399 30.3028 152.373 29.9512C152.347 29.5996 152.334 29.3132 152.334 29.0918V24.8047H153.955V40H152.646L152.402 38.4766H152.334C152.132 38.7956 151.875 39.0852 151.562 39.3458C151.257 39.6062 150.889 39.8144 150.459 39.9708C150.036 40.1204 149.535 40.1954 148.955 40.1954ZM149.209 38.8476C150.355 38.8476 151.165 38.5222 151.641 37.871C152.116 37.22 152.354 36.2532 152.354 34.9708V34.6778C152.354 33.317 152.126 32.2722 151.67 31.543C151.221 30.8138 150.4 30.4492 149.209 30.4492C148.213 30.4492 147.467 30.8334 146.973 31.6016C146.478 32.3632 146.23 33.405 146.23 34.7266C146.23 36.0416 146.475 37.0572 146.963 37.7734C147.458 38.4896 148.206 38.8476 149.209 38.8476ZM161.514 29.1016C162.425 29.1016 163.206 29.3034 163.857 29.707C164.508 30.1106 165.007 30.677 165.352 31.4062C165.697 32.129 165.869 32.9752 165.869 33.9454V34.9512H158.477C158.496 36.2076 158.809 37.1648 159.414 37.8222C160.02 38.4798 160.872 38.8086 161.973 38.8086C162.65 38.8086 163.249 38.7468 163.77 38.623C164.29 38.4994 164.831 38.317 165.391 38.0762V39.502C164.85 39.7428 164.313 39.9186 163.779 40.0292C163.252 40.14 162.627 40.1954 161.904 40.1954C160.876 40.1954 159.977 39.987 159.209 39.5704C158.447 39.1472 157.855 38.5286 157.432 37.7148C157.008 36.901 156.797 35.905 156.797 34.7266C156.797 33.5742 156.989 32.5782 157.373 31.7382C157.764 30.892 158.311 30.2408 159.014 29.7852C159.723 29.3294 160.557 29.1016 161.514 29.1016ZM161.494 30.4296C160.628 30.4296 159.938 30.7128 159.424 31.2792C158.91 31.8458 158.604 32.6368 158.506 33.6524H164.17C164.163 33.0144 164.062 32.4544 163.867 31.9726C163.678 31.4844 163.389 31.1068 162.998 30.8398C162.607 30.5664 162.106 30.4296 161.494 30.4296ZM173.486 29.1016C173.701 29.1016 173.926 29.1146 174.16 29.1406C174.395 29.1602 174.603 29.1895 174.785 29.2285L174.58 30.7324C174.404 30.6868 174.209 30.651 173.994 30.625C173.779 30.599 173.577 30.586 173.389 30.586C172.959 30.586 172.552 30.6738 172.168 30.8496C171.79 31.0188 171.458 31.2662 171.172 31.5918C170.885 31.9108 170.661 32.2982 170.498 32.754C170.335 33.2032 170.254 33.7044 170.254 34.2578V40H168.623V29.2969H169.971L170.146 31.2696H170.215C170.436 30.8724 170.703 30.511 171.016 30.1856C171.328 29.8535 171.689 29.5898 172.1 29.3945C172.516 29.1992 172.979 29.1016 173.486 29.1016ZM176.562 38.9844C176.562 38.5286 176.673 38.2064 176.895 38.0176C177.116 37.8222 177.386 37.7246 177.705 37.7246C178.037 37.7246 178.317 37.8222 178.545 38.0176C178.773 38.2064 178.887 38.5286 178.887 38.9844C178.887 39.4336 178.773 39.7624 178.545 39.9708C178.317 40.1726 178.037 40.2734 177.705 40.2734C177.386 40.2734 177.116 40.1726 176.895 39.9708C176.673 39.7624 176.562 39.4336 176.562 38.9844Z" fill="#F5F5F5"/>
<path d="M427 62H-1V106H427V62Z" fill="#D3E8E0"/>
<g style="mix-blend-mode:luminosity">
<path d="M21.3339 92.0001H19.6641V79.1877H15.1719V77.7227H25.8067V79.1877H21.3339V92.0001ZM29.3419 76.8047V81.3459C29.3419 81.6063 29.3353 81.8699 29.3223 82.1369C29.3093 82.3973 29.2865 82.6381 29.2539 82.8595H29.3613C29.5827 82.4819 29.8627 82.1661 30.2011 81.9123C30.5463 81.6517 30.9369 81.4565 31.3731 81.3263C31.8093 81.1895 32.2715 81.1211 32.7597 81.1211C33.6191 81.1211 34.3353 81.2579 34.9083 81.5313C35.4877 81.8047 35.9205 82.2279 36.2071 82.8009C36.5001 83.3737 36.6465 84.1159 36.6465 85.0275V92.0001H35.0449V85.1349C35.0449 84.2429 34.8399 83.5757 34.4297 83.1329C34.0261 82.6903 33.4043 82.4689 32.5645 82.4689C31.7701 82.4689 31.1355 82.6219 30.6601 82.9279C30.1915 83.2273 29.8529 83.6701 29.6445 84.2559C29.4427 84.8419 29.3419 85.5581 29.3419 86.4043V92.0001H27.7207V76.8047H29.3419ZM41.6075 81.2969V92.0001H39.9863V81.2969H41.6075ZM40.8165 77.2931C41.0833 77.2931 41.3113 77.3809 41.5001 77.5567C41.6953 77.7261 41.7929 77.9929 41.7929 78.3575C41.7929 78.7155 41.6953 78.9825 41.5001 79.1583C41.3113 79.3341 41.0833 79.4219 40.8165 79.4219C40.5365 79.4219 40.3021 79.3341 40.1133 79.1583C39.9309 78.9825 39.8399 78.7155 39.8399 78.3575C39.8399 77.9929 39.9309 77.7261 40.1133 77.5567C40.3021 77.3809 40.5365 77.2931 40.8165 77.2931ZM51.9687 89.0705C51.9687 89.7541 51.7963 90.3301 51.4511 90.7989C51.1127 91.2611 50.6243 91.6095 49.9863 91.8439C49.3549 92.0783 48.5997 92.1955 47.7207 92.1955C46.9721 92.1955 46.3243 92.1369 45.7773 92.0197C45.2305 91.9025 44.7519 91.7365 44.3419 91.5215V90.0275C44.7781 90.2423 45.2989 90.4377 45.9043 90.6133C46.5097 90.7891 47.1283 90.8771 47.7597 90.8771C48.6843 90.8771 49.3549 90.7273 49.7715 90.4279C50.1881 90.1283 50.3965 89.7215 50.3965 89.2071C50.3965 88.9141 50.3119 88.6571 50.1425 88.4357C49.9799 88.2077 49.7031 87.9897 49.3125 87.7813C48.9219 87.5665 48.3815 87.3321 47.6915 87.0783C47.0079 86.8179 46.4153 86.5607 45.9141 86.3067C45.4193 86.0463 45.0351 85.7305 44.7617 85.3595C44.4947 84.9883 44.3613 84.5067 44.3613 83.9141C44.3613 83.0093 44.7259 82.3159 45.4551 81.8341C46.1907 81.3459 47.1543 81.1017 48.3457 81.1017C48.9903 81.1017 49.5925 81.1667 50.1523 81.2969C50.7187 81.4207 51.2461 81.5899 51.7343 81.8047L51.1875 83.1037C50.7447 82.9149 50.2727 82.7553 49.7715 82.6251C49.2701 82.4949 48.7591 82.4297 48.2383 82.4297C47.4895 82.4297 46.9135 82.5535 46.5097 82.8009C46.1127 83.0483 45.9141 83.3869 45.9141 83.8165C45.9141 84.1485 46.0053 84.4219 46.1875 84.6369C46.3763 84.8517 46.6757 85.0535 47.0859 85.2423C47.4961 85.4311 48.0365 85.6525 48.7071 85.9063C49.3777 86.1537 49.9571 86.4109 50.4453 86.6779C50.9337 86.9383 51.3079 87.2573 51.5683 87.6349C51.8353 88.0059 51.9687 88.4845 51.9687 89.0705ZM60.0157 92.0001V77.7227H61.6757V92.0001H60.0157ZM68.8145 90.8673C69.0813 90.8673 69.3549 90.8445 69.6347 90.7989C69.9147 90.7533 70.1425 90.6981 70.3183 90.6329V91.8927C70.1295 91.9773 69.8659 92.0489 69.5273 92.1075C69.1953 92.1661 68.8697 92.1955 68.5507 92.1955C67.9843 92.1955 67.4701 92.0977 67.0079 91.9025C66.5455 91.7007 66.1745 91.3621 65.8945 90.8869C65.6211 90.4115 65.4843 89.7541 65.4843 88.9141V82.5665H63.9609V81.7755L65.4941 81.1407L66.1387 78.8165H67.1153V81.2969H70.2501V82.5665H67.1153V88.8653C67.1153 89.5359 67.2683 90.0373 67.5743 90.3693C67.8867 90.7013 68.3001 90.8673 68.8145 90.8673ZM76.6075 81.1017C77.5189 81.1017 78.3001 81.3035 78.9511 81.7071C79.6023 82.1107 80.1003 82.6771 80.4453 83.4063C80.7903 84.1291 80.9629 84.9753 80.9629 85.9455V86.9513H73.5703C73.5899 88.2077 73.9023 89.1649 74.5079 89.8223C75.1133 90.4799 75.9661 90.8087 77.0665 90.8087C77.7435 90.8087 78.3425 90.7469 78.8633 90.6231C79.3841 90.4995 79.9245 90.3171 80.4843 90.0763V91.5021C79.9441 91.7429 79.4069 91.9187 78.8731 92.0293C78.3457 92.1401 77.7207 92.1955 76.9981 92.1955C75.9695 92.1955 75.0709 91.9871 74.3027 91.5705C73.5411 91.1473 72.9485 90.5287 72.5253 89.7149C72.1023 88.9011 71.8907 87.9051 71.8907 86.7267C71.8907 85.5743 72.0827 84.5783 72.4669 83.7383C72.8575 82.8921 73.4043 82.2409 74.1075 81.7853C74.8171 81.3295 75.6503 81.1017 76.6075 81.1017ZM76.5879 82.4297C75.7221 82.4297 75.0319 82.7129 74.5175 83.2793C74.0033 83.8459 73.6973 84.6369 73.5997 85.6525H79.2637C79.2571 85.0145 79.1563 84.4545 78.9609 83.9727C78.7721 83.4845 78.4825 83.1069 78.0919 82.8399C77.7011 82.5665 77.1999 82.4297 76.5879 82.4297ZM95.3379 81.1017C96.5163 81.1017 97.4049 81.4109 98.0039 82.0293C98.6029 82.6413 98.9023 83.6277 98.9023 84.9883V92.0001H97.3007V85.0665C97.3007 84.2007 97.1119 83.5529 96.7343 83.1231C96.3633 82.6869 95.8099 82.4689 95.0743 82.4689C94.0391 82.4689 93.2871 82.7683 92.8183 83.3673C92.3497 83.9663 92.1153 84.8485 92.1153 86.0137V92.0001H90.5039V85.0665C90.5039 84.4871 90.4193 84.0053 90.2501 83.6211C90.0873 83.2371 89.8399 82.9507 89.5079 82.7619C89.1823 82.5665 88.7689 82.4689 88.2675 82.4689C87.5579 82.4689 86.9883 82.6153 86.5585 82.9083C86.1289 83.2013 85.8165 83.6375 85.6211 84.2169C85.4323 84.7899 85.3379 85.4961 85.3379 86.3361V92.0001H83.7169V81.2969H85.0253L85.2695 82.8107H85.3575C85.5723 82.4395 85.8425 82.1271 86.1679 81.8731C86.4935 81.6193 86.8581 81.4271 87.2617 81.2969C87.6653 81.1667 88.0951 81.1017 88.5507 81.1017C89.3645 81.1017 90.0449 81.2547 90.5919 81.5607C91.1451 81.8601 91.5455 82.3191 91.7929 82.9377H91.8809C92.2325 82.3191 92.7141 81.8601 93.3261 81.5607C93.9381 81.2547 94.6087 81.1017 95.3379 81.1017ZM107.672 92.0001V77.7227H109.332V92.0001H107.672ZM119.938 89.0705C119.938 89.7541 119.765 90.3301 119.42 90.7989C119.081 91.2611 118.593 91.6095 117.955 91.8439C117.324 92.0783 116.568 92.1955 115.69 92.1955C114.941 92.1955 114.293 92.1369 113.746 92.0197C113.199 91.9025 112.721 91.7365 112.311 91.5215V90.0275C112.747 90.2423 113.268 90.4377 113.873 90.6133C114.479 90.7891 115.097 90.8771 115.729 90.8771C116.653 90.8771 117.324 90.7273 117.74 90.4279C118.157 90.1283 118.365 89.7215 118.365 89.2071C118.365 88.9141 118.281 88.6571 118.111 88.4357C117.949 88.2077 117.672 87.9897 117.281 87.7813C116.891 87.5665 116.35 87.3321 115.66 87.0783C114.977 86.8179 114.384 86.5607 113.883 86.3067C113.388 86.0463 113.004 85.7305 112.731 85.3595C112.464 84.9883 112.33 84.5067 112.33 83.9141C112.33 83.0093 112.695 82.3159 113.424 81.8341C114.16 81.3459 115.123 81.1017 116.315 81.1017C116.959 81.1017 117.561 81.1667 118.121 81.2969C118.688 81.4207 119.215 81.5899 119.703 81.8047L119.156 83.1037C118.714 82.9149 118.242 82.7553 117.74 82.6251C117.239 82.4949 116.728 82.4297 116.207 82.4297C115.458 82.4297 114.882 82.5535 114.479 82.8009C114.081 83.0483 113.883 83.3869 113.883 83.8165C113.883 84.1485 113.974 84.4219 114.156 84.6369C114.345 84.8517 114.645 85.0535 115.055 85.2423C115.465 85.4311 116.005 85.6525 116.676 85.9063C117.346 86.1537 117.926 86.4109 118.414 86.6779C118.902 86.9383 119.277 87.2573 119.537 87.6349C119.804 88.0059 119.938 88.4845 119.938 89.0705ZM129.645 92.0001H127.984V77.7227H135.934V79.1877H129.645V84.4219H135.553V85.8771H129.645V92.0001ZM142.174 77.7227C143.346 77.7227 144.313 77.8693 145.074 78.1623C145.843 78.4487 146.415 78.8881 146.793 79.4805C147.171 80.0731 147.359 80.8283 147.359 81.7461C147.359 82.5015 147.223 83.1329 146.949 83.6407C146.676 84.1421 146.318 84.5489 145.875 84.8615C145.432 85.1739 144.96 85.4149 144.459 85.5841L148.375 92.0001H146.442L142.945 86.0431H139.977V92.0001H138.317V77.7227H142.174ZM142.076 79.1583H139.977V84.6369H142.242C143.408 84.6369 144.264 84.3991 144.811 83.9239C145.364 83.4487 145.641 82.7487 145.641 81.8243C145.641 80.8543 145.348 80.1675 144.762 79.7637C144.182 79.3601 143.287 79.1583 142.076 79.1583ZM158.609 92.0001H150.66V77.7227H158.609V79.1877H152.32V83.8067H158.248V85.2521H152.32V90.5353H158.609V92.0001ZM169.723 92.0001H161.774V77.7227H169.723V79.1877H163.434V83.8067H169.361V85.2521H163.434V90.5353H169.723V92.0001ZM174.108 88.0353H173.043L172.594 77.7227H174.557L174.108 88.0353ZM172.399 90.9845C172.399 90.5287 172.509 90.2065 172.731 90.0177C172.952 89.8223 173.229 89.7247 173.561 89.7247C173.886 89.7247 174.16 89.8223 174.381 90.0177C174.609 90.2065 174.723 90.5287 174.723 90.9845C174.723 91.4337 174.609 91.7625 174.381 91.9709C174.16 92.1727 173.886 92.2735 173.561 92.2735C173.229 92.2735 172.952 92.1727 172.731 91.9709C172.509 91.7625 172.399 91.4337 172.399 90.9845ZM183.375 92.0001V77.7227H185.035V90.5157H191.373V92.0001H183.375ZM195.201 81.2969V92.0001H193.58V81.2969H195.201ZM194.41 77.2931C194.677 77.2931 194.905 77.3809 195.094 77.5567C195.289 77.7261 195.387 77.9929 195.387 78.3575C195.387 78.7155 195.289 78.9825 195.094 79.1583C194.905 79.3341 194.677 79.4219 194.41 79.4219C194.13 79.4219 193.896 79.3341 193.707 79.1583C193.525 78.9825 193.434 78.7155 193.434 78.3575C193.434 77.9929 193.525 77.7261 193.707 77.5567C193.896 77.3809 194.13 77.2931 194.41 77.2931ZM210.26 81.1017C211.438 81.1017 212.326 81.4109 212.926 82.0293C213.524 82.6413 213.824 83.6277 213.824 84.9883V92.0001H212.222V85.0665C212.222 84.2007 212.034 83.5529 211.656 83.1231C211.286 82.6869 210.732 82.4689 209.996 82.4689C208.96 82.4689 208.208 82.7683 207.74 83.3673C207.272 83.9663 207.038 84.8485 207.038 86.0137V92.0001H205.426V85.0665C205.426 84.4871 205.342 84.0053 205.172 83.6211C205.01 83.2371 204.762 82.9507 204.43 82.7619C204.104 82.5665 203.69 82.4689 203.19 82.4689C202.48 82.4689 201.91 82.6153 201.48 82.9083C201.05 83.2013 200.738 83.6375 200.542 84.2169C200.354 84.7899 200.26 85.4961 200.26 86.3361V92.0001H198.639V81.2969H199.948L200.192 82.8107H200.28C200.494 82.4395 200.764 82.1271 201.09 81.8731C201.416 81.6193 201.78 81.4271 202.184 81.2969C202.588 81.1667 203.016 81.1017 203.472 81.1017C204.286 81.1017 204.966 81.2547 205.514 81.5607C206.066 81.8601 206.468 82.3191 206.714 82.9377H206.802C207.154 82.3191 207.636 81.8601 208.248 81.5607C208.86 81.2547 209.53 81.1017 210.26 81.1017ZM218.776 81.2969V92.0001H217.154V81.2969H218.776ZM217.984 77.2931C218.252 77.2931 218.48 77.3809 218.668 77.5567C218.864 77.7261 218.96 77.9929 218.96 78.3575C218.96 78.7155 218.864 78.9825 218.668 79.1583C218.48 79.3341 218.252 79.4219 217.984 79.4219C217.704 79.4219 217.47 79.3341 217.282 79.1583C217.098 78.9825 217.008 78.7155 217.008 78.3575C217.008 77.9929 217.098 77.7261 217.282 77.5567C217.47 77.3809 217.704 77.2931 217.984 77.2931ZM225.67 90.8673C225.936 90.8673 226.21 90.8445 226.49 90.7989C226.77 90.7533 226.998 90.6981 227.174 90.6329V91.8927C226.984 91.9773 226.722 92.0489 226.382 92.1075C226.05 92.1661 225.726 92.1955 225.406 92.1955C224.84 92.1955 224.326 92.0977 223.864 91.9025C223.4 91.7007 223.03 91.3621 222.75 90.8869C222.476 90.4115 222.34 89.7541 222.34 88.9141V82.5665H220.816V81.7755L222.35 81.1407L222.994 78.8165H223.97V81.2969H227.106V82.5665H223.97V88.8653C223.97 89.5359 224.124 90.0373 224.43 90.3693C224.742 90.7013 225.156 90.8673 225.67 90.8673ZM247.164 84.8419C247.164 85.9421 247.024 86.9447 246.744 87.8497C246.464 88.7481 246.048 89.5229 245.494 90.1739C244.948 90.8185 244.266 91.3165 243.454 91.6681C242.64 92.0197 241.696 92.1955 240.62 92.1955C239.514 92.1955 238.548 92.0197 237.72 91.6681C236.9 91.3165 236.216 90.8153 235.67 90.1641C235.13 89.5131 234.722 88.7351 234.45 87.8301C234.182 86.9253 234.048 85.9227 234.048 84.8223C234.048 83.3641 234.29 82.0847 234.772 80.9845C235.254 79.8843 235.982 79.0281 236.958 78.4161C237.942 77.8041 239.172 77.4981 240.65 77.4981C242.064 77.4981 243.252 77.8009 244.214 78.4063C245.184 79.0119 245.918 79.8647 246.412 80.9649C246.914 82.0587 247.164 83.3511 247.164 84.8419ZM235.796 84.8419C235.796 86.0529 235.97 87.1011 236.314 87.9865C236.66 88.8719 237.186 89.5555 237.896 90.0373C238.612 90.5189 239.52 90.7599 240.62 90.7599C241.728 90.7599 242.632 90.5189 243.336 90.0373C244.046 89.5555 244.57 88.8719 244.908 87.9865C245.246 87.1011 245.416 86.0529 245.416 84.8419C245.416 82.9995 245.028 81.5607 244.254 80.5255C243.486 79.4839 242.284 78.9629 240.65 78.9629C239.544 78.9629 238.632 79.2007 237.916 79.6759C237.2 80.1511 236.666 80.8283 236.314 81.7071C235.97 82.5795 235.796 83.6245 235.796 84.8419ZM255.172 81.1017C256.442 81.1017 257.402 81.4141 258.052 82.0391C258.704 82.6577 259.03 83.6537 259.03 85.0275V92.0001H257.428V85.1349C257.428 84.2429 257.222 83.5757 256.812 83.1329C256.408 82.6903 255.788 82.4689 254.948 82.4689C253.762 82.4689 252.928 82.8041 252.448 83.4747C251.966 84.1453 251.724 85.1185 251.724 86.3947V92.0001H250.104V81.2969H251.412L251.656 82.8399H251.744C251.972 82.4623 252.262 82.1465 252.614 81.8927C252.964 81.6323 253.358 81.4369 253.794 81.3067C254.232 81.1701 254.69 81.1017 255.172 81.1017ZM266.49 81.1017C267.402 81.1017 268.182 81.3035 268.834 81.7071C269.484 82.1107 269.982 82.6771 270.328 83.4063C270.674 84.1291 270.846 84.9753 270.846 85.9455V86.9513H263.454C263.472 88.2077 263.786 89.1649 264.39 89.8223C264.996 90.4799 265.848 90.8087 266.95 90.8087C267.626 90.8087 268.226 90.7469 268.746 90.6231C269.266 90.4995 269.808 90.3171 270.368 90.0763V91.5021C269.826 91.7429 269.29 91.9187 268.756 92.0293C268.228 92.1401 267.604 92.1955 266.88 92.1955C265.852 92.1955 264.954 91.9871 264.186 91.5705C263.424 91.1473 262.832 90.5287 262.408 89.7149C261.984 88.9011 261.774 87.9051 261.774 86.7267C261.774 85.5743 261.966 84.5783 262.35 83.7383C262.74 82.8921 263.288 82.2409 263.99 81.7853C264.7 81.3295 265.534 81.1017 266.49 81.1017ZM266.47 82.4297C265.604 82.4297 264.914 82.7129 264.4 83.2793C263.886 83.8459 263.58 84.6369 263.482 85.6525H269.146C269.14 85.0145 269.038 84.4545 268.844 83.9727C268.654 83.4845 268.366 83.1069 267.974 82.8399C267.584 82.5665 267.082 82.4297 266.47 82.4297ZM282.77 77.7227C284.612 77.7227 285.956 78.0841 286.802 78.8067C287.656 79.5229 288.082 80.5515 288.082 81.8927C288.082 82.4981 287.982 83.0743 287.78 83.6211C287.584 84.1615 287.264 84.6401 286.822 85.0567C286.38 85.4669 285.796 85.7925 285.074 86.0333C284.358 86.2677 283.48 86.3849 282.438 86.3849H280.7V92.0001H279.038V77.7227H282.77ZM282.614 79.1387H280.7V84.9591H282.252C283.164 84.9591 283.922 84.8615 284.528 84.6661C285.14 84.4709 285.598 84.1551 285.904 83.7189C286.21 83.2761 286.364 82.6903 286.364 81.9611C286.364 81.0105 286.06 80.3041 285.454 79.8419C284.85 79.3731 283.902 79.1387 282.614 79.1387ZM294.948 81.1017C295.858 81.1017 296.64 81.3035 297.29 81.7071C297.942 82.1107 298.44 82.6771 298.786 83.4063C299.13 84.1291 299.302 84.9753 299.302 85.9455V86.9513H291.91C291.93 88.2077 292.242 89.1649 292.848 89.8223C293.454 90.4799 294.306 90.8087 295.406 90.8087C296.084 90.8087 296.682 90.7469 297.204 90.6231C297.724 90.4995 298.264 90.3171 298.824 90.0763V91.5021C298.284 91.7429 297.746 91.9187 297.212 92.0293C296.686 92.1401 296.06 92.1955 295.338 92.1955C294.31 92.1955 293.41 91.9871 292.642 91.5705C291.88 91.1473 291.288 90.5287 290.866 89.7149C290.442 88.9011 290.23 87.9051 290.23 86.7267C290.23 85.5743 290.422 84.5783 290.806 83.7383C291.198 82.8921 291.744 82.2409 292.448 81.7853C293.156 81.3295 293.99 81.1017 294.948 81.1017ZM294.928 82.4297C294.062 82.4297 293.372 82.7129 292.858 83.2793C292.344 83.8459 292.038 84.6369 291.94 85.6525H297.604C297.596 85.0145 297.496 84.4545 297.3 83.9727C297.112 83.4845 296.822 83.1069 296.432 82.8399C296.04 82.5665 295.54 82.4297 294.928 82.4297ZM306.92 81.1017C307.134 81.1017 307.36 81.1147 307.594 81.1407C307.828 81.1603 308.036 81.1895 308.218 81.2287L308.014 82.7325C307.838 82.6869 307.642 82.6511 307.428 82.6251C307.212 82.5991 307.01 82.5861 306.822 82.5861C306.392 82.5861 305.986 82.6739 305.602 82.8497C305.224 83.0189 304.892 83.2663 304.606 83.5919C304.318 83.9109 304.094 84.2983 303.932 84.7541C303.768 85.2033 303.688 85.7045 303.688 86.2579V92.0001H302.056V81.2969H303.404L303.58 83.2697H303.648C303.87 82.8725 304.136 82.5111 304.45 82.1857C304.762 81.8537 305.122 81.5899 305.534 81.3947C305.95 81.1993 306.412 81.1017 306.92 81.1017ZM321.784 78.9825C320.996 78.9825 320.286 79.1193 319.654 79.3927C319.03 79.6597 318.496 80.0503 318.052 80.5645C317.616 81.0723 317.282 81.6877 317.046 82.4103C316.812 83.1329 316.696 83.9467 316.696 84.8517C316.696 86.0495 316.88 87.0913 317.252 87.9767C317.63 88.8555 318.19 89.5359 318.932 90.0177C319.68 90.4995 320.614 90.7403 321.734 90.7403C322.372 90.7403 322.972 90.6883 323.532 90.5841C324.098 90.4735 324.648 90.3367 325.182 90.1739V91.6193C324.66 91.8145 324.114 91.9577 323.54 92.0489C322.968 92.1465 322.288 92.1955 321.5 92.1955C320.048 92.1955 318.834 91.8959 317.858 91.2969C316.888 90.6915 316.158 89.8387 315.67 88.7383C315.188 87.6381 314.948 86.3393 314.948 84.8419C314.948 83.7611 315.096 82.7749 315.396 81.8829C315.702 80.9845 316.146 80.2097 316.724 79.5587C317.31 78.9077 318.026 78.4063 318.872 78.0547C319.726 77.6967 320.702 77.5177 321.802 77.5177C322.526 77.5177 323.222 77.5893 323.892 77.7325C324.564 77.8757 325.168 78.0809 325.708 78.3477L325.044 79.7541C324.59 79.5457 324.088 79.3667 323.54 79.2169C323 79.0607 322.414 78.9825 321.784 78.9825ZM336.872 81.2969V92.0001H335.542L335.308 90.4961H335.22C335 90.8673 334.712 91.1797 334.362 91.4337C334.01 91.6877 333.612 91.8765 333.17 92.0001C332.734 92.1303 332.268 92.1955 331.774 92.1955C330.926 92.1955 330.218 92.0587 329.644 91.7853C329.072 91.5119 328.638 91.0887 328.346 90.5157C328.06 89.9429 327.916 89.2071 327.916 88.3087V81.2969H329.556V88.1915C329.556 89.0835 329.758 89.7507 330.162 90.1935C330.566 90.6297 331.18 90.8477 332.008 90.8477C332.802 90.8477 333.434 90.6981 333.902 90.3985C334.378 90.0991 334.72 89.6597 334.928 89.0801C335.136 88.4943 335.24 87.7781 335.24 86.9317V81.2969H336.872ZM347.222 89.0705C347.222 89.7541 347.05 90.3301 346.704 90.7989C346.366 91.2611 345.878 91.6095 345.24 91.8439C344.608 92.0783 343.854 92.1955 342.974 92.1955C342.226 92.1955 341.578 92.1369 341.032 92.0197C340.484 91.9025 340.006 91.7365 339.596 91.5215V90.0275C340.032 90.2423 340.552 90.4377 341.158 90.6133C341.764 90.7891 342.382 90.8771 343.014 90.8771C343.938 90.8771 344.608 90.7273 345.026 90.4279C345.442 90.1283 345.65 89.7215 345.65 89.2071C345.65 88.9141 345.566 88.6571 345.396 88.4357C345.234 88.2077 344.956 87.9897 344.566 87.7813C344.176 87.5665 343.636 87.3321 342.946 87.0783C342.262 86.8179 341.67 86.5607 341.168 86.3067C340.674 86.0463 340.288 85.7305 340.016 85.3595C339.748 84.9883 339.616 84.5067 339.616 83.9141C339.616 83.0093 339.98 82.3159 340.708 81.8341C341.444 81.3459 342.408 81.1017 343.6 81.1017C344.244 81.1017 344.846 81.1667 345.406 81.2969C345.972 81.4207 346.5 81.5899 346.988 81.8047L346.442 83.1037C345.998 82.9149 345.526 82.7553 345.026 82.6251C344.524 82.4949 344.012 82.4297 343.492 82.4297C342.744 82.4297 342.168 82.5535 341.764 82.8009C341.366 83.0483 341.168 83.3869 341.168 83.8165C341.168 84.1485 341.26 84.4219 341.442 84.6369C341.63 84.8517 341.93 85.0535 342.34 85.2423C342.75 85.4311 343.29 85.6525 343.96 85.9063C344.632 86.1537 345.21 86.4109 345.7 86.6779C346.188 86.9383 346.562 87.2573 346.822 87.6349C347.09 88.0059 347.222 88.4845 347.222 89.0705ZM353.288 90.8673C353.554 90.8673 353.828 90.8445 354.108 90.7989C354.388 90.7533 354.616 90.6981 354.79 90.6329V91.8927C354.602 91.9773 354.338 92.0489 354 92.1075C353.668 92.1661 353.342 92.1955 353.024 92.1955C352.456 92.1955 351.942 92.0977 351.48 91.9025C351.018 91.7007 350.648 91.3621 350.368 90.8869C350.094 90.4115 349.956 89.7541 349.956 88.9141V82.5665H348.434V81.7755L349.966 81.1407L350.612 78.8165H351.588V81.2969H354.722V82.5665H351.588V88.8653C351.588 89.5359 351.74 90.0373 352.046 90.3693C352.36 90.7013 352.772 90.8673 353.288 90.8673ZM366.188 86.6291C366.188 87.5079 366.074 88.2925 365.846 88.9825C365.618 89.6727 365.288 90.2553 364.86 90.7305C364.43 91.2059 363.908 91.5705 363.296 91.8243C362.692 92.0717 362.004 92.1955 361.236 92.1955C360.52 92.1955 359.862 92.0717 359.264 91.8243C358.672 91.5705 358.156 91.2059 357.72 90.7305C357.29 90.2553 356.956 89.6727 356.714 88.9825C356.48 88.2925 356.364 87.5079 356.364 86.6291C356.364 85.4571 356.562 84.4611 356.958 83.6407C357.356 82.8139 357.922 82.1857 358.658 81.7559C359.4 81.3197 360.282 81.1017 361.304 81.1017C362.282 81.1017 363.134 81.3197 363.864 81.7559C364.598 82.1921 365.168 82.8237 365.572 83.6505C365.982 84.4709 366.188 85.4637 366.188 86.6291ZM358.042 86.6291C358.042 87.4883 358.156 88.2339 358.384 88.8653C358.612 89.4969 358.964 89.9851 359.44 90.3301C359.914 90.6753 360.526 90.8477 361.276 90.8477C362.018 90.8477 362.626 90.6753 363.102 90.3301C363.584 89.9851 363.938 89.4969 364.166 88.8653C364.394 88.2339 364.508 87.4883 364.508 86.6291C364.508 85.7761 364.394 85.0405 364.166 84.4219C363.938 83.7969 363.586 83.3153 363.112 82.9767C362.636 82.6381 362.02 82.4689 361.266 82.4689C360.152 82.4689 359.336 82.8367 358.814 83.5723C358.3 84.3081 358.042 85.3269 358.042 86.6291ZM380.612 81.1017C381.79 81.1017 382.678 81.4109 383.278 82.0293C383.876 82.6413 384.176 83.6277 384.176 84.9883V92.0001H382.574V85.0665C382.574 84.2007 382.386 83.5529 382.008 83.1231C381.636 82.6869 381.084 82.4689 380.348 82.4689C379.312 82.4689 378.56 82.7683 378.092 83.3673C377.622 83.9663 377.388 84.8485 377.388 86.0137V92.0001H375.778V85.0665C375.778 84.4871 375.692 84.0053 375.524 83.6211C375.36 83.2371 375.114 82.9507 374.782 82.7619C374.456 82.5665 374.042 82.4689 373.54 82.4689C372.832 82.4689 372.262 82.6153 371.832 82.9083C371.402 83.2013 371.09 83.6375 370.894 84.2169C370.706 84.7899 370.612 85.4961 370.612 86.3361V92.0001H368.99V81.2969H370.298L370.542 82.8107H370.63C370.846 82.4395 371.116 82.1271 371.442 81.8731C371.766 81.6193 372.132 81.4271 372.536 81.2969C372.938 81.1667 373.368 81.1017 373.824 81.1017C374.638 81.1017 375.318 81.2547 375.866 81.5607C376.418 81.8601 376.818 82.3191 377.066 82.9377H377.154C377.506 82.3191 377.988 81.8601 378.6 81.5607C379.212 81.2547 379.882 81.1017 380.612 81.1017ZM391.626 81.1017C392.538 81.1017 393.32 81.3035 393.97 81.7071C394.622 82.1107 395.12 82.6771 395.464 83.4063C395.81 84.1291 395.982 84.9753 395.982 85.9455V86.9513H388.59C388.61 88.2077 388.922 89.1649 389.528 89.8223C390.132 90.4799 390.986 90.8087 392.086 90.8087C392.762 90.8087 393.362 90.7469 393.882 90.6231C394.404 90.4995 394.944 90.3171 395.504 90.0763V91.5021C394.964 91.7429 394.426 91.9187 393.892 92.0293C393.366 92.1401 392.74 92.1955 392.018 92.1955C390.988 92.1955 390.09 91.9871 389.322 91.5705C388.56 91.1473 387.968 90.5287 387.544 89.7149C387.122 88.9011 386.91 87.9051 386.91 86.7267C386.91 85.5743 387.102 84.5783 387.486 83.7383C387.876 82.8921 388.424 82.2409 389.126 81.7853C389.836 81.3295 390.67 81.1017 391.626 81.1017ZM391.608 82.4297C390.742 82.4297 390.052 82.7129 389.538 83.2793C389.022 83.8459 388.716 84.6369 388.62 85.6525H394.284C394.276 85.0145 394.176 84.4545 393.98 83.9727C393.792 83.4845 393.502 83.1069 393.112 82.8399C392.72 82.5665 392.22 82.4297 391.608 82.4297ZM403.6 81.1017C403.814 81.1017 404.038 81.1147 404.274 81.1407C404.508 81.1603 404.716 81.1895 404.898 81.2287L404.694 82.7325C404.518 82.6869 404.322 82.6511 404.108 82.6251C403.892 82.5991 403.69 82.5861 403.502 82.5861C403.072 82.5861 402.666 82.6739 402.282 82.8497C401.904 83.0189 401.572 83.2663 401.286 83.5919C400.998 83.9109 400.774 84.2983 400.612 84.7541C400.448 85.2033 400.368 85.7045 400.368 86.2579V92.0001H398.736V81.2969H400.084L400.26 83.2697H400.328C400.55 82.8725 400.816 82.5111 401.128 82.1857C401.442 81.8537 401.802 81.5899 402.212 81.3947C402.63 81.1993 403.092 81.1017 403.6 81.1017ZM406.676 90.9845C406.676 90.5287 406.786 90.2065 407.008 90.0177C407.23 89.8223 407.5 89.7247 407.818 89.7247C408.15 89.7247 408.43 89.8223 408.658 90.0177C408.886 90.2065 409 90.5287 409 90.9845C409 91.4337 408.886 91.7625 408.658 91.9709C408.43 92.1727 408.15 92.2735 407.818 92.2735C407.5 92.2735 407.23 92.1727 407.008 91.9709C406.786 91.7625 406.676 91.4337 406.676 90.9845Z" fill="#7F7F7F" fill-opacity="0.5"/>
</g>
<g style="mix-blend-mode:overlay">
<path d="M21.3339 92.0001H19.6641V79.1877H15.1719V77.7227H25.8067V79.1877H21.3339V92.0001ZM29.3419 76.8047V81.3459C29.3419 81.6063 29.3353 81.8699 29.3223 82.1369C29.3093 82.3973 29.2865 82.6381 29.2539 82.8595H29.3613C29.5827 82.4819 29.8627 82.1661 30.2011 81.9123C30.5463 81.6517 30.9369 81.4565 31.3731 81.3263C31.8093 81.1895 32.2715 81.1211 32.7597 81.1211C33.6191 81.1211 34.3353 81.2579 34.9083 81.5313C35.4877 81.8047 35.9205 82.2279 36.2071 82.8009C36.5001 83.3737 36.6465 84.1159 36.6465 85.0275V92.0001H35.0449V85.1349C35.0449 84.2429 34.8399 83.5757 34.4297 83.1329C34.0261 82.6903 33.4043 82.4689 32.5645 82.4689C31.7701 82.4689 31.1355 82.6219 30.6601 82.9279C30.1915 83.2273 29.8529 83.6701 29.6445 84.2559C29.4427 84.8419 29.3419 85.5581 29.3419 86.4043V92.0001H27.7207V76.8047H29.3419ZM41.6075 81.2969V92.0001H39.9863V81.2969H41.6075ZM40.8165 77.2931C41.0833 77.2931 41.3113 77.3809 41.5001 77.5567C41.6953 77.7261 41.7929 77.9929 41.7929 78.3575C41.7929 78.7155 41.6953 78.9825 41.5001 79.1583C41.3113 79.3341 41.0833 79.4219 40.8165 79.4219C40.5365 79.4219 40.3021 79.3341 40.1133 79.1583C39.9309 78.9825 39.8399 78.7155 39.8399 78.3575C39.8399 77.9929 39.9309 77.7261 40.1133 77.5567C40.3021 77.3809 40.5365 77.2931 40.8165 77.2931ZM51.9687 89.0705C51.9687 89.7541 51.7963 90.3301 51.4511 90.7989C51.1127 91.2611 50.6243 91.6095 49.9863 91.8439C49.3549 92.0783 48.5997 92.1955 47.7207 92.1955C46.9721 92.1955 46.3243 92.1369 45.7773 92.0197C45.2305 91.9025 44.7519 91.7365 44.3419 91.5215V90.0275C44.7781 90.2423 45.2989 90.4377 45.9043 90.6133C46.5097 90.7891 47.1283 90.8771 47.7597 90.8771C48.6843 90.8771 49.3549 90.7273 49.7715 90.4279C50.1881 90.1283 50.3965 89.7215 50.3965 89.2071C50.3965 88.9141 50.3119 88.6571 50.1425 88.4357C49.9799 88.2077 49.7031 87.9897 49.3125 87.7813C48.9219 87.5665 48.3815 87.3321 47.6915 87.0783C47.0079 86.8179 46.4153 86.5607 45.9141 86.3067C45.4193 86.0463 45.0351 85.7305 44.7617 85.3595C44.4947 84.9883 44.3613 84.5067 44.3613 83.9141C44.3613 83.0093 44.7259 82.3159 45.4551 81.8341C46.1907 81.3459 47.1543 81.1017 48.3457 81.1017C48.9903 81.1017 49.5925 81.1667 50.1523 81.2969C50.7187 81.4207 51.2461 81.5899 51.7343 81.8047L51.1875 83.1037C50.7447 82.9149 50.2727 82.7553 49.7715 82.6251C49.2701 82.4949 48.7591 82.4297 48.2383 82.4297C47.4895 82.4297 46.9135 82.5535 46.5097 82.8009C46.1127 83.0483 45.9141 83.3869 45.9141 83.8165C45.9141 84.1485 46.0053 84.4219 46.1875 84.6369C46.3763 84.8517 46.6757 85.0535 47.0859 85.2423C47.4961 85.4311 48.0365 85.6525 48.7071 85.9063C49.3777 86.1537 49.9571 86.4109 50.4453 86.6779C50.9337 86.9383 51.3079 87.2573 51.5683 87.6349C51.8353 88.0059 51.9687 88.4845 51.9687 89.0705ZM60.0157 92.0001V77.7227H61.6757V92.0001H60.0157ZM68.8145 90.8673C69.0813 90.8673 69.3549 90.8445 69.6347 90.7989C69.9147 90.7533 70.1425 90.6981 70.3183 90.6329V91.8927C70.1295 91.9773 69.8659 92.0489 69.5273 92.1075C69.1953 92.1661 68.8697 92.1955 68.5507 92.1955C67.9843 92.1955 67.4701 92.0977 67.0079 91.9025C66.5455 91.7007 66.1745 91.3621 65.8945 90.8869C65.6211 90.4115 65.4843 89.7541 65.4843 88.9141V82.5665H63.9609V81.7755L65.4941 81.1407L66.1387 78.8165H67.1153V81.2969H70.2501V82.5665H67.1153V88.8653C67.1153 89.5359 67.2683 90.0373 67.5743 90.3693C67.8867 90.7013 68.3001 90.8673 68.8145 90.8673ZM76.6075 81.1017C77.5189 81.1017 78.3001 81.3035 78.9511 81.7071C79.6023 82.1107 80.1003 82.6771 80.4453 83.4063C80.7903 84.1291 80.9629 84.9753 80.9629 85.9455V86.9513H73.5703C73.5899 88.2077 73.9023 89.1649 74.5079 89.8223C75.1133 90.4799 75.9661 90.8087 77.0665 90.8087C77.7435 90.8087 78.3425 90.7469 78.8633 90.6231C79.3841 90.4995 79.9245 90.3171 80.4843 90.0763V91.5021C79.9441 91.7429 79.4069 91.9187 78.8731 92.0293C78.3457 92.1401 77.7207 92.1955 76.9981 92.1955C75.9695 92.1955 75.0709 91.9871 74.3027 91.5705C73.5411 91.1473 72.9485 90.5287 72.5253 89.7149C72.1023 88.9011 71.8907 87.9051 71.8907 86.7267C71.8907 85.5743 72.0827 84.5783 72.4669 83.7383C72.8575 82.8921 73.4043 82.2409 74.1075 81.7853C74.8171 81.3295 75.6503 81.1017 76.6075 81.1017ZM76.5879 82.4297C75.7221 82.4297 75.0319 82.7129 74.5175 83.2793C74.0033 83.8459 73.6973 84.6369 73.5997 85.6525H79.2637C79.2571 85.0145 79.1563 84.4545 78.9609 83.9727C78.7721 83.4845 78.4825 83.1069 78.0919 82.8399C77.7011 82.5665 77.1999 82.4297 76.5879 82.4297ZM95.3379 81.1017C96.5163 81.1017 97.4049 81.4109 98.0039 82.0293C98.6029 82.6413 98.9023 83.6277 98.9023 84.9883V92.0001H97.3007V85.0665C97.3007 84.2007 97.1119 83.5529 96.7343 83.1231C96.3633 82.6869 95.8099 82.4689 95.0743 82.4689C94.0391 82.4689 93.2871 82.7683 92.8183 83.3673C92.3497 83.9663 92.1153 84.8485 92.1153 86.0137V92.0001H90.5039V85.0665C90.5039 84.4871 90.4193 84.0053 90.2501 83.6211C90.0873 83.2371 89.8399 82.9507 89.5079 82.7619C89.1823 82.5665 88.7689 82.4689 88.2675 82.4689C87.5579 82.4689 86.9883 82.6153 86.5585 82.9083C86.1289 83.2013 85.8165 83.6375 85.6211 84.2169C85.4323 84.7899 85.3379 85.4961 85.3379 86.3361V92.0001H83.7169V81.2969H85.0253L85.2695 82.8107H85.3575C85.5723 82.4395 85.8425 82.1271 86.1679 81.8731C86.4935 81.6193 86.8581 81.4271 87.2617 81.2969C87.6653 81.1667 88.0951 81.1017 88.5507 81.1017C89.3645 81.1017 90.0449 81.2547 90.5919 81.5607C91.1451 81.8601 91.5455 82.3191 91.7929 82.9377H91.8809C92.2325 82.3191 92.7141 81.8601 93.3261 81.5607C93.9381 81.2547 94.6087 81.1017 95.3379 81.1017ZM107.672 92.0001V77.7227H109.332V92.0001H107.672ZM119.938 89.0705C119.938 89.7541 119.765 90.3301 119.42 90.7989C119.081 91.2611 118.593 91.6095 117.955 91.8439C117.324 92.0783 116.568 92.1955 115.69 92.1955C114.941 92.1955 114.293 92.1369 113.746 92.0197C113.199 91.9025 112.721 91.7365 112.311 91.5215V90.0275C112.747 90.2423 113.268 90.4377 113.873 90.6133C114.479 90.7891 115.097 90.8771 115.729 90.8771C116.653 90.8771 117.324 90.7273 117.74 90.4279C118.157 90.1283 118.365 89.7215 118.365 89.2071C118.365 88.9141 118.281 88.6571 118.111 88.4357C117.949 88.2077 117.672 87.9897 117.281 87.7813C116.891 87.5665 116.35 87.3321 115.66 87.0783C114.977 86.8179 114.384 86.5607 113.883 86.3067C113.388 86.0463 113.004 85.7305 112.731 85.3595C112.464 84.9883 112.33 84.5067 112.33 83.9141C112.33 83.0093 112.695 82.3159 113.424 81.8341C114.16 81.3459 115.123 81.1017 116.315 81.1017C116.959 81.1017 117.561 81.1667 118.121 81.2969C118.688 81.4207 119.215 81.5899 119.703 81.8047L119.156 83.1037C118.714 82.9149 118.242 82.7553 117.74 82.6251C117.239 82.4949 116.728 82.4297 116.207 82.4297C115.458 82.4297 114.882 82.5535 114.479 82.8009C114.081 83.0483 113.883 83.3869 113.883 83.8165C113.883 84.1485 113.974 84.4219 114.156 84.6369C114.345 84.8517 114.645 85.0535 115.055 85.2423C115.465 85.4311 116.005 85.6525 116.676 85.9063C117.346 86.1537 117.926 86.4109 118.414 86.6779C118.902 86.9383 119.277 87.2573 119.537 87.6349C119.804 88.0059 119.938 88.4845 119.938 89.0705ZM129.645 92.0001H127.984V77.7227H135.934V79.1877H129.645V84.4219H135.553V85.8771H129.645V92.0001ZM142.174 77.7227C143.346 77.7227 144.313 77.8693 145.074 78.1623C145.843 78.4487 146.415 78.8881 146.793 79.4805C147.171 80.0731 147.359 80.8283 147.359 81.7461C147.359 82.5015 147.223 83.1329 146.949 83.6407C146.676 84.1421 146.318 84.5489 145.875 84.8615C145.432 85.1739 144.96 85.4149 144.459 85.5841L148.375 92.0001H146.442L142.945 86.0431H139.977V92.0001H138.317V77.7227H142.174ZM142.076 79.1583H139.977V84.6369H142.242C143.408 84.6369 144.264 84.3991 144.811 83.9239C145.364 83.4487 145.641 82.7487 145.641 81.8243C145.641 80.8543 145.348 80.1675 144.762 79.7637C144.182 79.3601 143.287 79.1583 142.076 79.1583ZM158.609 92.0001H150.66V77.7227H158.609V79.1877H152.32V83.8067H158.248V85.2521H152.32V90.5353H158.609V92.0001ZM169.723 92.0001H161.774V77.7227H169.723V79.1877H163.434V83.8067H169.361V85.2521H163.434V90.5353H169.723V92.0001ZM174.108 88.0353H173.043L172.594 77.7227H174.557L174.108 88.0353ZM172.399 90.9845C172.399 90.5287 172.509 90.2065 172.731 90.0177C172.952 89.8223 173.229 89.7247 173.561 89.7247C173.886 89.7247 174.16 89.8223 174.381 90.0177C174.609 90.2065 174.723 90.5287 174.723 90.9845C174.723 91.4337 174.609 91.7625 174.381 91.9709C174.16 92.1727 173.886 92.2735 173.561 92.2735C173.229 92.2735 172.952 92.1727 172.731 91.9709C172.509 91.7625 172.399 91.4337 172.399 90.9845ZM183.375 92.0001V77.7227H185.035V90.5157H191.373V92.0001H183.375ZM195.201 81.2969V92.0001H193.58V81.2969H195.201ZM194.41 77.2931C194.677 77.2931 194.905 77.3809 195.094 77.5567C195.289 77.7261 195.387 77.9929 195.387 78.3575C195.387 78.7155 195.289 78.9825 195.094 79.1583C194.905 79.3341 194.677 79.4219 194.41 79.4219C194.13 79.4219 193.896 79.3341 193.707 79.1583C193.525 78.9825 193.434 78.7155 193.434 78.3575C193.434 77.9929 193.525 77.7261 193.707 77.5567C193.896 77.3809 194.13 77.2931 194.41 77.2931ZM210.26 81.1017C211.438 81.1017 212.326 81.4109 212.926 82.0293C213.524 82.6413 213.824 83.6277 213.824 84.9883V92.0001H212.222V85.0665C212.222 84.2007 212.034 83.5529 211.656 83.1231C211.286 82.6869 210.732 82.4689 209.996 82.4689C208.96 82.4689 208.208 82.7683 207.74 83.3673C207.272 83.9663 207.038 84.8485 207.038 86.0137V92.0001H205.426V85.0665C205.426 84.4871 205.342 84.0053 205.172 83.6211C205.01 83.2371 204.762 82.9507 204.43 82.7619C204.104 82.5665 203.69 82.4689 203.19 82.4689C202.48 82.4689 201.91 82.6153 201.48 82.9083C201.05 83.2013 200.738 83.6375 200.542 84.2169C200.354 84.7899 200.26 85.4961 200.26 86.3361V92.0001H198.639V81.2969H199.948L200.192 82.8107H200.28C200.494 82.4395 200.764 82.1271 201.09 81.8731C201.416 81.6193 201.78 81.4271 202.184 81.2969C202.588 81.1667 203.016 81.1017 203.472 81.1017C204.286 81.1017 204.966 81.2547 205.514 81.5607C206.066 81.8601 206.468 82.3191 206.714 82.9377H206.802C207.154 82.3191 207.636 81.8601 208.248 81.5607C208.86 81.2547 209.53 81.1017 210.26 81.1017ZM218.776 81.2969V92.0001H217.154V81.2969H218.776ZM217.984 77.2931C218.252 77.2931 218.48 77.3809 218.668 77.5567C218.864 77.7261 218.96 77.9929 218.96 78.3575C218.96 78.7155 218.864 78.9825 218.668 79.1583C218.48 79.3341 218.252 79.4219 217.984 79.4219C217.704 79.4219 217.47 79.3341 217.282 79.1583C217.098 78.9825 217.008 78.7155 217.008 78.3575C217.008 77.9929 217.098 77.7261 217.282 77.5567C217.47 77.3809 217.704 77.2931 217.984 77.2931ZM225.67 90.8673C225.936 90.8673 226.21 90.8445 226.49 90.7989C226.77 90.7533 226.998 90.6981 227.174 90.6329V91.8927C226.984 91.9773 226.722 92.0489 226.382 92.1075C226.05 92.1661 225.726 92.1955 225.406 92.1955C224.84 92.1955 224.326 92.0977 223.864 91.9025C223.4 91.7007 223.03 91.3621 222.75 90.8869C222.476 90.4115 222.34 89.7541 222.34 88.9141V82.5665H220.816V81.7755L222.35 81.1407L222.994 78.8165H223.97V81.2969H227.106V82.5665H223.97V88.8653C223.97 89.5359 224.124 90.0373 224.43 90.3693C224.742 90.7013 225.156 90.8673 225.67 90.8673ZM247.164 84.8419C247.164 85.9421 247.024 86.9447 246.744 87.8497C246.464 88.7481 246.048 89.5229 245.494 90.1739C244.948 90.8185 244.266 91.3165 243.454 91.6681C242.64 92.0197 241.696 92.1955 240.62 92.1955C239.514 92.1955 238.548 92.0197 237.72 91.6681C236.9 91.3165 236.216 90.8153 235.67 90.1641C235.13 89.5131 234.722 88.7351 234.45 87.8301C234.182 86.9253 234.048 85.9227 234.048 84.8223C234.048 83.3641 234.29 82.0847 234.772 80.9845C235.254 79.8843 235.982 79.0281 236.958 78.4161C237.942 77.8041 239.172 77.4981 240.65 77.4981C242.064 77.4981 243.252 77.8009 244.214 78.4063C245.184 79.0119 245.918 79.8647 246.412 80.9649C246.914 82.0587 247.164 83.3511 247.164 84.8419ZM235.796 84.8419C235.796 86.0529 235.97 87.1011 236.314 87.9865C236.66 88.8719 237.186 89.5555 237.896 90.0373C238.612 90.5189 239.52 90.7599 240.62 90.7599C241.728 90.7599 242.632 90.5189 243.336 90.0373C244.046 89.5555 244.57 88.8719 244.908 87.9865C245.246 87.1011 245.416 86.0529 245.416 84.8419C245.416 82.9995 245.028 81.5607 244.254 80.5255C243.486 79.4839 242.284 78.9629 240.65 78.9629C239.544 78.9629 238.632 79.2007 237.916 79.6759C237.2 80.1511 236.666 80.8283 236.314 81.7071C235.97 82.5795 235.796 83.6245 235.796 84.8419ZM255.172 81.1017C256.442 81.1017 257.402 81.4141 258.052 82.0391C258.704 82.6577 259.03 83.6537 259.03 85.0275V92.0001H257.428V85.1349C257.428 84.2429 257.222 83.5757 256.812 83.1329C256.408 82.6903 255.788 82.4689 254.948 82.4689C253.762 82.4689 252.928 82.8041 252.448 83.4747C251.966 84.1453 251.724 85.1185 251.724 86.3947V92.0001H250.104V81.2969H251.412L251.656 82.8399H251.744C251.972 82.4623 252.262 82.1465 252.614 81.8927C252.964 81.6323 253.358 81.4369 253.794 81.3067C254.232 81.1701 254.69 81.1017 255.172 81.1017ZM266.49 81.1017C267.402 81.1017 268.182 81.3035 268.834 81.7071C269.484 82.1107 269.982 82.6771 270.328 83.4063C270.674 84.1291 270.846 84.9753 270.846 85.9455V86.9513H263.454C263.472 88.2077 263.786 89.1649 264.39 89.8223C264.996 90.4799 265.848 90.8087 266.95 90.8087C267.626 90.8087 268.226 90.7469 268.746 90.6231C269.266 90.4995 269.808 90.3171 270.368 90.0763V91.5021C269.826 91.7429 269.29 91.9187 268.756 92.0293C268.228 92.1401 267.604 92.1955 266.88 92.1955C265.852 92.1955 264.954 91.9871 264.186 91.5705C263.424 91.1473 262.832 90.5287 262.408 89.7149C261.984 88.9011 261.774 87.9051 261.774 86.7267C261.774 85.5743 261.966 84.5783 262.35 83.7383C262.74 82.8921 263.288 82.2409 263.99 81.7853C264.7 81.3295 265.534 81.1017 266.49 81.1017ZM266.47 82.4297C265.604 82.4297 264.914 82.7129 264.4 83.2793C263.886 83.8459 263.58 84.6369 263.482 85.6525H269.146C269.14 85.0145 269.038 84.4545 268.844 83.9727C268.654 83.4845 268.366 83.1069 267.974 82.8399C267.584 82.5665 267.082 82.4297 266.47 82.4297ZM282.77 77.7227C284.612 77.7227 285.956 78.0841 286.802 78.8067C287.656 79.5229 288.082 80.5515 288.082 81.8927C288.082 82.4981 287.982 83.0743 287.78 83.6211C287.584 84.1615 287.264 84.6401 286.822 85.0567C286.38 85.4669 285.796 85.7925 285.074 86.0333C284.358 86.2677 283.48 86.3849 282.438 86.3849H280.7V92.0001H279.038V77.7227H282.77ZM282.614 79.1387H280.7V84.9591H282.252C283.164 84.9591 283.922 84.8615 284.528 84.6661C285.14 84.4709 285.598 84.1551 285.904 83.7189C286.21 83.2761 286.364 82.6903 286.364 81.9611C286.364 81.0105 286.06 80.3041 285.454 79.8419C284.85 79.3731 283.902 79.1387 282.614 79.1387ZM294.948 81.1017C295.858 81.1017 296.64 81.3035 297.29 81.7071C297.942 82.1107 298.44 82.6771 298.786 83.4063C299.13 84.1291 299.302 84.9753 299.302 85.9455V86.9513H291.91C291.93 88.2077 292.242 89.1649 292.848 89.8223C293.454 90.4799 294.306 90.8087 295.406 90.8087C296.084 90.8087 296.682 90.7469 297.204 90.6231C297.724 90.4995 298.264 90.3171 298.824 90.0763V91.5021C298.284 91.7429 297.746 91.9187 297.212 92.0293C296.686 92.1401 296.06 92.1955 295.338 92.1955C294.31 92.1955 293.41 91.9871 292.642 91.5705C291.88 91.1473 291.288 90.5287 290.866 89.7149C290.442 88.9011 290.23 87.9051 290.23 86.7267C290.23 85.5743 290.422 84.5783 290.806 83.7383C291.198 82.8921 291.744 82.2409 292.448 81.7853C293.156 81.3295 293.99 81.1017 294.948 81.1017ZM294.928 82.4297C294.062 82.4297 293.372 82.7129 292.858 83.2793C292.344 83.8459 292.038 84.6369 291.94 85.6525H297.604C297.596 85.0145 297.496 84.4545 297.3 83.9727C297.112 83.4845 296.822 83.1069 296.432 82.8399C296.04 82.5665 295.54 82.4297 294.928 82.4297ZM306.92 81.1017C307.134 81.1017 307.36 81.1147 307.594 81.1407C307.828 81.1603 308.036 81.1895 308.218 81.2287L308.014 82.7325C307.838 82.6869 307.642 82.6511 307.428 82.6251C307.212 82.5991 307.01 82.5861 306.822 82.5861C306.392 82.5861 305.986 82.6739 305.602 82.8497C305.224 83.0189 304.892 83.2663 304.606 83.5919C304.318 83.9109 304.094 84.2983 303.932 84.7541C303.768 85.2033 303.688 85.7045 303.688 86.2579V92.0001H302.056V81.2969H303.404L303.58 83.2697H303.648C303.87 82.8725 304.136 82.5111 304.45 82.1857C304.762 81.8537 305.122 81.5899 305.534 81.3947C305.95 81.1993 306.412 81.1017 306.92 81.1017ZM321.784 78.9825C320.996 78.9825 320.286 79.1193 319.654 79.3927C319.03 79.6597 318.496 80.0503 318.052 80.5645C317.616 81.0723 317.282 81.6877 317.046 82.4103C316.812 83.1329 316.696 83.9467 316.696 84.8517C316.696 86.0495 316.88 87.0913 317.252 87.9767C317.63 88.8555 318.19 89.5359 318.932 90.0177C319.68 90.4995 320.614 90.7403 321.734 90.7403C322.372 90.7403 322.972 90.6883 323.532 90.5841C324.098 90.4735 324.648 90.3367 325.182 90.1739V91.6193C324.66 91.8145 324.114 91.9577 323.54 92.0489C322.968 92.1465 322.288 92.1955 321.5 92.1955C320.048 92.1955 318.834 91.8959 317.858 91.2969C316.888 90.6915 316.158 89.8387 315.67 88.7383C315.188 87.6381 314.948 86.3393 314.948 84.8419C314.948 83.7611 315.096 82.7749 315.396 81.8829C315.702 80.9845 316.146 80.2097 316.724 79.5587C317.31 78.9077 318.026 78.4063 318.872 78.0547C319.726 77.6967 320.702 77.5177 321.802 77.5177C322.526 77.5177 323.222 77.5893 323.892 77.7325C324.564 77.8757 325.168 78.0809 325.708 78.3477L325.044 79.7541C324.59 79.5457 324.088 79.3667 323.54 79.2169C323 79.0607 322.414 78.9825 321.784 78.9825ZM336.872 81.2969V92.0001H335.542L335.308 90.4961H335.22C335 90.8673 334.712 91.1797 334.362 91.4337C334.01 91.6877 333.612 91.8765 333.17 92.0001C332.734 92.1303 332.268 92.1955 331.774 92.1955C330.926 92.1955 330.218 92.0587 329.644 91.7853C329.072 91.5119 328.638 91.0887 328.346 90.5157C328.06 89.9429 327.916 89.2071 327.916 88.3087V81.2969H329.556V88.1915C329.556 89.0835 329.758 89.7507 330.162 90.1935C330.566 90.6297 331.18 90.8477 332.008 90.8477C332.802 90.8477 333.434 90.6981 333.902 90.3985C334.378 90.0991 334.72 89.6597 334.928 89.0801C335.136 88.4943 335.24 87.7781 335.24 86.9317V81.2969H336.872ZM347.222 89.0705C347.222 89.7541 347.05 90.3301 346.704 90.7989C346.366 91.2611 345.878 91.6095 345.24 91.8439C344.608 92.0783 343.854 92.1955 342.974 92.1955C342.226 92.1955 341.578 92.1369 341.032 92.0197C340.484 91.9025 340.006 91.7365 339.596 91.5215V90.0275C340.032 90.2423 340.552 90.4377 341.158 90.6133C341.764 90.7891 342.382 90.8771 343.014 90.8771C343.938 90.8771 344.608 90.7273 345.026 90.4279C345.442 90.1283 345.65 89.7215 345.65 89.2071C345.65 88.9141 345.566 88.6571 345.396 88.4357C345.234 88.2077 344.956 87.9897 344.566 87.7813C344.176 87.5665 343.636 87.3321 342.946 87.0783C342.262 86.8179 341.67 86.5607 341.168 86.3067C340.674 86.0463 340.288 85.7305 340.016 85.3595C339.748 84.9883 339.616 84.5067 339.616 83.9141C339.616 83.0093 339.98 82.3159 340.708 81.8341C341.444 81.3459 342.408 81.1017 343.6 81.1017C344.244 81.1017 344.846 81.1667 345.406 81.2969C345.972 81.4207 346.5 81.5899 346.988 81.8047L346.442 83.1037C345.998 82.9149 345.526 82.7553 345.026 82.6251C344.524 82.4949 344.012 82.4297 343.492 82.4297C342.744 82.4297 342.168 82.5535 341.764 82.8009C341.366 83.0483 341.168 83.3869 341.168 83.8165C341.168 84.1485 341.26 84.4219 341.442 84.6369C341.63 84.8517 341.93 85.0535 342.34 85.2423C342.75 85.4311 343.29 85.6525 343.96 85.9063C344.632 86.1537 345.21 86.4109 345.7 86.6779C346.188 86.9383 346.562 87.2573 346.822 87.6349C347.09 88.0059 347.222 88.4845 347.222 89.0705ZM353.288 90.8673C353.554 90.8673 353.828 90.8445 354.108 90.7989C354.388 90.7533 354.616 90.6981 354.79 90.6329V91.8927C354.602 91.9773 354.338 92.0489 354 92.1075C353.668 92.1661 353.342 92.1955 353.024 92.1955C352.456 92.1955 351.942 92.0977 351.48 91.9025C351.018 91.7007 350.648 91.3621 350.368 90.8869C350.094 90.4115 349.956 89.7541 349.956 88.9141V82.5665H348.434V81.7755L349.966 81.1407L350.612 78.8165H351.588V81.2969H354.722V82.5665H351.588V88.8653C351.588 89.5359 351.74 90.0373 352.046 90.3693C352.36 90.7013 352.772 90.8673 353.288 90.8673ZM366.188 86.6291C366.188 87.5079 366.074 88.2925 365.846 88.9825C365.618 89.6727 365.288 90.2553 364.86 90.7305C364.43 91.2059 363.908 91.5705 363.296 91.8243C362.692 92.0717 362.004 92.1955 361.236 92.1955C360.52 92.1955 359.862 92.0717 359.264 91.8243C358.672 91.5705 358.156 91.2059 357.72 90.7305C357.29 90.2553 356.956 89.6727 356.714 88.9825C356.48 88.2925 356.364 87.5079 356.364 86.6291C356.364 85.4571 356.562 84.4611 356.958 83.6407C357.356 82.8139 357.922 82.1857 358.658 81.7559C359.4 81.3197 360.282 81.1017 361.304 81.1017C362.282 81.1017 363.134 81.3197 363.864 81.7559C364.598 82.1921 365.168 82.8237 365.572 83.6505C365.982 84.4709 366.188 85.4637 366.188 86.6291ZM358.042 86.6291C358.042 87.4883 358.156 88.2339 358.384 88.8653C358.612 89.4969 358.964 89.9851 359.44 90.3301C359.914 90.6753 360.526 90.8477 361.276 90.8477C362.018 90.8477 362.626 90.6753 363.102 90.3301C363.584 89.9851 363.938 89.4969 364.166 88.8653C364.394 88.2339 364.508 87.4883 364.508 86.6291C364.508 85.7761 364.394 85.0405 364.166 84.4219C363.938 83.7969 363.586 83.3153 363.112 82.9767C362.636 82.6381 362.02 82.4689 361.266 82.4689C360.152 82.4689 359.336 82.8367 358.814 83.5723C358.3 84.3081 358.042 85.3269 358.042 86.6291ZM380.612 81.1017C381.79 81.1017 382.678 81.4109 383.278 82.0293C383.876 82.6413 384.176 83.6277 384.176 84.9883V92.0001H382.574V85.0665C382.574 84.2007 382.386 83.5529 382.008 83.1231C381.636 82.6869 381.084 82.4689 380.348 82.4689C379.312 82.4689 378.56 82.7683 378.092 83.3673C377.622 83.9663 377.388 84.8485 377.388 86.0137V92.0001H375.778V85.0665C375.778 84.4871 375.692 84.0053 375.524 83.6211C375.36 83.2371 375.114 82.9507 374.782 82.7619C374.456 82.5665 374.042 82.4689 373.54 82.4689C372.832 82.4689 372.262 82.6153 371.832 82.9083C371.402 83.2013 371.09 83.6375 370.894 84.2169C370.706 84.7899 370.612 85.4961 370.612 86.3361V92.0001H368.99V81.2969H370.298L370.542 82.8107H370.63C370.846 82.4395 371.116 82.1271 371.442 81.8731C371.766 81.6193 372.132 81.4271 372.536 81.2969C372.938 81.1667 373.368 81.1017 373.824 81.1017C374.638 81.1017 375.318 81.2547 375.866 81.5607C376.418 81.8601 376.818 82.3191 377.066 82.9377H377.154C377.506 82.3191 377.988 81.8601 378.6 81.5607C379.212 81.2547 379.882 81.1017 380.612 81.1017ZM391.626 81.1017C392.538 81.1017 393.32 81.3035 393.97 81.7071C394.622 82.1107 395.12 82.6771 395.464 83.4063C395.81 84.1291 395.982 84.9753 395.982 85.9455V86.9513H388.59C388.61 88.2077 388.922 89.1649 389.528 89.8223C390.132 90.4799 390.986 90.8087 392.086 90.8087C392.762 90.8087 393.362 90.7469 393.882 90.6231C394.404 90.4995 394.944 90.3171 395.504 90.0763V91.5021C394.964 91.7429 394.426 91.9187 393.892 92.0293C393.366 92.1401 392.74 92.1955 392.018 92.1955C390.988 92.1955 390.09 91.9871 389.322 91.5705C388.56 91.1473 387.968 90.5287 387.544 89.7149C387.122 88.9011 386.91 87.9051 386.91 86.7267C386.91 85.5743 387.102 84.5783 387.486 83.7383C387.876 82.8921 388.424 82.2409 389.126 81.7853C389.836 81.3295 390.67 81.1017 391.626 81.1017ZM391.608 82.4297C390.742 82.4297 390.052 82.7129 389.538 83.2793C389.022 83.8459 388.716 84.6369 388.62 85.6525H394.284C394.276 85.0145 394.176 84.4545 393.98 83.9727C393.792 83.4845 393.502 83.1069 393.112 82.8399C392.72 82.5665 392.22 82.4297 391.608 82.4297ZM403.6 81.1017C403.814 81.1017 404.038 81.1147 404.274 81.1407C404.508 81.1603 404.716 81.1895 404.898 81.2287L404.694 82.7325C404.518 82.6869 404.322 82.6511 404.108 82.6251C403.892 82.5991 403.69 82.5861 403.502 82.5861C403.072 82.5861 402.666 82.6739 402.282 82.8497C401.904 83.0189 401.572 83.2663 401.286 83.5919C400.998 83.9109 400.774 84.2983 400.612 84.7541C400.448 85.2033 400.368 85.7045 400.368 86.2579V92.0001H398.736V81.2969H400.084L400.26 83.2697H400.328C400.55 82.8725 400.816 82.5111 401.128 82.1857C401.442 81.8537 401.802 81.5899 402.212 81.3947C402.63 81.1993 403.092 81.1017 403.6 81.1017ZM406.676 90.9845C406.676 90.5287 406.786 90.2065 407.008 90.0177C407.23 89.8223 407.5 89.7247 407.818 89.7247C408.15 89.7247 408.43 89.8223 408.658 90.0177C408.886 90.2065 409 90.5287 409 90.9845C409 91.4337 408.886 91.7625 408.658 91.9709C408.43 92.1727 408.15 92.2735 407.818 92.2735C407.5 92.2735 407.23 92.1727 407.008 91.9709C406.786 91.7625 406.676 91.4337 406.676 90.9845Z" fill="#1B1B1B"/>
</g>
</g>
<defs>
<clipPath id="clip0_351_6571">
<rect width="505" height="117" fill="white"/>
</clipPath>
</defs>
</svg>
