<svg width="20" height="20" viewBox="0 0 20 20" fill="none" xmlns="http://www.w3.org/2000/svg">
<path d="M3 5C2.4375 5 2 5.46875 2 6V14C2 14.5625 2.4375 15 3 15H11C11.5312 15 12 14.5625 12 14V6C12 5.46875 11.5312 5 11 5H3ZM1 6C1 4.90625 1.875 4 3 4H11C12.0938 4 13 4.90625 13 6V7.5V12.5312V14C13 15.125 12.0938 16 11 16H3C1.875 16 1 15.125 1 14V6ZM17.2188 14.875L14 13.0938V11.9375L17.6875 14C17.7188 14 17.75 14.0312 17.7812 14.0312C17.9062 14.0312 18 13.9375 18 13.8125V6.21875C18 6.09375 17.9062 6 17.7812 6C17.75 6 17.7188 6.03125 17.6875 6.03125L14 8.09375V6.9375L17.2188 5.15625C17.4062 5.0625 17.5938 5 17.7812 5C18.4375 5 19 5.5625 19 6.21875V13.8125C19 14.4688 18.4375 15 17.7812 15C17.5938 15 17.4062 14.9688 17.2188 14.875Z" fill="black"/>
</svg>
