<svg width="149" height="24" viewBox="0 0 149 24" fill="none" xmlns="http://www.w3.org/2000/svg">
<path d="M0 3.38477H3.004C4.1296 7.56971 5.24919 11.7363 6.38441 15.958C6.57802 15.3388 6.7548 14.7747 6.93157 14.2107C8.04755 10.6609 9.16473 7.11112 10.2771 3.55888C10.318 3.42891 10.3745 3.38477 10.5104 3.38599C11.3859 3.39212 12.2613 3.39335 13.1368 3.38599C13.2811 3.38599 13.3352 3.43136 13.3797 3.56992C14.6713 7.65309 15.9676 11.735 17.2628 15.817C17.282 15.8758 17.3061 15.9335 17.3446 16.0365C18.4509 11.7988 19.5465 7.60282 20.6444 3.39948H23.5943C23.5799 3.46937 23.5714 3.53436 23.5546 3.59689C22.0117 9.20788 20.4676 14.8176 18.9283 20.4286C18.885 20.5856 18.8213 20.6322 18.6638 20.631C17.8003 20.6224 16.9381 20.6236 16.0747 20.631C15.946 20.631 15.8967 20.5905 15.857 20.4654C14.5366 16.2584 13.2114 12.0538 11.8873 7.84805C11.8705 7.7941 11.8525 7.74015 11.8224 7.64941C11.7899 7.72789 11.7647 7.77448 11.749 7.82353C10.4358 11.9987 9.12264 16.175 7.81065 20.3514C7.72406 20.6285 7.72526 20.6285 7.43064 20.6285C6.55517 20.6285 5.68091 20.6285 4.7874 20.6285C4.66835 20.2067 4.5505 19.7898 4.43505 19.3729C3.01362 14.2585 1.59219 9.14535 0.170764 4.03219C0.120256 3.85194 0.057723 3.6766 0 3.4988C0 3.46079 0 3.42278 0 3.38477Z" fill="#003865"/>
<path d="M74.9967 13.6722C74.9186 14.387 74.5819 14.9805 74.1826 15.5556C73.0426 17.1962 71.9158 18.8466 70.783 20.4922C70.7481 20.5424 70.7096 20.5903 70.6591 20.6577C70.2707 19.8631 69.8943 19.0919 69.8907 18.1943C69.8883 17.7296 70.0121 17.3065 70.2719 16.9289C71.5538 15.0577 72.8381 13.189 74.1225 11.3191C74.1465 11.2848 74.1742 11.2541 74.2127 11.2051C74.5758 11.8881 74.8993 12.5649 74.9967 13.33V13.6722Z" fill="#003865"/>
<path d="M41.5637 20.6205C41.8463 19.8799 42.1169 19.1749 42.3863 18.4698C44.2767 13.5173 46.1671 8.56596 48.0527 3.61098C48.1189 3.43563 48.1946 3.37555 48.381 3.378C49.3491 3.38904 50.3184 3.38536 51.2864 3.38045C51.4163 3.38045 51.48 3.41601 51.5293 3.54599C53.6723 9.17047 55.8201 14.7937 57.9667 20.417C57.9883 20.4746 58.0039 20.5347 58.0268 20.6095C57.9594 20.6132 57.9065 20.6205 57.8536 20.6205C56.9349 20.6205 56.0161 20.6181 55.0973 20.6242C54.9566 20.6242 54.8905 20.5825 54.8412 20.4476C54.3602 19.127 53.8695 17.8101 53.3897 16.4883C53.3356 16.3399 53.2707 16.2909 53.1143 16.2909C50.8667 16.297 48.6191 16.297 46.3716 16.2909C46.2128 16.2909 46.1527 16.3436 46.0998 16.4908C45.6284 17.8089 45.1449 19.1221 44.6723 20.4391C44.6206 20.5837 44.5521 20.6254 44.4042 20.6242C43.5287 20.6169 42.6532 20.6205 41.7778 20.6205H41.5625H41.5637ZM49.7435 6.56484C48.8801 8.93014 48.0347 11.2464 47.1809 13.581H52.305C51.4536 11.2488 50.607 8.93259 49.7423 6.56484H49.7435Z" fill="#003865"/>
<path d="M40.7049 8.62084C39.8042 8.92984 38.9239 9.23148 38.0316 9.5368C38.0148 9.50124 37.9955 9.47059 37.9859 9.43748C37.3618 7.22545 35.9091 6.00173 33.6507 5.80186C32.1727 5.67066 30.8295 6.04587 29.663 6.99248C28.6095 7.84713 27.9902 8.98134 27.7184 10.3117C27.4022 11.8604 27.4563 13.3907 28.0924 14.8511C28.9186 16.7504 30.3749 17.838 32.3868 18.12C33.7216 18.3077 34.9855 18.0747 36.1195 17.2936C37.0744 16.6364 37.7009 15.7204 38.0821 14.6218C38.1062 14.5506 38.129 14.4795 38.1603 14.3863C39.0321 14.6769 39.8944 14.9651 40.7759 15.2594C40.765 15.3182 40.7602 15.3722 40.7446 15.4225C39.8463 18.2929 37.9643 20.1114 35.0829 20.7637C32.7632 21.2885 30.5336 20.9476 28.4953 19.6565C26.5026 18.3935 25.3073 16.5383 24.8275 14.2134C24.4138 12.205 24.5076 10.2137 25.2953 8.30694C26.4461 5.51861 28.5169 3.813 31.4079 3.20114C33.3693 2.78791 35.2934 3.00004 37.0936 3.94297C38.9456 4.91165 40.1132 6.464 40.6845 8.49332C40.6941 8.52888 40.6965 8.56567 40.7049 8.62084Z" fill="#003865"/>
<path d="M68.0871 18.2904C68.3156 19.0801 68.5561 19.909 68.8099 20.782C68.3782 20.8446 67.9717 20.9329 67.5604 20.9586C65.3754 21.091 63.3887 20.5307 61.6763 19.1095C60.2115 17.8944 59.3108 16.3114 58.9032 14.4439C58.4366 12.3104 58.5075 10.1977 59.3649 8.1708C60.4905 5.50754 62.4904 3.86201 65.2515 3.24156C67.481 2.74006 69.6396 3.01595 71.6251 4.22496C73.1126 5.1311 74.1336 6.44434 74.7157 8.11072C74.7325 8.15731 74.7457 8.20636 74.7674 8.27748C73.8727 8.62571 72.984 8.97027 72.0784 9.32218C72.0388 9.21428 72.0027 9.11618 71.9654 9.01809C71.2258 7.09422 69.8357 6.01518 67.8358 5.77362C66.2532 5.58234 64.8162 5.9833 63.5787 7.02678C62.595 7.8569 62.0082 8.94084 61.7412 10.2026C61.4141 11.7451 61.4514 13.2827 62.0238 14.7578C62.874 16.949 64.4963 18.1102 66.7932 18.2868C67.2105 18.3187 67.6338 18.2904 68.0871 18.2904Z" fill="#003865"/>
<path d="M73.2662 11.29C73.2254 11.3575 73.1953 11.4102 73.1616 11.4605C72.6626 12.1864 72.1611 12.9086 71.6668 13.6369C71.5911 13.7498 71.5105 13.7865 71.3782 13.7865C70.2851 13.7804 69.1932 13.7816 68.1 13.7841C67.3941 13.7853 66.8109 13.518 66.3467 12.9748C65.9186 12.4745 65.6192 11.8945 65.3125 11.2913H73.265L73.2662 11.29Z" fill="#003865"/>
<rect x="95" width="54" height="24" rx="2" fill="#FF2D2D"/>
<path d="M111.482 8.38867L107.967 11.875L111.453 15.3613L111.951 15.8594L110.984 16.8555L110.486 16.3574L107 12.8711L103.514 16.3574L103.016 16.8555L102.02 15.8594L102.518 15.3613L106.004 11.875L102.518 8.38867L102.02 7.89062L103.016 6.89453L103.514 7.39258L107 10.9082L110.486 7.42188L110.984 6.92383L111.98 7.89062L111.482 8.38867Z" fill="#F5F5F5"/>
<path d="M118.729 17H117.219V7.71973H122.462V9.00195H118.729V11.8965H122.221V13.1724H118.729V17ZM129.901 17L128.994 14.4229H125.445L124.538 17H122.932L126.385 7.68164H128.073L131.52 17H129.901ZM128.6 13.1152L127.718 10.5762C127.684 10.4661 127.635 10.3117 127.572 10.1128C127.508 9.90967 127.445 9.70443 127.381 9.49707C127.318 9.28548 127.265 9.10775 127.223 8.96387C127.18 9.13737 127.127 9.33203 127.064 9.54785C127.005 9.75944 126.945 9.95833 126.886 10.1445C126.831 10.3307 126.789 10.4746 126.759 10.5762L125.871 13.1152H128.6ZM132.745 17V7.71973H134.269V17H132.745ZM136.719 17V7.71973H138.242V15.7051H142.184V17H136.719Z" fill="white"/>
</svg>
