<svg width="153" height="24" viewBox="0 0 153 24" fill="none" xmlns="http://www.w3.org/2000/svg">
<path d="M0 3.38477H3.004C4.1296 7.56971 5.24919 11.7363 6.38441 15.958C6.57802 15.3388 6.7548 14.7747 6.93157 14.2107C8.04755 10.6609 9.16473 7.11112 10.2771 3.55888C10.318 3.42891 10.3745 3.38477 10.5104 3.38599C11.3859 3.39212 12.2613 3.39335 13.1368 3.38599C13.2811 3.38599 13.3352 3.43136 13.3797 3.56992C14.6713 7.65309 15.9676 11.735 17.2628 15.817C17.282 15.8758 17.3061 15.9335 17.3446 16.0365C18.4509 11.7988 19.5465 7.60282 20.6444 3.39948H23.5943C23.5799 3.46937 23.5714 3.53436 23.5546 3.59689C22.0117 9.20788 20.4676 14.8176 18.9283 20.4286C18.885 20.5856 18.8213 20.6322 18.6638 20.631C17.8003 20.6224 16.9381 20.6236 16.0747 20.631C15.946 20.631 15.8967 20.5905 15.857 20.4654C14.5366 16.2584 13.2114 12.0538 11.8873 7.84805C11.8705 7.7941 11.8525 7.74015 11.8224 7.64941C11.7899 7.72789 11.7647 7.77448 11.749 7.82353C10.4358 11.9987 9.12264 16.175 7.81065 20.3514C7.72406 20.6285 7.72526 20.6285 7.43064 20.6285C6.55517 20.6285 5.68091 20.6285 4.7874 20.6285C4.66835 20.2067 4.5505 19.7898 4.43505 19.3729C3.01362 14.2585 1.59219 9.14535 0.170764 4.03219C0.120256 3.85194 0.057723 3.6766 0 3.4988C0 3.46079 0 3.42278 0 3.38477Z" fill="#003865"/>
<path d="M74.9967 13.6722C74.9186 14.387 74.5819 14.9805 74.1826 15.5556C73.0426 17.1962 71.9158 18.8466 70.783 20.4922C70.7481 20.5424 70.7096 20.5903 70.6591 20.6577C70.2707 19.8631 69.8943 19.0919 69.8907 18.1943C69.8883 17.7296 70.0121 17.3065 70.2719 16.9289C71.5538 15.0577 72.8381 13.189 74.1225 11.3191C74.1465 11.2848 74.1742 11.2541 74.2127 11.2051C74.5758 11.8881 74.8993 12.5649 74.9967 13.33V13.6722Z" fill="#003865"/>
<path d="M41.5637 20.6205C41.8463 19.8799 42.1169 19.1749 42.3863 18.4698C44.2767 13.5173 46.1671 8.56596 48.0527 3.61098C48.1189 3.43563 48.1946 3.37555 48.381 3.378C49.3491 3.38904 50.3184 3.38536 51.2864 3.38045C51.4163 3.38045 51.48 3.41601 51.5293 3.54599C53.6723 9.17047 55.8201 14.7937 57.9667 20.417C57.9883 20.4746 58.0039 20.5347 58.0268 20.6095C57.9594 20.6132 57.9065 20.6205 57.8536 20.6205C56.9349 20.6205 56.0161 20.6181 55.0973 20.6242C54.9566 20.6242 54.8905 20.5825 54.8412 20.4476C54.3602 19.127 53.8695 17.8101 53.3897 16.4883C53.3356 16.3399 53.2707 16.2909 53.1143 16.2909C50.8667 16.297 48.6191 16.297 46.3716 16.2909C46.2128 16.2909 46.1527 16.3436 46.0998 16.4908C45.6284 17.8089 45.1449 19.1221 44.6723 20.4391C44.6206 20.5837 44.5521 20.6254 44.4042 20.6242C43.5287 20.6169 42.6532 20.6205 41.7778 20.6205H41.5625H41.5637ZM49.7435 6.56484C48.8801 8.93014 48.0347 11.2464 47.1809 13.581H52.305C51.4536 11.2488 50.607 8.93259 49.7423 6.56484H49.7435Z" fill="#003865"/>
<path d="M40.7049 8.62084C39.8042 8.92984 38.9239 9.23148 38.0316 9.5368C38.0148 9.50124 37.9955 9.47059 37.9859 9.43748C37.3618 7.22545 35.9091 6.00173 33.6507 5.80186C32.1727 5.67066 30.8295 6.04587 29.663 6.99248C28.6095 7.84713 27.9902 8.98134 27.7184 10.3117C27.4022 11.8604 27.4563 13.3907 28.0924 14.8511C28.9186 16.7504 30.3749 17.838 32.3868 18.12C33.7216 18.3077 34.9855 18.0747 36.1195 17.2936C37.0744 16.6364 37.7009 15.7204 38.0821 14.6218C38.1062 14.5506 38.129 14.4795 38.1603 14.3863C39.0321 14.6769 39.8944 14.9651 40.7759 15.2594C40.765 15.3182 40.7602 15.3722 40.7446 15.4225C39.8463 18.2929 37.9643 20.1114 35.0829 20.7637C32.7632 21.2885 30.5336 20.9476 28.4953 19.6565C26.5026 18.3935 25.3073 16.5383 24.8275 14.2134C24.4138 12.205 24.5076 10.2137 25.2953 8.30694C26.4461 5.51861 28.5169 3.813 31.4079 3.20114C33.3693 2.78791 35.2934 3.00004 37.0936 3.94297C38.9456 4.91165 40.1132 6.464 40.6845 8.49332C40.6941 8.52888 40.6965 8.56567 40.7049 8.62084Z" fill="#003865"/>
<path d="M68.0871 18.2904C68.3156 19.0801 68.5561 19.909 68.8099 20.782C68.3782 20.8446 67.9717 20.9329 67.5604 20.9586C65.3754 21.091 63.3887 20.5307 61.6763 19.1095C60.2115 17.8944 59.3108 16.3114 58.9032 14.4439C58.4366 12.3104 58.5075 10.1977 59.3649 8.1708C60.4905 5.50754 62.4904 3.86201 65.2515 3.24156C67.481 2.74006 69.6396 3.01595 71.6251 4.22496C73.1126 5.1311 74.1336 6.44434 74.7157 8.11072C74.7325 8.15731 74.7457 8.20636 74.7674 8.27748C73.8727 8.62571 72.984 8.97027 72.0784 9.32218C72.0388 9.21428 72.0027 9.11618 71.9654 9.01809C71.2258 7.09422 69.8357 6.01518 67.8358 5.77362C66.2532 5.58234 64.8162 5.9833 63.5787 7.02678C62.595 7.8569 62.0082 8.94084 61.7412 10.2026C61.4141 11.7451 61.4514 13.2827 62.0238 14.7578C62.874 16.949 64.4963 18.1102 66.7932 18.2868C67.2105 18.3187 67.6338 18.2904 68.0871 18.2904Z" fill="#003865"/>
<path d="M73.2662 11.29C73.2254 11.3575 73.1953 11.4102 73.1616 11.4605C72.6626 12.1864 72.1611 12.9086 71.6668 13.6369C71.5911 13.7498 71.5105 13.7865 71.3782 13.7865C70.2851 13.7804 69.1932 13.7816 68.1 13.7841C67.3941 13.7853 66.8109 13.518 66.3467 12.9748C65.9186 12.4745 65.6192 11.8945 65.3125 11.2913H73.265L73.2662 11.29Z" fill="#003865"/>
<rect x="95" width="58" height="24" rx="2" fill="#01BC5F"/>
<path d="M111.482 8.38867L107.967 11.875L111.453 15.3613L111.951 15.8594L110.984 16.8555L110.486 16.3574L107 12.8711L103.514 16.3574L103.016 16.8555L102.02 15.8594L102.518 15.3613L106.004 11.875L102.518 8.38867L102.02 7.89062L103.016 6.89453L103.514 7.39258L107 10.9082L110.486 7.42188L110.984 6.92383L111.98 7.89062L111.482 8.38867Z" fill="#F5F5F5"/>
<path d="M119.917 7.71973C121.114 7.71973 121.988 7.96517 122.538 8.45605C123.088 8.94694 123.363 9.6346 123.363 10.519C123.363 10.9211 123.3 11.304 123.173 11.668C123.05 12.0277 122.847 12.3472 122.563 12.6265C122.28 12.9015 121.905 13.1195 121.44 13.2803C120.979 13.4411 120.41 13.5215 119.732 13.5215H118.742V17H117.219V7.71973H119.917ZM119.815 8.98291H118.742V12.252H119.574C120.052 12.252 120.458 12.1969 120.792 12.0869C121.127 11.9727 121.381 11.7928 121.554 11.5474C121.728 11.3019 121.814 10.9782 121.814 10.5762C121.814 10.0387 121.652 9.63883 121.326 9.37646C121.004 9.1141 120.5 8.98291 119.815 8.98291ZM130.968 17L130.06 14.4229H126.512L125.604 17H123.998L127.451 7.68164H129.14L132.586 17H130.968ZM129.667 13.1152L128.784 10.5762C128.75 10.4661 128.702 10.3117 128.638 10.1128C128.575 9.90967 128.511 9.70443 128.448 9.49707C128.384 9.28548 128.331 9.10775 128.289 8.96387C128.247 9.13737 128.194 9.33203 128.13 9.54785C128.071 9.75944 128.012 9.95833 127.953 10.1445C127.898 10.3307 127.855 10.4746 127.826 10.5762L126.937 13.1152H129.667ZM139.169 14.4736C139.169 15.0238 139.034 15.4977 138.763 15.8955C138.496 16.2933 138.111 16.598 137.607 16.8096C137.108 17.0212 136.511 17.127 135.817 17.127C135.479 17.127 135.155 17.1079 134.846 17.0698C134.537 17.0317 134.245 16.9767 133.97 16.9048C133.699 16.8286 133.452 16.7376 133.228 16.6318V15.1973C133.604 15.3623 134.025 15.5125 134.491 15.6479C134.956 15.7791 135.43 15.8447 135.913 15.8447C136.306 15.8447 136.632 15.7939 136.89 15.6924C137.153 15.5866 137.347 15.4385 137.474 15.248C137.601 15.0534 137.665 14.827 137.665 14.5688C137.665 14.2938 137.59 14.061 137.442 13.8706C137.294 13.6802 137.07 13.5067 136.77 13.3501C136.473 13.1893 136.101 13.0179 135.652 12.8359C135.348 12.7132 135.056 12.5736 134.776 12.417C134.501 12.2604 134.256 12.0763 134.04 11.8647C133.824 11.6532 133.653 11.4035 133.526 11.1157C133.403 10.8237 133.342 10.481 133.342 10.0874C133.342 9.56266 133.467 9.1141 133.716 8.7417C133.97 8.3693 134.326 8.08366 134.783 7.88477C135.244 7.68587 135.781 7.58643 136.395 7.58643C136.882 7.58643 137.339 7.63721 137.766 7.73877C138.198 7.84033 138.621 7.98421 139.036 8.17041L138.553 9.39551C138.172 9.23893 137.802 9.1141 137.442 9.021C137.087 8.9279 136.723 8.88135 136.351 8.88135C136.029 8.88135 135.756 8.93001 135.532 9.02734C135.307 9.12467 135.136 9.26221 135.018 9.43994C134.903 9.61344 134.846 9.8208 134.846 10.062C134.846 10.3328 134.912 10.5614 135.043 10.7476C135.178 10.9295 135.386 11.0967 135.665 11.249C135.949 11.4014 136.312 11.5706 136.757 11.7568C137.269 11.9684 137.703 12.1906 138.058 12.4233C138.418 12.6561 138.693 12.9354 138.883 13.2612C139.074 13.5828 139.169 13.987 139.169 14.4736ZM146.316 14.4736C146.316 15.0238 146.181 15.4977 145.91 15.8955C145.644 16.2933 145.258 16.598 144.755 16.8096C144.256 17.0212 143.659 17.127 142.965 17.127C142.626 17.127 142.303 17.1079 141.994 17.0698C141.685 17.0317 141.393 16.9767 141.118 16.9048C140.847 16.8286 140.599 16.7376 140.375 16.6318V15.1973C140.752 15.3623 141.173 15.5125 141.638 15.6479C142.104 15.7791 142.578 15.8447 143.06 15.8447C143.454 15.8447 143.779 15.7939 144.038 15.6924C144.3 15.5866 144.495 15.4385 144.622 15.248C144.749 15.0534 144.812 14.827 144.812 14.5688C144.812 14.2938 144.738 14.061 144.59 13.8706C144.442 13.6802 144.217 13.5067 143.917 13.3501C143.621 13.1893 143.248 13.0179 142.8 12.8359C142.495 12.7132 142.203 12.5736 141.924 12.417C141.649 12.2604 141.403 12.0763 141.188 11.8647C140.972 11.6532 140.8 11.4035 140.673 11.1157C140.551 10.8237 140.489 10.481 140.489 10.0874C140.489 9.56266 140.614 9.1141 140.864 8.7417C141.118 8.3693 141.473 8.08366 141.93 7.88477C142.391 7.68587 142.929 7.58643 143.542 7.58643C144.029 7.58643 144.486 7.63721 144.914 7.73877C145.345 7.84033 145.768 7.98421 146.183 8.17041L145.701 9.39551C145.32 9.23893 144.95 9.1141 144.59 9.021C144.234 8.9279 143.87 8.88135 143.498 8.88135C143.176 8.88135 142.903 8.93001 142.679 9.02734C142.455 9.12467 142.284 9.26221 142.165 9.43994C142.051 9.61344 141.994 9.8208 141.994 10.062C141.994 10.3328 142.059 10.5614 142.19 10.7476C142.326 10.9295 142.533 11.0967 142.812 11.249C143.096 11.4014 143.46 11.5706 143.904 11.7568C144.416 11.9684 144.85 12.1906 145.206 12.4233C145.565 12.6561 145.84 12.9354 146.031 13.2612C146.221 13.5828 146.316 13.987 146.316 14.4736Z" fill="white"/>
</svg>
