<svg width="16" height="16" viewBox="0 0 16 16" fill="none" xmlns="http://www.w3.org/2000/svg">
<path d="M15.1875 2.4043L9.5625 8.0293L15.1406 13.6074C15.6094 14.0293 15.6094 14.7324 15.1406 15.1543C14.7188 15.623 14.0156 15.623 13.5938 15.1543L7.96875 9.57617L2.39062 15.1543C1.96875 15.623 1.26562 15.623 0.84375 15.1543C0.375 14.7324 0.375 14.0293 0.84375 13.5605L6.42188 7.98242L0.84375 2.4043C0.375 1.98242 0.375 1.2793 0.84375 0.810547C1.26562 0.388672 1.96875 0.388672 2.4375 0.810547L8.01562 6.43555L13.5938 0.857422C14.0156 0.388672 14.7188 0.388672 15.1875 0.857422C15.6094 1.2793 15.6094 1.98242 15.1875 2.4043Z" fill="#FF3B30"/>
</svg>
