<svg width="22" height="23" viewBox="0 0 22 23" fill="none" xmlns="http://www.w3.org/2000/svg">
<path d="M7.04688 7.5625L11.1719 0.6875C11.4297 0.257812 11.8594 0 12.375 0C12.8477 0 13.2773 0.257812 13.5352 0.6875L17.6602 7.5625C17.918 7.99219 17.918 8.50781 17.6602 8.9375C17.4453 9.36719 16.9727 9.625 16.5 9.625H8.25C7.73438 9.625 7.26172 9.36719 7.04688 8.9375C6.78906 8.50781 6.78906 7.99219 7.04688 7.5625ZM12.375 2.75L9.45312 7.5625H15.2539L12.375 2.75ZM19.9375 13.75H14.4375V19.25H19.9375V13.75ZM14.0938 11.6875H20.2812C21.2266 11.6875 22 12.4609 22 13.4062V19.5938C22 20.582 21.2266 21.3125 20.2812 21.3125H14.0938C13.1055 21.3125 12.375 20.582 12.375 19.5938V13.4062C12.375 12.4609 13.1055 11.6875 14.0938 11.6875ZM8.9375 16.5C8.9375 15.2969 8.25 14.1797 7.21875 13.5352C6.14453 12.9336 4.8125 12.9336 3.78125 13.5352C2.70703 14.1797 2.0625 15.2969 2.0625 16.5C2.0625 17.7461 2.70703 18.8633 3.78125 19.5078C4.8125 20.1094 6.14453 20.1094 7.21875 19.5078C8.25 18.8633 8.9375 17.7461 8.9375 16.5ZM0 16.5C0 14.5664 1.03125 12.7617 2.75 11.7734C4.42578 10.7852 6.53125 10.7852 8.25 11.7734C9.92578 12.7617 11 14.5664 11 16.5C11 18.4766 9.92578 20.2812 8.25 21.2695C6.53125 22.2578 4.42578 22.2578 2.75 21.2695C1.03125 20.2812 0 18.4766 0 16.5Z" fill="#D6BFAF"/>
</svg>
